<svg version="1.1" id="Layer_1" xmlns="http://www.w3.org/2000/svg" xmlns:xlink="http://www.w3.org/1999/xlink" x="0px" y="0px"
	 width="100%" viewBox="0 0 612 287" enable-background="new 0 0 612 287" xml:space="preserve">
<path fill="#FFFFFF" opacity="0" stroke="none" 
	d="
M363.000000,288.000000 
	C242.033478,288.000000 121.566971,288.000000 1.050226,288.000000 
	C1.050226,192.393417 1.050226,96.786812 1.050226,1.090102 
	C204.883209,1.090102 408.766449,1.090102 612.824829,1.090102 
	C612.824829,96.666412 612.824829,192.333176 612.824829,288.000000 
	C529.786804,288.000000 446.643402,288.000000 363.000000,288.000000 
M70.500160,231.000000 
	C63.735485,231.000000 56.970810,231.000000 50.288399,231.000000 
	C50.288399,238.981476 50.288399,246.387009 50.288399,253.722351 
	C95.639275,253.722351 140.701202,253.722351 185.720459,253.722351 
	C185.720459,246.036560 185.720459,238.631973 185.720459,230.813873 
	C175.755188,230.813873 166.063538,230.813873 155.987915,230.813873 
	C193.159317,191.734863 186.886871,131.881195 142.347351,102.709549 
	C144.045273,99.482834 145.602844,96.190819 147.451202,93.071075 
	C153.571289,82.741310 159.874985,72.519630 165.927826,62.151169 
	C167.522827,59.418945 168.424683,56.316071 164.461929,54.636742 
	C166.661987,50.984341 168.874939,47.310516 171.172363,43.496468 
	C164.907593,39.870312 158.830261,36.352665 152.870270,32.902924 
	C148.449265,35.546364 150.197220,45.277573 141.349289,42.149841 
	C119.681755,79.764900 98.019493,117.370796 76.325851,155.031174 
	C78.395676,156.184067 79.747971,156.937286 81.584213,157.960068 
	C79.045609,162.647919 76.626801,167.114563 74.044548,171.883026 
	C76.662529,173.401108 79.335823,174.865906 81.923866,176.468414 
	C88.924217,180.802979 90.544662,180.544266 94.146461,173.306290 
	C96.317368,168.943787 98.423073,165.838074 103.312584,170.254120 
	C106.705978,164.448929 109.965485,158.981094 113.118843,153.452728 
	C117.791405,145.260910 122.283600,136.964462 127.057083,128.832611 
	C129.958817,123.889374 132.286209,123.566345 136.266708,127.924561 
	C140.514297,132.575211 144.430603,137.569519 148.110870,142.687515 
	C153.597961,150.318192 156.074448,159.352615 156.795013,168.394836 
	C158.061157,184.283783 152.291061,198.443039 142.004150,210.279388 
	C129.480850,224.688980 112.843803,230.716248 93.992752,230.982605 
	C86.496620,231.088516 78.997749,231.000000 70.500160,231.000000 
M244.039551,92.454437 
	C241.715897,94.300484 238.933899,95.788513 237.157852,98.062302 
	C232.539398,103.975128 227.553635,109.822632 224.193939,116.446617 
	C218.759705,127.160751 218.658371,139.005417 218.883713,150.879944 
	C219.140335,164.402832 222.934860,176.743256 230.506592,187.645935 
	C233.665848,192.195007 238.521576,196.035110 243.390686,198.830826 
	C253.844696,204.833237 265.260803,204.943649 277.267609,204.424805 
	C289.178528,203.910080 300.356537,200.760300 311.882660,198.955078 
	C314.358765,198.567261 315.099274,196.998306 315.064789,194.442413 
	C314.914124,183.278885 315.092346,172.111008 314.954102,160.947159 
	C314.899536,156.540192 314.500366,152.118408 313.951874,147.741730 
	C313.335022,142.819794 308.690735,137.314758 303.931458,137.137863 
	C292.412079,136.709686 280.866089,136.998779 269.148926,136.998779 
	C268.341766,142.667938 265.056244,148.843918 269.612091,155.312347 
	C274.431824,162.155457 281.709381,159.004166 287.999878,160.357712 
	C287.999878,166.411667 287.878296,172.229263 288.048798,178.038284 
	C288.140320,181.154236 286.876923,182.145050 283.907532,182.042587 
	C279.246887,181.881790 274.572876,182.118744 269.911194,181.973358 
	C262.021515,181.727310 251.465073,172.140625 249.975388,164.311768 
	C247.630615,151.989197 247.007828,139.797165 249.891281,127.373222 
	C253.422592,112.157806 265.913666,105.642403 279.755005,108.510101 
	C287.591278,110.133652 295.042725,113.614891 304.238342,116.804260 
	C307.070312,111.989922 310.611359,106.491951 313.493103,100.667763 
	C314.133759,99.372948 313.038971,95.922234 311.748535,95.169563 
	C298.715271,87.567818 284.766266,83.992332 269.441010,84.791801 
	C260.387115,85.264107 252.496048,88.145439 244.039551,92.454437 
M369.561462,167.000000 
	C374.632660,166.666458 379.788940,166.800034 384.756165,165.895462 
	C393.298706,164.339828 401.374756,161.099854 407.068848,154.281555 
	C418.133179,141.032684 418.600464,125.622749 413.849518,110.059723 
	C410.666901,99.634087 403.458344,92.376396 392.553711,88.881317 
	C384.775848,86.388412 377.144470,85.305084 368.957397,85.849983 
	C359.338654,86.490173 349.641632,86.142227 339.984619,85.937599 
	C335.429321,85.841064 333.905975,87.652168 333.934784,92.114555 
	C334.077728,114.268120 334.000000,136.423111 334.000000,158.577606 
	C334.000000,171.903610 333.918396,185.230835 334.114075,198.553955 
	C334.135986,200.045334 335.576080,202.659836 336.621796,202.800873 
	C342.142578,203.545395 347.757599,204.053772 353.321503,203.913376 
	C363.005646,203.669006 363.000000,203.445084 363.000000,193.905563 
	C363.000000,184.985718 363.000000,176.065872 363.000000,167.000000 
	C365.284119,167.000000 366.936554,167.000000 369.561462,167.000000 
M508.000000,146.359085 
	C508.647034,135.866470 507.798401,125.172005 513.154785,115.404739 
	C517.027771,108.342415 524.321167,105.402954 532.201416,107.612572 
	C540.550354,109.953598 544.308044,118.724709 544.774109,127.990631 
	C545.017883,132.836670 546.295776,134.624344 550.942932,135.643829 
	C560.362549,137.710281 570.179626,131.471863 570.940247,125.269203 
	C572.675354,111.121033 567.968811,99.766457 555.671326,91.968269 
	C545.471436,85.500214 534.479431,83.831802 522.451233,84.787788 
	C510.062103,85.772461 500.399841,90.486267 492.422821,99.943008 
	C483.020966,111.088898 479.492798,124.268463 478.079742,138.196091 
	C476.777374,151.032867 478.623505,163.724472 483.166199,175.714615 
	C486.786102,185.269196 492.504761,193.735901 501.817749,198.968704 
	C511.000824,204.128525 520.656311,205.243942 531.245361,204.244705 
	C545.671143,202.883423 557.907959,197.634323 569.034790,188.693939 
	C571.487183,186.723434 571.618469,184.822968 570.399292,183.031387 
	C566.711121,177.611618 562.606750,172.475143 558.715088,167.295578 
	C549.763123,174.538589 540.890137,178.832962 530.705566,179.957123 
	C523.402039,180.763245 517.970093,176.433685 513.601929,170.608841 
	C508.150604,163.339615 509.738983,155.073929 508.000000,146.359085 
M441.791290,203.999893 
	C448.127411,203.726089 454.463562,203.452271 461.000000,203.169815 
	C461.000000,181.804550 461.000000,161.177063 461.000000,140.549561 
	C460.999969,123.898331 460.930695,107.246513 461.072601,90.596489 
	C461.094604,88.017113 460.325409,86.212547 457.926483,86.100433 
	C449.286102,85.696625 440.571289,84.697044 432.000000,87.393867 
	C432.000000,122.343681 431.986786,156.970016 432.020386,191.596298 
	C432.023743,195.056320 431.366913,199.009903 432.820770,201.791351 
	C433.697571,203.468842 438.060669,203.324097 441.791290,203.999893 
M64.487007,179.992859 
	C59.286564,177.086304 54.086124,174.179733 49.002758,171.338608 
	C46.575951,175.669327 44.710148,178.998917 43.015064,182.023849 
	C61.582802,192.800690 79.938324,203.454346 98.569901,214.268234 
	C100.873970,210.656876 103.078728,207.201157 105.359879,203.625717 
	C91.599922,195.745605 78.311829,188.135727 64.487007,179.992859 
z"/>
<path fill="#FFFFFF" opacity="1.000000" stroke="none" 
	d="
M71.000137,231.000000 
	C78.997749,231.000000 86.496620,231.088516 93.992752,230.982605 
	C112.843803,230.716248 129.480850,224.688980 142.004150,210.279388 
	C152.291061,198.443039 158.061157,184.283783 156.795013,168.394836 
	C156.074448,159.352615 153.597961,150.318192 148.110870,142.687515 
	C144.430603,137.569519 140.514297,132.575211 136.266708,127.924561 
	C132.286209,123.566345 129.958817,123.889374 127.057083,128.832611 
	C122.283600,136.964462 117.791405,145.260910 113.118843,153.452728 
	C109.965485,158.981094 106.705978,164.448929 103.312584,170.254120 
	C98.423073,165.838074 96.317368,168.943787 94.146461,173.306290 
	C90.544662,180.544266 88.924217,180.802979 81.923866,176.468414 
	C79.335823,174.865906 76.662529,173.401108 74.044548,171.883026 
	C76.626801,167.114563 79.045609,162.647919 81.584213,157.960068 
	C79.747971,156.937286 78.395676,156.184067 76.325851,155.031174 
	C98.019493,117.370796 119.681755,79.764900 141.349289,42.149841 
	C150.197220,45.277573 148.449265,35.546364 152.870270,32.902924 
	C158.830261,36.352665 164.907593,39.870312 171.172363,43.496468 
	C168.874939,47.310516 166.661987,50.984341 164.461929,54.636742 
	C168.424683,56.316071 167.522827,59.418945 165.927826,62.151169 
	C159.874985,72.519630 153.571289,82.741310 147.451202,93.071075 
	C145.602844,96.190819 144.045273,99.482834 142.347351,102.709549 
	C186.886871,131.881195 193.159317,191.734863 155.987915,230.813873 
	C166.063538,230.813873 175.755188,230.813873 185.720459,230.813873 
	C185.720459,238.631973 185.720459,246.036560 185.720459,253.722351 
	C140.701202,253.722351 95.639275,253.722351 50.288399,253.722351 
	C50.288399,246.387009 50.288399,238.981476 50.288399,231.000000 
	C56.970810,231.000000 63.735485,231.000000 71.000137,231.000000 
z"/>
<path fill="#FFFFFF" opacity="1.000000" stroke="none" 
	d="
M244.356888,92.242432 
	C252.496048,88.145439 260.387115,85.264107 269.441010,84.791801 
	C284.766266,83.992332 298.715271,87.567818 311.748535,95.169563 
	C313.038971,95.922234 314.133759,99.372948 313.493103,100.667763 
	C310.611359,106.491951 307.070312,111.989922 304.238342,116.804260 
	C295.042725,113.614891 287.591278,110.133652 279.755005,108.510101 
	C265.913666,105.642403 253.422592,112.157806 249.891281,127.373222 
	C247.007828,139.797165 247.630615,151.989197 249.975388,164.311768 
	C251.465073,172.140625 262.021515,181.727310 269.911194,181.973358 
	C274.572876,182.118744 279.246887,181.881790 283.907532,182.042587 
	C286.876923,182.145050 288.140320,181.154236 288.048798,178.038284 
	C287.878296,172.229263 287.999878,166.411667 287.999878,160.357712 
	C281.709381,159.004166 274.431824,162.155457 269.612091,155.312347 
	C265.056244,148.843918 268.341766,142.667938 269.148926,136.998779 
	C280.866089,136.998779 292.412079,136.709686 303.931458,137.137863 
	C308.690735,137.314758 313.335022,142.819794 313.951874,147.741730 
	C314.500366,152.118408 314.899536,156.540192 314.954102,160.947159 
	C315.092346,172.111008 314.914124,183.278885 315.064789,194.442413 
	C315.099274,196.998306 314.358765,198.567261 311.882660,198.955078 
	C300.356537,200.760300 289.178528,203.910080 277.267609,204.424805 
	C265.260803,204.943649 253.844696,204.833237 243.390686,198.830826 
	C238.521576,196.035110 233.665848,192.195007 230.506592,187.645935 
	C222.934860,176.743256 219.140335,164.402832 218.883713,150.879944 
	C218.658371,139.005417 218.759705,127.160751 224.193939,116.446617 
	C227.553635,109.822632 232.539398,103.975128 237.157852,98.062302 
	C238.933899,95.788513 241.715897,94.300484 244.356888,92.242432 
z"/>
<path fill="#FFFFFF" opacity="1.000000" stroke="none" 
	d="
M369.075226,167.000000 
	C366.936554,167.000000 365.284119,167.000000 363.000000,167.000000 
	C363.000000,176.065872 363.000000,184.985718 363.000000,193.905563 
	C363.000000,203.445084 363.005646,203.669006 353.321503,203.913376 
	C347.757599,204.053772 342.142578,203.545395 336.621796,202.800873 
	C335.576080,202.659836 334.135986,200.045334 334.114075,198.553955 
	C333.918396,185.230835 334.000000,171.903610 334.000000,158.577606 
	C334.000000,136.423111 334.077728,114.268120 333.934784,92.114555 
	C333.905975,87.652168 335.429321,85.841064 339.984619,85.937599 
	C349.641632,86.142227 359.338654,86.490173 368.957397,85.849983 
	C377.144470,85.305084 384.775848,86.388412 392.553711,88.881317 
	C403.458344,92.376396 410.666901,99.634087 413.849518,110.059723 
	C418.600464,125.622749 418.133179,141.032684 407.068848,154.281555 
	C401.374756,161.099854 393.298706,164.339828 384.756165,165.895462 
	C379.788940,166.800034 374.632660,166.666458 369.075226,167.000000 
M363.000000,127.499168 
	C363.000000,133.263641 363.000000,139.028122 363.000000,144.727692 
	C376.476318,146.028793 382.654877,143.457291 385.030792,137.750839 
	C388.539368,129.324188 388.784790,120.462837 384.019043,112.928307 
	C379.186188,105.287750 370.547943,108.385857 363.000000,108.115891 
	C363.000000,114.549713 363.000000,120.524857 363.000000,127.499168 
z"/>
<path fill="#FFFFFF" opacity="1.000000" stroke="none" 
	d="
M508.000000,146.834946 
	C509.738983,155.073929 508.150604,163.339615 513.601929,170.608841 
	C517.970093,176.433685 523.402039,180.763245 530.705566,179.957123 
	C540.890137,178.832962 549.763123,174.538589 558.715088,167.295578 
	C562.606750,172.475143 566.711121,177.611618 570.399292,183.031387 
	C571.618469,184.822968 571.487183,186.723434 569.034790,188.693939 
	C557.907959,197.634323 545.671143,202.883423 531.245361,204.244705 
	C520.656311,205.243942 511.000824,204.128525 501.817749,198.968704 
	C492.504761,193.735901 486.786102,185.269196 483.166199,175.714615 
	C478.623505,163.724472 476.777374,151.032867 478.079742,138.196091 
	C479.492798,124.268463 483.020966,111.088898 492.422821,99.943008 
	C500.399841,90.486267 510.062103,85.772461 522.451233,84.787788 
	C534.479431,83.831802 545.471436,85.500214 555.671326,91.968269 
	C567.968811,99.766457 572.675354,111.121033 570.940247,125.269203 
	C570.179626,131.471863 560.362549,137.710281 550.942932,135.643829 
	C546.295776,134.624344 545.017883,132.836670 544.774109,127.990631 
	C544.308044,118.724709 540.550354,109.953598 532.201416,107.612572 
	C524.321167,105.402954 517.027771,108.342415 513.154785,115.404739 
	C507.798401,125.172005 508.647034,135.866470 508.000000,146.834946 
z"/>
<path fill="#FFFFFF" opacity="1.000000" stroke="none" 
	d="
M441.324249,203.999023 
	C438.060669,203.324097 433.697571,203.468842 432.820770,201.791351 
	C431.366913,199.009903 432.023743,195.056320 432.020386,191.596298 
	C431.986786,156.970016 432.000000,122.343681 432.000000,87.393867 
	C440.571289,84.697044 449.286102,85.696625 457.926483,86.100433 
	C460.325409,86.212547 461.094604,88.017113 461.072601,90.596489 
	C460.930695,107.246513 460.999969,123.898331 461.000000,140.549561 
	C461.000000,161.177063 461.000000,181.804550 461.000000,203.169815 
	C454.463562,203.452271 448.127411,203.726089 441.324249,203.999023 
z"/>
<path fill="#FFFFFF" opacity="0" stroke="none" 
	d="
M64.755371,180.259369 
	C78.311829,188.135727 91.599922,195.745605 105.359879,203.625717 
	C103.078728,207.201157 100.873970,210.656876 98.569901,214.268234 
	C79.938324,203.454346 61.582802,192.800690 43.015064,182.023849 
	C44.710148,178.998917 46.575951,175.669327 49.002758,171.338608 
	C54.086124,174.179733 59.286564,177.086304 64.755371,180.259369 
z"/>
<path fill="#FFFFFF" opacity="0" stroke="none" 
	d="
M363.000000,126.999588 
	C363.000000,120.524857 363.000000,114.549713 363.000000,108.115891 
	C370.547943,108.385857 379.186188,105.287750 384.019043,112.928307 
	C388.784790,120.462837 388.539368,129.324188 385.030792,137.750839 
	C382.654877,143.457291 376.476318,146.028793 363.000000,144.727692 
	C363.000000,139.028122 363.000000,133.263641 363.000000,126.999588 
z"/>
</svg>