<?xml version="1.0" encoding="UTF-8" standalone="no"?>
<!DOCTYPE svg PUBLIC "-//W3C//DTD SVG 1.1//EN"
 "http://www.w3.org/Graphics/SVG/1.1/DTD/svg11.dtd">
<!-- Generated by graphviz version 8.1.0 (20230707.0739)
 -->
<!-- Title: src.domain.interfaces.services.download_file_service_interface.IDownloadFileService Pages: 1 -->
<svg width="487pt" height="132pt"
 viewBox="0.00 0.00 487.25 132.00" xmlns="http://www.w3.org/2000/svg" xmlns:xlink="http://www.w3.org/1999/xlink">
<g id="graph0" class="graph" transform="scale(1 1) rotate(0) translate(4 128)">
<title>src.domain.interfaces.services.download_file_service_interface.IDownloadFileService</title>
<!-- Node1 -->
<g id="Node000001" class="node">
<title>Node1</title>
<g id="a_Node000001"><a xlink:title=" ">
<polygon fill="#999999" stroke="#666666" points="284.75,-76.75 73,-76.75 73,-46.25 284.75,-46.25 284.75,-76.75"/>
<text text-anchor="start" x="81" y="-63.25" font-family="Helvetica,sans-Serif" font-size="10.00">src.domain.interfaces.services.download</text>
<text text-anchor="middle" x="178.88" y="-52" font-family="Helvetica,sans-Serif" font-size="10.00">_file_service_interface.IDownloadFileService</text>
</a>
</g>
</g>
<!-- Node3 -->
<g id="Node000003" class="node">
<title>Node3</title>
<g id="a_Node000003"><a xlink:href="classsrc_1_1infra_1_1external__services_1_1cloud__download__file__service_1_1_cloud_download_file_service.html" target="_top" xlink:title=" ">
<polygon fill="white" stroke="#666666" points="479.25,-124 320.75,-124 320.75,-71 479.25,-71 479.25,-124"/>
<text text-anchor="start" x="328.75" y="-110.5" font-family="Helvetica,sans-Serif" font-size="10.00">src.infra.external</text>
<text text-anchor="start" x="328.75" y="-99.25" font-family="Helvetica,sans-Serif" font-size="10.00">_services.cloud_download</text>
<text text-anchor="start" x="328.75" y="-88" font-family="Helvetica,sans-Serif" font-size="10.00">_file_service.CloudDownloadFile</text>
<text text-anchor="middle" x="400" y="-76.75" font-family="Helvetica,sans-Serif" font-size="10.00">Service</text>
</a>
</g>
</g>
<!-- Node1&#45;&gt;Node3 -->
<g id="edge2_Node000001_Node000003" class="edge">
<title>Node1&#45;&gt;Node3</title>
<g id="a_edge2_Node000001_Node000003"><a xlink:title=" ">
<path fill="none" stroke="#63b8ff" d="M286.24,-78.97C297.78,-80.87 309.36,-82.77 320.48,-84.6"/>
<polygon fill="#63b8ff" stroke="#63b8ff" points="287.1,-75.41 276.67,-77.24 285.97,-82.31 287.1,-75.41"/>
</a>
</g>
</g>
<!-- Node4 -->
<g id="Node000004" class="node">
<title>Node4</title>
<g id="a_Node000004"><a xlink:href="classsrc_1_1infra_1_1external__services_1_1local__download__file__service_1_1_local_download_file_service.html" target="_top" xlink:title=" ">
<polygon fill="white" stroke="#666666" points="478.12,-53 321.88,-53 321.88,0 478.12,0 478.12,-53"/>
<text text-anchor="start" x="329.88" y="-39.5" font-family="Helvetica,sans-Serif" font-size="10.00">src.infra.external</text>
<text text-anchor="start" x="329.88" y="-28.25" font-family="Helvetica,sans-Serif" font-size="10.00">_services.local_download</text>
<text text-anchor="start" x="329.88" y="-17" font-family="Helvetica,sans-Serif" font-size="10.00">_file_service.LocalDownloadFile</text>
<text text-anchor="middle" x="400" y="-5.75" font-family="Helvetica,sans-Serif" font-size="10.00">Service</text>
</a>
</g>
</g>
<!-- Node1&#45;&gt;Node4 -->
<g id="edge3_Node000001_Node000004" class="edge">
<title>Node1&#45;&gt;Node4</title>
<g id="a_edge3_Node000001_Node000004"><a xlink:title=" ">
<path fill="none" stroke="#63b8ff" d="M288.83,-44.1C299.92,-42.33 311.02,-40.55 321.67,-38.85"/>
<polygon fill="#63b8ff" stroke="#63b8ff" points="288.54,-40.76 279.22,-45.79 289.65,-47.67 288.54,-40.76"/>
</a>
</g>
</g>
<!-- Node2 -->
<g id="Node000002" class="node">
<title>Node2</title>
<g id="a_Node000002"><a xlink:title=" ">
<polygon fill="white" stroke="#666666" points="37,-71.12 0,-71.12 0,-51.88 37,-51.88 37,-71.12"/>
<text text-anchor="middle" x="18.5" y="-57.62" font-family="Helvetica,sans-Serif" font-size="10.00">ABC</text>
</a>
</g>
</g>
<!-- Node2&#45;&gt;Node1 -->
<g id="edge1_Node000001_Node000002" class="edge">
<title>Node2&#45;&gt;Node1</title>
<g id="a_edge1_Node000001_Node000002"><a xlink:title=" ">
<path fill="none" stroke="#63b8ff" d="M48.28,-61.5C55.56,-61.5 63.83,-61.5 72.57,-61.5"/>
<polygon fill="#63b8ff" stroke="#63b8ff" points="48.36,-58 38.36,-61.5 48.36,-65 48.36,-58"/>
</a>
</g>
</g>
</g>
</svg>
