<?xml version="1.0" encoding="UTF-8" standalone="no"?>
<!DOCTYPE svg PUBLIC "-//W3C//DTD SVG 1.1//EN"
 "http://www.w3.org/Graphics/SVG/1.1/DTD/svg11.dtd">
<!-- Generated by graphviz version 9.0.0 (20230911.1827)
 -->
<!-- Title: Application.UseCases.ProjectPartialReport.UpdateProjectPartialReport.ExecuteAsync Pages: 1 -->
<svg width="601pt" height="137pt"
 viewBox="0.00 0.00 600.50 136.50" xmlns="http://www.w3.org/2000/svg" xmlns:xlink="http://www.w3.org/1999/xlink">
<g id="graph0" class="graph" transform="scale(1 1) rotate(0) translate(4 132.5)">
<title>Application.UseCases.ProjectPartialReport.UpdateProjectPartialReport.ExecuteAsync</title>
<!-- Node1 -->
<g id="Node000001" class="node">
<title>Node1</title>
<g id="a_Node000001"><a xlink:title=" ">
<polygon fill="#999999" stroke="#666666" points="166,-85.12 0,-85.12 0,-43.38 166,-43.38 166,-85.12"/>
<text text-anchor="start" x="8" y="-71.62" font-family="Helvetica,sans-Serif" font-size="10.00">Application.UseCases.Project</text>
<text text-anchor="start" x="8" y="-60.38" font-family="Helvetica,sans-Serif" font-size="10.00">PartialReport.UpdateProjectPartial</text>
<text text-anchor="middle" x="83" y="-49.12" font-family="Helvetica,sans-Serif" font-size="10.00">Report.ExecuteAsync</text>
</a>
</g>
</g>
<!-- Node2 -->
<g id="Node000002" class="node">
<title>Node2</title>
<g id="a_Node000002"><a xlink:href="class_application_1_1_validation_1_1_use_case_exception.html#abdfb0053369c84d85c471ad55011c4c4" target="_top" xlink:title=" ">
<polygon fill="white" stroke="#666666" points="386,-128.5 202,-128.5 202,-98 386,-98 386,-128.5"/>
<text text-anchor="start" x="210" y="-115" font-family="Helvetica,sans-Serif" font-size="10.00">Application.Validation.Use</text>
<text text-anchor="middle" x="294" y="-103.75" font-family="Helvetica,sans-Serif" font-size="10.00">CaseException.BusinessRuleViolation</text>
</a>
</g>
</g>
<!-- Node1&#45;&gt;Node2 -->
<g id="edge1_Node000001_Node000002" class="edge">
<title>Node1&#45;&gt;Node2</title>
<g id="a_edge1_Node000001_Node000002"><a xlink:title=" ">
<path fill="none" stroke="#63b8ff" d="M166.3,-83.55C182.36,-87.31 199.15,-91.25 215.06,-94.98"/>
<polygon fill="#63b8ff" stroke="#63b8ff" points="213.9,-98.3 224.44,-97.18 215.5,-91.49 213.9,-98.3"/>
</a>
</g>
</g>
<!-- Node3 -->
<g id="Node000003" class="node">
<title>Node3</title>
<g id="a_Node000003"><a xlink:href="class_application_1_1_validation_1_1_use_case_exception.html#a6bfcf35154fd3871957a71216a943cba" target="_top" xlink:title=" ">
<polygon fill="white" stroke="#666666" points="381.12,-79.5 206.88,-79.5 206.88,-49 381.12,-49 381.12,-79.5"/>
<text text-anchor="start" x="214.88" y="-66" font-family="Helvetica,sans-Serif" font-size="10.00">Application.Validation.Use</text>
<text text-anchor="middle" x="294" y="-54.75" font-family="Helvetica,sans-Serif" font-size="10.00">CaseException.NotFoundEntityById</text>
</a>
</g>
</g>
<!-- Node1&#45;&gt;Node3 -->
<g id="edge2_Node000001_Node000003" class="edge">
<title>Node1&#45;&gt;Node3</title>
<g id="a_edge2_Node000001_Node000003"><a xlink:title=" ">
<path fill="none" stroke="#63b8ff" d="M166.3,-64.25C175.83,-64.25 185.61,-64.25 195.31,-64.25"/>
<polygon fill="#63b8ff" stroke="#63b8ff" points="195.13,-67.75 205.13,-64.25 195.13,-60.75 195.13,-67.75"/>
</a>
</g>
</g>
<!-- Node4 -->
<g id="Node000004" class="node">
<title>Node4</title>
<g id="a_Node000004"><a xlink:href="class_application_1_1_validation_1_1_use_case_exception.html#a640987a86719d6afd8278fdbf578ab57" target="_top" xlink:title=" ">
<polygon fill="white" stroke="#666666" points="378.12,-30.5 209.88,-30.5 209.88,0 378.12,0 378.12,-30.5"/>
<text text-anchor="start" x="217.88" y="-17" font-family="Helvetica,sans-Serif" font-size="10.00">Application.Validation.Use</text>
<text text-anchor="middle" x="294" y="-5.75" font-family="Helvetica,sans-Serif" font-size="10.00">CaseException.NotInformedParam</text>
</a>
</g>
</g>
<!-- Node1&#45;&gt;Node4 -->
<g id="edge3_Node000001_Node000004" class="edge">
<title>Node1&#45;&gt;Node4</title>
<g id="a_edge3_Node000001_Node000004"><a xlink:title=" ">
<path fill="none" stroke="#63b8ff" d="M166.3,-44.95C182.36,-41.19 199.15,-37.25 215.06,-33.52"/>
<polygon fill="#63b8ff" stroke="#63b8ff" points="215.5,-37.01 224.44,-31.32 213.9,-30.2 215.5,-37.01"/>
</a>
</g>
</g>
<!-- Node5 -->
<g id="Node000005" class="node">
<title>Node5</title>
<g id="a_Node000005"><a xlink:href="class_application_1_1_validation_1_1_use_case_exception.html#ad2defa29da6c9eee2864794300f152ae" target="_top" xlink:title=" ">
<polygon fill="white" stroke="#666666" points="592.5,-30.5 422,-30.5 422,0 592.5,0 592.5,-30.5"/>
<text text-anchor="start" x="430" y="-17" font-family="Helvetica,sans-Serif" font-size="10.00">Application.Validation.Use</text>
<text text-anchor="middle" x="507.25" y="-5.75" font-family="Helvetica,sans-Serif" font-size="10.00">CaseException.UseCaseException</text>
</a>
</g>
</g>
<!-- Node4&#45;&gt;Node5 -->
<g id="edge4_Node000004_Node000005" class="edge">
<title>Node4&#45;&gt;Node5</title>
<g id="a_edge4_Node000004_Node000005"><a xlink:title=" ">
<path fill="none" stroke="#63b8ff" d="M378.49,-15.25C388.91,-15.25 399.63,-15.25 410.22,-15.25"/>
<polygon fill="#63b8ff" stroke="#63b8ff" points="410.12,-18.75 420.12,-15.25 410.12,-11.75 410.12,-18.75"/>
</a>
</g>
</g>
</g>
</svg>
