<?xml version="1.0" encoding="UTF-8" standalone="no"?>
<!DOCTYPE svg PUBLIC "-//W3C//DTD SVG 1.1//EN"
 "http://www.w3.org/Graphics/SVG/1.1/DTD/svg11.dtd">
<!-- Generated by graphviz version 8.1.0 (20230707.0739)
 -->
<!-- Title: src.domain.interfaces.repositories.info_file_repository_interface.IInfoFileRepository Pages: 1 -->
<svg width="218pt" height="160pt"
 viewBox="0.00 0.00 218.25 160.25" xmlns="http://www.w3.org/2000/svg" xmlns:xlink="http://www.w3.org/1999/xlink">
<g id="graph0" class="graph" transform="scale(1 1) rotate(0) translate(4 156.25)">
<title>src.domain.interfaces.repositories.info_file_repository_interface.IInfoFileRepository</title>
<!-- Node1 -->
<g id="Node000001" class="node">
<title>Node1</title>
<g id="a_Node000001"><a xlink:title=" ">
<polygon fill="#999999" stroke="#666666" points="210.25,-97 0,-97 0,-66.5 210.25,-66.5 210.25,-97"/>
<text text-anchor="start" x="8" y="-83.5" font-family="Helvetica,sans-Serif" font-size="10.00">src.domain.interfaces.repositories.info</text>
<text text-anchor="middle" x="105.12" y="-72.25" font-family="Helvetica,sans-Serif" font-size="10.00">_file_repository_interface.IInfoFileRepository</text>
</a>
</g>
</g>
<!-- Node3 -->
<g id="Node000003" class="node">
<title>Node3</title>
<g id="a_Node000003"><a xlink:href="classsrc_1_1infra_1_1persistence_1_1info__file__repository_1_1_info_file_repository.html" target="_top" xlink:title=" ">
<polygon fill="white" stroke="#666666" points="186.62,-30.5 23.62,-30.5 23.62,0 186.62,0 186.62,-30.5"/>
<text text-anchor="start" x="31.62" y="-17" font-family="Helvetica,sans-Serif" font-size="10.00">src.infra.persistence.info</text>
<text text-anchor="middle" x="105.12" y="-5.75" font-family="Helvetica,sans-Serif" font-size="10.00">_file_repository.InfoFileRepository</text>
</a>
</g>
</g>
<!-- Node1&#45;&gt;Node3 -->
<g id="edge2_Node000001_Node000003" class="edge">
<title>Node1&#45;&gt;Node3</title>
<g id="a_edge2_Node000001_Node000003"><a xlink:title=" ">
<path fill="none" stroke="#63b8ff" d="M105.12,-55.38C105.12,-47.05 105.12,-38.08 105.12,-30.83"/>
<polygon fill="#63b8ff" stroke="#63b8ff" points="101.63,-55.11 105.12,-65.11 108.63,-55.11 101.63,-55.11"/>
</a>
</g>
</g>
<!-- Node2 -->
<g id="Node000002" class="node">
<title>Node2</title>
<g id="a_Node000002"><a xlink:title=" ">
<polygon fill="white" stroke="#666666" points="123.62,-152.25 86.62,-152.25 86.62,-133 123.62,-133 123.62,-152.25"/>
<text text-anchor="middle" x="105.12" y="-138.75" font-family="Helvetica,sans-Serif" font-size="10.00">ABC</text>
</a>
</g>
</g>
<!-- Node2&#45;&gt;Node1 -->
<g id="edge1_Node000001_Node000002" class="edge">
<title>Node2&#45;&gt;Node1</title>
<g id="a_edge1_Node000001_Node000002"><a xlink:title=" ">
<path fill="none" stroke="#63b8ff" d="M105.12,-121.7C105.12,-113.7 105.12,-104.65 105.12,-97.28"/>
<polygon fill="#63b8ff" stroke="#63b8ff" points="101.63,-121.68 105.12,-131.68 108.63,-121.68 101.63,-121.68"/>
</a>
</g>
</g>
</g>
</svg>
