<?xml version="1.0" encoding="UTF-8" standalone="no"?>
<!DOCTYPE svg PUBLIC "-//W3C//DTD SVG 1.1//EN"
 "http://www.w3.org/Graphics/SVG/1.1/DTD/svg11.dtd">
<!-- Generated by graphviz version 8.1.0 (20230707.0739)
 -->
<!-- Title: src.domain.interfaces.services.message_queue_service_interface.IMessageQueueService Pages: 1 -->
<svg width="242pt" height="172pt"
 viewBox="0.00 0.00 242.25 171.50" xmlns="http://www.w3.org/2000/svg" xmlns:xlink="http://www.w3.org/1999/xlink">
<g id="graph0" class="graph" transform="scale(1 1) rotate(0) translate(4 167.5)">
<title>src.domain.interfaces.services.message_queue_service_interface.IMessageQueueService</title>
<!-- Node1 -->
<g id="Node000001" class="node">
<title>Node1</title>
<g id="a_Node000001"><a xlink:title=" ">
<polygon fill="#999999" stroke="#666666" points="234.25,-108.25 0,-108.25 0,-77.75 234.25,-77.75 234.25,-108.25"/>
<text text-anchor="start" x="8" y="-94.75" font-family="Helvetica,sans-Serif" font-size="10.00">src.domain.interfaces.services.message</text>
<text text-anchor="middle" x="117.12" y="-83.5" font-family="Helvetica,sans-Serif" font-size="10.00">_queue_service_interface.IMessageQueueService</text>
</a>
</g>
</g>
<!-- Node3 -->
<g id="Node000003" class="node">
<title>Node3</title>
<g id="a_Node000003"><a xlink:href="classsrc_1_1infra_1_1external__services_1_1message__queue__service_1_1_message_queue_service.html" target="_top" xlink:title=" ">
<polygon fill="white" stroke="#666666" points="195.62,-41.75 38.62,-41.75 38.62,0 195.62,0 195.62,-41.75"/>
<text text-anchor="start" x="46.62" y="-28.25" font-family="Helvetica,sans-Serif" font-size="10.00">src.infra.external</text>
<text text-anchor="start" x="46.62" y="-17" font-family="Helvetica,sans-Serif" font-size="10.00">_services.message_queue</text>
<text text-anchor="middle" x="117.12" y="-5.75" font-family="Helvetica,sans-Serif" font-size="10.00">_service.MessageQueueService</text>
</a>
</g>
</g>
<!-- Node1&#45;&gt;Node3 -->
<g id="edge2_Node000001_Node000003" class="edge">
<title>Node1&#45;&gt;Node3</title>
<g id="a_edge2_Node000001_Node000003"><a xlink:title=" ">
<path fill="none" stroke="#63b8ff" d="M117.12,-66.5C117.12,-58.52 117.12,-49.82 117.12,-42.24"/>
<polygon fill="#63b8ff" stroke="#63b8ff" points="113.63,-66.47 117.12,-76.47 120.63,-66.47 113.63,-66.47"/>
</a>
</g>
</g>
<!-- Node2 -->
<g id="Node000002" class="node">
<title>Node2</title>
<g id="a_Node000002"><a xlink:title=" ">
<polygon fill="white" stroke="#666666" points="135.62,-163.5 98.62,-163.5 98.62,-144.25 135.62,-144.25 135.62,-163.5"/>
<text text-anchor="middle" x="117.12" y="-150" font-family="Helvetica,sans-Serif" font-size="10.00">ABC</text>
</a>
</g>
</g>
<!-- Node2&#45;&gt;Node1 -->
<g id="edge1_Node000001_Node000002" class="edge">
<title>Node2&#45;&gt;Node1</title>
<g id="a_edge1_Node000001_Node000002"><a xlink:title=" ">
<path fill="none" stroke="#63b8ff" d="M117.12,-132.95C117.12,-124.95 117.12,-115.9 117.12,-108.53"/>
<polygon fill="#63b8ff" stroke="#63b8ff" points="113.63,-132.93 117.12,-142.93 120.63,-132.93 113.63,-132.93"/>
</a>
</g>
</g>
</g>
</svg>
