<?xml version="1.0" encoding="UTF-8" standalone="no"?>
<!DOCTYPE svg PUBLIC "-//W3C//DTD SVG 1.1//EN"
 "http://www.w3.org/Graphics/SVG/1.1/DTD/svg11.dtd">
<!-- Generated by graphviz version 9.0.0 (20230911.1827)
 -->
<!-- Title: Application.UseCases.ProjectFinalReport.CreateProjectFinalReport.ExecuteAsync Pages: 1 -->
<svg width="411pt" height="88pt"
 viewBox="0.00 0.00 410.50 87.50" xmlns="http://www.w3.org/2000/svg" xmlns:xlink="http://www.w3.org/1999/xlink">
<g id="graph0" class="graph" transform="scale(1 1) rotate(0) translate(4 83.5)">
<title>Application.UseCases.ProjectFinalReport.CreateProjectFinalReport.ExecuteAsync</title>
<!-- Node1 -->
<g id="Node000001" class="node">
<title>Node1</title>
<g id="a_Node000001"><a xlink:title=" ">
<polygon fill="#999999" stroke="#666666" points="182.5,-60.12 0,-60.12 0,-18.38 182.5,-18.38 182.5,-60.12"/>
<text text-anchor="start" x="8" y="-46.62" font-family="Helvetica,sans-Serif" font-size="10.00">Application.UseCases.Project</text>
<text text-anchor="start" x="8" y="-35.38" font-family="Helvetica,sans-Serif" font-size="10.00">FinalReport.CreateProjectFinalReport.</text>
<text text-anchor="middle" x="91.25" y="-24.12" font-family="Helvetica,sans-Serif" font-size="10.00">ExecuteAsync</text>
</a>
</g>
</g>
<!-- Node2 -->
<g id="Node000002" class="node">
<title>Node2</title>
<g id="a_Node000002"><a xlink:href="class_application_1_1_validation_1_1_use_case_exception.html#abdfb0053369c84d85c471ad55011c4c4" target="_top" xlink:title=" ">
<polygon fill="white" stroke="#666666" points="402.5,-79.5 218.5,-79.5 218.5,-49 402.5,-49 402.5,-79.5"/>
<text text-anchor="start" x="226.5" y="-66" font-family="Helvetica,sans-Serif" font-size="10.00">Application.Validation.Use</text>
<text text-anchor="middle" x="310.5" y="-54.75" font-family="Helvetica,sans-Serif" font-size="10.00">CaseException.BusinessRuleViolation</text>
</a>
</g>
</g>
<!-- Node1&#45;&gt;Node2 -->
<g id="edge1_Node000001_Node000002" class="edge">
<title>Node1&#45;&gt;Node2</title>
<g id="a_edge1_Node000001_Node000002"><a xlink:title=" ">
<path fill="none" stroke="#63b8ff" d="M182.81,-49.67C190.72,-50.58 198.77,-51.51 206.77,-52.43"/>
<polygon fill="#63b8ff" stroke="#63b8ff" points="206.2,-55.89 216.53,-53.55 207,-48.93 206.2,-55.89"/>
</a>
</g>
</g>
<!-- Node3 -->
<g id="Node000003" class="node">
<title>Node3</title>
<g id="a_Node000003"><a xlink:href="class_application_1_1_validation_1_1_use_case_exception.html#a6bfcf35154fd3871957a71216a943cba" target="_top" xlink:title=" ">
<polygon fill="white" stroke="#666666" points="397.62,-30.5 223.38,-30.5 223.38,0 397.62,0 397.62,-30.5"/>
<text text-anchor="start" x="231.38" y="-17" font-family="Helvetica,sans-Serif" font-size="10.00">Application.Validation.Use</text>
<text text-anchor="middle" x="310.5" y="-5.75" font-family="Helvetica,sans-Serif" font-size="10.00">CaseException.NotFoundEntityById</text>
</a>
</g>
</g>
<!-- Node1&#45;&gt;Node3 -->
<g id="edge2_Node000001_Node000003" class="edge">
<title>Node1&#45;&gt;Node3</title>
<g id="a_edge2_Node000001_Node000003"><a xlink:title=" ">
<path fill="none" stroke="#63b8ff" d="M182.81,-29.25C192.35,-28.19 202.08,-27.12 211.7,-26.05"/>
<polygon fill="#63b8ff" stroke="#63b8ff" points="211.86,-29.56 221.41,-24.98 211.09,-22.6 211.86,-29.56"/>
</a>
</g>
</g>
</g>
</svg>
