<?xml version="1.0" encoding="UTF-8" standalone="no"?>
<!DOCTYPE svg PUBLIC "-//W3C//DTD SVG 1.1//EN"
 "http://www.w3.org/Graphics/SVG/1.1/DTD/svg11.dtd">
<!-- Generated by graphviz version 9.0.0 (20230911.1827)
 -->
<!-- Title: Domain.Entities.User.ConfirmUserEmail Pages: 1 -->
<svg width="530pt" height="50pt"
 viewBox="0.00 0.00 530.00 49.75" xmlns="http://www.w3.org/2000/svg" xmlns:xlink="http://www.w3.org/1999/xlink">
<g id="graph0" class="graph" transform="scale(1 1) rotate(0) translate(4 45.75)">
<title>Domain.Entities.User.ConfirmUserEmail</title>
<!-- Node1 -->
<g id="Node000001" class="node">
<title>Node1</title>
<g id="a_Node000001"><a xlink:title=" ">
<polygon fill="#999999" stroke="#666666" points="146.5,-36.12 0,-36.12 0,-5.62 146.5,-5.62 146.5,-36.12"/>
<text text-anchor="start" x="8" y="-22.62" font-family="Helvetica,sans-Serif" font-size="10.00">Domain.Entities.User.Confirm</text>
<text text-anchor="middle" x="73.25" y="-11.38" font-family="Helvetica,sans-Serif" font-size="10.00">UserEmail</text>
</a>
</g>
</g>
<!-- Node2 -->
<g id="Node000002" class="node">
<title>Node2</title>
<g id="a_Node000002"><a xlink:href="class_domain_1_1_validation_1_1_entity_exception_validation.html#a705026be8f97d13c737d20cf43fa4a01" target="_top" xlink:title=" ">
<polygon fill="white" stroke="#666666" points="312.5,-36.12 182.5,-36.12 182.5,-5.62 312.5,-5.62 312.5,-36.12"/>
<text text-anchor="start" x="190.5" y="-22.62" font-family="Helvetica,sans-Serif" font-size="10.00">Domain.Validation.Entity</text>
<text text-anchor="middle" x="247.5" y="-11.38" font-family="Helvetica,sans-Serif" font-size="10.00">ExceptionValidation.When</text>
</a>
</g>
</g>
<!-- Node1&#45;&gt;Node2 -->
<g id="edge1_Node000001_Node000002" class="edge">
<title>Node1&#45;&gt;Node2</title>
<g id="a_edge1_Node000001_Node000002"><a xlink:title=" ">
<path fill="none" stroke="#63b8ff" d="M146.8,-20.88C154.8,-20.88 162.96,-20.88 170.99,-20.88"/>
<polygon fill="#63b8ff" stroke="#63b8ff" points="170.72,-24.38 180.72,-20.88 170.72,-17.38 170.72,-24.38"/>
</a>
</g>
</g>
<!-- Node3 -->
<g id="Node000003" class="node">
<title>Node3</title>
<g id="a_Node000003"><a xlink:href="class_domain_1_1_validation_1_1_entity_exception_validation.html#a619c2cc9843e044ea58c80e94a756b2a" target="_top" xlink:title=" ">
<polygon fill="white" stroke="#666666" points="522,-41.75 348.5,-41.75 348.5,0 522,0 522,-41.75"/>
<text text-anchor="start" x="356.5" y="-28.25" font-family="Helvetica,sans-Serif" font-size="10.00">Domain.Validation.Entity</text>
<text text-anchor="start" x="356.5" y="-17" font-family="Helvetica,sans-Serif" font-size="10.00">ExceptionValidation.EntityException</text>
<text text-anchor="middle" x="435.25" y="-5.75" font-family="Helvetica,sans-Serif" font-size="10.00">Validation</text>
</a>
</g>
</g>
<!-- Node2&#45;&gt;Node3 -->
<g id="edge2_Node000002_Node000003" class="edge">
<title>Node2&#45;&gt;Node3</title>
<g id="a_edge2_Node000002_Node000003"><a xlink:title=" ">
<path fill="none" stroke="#63b8ff" d="M312.95,-20.88C320.71,-20.88 328.76,-20.88 336.87,-20.88"/>
<polygon fill="#63b8ff" stroke="#63b8ff" points="336.81,-24.38 346.81,-20.88 336.81,-17.38 336.81,-24.38"/>
</a>
</g>
</g>
</g>
</svg>
