<?xml version="1.0" encoding="UTF-8" standalone="no"?>
<!DOCTYPE svg PUBLIC "-//W3C//DTD SVG 1.1//EN"
 "http://www.w3.org/Graphics/SVG/1.1/DTD/svg11.dtd">
<!-- Generated by graphviz version 9.0.0 (20230911.1827)
 -->
<!-- Title: Services.AzureStorageService.AzureStorageService Pages: 1 -->
<svg width="357pt" height="88pt"
 viewBox="0.00 0.00 356.50 87.50" xmlns="http://www.w3.org/2000/svg" xmlns:xlink="http://www.w3.org/1999/xlink">
<g id="graph0" class="graph" transform="scale(1 1) rotate(0) translate(4 83.5)">
<title>Services.AzureStorageService.AzureStorageService</title>
<!-- Node1 -->
<g id="Node000001" class="node">
<title>Node1</title>
<g id="a_Node000001"><a xlink:title=" ">
<polygon fill="#999999" stroke="#666666" points="152.5,-54.5 0,-54.5 0,-24 152.5,-24 152.5,-54.5"/>
<text text-anchor="start" x="8" y="-41" font-family="Helvetica,sans-Serif" font-size="10.00">Services.AzureStorageService.</text>
<text text-anchor="middle" x="76.25" y="-29.75" font-family="Helvetica,sans-Serif" font-size="10.00">AzureStorageService</text>
</a>
</g>
</g>
<!-- Node2 -->
<g id="Node000002" class="node">
<title>Node2</title>
<g id="a_Node000002"><a xlink:href="interface_services_1_1_i_dot_env_secrets.html#af46e83b8ed6a62a43db5646f9ebc4886" target="_top" xlink:title=" ">
<polygon fill="white" stroke="#666666" points="348.5,-79.5 188.5,-79.5 188.5,-49 348.5,-49 348.5,-79.5"/>
<text text-anchor="start" x="196.5" y="-66" font-family="Helvetica,sans-Serif" font-size="10.00">Services.IDotEnvSecrets.</text>
<text text-anchor="middle" x="268.5" y="-54.75" font-family="Helvetica,sans-Serif" font-size="10.00">GetBlobStorageConnectionString</text>
</a>
</g>
</g>
<!-- Node1&#45;&gt;Node2 -->
<g id="edge1_Node000001_Node000002" class="edge">
<title>Node1&#45;&gt;Node2</title>
<g id="a_edge1_Node000001_Node000002"><a xlink:title=" ">
<path fill="none" stroke="#63b8ff" d="M152.99,-49.2C160.88,-50.24 168.95,-51.3 176.98,-52.36"/>
<polygon fill="#63b8ff" stroke="#63b8ff" points="176.41,-55.81 186.78,-53.64 177.32,-48.87 176.41,-55.81"/>
</a>
</g>
</g>
<!-- Node3 -->
<g id="Node000003" class="node">
<title>Node3</title>
<g id="a_Node000003"><a xlink:href="interface_services_1_1_i_dot_env_secrets.html#a697ac853f4be346262aec440ec8a9eba" target="_top" xlink:title=" ">
<polygon fill="white" stroke="#666666" points="345.12,-30.5 191.88,-30.5 191.88,0 345.12,0 345.12,-30.5"/>
<text text-anchor="start" x="199.88" y="-17" font-family="Helvetica,sans-Serif" font-size="10.00">Services.IDotEnvSecrets.</text>
<text text-anchor="middle" x="268.5" y="-5.75" font-family="Helvetica,sans-Serif" font-size="10.00">GetBlobStorageContainerName</text>
</a>
</g>
</g>
<!-- Node1&#45;&gt;Node3 -->
<g id="edge2_Node000001_Node000003" class="edge">
<title>Node1&#45;&gt;Node3</title>
<g id="a_edge2_Node000001_Node000003"><a xlink:title=" ">
<path fill="none" stroke="#63b8ff" d="M152.99,-29.7C161.88,-28.57 171,-27.42 180.03,-26.28"/>
<polygon fill="#63b8ff" stroke="#63b8ff" points="180.42,-29.76 189.9,-25.04 179.54,-22.82 180.42,-29.76"/>
</a>
</g>
</g>
</g>
</svg>
