<?xml version="1.0" encoding="UTF-8" standalone="no"?>
<!DOCTYPE svg PUBLIC "-//W3C//DTD SVG 1.1//EN"
 "http://www.w3.org/Graphics/SVG/1.1/DTD/svg11.dtd">
<!-- Generated by graphviz version 9.0.0 (20230911.1827)
 -->
<!-- Title: Persistence.Repositories.AreaRepository.DeleteAsync Pages: 1 -->
<svg width="334pt" height="137pt"
 viewBox="0.00 0.00 334.00 136.50" xmlns="http://www.w3.org/2000/svg" xmlns:xlink="http://www.w3.org/1999/xlink">
<g id="graph0" class="graph" transform="scale(1 1) rotate(0) translate(4 132.5)">
<title>Persistence.Repositories.AreaRepository.DeleteAsync</title>
<!-- Node1 -->
<g id="Node000001" class="node">
<title>Node1</title>
<g id="a_Node000001"><a xlink:title=" ">
<polygon fill="#999999" stroke="#666666" points="141.25,-79.5 0,-79.5 0,-49 141.25,-49 141.25,-79.5"/>
<text text-anchor="start" x="8" y="-66" font-family="Helvetica,sans-Serif" font-size="10.00">Persistence.Repositories.</text>
<text text-anchor="middle" x="70.62" y="-54.75" font-family="Helvetica,sans-Serif" font-size="10.00">AreaRepository.DeleteAsync</text>
</a>
</g>
</g>
<!-- Node2 -->
<g id="Node000002" class="node">
<title>Node2</title>
<g id="a_Node000002"><a xlink:href="class_domain_1_1_entities_1_1_primitives_1_1_entity.html#a3a368e3c302f8622ea0305003ef2a5eb" target="_top" xlink:title=" ">
<polygon fill="white" stroke="#666666" points="319.25,-128.5 184,-128.5 184,-98 319.25,-98 319.25,-128.5"/>
<text text-anchor="start" x="192" y="-115" font-family="Helvetica,sans-Serif" font-size="10.00">Domain.Entities.Primitives.</text>
<text text-anchor="middle" x="251.62" y="-103.75" font-family="Helvetica,sans-Serif" font-size="10.00">Entity.DeactivateEntity</text>
</a>
</g>
</g>
<!-- Node1&#45;&gt;Node2 -->
<g id="edge1_Node000001_Node000002" class="edge">
<title>Node1&#45;&gt;Node2</title>
<g id="a_edge1_Node000001_Node000002"><a xlink:title=" ">
<path fill="none" stroke="#63b8ff" d="M128.75,-79.89C145.7,-84.53 164.45,-89.66 182.04,-94.48"/>
<polygon fill="#63b8ff" stroke="#63b8ff" points="181.09,-97.84 191.66,-97.11 182.94,-91.09 181.09,-97.84"/>
</a>
</g>
</g>
<!-- Node3 -->
<g id="Node000003" class="node">
<title>Node3</title>
<g id="a_Node000003"><a xlink:href="class_persistence_1_1_repositories_1_1_area_repository.html#a24bcc31ba395275b03380511835aec9f" target="_top" xlink:title=" ">
<polygon fill="white" stroke="#666666" points="326,-79.5 177.25,-79.5 177.25,-49 326,-49 326,-79.5"/>
<text text-anchor="start" x="185.25" y="-66" font-family="Helvetica,sans-Serif" font-size="10.00">Persistence.Repositories.</text>
<text text-anchor="middle" x="251.62" y="-54.75" font-family="Helvetica,sans-Serif" font-size="10.00">AreaRepository.GetByIdAsync</text>
</a>
</g>
</g>
<!-- Node1&#45;&gt;Node3 -->
<g id="edge2_Node000001_Node000003" class="edge">
<title>Node1&#45;&gt;Node3</title>
<g id="a_edge2_Node000001_Node000003"><a xlink:title=" ">
<path fill="none" stroke="#63b8ff" d="M141.6,-64.25C149.46,-64.25 157.54,-64.25 165.57,-64.25"/>
<polygon fill="#63b8ff" stroke="#63b8ff" points="165.35,-67.75 175.35,-64.25 165.35,-60.75 165.35,-67.75"/>
</a>
</g>
</g>
<!-- Node4 -->
<g id="Node000004" class="node">
<title>Node4</title>
<g id="a_Node000004"><a xlink:href="class_persistence_1_1_repositories_1_1_area_repository.html#abd6de2dbb2e0db10a7b00dc3ca91062a" target="_top" xlink:title=" ">
<polygon fill="white" stroke="#666666" points="323.75,-30.5 179.5,-30.5 179.5,0 323.75,0 323.75,-30.5"/>
<text text-anchor="start" x="187.5" y="-17" font-family="Helvetica,sans-Serif" font-size="10.00">Persistence.Repositories.</text>
<text text-anchor="middle" x="251.62" y="-5.75" font-family="Helvetica,sans-Serif" font-size="10.00">AreaRepository.UpdateAsync</text>
</a>
</g>
</g>
<!-- Node1&#45;&gt;Node4 -->
<g id="edge3_Node000001_Node000004" class="edge">
<title>Node1&#45;&gt;Node4</title>
<g id="a_edge3_Node000001_Node000004"><a xlink:title=" ">
<path fill="none" stroke="#63b8ff" d="M128.75,-48.61C145.7,-43.97 164.45,-38.84 182.04,-34.02"/>
<polygon fill="#63b8ff" stroke="#63b8ff" points="182.94,-37.41 191.66,-31.39 181.09,-30.66 182.94,-37.41"/>
</a>
</g>
</g>
</g>
</svg>
