<?xml version="1.0" encoding="UTF-8" standalone="no"?>
<!DOCTYPE svg PUBLIC "-//W3C//DTD SVG 1.1//EN"
 "http://www.w3.org/Graphics/SVG/1.1/DTD/svg11.dtd">
<!-- Generated by graphviz version 9.0.0 (20230911.1827)
 -->
<!-- Title: Persistence.Repositories.ProjectFinalReportRepository.DeleteAsync Pages: 1 -->
<svg width="451pt" height="98pt"
 viewBox="0.00 0.00 451.00 98.12" xmlns="http://www.w3.org/2000/svg" xmlns:xlink="http://www.w3.org/1999/xlink">
<g id="graph0" class="graph" transform="scale(1 1) rotate(0) translate(4 94.12)">
<title>Persistence.Repositories.ProjectFinalReportRepository.DeleteAsync</title>
<!-- Node1 -->
<g id="Node000001" class="node">
<title>Node1</title>
<g id="a_Node000001"><a xlink:title=" ">
<polygon fill="#999999" stroke="#666666" points="202,-57.5 0,-57.5 0,-27 202,-27 202,-57.5"/>
<text text-anchor="start" x="8" y="-44" font-family="Helvetica,sans-Serif" font-size="10.00">Persistence.Repositories.</text>
<text text-anchor="middle" x="101" y="-32.75" font-family="Helvetica,sans-Serif" font-size="10.00">ProjectFinalReportRepository.DeleteAsync</text>
</a>
</g>
</g>
<!-- Node2 -->
<g id="Node000002" class="node">
<title>Node2</title>
<g id="a_Node000002"><a xlink:href="class_persistence_1_1_repositories_1_1_project_final_report_repository.html#a997e00eee3e3442e82f6905d71976dd1" target="_top" xlink:title=" ">
<polygon fill="white" stroke="#666666" points="421.25,-90.12 259.75,-90.12 259.75,-48.38 421.25,-48.38 421.25,-90.12"/>
<text text-anchor="start" x="267.75" y="-76.62" font-family="Helvetica,sans-Serif" font-size="10.00">Persistence.Repositories.</text>
<text text-anchor="start" x="267.75" y="-65.38" font-family="Helvetica,sans-Serif" font-size="10.00">ProjectFinalReportRepository.Get</text>
<text text-anchor="middle" x="340.5" y="-54.12" font-family="Helvetica,sans-Serif" font-size="10.00">ByIdAsync</text>
</a>
</g>
</g>
<!-- Node1&#45;&gt;Node2 -->
<g id="edge1_Node000001_Node000002" class="edge">
<title>Node1&#45;&gt;Node2</title>
<g id="a_edge1_Node000001_Node000002"><a xlink:title=" ">
<path fill="none" stroke="#63b8ff" d="M202.38,-53.66C217.51,-55.38 233.05,-57.15 247.98,-58.85"/>
<polygon fill="#63b8ff" stroke="#63b8ff" points="247.43,-62.31 257.76,-59.96 248.22,-55.35 247.43,-62.31"/>
</a>
</g>
</g>
<!-- Node3 -->
<g id="Node000003" class="node">
<title>Node3</title>
<g id="a_Node000003"><a xlink:href="class_persistence_1_1_repositories_1_1_project_final_report_repository.html#a1d5fe4989a5176579f57f166caaa7c65" target="_top" xlink:title=" ">
<polygon fill="white" stroke="#666666" points="443,-30.5 238,-30.5 238,0 443,0 443,-30.5"/>
<text text-anchor="start" x="246" y="-17" font-family="Helvetica,sans-Serif" font-size="10.00">Persistence.Repositories.</text>
<text text-anchor="middle" x="340.5" y="-5.75" font-family="Helvetica,sans-Serif" font-size="10.00">ProjectFinalReportRepository.UpdateAsync</text>
</a>
</g>
</g>
<!-- Node1&#45;&gt;Node3 -->
<g id="edge2_Node000001_Node000003" class="edge">
<title>Node1&#45;&gt;Node3</title>
<g id="a_edge2_Node000001_Node000003"><a xlink:title=" ">
<path fill="none" stroke="#63b8ff" d="M202.38,-30.84C210.29,-29.94 218.32,-29.03 226.32,-28.12"/>
<polygon fill="#63b8ff" stroke="#63b8ff" points="226.54,-31.61 236.08,-27.01 225.75,-24.66 226.54,-31.61"/>
</a>
</g>
</g>
</g>
</svg>
