<?xml version="1.0" encoding="UTF-8" standalone="no"?>
<!DOCTYPE svg PUBLIC "-//W3C//DTD SVG 1.1//EN"
 "http://www.w3.org/Graphics/SVG/1.1/DTD/svg11.dtd">
<!-- Generated by graphviz version 9.0.0 (20230911.1827)
 -->
<!-- Title: WebAPI.Controllers.AreaController.GetById Pages: 1 -->
<svg width="384pt" height="57pt"
 viewBox="0.00 0.00 383.50 56.50" xmlns="http://www.w3.org/2000/svg" xmlns:xlink="http://www.w3.org/1999/xlink">
<g id="graph0" class="graph" transform="scale(1 1) rotate(0) translate(4 52.5)">
<title>WebAPI.Controllers.AreaController.GetById</title>
<!-- Node1 -->
<g id="Node000001" class="node">
<title>Node1</title>
<g id="a_Node000001"><a xlink:title="Busca área pelo id.">
<polygon fill="#999999" stroke="#666666" points="375.5,-30.5 205.75,-30.5 205.75,0 375.5,0 375.5,-30.5"/>
<text text-anchor="start" x="213.75" y="-17" font-family="Helvetica,sans-Serif" font-size="10.00">WebAPI.Controllers.AreaController.</text>
<text text-anchor="middle" x="290.62" y="-5.75" font-family="Helvetica,sans-Serif" font-size="10.00">GetById</text>
</a>
</g>
</g>
<!-- Node1&#45;&gt;Node1 -->
<g id="edge2_Node000001_Node000001" class="edge">
<title>Node1&#45;&gt;Node1</title>
<g id="a_edge2_Node000001_Node000001"><a xlink:title=" ">
<path fill="none" stroke="#63b8ff" d="M325.13,-42.2C319.49,-45.97 307.99,-48.5 290.62,-48.5 258.88,-48.5 246.73,-40.06 254.17,-30.99"/>
<polygon fill="#63b8ff" stroke="#63b8ff" points="328.56,-42.93 326.82,-32.48 321.66,-41.73 328.56,-42.93"/>
</a>
</g>
</g>
<!-- Node2 -->
<g id="Node000002" class="node">
<title>Node2</title>
<g id="a_Node000002"><a xlink:href="class_web_a_p_i_1_1_controllers_1_1_area_controller.html#adc5ea6daa0fecc1279a8e1e9b6670463" target="_top" xlink:title="Cria área.">
<polygon fill="white" stroke="#666666" points="169.75,-30.5 0,-30.5 0,0 169.75,0 169.75,-30.5"/>
<text text-anchor="start" x="8" y="-17" font-family="Helvetica,sans-Serif" font-size="10.00">WebAPI.Controllers.AreaController.</text>
<text text-anchor="middle" x="84.88" y="-5.75" font-family="Helvetica,sans-Serif" font-size="10.00">Create</text>
</a>
</g>
</g>
<!-- Node1&#45;&gt;Node2 -->
<g id="edge1_Node000001_Node000002" class="edge">
<title>Node1&#45;&gt;Node2</title>
<g id="a_edge1_Node000001_Node000002"><a xlink:title=" ">
<path fill="none" stroke="#63b8ff" d="M193.78,-15.25C185.89,-15.25 177.95,-15.25 170.16,-15.25"/>
<polygon fill="#63b8ff" stroke="#63b8ff" points="193.77,-18.75 203.77,-15.25 193.77,-11.75 193.77,-18.75"/>
</a>
</g>
</g>
</g>
</svg>
