<?xml version="1.0" encoding="UTF-8" standalone="no"?>
<!DOCTYPE svg PUBLIC "-//W3C//DTD SVG 1.1//EN"
 "http://www.w3.org/Graphics/SVG/1.1/DTD/svg11.dtd">
<!-- Generated by graphviz version 8.1.0 (20230707.0739)
 -->
<!-- Title: src.domain.usecases.scan_directory_usecase.ScanDirectoryUseCase Pages: 1 -->
<svg width="495pt" height="50pt"
 viewBox="0.00 0.00 494.75 49.75" xmlns="http://www.w3.org/2000/svg" xmlns:xlink="http://www.w3.org/1999/xlink">
<g id="graph0" class="graph" transform="scale(1 1) rotate(0) translate(4 45.75)">
<title>src.domain.usecases.scan_directory_usecase.ScanDirectoryUseCase</title>
<!-- Node1 -->
<g id="Node000001" class="node">
<title>Node1</title>
<g id="a_Node000001"><a xlink:title=" ">
<polygon fill="#999999" stroke="#666666" points="486.75,-41.75 320.75,-41.75 320.75,0 486.75,0 486.75,-41.75"/>
<text text-anchor="start" x="328.75" y="-28.25" font-family="Helvetica,sans-Serif" font-size="10.00">src.domain.usecases.scan</text>
<text text-anchor="start" x="328.75" y="-17" font-family="Helvetica,sans-Serif" font-size="10.00">_directory_usecase.ScanDirectory</text>
<text text-anchor="middle" x="403.75" y="-5.75" font-family="Helvetica,sans-Serif" font-size="10.00">UseCase</text>
</a>
</g>
</g>
<!-- Node2 -->
<g id="Node000002" class="node">
<title>Node2</title>
<g id="a_Node000002"><a xlink:href="classsrc_1_1domain_1_1interfaces_1_1usecases_1_1scan__directory__usecase__interface_1_1_i_scan_directory_use_case.html" target="_top" xlink:title=" ">
<polygon fill="white" stroke="#666666" points="284.75,-41.75 73,-41.75 73,0 284.75,0 284.75,-41.75"/>
<text text-anchor="start" x="81" y="-28.25" font-family="Helvetica,sans-Serif" font-size="10.00">src.domain.interfaces.usecases.scan</text>
<text text-anchor="start" x="81" y="-17" font-family="Helvetica,sans-Serif" font-size="10.00">_directory_usecase_interface.IScanDirectory</text>
<text text-anchor="middle" x="178.88" y="-5.75" font-family="Helvetica,sans-Serif" font-size="10.00">UseCase</text>
</a>
</g>
</g>
<!-- Node2&#45;&gt;Node1 -->
<g id="edge1_Node000001_Node000002" class="edge">
<title>Node2&#45;&gt;Node1</title>
<g id="a_edge1_Node000001_Node000002"><a xlink:title=" ">
<path fill="none" stroke="#63b8ff" d="M295.94,-20.88C304.17,-20.88 312.37,-20.88 320.36,-20.88"/>
<polygon fill="#63b8ff" stroke="#63b8ff" points="296.11,-17.38 286.11,-20.88 296.11,-24.38 296.11,-17.38"/>
</a>
</g>
</g>
<!-- Node3 -->
<g id="Node000003" class="node">
<title>Node3</title>
<g id="a_Node000003"><a xlink:title=" ">
<polygon fill="white" stroke="#666666" points="37,-30.5 0,-30.5 0,-11.25 37,-11.25 37,-30.5"/>
<text text-anchor="middle" x="18.5" y="-17" font-family="Helvetica,sans-Serif" font-size="10.00">ABC</text>
</a>
</g>
</g>
<!-- Node3&#45;&gt;Node2 -->
<g id="edge2_Node000002_Node000003" class="edge">
<title>Node3&#45;&gt;Node2</title>
<g id="a_edge2_Node000002_Node000003"><a xlink:title=" ">
<path fill="none" stroke="#63b8ff" d="M48.28,-20.88C55.56,-20.88 63.83,-20.88 72.57,-20.88"/>
<polygon fill="#63b8ff" stroke="#63b8ff" points="48.36,-17.38 38.36,-20.88 48.36,-24.38 48.36,-17.38"/>
</a>
</g>
</g>
</g>
</svg>
