<?xml version="1.0" encoding="UTF-8" standalone="no"?>
<!DOCTYPE svg PUBLIC "-//W3C//DTD SVG 1.1//EN"
 "http://www.w3.org/Graphics/SVG/1.1/DTD/svg11.dtd">
<!-- Generated by graphviz version 9.0.0 (20230911.1827)
 -->
<!-- Title: Persistence.Repositories.SubAreaRepository.DeleteAsync Pages: 1 -->
<svg width="369pt" height="137pt"
 viewBox="0.00 0.00 368.50 136.50" xmlns="http://www.w3.org/2000/svg" xmlns:xlink="http://www.w3.org/1999/xlink">
<g id="graph0" class="graph" transform="scale(1 1) rotate(0) translate(4 132.5)">
<title>Persistence.Repositories.SubAreaRepository.DeleteAsync</title>
<!-- Node1 -->
<g id="Node000001" class="node">
<title>Node1</title>
<g id="a_Node000001"><a xlink:title=" ">
<polygon fill="#999999" stroke="#666666" points="158.5,-79.5 0,-79.5 0,-49 158.5,-49 158.5,-79.5"/>
<text text-anchor="start" x="8" y="-66" font-family="Helvetica,sans-Serif" font-size="10.00">Persistence.Repositories.</text>
<text text-anchor="middle" x="79.25" y="-54.75" font-family="Helvetica,sans-Serif" font-size="10.00">SubAreaRepository.DeleteAsync</text>
</a>
</g>
</g>
<!-- Node2 -->
<g id="Node000002" class="node">
<title>Node2</title>
<g id="a_Node000002"><a xlink:href="class_domain_1_1_entities_1_1_primitives_1_1_entity.html#a3a368e3c302f8622ea0305003ef2a5eb" target="_top" xlink:title=" ">
<polygon fill="white" stroke="#666666" points="345.12,-128.5 209.88,-128.5 209.88,-98 345.12,-98 345.12,-128.5"/>
<text text-anchor="start" x="217.88" y="-115" font-family="Helvetica,sans-Serif" font-size="10.00">Domain.Entities.Primitives.</text>
<text text-anchor="middle" x="277.5" y="-103.75" font-family="Helvetica,sans-Serif" font-size="10.00">Entity.DeactivateEntity</text>
</a>
</g>
</g>
<!-- Node1&#45;&gt;Node2 -->
<g id="edge1_Node000001_Node000002" class="edge">
<title>Node1&#45;&gt;Node2</title>
<g id="a_edge1_Node000001_Node000002"><a xlink:title=" ">
<path fill="none" stroke="#63b8ff" d="M143.15,-79.96C162.08,-84.68 183.02,-89.91 202.59,-94.8"/>
<polygon fill="#63b8ff" stroke="#63b8ff" points="201.6,-98.16 212.15,-97.18 203.29,-91.36 201.6,-98.16"/>
</a>
</g>
</g>
<!-- Node3 -->
<g id="Node000003" class="node">
<title>Node3</title>
<g id="a_Node000003"><a xlink:href="class_persistence_1_1_repositories_1_1_sub_area_repository.html#a6c93495938f71fdcc20c362d79a2583a" target="_top" xlink:title=" ">
<polygon fill="white" stroke="#666666" points="360.5,-79.5 194.5,-79.5 194.5,-49 360.5,-49 360.5,-79.5"/>
<text text-anchor="start" x="202.5" y="-66" font-family="Helvetica,sans-Serif" font-size="10.00">Persistence.Repositories.</text>
<text text-anchor="middle" x="277.5" y="-54.75" font-family="Helvetica,sans-Serif" font-size="10.00">SubAreaRepository.GetByIdAsync</text>
</a>
</g>
</g>
<!-- Node1&#45;&gt;Node3 -->
<g id="edge2_Node000001_Node000003" class="edge">
<title>Node1&#45;&gt;Node3</title>
<g id="a_edge2_Node000001_Node000003"><a xlink:title=" ">
<path fill="none" stroke="#63b8ff" d="M158.94,-64.25C166.84,-64.25 174.92,-64.25 182.95,-64.25"/>
<polygon fill="#63b8ff" stroke="#63b8ff" points="182.75,-67.75 192.75,-64.25 182.75,-60.75 182.75,-67.75"/>
</a>
</g>
</g>
<!-- Node4 -->
<g id="Node000004" class="node">
<title>Node4</title>
<g id="a_Node000004"><a xlink:href="class_persistence_1_1_repositories_1_1_sub_area_repository.html#afb95d8fb383c8aedb163cd28a39f3a02" target="_top" xlink:title=" ">
<polygon fill="white" stroke="#666666" points="358.25,-30.5 196.75,-30.5 196.75,0 358.25,0 358.25,-30.5"/>
<text text-anchor="start" x="204.75" y="-17" font-family="Helvetica,sans-Serif" font-size="10.00">Persistence.Repositories.</text>
<text text-anchor="middle" x="277.5" y="-5.75" font-family="Helvetica,sans-Serif" font-size="10.00">SubAreaRepository.UpdateAsync</text>
</a>
</g>
</g>
<!-- Node1&#45;&gt;Node4 -->
<g id="edge3_Node000001_Node000004" class="edge">
<title>Node1&#45;&gt;Node4</title>
<g id="a_edge3_Node000001_Node000004"><a xlink:title=" ">
<path fill="none" stroke="#63b8ff" d="M143.15,-48.54C162.08,-43.82 183.02,-38.59 202.59,-33.7"/>
<polygon fill="#63b8ff" stroke="#63b8ff" points="203.29,-37.14 212.15,-31.32 201.6,-30.34 203.29,-37.14"/>
</a>
</g>
</g>
</g>
</svg>
