<?xml version="1.0" encoding="UTF-8" standalone="no"?>
<!DOCTYPE svg PUBLIC "-//W3C//DTD SVG 1.1//EN"
 "http://www.w3.org/Graphics/SVG/1.1/DTD/svg11.dtd">
<!-- Generated by graphviz version 9.0.0 (20230911.1827)
 -->
<!-- Title: Domain.Entities.Primitives.Entity.DeactivateEntity Pages: 1 -->
<svg width="429pt" height="1013pt"
 viewBox="0.00 0.00 429.25 1012.75" xmlns="http://www.w3.org/2000/svg" xmlns:xlink="http://www.w3.org/1999/xlink">
<g id="graph0" class="graph" transform="scale(1 1) rotate(0) translate(4 1008.75)">
<title>Domain.Entities.Primitives.Entity.DeactivateEntity</title>
<!-- Node1 -->
<g id="Node000001" class="node">
<title>Node1</title>
<g id="a_Node000001"><a xlink:title=" ">
<polygon fill="#999999" stroke="#666666" points="421.25,-538.75 286,-538.75 286,-508.25 421.25,-508.25 421.25,-538.75"/>
<text text-anchor="start" x="294" y="-525.25" font-family="Helvetica,sans-Serif" font-size="10.00">Domain.Entities.Primitives.</text>
<text text-anchor="middle" x="353.62" y="-514" font-family="Helvetica,sans-Serif" font-size="10.00">Entity.DeactivateEntity</text>
</a>
</g>
</g>
<!-- Node2 -->
<g id="Node000002" class="node">
<title>Node2</title>
<g id="a_Node000002"><a xlink:href="class_persistence_1_1_repositories_1_1_activity_repository.html#a85b000a352b387eb4d07c83d2fd65c1d" target="_top" xlink:title=" ">
<polygon fill="white" stroke="#666666" points="202,-1004.75 48,-1004.75 48,-974.25 202,-974.25 202,-1004.75"/>
<text text-anchor="start" x="56" y="-991.25" font-family="Helvetica,sans-Serif" font-size="10.00">Persistence.Repositories.</text>
<text text-anchor="middle" x="125" y="-980" font-family="Helvetica,sans-Serif" font-size="10.00">ActivityRepository.DeleteAsync</text>
</a>
</g>
</g>
<!-- Node1&#45;&gt;Node2 -->
<g id="edge1_Node000001_Node000002" class="edge">
<title>Node1&#45;&gt;Node2</title>
<g id="a_edge1_Node000001_Node000002"><a xlink:title=" ">
<path fill="none" stroke="#63b8ff" d="M350.12,-550.51C341.51,-637.17 310.35,-905.92 250,-964.5 237.16,-976.97 219.92,-984.03 202.4,-987.87"/>
<polygon fill="#63b8ff" stroke="#63b8ff" points="353.59,-550.89 351.08,-540.6 346.63,-550.22 353.59,-550.89"/>
</a>
</g>
</g>
<!-- Node3 -->
<g id="Node000003" class="node">
<title>Node3</title>
<g id="a_Node000003"><a xlink:href="class_persistence_1_1_repositories_1_1_activity_type_repository.html#a8640c22d4028eb636197035460bef60b" target="_top" xlink:title=" ">
<polygon fill="white" stroke="#666666" points="212.5,-955.75 37.5,-955.75 37.5,-925.25 212.5,-925.25 212.5,-955.75"/>
<text text-anchor="start" x="45.5" y="-942.25" font-family="Helvetica,sans-Serif" font-size="10.00">Persistence.Repositories.</text>
<text text-anchor="middle" x="125" y="-931" font-family="Helvetica,sans-Serif" font-size="10.00">ActivityTypeRepository.DeleteAsync</text>
</a>
</g>
</g>
<!-- Node1&#45;&gt;Node3 -->
<g id="edge2_Node000001_Node000003" class="edge">
<title>Node1&#45;&gt;Node3</title>
<g id="a_edge2_Node000001_Node000003"><a xlink:title=" ">
<path fill="none" stroke="#63b8ff" d="M349.32,-550.13C338.9,-629.88 304.12,-864.39 250,-915.5 239.62,-925.3 226.52,-931.74 212.75,-935.88"/>
<polygon fill="#63b8ff" stroke="#63b8ff" points="352.74,-550.99 350.54,-540.62 345.8,-550.1 352.74,-550.99"/>
</a>
</g>
</g>
<!-- Node4 -->
<g id="Node000004" class="node">
<title>Node4</title>
<g id="a_Node000004"><a xlink:href="class_persistence_1_1_repositories_1_1_area_repository.html#a7521b555099ae41b3bad4da117a5d76d" target="_top" xlink:title=" ">
<polygon fill="white" stroke="#666666" points="195.62,-906.75 54.38,-906.75 54.38,-876.25 195.62,-876.25 195.62,-906.75"/>
<text text-anchor="start" x="62.38" y="-893.25" font-family="Helvetica,sans-Serif" font-size="10.00">Persistence.Repositories.</text>
<text text-anchor="middle" x="125" y="-882" font-family="Helvetica,sans-Serif" font-size="10.00">AreaRepository.DeleteAsync</text>
</a>
</g>
</g>
<!-- Node1&#45;&gt;Node4 -->
<g id="edge3_Node000001_Node000004" class="edge">
<title>Node1&#45;&gt;Node4</title>
<g id="a_edge3_Node000001_Node000004"><a xlink:title=" ">
<path fill="none" stroke="#63b8ff" d="M353.24,-550.21C353.17,-614.97 343.4,-781.3 250,-866.5 235.32,-879.89 215.52,-886.94 196.06,-890.46"/>
<polygon fill="#63b8ff" stroke="#63b8ff" points="356.74,-550.49 353.16,-540.51 349.74,-550.54 356.74,-550.49"/>
</a>
</g>
</g>
<!-- Node5 -->
<g id="Node000005" class="node">
<title>Node5</title>
<g id="a_Node000005"><a xlink:href="class_persistence_1_1_repositories_1_1_assistance_type_repository.html#abaaff92873b799751a3a999ebda23be5" target="_top" xlink:title=" ">
<polygon fill="white" stroke="#666666" points="220.38,-857.75 29.62,-857.75 29.62,-827.25 220.38,-827.25 220.38,-857.75"/>
<text text-anchor="start" x="37.62" y="-844.25" font-family="Helvetica,sans-Serif" font-size="10.00">Persistence.Repositories.</text>
<text text-anchor="middle" x="125" y="-833" font-family="Helvetica,sans-Serif" font-size="10.00">AssistanceTypeRepository.DeleteAsync</text>
</a>
</g>
</g>
<!-- Node1&#45;&gt;Node5 -->
<g id="edge4_Node000001_Node000005" class="edge">
<title>Node1&#45;&gt;Node5</title>
<g id="a_edge4_Node000001_Node000005"><a xlink:title=" ">
<path fill="none" stroke="#63b8ff" d="M351.68,-550.35C348.1,-608.57 331.04,-746.86 250,-817.5 241.47,-824.93 231.36,-830.38 220.64,-834.36"/>
<polygon fill="#63b8ff" stroke="#63b8ff" points="355.16,-550.87 352.18,-540.7 348.17,-550.51 355.16,-550.87"/>
</a>
</g>
</g>
<!-- Node6 -->
<g id="Node000006" class="node">
<title>Node6</title>
<g id="a_Node000006"><a xlink:href="class_persistence_1_1_repositories_1_1_campus_repository.html#aaaf5ae2ee56da3e36f1ff6ba53e3ae4f" target="_top" xlink:title=" ">
<polygon fill="white" stroke="#666666" points="203.88,-808.75 46.12,-808.75 46.12,-778.25 203.88,-778.25 203.88,-808.75"/>
<text text-anchor="start" x="54.12" y="-795.25" font-family="Helvetica,sans-Serif" font-size="10.00">Persistence.Repositories.</text>
<text text-anchor="middle" x="125" y="-784" font-family="Helvetica,sans-Serif" font-size="10.00">CampusRepository.DeleteAsync</text>
</a>
</g>
</g>
<!-- Node1&#45;&gt;Node6 -->
<g id="edge5_Node000001_Node000006" class="edge">
<title>Node1&#45;&gt;Node6</title>
<g id="a_edge5_Node000001_Node000006"><a xlink:title=" ">
<path fill="none" stroke="#63b8ff" d="M349.55,-550.4C342.23,-601.39 318.87,-712.06 250,-768.5 237.01,-779.15 220.7,-785.67 204.23,-789.57"/>
<polygon fill="#63b8ff" stroke="#63b8ff" points="353.01,-550.94 350.86,-540.56 346.07,-550.02 353.01,-550.94"/>
</a>
</g>
</g>
<!-- Node7 -->
<g id="Node000007" class="node">
<title>Node7</title>
<g id="a_Node000007"><a xlink:href="class_persistence_1_1_repositories_1_1_course_repository.html#af2f92675a2dc96ee613b7976ab8bf3c4" target="_top" xlink:title=" ">
<polygon fill="white" stroke="#666666" points="201.25,-759.75 48.75,-759.75 48.75,-729.25 201.25,-729.25 201.25,-759.75"/>
<text text-anchor="start" x="56.75" y="-746.25" font-family="Helvetica,sans-Serif" font-size="10.00">Persistence.Repositories.</text>
<text text-anchor="middle" x="125" y="-735" font-family="Helvetica,sans-Serif" font-size="10.00">CourseRepository.DeleteAsync</text>
</a>
</g>
</g>
<!-- Node1&#45;&gt;Node7 -->
<g id="edge6_Node000001_Node000007" class="edge">
<title>Node1&#45;&gt;Node7</title>
<g id="a_edge6_Node000001_Node000007"><a xlink:title=" ">
<path fill="none" stroke="#63b8ff" d="M346.54,-550.14C335.29,-592.99 307.01,-676.73 250,-719.5 236.03,-729.98 218.78,-736.36 201.64,-740.18"/>
<polygon fill="#63b8ff" stroke="#63b8ff" points="349.88,-551.23 348.9,-540.68 343.08,-549.53 349.88,-551.23"/>
</a>
</g>
</g>
<!-- Node8 -->
<g id="Node000008" class="node">
<title>Node8</title>
<g id="a_Node000008"><a xlink:href="class_persistence_1_1_repositories_1_1_main_area_repository.html#aa663a940787888eb52d22c8718123f7a" target="_top" xlink:title=" ">
<polygon fill="white" stroke="#666666" points="206.12,-710.75 43.88,-710.75 43.88,-680.25 206.12,-680.25 206.12,-710.75"/>
<text text-anchor="start" x="51.88" y="-697.25" font-family="Helvetica,sans-Serif" font-size="10.00">Persistence.Repositories.</text>
<text text-anchor="middle" x="125" y="-686" font-family="Helvetica,sans-Serif" font-size="10.00">MainAreaRepository.DeleteAsync</text>
</a>
</g>
</g>
<!-- Node1&#45;&gt;Node8 -->
<g id="edge7_Node000001_Node000008" class="edge">
<title>Node1&#45;&gt;Node8</title>
<g id="a_edge7_Node000001_Node000008"><a xlink:title=" ">
<path fill="none" stroke="#63b8ff" d="M342.04,-549.26C326.86,-582.78 295.61,-640.61 250,-670.5 237.05,-678.99 221.83,-684.69 206.57,-688.51"/>
<polygon fill="#63b8ff" stroke="#63b8ff" points="345.16,-550.85 345.96,-540.28 338.75,-548.04 345.16,-550.85"/>
</a>
</g>
</g>
<!-- Node9 -->
<g id="Node000009" class="node">
<title>Node9</title>
<g id="a_Node000009"><a xlink:href="class_persistence_1_1_repositories_1_1_notice_repository.html#ac4f8027c1f0ae94e89ec3514dfb66e2a" target="_top" xlink:title=" ">
<polygon fill="white" stroke="#666666" points="199.75,-661.75 50.25,-661.75 50.25,-631.25 199.75,-631.25 199.75,-661.75"/>
<text text-anchor="start" x="58.25" y="-648.25" font-family="Helvetica,sans-Serif" font-size="10.00">Persistence.Repositories.</text>
<text text-anchor="middle" x="125" y="-637" font-family="Helvetica,sans-Serif" font-size="10.00">NoticeRepository.DeleteAsync</text>
</a>
</g>
</g>
<!-- Node1&#45;&gt;Node9 -->
<g id="edge8_Node000001_Node000009" class="edge">
<title>Node1&#45;&gt;Node9</title>
<g id="a_edge8_Node000001_Node000009"><a xlink:title=" ">
<path fill="none" stroke="#63b8ff" d="M333.95,-547.97C315.25,-570.67 284.37,-603.58 250,-621.5 234.71,-629.47 217.14,-634.9 200.13,-638.61"/>
<polygon fill="#63b8ff" stroke="#63b8ff" points="336.49,-550.4 340.02,-540.41 331.03,-546.02 336.49,-550.4"/>
</a>
</g>
</g>
<!-- Node10 -->
<g id="Node000010" class="node">
<title>Node10</title>
<g id="a_Node000010"><a xlink:href="class_persistence_1_1_repositories_1_1_professor_repository.html#a759b14e2c90ccb236b080582cc84cf63" target="_top" xlink:title=" ">
<polygon fill="white" stroke="#666666" points="206.5,-612.75 43.5,-612.75 43.5,-582.25 206.5,-582.25 206.5,-612.75"/>
<text text-anchor="start" x="51.5" y="-599.25" font-family="Helvetica,sans-Serif" font-size="10.00">Persistence.Repositories.</text>
<text text-anchor="middle" x="125" y="-588" font-family="Helvetica,sans-Serif" font-size="10.00">ProfessorRepository.DeleteAsync</text>
</a>
</g>
</g>
<!-- Node1&#45;&gt;Node10 -->
<g id="edge9_Node000001_Node000010" class="edge">
<title>Node1&#45;&gt;Node10</title>
<g id="a_edge9_Node000001_Node000010"><a xlink:title=" ">
<path fill="none" stroke="#63b8ff" d="M314.64,-544.4C295.68,-554.11 272.12,-565.11 250,-572.5 236.25,-577.09 221.35,-580.97 206.8,-584.21"/>
<polygon fill="#63b8ff" stroke="#63b8ff" points="316.07,-547.6 323.32,-539.87 312.83,-541.4 316.07,-547.6"/>
</a>
</g>
</g>
<!-- Node11 -->
<g id="Node000011" class="node">
<title>Node11</title>
<g id="a_Node000011"><a xlink:href="class_persistence_1_1_repositories_1_1_program_type_repository.html#aaec196c8cf4c905650529ac56c7c201d" target="_top" xlink:title=" ">
<polygon fill="white" stroke="#666666" points="214.38,-563.75 35.62,-563.75 35.62,-533.25 214.38,-533.25 214.38,-563.75"/>
<text text-anchor="start" x="43.62" y="-550.25" font-family="Helvetica,sans-Serif" font-size="10.00">Persistence.Repositories.</text>
<text text-anchor="middle" x="125" y="-539" font-family="Helvetica,sans-Serif" font-size="10.00">ProgramTypeRepository.DeleteAsync</text>
</a>
</g>
</g>
<!-- Node1&#45;&gt;Node11 -->
<g id="edge10_Node000001_Node000011" class="edge">
<title>Node1&#45;&gt;Node11</title>
<g id="a_edge10_Node000001_Node000011"><a xlink:title=" ">
<path fill="none" stroke="#63b8ff" d="M274.15,-532.16C254.99,-534.27 234.36,-536.55 214.76,-538.71"/>
<polygon fill="#63b8ff" stroke="#63b8ff" points="274.49,-535.64 284.05,-531.07 273.72,-528.68 274.49,-535.64"/>
</a>
</g>
</g>
<!-- Node12 -->
<g id="Node000012" class="node">
<title>Node12</title>
<g id="a_Node000012"><a xlink:href="class_persistence_1_1_repositories_1_1_project_activity_repository.html#a02ab04f732f4e5a0c94c6f4f8ff4d04d" target="_top" xlink:title=" ">
<polygon fill="white" stroke="#666666" points="217.38,-514.75 32.62,-514.75 32.62,-484.25 217.38,-484.25 217.38,-514.75"/>
<text text-anchor="start" x="40.62" y="-501.25" font-family="Helvetica,sans-Serif" font-size="10.00">Persistence.Repositories.</text>
<text text-anchor="middle" x="125" y="-490" font-family="Helvetica,sans-Serif" font-size="10.00">ProjectActivityRepository.DeleteAsync</text>
</a>
</g>
</g>
<!-- Node1&#45;&gt;Node12 -->
<g id="edge11_Node000001_Node000012" class="edge">
<title>Node1&#45;&gt;Node12</title>
<g id="a_edge11_Node000001_Node000012"><a xlink:title=" ">
<path fill="none" stroke="#63b8ff" d="M274.11,-515.18C255.91,-513.26 236.39,-511.19 217.68,-509.21"/>
<polygon fill="#63b8ff" stroke="#63b8ff" points="273.73,-518.66 284.04,-516.24 274.47,-511.7 273.73,-518.66"/>
</a>
</g>
</g>
<!-- Node13 -->
<g id="Node000013" class="node">
<title>Node13</title>
<g id="a_Node000013"><a xlink:href="class_persistence_1_1_repositories_1_1_project_repository.html#aa4db46fcbaa369d1357f3bbd7ce577ea" target="_top" xlink:title="Remove projeto através do Id informado.">
<polygon fill="white" stroke="#666666" points="200.88,-465.75 49.12,-465.75 49.12,-435.25 200.88,-435.25 200.88,-465.75"/>
<text text-anchor="start" x="57.12" y="-452.25" font-family="Helvetica,sans-Serif" font-size="10.00">Persistence.Repositories.</text>
<text text-anchor="middle" x="125" y="-441" font-family="Helvetica,sans-Serif" font-size="10.00">ProjectRepository.DeleteAsync</text>
</a>
</g>
</g>
<!-- Node1&#45;&gt;Node13 -->
<g id="edge12_Node000001_Node000013" class="edge">
<title>Node1&#45;&gt;Node13</title>
<g id="a_edge12_Node000001_Node000013"><a xlink:title=" ">
<path fill="none" stroke="#63b8ff" d="M314.18,-502.85C295.28,-493.4 271.91,-482.72 250,-475.5 234.46,-470.38 217.46,-466.12 201.17,-462.66"/>
<polygon fill="#63b8ff" stroke="#63b8ff" points="312.34,-505.84 322.83,-507.26 315.51,-499.6 312.34,-505.84"/>
</a>
</g>
</g>
<!-- Node14 -->
<g id="Node000014" class="node">
<title>Node14</title>
<g id="a_Node000014"><a xlink:href="class_persistence_1_1_repositories_1_1_student_documents_repository.html#a399eaaa5b4c9b13e39973af618e34d9f" target="_top" xlink:title=" ">
<polygon fill="white" stroke="#666666" points="227.5,-416.75 22.5,-416.75 22.5,-386.25 227.5,-386.25 227.5,-416.75"/>
<text text-anchor="start" x="30.5" y="-403.25" font-family="Helvetica,sans-Serif" font-size="10.00">Persistence.Repositories.</text>
<text text-anchor="middle" x="125" y="-392" font-family="Helvetica,sans-Serif" font-size="10.00">StudentDocumentsRepository.DeleteAsync</text>
</a>
</g>
</g>
<!-- Node1&#45;&gt;Node14 -->
<g id="edge13_Node000001_Node000014" class="edge">
<title>Node1&#45;&gt;Node14</title>
<g id="a_edge13_Node000001_Node000014"><a xlink:title=" ">
<path fill="none" stroke="#63b8ff" d="M333.9,-499.28C315.16,-476.81 284.25,-444.25 250,-426.5 242.98,-422.86 235.48,-419.75 227.78,-417.1"/>
<polygon fill="#63b8ff" stroke="#63b8ff" points="330.95,-501.21 339.98,-506.76 336.38,-496.79 330.95,-501.21"/>
</a>
</g>
</g>
<!-- Node15 -->
<g id="Node000015" class="node">
<title>Node15</title>
<g id="a_Node000015"><a xlink:href="class_persistence_1_1_repositories_1_1_student_repository.html#a6793f40d88035d4333944de761b7bbf0" target="_top" xlink:title=" ">
<polygon fill="white" stroke="#666666" points="202.38,-367.75 47.62,-367.75 47.62,-337.25 202.38,-337.25 202.38,-367.75"/>
<text text-anchor="start" x="55.62" y="-354.25" font-family="Helvetica,sans-Serif" font-size="10.00">Persistence.Repositories.</text>
<text text-anchor="middle" x="125" y="-343" font-family="Helvetica,sans-Serif" font-size="10.00">StudentRepository.DeleteAsync</text>
</a>
</g>
</g>
<!-- Node1&#45;&gt;Node15 -->
<g id="edge14_Node000001_Node000015" class="edge">
<title>Node1&#45;&gt;Node15</title>
<g id="a_edge14_Node000001_Node000015"><a xlink:title=" ">
<path fill="none" stroke="#63b8ff" d="M341.99,-497.92C326.75,-464.61 295.45,-407.18 250,-377.5 235.93,-368.31 219.2,-362.39 202.65,-358.59"/>
<polygon fill="#63b8ff" stroke="#63b8ff" points="338.68,-499.09 345.93,-506.82 345.09,-496.26 338.68,-499.09"/>
</a>
</g>
</g>
<!-- Node16 -->
<g id="Node000016" class="node">
<title>Node16</title>
<g id="a_Node000016"><a xlink:href="class_persistence_1_1_repositories_1_1_sub_area_repository.html#abf79edcbcef414e998512efe7b8fb794" target="_top" xlink:title=" ">
<polygon fill="white" stroke="#666666" points="204.25,-318.75 45.75,-318.75 45.75,-288.25 204.25,-288.25 204.25,-318.75"/>
<text text-anchor="start" x="53.75" y="-305.25" font-family="Helvetica,sans-Serif" font-size="10.00">Persistence.Repositories.</text>
<text text-anchor="middle" x="125" y="-294" font-family="Helvetica,sans-Serif" font-size="10.00">SubAreaRepository.DeleteAsync</text>
</a>
</g>
</g>
<!-- Node1&#45;&gt;Node16 -->
<g id="edge15_Node000001_Node000016" class="edge">
<title>Node1&#45;&gt;Node16</title>
<g id="a_edge15_Node000001_Node000016"><a xlink:title=" ">
<path fill="none" stroke="#63b8ff" d="M346.42,-496.72C335.07,-454 306.7,-370.95 250,-328.5 236.81,-318.63 220.71,-312.4 204.53,-308.52"/>
<polygon fill="#63b8ff" stroke="#63b8ff" points="343.03,-497.57 348.87,-506.4 349.82,-495.85 343.03,-497.57"/>
</a>
</g>
</g>
<!-- Node17 -->
<g id="Node000017" class="node">
<title>Node17</title>
<g id="a_Node000017"><a xlink:href="class_persistence_1_1_repositories_1_1_user_repository.html#a439ce0bb5eaa65a0f848b0c59a65ea56" target="_top" xlink:title="Realiza a remoção do usuário utilizando o id informado.">
<polygon fill="white" stroke="#666666" points="196,-269.75 54,-269.75 54,-239.25 196,-239.25 196,-269.75"/>
<text text-anchor="start" x="62" y="-256.25" font-family="Helvetica,sans-Serif" font-size="10.00">Persistence.Repositories.</text>
<text text-anchor="middle" x="125" y="-245" font-family="Helvetica,sans-Serif" font-size="10.00">UserRepository.DeleteAsync</text>
</a>
</g>
</g>
<!-- Node1&#45;&gt;Node17 -->
<g id="edge16_Node000001_Node000017" class="edge">
<title>Node1&#45;&gt;Node17</title>
<g id="a_edge16_Node000001_Node000017"><a xlink:title=" ">
<path fill="none" stroke="#63b8ff" d="M349.52,-496.71C342.13,-445.92 318.67,-335.69 250,-279.5 234.96,-267.19 215.5,-260.41 196.47,-256.79"/>
<polygon fill="#63b8ff" stroke="#63b8ff" points="346.03,-497.05 350.83,-506.5 352.97,-496.12 346.03,-497.05"/>
</a>
</g>
</g>
<!-- Node18 -->
<g id="Node000018" class="node">
<title>Node18</title>
<g id="a_Node000018"><a xlink:href="class_application_1_1_use_cases_1_1_user_1_1_deactivate_user.html#a783f41a72d8dae40614488ff2e4fc2b3" target="_top" xlink:title=" ">
<polygon fill="white" stroke="#666666" points="200.12,-220.75 49.88,-220.75 49.88,-190.25 200.12,-190.25 200.12,-220.75"/>
<text text-anchor="start" x="57.88" y="-207.25" font-family="Helvetica,sans-Serif" font-size="10.00">Application.UseCases.User.</text>
<text text-anchor="middle" x="125" y="-196" font-family="Helvetica,sans-Serif" font-size="10.00">DeactivateUser.ExecuteAsync</text>
</a>
</g>
</g>
<!-- Node1&#45;&gt;Node18 -->
<g id="edge17_Node000001_Node000018" class="edge">
<title>Node1&#45;&gt;Node18</title>
<g id="a_edge17_Node000001_Node000018"><a xlink:title=" ">
<path fill="none" stroke="#63b8ff" d="M351.63,-496.38C347.94,-438.14 330.66,-300.74 250,-230.5 236.25,-218.53 218.39,-211.69 200.51,-207.92"/>
<polygon fill="#63b8ff" stroke="#63b8ff" points="348.13,-496.55 352.16,-506.35 355.12,-496.17 348.13,-496.55"/>
</a>
</g>
</g>
<!-- Node19 -->
<g id="Node000019" class="node">
<title>Node19</title>
<g id="a_Node000019"><a xlink:href="class_application_1_1_tests_1_1_use_cases_1_1_campus_1_1_update_campus_tests.html#a79c8140fd041e6854c964eb511e251db" target="_top" xlink:title=" ">
<polygon fill="white" stroke="#666666" points="250,-172.38 0,-172.38 0,-130.62 250,-130.62 250,-172.38"/>
<text text-anchor="start" x="8" y="-158.88" font-family="Helvetica,sans-Serif" font-size="10.00">Application.Tests.UseCases.</text>
<text text-anchor="start" x="8" y="-147.62" font-family="Helvetica,sans-Serif" font-size="10.00">Campus.UpdateCampusTests.Execute</text>
<text text-anchor="middle" x="125" y="-136.38" font-family="Helvetica,sans-Serif" font-size="10.00">Async_CampusIsDeleted_ThrowsUseCaseException</text>
</a>
</g>
</g>
<!-- Node1&#45;&gt;Node19 -->
<g id="edge18_Node000001_Node000019" class="edge">
<title>Node1&#45;&gt;Node19</title>
<g id="a_edge18_Node000001_Node000019"><a xlink:title=" ">
<path fill="none" stroke="#63b8ff" d="M353,-496.65C352.35,-432.26 341.32,-268.01 250,-181.5 246.62,-178.3 242.97,-175.43 239.1,-172.84"/>
<polygon fill="#63b8ff" stroke="#63b8ff" points="349.5,-496.3 353.01,-506.29 356.5,-496.29 349.5,-496.3"/>
</a>
</g>
</g>
<!-- Node20 -->
<g id="Node000020" class="node">
<title>Node20</title>
<g id="a_Node000020"><a xlink:href="class_application_1_1_tests_1_1_use_cases_1_1_course_1_1_update_course_tests.html#a7e41e8c865d61e72b71637e5eca418ee" target="_top" xlink:title=" ">
<polygon fill="white" stroke="#666666" points="247.38,-112.38 2.62,-112.38 2.62,-70.62 247.38,-70.62 247.38,-112.38"/>
<text text-anchor="start" x="10.62" y="-98.88" font-family="Helvetica,sans-Serif" font-size="10.00">Application.Tests.UseCases.</text>
<text text-anchor="start" x="10.62" y="-87.62" font-family="Helvetica,sans-Serif" font-size="10.00">Course.UpdateCourseTests.Execute</text>
<text text-anchor="middle" x="125" y="-76.38" font-family="Helvetica,sans-Serif" font-size="10.00">Async_CourseIsDeleted_ThrowsUseCaseException</text>
</a>
</g>
</g>
<!-- Node1&#45;&gt;Node20 -->
<g id="edge19_Node000001_Node000020" class="edge">
<title>Node1&#45;&gt;Node20</title>
<g id="a_edge19_Node000001_Node000020"><a xlink:title=" ">
<path fill="none" stroke="#63b8ff" d="M349.37,-496.59C339.02,-415.39 304.3,-175.12 250,-121.5 246.77,-118.31 243.26,-115.44 239.54,-112.85"/>
<polygon fill="#63b8ff" stroke="#63b8ff" points="345.9,-497.01 350.61,-506.49 352.84,-496.14 345.9,-497.01"/>
</a>
</g>
</g>
<!-- Node21 -->
<g id="Node000021" class="node">
<title>Node21</title>
<g id="a_Node000021"><a xlink:href="class_application_1_1_tests_1_1_use_cases_1_1_professor_1_1_update_professor_tests.html#a6a8dd48834a8570b7e7d5d5282b7da7b" target="_top" xlink:title=" ">
<polygon fill="white" stroke="#666666" points="205.38,-53 44.62,-53 44.62,0 205.38,0 205.38,-53"/>
<text text-anchor="start" x="52.62" y="-39.5" font-family="Helvetica,sans-Serif" font-size="10.00">Application.Tests.UseCases.</text>
<text text-anchor="start" x="52.62" y="-28.25" font-family="Helvetica,sans-Serif" font-size="10.00">Professor.UpdateProfessorTests.</text>
<text text-anchor="start" x="52.62" y="-17" font-family="Helvetica,sans-Serif" font-size="10.00">ExecuteAsync_DeletedProfessor</text>
<text text-anchor="middle" x="125" y="-5.75" font-family="Helvetica,sans-Serif" font-size="10.00">_ThrowsUseCaseException</text>
</a>
</g>
</g>
<!-- Node1&#45;&gt;Node21 -->
<g id="edge20_Node000001_Node000021" class="edge">
<title>Node1&#45;&gt;Node21</title>
<g id="a_edge20_Node000001_Node000021"><a xlink:title=" ">
<path fill="none" stroke="#63b8ff" d="M350.23,-496.55C341.79,-407.65 310.64,-125.66 250,-61.5 238.17,-48.98 222.24,-40.83 205.74,-35.54"/>
<polygon fill="#63b8ff" stroke="#63b8ff" points="346.72,-496.63 351.13,-506.27 353.69,-495.98 346.72,-496.63"/>
</a>
</g>
</g>
</g>
</svg>
