<?xml version="1.0" encoding="UTF-8" standalone="no"?>
<!DOCTYPE svg PUBLIC "-//W3C//DTD SVG 1.1//EN"
 "http://www.w3.org/Graphics/SVG/1.1/DTD/svg11.dtd">
<!-- Generated by graphviz version 9.0.0 (20230911.1827)
 -->
<!-- Title: Persistence.Repositories.UserRepository.DeleteAsync Pages: 1 -->
<svg width="336pt" height="137pt"
 viewBox="0.00 0.00 335.50 136.50" xmlns="http://www.w3.org/2000/svg" xmlns:xlink="http://www.w3.org/1999/xlink">
<g id="graph0" class="graph" transform="scale(1 1) rotate(0) translate(4 132.5)">
<title>Persistence.Repositories.UserRepository.DeleteAsync</title>
<!-- Node1 -->
<g id="Node000001" class="node">
<title>Node1</title>
<g id="a_Node000001"><a xlink:title="Realiza a remoção do usuário utilizando o id informado.">
<polygon fill="#999999" stroke="#666666" points="142,-79.5 0,-79.5 0,-49 142,-49 142,-79.5"/>
<text text-anchor="start" x="8" y="-66" font-family="Helvetica,sans-Serif" font-size="10.00">Persistence.Repositories.</text>
<text text-anchor="middle" x="71" y="-54.75" font-family="Helvetica,sans-Serif" font-size="10.00">UserRepository.DeleteAsync</text>
</a>
</g>
</g>
<!-- Node2 -->
<g id="Node000002" class="node">
<title>Node2</title>
<g id="a_Node000002"><a xlink:href="class_domain_1_1_entities_1_1_primitives_1_1_entity.html#a3a368e3c302f8622ea0305003ef2a5eb" target="_top" xlink:title=" ">
<polygon fill="white" stroke="#666666" points="320.38,-128.5 185.12,-128.5 185.12,-98 320.38,-98 320.38,-128.5"/>
<text text-anchor="start" x="193.12" y="-115" font-family="Helvetica,sans-Serif" font-size="10.00">Domain.Entities.Primitives.</text>
<text text-anchor="middle" x="252.75" y="-103.75" font-family="Helvetica,sans-Serif" font-size="10.00">Entity.DeactivateEntity</text>
</a>
</g>
</g>
<!-- Node1&#45;&gt;Node2 -->
<g id="edge1_Node000001_Node000002" class="edge">
<title>Node1&#45;&gt;Node2</title>
<g id="a_edge1_Node000001_Node000002"><a xlink:title=" ">
<path fill="none" stroke="#63b8ff" d="M129.37,-79.89C146.47,-84.55 165.39,-89.71 183.13,-94.54"/>
<polygon fill="#63b8ff" stroke="#63b8ff" points="181.97,-97.86 192.54,-97.11 183.81,-91.1 181.97,-97.86"/>
</a>
</g>
</g>
<!-- Node3 -->
<g id="Node000003" class="node">
<title>Node3</title>
<g id="a_Node000003"><a xlink:href="class_persistence_1_1_repositories_1_1_user_repository.html#aac14dc52ebd5a20734d2efd12522ba49" target="_top" xlink:title="Recupera usuário através do Id informado.">
<polygon fill="white" stroke="#666666" points="327.5,-79.5 178,-79.5 178,-49 327.5,-49 327.5,-79.5"/>
<text text-anchor="start" x="186" y="-66" font-family="Helvetica,sans-Serif" font-size="10.00">Persistence.Repositories.</text>
<text text-anchor="middle" x="252.75" y="-54.75" font-family="Helvetica,sans-Serif" font-size="10.00">UserRepository.GetByIdAsync</text>
</a>
</g>
</g>
<!-- Node1&#45;&gt;Node3 -->
<g id="edge2_Node000001_Node000003" class="edge">
<title>Node1&#45;&gt;Node3</title>
<g id="a_edge2_Node000001_Node000003"><a xlink:title=" ">
<path fill="none" stroke="#63b8ff" d="M142.27,-64.25C150.17,-64.25 158.28,-64.25 166.34,-64.25"/>
<polygon fill="#63b8ff" stroke="#63b8ff" points="166.16,-67.75 176.16,-64.25 166.16,-60.75 166.16,-67.75"/>
</a>
</g>
</g>
<!-- Node4 -->
<g id="Node000004" class="node">
<title>Node4</title>
<g id="a_Node000004"><a xlink:href="class_persistence_1_1_repositories_1_1_user_repository.html#a63fd2cbf23f5f9e5d0f26688e7d79cf1" target="_top" xlink:title="Atualiza usuário utilizando os parâmetros informados.">
<polygon fill="white" stroke="#666666" points="325.25,-30.5 180.25,-30.5 180.25,0 325.25,0 325.25,-30.5"/>
<text text-anchor="start" x="188.25" y="-17" font-family="Helvetica,sans-Serif" font-size="10.00">Persistence.Repositories.</text>
<text text-anchor="middle" x="252.75" y="-5.75" font-family="Helvetica,sans-Serif" font-size="10.00">UserRepository.UpdateAsync</text>
</a>
</g>
</g>
<!-- Node1&#45;&gt;Node4 -->
<g id="edge3_Node000001_Node000004" class="edge">
<title>Node1&#45;&gt;Node4</title>
<g id="a_edge3_Node000001_Node000004"><a xlink:title=" ">
<path fill="none" stroke="#63b8ff" d="M129.37,-48.61C146.47,-43.95 165.39,-38.79 183.13,-33.96"/>
<polygon fill="#63b8ff" stroke="#63b8ff" points="183.81,-37.4 192.54,-31.39 181.97,-30.64 183.81,-37.4"/>
</a>
</g>
</g>
</g>
</svg>
