<?xml version="1.0" encoding="UTF-8" standalone="no"?>
<!DOCTYPE svg PUBLIC "-//W3C//DTD SVG 1.1//EN"
 "http://www.w3.org/Graphics/SVG/1.1/DTD/svg11.dtd">
<!-- Generated by graphviz version 9.0.0 (20230911.1827)
 -->
<!-- Title: Application.Ports.Student.BaseStudentContract Pages: 1 -->
<svg width="318pt" height="186pt"
 viewBox="0.00 0.00 318.25 185.50" xmlns="http://www.w3.org/2000/svg" xmlns:xlink="http://www.w3.org/1999/xlink">
<g id="graph0" class="graph" transform="scale(1 1) rotate(0) translate(4 181.5)">
<title>Application.Ports.Student.BaseStudentContract</title>
<!-- Node1 -->
<g id="Node000001" class="node">
<title>Node1</title>
<g id="a_Node000001"><a xlink:title=" ">
<polygon fill="#999999" stroke="#666666" points="130,-103.5 0,-103.5 0,-73 130,-73 130,-103.5"/>
<text text-anchor="start" x="8" y="-90" font-family="Helvetica,sans-Serif" font-size="10.00">Application.Ports.Student.</text>
<text text-anchor="middle" x="65" y="-78.75" font-family="Helvetica,sans-Serif" font-size="10.00">BaseStudentContract</text>
</a>
</g>
</g>
<!-- Node2 -->
<g id="Node000002" class="node">
<title>Node2</title>
<g id="a_Node000002"><a xlink:href="class_application_1_1_ports_1_1_student_1_1_create_student_input.html" target="_top" xlink:title=" ">
<polygon fill="white" stroke="#666666" points="303.12,-177.5 173.12,-177.5 173.12,-147 303.12,-147 303.12,-177.5"/>
<text text-anchor="start" x="181.12" y="-164" font-family="Helvetica,sans-Serif" font-size="10.00">Application.Ports.Student.</text>
<text text-anchor="middle" x="238.12" y="-152.75" font-family="Helvetica,sans-Serif" font-size="10.00">CreateStudentInput</text>
</a>
</g>
</g>
<!-- Node1&#45;&gt;Node2 -->
<g id="edge1_Node000001_Node000002" class="edge">
<title>Node1&#45;&gt;Node2</title>
<g id="a_edge1_Node000001_Node000002"><a xlink:title=" ">
<path fill="none" stroke="#63b8ff" d="M105.96,-109.17C124.06,-118.3 145.88,-128.82 166,-137.25 173.73,-140.49 182.03,-143.67 190.15,-146.62"/>
<polygon fill="#63b8ff" stroke="#63b8ff" points="107.62,-106.09 97.12,-104.67 104.44,-112.32 107.62,-106.09"/>
</a>
</g>
</g>
<!-- Node3 -->
<g id="Node000003" class="node">
<title>Node3</title>
<g id="a_Node000003"><a xlink:href="class_application_1_1_ports_1_1_student_1_1_detailed_read_student_output.html" target="_top" xlink:title=" ">
<polygon fill="white" stroke="#666666" points="307.25,-128.5 169,-128.5 169,-98 307.25,-98 307.25,-128.5"/>
<text text-anchor="start" x="177" y="-115" font-family="Helvetica,sans-Serif" font-size="10.00">Application.Ports.Student.</text>
<text text-anchor="middle" x="238.12" y="-103.75" font-family="Helvetica,sans-Serif" font-size="10.00">DetailedReadStudentOutput</text>
</a>
</g>
</g>
<!-- Node1&#45;&gt;Node3 -->
<g id="edge2_Node000001_Node000003" class="edge">
<title>Node1&#45;&gt;Node3</title>
<g id="a_edge2_Node000001_Node000003"><a xlink:title=" ">
<path fill="none" stroke="#63b8ff" d="M141.5,-99.28C150.5,-100.59 159.65,-101.93 168.55,-103.23"/>
<polygon fill="#63b8ff" stroke="#63b8ff" points="142.11,-95.83 131.71,-97.85 141.09,-102.76 142.11,-95.83"/>
</a>
</g>
</g>
<!-- Node4 -->
<g id="Node000004" class="node">
<title>Node4</title>
<g id="a_Node000004"><a xlink:href="class_application_1_1_ports_1_1_student_1_1_resumed_read_student_output.html" target="_top" xlink:title=" ">
<polygon fill="white" stroke="#666666" points="310.25,-79.5 166,-79.5 166,-49 310.25,-49 310.25,-79.5"/>
<text text-anchor="start" x="174" y="-66" font-family="Helvetica,sans-Serif" font-size="10.00">Application.Ports.Student.</text>
<text text-anchor="middle" x="238.12" y="-54.75" font-family="Helvetica,sans-Serif" font-size="10.00">ResumedReadStudentOutput</text>
</a>
</g>
</g>
<!-- Node1&#45;&gt;Node4 -->
<g id="edge3_Node000001_Node000004" class="edge">
<title>Node1&#45;&gt;Node4</title>
<g id="a_edge3_Node000001_Node000004"><a xlink:title=" ">
<path fill="none" stroke="#63b8ff" d="M141.47,-77.67C149.51,-76.54 157.67,-75.39 165.67,-74.27"/>
<polygon fill="#63b8ff" stroke="#63b8ff" points="141.12,-74.18 131.71,-79.03 142.1,-81.11 141.12,-74.18"/>
</a>
</g>
</g>
<!-- Node5 -->
<g id="Node000005" class="node">
<title>Node5</title>
<g id="a_Node000005"><a xlink:href="class_application_1_1_ports_1_1_student_1_1_update_student_input.html" target="_top" xlink:title=" ">
<polygon fill="white" stroke="#666666" points="303.12,-30.5 173.12,-30.5 173.12,0 303.12,0 303.12,-30.5"/>
<text text-anchor="start" x="181.12" y="-17" font-family="Helvetica,sans-Serif" font-size="10.00">Application.Ports.Student.</text>
<text text-anchor="middle" x="238.12" y="-5.75" font-family="Helvetica,sans-Serif" font-size="10.00">UpdateStudentInput</text>
</a>
</g>
</g>
<!-- Node1&#45;&gt;Node5 -->
<g id="edge4_Node000001_Node000005" class="edge">
<title>Node1&#45;&gt;Node5</title>
<g id="a_edge4_Node000001_Node000005"><a xlink:title=" ">
<path fill="none" stroke="#63b8ff" d="M106.4,-67.61C124.44,-58.73 146.07,-48.51 166,-40.25 173.74,-37.04 182.05,-33.88 190.17,-30.93"/>
<polygon fill="#63b8ff" stroke="#63b8ff" points="104.99,-64.41 97.6,-71.99 108.11,-70.67 104.99,-64.41"/>
</a>
</g>
</g>
</g>
</svg>
