<?xml version="1.0" encoding="UTF-8" standalone="no"?>
<!DOCTYPE svg PUBLIC "-//W3C//DTD SVG 1.1//EN"
 "http://www.w3.org/Graphics/SVG/1.1/DTD/svg11.dtd">
<!-- Generated by graphviz version 9.0.0 (20230911.1827)
 -->
<!-- Title: Persistence.Repositories.StudentDocumentsRepository.DeleteAsync Pages: 1 -->
<svg width="457pt" height="147pt"
 viewBox="0.00 0.00 457.00 146.50" xmlns="http://www.w3.org/2000/svg" xmlns:xlink="http://www.w3.org/1999/xlink">
<g id="graph0" class="graph" transform="scale(1 1) rotate(0) translate(4 142.5)">
<title>Persistence.Repositories.StudentDocumentsRepository.DeleteAsync</title>
<!-- Node1 -->
<g id="Node000001" class="node">
<title>Node1</title>
<g id="a_Node000001"><a xlink:title=" ">
<polygon fill="#999999" stroke="#666666" points="205,-84.5 0,-84.5 0,-54 205,-54 205,-84.5"/>
<text text-anchor="start" x="8" y="-71" font-family="Helvetica,sans-Serif" font-size="10.00">Persistence.Repositories.</text>
<text text-anchor="middle" x="102.5" y="-59.75" font-family="Helvetica,sans-Serif" font-size="10.00">StudentDocumentsRepository.DeleteAsync</text>
</a>
</g>
</g>
<!-- Node2 -->
<g id="Node000002" class="node">
<title>Node2</title>
<g id="a_Node000002"><a xlink:href="class_domain_1_1_entities_1_1_primitives_1_1_entity.html#a3a368e3c302f8622ea0305003ef2a5eb" target="_top" xlink:title=" ">
<polygon fill="white" stroke="#666666" points="412.62,-138.5 277.38,-138.5 277.38,-108 412.62,-108 412.62,-138.5"/>
<text text-anchor="start" x="285.38" y="-125" font-family="Helvetica,sans-Serif" font-size="10.00">Domain.Entities.Primitives.</text>
<text text-anchor="middle" x="345" y="-113.75" font-family="Helvetica,sans-Serif" font-size="10.00">Entity.DeactivateEntity</text>
</a>
</g>
</g>
<!-- Node1&#45;&gt;Node2 -->
<g id="edge1_Node000001_Node000002" class="edge">
<title>Node1&#45;&gt;Node2</title>
<g id="a_edge1_Node000001_Node000002"><a xlink:title=" ">
<path fill="none" stroke="#63b8ff" d="M173.39,-84.94C202.41,-91.46 236.21,-99.05 266.03,-105.74"/>
<polygon fill="#63b8ff" stroke="#63b8ff" points="265.25,-109.15 275.77,-107.93 266.78,-102.32 265.25,-109.15"/>
</a>
</g>
</g>
<!-- Node3 -->
<g id="Node000003" class="node">
<title>Node3</title>
<g id="a_Node000003"><a xlink:href="class_persistence_1_1_repositories_1_1_student_documents_repository.html#ac8801027c6f4e34a381240bb029f9d49" target="_top" xlink:title=" ">
<polygon fill="white" stroke="#666666" points="427.25,-90.12 262.75,-90.12 262.75,-48.38 427.25,-48.38 427.25,-90.12"/>
<text text-anchor="start" x="270.75" y="-76.62" font-family="Helvetica,sans-Serif" font-size="10.00">Persistence.Repositories.</text>
<text text-anchor="start" x="270.75" y="-65.38" font-family="Helvetica,sans-Serif" font-size="10.00">StudentDocumentsRepository.Get</text>
<text text-anchor="middle" x="345" y="-54.12" font-family="Helvetica,sans-Serif" font-size="10.00">ByIdAsync</text>
</a>
</g>
</g>
<!-- Node1&#45;&gt;Node3 -->
<g id="edge2_Node000001_Node000003" class="edge">
<title>Node1&#45;&gt;Node3</title>
<g id="a_edge2_Node000001_Node000003"><a xlink:title=" ">
<path fill="none" stroke="#63b8ff" d="M205.49,-69.25C220.59,-69.25 236.08,-69.25 250.99,-69.25"/>
<polygon fill="#63b8ff" stroke="#63b8ff" points="250.74,-72.75 260.74,-69.25 250.74,-65.75 250.74,-72.75"/>
</a>
</g>
</g>
<!-- Node4 -->
<g id="Node000004" class="node">
<title>Node4</title>
<g id="a_Node000004"><a xlink:href="class_persistence_1_1_repositories_1_1_student_documents_repository.html#a645b26727238bb78147941799a50a3ee" target="_top" xlink:title=" ">
<polygon fill="white" stroke="#666666" points="449,-30.5 241,-30.5 241,0 449,0 449,-30.5"/>
<text text-anchor="start" x="249" y="-17" font-family="Helvetica,sans-Serif" font-size="10.00">Persistence.Repositories.</text>
<text text-anchor="middle" x="345" y="-5.75" font-family="Helvetica,sans-Serif" font-size="10.00">StudentDocumentsRepository.UpdateAsync</text>
</a>
</g>
</g>
<!-- Node1&#45;&gt;Node4 -->
<g id="edge3_Node000001_Node000004" class="edge">
<title>Node1&#45;&gt;Node4</title>
<g id="a_edge3_Node000001_Node000004"><a xlink:title=" ">
<path fill="none" stroke="#63b8ff" d="M173.39,-53.56C201.42,-47.26 233.92,-39.97 262.99,-33.44"/>
<polygon fill="#63b8ff" stroke="#63b8ff" points="263.47,-36.92 272.46,-31.31 261.94,-30.09 263.47,-36.92"/>
</a>
</g>
</g>
</g>
</svg>
