<?xml version="1.0" encoding="UTF-8" standalone="no"?>
<!DOCTYPE svg PUBLIC "-//W3C//DTD SVG 1.1//EN"
 "http://www.w3.org/Graphics/SVG/1.1/DTD/svg11.dtd">
<!-- Generated by graphviz version 8.1.0 (20230707.0739)
 -->
<!-- Title: src.infra.external_services.nautilus_api_service.NautilusAPIService Pages: 1 -->
<svg width="463pt" height="50pt"
 viewBox="0.00 0.00 463.25 49.75" xmlns="http://www.w3.org/2000/svg" xmlns:xlink="http://www.w3.org/1999/xlink">
<g id="graph0" class="graph" transform="scale(1 1) rotate(0) translate(4 45.75)">
<title>src.infra.external_services.nautilus_api_service.NautilusAPIService</title>
<!-- Node1 -->
<g id="Node000001" class="node">
<title>Node1</title>
<g id="a_Node000001"><a xlink:title=" ">
<polygon fill="#999999" stroke="#666666" points="455.25,-41.75 314,-41.75 314,0 455.25,0 455.25,-41.75"/>
<text text-anchor="start" x="322" y="-28.25" font-family="Helvetica,sans-Serif" font-size="10.00">src.infra.external</text>
<text text-anchor="start" x="322" y="-17" font-family="Helvetica,sans-Serif" font-size="10.00">_services.nautilus_api</text>
<text text-anchor="middle" x="384.62" y="-5.75" font-family="Helvetica,sans-Serif" font-size="10.00">_service.NautilusAPIService</text>
</a>
</g>
</g>
<!-- Node2 -->
<g id="Node000002" class="node">
<title>Node2</title>
<g id="a_Node000002"><a xlink:href="classsrc_1_1domain_1_1interfaces_1_1services_1_1nautilus__api__service__interface_1_1_i_nautilus_a_p_i_service.html" target="_top" xlink:title=" ">
<polygon fill="white" stroke="#666666" points="278,-36.12 73,-36.12 73,-5.62 278,-5.62 278,-36.12"/>
<text text-anchor="start" x="81" y="-22.62" font-family="Helvetica,sans-Serif" font-size="10.00">src.domain.interfaces.services.nautilus</text>
<text text-anchor="middle" x="175.5" y="-11.38" font-family="Helvetica,sans-Serif" font-size="10.00">_api_service_interface.INautilusAPIService</text>
</a>
</g>
</g>
<!-- Node2&#45;&gt;Node1 -->
<g id="edge1_Node000001_Node000002" class="edge">
<title>Node2&#45;&gt;Node1</title>
<g id="a_edge1_Node000001_Node000002"><a xlink:title=" ">
<path fill="none" stroke="#63b8ff" d="M289.17,-20.88C297.47,-20.88 305.69,-20.88 313.61,-20.88"/>
<polygon fill="#63b8ff" stroke="#63b8ff" points="289.24,-17.38 279.24,-20.88 289.24,-24.38 289.24,-17.38"/>
</a>
</g>
</g>
<!-- Node3 -->
<g id="Node000003" class="node">
<title>Node3</title>
<g id="a_Node000003"><a xlink:title=" ">
<polygon fill="white" stroke="#666666" points="37,-30.5 0,-30.5 0,-11.25 37,-11.25 37,-30.5"/>
<text text-anchor="middle" x="18.5" y="-17" font-family="Helvetica,sans-Serif" font-size="10.00">ABC</text>
</a>
</g>
</g>
<!-- Node3&#45;&gt;Node2 -->
<g id="edge2_Node000002_Node000003" class="edge">
<title>Node3&#45;&gt;Node2</title>
<g id="a_edge2_Node000002_Node000003"><a xlink:title=" ">
<path fill="none" stroke="#63b8ff" d="M48.03,-20.88C55.45,-20.88 63.89,-20.88 72.8,-20.88"/>
<polygon fill="#63b8ff" stroke="#63b8ff" points="48.28,-17.38 38.28,-20.88 48.28,-24.38 48.28,-17.38"/>
</a>
</g>
</g>
</g>
</svg>
