<?xml version="1.0" encoding="UTF-8" standalone="no"?>
<!DOCTYPE svg PUBLIC "-//W3C//DTD SVG 1.1//EN"
 "http://www.w3.org/Graphics/SVG/1.1/DTD/svg11.dtd">
<!-- Generated by graphviz version 9.0.0 (20230911.1827)
 -->
<!-- Title: Application.Ports.Campus.BaseCampusContract Pages: 1 -->
<svg width="324pt" height="186pt"
 viewBox="0.00 0.00 324.25 185.50" xmlns="http://www.w3.org/2000/svg" xmlns:xlink="http://www.w3.org/1999/xlink">
<g id="graph0" class="graph" transform="scale(1 1) rotate(0) translate(4 181.5)">
<title>Application.Ports.Campus.BaseCampusContract</title>
<!-- Node1 -->
<g id="Node000001" class="node">
<title>Node1</title>
<g id="a_Node000001"><a xlink:title=" ">
<polygon fill="#999999" stroke="#666666" points="133,-103.5 0,-103.5 0,-73 133,-73 133,-103.5"/>
<text text-anchor="start" x="8" y="-90" font-family="Helvetica,sans-Serif" font-size="10.00">Application.Ports.Campus.</text>
<text text-anchor="middle" x="66.5" y="-78.75" font-family="Helvetica,sans-Serif" font-size="10.00">BaseCampusContract</text>
</a>
</g>
</g>
<!-- Node2 -->
<g id="Node000002" class="node">
<title>Node2</title>
<g id="a_Node000002"><a xlink:href="class_application_1_1_ports_1_1_campus_1_1_create_campus_input.html" target="_top" xlink:title=" ">
<polygon fill="white" stroke="#666666" points="309.12,-177.5 176.12,-177.5 176.12,-147 309.12,-147 309.12,-177.5"/>
<text text-anchor="start" x="184.12" y="-164" font-family="Helvetica,sans-Serif" font-size="10.00">Application.Ports.Campus.</text>
<text text-anchor="middle" x="242.62" y="-152.75" font-family="Helvetica,sans-Serif" font-size="10.00">CreateCampusInput</text>
</a>
</g>
</g>
<!-- Node1&#45;&gt;Node2 -->
<g id="edge1_Node000001_Node000002" class="edge">
<title>Node1&#45;&gt;Node2</title>
<g id="a_edge1_Node000001_Node000002"><a xlink:title=" ">
<path fill="none" stroke="#63b8ff" d="M107.4,-108.86C125.9,-118.07 148.33,-128.74 169,-137.25 176.77,-140.45 185.11,-143.59 193.28,-146.5"/>
<polygon fill="#63b8ff" stroke="#63b8ff" points="109.14,-105.82 98.63,-104.46 106,-112.07 109.14,-105.82"/>
</a>
</g>
</g>
<!-- Node3 -->
<g id="Node000003" class="node">
<title>Node3</title>
<g id="a_Node000003"><a xlink:href="class_application_1_1_ports_1_1_campus_1_1_detailed_read_campus_output.html" target="_top" xlink:title=" ">
<polygon fill="white" stroke="#666666" points="313.25,-128.5 172,-128.5 172,-98 313.25,-98 313.25,-128.5"/>
<text text-anchor="start" x="180" y="-115" font-family="Helvetica,sans-Serif" font-size="10.00">Application.Ports.Campus.</text>
<text text-anchor="middle" x="242.62" y="-103.75" font-family="Helvetica,sans-Serif" font-size="10.00">DetailedReadCampusOutput</text>
</a>
</g>
</g>
<!-- Node1&#45;&gt;Node3 -->
<g id="edge2_Node000001_Node000003" class="edge">
<title>Node1&#45;&gt;Node3</title>
<g id="a_edge2_Node000001_Node000003"><a xlink:title=" ">
<path fill="none" stroke="#63b8ff" d="M144.62,-99.32C153.61,-100.61 162.75,-101.93 171.64,-103.2"/>
<polygon fill="#63b8ff" stroke="#63b8ff" points="145.22,-95.87 134.83,-97.92 144.23,-102.8 145.22,-95.87"/>
</a>
</g>
</g>
<!-- Node4 -->
<g id="Node000004" class="node">
<title>Node4</title>
<g id="a_Node000004"><a xlink:href="class_application_1_1_ports_1_1_campus_1_1_resumed_read_campus_output.html" target="_top" xlink:title=" ">
<polygon fill="white" stroke="#666666" points="316.25,-79.5 169,-79.5 169,-49 316.25,-49 316.25,-79.5"/>
<text text-anchor="start" x="177" y="-66" font-family="Helvetica,sans-Serif" font-size="10.00">Application.Ports.Campus.</text>
<text text-anchor="middle" x="242.62" y="-54.75" font-family="Helvetica,sans-Serif" font-size="10.00">ResumedReadCampusOutput</text>
</a>
</g>
</g>
<!-- Node1&#45;&gt;Node4 -->
<g id="edge3_Node000001_Node000004" class="edge">
<title>Node1&#45;&gt;Node4</title>
<g id="a_edge3_Node000001_Node000004"><a xlink:title=" ">
<path fill="none" stroke="#63b8ff" d="M144.57,-77.63C152.59,-76.52 160.73,-75.4 168.71,-74.3"/>
<polygon fill="#63b8ff" stroke="#63b8ff" points="144.26,-74.14 134.83,-78.97 145.21,-81.07 144.26,-74.14"/>
</a>
</g>
</g>
<!-- Node5 -->
<g id="Node000005" class="node">
<title>Node5</title>
<g id="a_Node000005"><a xlink:href="class_application_1_1_ports_1_1_campus_1_1_update_campus_input.html" target="_top" xlink:title=" ">
<polygon fill="white" stroke="#666666" points="309.12,-30.5 176.12,-30.5 176.12,0 309.12,0 309.12,-30.5"/>
<text text-anchor="start" x="184.12" y="-17" font-family="Helvetica,sans-Serif" font-size="10.00">Application.Ports.Campus.</text>
<text text-anchor="middle" x="242.62" y="-5.75" font-family="Helvetica,sans-Serif" font-size="10.00">UpdateCampusInput</text>
</a>
</g>
</g>
<!-- Node1&#45;&gt;Node5 -->
<g id="edge4_Node000001_Node000005" class="edge">
<title>Node1&#45;&gt;Node5</title>
<g id="a_edge4_Node000001_Node000005"><a xlink:title=" ">
<path fill="none" stroke="#63b8ff" d="M108.52,-67.59C126.82,-58.7 148.78,-48.48 169,-40.25 176.9,-37.03 185.4,-33.86 193.69,-30.91"/>
<polygon fill="#63b8ff" stroke="#63b8ff" points="107,-64.44 99.56,-71.98 110.08,-70.72 107,-64.44"/>
</a>
</g>
</g>
</g>
</svg>
