<?xml version="1.0" encoding="UTF-8" standalone="no"?>
<!DOCTYPE svg PUBLIC "-//W3C//DTD SVG 1.1//EN"
 "http://www.w3.org/Graphics/SVG/1.1/DTD/svg11.dtd">
<!-- Generated by graphviz version 9.0.0 (20230911.1827)
 -->
<!-- Title: Persistence.Repositories.NoticeRepository.DeleteAsync Pages: 1 -->
<svg width="351pt" height="137pt"
 viewBox="0.00 0.00 350.50 136.50" xmlns="http://www.w3.org/2000/svg" xmlns:xlink="http://www.w3.org/1999/xlink">
<g id="graph0" class="graph" transform="scale(1 1) rotate(0) translate(4 132.5)">
<title>Persistence.Repositories.NoticeRepository.DeleteAsync</title>
<!-- Node1 -->
<g id="Node000001" class="node">
<title>Node1</title>
<g id="a_Node000001"><a xlink:title=" ">
<polygon fill="#999999" stroke="#666666" points="149.5,-79.5 0,-79.5 0,-49 149.5,-49 149.5,-79.5"/>
<text text-anchor="start" x="8" y="-66" font-family="Helvetica,sans-Serif" font-size="10.00">Persistence.Repositories.</text>
<text text-anchor="middle" x="74.75" y="-54.75" font-family="Helvetica,sans-Serif" font-size="10.00">NoticeRepository.DeleteAsync</text>
</a>
</g>
</g>
<!-- Node2 -->
<g id="Node000002" class="node">
<title>Node2</title>
<g id="a_Node000002"><a xlink:href="class_domain_1_1_entities_1_1_primitives_1_1_entity.html#a3a368e3c302f8622ea0305003ef2a5eb" target="_top" xlink:title=" ">
<polygon fill="white" stroke="#666666" points="331.62,-128.5 196.38,-128.5 196.38,-98 331.62,-98 331.62,-128.5"/>
<text text-anchor="start" x="204.38" y="-115" font-family="Helvetica,sans-Serif" font-size="10.00">Domain.Entities.Primitives.</text>
<text text-anchor="middle" x="264" y="-103.75" font-family="Helvetica,sans-Serif" font-size="10.00">Entity.DeactivateEntity</text>
</a>
</g>
</g>
<!-- Node1&#45;&gt;Node2 -->
<g id="edge1_Node000001_Node000002" class="edge">
<title>Node1&#45;&gt;Node2</title>
<g id="a_edge1_Node000001_Node000002"><a xlink:title=" ">
<path fill="none" stroke="#63b8ff" d="M135.77,-79.96C153.66,-84.64 173.44,-89.81 191.96,-94.66"/>
<polygon fill="#63b8ff" stroke="#63b8ff" points="190.97,-98.02 201.53,-97.17 192.75,-91.25 190.97,-98.02"/>
</a>
</g>
</g>
<!-- Node3 -->
<g id="Node000003" class="node">
<title>Node3</title>
<g id="a_Node000003"><a xlink:href="class_persistence_1_1_repositories_1_1_notice_repository.html#a5919f09d17a61b804693c49f79e14c9e" target="_top" xlink:title=" ">
<polygon fill="white" stroke="#666666" points="342.5,-79.5 185.5,-79.5 185.5,-49 342.5,-49 342.5,-79.5"/>
<text text-anchor="start" x="193.5" y="-66" font-family="Helvetica,sans-Serif" font-size="10.00">Persistence.Repositories.</text>
<text text-anchor="middle" x="264" y="-54.75" font-family="Helvetica,sans-Serif" font-size="10.00">NoticeRepository.GetByIdAsync</text>
</a>
</g>
</g>
<!-- Node1&#45;&gt;Node3 -->
<g id="edge2_Node000001_Node000003" class="edge">
<title>Node1&#45;&gt;Node3</title>
<g id="a_edge2_Node000001_Node000003"><a xlink:title=" ">
<path fill="none" stroke="#63b8ff" d="M149.76,-64.25C157.68,-64.25 165.79,-64.25 173.87,-64.25"/>
<polygon fill="#63b8ff" stroke="#63b8ff" points="173.71,-67.75 183.71,-64.25 173.71,-60.75 173.71,-67.75"/>
</a>
</g>
</g>
<!-- Node4 -->
<g id="Node000004" class="node">
<title>Node4</title>
<g id="a_Node000004"><a xlink:href="class_persistence_1_1_repositories_1_1_notice_repository.html#acc304bf9a040db37b3c1bf97538b9052" target="_top" xlink:title=" ">
<polygon fill="white" stroke="#666666" points="340.25,-30.5 187.75,-30.5 187.75,0 340.25,0 340.25,-30.5"/>
<text text-anchor="start" x="195.75" y="-17" font-family="Helvetica,sans-Serif" font-size="10.00">Persistence.Repositories.</text>
<text text-anchor="middle" x="264" y="-5.75" font-family="Helvetica,sans-Serif" font-size="10.00">NoticeRepository.UpdateAsync</text>
</a>
</g>
</g>
<!-- Node1&#45;&gt;Node4 -->
<g id="edge3_Node000001_Node000004" class="edge">
<title>Node1&#45;&gt;Node4</title>
<g id="a_edge3_Node000001_Node000004"><a xlink:title=" ">
<path fill="none" stroke="#63b8ff" d="M135.77,-48.54C153.66,-43.86 173.44,-38.69 191.96,-33.84"/>
<polygon fill="#63b8ff" stroke="#63b8ff" points="192.75,-37.25 201.53,-31.33 190.97,-30.48 192.75,-37.25"/>
</a>
</g>
</g>
</g>
</svg>
