<?xml version="1.0" encoding="UTF-8" standalone="no"?>
<!DOCTYPE svg PUBLIC "-//W3C//DTD SVG 1.1//EN"
 "http://www.w3.org/Graphics/SVG/1.1/DTD/svg11.dtd">
<!-- Generated by graphviz version 9.0.0 (20230911.1827)
 -->
<!-- Title: Persistence.Repositories.AssistanceTypeRepository.DeleteAsync Pages: 1 -->
<svg width="429pt" height="147pt"
 viewBox="0.00 0.00 428.50 146.50" xmlns="http://www.w3.org/2000/svg" xmlns:xlink="http://www.w3.org/1999/xlink">
<g id="graph0" class="graph" transform="scale(1 1) rotate(0) translate(4 142.5)">
<title>Persistence.Repositories.AssistanceTypeRepository.DeleteAsync</title>
<!-- Node1 -->
<g id="Node000001" class="node">
<title>Node1</title>
<g id="a_Node000001"><a xlink:title=" ">
<polygon fill="#999999" stroke="#666666" points="190.75,-84.5 0,-84.5 0,-54 190.75,-54 190.75,-84.5"/>
<text text-anchor="start" x="8" y="-71" font-family="Helvetica,sans-Serif" font-size="10.00">Persistence.Repositories.</text>
<text text-anchor="middle" x="95.38" y="-59.75" font-family="Helvetica,sans-Serif" font-size="10.00">AssistanceTypeRepository.DeleteAsync</text>
</a>
</g>
</g>
<!-- Node2 -->
<g id="Node000002" class="node">
<title>Node2</title>
<g id="a_Node000002"><a xlink:href="class_domain_1_1_entities_1_1_primitives_1_1_entity.html#a3a368e3c302f8622ea0305003ef2a5eb" target="_top" xlink:title=" ">
<polygon fill="white" stroke="#666666" points="391.25,-138.5 256,-138.5 256,-108 391.25,-108 391.25,-138.5"/>
<text text-anchor="start" x="264" y="-125" font-family="Helvetica,sans-Serif" font-size="10.00">Domain.Entities.Primitives.</text>
<text text-anchor="middle" x="323.62" y="-113.75" font-family="Helvetica,sans-Serif" font-size="10.00">Entity.DeactivateEntity</text>
</a>
</g>
</g>
<!-- Node1&#45;&gt;Node2 -->
<g id="edge1_Node000001_Node000002" class="edge">
<title>Node1&#45;&gt;Node2</title>
<g id="a_edge1_Node000001_Node000002"><a xlink:title=" ">
<path fill="none" stroke="#63b8ff" d="M162.12,-84.94C188.26,-91.18 218.53,-98.41 245.69,-104.89"/>
<polygon fill="#63b8ff" stroke="#63b8ff" points="244.7,-108.25 255.24,-107.17 246.33,-101.44 244.7,-108.25"/>
</a>
</g>
</g>
<!-- Node3 -->
<g id="Node000003" class="node">
<title>Node3</title>
<g id="a_Node000003"><a xlink:href="class_persistence_1_1_repositories_1_1_assistance_type_repository.html#ae4482b8cded9ae79dd6a860326ad9943" target="_top" xlink:title=" ">
<polygon fill="white" stroke="#666666" points="404.75,-90.12 242.5,-90.12 242.5,-48.38 404.75,-48.38 404.75,-90.12"/>
<text text-anchor="start" x="250.5" y="-76.62" font-family="Helvetica,sans-Serif" font-size="10.00">Persistence.Repositories.</text>
<text text-anchor="start" x="250.5" y="-65.38" font-family="Helvetica,sans-Serif" font-size="10.00">AssistanceTypeRepository.GetBy</text>
<text text-anchor="middle" x="323.62" y="-54.12" font-family="Helvetica,sans-Serif" font-size="10.00">IdAsync</text>
</a>
</g>
</g>
<!-- Node1&#45;&gt;Node3 -->
<g id="edge2_Node000001_Node000003" class="edge">
<title>Node1&#45;&gt;Node3</title>
<g id="a_edge2_Node000001_Node000003"><a xlink:title=" ">
<path fill="none" stroke="#63b8ff" d="M191.01,-69.25C204.13,-69.25 217.58,-69.25 230.64,-69.25"/>
<polygon fill="#63b8ff" stroke="#63b8ff" points="230.49,-72.75 240.49,-69.25 230.49,-65.75 230.49,-72.75"/>
</a>
</g>
</g>
<!-- Node4 -->
<g id="Node000004" class="node">
<title>Node4</title>
<g id="a_Node000004"><a xlink:href="class_persistence_1_1_repositories_1_1_assistance_type_repository.html#ac0600775a6dbb4f9ce625ba9be6d6c17" target="_top" xlink:title=" ">
<polygon fill="white" stroke="#666666" points="420.5,-30.5 226.75,-30.5 226.75,0 420.5,0 420.5,-30.5"/>
<text text-anchor="start" x="234.75" y="-17" font-family="Helvetica,sans-Serif" font-size="10.00">Persistence.Repositories.</text>
<text text-anchor="middle" x="323.62" y="-5.75" font-family="Helvetica,sans-Serif" font-size="10.00">AssistanceTypeRepository.UpdateAsync</text>
</a>
</g>
</g>
<!-- Node1&#45;&gt;Node4 -->
<g id="edge3_Node000001_Node000004" class="edge">
<title>Node1&#45;&gt;Node4</title>
<g id="a_edge3_Node000001_Node000004"><a xlink:title=" ">
<path fill="none" stroke="#63b8ff" d="M162.12,-53.56C188.26,-47.32 218.53,-40.09 245.69,-33.61"/>
<polygon fill="#63b8ff" stroke="#63b8ff" points="246.33,-37.06 255.24,-31.33 244.7,-30.25 246.33,-37.06"/>
</a>
</g>
</g>
</g>
</svg>
