<?xml version="1.0" encoding="UTF-8" standalone="no"?>
<!DOCTYPE svg PUBLIC "-//W3C//DTD SVG 1.1//EN"
 "http://www.w3.org/Graphics/SVG/1.1/DTD/svg11.dtd">
<!-- Generated by graphviz version 9.0.0 (20230911.1827)
 -->
<!-- Title: Application.UseCases.Area.GetAreasByMainArea.ExecuteAsync Pages: 1 -->
<svg width="596pt" height="39pt"
 viewBox="0.00 0.00 596.00 38.50" xmlns="http://www.w3.org/2000/svg" xmlns:xlink="http://www.w3.org/1999/xlink">
<g id="graph0" class="graph" transform="scale(1 1) rotate(0) translate(4 34.5)">
<title>Application.UseCases.Area.GetAreasByMainArea.ExecuteAsync</title>
<!-- Node1 -->
<g id="Node000001" class="node">
<title>Node1</title>
<g id="a_Node000001"><a xlink:title=" ">
<polygon fill="#999999" stroke="#666666" points="177.25,-30.5 0,-30.5 0,0 177.25,0 177.25,-30.5"/>
<text text-anchor="start" x="8" y="-17" font-family="Helvetica,sans-Serif" font-size="10.00">Application.UseCases.Area.</text>
<text text-anchor="middle" x="88.62" y="-5.75" font-family="Helvetica,sans-Serif" font-size="10.00">GetAreasByMainArea.ExecuteAsync</text>
</a>
</g>
</g>
<!-- Node2 -->
<g id="Node000002" class="node">
<title>Node2</title>
<g id="a_Node000002"><a xlink:href="class_application_1_1_validation_1_1_use_case_exception.html#a640987a86719d6afd8278fdbf578ab57" target="_top" xlink:title=" ">
<polygon fill="white" stroke="#666666" points="381.5,-30.5 213.25,-30.5 213.25,0 381.5,0 381.5,-30.5"/>
<text text-anchor="start" x="221.25" y="-17" font-family="Helvetica,sans-Serif" font-size="10.00">Application.Validation.Use</text>
<text text-anchor="middle" x="297.38" y="-5.75" font-family="Helvetica,sans-Serif" font-size="10.00">CaseException.NotInformedParam</text>
</a>
</g>
</g>
<!-- Node1&#45;&gt;Node2 -->
<g id="edge1_Node000001_Node000002" class="edge">
<title>Node1&#45;&gt;Node2</title>
<g id="a_edge1_Node000001_Node000002"><a xlink:title=" ">
<path fill="none" stroke="#63b8ff" d="M177.61,-15.25C185.6,-15.25 193.72,-15.25 201.76,-15.25"/>
<polygon fill="#63b8ff" stroke="#63b8ff" points="201.56,-18.75 211.56,-15.25 201.56,-11.75 201.56,-18.75"/>
</a>
</g>
</g>
<!-- Node3 -->
<g id="Node000003" class="node">
<title>Node3</title>
<g id="a_Node000003"><a xlink:href="class_application_1_1_validation_1_1_use_case_exception.html#ad2defa29da6c9eee2864794300f152ae" target="_top" xlink:title=" ">
<polygon fill="white" stroke="#666666" points="588,-30.5 417.5,-30.5 417.5,0 588,0 588,-30.5"/>
<text text-anchor="start" x="425.5" y="-17" font-family="Helvetica,sans-Serif" font-size="10.00">Application.Validation.Use</text>
<text text-anchor="middle" x="502.75" y="-5.75" font-family="Helvetica,sans-Serif" font-size="10.00">CaseException.UseCaseException</text>
</a>
</g>
</g>
<!-- Node2&#45;&gt;Node3 -->
<g id="edge2_Node000002_Node000003" class="edge">
<title>Node2&#45;&gt;Node3</title>
<g id="a_edge2_Node000002_Node000003"><a xlink:title=" ">
<path fill="none" stroke="#63b8ff" d="M381.98,-15.25C389.87,-15.25 397.91,-15.25 405.91,-15.25"/>
<polygon fill="#63b8ff" stroke="#63b8ff" points="405.64,-18.75 415.64,-15.25 405.64,-11.75 405.64,-18.75"/>
</a>
</g>
</g>
</g>
</svg>
