<?xml version="1.0" encoding="UTF-8" standalone="no"?>
<!DOCTYPE svg PUBLIC "-//W3C//DTD SVG 1.1//EN"
 "http://www.w3.org/Graphics/SVG/1.1/DTD/svg11.dtd">
<!-- Generated by graphviz version 9.0.0 (20230911.1827)
 -->
<!-- Title: Persistence.Repositories.ActivityTypeRepository.DeleteAsync Pages: 1 -->
<svg width="402pt" height="137pt"
 viewBox="0.00 0.00 401.50 136.50" xmlns="http://www.w3.org/2000/svg" xmlns:xlink="http://www.w3.org/1999/xlink">
<g id="graph0" class="graph" transform="scale(1 1) rotate(0) translate(4 132.5)">
<title>Persistence.Repositories.ActivityTypeRepository.DeleteAsync</title>
<!-- Node1 -->
<g id="Node000001" class="node">
<title>Node1</title>
<g id="a_Node000001"><a xlink:title=" ">
<polygon fill="#999999" stroke="#666666" points="175,-79.5 0,-79.5 0,-49 175,-49 175,-79.5"/>
<text text-anchor="start" x="8" y="-66" font-family="Helvetica,sans-Serif" font-size="10.00">Persistence.Repositories.</text>
<text text-anchor="middle" x="87.5" y="-54.75" font-family="Helvetica,sans-Serif" font-size="10.00">ActivityTypeRepository.DeleteAsync</text>
</a>
</g>
</g>
<!-- Node2 -->
<g id="Node000002" class="node">
<title>Node2</title>
<g id="a_Node000002"><a xlink:href="class_domain_1_1_entities_1_1_primitives_1_1_entity.html#a3a368e3c302f8622ea0305003ef2a5eb" target="_top" xlink:title=" ">
<polygon fill="white" stroke="#666666" points="369.88,-128.5 234.62,-128.5 234.62,-98 369.88,-98 369.88,-128.5"/>
<text text-anchor="start" x="242.62" y="-115" font-family="Helvetica,sans-Serif" font-size="10.00">Domain.Entities.Primitives.</text>
<text text-anchor="middle" x="302.25" y="-103.75" font-family="Helvetica,sans-Serif" font-size="10.00">Entity.DeactivateEntity</text>
</a>
</g>
</g>
<!-- Node1&#45;&gt;Node2 -->
<g id="edge1_Node000001_Node000002" class="edge">
<title>Node1&#45;&gt;Node2</title>
<g id="a_edge1_Node000001_Node000002"><a xlink:title=" ">
<path fill="none" stroke="#63b8ff" d="M156.69,-79.96C177.81,-84.82 201.23,-90.21 222.98,-95.22"/>
<polygon fill="#63b8ff" stroke="#63b8ff" points="222.16,-98.63 232.69,-97.46 223.74,-91.81 222.16,-98.63"/>
</a>
</g>
</g>
<!-- Node3 -->
<g id="Node000003" class="node">
<title>Node3</title>
<g id="a_Node000003"><a xlink:href="class_persistence_1_1_repositories_1_1_activity_type_repository.html#a45c4d34fb16c7c7afea773d2c1f905f4" target="_top" xlink:title=" ">
<polygon fill="white" stroke="#666666" points="393.5,-79.5 211,-79.5 211,-49 393.5,-49 393.5,-79.5"/>
<text text-anchor="start" x="219" y="-66" font-family="Helvetica,sans-Serif" font-size="10.00">Persistence.Repositories.</text>
<text text-anchor="middle" x="302.25" y="-54.75" font-family="Helvetica,sans-Serif" font-size="10.00">ActivityTypeRepository.GetByIdAsync</text>
</a>
</g>
</g>
<!-- Node1&#45;&gt;Node3 -->
<g id="edge2_Node000001_Node000003" class="edge">
<title>Node1&#45;&gt;Node3</title>
<g id="a_edge2_Node000001_Node000003"><a xlink:title=" ">
<path fill="none" stroke="#63b8ff" d="M175.34,-64.25C183.23,-64.25 191.26,-64.25 199.27,-64.25"/>
<polygon fill="#63b8ff" stroke="#63b8ff" points="199.03,-67.75 209.03,-64.25 199.03,-60.75 199.03,-67.75"/>
</a>
</g>
</g>
<!-- Node4 -->
<g id="Node000004" class="node">
<title>Node4</title>
<g id="a_Node000004"><a xlink:href="class_persistence_1_1_repositories_1_1_activity_type_repository.html#a5236546e8370501e08b9c24323bd14b0" target="_top" xlink:title=" ">
<polygon fill="white" stroke="#666666" points="391.25,-30.5 213.25,-30.5 213.25,0 391.25,0 391.25,-30.5"/>
<text text-anchor="start" x="221.25" y="-17" font-family="Helvetica,sans-Serif" font-size="10.00">Persistence.Repositories.</text>
<text text-anchor="middle" x="302.25" y="-5.75" font-family="Helvetica,sans-Serif" font-size="10.00">ActivityTypeRepository.UpdateAsync</text>
</a>
</g>
</g>
<!-- Node1&#45;&gt;Node4 -->
<g id="edge3_Node000001_Node000004" class="edge">
<title>Node1&#45;&gt;Node4</title>
<g id="a_edge3_Node000001_Node000004"><a xlink:title=" ">
<path fill="none" stroke="#63b8ff" d="M156.69,-48.54C177.5,-43.75 200.55,-38.44 222.02,-33.5"/>
<polygon fill="#63b8ff" stroke="#63b8ff" points="222.64,-36.95 231.6,-31.29 221.07,-30.12 222.64,-36.95"/>
</a>
</g>
</g>
</g>
</svg>
