<?xml version="1.0" encoding="UTF-8" standalone="no"?>
<!DOCTYPE svg PUBLIC "-//W3C//DTD SVG 1.1//EN"
 "http://www.w3.org/Graphics/SVG/1.1/DTD/svg11.dtd">
<!-- Generated by graphviz version 9.0.0 (20230911.1827)
 -->
<!-- Title: Persistence.Repositories.ProjectFinalReportRepository Pages: 1 -->
<svg width="155pt" height="160pt"
 viewBox="0.00 0.00 155.25 160.25" xmlns="http://www.w3.org/2000/svg" xmlns:xlink="http://www.w3.org/1999/xlink">
<g id="graph0" class="graph" transform="scale(1 1) rotate(0) translate(4 156.25)">
<title>Persistence.Repositories.ProjectFinalReportRepository</title>
<!-- Node1 -->
<g id="Node000001" class="node">
<title>Node1</title>
<g id="a_Node000001"><a xlink:title=" ">
<polygon fill="#999999" stroke="#666666" points="145.75,-30.5 1.5,-30.5 1.5,0 145.75,0 145.75,-30.5"/>
<text text-anchor="start" x="9.5" y="-17" font-family="Helvetica,sans-Serif" font-size="10.00">Persistence.Repositories.</text>
<text text-anchor="middle" x="73.62" y="-5.75" font-family="Helvetica,sans-Serif" font-size="10.00">ProjectFinalReportRepository</text>
</a>
</g>
</g>
<!-- Node2 -->
<g id="Node000002" class="node">
<title>Node2</title>
<g id="a_Node000002"><a xlink:href="interface_domain_1_1_interfaces_1_1_repositories_1_1_i_project_final_report_repository.html" target="_top" xlink:title=" ">
<polygon fill="white" stroke="#666666" points="147.25,-85.75 0,-85.75 0,-66.5 147.25,-66.5 147.25,-85.75"/>
<text text-anchor="middle" x="73.62" y="-72.25" font-family="Helvetica,sans-Serif" font-size="10.00">IProjectFinalReportRepository</text>
</a>
</g>
</g>
<!-- Node2&#45;&gt;Node1 -->
<g id="edge1_Node000001_Node000002" class="edge">
<title>Node2&#45;&gt;Node1</title>
<g id="a_edge1_Node000001_Node000002"><a xlink:title=" ">
<path fill="none" stroke="#63b8ff" d="M73.62,-54.92C73.62,-46.99 73.62,-38.06 73.62,-30.78"/>
<polygon fill="#63b8ff" stroke="#63b8ff" points="70.13,-54.67 73.63,-64.67 77.13,-54.67 70.13,-54.67"/>
</a>
</g>
</g>
<!-- Node3 -->
<g id="Node000003" class="node">
<title>Node3</title>
<g id="a_Node000003"><a xlink:href="interface_domain_1_1_interfaces_1_1_repositories_1_1_bases_1_1_i_generic_c_r_u_d_repository.html" target="_top" xlink:title=" ">
<polygon fill="white" stroke="#666666" points="138.62,-152.25 8.62,-152.25 8.62,-121.75 138.62,-121.75 138.62,-152.25"/>
<text text-anchor="start" x="16.62" y="-138.75" font-family="Helvetica,sans-Serif" font-size="10.00">IGenericCRUDRepository</text>
<text text-anchor="middle" x="73.62" y="-127.5" font-family="Helvetica,sans-Serif" font-size="10.00">&lt; ProjectFinalReport &gt;</text>
</a>
</g>
</g>
<!-- Node3&#45;&gt;Node2 -->
<g id="edge2_Node000002_Node000003" class="edge">
<title>Node3&#45;&gt;Node2</title>
<g id="a_edge2_Node000002_Node000003"><a xlink:title=" ">
<path fill="none" stroke="#63b8ff" d="M73.62,-109.98C73.62,-101.48 73.62,-92.59 73.62,-86.2"/>
<polygon fill="#63b8ff" stroke="#63b8ff" points="70.13,-109.93 73.63,-119.93 77.13,-109.93 70.13,-109.93"/>
</a>
</g>
</g>
</g>
</svg>
