<?xml version="1.0" encoding="UTF-8" standalone="no"?>
<!DOCTYPE svg PUBLIC "-//W3C//DTD SVG 1.1//EN"
 "http://www.w3.org/Graphics/SVG/1.1/DTD/svg11.dtd">
<!-- Generated by graphviz version 9.0.0 (20230911.1827)
 -->
<!-- Title: Domain.Entities.Primitives.Entity Pages: 1 -->
<svg width="352pt" height="717pt"
 viewBox="0.00 0.00 352.00 717.25" xmlns="http://www.w3.org/2000/svg" xmlns:xlink="http://www.w3.org/1999/xlink">
<g id="graph0" class="graph" transform="scale(1 1) rotate(0) translate(4 713.25)">
<title>Domain.Entities.Primitives.Entity</title>
<!-- Node1 -->
<g id="Node000001" class="node">
<title>Node1</title>
<g id="a_Node000001"><a xlink:title=" ">
<polygon fill="#999999" stroke="#666666" points="135.25,-381.88 0,-381.88 0,-351.38 135.25,-351.38 135.25,-381.88"/>
<text text-anchor="start" x="8" y="-368.38" font-family="Helvetica,sans-Serif" font-size="10.00">Domain.Entities.Primitives.</text>
<text text-anchor="middle" x="67.62" y="-357.12" font-family="Helvetica,sans-Serif" font-size="10.00">Entity</text>
</a>
</g>
</g>
<!-- Node2 -->
<g id="Node000002" class="node">
<title>Node2</title>
<g id="a_Node000002"><a xlink:href="class_domain_1_1_entities_1_1_activity.html" target="_top" xlink:title=" ">
<polygon fill="white" stroke="#666666" points="318.5,-709.25 196.75,-709.25 196.75,-690 318.5,-690 318.5,-709.25"/>
<text text-anchor="middle" x="257.62" y="-695.75" font-family="Helvetica,sans-Serif" font-size="10.00">Domain.Entities.Activity</text>
</a>
</g>
</g>
<!-- Node1&#45;&gt;Node2 -->
<g id="edge1_Node000001_Node000002" class="edge">
<title>Node1&#45;&gt;Node2</title>
<g id="a_edge1_Node000001_Node000002"><a xlink:title=" ">
<path fill="none" stroke="#63b8ff" d="M68.9,-393.6C71.07,-454.73 85.38,-604.5 171.25,-681.62 178.35,-688 187.13,-692.33 196.32,-695.23"/>
<polygon fill="#63b8ff" stroke="#63b8ff" points="72.4,-393.69 68.64,-383.79 65.41,-393.88 72.4,-393.69"/>
</a>
</g>
</g>
<!-- Node3 -->
<g id="Node000003" class="node">
<title>Node3</title>
<g id="a_Node000003"><a xlink:href="class_domain_1_1_entities_1_1_activity_type.html" target="_top" xlink:title=" ">
<polygon fill="white" stroke="#666666" points="329,-672.25 186.25,-672.25 186.25,-653 329,-653 329,-672.25"/>
<text text-anchor="middle" x="257.62" y="-658.75" font-family="Helvetica,sans-Serif" font-size="10.00">Domain.Entities.ActivityType</text>
</a>
</g>
</g>
<!-- Node1&#45;&gt;Node3 -->
<g id="edge2_Node000001_Node000003" class="edge">
<title>Node1&#45;&gt;Node3</title>
<g id="a_edge2_Node000001_Node000003"><a xlink:title=" ">
<path fill="none" stroke="#63b8ff" d="M70.24,-393.48C75.11,-449.34 94.52,-578.34 171.25,-644.62 175.61,-648.39 180.55,-651.43 185.81,-653.88"/>
<polygon fill="#63b8ff" stroke="#63b8ff" points="73.74,-393.33 69.48,-383.63 66.76,-393.87 73.74,-393.33"/>
</a>
</g>
</g>
<!-- Node4 -->
<g id="Node000004" class="node">
<title>Node4</title>
<g id="a_Node000004"><a xlink:href="class_domain_1_1_entities_1_1_area.html" target="_top" xlink:title="Área de conhecimento.">
<polygon fill="white" stroke="#666666" points="312.12,-635.25 203.12,-635.25 203.12,-616 312.12,-616 312.12,-635.25"/>
<text text-anchor="middle" x="257.62" y="-621.75" font-family="Helvetica,sans-Serif" font-size="10.00">Domain.Entities.Area</text>
</a>
</g>
</g>
<!-- Node1&#45;&gt;Node4 -->
<g id="edge3_Node000001_Node000004" class="edge">
<title>Node1&#45;&gt;Node4</title>
<g id="a_edge3_Node000001_Node000004"><a xlink:title=" ">
<path fill="none" stroke="#63b8ff" d="M71.94,-393.4C79.64,-443.65 103.58,-552 171.25,-607.62 180.26,-615.03 191.57,-619.61 202.99,-622.39"/>
<polygon fill="#63b8ff" stroke="#63b8ff" points="75.43,-393.12 70.56,-383.72 68.5,-394.11 75.43,-393.12"/>
</a>
</g>
</g>
<!-- Node5 -->
<g id="Node000005" class="node">
<title>Node5</title>
<g id="a_Node000005"><a xlink:href="class_domain_1_1_entities_1_1_assistance_type.html" target="_top" xlink:title="Tipo de Bolsa de Assistência Estudantil.">
<polygon fill="white" stroke="#666666" points="336.88,-598.25 178.38,-598.25 178.38,-579 336.88,-579 336.88,-598.25"/>
<text text-anchor="middle" x="257.62" y="-584.75" font-family="Helvetica,sans-Serif" font-size="10.00">Domain.Entities.AssistanceType</text>
</a>
</g>
</g>
<!-- Node1&#45;&gt;Node5 -->
<g id="edge4_Node000001_Node000005" class="edge">
<title>Node1&#45;&gt;Node5</title>
<g id="a_edge4_Node000001_Node000005"><a xlink:title=" ">
<path fill="none" stroke="#63b8ff" d="M74.19,-393.33C84.87,-437.51 112.55,-525.42 171.25,-570.62 175.33,-573.77 179.83,-576.39 184.57,-578.58"/>
<polygon fill="#63b8ff" stroke="#63b8ff" points="77.66,-392.79 72.01,-383.82 70.84,-394.35 77.66,-392.79"/>
</a>
</g>
</g>
<!-- Node6 -->
<g id="Node000006" class="node">
<title>Node6</title>
<g id="a_Node000006"><a xlink:href="class_domain_1_1_entities_1_1_campus.html" target="_top" xlink:title="Unidade de ensino.">
<polygon fill="white" stroke="#666666" points="320.38,-561.25 194.88,-561.25 194.88,-542 320.38,-542 320.38,-561.25"/>
<text text-anchor="middle" x="257.62" y="-547.75" font-family="Helvetica,sans-Serif" font-size="10.00">Domain.Entities.Campus</text>
</a>
</g>
</g>
<!-- Node1&#45;&gt;Node6 -->
<g id="edge5_Node000001_Node000006" class="edge">
<title>Node1&#45;&gt;Node6</title>
<g id="a_edge5_Node000001_Node000006"><a xlink:title=" ">
<path fill="none" stroke="#63b8ff" d="M77.17,-392.78C90.82,-430.2 121.21,-498.37 171.25,-533.62 178.18,-538.51 186.17,-542.12 194.42,-544.78"/>
<polygon fill="#63b8ff" stroke="#63b8ff" points="80.59,-391.93 73.97,-383.66 73.98,-394.25 80.59,-391.93"/>
</a>
</g>
</g>
<!-- Node7 -->
<g id="Node000007" class="node">
<title>Node7</title>
<g id="a_Node000007"><a xlink:href="class_domain_1_1_entities_1_1_course.html" target="_top" xlink:title="Curso Acadêmico.">
<polygon fill="white" stroke="#666666" points="317.75,-524.25 197.5,-524.25 197.5,-505 317.75,-505 317.75,-524.25"/>
<text text-anchor="middle" x="257.62" y="-510.75" font-family="Helvetica,sans-Serif" font-size="10.00">Domain.Entities.Course</text>
</a>
</g>
</g>
<!-- Node1&#45;&gt;Node7 -->
<g id="edge6_Node000001_Node000007" class="edge">
<title>Node1&#45;&gt;Node7</title>
<g id="a_edge6_Node000001_Node000007"><a xlink:title=" ">
<path fill="none" stroke="#63b8ff" d="M81.75,-392.47C98.37,-422.44 129.9,-470.98 171.25,-496.62 179.1,-501.5 188.06,-505.07 197.15,-507.68"/>
<polygon fill="#63b8ff" stroke="#63b8ff" points="84.85,-390.83 77.03,-383.68 78.68,-394.15 84.85,-390.83"/>
</a>
</g>
</g>
<!-- Node8 -->
<g id="Node000008" class="node">
<title>Node8</title>
<g id="a_Node000008"><a xlink:href="class_domain_1_1_entities_1_1_main_area.html" target="_top" xlink:title="Grande área de conhecimento.">
<polygon fill="white" stroke="#666666" points="322.62,-487.25 192.62,-487.25 192.62,-468 322.62,-468 322.62,-487.25"/>
<text text-anchor="middle" x="257.62" y="-473.75" font-family="Helvetica,sans-Serif" font-size="10.00">Domain.Entities.MainArea</text>
</a>
</g>
</g>
<!-- Node1&#45;&gt;Node8 -->
<g id="edge7_Node000001_Node000008" class="edge">
<title>Node1&#45;&gt;Node8</title>
<g id="a_edge7_Node000001_Node000008"><a xlink:title=" ">
<path fill="none" stroke="#63b8ff" d="M88.49,-390.77C107.49,-412.21 138.08,-442.69 171.25,-459.62 177.86,-463 185.07,-465.74 192.4,-467.97"/>
<polygon fill="#63b8ff" stroke="#63b8ff" points="91.26,-388.62 82.07,-383.35 85.96,-393.2 91.26,-388.62"/>
</a>
</g>
</g>
<!-- Node9 -->
<g id="Node000009" class="node">
<title>Node9</title>
<g id="a_Node000009"><a xlink:href="class_domain_1_1_entities_1_1_notice.html" target="_top" xlink:title="Edital de seleção de bolsistas.">
<polygon fill="white" stroke="#666666" points="316.25,-450.25 199,-450.25 199,-431 316.25,-431 316.25,-450.25"/>
<text text-anchor="middle" x="257.62" y="-436.75" font-family="Helvetica,sans-Serif" font-size="10.00">Domain.Entities.Notice</text>
</a>
</g>
</g>
<!-- Node1&#45;&gt;Node9 -->
<g id="edge8_Node000001_Node000009" class="edge">
<title>Node1&#45;&gt;Node9</title>
<g id="a_edge8_Node000001_Node000009"><a xlink:title=" ">
<path fill="none" stroke="#63b8ff" d="M102.17,-388.18C121.67,-399.87 147.09,-413.71 171.25,-422.62 179.92,-425.83 189.3,-428.52 198.57,-430.77"/>
<polygon fill="#63b8ff" stroke="#63b8ff" points="104.2,-385.32 93.85,-383.1 100.55,-391.3 104.2,-385.32"/>
</a>
</g>
</g>
<!-- Node10 -->
<g id="Node000010" class="node">
<title>Node10</title>
<g id="a_Node000010"><a xlink:href="class_domain_1_1_entities_1_1_professor.html" target="_top" xlink:title="Professor.">
<polygon fill="white" stroke="#666666" points="323,-413.25 192.25,-413.25 192.25,-394 323,-394 323,-413.25"/>
<text text-anchor="middle" x="257.62" y="-399.75" font-family="Helvetica,sans-Serif" font-size="10.00">Domain.Entities.Professor</text>
</a>
</g>
</g>
<!-- Node1&#45;&gt;Node10 -->
<g id="edge9_Node000001_Node000010" class="edge">
<title>Node1&#45;&gt;Node10</title>
<g id="a_edge9_Node000001_Node000010"><a xlink:title=" ">
<path fill="none" stroke="#63b8ff" d="M146.85,-382.02C166.56,-385.9 187.23,-389.97 205.24,-393.51"/>
<polygon fill="#63b8ff" stroke="#63b8ff" points="147.67,-378.62 137.19,-380.12 146.32,-385.48 147.67,-378.62"/>
</a>
</g>
</g>
<!-- Node11 -->
<g id="Node000011" class="node">
<title>Node11</title>
<g id="a_Node000011"><a xlink:href="class_domain_1_1_entities_1_1_program_type.html" target="_top" xlink:title="Tipo de Programa.">
<polygon fill="white" stroke="#666666" points="330.88,-376.25 184.38,-376.25 184.38,-357 330.88,-357 330.88,-376.25"/>
<text text-anchor="middle" x="257.62" y="-362.75" font-family="Helvetica,sans-Serif" font-size="10.00">Domain.Entities.ProgramType</text>
</a>
</g>
</g>
<!-- Node1&#45;&gt;Node11 -->
<g id="edge10_Node000001_Node000011" class="edge">
<title>Node1&#45;&gt;Node11</title>
<g id="a_edge10_Node000001_Node000011"><a xlink:title=" ">
<path fill="none" stroke="#63b8ff" d="M146.9,-366.62C159.24,-366.62 171.96,-366.62 184.16,-366.62"/>
<polygon fill="#63b8ff" stroke="#63b8ff" points="147.21,-363.13 137.21,-366.63 147.21,-370.13 147.21,-363.13"/>
</a>
</g>
</g>
<!-- Node12 -->
<g id="Node000012" class="node">
<title>Node12</title>
<g id="a_Node000012"><a xlink:href="class_domain_1_1_entities_1_1_project.html" target="_top" xlink:title="Projeto de Iniciação Científica.">
<polygon fill="white" stroke="#666666" points="317.38,-339.25 197.88,-339.25 197.88,-320 317.38,-320 317.38,-339.25"/>
<text text-anchor="middle" x="257.62" y="-325.75" font-family="Helvetica,sans-Serif" font-size="10.00">Domain.Entities.Project</text>
</a>
</g>
</g>
<!-- Node1&#45;&gt;Node12 -->
<g id="edge11_Node000001_Node000012" class="edge">
<title>Node1&#45;&gt;Node12</title>
<g id="a_edge11_Node000001_Node000012"><a xlink:title=" ">
<path fill="none" stroke="#63b8ff" d="M146.85,-351.23C166.56,-347.35 187.23,-343.28 205.24,-339.74"/>
<polygon fill="#63b8ff" stroke="#63b8ff" points="146.32,-347.77 137.19,-353.13 147.67,-354.63 146.32,-347.77"/>
</a>
</g>
</g>
<!-- Node13 -->
<g id="Node000013" class="node">
<title>Node13</title>
<g id="a_Node000013"><a xlink:href="class_domain_1_1_entities_1_1_project_activity.html" target="_top" xlink:title=" ">
<polygon fill="white" stroke="#666666" points="333.88,-302.25 181.38,-302.25 181.38,-283 333.88,-283 333.88,-302.25"/>
<text text-anchor="middle" x="257.62" y="-288.75" font-family="Helvetica,sans-Serif" font-size="10.00">Domain.Entities.ProjectActivity</text>
</a>
</g>
</g>
<!-- Node1&#45;&gt;Node13 -->
<g id="edge12_Node000001_Node000013" class="edge">
<title>Node1&#45;&gt;Node13</title>
<g id="a_edge12_Node000001_Node000013"><a xlink:title=" ">
<path fill="none" stroke="#63b8ff" d="M102.17,-345.07C121.67,-333.38 147.09,-319.54 171.25,-310.62 179.63,-307.53 188.69,-304.91 197.66,-302.7"/>
<polygon fill="#63b8ff" stroke="#63b8ff" points="100.55,-341.95 93.85,-350.15 104.2,-347.93 100.55,-341.95"/>
</a>
</g>
</g>
<!-- Node14 -->
<g id="Node000014" class="node">
<title>Node14</title>
<g id="a_Node000014"><a xlink:href="class_domain_1_1_entities_1_1_project_evaluation.html" target="_top" xlink:title=" ">
<polygon fill="white" stroke="#666666" points="340.25,-265.25 175,-265.25 175,-246 340.25,-246 340.25,-265.25"/>
<text text-anchor="middle" x="257.62" y="-251.75" font-family="Helvetica,sans-Serif" font-size="10.00">Domain.Entities.ProjectEvaluation</text>
</a>
</g>
</g>
<!-- Node1&#45;&gt;Node14 -->
<g id="edge13_Node000001_Node000014" class="edge">
<title>Node1&#45;&gt;Node14</title>
<g id="a_edge13_Node000001_Node000014"><a xlink:title=" ">
<path fill="none" stroke="#63b8ff" d="M88.49,-342.48C107.49,-321.04 138.08,-290.56 171.25,-273.62 177.46,-270.46 184.19,-267.85 191.06,-265.69"/>
<polygon fill="#63b8ff" stroke="#63b8ff" points="85.96,-340.05 82.07,-349.9 91.26,-344.63 85.96,-340.05"/>
</a>
</g>
</g>
<!-- Node15 -->
<g id="Node000015" class="node">
<title>Node15</title>
<g id="a_Node000015"><a xlink:href="class_domain_1_1_entities_1_1_project_final_report.html" target="_top" xlink:title=" ">
<polygon fill="white" stroke="#666666" points="327.88,-227.88 187.38,-227.88 187.38,-197.38 327.88,-197.38 327.88,-227.88"/>
<text text-anchor="start" x="195.38" y="-214.38" font-family="Helvetica,sans-Serif" font-size="10.00">Domain.Entities.ProjectFinal</text>
<text text-anchor="middle" x="257.62" y="-203.12" font-family="Helvetica,sans-Serif" font-size="10.00">Report</text>
</a>
</g>
</g>
<!-- Node1&#45;&gt;Node15 -->
<g id="edge14_Node000001_Node000015" class="edge">
<title>Node1&#45;&gt;Node15</title>
<g id="a_edge14_Node000001_Node000015"><a xlink:title=" ">
<path fill="none" stroke="#63b8ff" d="M82.05,-341.25C98.97,-311.73 130.77,-263.63 171.25,-236.62 176.12,-233.38 181.42,-230.57 186.92,-228.13"/>
<polygon fill="#63b8ff" stroke="#63b8ff" points="79.05,-339.44 77.25,-349.88 85.17,-342.85 79.05,-339.44"/>
</a>
</g>
</g>
<!-- Node16 -->
<g id="Node000016" class="node">
<title>Node16</title>
<g id="a_Node000016"><a xlink:href="class_domain_1_1_entities_1_1_project_partial_report.html" target="_top" xlink:title=" ">
<polygon fill="white" stroke="#666666" points="331.25,-178.88 184,-178.88 184,-148.38 331.25,-148.38 331.25,-178.88"/>
<text text-anchor="start" x="192" y="-165.38" font-family="Helvetica,sans-Serif" font-size="10.00">Domain.Entities.ProjectPartial</text>
<text text-anchor="middle" x="257.62" y="-154.12" font-family="Helvetica,sans-Serif" font-size="10.00">Report</text>
</a>
</g>
</g>
<!-- Node1&#45;&gt;Node16 -->
<g id="edge15_Node000001_Node000016" class="edge">
<title>Node1&#45;&gt;Node16</title>
<g id="a_edge15_Node000001_Node000016"><a xlink:title=" ">
<path fill="none" stroke="#63b8ff" d="M76.59,-340.68C89.87,-301.82 120.21,-228.76 171.25,-188.62 175.86,-185 180.99,-181.9 186.37,-179.24"/>
<polygon fill="#63b8ff" stroke="#63b8ff" points="73.43,-339.1 73.63,-349.69 80.08,-341.28 73.43,-339.1"/>
</a>
</g>
</g>
<!-- Node17 -->
<g id="Node000017" class="node">
<title>Node17</title>
<g id="a_Node000017"><a xlink:href="class_domain_1_1_entities_1_1_student.html" target="_top" xlink:title="Estudante.">
<polygon fill="white" stroke="#666666" points="318.88,-130.25 196.38,-130.25 196.38,-111 318.88,-111 318.88,-130.25"/>
<text text-anchor="middle" x="257.62" y="-116.75" font-family="Helvetica,sans-Serif" font-size="10.00">Domain.Entities.Student</text>
</a>
</g>
</g>
<!-- Node1&#45;&gt;Node17 -->
<g id="edge16_Node000001_Node000017" class="edge">
<title>Node1&#45;&gt;Node17</title>
<g id="a_edge16_Node000001_Node000017"><a xlink:title=" ">
<path fill="none" stroke="#63b8ff" d="M72.8,-339.8C81.73,-291.84 107.34,-191.58 171.25,-139.62 178.44,-133.78 187.05,-129.64 195.99,-126.73"/>
<polygon fill="#63b8ff" stroke="#63b8ff" points="69.36,-339.12 71.09,-349.58 76.26,-340.33 69.36,-339.12"/>
</a>
</g>
</g>
<!-- Node18 -->
<g id="Node000018" class="node">
<title>Node18</title>
<g id="a_Node000018"><a xlink:href="class_domain_1_1_entities_1_1_student_documents.html" target="_top" xlink:title=" ">
<polygon fill="white" stroke="#666666" points="344,-93.25 171.25,-93.25 171.25,-74 344,-74 344,-93.25"/>
<text text-anchor="middle" x="257.62" y="-79.75" font-family="Helvetica,sans-Serif" font-size="10.00">Domain.Entities.StudentDocuments</text>
</a>
</g>
</g>
<!-- Node1&#45;&gt;Node18 -->
<g id="edge17_Node000001_Node000018" class="edge">
<title>Node1&#45;&gt;Node18</title>
<g id="a_edge17_Node000001_Node000018"><a xlink:title=" ">
<path fill="none" stroke="#63b8ff" d="M70.78,-339.89C76.61,-286.01 97.67,-164.18 171.25,-101.62 174.94,-98.49 179.05,-95.85 183.4,-93.64"/>
<polygon fill="#63b8ff" stroke="#63b8ff" points="67.31,-339.39 69.82,-349.68 74.27,-340.07 67.31,-339.39"/>
</a>
</g>
</g>
<!-- Node19 -->
<g id="Node000019" class="node">
<title>Node19</title>
<g id="a_Node000019"><a xlink:href="class_domain_1_1_entities_1_1_sub_area.html" target="_top" xlink:title=" ">
<polygon fill="white" stroke="#666666" points="320.75,-56.25 194.5,-56.25 194.5,-37 320.75,-37 320.75,-56.25"/>
<text text-anchor="middle" x="257.62" y="-42.75" font-family="Helvetica,sans-Serif" font-size="10.00">Domain.Entities.SubArea</text>
</a>
</g>
</g>
<!-- Node1&#45;&gt;Node19 -->
<g id="edge18_Node000001_Node000019" class="edge">
<title>Node1&#45;&gt;Node19</title>
<g id="a_edge18_Node000001_Node000019"><a xlink:title=" ">
<path fill="none" stroke="#63b8ff" d="M69.35,-339.54C72.47,-280.13 88.67,-137.86 171.25,-64.62 177.82,-58.8 185.8,-54.68 194.21,-51.81"/>
<polygon fill="#63b8ff" stroke="#63b8ff" points="65.85,-339.25 68.92,-349.39 72.85,-339.55 65.85,-339.25"/>
</a>
</g>
</g>
<!-- Node20 -->
<g id="Node000020" class="node">
<title>Node20</title>
<g id="a_Node000020"><a xlink:href="class_domain_1_1_entities_1_1_user.html" target="_top" xlink:title=" ">
<polygon fill="white" stroke="#666666" points="312.5,-19.25 202.75,-19.25 202.75,0 312.5,0 312.5,-19.25"/>
<text text-anchor="middle" x="257.62" y="-5.75" font-family="Helvetica,sans-Serif" font-size="10.00">Domain.Entities.User</text>
</a>
</g>
</g>
<!-- Node1&#45;&gt;Node20 -->
<g id="edge19_Node000001_Node000020" class="edge">
<title>Node1&#45;&gt;Node20</title>
<g id="a_edge19_Node000001_Node000020"><a xlink:title=" ">
<path fill="none" stroke="#63b8ff" d="M68.17,-339.83C68.64,-275.6 79.3,-111.98 171.25,-27.62 179.85,-19.74 190.99,-14.97 202.38,-12.15"/>
<polygon fill="#63b8ff" stroke="#63b8ff" points="64.67,-339.45 68.19,-349.44 71.67,-339.44 64.67,-339.45"/>
</a>
</g>
</g>
</g>
</svg>
