<?xml version="1.0" encoding="UTF-8" standalone="no"?>
<!DOCTYPE svg PUBLIC "-//W3C//DTD SVG 1.1//EN"
 "http://www.w3.org/Graphics/SVG/1.1/DTD/svg11.dtd">
<!-- Generated by graphviz version 9.0.0 (20230911.1827)
 -->
<!-- Title: Services.Email.EmailService.SendEmailAsync Pages: 1 -->
<svg width="388pt" height="294pt"
 viewBox="0.00 0.00 388.00 293.50" xmlns="http://www.w3.org/2000/svg" xmlns:xlink="http://www.w3.org/1999/xlink">
<g id="graph0" class="graph" transform="scale(1 1) rotate(0) translate(4 289.5)">
<title>Services.Email.EmailService.SendEmailAsync</title>
<!-- Node1 -->
<g id="Node000001" class="node">
<title>Node1</title>
<g id="a_Node000001"><a xlink:title=" ">
<polygon fill="#999999" stroke="#666666" points="380,-155.5 234.25,-155.5 234.25,-125 380,-125 380,-155.5"/>
<text text-anchor="start" x="242.25" y="-142" font-family="Helvetica,sans-Serif" font-size="10.00">Services.Email.EmailService.</text>
<text text-anchor="middle" x="307.12" y="-130.75" font-family="Helvetica,sans-Serif" font-size="10.00">SendEmailAsync</text>
</a>
</g>
</g>
<!-- Node2 -->
<g id="Node000002" class="node">
<title>Node2</title>
<g id="a_Node000002"><a xlink:href="class_services_1_1_email_1_1_email_service.html#a6e847d27ce8279d1287963b092619c0c" target="_top" xlink:title=" ">
<polygon fill="white" stroke="#666666" points="172.38,-285.5 25.88,-285.5 25.88,-255 172.38,-255 172.38,-285.5"/>
<text text-anchor="start" x="33.88" y="-272" font-family="Helvetica,sans-Serif" font-size="10.00">Services.Email.EmailService.</text>
<text text-anchor="middle" x="99.12" y="-260.75" font-family="Helvetica,sans-Serif" font-size="10.00">SendConfirmationEmailAsync</text>
</a>
</g>
</g>
<!-- Node1&#45;&gt;Node2 -->
<g id="edge1_Node000001_Node000002" class="edge">
<title>Node1&#45;&gt;Node2</title>
<g id="a_edge1_Node000001_Node000002"><a xlink:title=" ">
<path fill="none" stroke="#63b8ff" d="M287.63,-164.55C268.03,-188.6 234.88,-224.73 198.25,-245.25 190.35,-249.68 181.66,-253.33 172.81,-256.35"/>
<polygon fill="#63b8ff" stroke="#63b8ff" points="290.26,-166.86 293.75,-156.85 284.79,-162.5 290.26,-166.86"/>
</a>
</g>
</g>
<!-- Node3 -->
<g id="Node000003" class="node">
<title>Node3</title>
<g id="a_Node000003"><a xlink:href="class_services_1_1_email_1_1_email_service.html#a1171bee4d40483b4f7dabbab2c32cd90" target="_top" xlink:title=" ">
<polygon fill="white" stroke="#666666" points="172,-236.5 26.25,-236.5 26.25,-206 172,-206 172,-236.5"/>
<text text-anchor="start" x="34.25" y="-223" font-family="Helvetica,sans-Serif" font-size="10.00">Services.Email.EmailService.</text>
<text text-anchor="middle" x="99.12" y="-211.75" font-family="Helvetica,sans-Serif" font-size="10.00">SendNoticeEmailAsync</text>
</a>
</g>
</g>
<!-- Node1&#45;&gt;Node3 -->
<g id="edge2_Node000001_Node000003" class="edge">
<title>Node1&#45;&gt;Node3</title>
<g id="a_edge2_Node000001_Node000003"><a xlink:title=" ">
<path fill="none" stroke="#63b8ff" d="M270.94,-161.68C250.34,-173.49 223.49,-187.66 198.25,-197.25 189.97,-200.39 181.14,-203.23 172.3,-205.76"/>
<polygon fill="#63b8ff" stroke="#63b8ff" points="272.62,-164.75 279.5,-156.69 269.1,-158.7 272.62,-164.75"/>
</a>
</g>
</g>
<!-- Node4 -->
<g id="Node000004" class="node">
<title>Node4</title>
<g id="a_Node000004"><a xlink:href="class_services_1_1_email_1_1_email_service.html#a6dc6c315d8ba0e1453dc79435b7e7120" target="_top" xlink:title=" ">
<polygon fill="white" stroke="#666666" points="182.12,-188.12 16.12,-188.12 16.12,-146.38 182.12,-146.38 182.12,-188.12"/>
<text text-anchor="start" x="24.12" y="-174.62" font-family="Helvetica,sans-Serif" font-size="10.00">Services.Email.EmailService.</text>
<text text-anchor="start" x="24.12" y="-163.38" font-family="Helvetica,sans-Serif" font-size="10.00">SendNotificationOfReportDeadline</text>
<text text-anchor="middle" x="99.12" y="-152.12" font-family="Helvetica,sans-Serif" font-size="10.00">EmailAsync</text>
</a>
</g>
</g>
<!-- Node1&#45;&gt;Node4 -->
<g id="edge3_Node000001_Node000004" class="edge">
<title>Node1&#45;&gt;Node4</title>
<g id="a_edge3_Node000001_Node000004"><a xlink:title=" ">
<path fill="none" stroke="#63b8ff" d="M222.76,-151.18C209.48,-152.92 195.75,-154.72 182.5,-156.45"/>
<polygon fill="#63b8ff" stroke="#63b8ff" points="222.83,-154.7 232.29,-149.93 221.92,-147.76 222.83,-154.7"/>
</a>
</g>
</g>
<!-- Node5 -->
<g id="Node000005" class="node">
<title>Node5</title>
<g id="a_Node000005"><a xlink:href="class_services_1_1_email_1_1_email_service.html#acac60e14ea753ab4be216425451553b1" target="_top" xlink:title=" ">
<polygon fill="white" stroke="#666666" points="184.75,-128.5 13.5,-128.5 13.5,-98 184.75,-98 184.75,-128.5"/>
<text text-anchor="start" x="21.5" y="-115" font-family="Helvetica,sans-Serif" font-size="10.00">Services.Email.EmailService.</text>
<text text-anchor="middle" x="99.12" y="-103.75" font-family="Helvetica,sans-Serif" font-size="10.00">SendProjectNotificationEmailAsync</text>
</a>
</g>
</g>
<!-- Node1&#45;&gt;Node5 -->
<g id="edge4_Node000001_Node000005" class="edge">
<title>Node1&#45;&gt;Node5</title>
<g id="a_edge4_Node000001_Node000005"><a xlink:title=" ">
<path fill="none" stroke="#63b8ff" d="M222.55,-129.3C210.17,-127.67 197.4,-126 185,-124.37"/>
<polygon fill="#63b8ff" stroke="#63b8ff" points="221.92,-132.74 232.29,-130.57 222.83,-125.8 221.92,-132.74"/>
</a>
</g>
</g>
<!-- Node6 -->
<g id="Node000006" class="node">
<title>Node6</title>
<g id="a_Node000006"><a xlink:href="class_services_1_1_email_1_1_email_service.html#aa7a1ff575189a23a96f806266a63eca4" target="_top" xlink:title=" ">
<polygon fill="white" stroke="#666666" points="198.25,-79.5 0,-79.5 0,-49 198.25,-49 198.25,-79.5"/>
<text text-anchor="start" x="8" y="-66" font-family="Helvetica,sans-Serif" font-size="10.00">Services.Email.EmailService.</text>
<text text-anchor="middle" x="99.12" y="-54.75" font-family="Helvetica,sans-Serif" font-size="10.00">SendRequestStudentRegisterEmailAsync</text>
</a>
</g>
</g>
<!-- Node1&#45;&gt;Node6 -->
<g id="edge5_Node000001_Node000006" class="edge">
<title>Node1&#45;&gt;Node6</title>
<g id="a_edge5_Node000001_Node000006"><a xlink:title=" ">
<path fill="none" stroke="#63b8ff" d="M266.98,-119.51C246.83,-109.42 221.65,-97.67 198.25,-89.25 188.82,-85.86 178.73,-82.73 168.73,-79.93"/>
<polygon fill="#63b8ff" stroke="#63b8ff" points="265.16,-122.51 275.66,-123.93 268.34,-116.27 265.16,-122.51"/>
</a>
</g>
</g>
<!-- Node7 -->
<g id="Node000007" class="node">
<title>Node7</title>
<g id="a_Node000007"><a xlink:href="class_services_1_1_email_1_1_email_service.html#ae9e95fa7d7ee982aecbfab334e0952e5" target="_top" xlink:title=" ">
<polygon fill="white" stroke="#666666" points="179.5,-30.5 18.75,-30.5 18.75,0 179.5,0 179.5,-30.5"/>
<text text-anchor="start" x="26.75" y="-17" font-family="Helvetica,sans-Serif" font-size="10.00">Services.Email.EmailService.</text>
<text text-anchor="middle" x="99.12" y="-5.75" font-family="Helvetica,sans-Serif" font-size="10.00">SendResetPasswordEmailAsync</text>
</a>
</g>
</g>
<!-- Node1&#45;&gt;Node7 -->
<g id="edge6_Node000001_Node000007" class="edge">
<title>Node1&#45;&gt;Node7</title>
<g id="a_edge6_Node000001_Node000007"><a xlink:title=" ">
<path fill="none" stroke="#63b8ff" d="M286.72,-116.38C266.85,-93.5 233.89,-59.65 198.25,-40.25 191.69,-36.68 184.6,-33.6 177.34,-30.96"/>
<polygon fill="#63b8ff" stroke="#63b8ff" points="283.8,-118.34 292.94,-123.7 289.14,-113.81 283.8,-118.34"/>
</a>
</g>
</g>
</g>
</svg>
