<?xml version="1.0" encoding="UTF-8" standalone="no"?>
<!DOCTYPE svg PUBLIC "-//W3C//DTD SVG 1.1//EN"
 "http://www.w3.org/Graphics/SVG/1.1/DTD/svg11.dtd">
<!-- Generated by graphviz version 8.1.0 (20230707.0739)
 -->
<!-- Title: src.infra.external_services.cloud_download_file_service.CloudDownloadFileService Pages: 1 -->
<svg width="487pt" height="61pt"
 viewBox="0.00 0.00 487.25 61.00" xmlns="http://www.w3.org/2000/svg" xmlns:xlink="http://www.w3.org/1999/xlink">
<g id="graph0" class="graph" transform="scale(1 1) rotate(0) translate(4 57)">
<title>src.infra.external_services.cloud_download_file_service.CloudDownloadFileService</title>
<!-- Node1 -->
<g id="Node000001" class="node">
<title>Node1</title>
<g id="a_Node000001"><a xlink:title=" ">
<polygon fill="#999999" stroke="#666666" points="479.25,-53 320.75,-53 320.75,0 479.25,0 479.25,-53"/>
<text text-anchor="start" x="328.75" y="-39.5" font-family="Helvetica,sans-Serif" font-size="10.00">src.infra.external</text>
<text text-anchor="start" x="328.75" y="-28.25" font-family="Helvetica,sans-Serif" font-size="10.00">_services.cloud_download</text>
<text text-anchor="start" x="328.75" y="-17" font-family="Helvetica,sans-Serif" font-size="10.00">_file_service.CloudDownloadFile</text>
<text text-anchor="middle" x="400" y="-5.75" font-family="Helvetica,sans-Serif" font-size="10.00">Service</text>
</a>
</g>
</g>
<!-- Node2 -->
<g id="Node000002" class="node">
<title>Node2</title>
<g id="a_Node000002"><a xlink:href="classsrc_1_1domain_1_1interfaces_1_1services_1_1download__file__service__interface_1_1_i_download_file_service.html" target="_top" xlink:title=" ">
<polygon fill="white" stroke="#666666" points="284.75,-41.75 73,-41.75 73,-11.25 284.75,-11.25 284.75,-41.75"/>
<text text-anchor="start" x="81" y="-28.25" font-family="Helvetica,sans-Serif" font-size="10.00">src.domain.interfaces.services.download</text>
<text text-anchor="middle" x="178.88" y="-17" font-family="Helvetica,sans-Serif" font-size="10.00">_file_service_interface.IDownloadFileService</text>
</a>
</g>
</g>
<!-- Node2&#45;&gt;Node1 -->
<g id="edge1_Node000001_Node000002" class="edge">
<title>Node2&#45;&gt;Node1</title>
<g id="a_edge1_Node000001_Node000002"><a xlink:title=" ">
<path fill="none" stroke="#63b8ff" d="M295.89,-26.5C304.21,-26.5 312.48,-26.5 320.5,-26.5"/>
<polygon fill="#63b8ff" stroke="#63b8ff" points="295.94,-23 285.94,-26.5 295.94,-30 295.94,-23"/>
</a>
</g>
</g>
<!-- Node3 -->
<g id="Node000003" class="node">
<title>Node3</title>
<g id="a_Node000003"><a xlink:title=" ">
<polygon fill="white" stroke="#666666" points="37,-36.12 0,-36.12 0,-16.88 37,-16.88 37,-36.12"/>
<text text-anchor="middle" x="18.5" y="-22.62" font-family="Helvetica,sans-Serif" font-size="10.00">ABC</text>
</a>
</g>
</g>
<!-- Node3&#45;&gt;Node2 -->
<g id="edge2_Node000002_Node000003" class="edge">
<title>Node3&#45;&gt;Node2</title>
<g id="a_edge2_Node000002_Node000003"><a xlink:title=" ">
<path fill="none" stroke="#63b8ff" d="M48.28,-26.5C55.56,-26.5 63.83,-26.5 72.57,-26.5"/>
<polygon fill="#63b8ff" stroke="#63b8ff" points="48.36,-23 38.36,-26.5 48.36,-30 48.36,-23"/>
</a>
</g>
</g>
</g>
</svg>
