<?xml version="1.0" encoding="UTF-8" standalone="no"?>
<!DOCTYPE svg PUBLIC "-//W3C//DTD SVG 1.1//EN"
 "http://www.w3.org/Graphics/SVG/1.1/DTD/svg11.dtd">
<!-- Generated by graphviz version 9.0.0 (20230911.1827)
 -->
<!-- Title: Persistence.Repositories.StudentRepository.DeleteAsync Pages: 1 -->
<svg width="361pt" height="137pt"
 viewBox="0.00 0.00 361.00 136.50" xmlns="http://www.w3.org/2000/svg" xmlns:xlink="http://www.w3.org/1999/xlink">
<g id="graph0" class="graph" transform="scale(1 1) rotate(0) translate(4 132.5)">
<title>Persistence.Repositories.StudentRepository.DeleteAsync</title>
<!-- Node1 -->
<g id="Node000001" class="node">
<title>Node1</title>
<g id="a_Node000001"><a xlink:title=" ">
<polygon fill="#999999" stroke="#666666" points="154.75,-79.5 0,-79.5 0,-49 154.75,-49 154.75,-79.5"/>
<text text-anchor="start" x="8" y="-66" font-family="Helvetica,sans-Serif" font-size="10.00">Persistence.Repositories.</text>
<text text-anchor="middle" x="77.38" y="-54.75" font-family="Helvetica,sans-Serif" font-size="10.00">StudentRepository.DeleteAsync</text>
</a>
</g>
</g>
<!-- Node2 -->
<g id="Node000002" class="node">
<title>Node2</title>
<g id="a_Node000002"><a xlink:href="class_domain_1_1_entities_1_1_primitives_1_1_entity.html#a3a368e3c302f8622ea0305003ef2a5eb" target="_top" xlink:title=" ">
<polygon fill="white" stroke="#666666" points="339.5,-128.5 204.25,-128.5 204.25,-98 339.5,-98 339.5,-128.5"/>
<text text-anchor="start" x="212.25" y="-115" font-family="Helvetica,sans-Serif" font-size="10.00">Domain.Entities.Primitives.</text>
<text text-anchor="middle" x="271.88" y="-103.75" font-family="Helvetica,sans-Serif" font-size="10.00">Entity.DeactivateEntity</text>
</a>
</g>
</g>
<!-- Node1&#45;&gt;Node2 -->
<g id="edge1_Node000001_Node000002" class="edge">
<title>Node1&#45;&gt;Node2</title>
<g id="a_edge1_Node000001_Node000002"><a xlink:title=" ">
<path fill="none" stroke="#63b8ff" d="M140.08,-79.96C158.56,-84.66 178.99,-89.86 198.11,-94.73"/>
<polygon fill="#63b8ff" stroke="#63b8ff" points="197.17,-98.1 207.72,-97.18 198.9,-91.32 197.17,-98.1"/>
</a>
</g>
</g>
<!-- Node3 -->
<g id="Node000003" class="node">
<title>Node3</title>
<g id="a_Node000003"><a xlink:href="class_persistence_1_1_repositories_1_1_student_repository.html#a628181637ac6fa1b92faf7b18b11005a" target="_top" xlink:title=" ">
<polygon fill="white" stroke="#666666" points="353,-79.5 190.75,-79.5 190.75,-49 353,-49 353,-79.5"/>
<text text-anchor="start" x="198.75" y="-66" font-family="Helvetica,sans-Serif" font-size="10.00">Persistence.Repositories.</text>
<text text-anchor="middle" x="271.88" y="-54.75" font-family="Helvetica,sans-Serif" font-size="10.00">StudentRepository.GetByIdAsync</text>
</a>
</g>
</g>
<!-- Node1&#45;&gt;Node3 -->
<g id="edge2_Node000001_Node000003" class="edge">
<title>Node1&#45;&gt;Node3</title>
<g id="a_edge2_Node000001_Node000003"><a xlink:title=" ">
<path fill="none" stroke="#63b8ff" d="M155.01,-64.25C162.92,-64.25 171.01,-64.25 179.07,-64.25"/>
<polygon fill="#63b8ff" stroke="#63b8ff" points="178.89,-67.75 188.89,-64.25 178.89,-60.75 178.89,-67.75"/>
</a>
</g>
</g>
<!-- Node4 -->
<g id="Node000004" class="node">
<title>Node4</title>
<g id="a_Node000004"><a xlink:href="class_persistence_1_1_repositories_1_1_student_repository.html#aa8255764d75ced3e67e5a2b40bee0690" target="_top" xlink:title=" ">
<polygon fill="white" stroke="#666666" points="350.75,-30.5 193,-30.5 193,0 350.75,0 350.75,-30.5"/>
<text text-anchor="start" x="201" y="-17" font-family="Helvetica,sans-Serif" font-size="10.00">Persistence.Repositories.</text>
<text text-anchor="middle" x="271.88" y="-5.75" font-family="Helvetica,sans-Serif" font-size="10.00">StudentRepository.UpdateAsync</text>
</a>
</g>
</g>
<!-- Node1&#45;&gt;Node4 -->
<g id="edge3_Node000001_Node000004" class="edge">
<title>Node1&#45;&gt;Node4</title>
<g id="a_edge3_Node000001_Node000004"><a xlink:title=" ">
<path fill="none" stroke="#63b8ff" d="M140.08,-48.54C158.56,-43.84 178.99,-38.64 198.11,-33.77"/>
<polygon fill="#63b8ff" stroke="#63b8ff" points="198.9,-37.18 207.72,-31.32 197.17,-30.4 198.9,-37.18"/>
</a>
</g>
</g>
</g>
</svg>
