<?xml version="1.0" encoding="UTF-8" standalone="no"?>
<!DOCTYPE svg PUBLIC "-//W3C//DTD SVG 1.1//EN"
 "http://www.w3.org/Graphics/SVG/1.1/DTD/svg11.dtd">
<!-- Generated by graphviz version 9.0.0 (20230911.1827)
 -->
<!-- Title: Domain.Entities.ProjectActivity.CalculatePoints Pages: 1 -->
<svg width="538pt" height="50pt"
 viewBox="0.00 0.00 537.50 49.75" xmlns="http://www.w3.org/2000/svg" xmlns:xlink="http://www.w3.org/1999/xlink">
<g id="graph0" class="graph" transform="scale(1 1) rotate(0) translate(4 45.75)">
<title>Domain.Entities.ProjectActivity.CalculatePoints</title>
<!-- Node1 -->
<g id="Node000001" class="node">
<title>Node1</title>
<g id="a_Node000001"><a xlink:title="Calcula a pontuação da Atividade.">
<polygon fill="#999999" stroke="#666666" points="154,-36.12 0,-36.12 0,-5.62 154,-5.62 154,-36.12"/>
<text text-anchor="start" x="8" y="-22.62" font-family="Helvetica,sans-Serif" font-size="10.00">Domain.Entities.ProjectActivity.</text>
<text text-anchor="middle" x="77" y="-11.38" font-family="Helvetica,sans-Serif" font-size="10.00">CalculatePoints</text>
</a>
</g>
</g>
<!-- Node2 -->
<g id="Node000002" class="node">
<title>Node2</title>
<g id="a_Node000002"><a xlink:href="class_domain_1_1_validation_1_1_entity_exception_validation.html#a705026be8f97d13c737d20cf43fa4a01" target="_top" xlink:title=" ">
<polygon fill="white" stroke="#666666" points="320,-36.12 190,-36.12 190,-5.62 320,-5.62 320,-36.12"/>
<text text-anchor="start" x="198" y="-22.62" font-family="Helvetica,sans-Serif" font-size="10.00">Domain.Validation.Entity</text>
<text text-anchor="middle" x="255" y="-11.38" font-family="Helvetica,sans-Serif" font-size="10.00">ExceptionValidation.When</text>
</a>
</g>
</g>
<!-- Node1&#45;&gt;Node2 -->
<g id="edge1_Node000001_Node000002" class="edge">
<title>Node1&#45;&gt;Node2</title>
<g id="a_edge1_Node000001_Node000002"><a xlink:title=" ">
<path fill="none" stroke="#63b8ff" d="M154.43,-20.88C162.34,-20.88 170.39,-20.88 178.29,-20.88"/>
<polygon fill="#63b8ff" stroke="#63b8ff" points="178.24,-24.38 188.24,-20.88 178.24,-17.38 178.24,-24.38"/>
</a>
</g>
</g>
<!-- Node3 -->
<g id="Node000003" class="node">
<title>Node3</title>
<g id="a_Node000003"><a xlink:href="class_domain_1_1_validation_1_1_entity_exception_validation.html#a619c2cc9843e044ea58c80e94a756b2a" target="_top" xlink:title=" ">
<polygon fill="white" stroke="#666666" points="529.5,-41.75 356,-41.75 356,0 529.5,0 529.5,-41.75"/>
<text text-anchor="start" x="364" y="-28.25" font-family="Helvetica,sans-Serif" font-size="10.00">Domain.Validation.Entity</text>
<text text-anchor="start" x="364" y="-17" font-family="Helvetica,sans-Serif" font-size="10.00">ExceptionValidation.EntityException</text>
<text text-anchor="middle" x="442.75" y="-5.75" font-family="Helvetica,sans-Serif" font-size="10.00">Validation</text>
</a>
</g>
</g>
<!-- Node2&#45;&gt;Node3 -->
<g id="edge2_Node000002_Node000003" class="edge">
<title>Node2&#45;&gt;Node3</title>
<g id="a_edge2_Node000002_Node000003"><a xlink:title=" ">
<path fill="none" stroke="#63b8ff" d="M320.45,-20.88C328.21,-20.88 336.26,-20.88 344.37,-20.88"/>
<polygon fill="#63b8ff" stroke="#63b8ff" points="344.31,-24.38 354.31,-20.88 344.31,-17.38 344.31,-24.38"/>
</a>
</g>
</g>
</g>
</svg>
