<?xml version="1.0" encoding="UTF-8" standalone="no"?>
<!DOCTYPE svg PUBLIC "-//W3C//DTD SVG 1.1//EN"
 "http://www.w3.org/Graphics/SVG/1.1/DTD/svg11.dtd">
<!-- Generated by graphviz version 8.1.0 (20230707.0739)
 -->
<!-- Title: src.infra.persistence.info_file_repository.InfoFileRepository Pages: 1 -->
<svg width="490pt" height="39pt"
 viewBox="0.00 0.00 490.25 38.50" xmlns="http://www.w3.org/2000/svg" xmlns:xlink="http://www.w3.org/1999/xlink">
<g id="graph0" class="graph" transform="scale(1 1) rotate(0) translate(4 34.5)">
<title>src.infra.persistence.info_file_repository.InfoFileRepository</title>
<!-- Node1 -->
<g id="Node000001" class="node">
<title>Node1</title>
<g id="a_Node000001"><a xlink:title=" ">
<polygon fill="#999999" stroke="#666666" points="482.25,-30.5 319.25,-30.5 319.25,0 482.25,0 482.25,-30.5"/>
<text text-anchor="start" x="327.25" y="-17" font-family="Helvetica,sans-Serif" font-size="10.00">src.infra.persistence.info</text>
<text text-anchor="middle" x="400.75" y="-5.75" font-family="Helvetica,sans-Serif" font-size="10.00">_file_repository.InfoFileRepository</text>
</a>
</g>
</g>
<!-- Node2 -->
<g id="Node000002" class="node">
<title>Node2</title>
<g id="a_Node000002"><a xlink:href="classsrc_1_1domain_1_1interfaces_1_1repositories_1_1info__file__repository__interface_1_1_i_info_file_repository.html" target="_top" xlink:title=" ">
<polygon fill="white" stroke="#666666" points="283.25,-30.5 73,-30.5 73,0 283.25,0 283.25,-30.5"/>
<text text-anchor="start" x="81" y="-17" font-family="Helvetica,sans-Serif" font-size="10.00">src.domain.interfaces.repositories.info</text>
<text text-anchor="middle" x="178.12" y="-5.75" font-family="Helvetica,sans-Serif" font-size="10.00">_file_repository_interface.IInfoFileRepository</text>
</a>
</g>
</g>
<!-- Node2&#45;&gt;Node1 -->
<g id="edge1_Node000001_Node000002" class="edge">
<title>Node2&#45;&gt;Node1</title>
<g id="a_edge1_Node000001_Node000002"><a xlink:title=" ">
<path fill="none" stroke="#63b8ff" d="M294.42,-15.25C302.63,-15.25 310.81,-15.25 318.76,-15.25"/>
<polygon fill="#63b8ff" stroke="#63b8ff" points="294.62,-11.75 284.62,-15.25 294.62,-18.75 294.62,-11.75"/>
</a>
</g>
</g>
<!-- Node3 -->
<g id="Node000003" class="node">
<title>Node3</title>
<g id="a_Node000003"><a xlink:title=" ">
<polygon fill="white" stroke="#666666" points="37,-24.88 0,-24.88 0,-5.63 37,-5.63 37,-24.88"/>
<text text-anchor="middle" x="18.5" y="-11.38" font-family="Helvetica,sans-Serif" font-size="10.00">ABC</text>
</a>
</g>
</g>
<!-- Node3&#45;&gt;Node2 -->
<g id="edge2_Node000002_Node000003" class="edge">
<title>Node3&#45;&gt;Node2</title>
<g id="a_edge2_Node000002_Node000003"><a xlink:title=" ">
<path fill="none" stroke="#63b8ff" d="M48.24,-15.25C55.57,-15.25 63.88,-15.25 72.67,-15.25"/>
<polygon fill="#63b8ff" stroke="#63b8ff" points="48.28,-11.75 38.28,-15.25 48.28,-18.75 48.28,-11.75"/>
</a>
</g>
</g>
</g>
</svg>
