<?xml version="1.0" encoding="UTF-8" standalone="no"?>
<!DOCTYPE svg PUBLIC "-//W3C//DTD SVG 1.1//EN"
 "http://www.w3.org/Graphics/SVG/1.1/DTD/svg11.dtd">
<!-- Generated by graphviz version 8.1.0 (20230707.0739)
 -->
<!-- Title: src.adapters.interfaces.media_analysis_service_interface.IMediaAnalysisService Pages: 1 -->
<svg width="177pt" height="183pt"
 viewBox="0.00 0.00 177.00 182.75" xmlns="http://www.w3.org/2000/svg" xmlns:xlink="http://www.w3.org/1999/xlink">
<g id="graph0" class="graph" transform="scale(1 1) rotate(0) translate(4 178.75)">
<title>src.adapters.interfaces.media_analysis_service_interface.IMediaAnalysisService</title>
<!-- Node1 -->
<g id="Node000001" class="node">
<title>Node1</title>
<g id="a_Node000001"><a xlink:title=" ">
<polygon fill="#999999" stroke="#666666" points="169,-119.5 0,-119.5 0,-77.75 169,-77.75 169,-119.5"/>
<text text-anchor="start" x="8" y="-106" font-family="Helvetica,sans-Serif" font-size="10.00">src.adapters.interfaces.media</text>
<text text-anchor="start" x="8" y="-94.75" font-family="Helvetica,sans-Serif" font-size="10.00">_analysis_service_interface.IMedia</text>
<text text-anchor="middle" x="84.5" y="-83.5" font-family="Helvetica,sans-Serif" font-size="10.00">AnalysisService</text>
</a>
</g>
</g>
<!-- Node3 -->
<g id="Node000003" class="node">
<title>Node3</title>
<g id="a_Node000003"><a xlink:href="classsrc_1_1adapters_1_1services_1_1media__analysis__service_1_1_media_analysis_service.html" target="_top" xlink:title=" ">
<polygon fill="white" stroke="#666666" points="164.88,-41.75 4.12,-41.75 4.12,0 164.88,0 164.88,-41.75"/>
<text text-anchor="start" x="12.12" y="-28.25" font-family="Helvetica,sans-Serif" font-size="10.00">src.adapters.services.media</text>
<text text-anchor="start" x="12.12" y="-17" font-family="Helvetica,sans-Serif" font-size="10.00">_analysis_service.MediaAnalysis</text>
<text text-anchor="middle" x="84.5" y="-5.75" font-family="Helvetica,sans-Serif" font-size="10.00">Service</text>
</a>
</g>
</g>
<!-- Node1&#45;&gt;Node3 -->
<g id="edge2_Node000001_Node000003" class="edge">
<title>Node1&#45;&gt;Node3</title>
<g id="a_edge2_Node000001_Node000003"><a xlink:title=" ">
<path fill="none" stroke="#63b8ff" d="M84.5,-66.56C84.5,-58.36 84.5,-49.71 84.5,-42.23"/>
<polygon fill="#63b8ff" stroke="#63b8ff" points="81,-66.33 84.5,-76.33 88,-66.33 81,-66.33"/>
</a>
</g>
</g>
<!-- Node2 -->
<g id="Node000002" class="node">
<title>Node2</title>
<g id="a_Node000002"><a xlink:title=" ">
<polygon fill="white" stroke="#666666" points="103,-174.75 66,-174.75 66,-155.5 103,-155.5 103,-174.75"/>
<text text-anchor="middle" x="84.5" y="-161.25" font-family="Helvetica,sans-Serif" font-size="10.00">ABC</text>
</a>
</g>
</g>
<!-- Node2&#45;&gt;Node1 -->
<g id="edge1_Node000001_Node000002" class="edge">
<title>Node2&#45;&gt;Node1</title>
<g id="a_edge1_Node000001_Node000002"><a xlink:title=" ">
<path fill="none" stroke="#63b8ff" d="M84.5,-144.25C84.5,-136.53 84.5,-127.69 84.5,-119.93"/>
<polygon fill="#63b8ff" stroke="#63b8ff" points="81,-144.16 84.5,-154.16 88,-144.16 81,-144.16"/>
</a>
</g>
</g>
</g>
</svg>
