<?xml version="1.0" encoding="UTF-8" standalone="no"?>
<!DOCTYPE svg PUBLIC "-//W3C//DTD SVG 1.1//EN"
 "http://www.w3.org/Graphics/SVG/1.1/DTD/svg11.dtd">
<!-- Generated by graphviz version 9.0.0 (20230911.1827)
 -->
<!-- Title: Application.Ports.ProgramType.BaseProgramTypeContract Pages: 1 -->
<svg width="394pt" height="186pt"
 viewBox="0.00 0.00 394.00 185.50" xmlns="http://www.w3.org/2000/svg" xmlns:xlink="http://www.w3.org/1999/xlink">
<g id="graph0" class="graph" transform="scale(1 1) rotate(0) translate(4 181.5)">
<title>Application.Ports.ProgramType.BaseProgramTypeContract</title>
<!-- Node1 -->
<g id="Node000001" class="node">
<title>Node1</title>
<g id="a_Node000001"><a xlink:title=" ">
<polygon fill="#999999" stroke="#666666" points="157.75,-103.5 0,-103.5 0,-73 157.75,-73 157.75,-103.5"/>
<text text-anchor="start" x="8" y="-90" font-family="Helvetica,sans-Serif" font-size="10.00">Application.Ports.Program</text>
<text text-anchor="middle" x="78.88" y="-78.75" font-family="Helvetica,sans-Serif" font-size="10.00">Type.BaseProgramTypeContract</text>
</a>
</g>
</g>
<!-- Node2 -->
<g id="Node000002" class="node">
<title>Node2</title>
<g id="a_Node000002"><a xlink:href="class_application_1_1_ports_1_1_program_type_1_1_create_program_type_input.html" target="_top" xlink:title=" ">
<polygon fill="white" stroke="#666666" points="364.25,-177.5 215.5,-177.5 215.5,-147 364.25,-147 364.25,-177.5"/>
<text text-anchor="start" x="223.5" y="-164" font-family="Helvetica,sans-Serif" font-size="10.00">Application.Ports.Program</text>
<text text-anchor="middle" x="289.88" y="-152.75" font-family="Helvetica,sans-Serif" font-size="10.00">Type.CreateProgramTypeInput</text>
</a>
</g>
</g>
<!-- Node1&#45;&gt;Node2 -->
<g id="edge1_Node000001_Node000002" class="edge">
<title>Node1&#45;&gt;Node2</title>
<g id="a_edge1_Node000001_Node000002"><a xlink:title=" ">
<path fill="none" stroke="#63b8ff" d="M122.97,-108.6C144.02,-118.07 169.9,-129.04 193.75,-137.25 203.36,-140.56 213.64,-143.68 223.76,-146.52"/>
<polygon fill="#63b8ff" stroke="#63b8ff" points="124.67,-105.53 114.12,-104.57 121.77,-111.9 124.67,-105.53"/>
</a>
</g>
</g>
<!-- Node3 -->
<g id="Node000003" class="node">
<title>Node3</title>
<g id="a_Node000003"><a xlink:href="class_application_1_1_ports_1_1_program_type_1_1_detailed_read_program_type_output.html" target="_top" xlink:title=" ">
<polygon fill="white" stroke="#666666" points="383,-128.5 196.75,-128.5 196.75,-98 383,-98 383,-128.5"/>
<text text-anchor="start" x="204.75" y="-115" font-family="Helvetica,sans-Serif" font-size="10.00">Application.Ports.Program</text>
<text text-anchor="middle" x="289.88" y="-103.75" font-family="Helvetica,sans-Serif" font-size="10.00">Type.DetailedReadProgramTypeOutput</text>
</a>
</g>
</g>
<!-- Node1&#45;&gt;Node3 -->
<g id="edge2_Node000001_Node000003" class="edge">
<title>Node1&#45;&gt;Node3</title>
<g id="a_edge2_Node000001_Node000003"><a xlink:title=" ">
<path fill="none" stroke="#63b8ff" d="M169.27,-98.94C178.25,-100.02 187.39,-101.11 196.4,-102.19"/>
<polygon fill="#63b8ff" stroke="#63b8ff" points="169.84,-95.49 159.5,-97.77 169.01,-102.44 169.84,-95.49"/>
</a>
</g>
</g>
<!-- Node4 -->
<g id="Node000004" class="node">
<title>Node4</title>
<g id="a_Node000004"><a xlink:href="class_application_1_1_ports_1_1_program_type_1_1_resumed_read_program_type_output.html" target="_top" xlink:title=" ">
<polygon fill="white" stroke="#666666" points="386,-79.5 193.75,-79.5 193.75,-49 386,-49 386,-79.5"/>
<text text-anchor="start" x="201.75" y="-66" font-family="Helvetica,sans-Serif" font-size="10.00">Application.Ports.Program</text>
<text text-anchor="middle" x="289.88" y="-54.75" font-family="Helvetica,sans-Serif" font-size="10.00">Type.ResumedReadProgramTypeOutput</text>
</a>
</g>
</g>
<!-- Node1&#45;&gt;Node4 -->
<g id="edge3_Node000001_Node000004" class="edge">
<title>Node1&#45;&gt;Node4</title>
<g id="a_edge3_Node000001_Node000004"><a xlink:title=" ">
<path fill="none" stroke="#63b8ff" d="M169.26,-77.99C177.3,-77.06 185.46,-76.13 193.55,-75.2"/>
<polygon fill="#63b8ff" stroke="#63b8ff" points="169.04,-74.49 159.5,-79.11 169.83,-81.44 169.04,-74.49"/>
</a>
</g>
</g>
<!-- Node5 -->
<g id="Node000005" class="node">
<title>Node5</title>
<g id="a_Node000005"><a xlink:href="class_application_1_1_ports_1_1_program_type_1_1_update_program_type_input.html" target="_top" xlink:title=" ">
<polygon fill="white" stroke="#666666" points="365.38,-30.5 214.38,-30.5 214.38,0 365.38,0 365.38,-30.5"/>
<text text-anchor="start" x="222.38" y="-17" font-family="Helvetica,sans-Serif" font-size="10.00">Application.Ports.Program</text>
<text text-anchor="middle" x="289.88" y="-5.75" font-family="Helvetica,sans-Serif" font-size="10.00">Type.UpdateProgramTypeInput</text>
</a>
</g>
</g>
<!-- Node1&#45;&gt;Node5 -->
<g id="edge4_Node000001_Node000005" class="edge">
<title>Node1&#45;&gt;Node5</title>
<g id="a_edge4_Node000001_Node000005"><a xlink:title=" ">
<path fill="none" stroke="#63b8ff" d="M123.76,-68.03C144.68,-58.84 170.23,-48.25 193.75,-40.25 203.45,-36.95 213.83,-33.82 224.03,-30.97"/>
<polygon fill="#63b8ff" stroke="#63b8ff" points="122.37,-64.82 114.66,-72.08 125.22,-71.22 122.37,-64.82"/>
</a>
</g>
</g>
</g>
</svg>
