<?xml version="1.0" encoding="UTF-8" standalone="no"?>
<!DOCTYPE svg PUBLIC "-//W3C//DTD SVG 1.1//EN"
 "http://www.w3.org/Graphics/SVG/1.1/DTD/svg11.dtd">
<!-- Generated by graphviz version 9.0.0 (20230911.1827)
 -->
<!-- Title: Persistence.Repositories.ActivityRepository.DeleteAsync Pages: 1 -->
<svg width="360pt" height="137pt"
 viewBox="0.00 0.00 359.50 136.50" xmlns="http://www.w3.org/2000/svg" xmlns:xlink="http://www.w3.org/1999/xlink">
<g id="graph0" class="graph" transform="scale(1 1) rotate(0) translate(4 132.5)">
<title>Persistence.Repositories.ActivityRepository.DeleteAsync</title>
<!-- Node1 -->
<g id="Node000001" class="node">
<title>Node1</title>
<g id="a_Node000001"><a xlink:title=" ">
<polygon fill="#999999" stroke="#666666" points="154,-79.5 0,-79.5 0,-49 154,-49 154,-79.5"/>
<text text-anchor="start" x="8" y="-66" font-family="Helvetica,sans-Serif" font-size="10.00">Persistence.Repositories.</text>
<text text-anchor="middle" x="77" y="-54.75" font-family="Helvetica,sans-Serif" font-size="10.00">ActivityRepository.DeleteAsync</text>
</a>
</g>
</g>
<!-- Node2 -->
<g id="Node000002" class="node">
<title>Node2</title>
<g id="a_Node000002"><a xlink:href="class_domain_1_1_entities_1_1_primitives_1_1_entity.html#a3a368e3c302f8622ea0305003ef2a5eb" target="_top" xlink:title=" ">
<polygon fill="white" stroke="#666666" points="338.38,-128.5 203.12,-128.5 203.12,-98 338.38,-98 338.38,-128.5"/>
<text text-anchor="start" x="211.12" y="-115" font-family="Helvetica,sans-Serif" font-size="10.00">Domain.Entities.Primitives.</text>
<text text-anchor="middle" x="270.75" y="-103.75" font-family="Helvetica,sans-Serif" font-size="10.00">Entity.DeactivateEntity</text>
</a>
</g>
</g>
<!-- Node1&#45;&gt;Node2 -->
<g id="edge1_Node000001_Node000002" class="edge">
<title>Node1&#45;&gt;Node2</title>
<g id="a_edge1_Node000001_Node000002"><a xlink:title=" ">
<path fill="none" stroke="#63b8ff" d="M139.46,-79.96C157.87,-84.66 178.22,-89.86 197.27,-94.73"/>
<polygon fill="#63b8ff" stroke="#63b8ff" points="196.29,-98.09 206.84,-97.17 198.02,-91.31 196.29,-98.09"/>
</a>
</g>
</g>
<!-- Node3 -->
<g id="Node000003" class="node">
<title>Node3</title>
<g id="a_Node000003"><a xlink:href="class_persistence_1_1_repositories_1_1_activity_repository.html#a1b261762026aedb65f7591f429fca2b9" target="_top" xlink:title=" ">
<polygon fill="white" stroke="#666666" points="351.5,-79.5 190,-79.5 190,-49 351.5,-49 351.5,-79.5"/>
<text text-anchor="start" x="198" y="-66" font-family="Helvetica,sans-Serif" font-size="10.00">Persistence.Repositories.</text>
<text text-anchor="middle" x="270.75" y="-54.75" font-family="Helvetica,sans-Serif" font-size="10.00">ActivityRepository.GetByIdAsync</text>
</a>
</g>
</g>
<!-- Node1&#45;&gt;Node3 -->
<g id="edge2_Node000001_Node000003" class="edge">
<title>Node1&#45;&gt;Node3</title>
<g id="a_edge2_Node000001_Node000003"><a xlink:title=" ">
<path fill="none" stroke="#63b8ff" d="M154.34,-64.25C162.22,-64.25 170.28,-64.25 178.3,-64.25"/>
<polygon fill="#63b8ff" stroke="#63b8ff" points="178.08,-67.75 188.08,-64.25 178.08,-60.75 178.08,-67.75"/>
</a>
</g>
</g>
<!-- Node4 -->
<g id="Node000004" class="node">
<title>Node4</title>
<g id="a_Node000004"><a xlink:href="class_persistence_1_1_repositories_1_1_activity_repository.html#a6184b114e78c5ab1fe735121344f1d08" target="_top" xlink:title=" ">
<polygon fill="white" stroke="#666666" points="349.25,-30.5 192.25,-30.5 192.25,0 349.25,0 349.25,-30.5"/>
<text text-anchor="start" x="200.25" y="-17" font-family="Helvetica,sans-Serif" font-size="10.00">Persistence.Repositories.</text>
<text text-anchor="middle" x="270.75" y="-5.75" font-family="Helvetica,sans-Serif" font-size="10.00">ActivityRepository.UpdateAsync</text>
</a>
</g>
</g>
<!-- Node1&#45;&gt;Node4 -->
<g id="edge3_Node000001_Node000004" class="edge">
<title>Node1&#45;&gt;Node4</title>
<g id="a_edge3_Node000001_Node000004"><a xlink:title=" ">
<path fill="none" stroke="#63b8ff" d="M139.46,-48.54C157.87,-43.84 178.22,-38.64 197.27,-33.77"/>
<polygon fill="#63b8ff" stroke="#63b8ff" points="198.02,-37.19 206.84,-31.33 196.29,-30.41 198.02,-37.19"/>
</a>
</g>
</g>
</g>
</svg>
