<?xml version="1.0" encoding="UTF-8" standalone="no"?>
<!DOCTYPE svg PUBLIC "-//W3C//DTD SVG 1.1//EN"
 "http://www.w3.org/Graphics/SVG/1.1/DTD/svg11.dtd">
<!-- Generated by graphviz version 9.0.0 (20230911.1827)
 -->
<!-- Title: Application.UseCases.Auth.ForgotPassword.ExecuteAsync Pages: 1 -->
<svg width="573pt" height="98pt"
 viewBox="0.00 0.00 572.75 98.12" xmlns="http://www.w3.org/2000/svg" xmlns:xlink="http://www.w3.org/1999/xlink">
<g id="graph0" class="graph" transform="scale(1 1) rotate(0) translate(4 94.12)">
<title>Application.UseCases.Auth.ForgotPassword.ExecuteAsync</title>
<!-- Node1 -->
<g id="Node000001" class="node">
<title>Node1</title>
<g id="a_Node000001"><a xlink:title=" ">
<polygon fill="#999999" stroke="#666666" points="154,-57.5 0,-57.5 0,-27 154,-27 154,-57.5"/>
<text text-anchor="start" x="8" y="-44" font-family="Helvetica,sans-Serif" font-size="10.00">Application.UseCases.Auth.</text>
<text text-anchor="middle" x="77" y="-32.75" font-family="Helvetica,sans-Serif" font-size="10.00">ForgotPassword.ExecuteAsync</text>
</a>
</g>
</g>
<!-- Node2 -->
<g id="Node000002" class="node">
<title>Node2</title>
<g id="a_Node000002"><a xlink:href="class_application_1_1_validation_1_1_use_case_exception.html#aa0bb937013c6f2f6786ca9ae0fed6f28" target="_top" xlink:title=" ">
<polygon fill="white" stroke="#666666" points="357.12,-90.12 191.12,-90.12 191.12,-48.38 357.12,-48.38 357.12,-90.12"/>
<text text-anchor="start" x="199.12" y="-76.62" font-family="Helvetica,sans-Serif" font-size="10.00">Application.Validation.Use</text>
<text text-anchor="start" x="199.12" y="-65.38" font-family="Helvetica,sans-Serif" font-size="10.00">CaseException.NotFoundEntityBy</text>
<text text-anchor="middle" x="274.12" y="-54.12" font-family="Helvetica,sans-Serif" font-size="10.00">Params</text>
</a>
</g>
</g>
<!-- Node1&#45;&gt;Node2 -->
<g id="edge1_Node000001_Node000002" class="edge">
<title>Node1&#45;&gt;Node2</title>
<g id="a_edge1_Node000001_Node000002"><a xlink:title=" ">
<path fill="none" stroke="#63b8ff" d="M154.28,-52.8C162.6,-53.96 171.14,-55.14 179.64,-56.31"/>
<polygon fill="#63b8ff" stroke="#63b8ff" points="178.89,-59.74 189.27,-57.65 179.85,-52.81 178.89,-59.74"/>
</a>
</g>
</g>
<!-- Node3 -->
<g id="Node000003" class="node">
<title>Node3</title>
<g id="a_Node000003"><a xlink:href="class_application_1_1_validation_1_1_use_case_exception.html#a640987a86719d6afd8278fdbf578ab57" target="_top" xlink:title=" ">
<polygon fill="white" stroke="#666666" points="358.25,-30.5 190,-30.5 190,0 358.25,0 358.25,-30.5"/>
<text text-anchor="start" x="198" y="-17" font-family="Helvetica,sans-Serif" font-size="10.00">Application.Validation.Use</text>
<text text-anchor="middle" x="274.12" y="-5.75" font-family="Helvetica,sans-Serif" font-size="10.00">CaseException.NotInformedParam</text>
</a>
</g>
</g>
<!-- Node1&#45;&gt;Node3 -->
<g id="edge2_Node000001_Node000003" class="edge">
<title>Node1&#45;&gt;Node3</title>
<g id="a_edge2_Node000001_Node000003"><a xlink:title=" ">
<path fill="none" stroke="#63b8ff" d="M154.28,-31.7C162.2,-30.6 170.31,-29.48 178.4,-28.36"/>
<polygon fill="#63b8ff" stroke="#63b8ff" points="178.87,-31.83 188.3,-26.99 177.91,-24.89 178.87,-31.83"/>
</a>
</g>
</g>
<!-- Node4 -->
<g id="Node000004" class="node">
<title>Node4</title>
<g id="a_Node000004"><a xlink:href="class_application_1_1_validation_1_1_use_case_exception.html#ad2defa29da6c9eee2864794300f152ae" target="_top" xlink:title=" ">
<polygon fill="white" stroke="#666666" points="564.75,-30.5 394.25,-30.5 394.25,0 564.75,0 564.75,-30.5"/>
<text text-anchor="start" x="402.25" y="-17" font-family="Helvetica,sans-Serif" font-size="10.00">Application.Validation.Use</text>
<text text-anchor="middle" x="479.5" y="-5.75" font-family="Helvetica,sans-Serif" font-size="10.00">CaseException.UseCaseException</text>
</a>
</g>
</g>
<!-- Node3&#45;&gt;Node4 -->
<g id="edge3_Node000003_Node000004" class="edge">
<title>Node3&#45;&gt;Node4</title>
<g id="a_edge3_Node000003_Node000004"><a xlink:title=" ">
<path fill="none" stroke="#63b8ff" d="M358.73,-15.25C366.62,-15.25 374.66,-15.25 382.66,-15.25"/>
<polygon fill="#63b8ff" stroke="#63b8ff" points="382.39,-18.75 392.39,-15.25 382.39,-11.75 382.39,-18.75"/>
</a>
</g>
</g>
</g>
</svg>
