<?xml version="1.0" encoding="UTF-8" standalone="no"?>
<!DOCTYPE svg PUBLIC "-//W3C//DTD SVG 1.1//EN"
 "http://www.w3.org/Graphics/SVG/1.1/DTD/svg11.dtd">
<!-- Generated by graphviz version 9.0.0 (20230911.1827)
 -->
<!-- Title: Persistence.Repositories.ProjectRepository.DeleteAsync Pages: 1 -->
<svg width="355pt" height="137pt"
 viewBox="0.00 0.00 355.00 136.50" xmlns="http://www.w3.org/2000/svg" xmlns:xlink="http://www.w3.org/1999/xlink">
<g id="graph0" class="graph" transform="scale(1 1) rotate(0) translate(4 132.5)">
<title>Persistence.Repositories.ProjectRepository.DeleteAsync</title>
<!-- Node1 -->
<g id="Node000001" class="node">
<title>Node1</title>
<g id="a_Node000001"><a xlink:title="Remove projeto através do Id informado.">
<polygon fill="#999999" stroke="#666666" points="151.75,-79.5 0,-79.5 0,-49 151.75,-49 151.75,-79.5"/>
<text text-anchor="start" x="8" y="-66" font-family="Helvetica,sans-Serif" font-size="10.00">Persistence.Repositories.</text>
<text text-anchor="middle" x="75.88" y="-54.75" font-family="Helvetica,sans-Serif" font-size="10.00">ProjectRepository.DeleteAsync</text>
</a>
</g>
</g>
<!-- Node2 -->
<g id="Node000002" class="node">
<title>Node2</title>
<g id="a_Node000002"><a xlink:href="class_domain_1_1_entities_1_1_primitives_1_1_entity.html#a3a368e3c302f8622ea0305003ef2a5eb" target="_top" xlink:title=" ">
<polygon fill="white" stroke="#666666" points="335,-128.5 199.75,-128.5 199.75,-98 335,-98 335,-128.5"/>
<text text-anchor="start" x="207.75" y="-115" font-family="Helvetica,sans-Serif" font-size="10.00">Domain.Entities.Primitives.</text>
<text text-anchor="middle" x="267.38" y="-103.75" font-family="Helvetica,sans-Serif" font-size="10.00">Entity.DeactivateEntity</text>
</a>
</g>
</g>
<!-- Node1&#45;&gt;Node2 -->
<g id="edge1_Node000001_Node000002" class="edge">
<title>Node1&#45;&gt;Node2</title>
<g id="a_edge1_Node000001_Node000002"><a xlink:title=" ">
<path fill="none" stroke="#63b8ff" d="M137.62,-79.96C155.81,-84.66 175.92,-89.86 194.75,-94.73"/>
<polygon fill="#63b8ff" stroke="#63b8ff" points="193.63,-98.05 204.19,-97.17 195.38,-91.28 193.63,-98.05"/>
</a>
</g>
</g>
<!-- Node3 -->
<g id="Node000003" class="node">
<title>Node3</title>
<g id="a_Node000003"><a xlink:href="class_persistence_1_1_repositories_1_1_project_repository.html#acf06dfb24c7e5973fcb0b4dfba413ae3" target="_top" xlink:title="Obtém projeto pelo Id informado.">
<polygon fill="white" stroke="#666666" points="347,-79.5 187.75,-79.5 187.75,-49 347,-49 347,-79.5"/>
<text text-anchor="start" x="195.75" y="-66" font-family="Helvetica,sans-Serif" font-size="10.00">Persistence.Repositories.</text>
<text text-anchor="middle" x="267.38" y="-54.75" font-family="Helvetica,sans-Serif" font-size="10.00">ProjectRepository.GetByIdAsync</text>
</a>
</g>
</g>
<!-- Node1&#45;&gt;Node3 -->
<g id="edge2_Node000001_Node000003" class="edge">
<title>Node1&#45;&gt;Node3</title>
<g id="a_edge2_Node000001_Node000003"><a xlink:title=" ">
<path fill="none" stroke="#63b8ff" d="M152.04,-64.25C159.91,-64.25 167.96,-64.25 175.98,-64.25"/>
<polygon fill="#63b8ff" stroke="#63b8ff" points="175.74,-67.75 185.74,-64.25 175.74,-60.75 175.74,-67.75"/>
</a>
</g>
</g>
<!-- Node4 -->
<g id="Node000004" class="node">
<title>Node4</title>
<g id="a_Node000004"><a xlink:href="class_persistence_1_1_repositories_1_1_project_repository.html#a9a3b3f210a29bbbe04eedb4a8acc5737" target="_top" xlink:title="Atualiza projeto conforme parâmetros fornecidos.">
<polygon fill="white" stroke="#666666" points="344.75,-30.5 190,-30.5 190,0 344.75,0 344.75,-30.5"/>
<text text-anchor="start" x="198" y="-17" font-family="Helvetica,sans-Serif" font-size="10.00">Persistence.Repositories.</text>
<text text-anchor="middle" x="267.38" y="-5.75" font-family="Helvetica,sans-Serif" font-size="10.00">ProjectRepository.UpdateAsync</text>
</a>
</g>
</g>
<!-- Node1&#45;&gt;Node4 -->
<g id="edge3_Node000001_Node000004" class="edge">
<title>Node1&#45;&gt;Node4</title>
<g id="a_edge3_Node000001_Node000004"><a xlink:title=" ">
<path fill="none" stroke="#63b8ff" d="M137.62,-48.54C155.81,-43.84 175.92,-38.64 194.75,-33.77"/>
<polygon fill="#63b8ff" stroke="#63b8ff" points="195.38,-37.22 204.19,-31.33 193.63,-30.45 195.38,-37.22"/>
</a>
</g>
</g>
</g>
</svg>
