<?xml version="1.0" encoding="UTF-8" standalone="no"?>
<!DOCTYPE svg PUBLIC "-//W3C//DTD SVG 1.1//EN"
 "http://www.w3.org/Graphics/SVG/1.1/DTD/svg11.dtd">
<!-- Generated by graphviz version 9.0.0 (20230911.1827)
 -->
<!-- Title: Application.UseCases.Student.GetStudentByRegistrationCode.ExecuteAsync Pages: 1 -->
<svg width="639pt" height="98pt"
 viewBox="0.00 0.00 638.75 98.12" xmlns="http://www.w3.org/2000/svg" xmlns:xlink="http://www.w3.org/1999/xlink">
<g id="graph0" class="graph" transform="scale(1 1) rotate(0) translate(4 94.12)">
<title>Application.UseCases.Student.GetStudentByRegistrationCode.ExecuteAsync</title>
<!-- Node1 -->
<g id="Node000001" class="node">
<title>Node1</title>
<g id="a_Node000001"><a xlink:title=" ">
<polygon fill="#999999" stroke="#666666" points="220,-57.5 0,-57.5 0,-27 220,-27 220,-57.5"/>
<text text-anchor="start" x="8" y="-44" font-family="Helvetica,sans-Serif" font-size="10.00">Application.UseCases.Student.</text>
<text text-anchor="middle" x="110" y="-32.75" font-family="Helvetica,sans-Serif" font-size="10.00">GetStudentByRegistrationCode.ExecuteAsync</text>
</a>
</g>
</g>
<!-- Node2 -->
<g id="Node000002" class="node">
<title>Node2</title>
<g id="a_Node000002"><a xlink:href="class_application_1_1_validation_1_1_use_case_exception.html#aa0bb937013c6f2f6786ca9ae0fed6f28" target="_top" xlink:title=" ">
<polygon fill="white" stroke="#666666" points="423.12,-90.12 257.12,-90.12 257.12,-48.38 423.12,-48.38 423.12,-90.12"/>
<text text-anchor="start" x="265.12" y="-76.62" font-family="Helvetica,sans-Serif" font-size="10.00">Application.Validation.Use</text>
<text text-anchor="start" x="265.12" y="-65.38" font-family="Helvetica,sans-Serif" font-size="10.00">CaseException.NotFoundEntityBy</text>
<text text-anchor="middle" x="340.12" y="-54.12" font-family="Helvetica,sans-Serif" font-size="10.00">Params</text>
</a>
</g>
</g>
<!-- Node1&#45;&gt;Node2 -->
<g id="edge1_Node000001_Node000002" class="edge">
<title>Node1&#45;&gt;Node2</title>
<g id="a_edge1_Node000001_Node000002"><a xlink:title=" ">
<path fill="none" stroke="#63b8ff" d="M220.39,-55.2C228.8,-56.19 237.24,-57.19 245.54,-58.17"/>
<polygon fill="#63b8ff" stroke="#63b8ff" points="244.9,-61.62 255.24,-59.32 245.72,-54.67 244.9,-61.62"/>
</a>
</g>
</g>
<!-- Node3 -->
<g id="Node000003" class="node">
<title>Node3</title>
<g id="a_Node000003"><a xlink:href="class_application_1_1_validation_1_1_use_case_exception.html#a640987a86719d6afd8278fdbf578ab57" target="_top" xlink:title=" ">
<polygon fill="white" stroke="#666666" points="424.25,-30.5 256,-30.5 256,0 424.25,0 424.25,-30.5"/>
<text text-anchor="start" x="264" y="-17" font-family="Helvetica,sans-Serif" font-size="10.00">Application.Validation.Use</text>
<text text-anchor="middle" x="340.12" y="-5.75" font-family="Helvetica,sans-Serif" font-size="10.00">CaseException.NotInformedParam</text>
</a>
</g>
</g>
<!-- Node1&#45;&gt;Node3 -->
<g id="edge2_Node000001_Node000003" class="edge">
<title>Node1&#45;&gt;Node3</title>
<g id="a_edge2_Node000001_Node000003"><a xlink:title=" ">
<path fill="none" stroke="#63b8ff" d="M220.39,-29.3C228.47,-28.35 236.58,-27.39 244.57,-26.44"/>
<polygon fill="#63b8ff" stroke="#63b8ff" points="244.73,-29.95 254.24,-25.3 243.9,-23 244.73,-29.95"/>
</a>
</g>
</g>
<!-- Node4 -->
<g id="Node000004" class="node">
<title>Node4</title>
<g id="a_Node000004"><a xlink:href="class_application_1_1_validation_1_1_use_case_exception.html#ad2defa29da6c9eee2864794300f152ae" target="_top" xlink:title=" ">
<polygon fill="white" stroke="#666666" points="630.75,-30.5 460.25,-30.5 460.25,0 630.75,0 630.75,-30.5"/>
<text text-anchor="start" x="468.25" y="-17" font-family="Helvetica,sans-Serif" font-size="10.00">Application.Validation.Use</text>
<text text-anchor="middle" x="545.5" y="-5.75" font-family="Helvetica,sans-Serif" font-size="10.00">CaseException.UseCaseException</text>
</a>
</g>
</g>
<!-- Node3&#45;&gt;Node4 -->
<g id="edge3_Node000003_Node000004" class="edge">
<title>Node3&#45;&gt;Node4</title>
<g id="a_edge3_Node000003_Node000004"><a xlink:title=" ">
<path fill="none" stroke="#63b8ff" d="M424.73,-15.25C432.62,-15.25 440.66,-15.25 448.66,-15.25"/>
<polygon fill="#63b8ff" stroke="#63b8ff" points="448.39,-18.75 458.39,-15.25 448.39,-11.75 448.39,-18.75"/>
</a>
</g>
</g>
</g>
</svg>
