<?xml version="1.0" encoding="UTF-8" standalone="no"?>
<!DOCTYPE svg PUBLIC "-//W3C//DTD SVG 1.1//EN"
 "http://www.w3.org/Graphics/SVG/1.1/DTD/svg11.dtd">
<!-- Generated by graphviz version 9.0.0 (20230911.1827)
 -->
<!-- Title: Application.UseCases.Professor.DeleteProfessor.ExecuteAsync Pages: 1 -->
<svg width="595pt" height="137pt"
 viewBox="0.00 0.00 595.25 136.50" xmlns="http://www.w3.org/2000/svg" xmlns:xlink="http://www.w3.org/1999/xlink">
<g id="graph0" class="graph" transform="scale(1 1) rotate(0) translate(4 132.5)">
<title>Application.UseCases.Professor.DeleteProfessor.ExecuteAsync</title>
<!-- Node1 -->
<g id="Node000001" class="node">
<title>Node1</title>
<g id="a_Node000001"><a xlink:title=" ">
<polygon fill="#999999" stroke="#666666" points="160.75,-79.5 0,-79.5 0,-49 160.75,-49 160.75,-79.5"/>
<text text-anchor="start" x="8" y="-66" font-family="Helvetica,sans-Serif" font-size="10.00">Application.UseCases.Professor.</text>
<text text-anchor="middle" x="80.38" y="-54.75" font-family="Helvetica,sans-Serif" font-size="10.00">DeleteProfessor.ExecuteAsync</text>
</a>
</g>
</g>
<!-- Node2 -->
<g id="Node000002" class="node">
<title>Node2</title>
<g id="a_Node000002"><a xlink:href="class_application_1_1_validation_1_1_use_case_exception.html#abdfb0053369c84d85c471ad55011c4c4" target="_top" xlink:title=" ">
<polygon fill="white" stroke="#666666" points="380.75,-128.5 196.75,-128.5 196.75,-98 380.75,-98 380.75,-128.5"/>
<text text-anchor="start" x="204.75" y="-115" font-family="Helvetica,sans-Serif" font-size="10.00">Application.Validation.Use</text>
<text text-anchor="middle" x="288.75" y="-103.75" font-family="Helvetica,sans-Serif" font-size="10.00">CaseException.BusinessRuleViolation</text>
</a>
</g>
</g>
<!-- Node1&#45;&gt;Node2 -->
<g id="edge1_Node000001_Node000002" class="edge">
<title>Node1&#45;&gt;Node2</title>
<g id="a_edge1_Node000001_Node000002"><a xlink:title=" ">
<path fill="none" stroke="#63b8ff" d="M147.52,-79.96C167.61,-84.73 189.86,-90.01 210.6,-94.93"/>
<polygon fill="#63b8ff" stroke="#63b8ff" points="209.61,-98.29 220.15,-97.2 211.23,-91.48 209.61,-98.29"/>
</a>
</g>
</g>
<!-- Node3 -->
<g id="Node000003" class="node">
<title>Node3</title>
<g id="a_Node000003"><a xlink:href="class_application_1_1_validation_1_1_use_case_exception.html#a6bfcf35154fd3871957a71216a943cba" target="_top" xlink:title=" ">
<polygon fill="white" stroke="#666666" points="375.88,-79.5 201.62,-79.5 201.62,-49 375.88,-49 375.88,-79.5"/>
<text text-anchor="start" x="209.62" y="-66" font-family="Helvetica,sans-Serif" font-size="10.00">Application.Validation.Use</text>
<text text-anchor="middle" x="288.75" y="-54.75" font-family="Helvetica,sans-Serif" font-size="10.00">CaseException.NotFoundEntityById</text>
</a>
</g>
</g>
<!-- Node1&#45;&gt;Node3 -->
<g id="edge2_Node000001_Node000003" class="edge">
<title>Node1&#45;&gt;Node3</title>
<g id="a_edge2_Node000001_Node000003"><a xlink:title=" ">
<path fill="none" stroke="#63b8ff" d="M161.16,-64.25C170.62,-64.25 180.36,-64.25 190.02,-64.25"/>
<polygon fill="#63b8ff" stroke="#63b8ff" points="189.81,-67.75 199.81,-64.25 189.81,-60.75 189.81,-67.75"/>
</a>
</g>
</g>
<!-- Node4 -->
<g id="Node000004" class="node">
<title>Node4</title>
<g id="a_Node000004"><a xlink:href="class_application_1_1_validation_1_1_use_case_exception.html#a640987a86719d6afd8278fdbf578ab57" target="_top" xlink:title=" ">
<polygon fill="white" stroke="#666666" points="372.88,-30.5 204.62,-30.5 204.62,0 372.88,0 372.88,-30.5"/>
<text text-anchor="start" x="212.62" y="-17" font-family="Helvetica,sans-Serif" font-size="10.00">Application.Validation.Use</text>
<text text-anchor="middle" x="288.75" y="-5.75" font-family="Helvetica,sans-Serif" font-size="10.00">CaseException.NotInformedParam</text>
</a>
</g>
</g>
<!-- Node1&#45;&gt;Node4 -->
<g id="edge3_Node000001_Node000004" class="edge">
<title>Node1&#45;&gt;Node4</title>
<g id="a_edge3_Node000001_Node000004"><a xlink:title=" ">
<path fill="none" stroke="#63b8ff" d="M147.52,-48.54C167.61,-43.77 189.86,-38.49 210.6,-33.57"/>
<polygon fill="#63b8ff" stroke="#63b8ff" points="211.23,-37.02 220.15,-31.3 209.61,-30.21 211.23,-37.02"/>
</a>
</g>
</g>
<!-- Node5 -->
<g id="Node000005" class="node">
<title>Node5</title>
<g id="a_Node000005"><a xlink:href="class_application_1_1_validation_1_1_use_case_exception.html#ad2defa29da6c9eee2864794300f152ae" target="_top" xlink:title=" ">
<polygon fill="white" stroke="#666666" points="587.25,-30.5 416.75,-30.5 416.75,0 587.25,0 587.25,-30.5"/>
<text text-anchor="start" x="424.75" y="-17" font-family="Helvetica,sans-Serif" font-size="10.00">Application.Validation.Use</text>
<text text-anchor="middle" x="502" y="-5.75" font-family="Helvetica,sans-Serif" font-size="10.00">CaseException.UseCaseException</text>
</a>
</g>
</g>
<!-- Node4&#45;&gt;Node5 -->
<g id="edge4_Node000004_Node000005" class="edge">
<title>Node4&#45;&gt;Node5</title>
<g id="a_edge4_Node000004_Node000005"><a xlink:title=" ">
<path fill="none" stroke="#63b8ff" d="M373.24,-15.25C383.66,-15.25 394.38,-15.25 404.97,-15.25"/>
<polygon fill="#63b8ff" stroke="#63b8ff" points="404.87,-18.75 414.87,-15.25 404.87,-11.75 404.87,-18.75"/>
</a>
</g>
</g>
</g>
</svg>
