<?xml version="1.0" encoding="UTF-8" standalone="no"?>
<!DOCTYPE svg PUBLIC "-//W3C//DTD SVG 1.1//EN"
 "http://www.w3.org/Graphics/SVG/1.1/DTD/svg11.dtd">
<!-- Generated by graphviz version 9.0.0 (20230911.1827)
 -->
<!-- Title: Representação gráfica da hiearquia da classe Pages: 1 -->
<svg width="342pt" height="186pt"
 viewBox="0.00 0.00 341.50 185.50" xmlns="http://www.w3.org/2000/svg" xmlns:xlink="http://www.w3.org/1999/xlink">
<g id="graph0" class="graph" transform="scale(1 1) rotate(0) translate(4 181.5)">
<title>Representação gráfica da hiearquia da classe</title>
<!-- Node0 -->
<g id="Node000000" class="node">
<title>Node0</title>
<g id="a_Node000000"><a xlink:href="class_application_1_1_ports_1_1_area_1_1_base_area_contract.html" target="_top" xlink:title=" ">
<polygon fill="white" stroke="#666666" points="139,-103.5 0,-103.5 0,-73 139,-73 139,-103.5"/>
<text text-anchor="start" x="8" y="-90" font-family="Helvetica,sans-Serif" font-size="10.00">Application.Ports.Area.Base</text>
<text text-anchor="middle" x="69.5" y="-78.75" font-family="Helvetica,sans-Serif" font-size="10.00">AreaContract</text>
</a>
</g>
</g>
<!-- Node1 -->
<g id="Node000001" class="node">
<title>Node1</title>
<g id="a_Node000001"><a xlink:href="class_application_1_1_ports_1_1_area_1_1_create_area_input.html" target="_top" xlink:title=" ">
<polygon fill="white" stroke="#666666" points="327.12,-177.5 181.38,-177.5 181.38,-147 327.12,-147 327.12,-177.5"/>
<text text-anchor="start" x="189.38" y="-164" font-family="Helvetica,sans-Serif" font-size="10.00">Application.Ports.Area.Create</text>
<text text-anchor="middle" x="254.25" y="-152.75" font-family="Helvetica,sans-Serif" font-size="10.00">AreaInput</text>
</a>
</g>
</g>
<!-- Node0&#45;&gt;Node1 -->
<g id="edge103_Node000000_Node000001" class="edge">
<title>Node0&#45;&gt;Node1</title>
<g id="a_edge103_Node000000_Node000001"><a xlink:title=" ">
<path fill="none" stroke="#63b8ff" d="M111.28,-108.87C130.38,-118.14 153.59,-128.85 175,-137.25 183.23,-140.48 192.07,-143.61 200.73,-146.5"/>
<polygon fill="#63b8ff" stroke="#63b8ff" points="113.01,-105.82 102.49,-104.56 109.93,-112.11 113.01,-105.82"/>
</a>
</g>
</g>
<!-- Node2 -->
<g id="Node000002" class="node">
<title>Node2</title>
<g id="a_Node000002"><a xlink:href="class_application_1_1_ports_1_1_area_1_1_detailed_read_area_output.html" target="_top" xlink:title=" ">
<polygon fill="white" stroke="#666666" points="330.5,-128.5 178,-128.5 178,-98 330.5,-98 330.5,-128.5"/>
<text text-anchor="start" x="186" y="-115" font-family="Helvetica,sans-Serif" font-size="10.00">Application.Ports.Area.Detailed</text>
<text text-anchor="middle" x="254.25" y="-103.75" font-family="Helvetica,sans-Serif" font-size="10.00">ReadAreaOutput</text>
</a>
</g>
</g>
<!-- Node0&#45;&gt;Node2 -->
<g id="edge104_Node000000_Node000002" class="edge">
<title>Node0&#45;&gt;Node2</title>
<g id="a_edge104_Node000000_Node000002"><a xlink:title=" ">
<path fill="none" stroke="#63b8ff" d="M150.64,-99.21C159.65,-100.45 168.81,-101.7 177.75,-102.92"/>
<polygon fill="#63b8ff" stroke="#63b8ff" points="151.21,-95.76 140.83,-97.87 150.26,-102.69 151.21,-95.76"/>
</a>
</g>
</g>
<!-- Node3 -->
<g id="Node000003" class="node">
<title>Node3</title>
<g id="a_Node000003"><a xlink:href="class_application_1_1_ports_1_1_area_1_1_resumed_read_area_output.html" target="_top" xlink:title=" ">
<polygon fill="white" stroke="#666666" points="333.5,-79.5 175,-79.5 175,-49 333.5,-49 333.5,-79.5"/>
<text text-anchor="start" x="183" y="-66" font-family="Helvetica,sans-Serif" font-size="10.00">Application.Ports.Area.Resumed</text>
<text text-anchor="middle" x="254.25" y="-54.75" font-family="Helvetica,sans-Serif" font-size="10.00">ReadAreaOutput</text>
</a>
</g>
</g>
<!-- Node0&#45;&gt;Node3 -->
<g id="edge105_Node000000_Node000003" class="edge">
<title>Node0&#45;&gt;Node3</title>
<g id="a_edge105_Node000000_Node000003"><a xlink:title=" ">
<path fill="none" stroke="#63b8ff" d="M150.54,-77.74C158.55,-76.69 166.68,-75.62 174.67,-74.57"/>
<polygon fill="#63b8ff" stroke="#63b8ff" points="150.29,-74.24 140.83,-79.01 151.2,-81.18 150.29,-74.24"/>
</a>
</g>
</g>
<!-- Node4 -->
<g id="Node000004" class="node">
<title>Node4</title>
<g id="a_Node000004"><a xlink:href="class_application_1_1_ports_1_1_area_1_1_update_area_input.html" target="_top" xlink:title=" ">
<polygon fill="white" stroke="#666666" points="328.25,-30.5 180.25,-30.5 180.25,0 328.25,0 328.25,-30.5"/>
<text text-anchor="start" x="188.25" y="-17" font-family="Helvetica,sans-Serif" font-size="10.00">Application.Ports.Area.Update</text>
<text text-anchor="middle" x="254.25" y="-5.75" font-family="Helvetica,sans-Serif" font-size="10.00">AreaInput</text>
</a>
</g>
</g>
<!-- Node0&#45;&gt;Node4 -->
<g id="edge106_Node000000_Node000004" class="edge">
<title>Node0&#45;&gt;Node4</title>
<g id="a_edge106_Node000000_Node000004"><a xlink:title=" ">
<path fill="none" stroke="#63b8ff" d="M112.43,-67.58C131.33,-58.63 154.05,-48.37 175,-40.25 183.38,-37 192.37,-33.84 201.17,-30.91"/>
<polygon fill="#63b8ff" stroke="#63b8ff" points="110.96,-64.4 103.45,-71.87 113.98,-70.72 110.96,-64.4"/>
</a>
</g>
</g>
</g>
</svg>
