<?xml version="1.0" encoding="UTF-8" standalone="no"?>
<!DOCTYPE svg PUBLIC "-//W3C//DTD SVG 1.1//EN"
 "http://www.w3.org/Graphics/SVG/1.1/DTD/svg11.dtd">
<!-- Generated by graphviz version 9.0.0 (20230911.1827)
 -->
<!-- Title: Representação gráfica da hiearquia da classe Pages: 1 -->
<svg width="326pt" height="186pt"
 viewBox="0.00 0.00 325.75 185.50" xmlns="http://www.w3.org/2000/svg" xmlns:xlink="http://www.w3.org/1999/xlink">
<g id="graph0" class="graph" transform="scale(1 1) rotate(0) translate(4 181.5)">
<title>Representação gráfica da hiearquia da classe</title>
<!-- Node0 -->
<g id="Node000000" class="node">
<title>Node0</title>
<g id="a_Node000000"><a xlink:href="class_application_1_1_ports_1_1_sub_area_1_1_base_sub_area_contract.html" target="_top" xlink:title=" ">
<polygon fill="white" stroke="#666666" points="133.75,-103.5 0,-103.5 0,-73 133.75,-73 133.75,-103.5"/>
<text text-anchor="start" x="8" y="-90" font-family="Helvetica,sans-Serif" font-size="10.00">Application.Ports.SubArea.</text>
<text text-anchor="middle" x="66.88" y="-78.75" font-family="Helvetica,sans-Serif" font-size="10.00">BaseSubAreaContract</text>
</a>
</g>
</g>
<!-- Node1 -->
<g id="Node000001" class="node">
<title>Node1</title>
<g id="a_Node000001"><a xlink:href="class_application_1_1_ports_1_1_sub_area_1_1_create_sub_area_input.html" target="_top" xlink:title=" ">
<polygon fill="white" stroke="#666666" points="310.62,-177.5 176.88,-177.5 176.88,-147 310.62,-147 310.62,-177.5"/>
<text text-anchor="start" x="184.88" y="-164" font-family="Helvetica,sans-Serif" font-size="10.00">Application.Ports.SubArea.</text>
<text text-anchor="middle" x="243.75" y="-152.75" font-family="Helvetica,sans-Serif" font-size="10.00">CreateSubAreaInput</text>
</a>
</g>
</g>
<!-- Node0&#45;&gt;Node1 -->
<g id="edge152_Node000000_Node000001" class="edge">
<title>Node0&#45;&gt;Node1</title>
<g id="a_edge152_Node000000_Node000001"><a xlink:title=" ">
<path fill="none" stroke="#63b8ff" d="M107.92,-108.87C126.5,-118.08 149.01,-128.75 169.75,-137.25 177.56,-140.45 185.95,-143.59 194.15,-146.51"/>
<polygon fill="#63b8ff" stroke="#63b8ff" points="109.63,-105.81 99.12,-104.46 106.49,-112.06 109.63,-105.81"/>
</a>
</g>
</g>
<!-- Node2 -->
<g id="Node000002" class="node">
<title>Node2</title>
<g id="a_Node000002"><a xlink:href="class_application_1_1_ports_1_1_sub_area_1_1_detailed_read_sub_area_output.html" target="_top" xlink:title=" ">
<polygon fill="white" stroke="#666666" points="314.75,-128.5 172.75,-128.5 172.75,-98 314.75,-98 314.75,-128.5"/>
<text text-anchor="start" x="180.75" y="-115" font-family="Helvetica,sans-Serif" font-size="10.00">Application.Ports.SubArea.</text>
<text text-anchor="middle" x="243.75" y="-103.75" font-family="Helvetica,sans-Serif" font-size="10.00">DetailedReadSubAreaOutput</text>
</a>
</g>
</g>
<!-- Node0&#45;&gt;Node2 -->
<g id="edge153_Node000000_Node000002" class="edge">
<title>Node0&#45;&gt;Node2</title>
<g id="a_edge153_Node000000_Node000002"><a xlink:title=" ">
<path fill="none" stroke="#63b8ff" d="M145.32,-99.32C154.36,-100.61 163.53,-101.93 172.46,-103.2"/>
<polygon fill="#63b8ff" stroke="#63b8ff" points="145.88,-95.87 135.49,-97.92 144.89,-102.8 145.88,-95.87"/>
</a>
</g>
</g>
<!-- Node3 -->
<g id="Node000003" class="node">
<title>Node3</title>
<g id="a_Node000003"><a xlink:href="class_application_1_1_ports_1_1_sub_area_1_1_resumed_read_sub_area_output.html" target="_top" xlink:title=" ">
<polygon fill="white" stroke="#666666" points="317.75,-79.5 169.75,-79.5 169.75,-49 317.75,-49 317.75,-79.5"/>
<text text-anchor="start" x="177.75" y="-66" font-family="Helvetica,sans-Serif" font-size="10.00">Application.Ports.SubArea.</text>
<text text-anchor="middle" x="243.75" y="-54.75" font-family="Helvetica,sans-Serif" font-size="10.00">ResumedReadSubAreaOutput</text>
</a>
</g>
</g>
<!-- Node0&#45;&gt;Node3 -->
<g id="edge154_Node000000_Node000003" class="edge">
<title>Node0&#45;&gt;Node3</title>
<g id="a_edge154_Node000000_Node000003"><a xlink:title=" ">
<path fill="none" stroke="#63b8ff" d="M145.28,-77.63C153.34,-76.52 161.51,-75.4 169.52,-74.3"/>
<polygon fill="#63b8ff" stroke="#63b8ff" points="144.92,-74.14 135.49,-78.97 145.87,-81.08 144.92,-74.14"/>
</a>
</g>
</g>
<!-- Node4 -->
<g id="Node000004" class="node">
<title>Node4</title>
<g id="a_Node000004"><a xlink:href="class_application_1_1_ports_1_1_sub_area_1_1_update_sub_area_input.html" target="_top" xlink:title=" ">
<polygon fill="white" stroke="#666666" points="310.62,-30.5 176.88,-30.5 176.88,0 310.62,0 310.62,-30.5"/>
<text text-anchor="start" x="184.88" y="-17" font-family="Helvetica,sans-Serif" font-size="10.00">Application.Ports.SubArea.</text>
<text text-anchor="middle" x="243.75" y="-5.75" font-family="Helvetica,sans-Serif" font-size="10.00">UpdateSubAreaInput</text>
</a>
</g>
</g>
<!-- Node0&#45;&gt;Node4 -->
<g id="edge155_Node000000_Node000004" class="edge">
<title>Node0&#45;&gt;Node4</title>
<g id="a_edge155_Node000000_Node000004"><a xlink:title=" ">
<path fill="none" stroke="#63b8ff" d="M108.79,-67.71C127.21,-58.79 149.36,-48.52 169.75,-40.25 177.7,-37.03 186.23,-33.86 194.56,-30.91"/>
<polygon fill="#63b8ff" stroke="#63b8ff" points="107.5,-64.44 100.05,-71.98 110.57,-70.73 107.5,-64.44"/>
</a>
</g>
</g>
</g>
</svg>
