<?xml version="1.0" encoding="UTF-8" standalone="no"?>
<!DOCTYPE svg PUBLIC "-//W3C//DTD SVG 1.1//EN"
 "http://www.w3.org/Graphics/SVG/1.1/DTD/svg11.dtd">
<!-- Generated by graphviz version 9.0.0 (20230911.1827)
 -->
<!-- Title: Representação gráfica da hiearquia da classe Pages: 1 -->
<svg width="376pt" height="974pt"
 viewBox="0.00 0.00 376.00 973.50" xmlns="http://www.w3.org/2000/svg" xmlns:xlink="http://www.w3.org/1999/xlink">
<g id="graph0" class="graph" transform="scale(1 1) rotate(0) translate(4 969.5)">
<title>Representação gráfica da hiearquia da classe</title>
<!-- Node0 -->
<g id="Node000000" class="node">
<title>Node0</title>
<g id="a_Node000000"><a xlink:title=" ">
<polygon fill="#e0e0e0" stroke="#999999" points="123.25,-470.88 0,-470.88 0,-451.62 123.25,-451.62 123.25,-470.88"/>
<text text-anchor="middle" x="61.62" y="-457.38" font-family="Helvetica,sans-Serif" font-size="10.00">IEntityTypeConfiguration</text>
</a>
</g>
</g>
<!-- Node1 -->
<g id="Node000001" class="node">
<title>Node1</title>
<g id="a_Node000001"><a xlink:href="class_infrastructure_1_1_persistence_1_1_entities_configuration_1_1_area_configuration.html" target="_top" xlink:title=" ">
<polygon fill="white" stroke="#666666" points="357.5,-965.5 169.75,-965.5 169.75,-935 357.5,-935 357.5,-965.5"/>
<text text-anchor="start" x="177.75" y="-952" font-family="Helvetica,sans-Serif" font-size="10.00">Infrastructure.Persistence.</text>
<text text-anchor="middle" x="263.62" y="-940.75" font-family="Helvetica,sans-Serif" font-size="10.00">EntitiesConfiguration.AreaConfiguration</text>
</a>
</g>
</g>
<!-- Node0&#45;&gt;Node1 -->
<g id="edge238_Node000000_Node000001" class="edge">
<title>Node0&#45;&gt;Node1</title>
<g id="a_edge238_Node000000_Node000001"><a xlink:title=" ">
<path fill="none" stroke="#63b8ff" d="M64.08,-482.69C70.12,-565.28 95.94,-861.45 159.25,-926.25 162.34,-929.41 165.76,-932.19 169.42,-934.64"/>
<polygon fill="#63b8ff" stroke="#63b8ff" points="67.58,-482.57 63.38,-472.85 60.6,-483.07 67.58,-482.57"/>
</a>
</g>
</g>
<!-- Node2 -->
<g id="Node000002" class="node">
<title>Node2</title>
<g id="a_Node000002"><a xlink:href="class_infrastructure_1_1_persistence_1_1_entities_configuration_1_1_assistance_type_configuration.html" target="_top" xlink:title=" ">
<polygon fill="white" stroke="#666666" points="342.88,-917.12 184.38,-917.12 184.38,-875.38 342.88,-875.38 342.88,-917.12"/>
<text text-anchor="start" x="192.38" y="-903.62" font-family="Helvetica,sans-Serif" font-size="10.00">Infrastructure.Persistence.</text>
<text text-anchor="start" x="192.38" y="-892.38" font-family="Helvetica,sans-Serif" font-size="10.00">EntitiesConfiguration.Assistance</text>
<text text-anchor="middle" x="263.62" y="-881.12" font-family="Helvetica,sans-Serif" font-size="10.00">TypeConfiguration</text>
</a>
</g>
</g>
<!-- Node0&#45;&gt;Node2 -->
<g id="edge239_Node000000_Node000002" class="edge">
<title>Node0&#45;&gt;Node2</title>
<g id="a_edge239_Node000000_Node000002"><a xlink:title=" ">
<path fill="none" stroke="#63b8ff" d="M64.85,-482.19C73.21,-556.97 105.04,-809.36 159.25,-866.25 166.21,-873.56 174.84,-879.11 184.11,-883.34"/>
<polygon fill="#63b8ff" stroke="#63b8ff" points="68.37,-482.14 63.8,-472.58 61.41,-482.9 68.37,-482.14"/>
</a>
</g>
</g>
<!-- Node3 -->
<g id="Node000003" class="node">
<title>Node3</title>
<g id="a_Node000003"><a xlink:href="class_infrastructure_1_1_persistence_1_1_entities_configuration_1_1_campus_configuration.html" target="_top" xlink:title=" ">
<polygon fill="white" stroke="#666666" points="365.75,-857.5 161.5,-857.5 161.5,-827 365.75,-827 365.75,-857.5"/>
<text text-anchor="start" x="169.5" y="-844" font-family="Helvetica,sans-Serif" font-size="10.00">Infrastructure.Persistence.</text>
<text text-anchor="middle" x="263.62" y="-832.75" font-family="Helvetica,sans-Serif" font-size="10.00">EntitiesConfiguration.CampusConfiguration</text>
</a>
</g>
</g>
<!-- Node0&#45;&gt;Node3 -->
<g id="edge240_Node000000_Node000003" class="edge">
<title>Node0&#45;&gt;Node3</title>
<g id="a_edge240_Node000000_Node000003"><a xlink:title=" ">
<path fill="none" stroke="#63b8ff" d="M65.52,-482.37C75.4,-551.5 109.98,-769.33 159.25,-817.25 162.96,-820.85 167.09,-823.97 171.51,-826.66"/>
<polygon fill="#63b8ff" stroke="#63b8ff" points="69.03,-482.18 64.17,-472.77 62.09,-483.16 69.03,-482.18"/>
</a>
</g>
</g>
<!-- Node4 -->
<g id="Node000004" class="node">
<title>Node4</title>
<g id="a_Node000004"><a xlink:href="class_infrastructure_1_1_persistence_1_1_entities_configuration_1_1_course_configuration.html" target="_top" xlink:title=" ">
<polygon fill="white" stroke="#666666" points="363.12,-808.5 164.12,-808.5 164.12,-778 363.12,-778 363.12,-808.5"/>
<text text-anchor="start" x="172.12" y="-795" font-family="Helvetica,sans-Serif" font-size="10.00">Infrastructure.Persistence.</text>
<text text-anchor="middle" x="263.62" y="-783.75" font-family="Helvetica,sans-Serif" font-size="10.00">EntitiesConfiguration.CourseConfiguration</text>
</a>
</g>
</g>
<!-- Node0&#45;&gt;Node4 -->
<g id="edge241_Node000000_Node000004" class="edge">
<title>Node0&#45;&gt;Node4</title>
<g id="a_edge241_Node000000_Node000004"><a xlink:title=" ">
<path fill="none" stroke="#63b8ff" d="M62.61,-482.47C63.79,-538.14 74.98,-689.5 159.25,-768.25 163.16,-771.91 167.51,-775.05 172.16,-777.76"/>
<polygon fill="#63b8ff" stroke="#63b8ff" points="66.11,-482.76 62.51,-472.8 59.12,-482.84 66.11,-482.76"/>
</a>
</g>
</g>
<!-- Node5 -->
<g id="Node000005" class="node">
<title>Node5</title>
<g id="a_Node000005"><a xlink:href="class_infrastructure_1_1_persistence_1_1_entities_configuration_1_1_main_area_configuration.html" target="_top" xlink:title=" ">
<polygon fill="white" stroke="#666666" points="368,-759.5 159.25,-759.5 159.25,-729 368,-729 368,-759.5"/>
<text text-anchor="start" x="167.25" y="-746" font-family="Helvetica,sans-Serif" font-size="10.00">Infrastructure.Persistence.</text>
<text text-anchor="middle" x="263.62" y="-734.75" font-family="Helvetica,sans-Serif" font-size="10.00">EntitiesConfiguration.MainAreaConfiguration</text>
</a>
</g>
</g>
<!-- Node0&#45;&gt;Node5 -->
<g id="edge242_Node000000_Node000005" class="edge">
<title>Node0&#45;&gt;Node5</title>
<g id="a_edge242_Node000000_Node000005"><a xlink:title=" ">
<path fill="none" stroke="#63b8ff" d="M64.09,-482.67C68.67,-532.21 87.11,-655.35 159.25,-719.25 163.26,-722.8 167.69,-725.87 172.38,-728.51"/>
<polygon fill="#63b8ff" stroke="#63b8ff" points="67.58,-482.44 63.29,-472.75 60.6,-483 67.58,-482.44"/>
</a>
</g>
</g>
<!-- Node6 -->
<g id="Node000006" class="node">
<title>Node6</title>
<g id="a_Node000006"><a xlink:href="class_infrastructure_1_1_persistence_1_1_entities_configuration_1_1_notice_configuration.html" target="_top" xlink:title=" ">
<polygon fill="white" stroke="#666666" points="361.62,-710.5 165.62,-710.5 165.62,-680 361.62,-680 361.62,-710.5"/>
<text text-anchor="start" x="173.62" y="-697" font-family="Helvetica,sans-Serif" font-size="10.00">Infrastructure.Persistence.</text>
<text text-anchor="middle" x="263.62" y="-685.75" font-family="Helvetica,sans-Serif" font-size="10.00">EntitiesConfiguration.NoticeConfiguration</text>
</a>
</g>
</g>
<!-- Node0&#45;&gt;Node6 -->
<g id="edge243_Node000000_Node000006" class="edge">
<title>Node0&#45;&gt;Node6</title>
<g id="a_edge243_Node000000_Node000006"><a xlink:title=" ">
<path fill="none" stroke="#63b8ff" d="M65.99,-482.15C73.99,-524.69 98.22,-621.51 159.25,-671.25 163.11,-674.39 167.3,-677.14 171.71,-679.54"/>
<polygon fill="#63b8ff" stroke="#63b8ff" points="69.48,-481.76 64.3,-472.51 62.58,-482.96 69.48,-481.76"/>
</a>
</g>
</g>
<!-- Node7 -->
<g id="Node000007" class="node">
<title>Node7</title>
<g id="a_Node000007"><a xlink:href="class_infrastructure_1_1_persistence_1_1_entities_configuration_1_1_professor_configuration.html" target="_top" xlink:title=" ">
<polygon fill="white" stroke="#666666" points="339.5,-662.12 187.75,-662.12 187.75,-620.38 339.5,-620.38 339.5,-662.12"/>
<text text-anchor="start" x="195.75" y="-648.62" font-family="Helvetica,sans-Serif" font-size="10.00">Infrastructure.Persistence.</text>
<text text-anchor="start" x="195.75" y="-637.38" font-family="Helvetica,sans-Serif" font-size="10.00">EntitiesConfiguration.Professor</text>
<text text-anchor="middle" x="263.62" y="-626.12" font-family="Helvetica,sans-Serif" font-size="10.00">Configuration</text>
</a>
</g>
</g>
<!-- Node0&#45;&gt;Node7 -->
<g id="edge244_Node000000_Node000007" class="edge">
<title>Node0&#45;&gt;Node7</title>
<g id="a_edge244_Node000000_Node000007"><a xlink:title=" ">
<path fill="none" stroke="#63b8ff" d="M70.14,-481.43C83.22,-513.75 113.24,-576.96 159.25,-611.25 167.64,-617.5 177.31,-622.46 187.29,-626.38"/>
<polygon fill="#63b8ff" stroke="#63b8ff" points="73.53,-480.49 66.64,-472.44 67.01,-483.03 73.53,-480.49"/>
</a>
</g>
</g>
<!-- Node8 -->
<g id="Node000008" class="node">
<title>Node8</title>
<g id="a_Node000008"><a xlink:href="class_infrastructure_1_1_persistence_1_1_entities_configuration_1_1_program_type_configuration.html" target="_top" xlink:title=" ">
<polygon fill="white" stroke="#666666" points="347.38,-602.12 179.88,-602.12 179.88,-560.38 347.38,-560.38 347.38,-602.12"/>
<text text-anchor="start" x="187.88" y="-588.62" font-family="Helvetica,sans-Serif" font-size="10.00">Infrastructure.Persistence.</text>
<text text-anchor="start" x="187.88" y="-577.38" font-family="Helvetica,sans-Serif" font-size="10.00">EntitiesConfiguration.ProgramType</text>
<text text-anchor="middle" x="263.62" y="-566.12" font-family="Helvetica,sans-Serif" font-size="10.00">Configuration</text>
</a>
</g>
</g>
<!-- Node0&#45;&gt;Node8 -->
<g id="edge245_Node000000_Node000008" class="edge">
<title>Node0&#45;&gt;Node8</title>
<g id="a_edge245_Node000000_Node000008"><a xlink:title=" ">
<path fill="none" stroke="#63b8ff" d="M77.86,-479.93C95.44,-500.3 126.2,-532.5 159.25,-551.25 165.59,-554.85 172.4,-558.04 179.38,-560.88"/>
<polygon fill="#63b8ff" stroke="#63b8ff" points="80.64,-477.79 71.52,-472.4 75.29,-482.3 80.64,-477.79"/>
</a>
</g>
</g>
<!-- Node9 -->
<g id="Node000009" class="node">
<title>Node9</title>
<g id="a_Node000009"><a xlink:href="class_infrastructure_1_1_persistence_1_1_entities_configuration_1_1_project_final_report_configuration.html" target="_top" xlink:title=" ">
<polygon fill="white" stroke="#666666" points="344.38,-542.12 182.88,-542.12 182.88,-500.38 344.38,-500.38 344.38,-542.12"/>
<text text-anchor="start" x="190.88" y="-528.62" font-family="Helvetica,sans-Serif" font-size="10.00">Infrastructure.Persistence.</text>
<text text-anchor="start" x="190.88" y="-517.38" font-family="Helvetica,sans-Serif" font-size="10.00">EntitiesConfiguration.ProjectFinal</text>
<text text-anchor="middle" x="263.62" y="-506.12" font-family="Helvetica,sans-Serif" font-size="10.00">ReportConfiguration</text>
</a>
</g>
</g>
<!-- Node0&#45;&gt;Node9 -->
<g id="edge246_Node000000_Node000009" class="edge">
<title>Node0&#45;&gt;Node9</title>
<g id="a_edge246_Node000000_Node000009"><a xlink:title=" ">
<path fill="none" stroke="#63b8ff" d="M104.99,-474.59C121.85,-479.85 141.45,-485.9 159.25,-491.25 168.74,-494.1 178.72,-497.05 188.6,-499.95"/>
<polygon fill="#63b8ff" stroke="#63b8ff" points="106.38,-471.36 95.79,-471.71 104.29,-478.04 106.38,-471.36"/>
</a>
</g>
</g>
<!-- Node10 -->
<g id="Node000010" class="node">
<title>Node10</title>
<g id="a_Node000010"><a xlink:href="class_infrastructure_1_1_persistence_1_1_entities_configuration_1_1_project_partial_report_configuration.html" target="_top" xlink:title=" ">
<polygon fill="white" stroke="#666666" points="347.75,-482.12 179.5,-482.12 179.5,-440.38 347.75,-440.38 347.75,-482.12"/>
<text text-anchor="start" x="187.5" y="-468.62" font-family="Helvetica,sans-Serif" font-size="10.00">Infrastructure.Persistence.</text>
<text text-anchor="start" x="187.5" y="-457.38" font-family="Helvetica,sans-Serif" font-size="10.00">EntitiesConfiguration.ProjectPartial</text>
<text text-anchor="middle" x="263.62" y="-446.12" font-family="Helvetica,sans-Serif" font-size="10.00">ReportConfiguration</text>
</a>
</g>
</g>
<!-- Node0&#45;&gt;Node10 -->
<g id="edge247_Node000000_Node000010" class="edge">
<title>Node0&#45;&gt;Node10</title>
<g id="a_edge247_Node000000_Node000010"><a xlink:title=" ">
<path fill="none" stroke="#63b8ff" d="M134.99,-461.25C149.3,-461.25 164.43,-461.25 179.07,-461.25"/>
<polygon fill="#63b8ff" stroke="#63b8ff" points="135.23,-457.75 125.23,-461.25 135.23,-464.75 135.23,-457.75"/>
</a>
</g>
</g>
<!-- Node11 -->
<g id="Node000011" class="node">
<title>Node11</title>
<g id="a_Node000011"><a xlink:href="class_infrastructure_1_1_persistence_1_1_entities_configuration_1_1_student_configuration.html" target="_top" xlink:title=" ">
<polygon fill="white" stroke="#666666" points="364.25,-422.5 163,-422.5 163,-392 364.25,-392 364.25,-422.5"/>
<text text-anchor="start" x="171" y="-409" font-family="Helvetica,sans-Serif" font-size="10.00">Infrastructure.Persistence.</text>
<text text-anchor="middle" x="263.62" y="-397.75" font-family="Helvetica,sans-Serif" font-size="10.00">EntitiesConfiguration.StudentConfiguration</text>
</a>
</g>
</g>
<!-- Node0&#45;&gt;Node11 -->
<g id="edge248_Node000000_Node000011" class="edge">
<title>Node0&#45;&gt;Node11</title>
<g id="a_edge248_Node000000_Node000011"><a xlink:title=" ">
<path fill="none" stroke="#63b8ff" d="M103.68,-447.78C120.78,-442.36 140.89,-436.22 159.25,-431.25 169.74,-428.41 180.89,-425.6 191.83,-422.96"/>
<polygon fill="#63b8ff" stroke="#63b8ff" points="102.82,-444.38 94.36,-450.76 104.95,-451.05 102.82,-444.38"/>
</a>
</g>
</g>
<!-- Node12 -->
<g id="Node000012" class="node">
<title>Node12</title>
<g id="a_Node000012"><a xlink:href="class_infrastructure_1_1_persistence_1_1_entities_configuration_1_1_sub_area_configuration.html" target="_top" xlink:title=" ">
<polygon fill="white" stroke="#666666" points="366.12,-373.5 161.12,-373.5 161.12,-343 366.12,-343 366.12,-373.5"/>
<text text-anchor="start" x="169.12" y="-360" font-family="Helvetica,sans-Serif" font-size="10.00">Infrastructure.Persistence.</text>
<text text-anchor="middle" x="263.62" y="-348.75" font-family="Helvetica,sans-Serif" font-size="10.00">EntitiesConfiguration.SubAreaConfiguration</text>
</a>
</g>
</g>
<!-- Node0&#45;&gt;Node12 -->
<g id="edge249_Node000000_Node000012" class="edge">
<title>Node0&#45;&gt;Node12</title>
<g id="a_edge249_Node000000_Node000012"><a xlink:title=" ">
<path fill="none" stroke="#63b8ff" d="M79.91,-443.24C98.04,-425.4 128.18,-398.58 159.25,-383.25 166.45,-379.7 174.19,-376.63 182.08,-373.99"/>
<polygon fill="#63b8ff" stroke="#63b8ff" points="77.65,-440.55 73.09,-450.12 82.61,-445.48 77.65,-440.55"/>
</a>
</g>
</g>
<!-- Node13 -->
<g id="Node000013" class="node">
<title>Node13</title>
<g id="a_Node000013"><a xlink:href="class_infrastructure_1_1_persistence_1_1_entities_configuration_1_1_user_configuration.html" target="_top" xlink:title=" ">
<polygon fill="white" stroke="#666666" points="357.88,-324.5 169.38,-324.5 169.38,-294 357.88,-294 357.88,-324.5"/>
<text text-anchor="start" x="177.38" y="-311" font-family="Helvetica,sans-Serif" font-size="10.00">Infrastructure.Persistence.</text>
<text text-anchor="middle" x="263.62" y="-299.75" font-family="Helvetica,sans-Serif" font-size="10.00">EntitiesConfiguration.UserConfiguration</text>
</a>
</g>
</g>
<!-- Node0&#45;&gt;Node13 -->
<g id="edge250_Node000000_Node000013" class="edge">
<title>Node0&#45;&gt;Node13</title>
<g id="a_edge250_Node000000_Node000013"><a xlink:title=" ">
<path fill="none" stroke="#63b8ff" d="M72.27,-441.16C86.96,-412.78 117.69,-361.41 159.25,-334.25 164.74,-330.66 170.69,-327.59 176.87,-324.96"/>
<polygon fill="#63b8ff" stroke="#63b8ff" points="69.3,-439.27 67.96,-449.78 75.56,-442.4 69.3,-439.27"/>
</a>
</g>
</g>
<!-- Node14 -->
<g id="Node000014" class="node">
<title>Node14</title>
<g id="a_Node000014"><a xlink:href="class_persistence_1_1_entities_configuration_1_1_activity_configuration.html" target="_top" xlink:title=" ">
<polygon fill="white" stroke="#666666" points="345.88,-275.5 181.38,-275.5 181.38,-245 345.88,-245 345.88,-275.5"/>
<text text-anchor="start" x="189.38" y="-262" font-family="Helvetica,sans-Serif" font-size="10.00">Persistence.EntitiesConfiguration.</text>
<text text-anchor="middle" x="263.62" y="-250.75" font-family="Helvetica,sans-Serif" font-size="10.00">ActivityConfiguration</text>
</a>
</g>
</g>
<!-- Node0&#45;&gt;Node14 -->
<g id="edge251_Node000000_Node000014" class="edge">
<title>Node0&#45;&gt;Node14</title>
<g id="a_edge251_Node000000_Node000014"><a xlink:title=" ">
<path fill="none" stroke="#63b8ff" d="M68.01,-440.49C78.76,-403.33 106.52,-325.59 159.25,-285.25 165.78,-280.26 173.16,-276.25 180.9,-273.02"/>
<polygon fill="#63b8ff" stroke="#63b8ff" points="64.68,-439.39 65.41,-449.96 71.43,-441.25 64.68,-439.39"/>
</a>
</g>
</g>
<!-- Node15 -->
<g id="Node000015" class="node">
<title>Node15</title>
<g id="a_Node000015"><a xlink:href="class_persistence_1_1_entities_configuration_1_1_activity_type_configuration.html" target="_top" xlink:title=" ">
<polygon fill="white" stroke="#666666" points="345.88,-226.5 181.38,-226.5 181.38,-196 345.88,-196 345.88,-226.5"/>
<text text-anchor="start" x="189.38" y="-213" font-family="Helvetica,sans-Serif" font-size="10.00">Persistence.EntitiesConfiguration.</text>
<text text-anchor="middle" x="263.62" y="-201.75" font-family="Helvetica,sans-Serif" font-size="10.00">ActivityTypeConfiguration</text>
</a>
</g>
</g>
<!-- Node0&#45;&gt;Node15 -->
<g id="edge252_Node000000_Node000015" class="edge">
<title>Node0&#45;&gt;Node15</title>
<g id="a_edge252_Node000000_Node000015"><a xlink:title=" ">
<path fill="none" stroke="#63b8ff" d="M65.36,-440.15C72.32,-395.38 94.96,-290.54 159.25,-236.25 165.67,-230.83 173.07,-226.55 180.91,-223.17"/>
<polygon fill="#63b8ff" stroke="#63b8ff" points="61.93,-439.43 63.98,-449.82 68.86,-440.42 61.93,-439.43"/>
</a>
</g>
</g>
<!-- Node16 -->
<g id="Node000016" class="node">
<title>Node16</title>
<g id="a_Node000016"><a xlink:href="class_persistence_1_1_entities_configuration_1_1_project_activity_configuration.html" target="_top" xlink:title=" ">
<polygon fill="white" stroke="#666666" points="345.88,-177.5 181.38,-177.5 181.38,-147 345.88,-147 345.88,-177.5"/>
<text text-anchor="start" x="189.38" y="-164" font-family="Helvetica,sans-Serif" font-size="10.00">Persistence.EntitiesConfiguration.</text>
<text text-anchor="middle" x="263.62" y="-152.75" font-family="Helvetica,sans-Serif" font-size="10.00">ProjectActivityConfiguration</text>
</a>
</g>
</g>
<!-- Node0&#45;&gt;Node16 -->
<g id="edge253_Node000000_Node000016" class="edge">
<title>Node0&#45;&gt;Node16</title>
<g id="a_edge253_Node000000_Node000016"><a xlink:title=" ">
<path fill="none" stroke="#63b8ff" d="M63.55,-439.91C66.98,-388.31 83.16,-255.97 159.25,-187.25 165.62,-181.5 173.09,-177.01 181.05,-173.51"/>
<polygon fill="#63b8ff" stroke="#63b8ff" points="60.07,-439.51 63.01,-449.69 67.06,-439.9 60.07,-439.51"/>
</a>
</g>
</g>
<!-- Node17 -->
<g id="Node000017" class="node">
<title>Node17</title>
<g id="a_Node000017"><a xlink:href="class_persistence_1_1_entities_configuration_1_1_project_configuration.html" target="_top" xlink:title=" ">
<polygon fill="white" stroke="#666666" points="345.88,-128.5 181.38,-128.5 181.38,-98 345.88,-98 345.88,-128.5"/>
<text text-anchor="start" x="189.38" y="-115" font-family="Helvetica,sans-Serif" font-size="10.00">Persistence.EntitiesConfiguration.</text>
<text text-anchor="middle" x="263.62" y="-103.75" font-family="Helvetica,sans-Serif" font-size="10.00">ProjectConfiguration</text>
</a>
</g>
</g>
<!-- Node0&#45;&gt;Node17 -->
<g id="edge254_Node000000_Node000017" class="edge">
<title>Node0&#45;&gt;Node17</title>
<g id="a_edge254_Node000000_Node000017"><a xlink:title=" ">
<path fill="none" stroke="#63b8ff" d="M62.22,-440.1C62.35,-382.56 70.99,-221.92 159.25,-138.25 165.55,-132.28 173.02,-127.66 181.02,-124.09"/>
<polygon fill="#63b8ff" stroke="#63b8ff" points="58.72,-439.82 62.3,-449.79 65.72,-439.77 58.72,-439.82"/>
</a>
</g>
</g>
<!-- Node18 -->
<g id="Node000018" class="node">
<title>Node18</title>
<g id="a_Node000018"><a xlink:href="class_persistence_1_1_entities_configuration_1_1_project_evaluation_configuration.html" target="_top" xlink:title=" ">
<polygon fill="white" stroke="#666666" points="345.88,-79.5 181.38,-79.5 181.38,-49 345.88,-49 345.88,-79.5"/>
<text text-anchor="start" x="189.38" y="-66" font-family="Helvetica,sans-Serif" font-size="10.00">Persistence.EntitiesConfiguration.</text>
<text text-anchor="middle" x="263.62" y="-54.75" font-family="Helvetica,sans-Serif" font-size="10.00">ProjectEvaluationConfiguration</text>
</a>
</g>
</g>
<!-- Node0&#45;&gt;Node18 -->
<g id="edge255_Node000000_Node000018" class="edge">
<title>Node0&#45;&gt;Node18</title>
<g id="a_edge255_Node000000_Node000018"><a xlink:title=" ">
<path fill="none" stroke="#63b8ff" d="M65.26,-440.11C74.54,-368.93 107.97,-139.67 159.25,-89.25 165.5,-83.1 173,-78.37 181.05,-74.75"/>
<polygon fill="#63b8ff" stroke="#63b8ff" points="61.84,-439.28 64.04,-449.64 68.78,-440.17 61.84,-439.28"/>
</a>
</g>
</g>
<!-- Node19 -->
<g id="Node000019" class="node">
<title>Node19</title>
<g id="a_Node000019"><a xlink:href="class_persistence_1_1_entities_configuration_1_1_student_documents_configuration.html" target="_top" xlink:title=" ">
<polygon fill="white" stroke="#666666" points="345.88,-30.5 181.38,-30.5 181.38,0 345.88,0 345.88,-30.5"/>
<text text-anchor="start" x="189.38" y="-17" font-family="Helvetica,sans-Serif" font-size="10.00">Persistence.EntitiesConfiguration.</text>
<text text-anchor="middle" x="263.62" y="-5.75" font-family="Helvetica,sans-Serif" font-size="10.00">StudentDocumentsConfiguration</text>
</a>
</g>
</g>
<!-- Node0&#45;&gt;Node19 -->
<g id="edge256_Node000000_Node000019" class="edge">
<title>Node0&#45;&gt;Node19</title>
<g id="a_edge256_Node000000_Node000019"><a xlink:title=" ">
<path fill="none" stroke="#63b8ff" d="M64.55,-440.38C72.03,-363.64 101.7,-98.48 159.25,-40.25 165.42,-34.01 172.85,-29.23 180.88,-25.57"/>
<polygon fill="#63b8ff" stroke="#63b8ff" points="61.11,-439.59 63.64,-449.87 68.07,-440.25 61.11,-439.59"/>
</a>
</g>
</g>
</g>
</svg>
