<?xml version="1.0" encoding="UTF-8" standalone="no"?>
<!DOCTYPE svg PUBLIC "-//W3C//DTD SVG 1.1//EN"
 "http://www.w3.org/Graphics/SVG/1.1/DTD/svg11.dtd">
<!-- Generated by graphviz version 9.0.0 (20230911.1827)
 -->
<!-- Title: Representação gráfica da hiearquia da classe Pages: 1 -->
<svg width="334pt" height="64pt"
 viewBox="0.00 0.00 334.00 64.25" xmlns="http://www.w3.org/2000/svg" xmlns:xlink="http://www.w3.org/1999/xlink">
<g id="graph0" class="graph" transform="scale(1 1) rotate(0) translate(4 60.25)">
<title>Representação gráfica da hiearquia da classe</title>
<!-- Node0 -->
<g id="Node000000" class="node">
<title>Node0</title>
<g id="a_Node000000"><a xlink:href="interface_domain_1_1_interfaces_1_1_services_1_1_i_storage_file_service.html" target="_top" xlink:title=" ">
<polygon fill="white" stroke="#666666" points="140.5,-42.88 0,-42.88 0,-12.37 140.5,-12.37 140.5,-42.88"/>
<text text-anchor="start" x="8" y="-29.38" font-family="Helvetica,sans-Serif" font-size="10.00">Domain.Interfaces.Services.</text>
<text text-anchor="middle" x="70.25" y="-18.12" font-family="Helvetica,sans-Serif" font-size="10.00">IStorageFileService</text>
</a>
</g>
</g>
<!-- Node1 -->
<g id="Node000001" class="node">
<title>Node1</title>
<g id="a_Node000001"><a xlink:href="class_services_1_1_azure_storage_service.html" target="_top" xlink:title=" ">
<polygon fill="white" stroke="#666666" points="326,-56.25 176.5,-56.25 176.5,-37 326,-37 326,-56.25"/>
<text text-anchor="middle" x="251.25" y="-42.75" font-family="Helvetica,sans-Serif" font-size="10.00">Services.AzureStorageService</text>
</a>
</g>
</g>
<!-- Node0&#45;&gt;Node1 -->
<g id="edge233_Node000000_Node000001" class="edge">
<title>Node0&#45;&gt;Node1</title>
<g id="a_edge233_Node000000_Node000001"><a xlink:title=" ">
<path fill="none" stroke="#63b8ff" d="M152.22,-36.22C160.23,-37.07 168.34,-37.93 176.29,-38.77"/>
<polygon fill="#63b8ff" stroke="#63b8ff" points="152.79,-32.76 142.47,-35.19 152.05,-39.72 152.79,-32.76"/>
</a>
</g>
</g>
<!-- Node2 -->
<g id="Node000002" class="node">
<title>Node2</title>
<g id="a_Node000002"><a xlink:href="class_services_1_1_storage_file_service.html" target="_top" xlink:title=" ">
<polygon fill="white" stroke="#666666" points="321.12,-19.25 181.38,-19.25 181.38,0 321.12,0 321.12,-19.25"/>
<text text-anchor="middle" x="251.25" y="-5.75" font-family="Helvetica,sans-Serif" font-size="10.00">Services.StorageFileService</text>
</a>
</g>
</g>
<!-- Node0&#45;&gt;Node2 -->
<g id="edge234_Node000000_Node000002" class="edge">
<title>Node0&#45;&gt;Node2</title>
<g id="a_edge234_Node000000_Node000002"><a xlink:title=" ">
<path fill="none" stroke="#63b8ff" d="M152.18,-19.49C161.81,-18.52 171.57,-17.54 181.02,-16.59"/>
<polygon fill="#63b8ff" stroke="#63b8ff" points="152.07,-15.98 142.47,-20.46 152.77,-22.94 152.07,-15.98"/>
</a>
</g>
</g>
</g>
</svg>
