<?xml version="1.0" encoding="UTF-8" standalone="no"?>
<!DOCTYPE svg PUBLIC "-//W3C//DTD SVG 1.1//EN"
 "http://www.w3.org/Graphics/SVG/1.1/DTD/svg11.dtd">
<!-- Generated by graphviz version 9.0.0 (20230911.1827)
 -->
<!-- Title: Representação gráfica da hiearquia da classe Pages: 1 -->
<svg width="564pt" height="39pt"
 viewBox="0.00 0.00 563.75 38.50" xmlns="http://www.w3.org/2000/svg" xmlns:xlink="http://www.w3.org/1999/xlink">
<g id="graph0" class="graph" transform="scale(1 1) rotate(0) translate(4 34.5)">
<title>Representação gráfica da hiearquia da classe</title>
<!-- Node0 -->
<g id="Node000000" class="node">
<title>Node0</title>
<g id="a_Node000000"><a xlink:href="interface_domain_1_1_interfaces_1_1_repositories_1_1_bases_1_1_i_generic_c_r_u_d_repository.html" target="_top" xlink:title=" ">
<polygon fill="white" stroke="#666666" points="198.25,-30.5 0,-30.5 0,0 198.25,0 198.25,-30.5"/>
<text text-anchor="start" x="8" y="-17" font-family="Helvetica,sans-Serif" font-size="10.00">Domain.Interfaces.Repositories.</text>
<text text-anchor="middle" x="99.12" y="-5.75" font-family="Helvetica,sans-Serif" font-size="10.00">Bases.IGenericCRUDRepository&lt; Area &gt;</text>
</a>
</g>
</g>
<!-- Node1 -->
<g id="Node000001" class="node">
<title>Node1</title>
<g id="a_Node000001"><a xlink:href="interface_domain_1_1_interfaces_1_1_repositories_1_1_i_area_repository.html" target="_top" xlink:title=" ">
<polygon fill="white" stroke="#666666" points="391.25,-30.5 234.25,-30.5 234.25,0 391.25,0 391.25,-30.5"/>
<text text-anchor="start" x="242.25" y="-17" font-family="Helvetica,sans-Serif" font-size="10.00">Domain.Interfaces.Repositories.</text>
<text text-anchor="middle" x="312.75" y="-5.75" font-family="Helvetica,sans-Serif" font-size="10.00">IAreaRepository</text>
</a>
</g>
</g>
<!-- Node0&#45;&gt;Node1 -->
<g id="edge199_Node000000_Node000001" class="edge">
<title>Node0&#45;&gt;Node1</title>
<g id="a_edge199_Node000000_Node000001"><a xlink:title=" ">
<path fill="none" stroke="#63b8ff" d="M209.93,-15.25C218.01,-15.25 226.07,-15.25 233.9,-15.25"/>
<polygon fill="#63b8ff" stroke="#63b8ff" points="210.02,-11.75 200.02,-15.25 210.02,-18.75 210.02,-11.75"/>
</a>
</g>
</g>
<!-- Node2 -->
<g id="Node000002" class="node">
<title>Node2</title>
<g id="a_Node000002"><a xlink:href="class_persistence_1_1_repositories_1_1_area_repository.html" target="_top" xlink:title=" ">
<polygon fill="white" stroke="#666666" points="555.75,-30.5 427.25,-30.5 427.25,0 555.75,0 555.75,-30.5"/>
<text text-anchor="start" x="435.25" y="-17" font-family="Helvetica,sans-Serif" font-size="10.00">Persistence.Repositories.</text>
<text text-anchor="middle" x="491.5" y="-5.75" font-family="Helvetica,sans-Serif" font-size="10.00">AreaRepository</text>
</a>
</g>
</g>
<!-- Node1&#45;&gt;Node2 -->
<g id="edge200_Node000001_Node000002" class="edge">
<title>Node1&#45;&gt;Node2</title>
<g id="a_edge200_Node000001_Node000002"><a xlink:title=" ">
<path fill="none" stroke="#63b8ff" d="M402.98,-15.25C411.08,-15.25 419.18,-15.25 427,-15.25"/>
<polygon fill="#63b8ff" stroke="#63b8ff" points="403.05,-11.75 393.05,-15.25 403.05,-18.75 403.05,-11.75"/>
</a>
</g>
</g>
</g>
</svg>
