<?xml version="1.0" encoding="UTF-8" standalone="no"?>
<!DOCTYPE svg PUBLIC "-//W3C//DTD SVG 1.1//EN"
 "http://www.w3.org/Graphics/SVG/1.1/DTD/svg11.dtd">
<!-- Generated by graphviz version 9.0.0 (20230911.1827)
 -->
<!-- Title: Representação gráfica da hiearquia da classe Pages: 1 -->
<svg width="300pt" height="137pt"
 viewBox="0.00 0.00 299.50 136.50" xmlns="http://www.w3.org/2000/svg" xmlns:xlink="http://www.w3.org/1999/xlink">
<g id="graph0" class="graph" transform="scale(1 1) rotate(0) translate(4 132.5)">
<title>Representação gráfica da hiearquia da classe</title>
<!-- Node0 -->
<g id="Node000000" class="node">
<title>Node0</title>
<g id="a_Node000000"><a xlink:href="class_application_1_1_ports_1_1_activity_1_1_base_activity.html" target="_top" xlink:title=" ">
<polygon fill="white" stroke="#666666" points="127.75,-79.5 0,-79.5 0,-49 127.75,-49 127.75,-79.5"/>
<text text-anchor="start" x="8" y="-66" font-family="Helvetica,sans-Serif" font-size="10.00">Application.Ports.Activity.</text>
<text text-anchor="middle" x="63.88" y="-54.75" font-family="Helvetica,sans-Serif" font-size="10.00">BaseActivity</text>
</a>
</g>
</g>
<!-- Node1 -->
<g id="Node000001" class="node">
<title>Node1</title>
<g id="a_Node000001"><a xlink:href="class_application_1_1_ports_1_1_activity_1_1_activity_output.html" target="_top" xlink:title=" ">
<polygon fill="white" stroke="#666666" points="291.5,-128.5 163.75,-128.5 163.75,-98 291.5,-98 291.5,-128.5"/>
<text text-anchor="start" x="171.75" y="-115" font-family="Helvetica,sans-Serif" font-size="10.00">Application.Ports.Activity.</text>
<text text-anchor="middle" x="227.62" y="-103.75" font-family="Helvetica,sans-Serif" font-size="10.00">ActivityOutput</text>
</a>
</g>
</g>
<!-- Node0&#45;&gt;Node1 -->
<g id="edge99_Node000000_Node000001" class="edge">
<title>Node0&#45;&gt;Node1</title>
<g id="a_edge99_Node000000_Node000001"><a xlink:title=" ">
<path fill="none" stroke="#63b8ff" d="M127.17,-83.12C142.86,-87.87 159.54,-92.93 174.66,-97.51"/>
<polygon fill="#63b8ff" stroke="#63b8ff" points="128.53,-79.88 117.95,-80.33 126.5,-86.58 128.53,-79.88"/>
</a>
</g>
</g>
<!-- Node2 -->
<g id="Node000002" class="node">
<title>Node2</title>
<g id="a_Node000002"><a xlink:href="class_application_1_1_ports_1_1_activity_1_1_create_activity_input.html" target="_top" xlink:title=" ">
<polygon fill="white" stroke="#666666" points="291.5,-79.5 163.75,-79.5 163.75,-49 291.5,-49 291.5,-79.5"/>
<text text-anchor="start" x="171.75" y="-66" font-family="Helvetica,sans-Serif" font-size="10.00">Application.Ports.Activity.</text>
<text text-anchor="middle" x="227.62" y="-54.75" font-family="Helvetica,sans-Serif" font-size="10.00">CreateActivityInput</text>
</a>
</g>
</g>
<!-- Node0&#45;&gt;Node2 -->
<g id="edge100_Node000000_Node000002" class="edge">
<title>Node0&#45;&gt;Node2</title>
<g id="a_edge100_Node000000_Node000002"><a xlink:title=" ">
<path fill="none" stroke="#63b8ff" d="M139.17,-64.25C147.22,-64.25 155.36,-64.25 163.26,-64.25"/>
<polygon fill="#63b8ff" stroke="#63b8ff" points="139.39,-60.75 129.39,-64.25 139.39,-67.75 139.39,-60.75"/>
</a>
</g>
</g>
<!-- Node3 -->
<g id="Node000003" class="node">
<title>Node3</title>
<g id="a_Node000003"><a xlink:href="class_application_1_1_ports_1_1_activity_1_1_update_activity_input.html" target="_top" xlink:title=" ">
<polygon fill="white" stroke="#666666" points="291.5,-30.5 163.75,-30.5 163.75,0 291.5,0 291.5,-30.5"/>
<text text-anchor="start" x="171.75" y="-17" font-family="Helvetica,sans-Serif" font-size="10.00">Application.Ports.Activity.</text>
<text text-anchor="middle" x="227.62" y="-5.75" font-family="Helvetica,sans-Serif" font-size="10.00">UpdateActivityInput</text>
</a>
</g>
</g>
<!-- Node0&#45;&gt;Node3 -->
<g id="edge101_Node000000_Node000003" class="edge">
<title>Node0&#45;&gt;Node3</title>
<g id="a_edge101_Node000000_Node000003"><a xlink:title=" ">
<path fill="none" stroke="#63b8ff" d="M127.17,-45.38C142.86,-40.63 159.54,-35.57 174.66,-30.99"/>
<polygon fill="#63b8ff" stroke="#63b8ff" points="126.5,-41.92 117.95,-48.17 128.53,-48.62 126.5,-41.92"/>
</a>
</g>
</g>
</g>
</svg>
