<?xml version="1.0" encoding="UTF-8" standalone="no"?>
<!DOCTYPE svg PUBLIC "-//W3C//DTD SVG 1.1//EN"
 "http://www.w3.org/Graphics/SVG/1.1/DTD/svg11.dtd">
<!-- Generated by graphviz version 9.0.0 (20230911.1827)
 -->
<!-- Title: Representação gráfica da hiearquia da classe Pages: 1 -->
<svg width="333pt" height="186pt"
 viewBox="0.00 0.00 333.25 185.50" xmlns="http://www.w3.org/2000/svg" xmlns:xlink="http://www.w3.org/1999/xlink">
<g id="graph0" class="graph" transform="scale(1 1) rotate(0) translate(4 181.5)">
<title>Representação gráfica da hiearquia da classe</title>
<!-- Node0 -->
<g id="Node000000" class="node">
<title>Node0</title>
<g id="a_Node000000"><a xlink:href="class_application_1_1_ports_1_1_main_area_1_1_base_main_area_contract.html" target="_top" xlink:title=" ">
<polygon fill="white" stroke="#666666" points="137.5,-103.5 0,-103.5 0,-73 137.5,-73 137.5,-103.5"/>
<text text-anchor="start" x="8" y="-90" font-family="Helvetica,sans-Serif" font-size="10.00">Application.Ports.MainArea.</text>
<text text-anchor="middle" x="68.75" y="-78.75" font-family="Helvetica,sans-Serif" font-size="10.00">BaseMainAreaContract</text>
</a>
</g>
</g>
<!-- Node1 -->
<g id="Node000001" class="node">
<title>Node1</title>
<g id="a_Node000001"><a xlink:href="class_application_1_1_ports_1_1_main_area_1_1_create_main_area_input.html" target="_top" xlink:title=" ">
<polygon fill="white" stroke="#666666" points="318.12,-177.5 180.62,-177.5 180.62,-147 318.12,-147 318.12,-177.5"/>
<text text-anchor="start" x="188.62" y="-164" font-family="Helvetica,sans-Serif" font-size="10.00">Application.Ports.MainArea.</text>
<text text-anchor="middle" x="249.38" y="-152.75" font-family="Helvetica,sans-Serif" font-size="10.00">CreateMainAreaInput</text>
</a>
</g>
</g>
<!-- Node0&#45;&gt;Node1 -->
<g id="edge119_Node000000_Node000001" class="edge">
<title>Node0&#45;&gt;Node1</title>
<g id="a_edge119_Node000000_Node000001"><a xlink:title=" ">
<path fill="none" stroke="#63b8ff" d="M110.28,-108.76C129.25,-118.01 152.29,-128.73 173.5,-137.25 181.51,-140.47 190.12,-143.61 198.53,-146.53"/>
<polygon fill="#63b8ff" stroke="#63b8ff" points="112.07,-105.75 101.55,-104.47 108.98,-112.03 112.07,-105.75"/>
</a>
</g>
</g>
<!-- Node2 -->
<g id="Node000002" class="node">
<title>Node2</title>
<g id="a_Node000002"><a xlink:href="class_application_1_1_ports_1_1_main_area_1_1_detailed_main_area_output.html" target="_top" xlink:title=" ">
<polygon fill="white" stroke="#666666" points="318.12,-128.5 180.62,-128.5 180.62,-98 318.12,-98 318.12,-128.5"/>
<text text-anchor="start" x="188.62" y="-115" font-family="Helvetica,sans-Serif" font-size="10.00">Application.Ports.MainArea.</text>
<text text-anchor="middle" x="249.38" y="-103.75" font-family="Helvetica,sans-Serif" font-size="10.00">DetailedMainAreaOutput</text>
</a>
</g>
</g>
<!-- Node0&#45;&gt;Node2 -->
<g id="edge120_Node000000_Node000002" class="edge">
<title>Node0&#45;&gt;Node2</title>
<g id="a_edge120_Node000000_Node000002"><a xlink:title=" ">
<path fill="none" stroke="#63b8ff" d="M149,-99.34C159.41,-100.8 170.02,-102.28 180.23,-103.71"/>
<polygon fill="#63b8ff" stroke="#63b8ff" points="149.68,-95.9 139.29,-97.98 148.71,-102.83 149.68,-95.9"/>
</a>
</g>
</g>
<!-- Node3 -->
<g id="Node000003" class="node">
<title>Node3</title>
<g id="a_Node000003"><a xlink:href="class_application_1_1_ports_1_1_main_area_1_1_resumed_read_main_area_output.html" target="_top" xlink:title=" ">
<polygon fill="white" stroke="#666666" points="325.25,-79.5 173.5,-79.5 173.5,-49 325.25,-49 325.25,-79.5"/>
<text text-anchor="start" x="181.5" y="-66" font-family="Helvetica,sans-Serif" font-size="10.00">Application.Ports.MainArea.</text>
<text text-anchor="middle" x="249.38" y="-54.75" font-family="Helvetica,sans-Serif" font-size="10.00">ResumedReadMainAreaOutput</text>
</a>
</g>
</g>
<!-- Node0&#45;&gt;Node3 -->
<g id="edge121_Node000000_Node000003" class="edge">
<title>Node0&#45;&gt;Node3</title>
<g id="a_edge121_Node000000_Node000003"><a xlink:title=" ">
<path fill="none" stroke="#63b8ff" d="M149,-77.6C157,-76.53 165.11,-75.44 173.07,-74.37"/>
<polygon fill="#63b8ff" stroke="#63b8ff" points="148.73,-74.11 139.29,-78.91 149.67,-81.04 148.73,-74.11"/>
</a>
</g>
</g>
<!-- Node4 -->
<g id="Node000004" class="node">
<title>Node4</title>
<g id="a_Node000004"><a xlink:href="class_application_1_1_ports_1_1_main_area_1_1_update_main_area_input.html" target="_top" xlink:title=" ">
<polygon fill="white" stroke="#666666" points="318.12,-30.5 180.62,-30.5 180.62,0 318.12,0 318.12,-30.5"/>
<text text-anchor="start" x="188.62" y="-17" font-family="Helvetica,sans-Serif" font-size="10.00">Application.Ports.MainArea.</text>
<text text-anchor="middle" x="249.38" y="-5.75" font-family="Helvetica,sans-Serif" font-size="10.00">UpdateMainAreaInput</text>
</a>
</g>
</g>
<!-- Node0&#45;&gt;Node4 -->
<g id="edge122_Node000000_Node000004" class="edge">
<title>Node0&#45;&gt;Node4</title>
<g id="a_edge122_Node000000_Node000004"><a xlink:title=" ">
<path fill="none" stroke="#63b8ff" d="M111.42,-67.68C130.18,-58.76 152.74,-48.49 173.5,-40.25 181.65,-37.01 190.41,-33.83 198.96,-30.88"/>
<polygon fill="#63b8ff" stroke="#63b8ff" points="110,-64.48 102.5,-71.96 113.03,-70.79 110,-64.48"/>
</a>
</g>
</g>
</g>
</svg>
