<?xml version="1.0" encoding="UTF-8" standalone="no"?>
<!DOCTYPE svg PUBLIC "-//W3C//DTD SVG 1.1//EN"
 "http://www.w3.org/Graphics/SVG/1.1/DTD/svg11.dtd">
<!-- Generated by graphviz version 9.0.0 (20230911.1827)
 -->
<!-- Title: Representação gráfica da hiearquia da classe Pages: 1 -->
<svg width="293pt" height="873pt"
 viewBox="0.00 0.00 292.75 872.88" xmlns="http://www.w3.org/2000/svg" xmlns:xlink="http://www.w3.org/1999/xlink">
<g id="graph0" class="graph" transform="scale(1 1) rotate(0) translate(4 868.88)">
<title>Representação gráfica da hiearquia da classe</title>
<!-- Node0 -->
<g id="Node000000" class="node">
<title>Node0</title>
<g id="a_Node000000"><a xlink:title=" ">
<polygon fill="#e0e0e0" stroke="#999999" points="80.5,-442.25 0,-442.25 0,-423 80.5,-423 80.5,-442.25"/>
<text text-anchor="middle" x="40.25" y="-428.75" font-family="Helvetica,sans-Serif" font-size="10.00">ControllerBase</text>
</a>
</g>
</g>
<!-- Node1 -->
<g id="Node000001" class="node">
<title>Node1</title>
<g id="a_Node000001"><a xlink:href="class_web_a_p_i_1_1_controllers_1_1_activity_controller.html" target="_top" xlink:title="Controller responsável por gerenciar as atividades.">
<polygon fill="white" stroke="#666666" points="269.75,-864.88 131.5,-864.88 131.5,-834.38 269.75,-834.38 269.75,-864.88"/>
<text text-anchor="start" x="139.5" y="-851.38" font-family="Helvetica,sans-Serif" font-size="10.00">WebAPI.Controllers.Activity</text>
<text text-anchor="middle" x="200.62" y="-840.12" font-family="Helvetica,sans-Serif" font-size="10.00">Controller</text>
</a>
</g>
</g>
<!-- Node0&#45;&gt;Node1 -->
<g id="edge156_Node000000_Node000001" class="edge">
<title>Node0&#45;&gt;Node1</title>
<g id="a_edge156_Node000000_Node000001"><a xlink:title=" ">
<path fill="none" stroke="#63b8ff" d="M42.45,-453.84C47.04,-527.4 65.82,-770.06 116.5,-825.62 120.75,-830.29 125.85,-834.06 131.39,-837.12"/>
<polygon fill="#63b8ff" stroke="#63b8ff" points="45.96,-453.78 41.87,-444 38.97,-454.2 45.96,-453.78"/>
</a>
</g>
</g>
<!-- Node2 -->
<g id="Node000002" class="node">
<title>Node2</title>
<g id="a_Node000002"><a xlink:href="class_web_a_p_i_1_1_controllers_1_1_area_controller.html" target="_top" xlink:title="Controller de Área.">
<polygon fill="white" stroke="#666666" points="284.38,-816.25 116.88,-816.25 116.88,-797 284.38,-797 284.38,-816.25"/>
<text text-anchor="middle" x="200.62" y="-802.75" font-family="Helvetica,sans-Serif" font-size="10.00">WebAPI.Controllers.AreaController</text>
</a>
</g>
</g>
<!-- Node0&#45;&gt;Node2 -->
<g id="edge157_Node000000_Node000002" class="edge">
<title>Node0&#45;&gt;Node2</title>
<g id="a_edge157_Node000000_Node000002"><a xlink:title=" ">
<path fill="none" stroke="#63b8ff" d="M42.79,-453.66C48.28,-522.5 69.07,-739.44 116.5,-787.62 120.03,-791.21 124.09,-794.18 128.47,-796.63"/>
<polygon fill="#63b8ff" stroke="#63b8ff" points="46.32,-453.81 42.06,-444.11 39.34,-454.35 46.32,-453.81"/>
</a>
</g>
</g>
<!-- Node3 -->
<g id="Node000003" class="node">
<title>Node3</title>
<g id="a_Node000003"><a xlink:href="class_web_a_p_i_1_1_controllers_1_1_assistance_type_controller.html" target="_top" xlink:title="Controller de Bolsa de Assistência.">
<polygon fill="white" stroke="#666666" points="277.62,-778.88 123.62,-778.88 123.62,-748.38 277.62,-748.38 277.62,-778.88"/>
<text text-anchor="start" x="131.62" y="-765.38" font-family="Helvetica,sans-Serif" font-size="10.00">WebAPI.Controllers.Assistance</text>
<text text-anchor="middle" x="200.62" y="-754.12" font-family="Helvetica,sans-Serif" font-size="10.00">TypeController</text>
</a>
</g>
</g>
<!-- Node0&#45;&gt;Node3 -->
<g id="edge158_Node000000_Node000003" class="edge">
<title>Node0&#45;&gt;Node3</title>
<g id="a_edge158_Node000000_Node000003"><a xlink:title=" ">
<path fill="none" stroke="#63b8ff" d="M43.64,-453.49C51.18,-515.64 76.32,-697.78 116.5,-739.62 119.52,-742.77 122.92,-745.51 126.57,-747.89"/>
<polygon fill="#63b8ff" stroke="#63b8ff" points="47.17,-453.47 42.52,-443.95 40.21,-454.29 47.17,-453.47"/>
</a>
</g>
</g>
<!-- Node4 -->
<g id="Node000004" class="node">
<title>Node4</title>
<g id="a_Node000004"><a xlink:href="class_web_a_p_i_1_1_controllers_1_1_auth_controller.html" target="_top" xlink:title="Controller de Autenticação.">
<polygon fill="white" stroke="#666666" points="284.38,-730.25 116.88,-730.25 116.88,-711 284.38,-711 284.38,-730.25"/>
<text text-anchor="middle" x="200.62" y="-716.75" font-family="Helvetica,sans-Serif" font-size="10.00">WebAPI.Controllers.AuthController</text>
</a>
</g>
</g>
<!-- Node0&#45;&gt;Node4 -->
<g id="edge159_Node000000_Node000004" class="edge">
<title>Node0&#45;&gt;Node4</title>
<g id="a_edge159_Node000000_Node000004"><a xlink:title=" ">
<path fill="none" stroke="#63b8ff" d="M40.42,-454.17C39.71,-505.14 45.45,-633.91 116.5,-701.62 120.25,-705.2 124.53,-708.15 129.12,-710.59"/>
<polygon fill="#63b8ff" stroke="#63b8ff" points="43.92,-454.32 40.68,-444.23 36.92,-454.14 43.92,-454.32"/>
</a>
</g>
</g>
<!-- Node5 -->
<g id="Node000005" class="node">
<title>Node5</title>
<g id="a_Node000005"><a xlink:href="class_web_a_p_i_1_1_controllers_1_1_campus_controller.html" target="_top" xlink:title="Controller de Campus.">
<polygon fill="white" stroke="#666666" points="271.62,-692.88 129.62,-692.88 129.62,-662.38 271.62,-662.38 271.62,-692.88"/>
<text text-anchor="start" x="137.62" y="-679.38" font-family="Helvetica,sans-Serif" font-size="10.00">WebAPI.Controllers.Campus</text>
<text text-anchor="middle" x="200.62" y="-668.12" font-family="Helvetica,sans-Serif" font-size="10.00">Controller</text>
</a>
</g>
</g>
<!-- Node0&#45;&gt;Node5 -->
<g id="edge160_Node000000_Node000005" class="edge">
<title>Node0&#45;&gt;Node5</title>
<g id="a_edge160_Node000000_Node000005"><a xlink:title=" ">
<path fill="none" stroke="#63b8ff" d="M42.31,-454.05C45.65,-497.76 59.47,-597.69 116.5,-652.62 120.3,-656.28 124.61,-659.41 129.23,-662.08"/>
<polygon fill="#63b8ff" stroke="#63b8ff" points="45.81,-453.9 41.68,-444.14 38.83,-454.34 45.81,-453.9"/>
</a>
</g>
</g>
<!-- Node6 -->
<g id="Node000006" class="node">
<title>Node6</title>
<g id="a_Node000006"><a xlink:href="class_web_a_p_i_1_1_controllers_1_1_course_controller.html" target="_top" xlink:title="Controller de Curso.">
<polygon fill="white" stroke="#666666" points="269,-643.88 132.25,-643.88 132.25,-613.38 269,-613.38 269,-643.88"/>
<text text-anchor="start" x="140.25" y="-630.38" font-family="Helvetica,sans-Serif" font-size="10.00">WebAPI.Controllers.Course</text>
<text text-anchor="middle" x="200.62" y="-619.12" font-family="Helvetica,sans-Serif" font-size="10.00">Controller</text>
</a>
</g>
</g>
<!-- Node0&#45;&gt;Node6 -->
<g id="edge161_Node000000_Node000006" class="edge">
<title>Node0&#45;&gt;Node6</title>
<g id="a_edge161_Node000000_Node000006"><a xlink:title=" ">
<path fill="none" stroke="#63b8ff" d="M44.61,-453.43C51.5,-489.36 70.64,-563.07 116.5,-603.62 121.13,-607.72 126.41,-611.14 132.01,-614.01"/>
<polygon fill="#63b8ff" stroke="#63b8ff" points="48.11,-453.14 42.92,-443.91 41.22,-454.36 48.11,-453.14"/>
</a>
</g>
</g>
<!-- Node7 -->
<g id="Node000007" class="node">
<title>Node7</title>
<g id="a_Node000007"><a xlink:href="class_web_a_p_i_1_1_controllers_1_1_main_area_controller.html" target="_top" xlink:title="Controller de Área Principal.">
<polygon fill="white" stroke="#666666" points="273.88,-594.88 127.38,-594.88 127.38,-564.38 273.88,-564.38 273.88,-594.88"/>
<text text-anchor="start" x="135.38" y="-581.38" font-family="Helvetica,sans-Serif" font-size="10.00">WebAPI.Controllers.MainArea</text>
<text text-anchor="middle" x="200.62" y="-570.12" font-family="Helvetica,sans-Serif" font-size="10.00">Controller</text>
</a>
</g>
</g>
<!-- Node0&#45;&gt;Node7 -->
<g id="edge162_Node000000_Node000007" class="edge">
<title>Node0&#45;&gt;Node7</title>
<g id="a_edge162_Node000000_Node000007"><a xlink:title=" ">
<path fill="none" stroke="#63b8ff" d="M48.54,-453.12C59.24,-480.3 81.78,-527.95 116.5,-554.62 121.16,-558.21 126.33,-561.28 131.75,-563.91"/>
<polygon fill="#63b8ff" stroke="#63b8ff" points="51.88,-452.08 45.09,-443.95 45.33,-454.54 51.88,-452.08"/>
</a>
</g>
</g>
<!-- Node8 -->
<g id="Node000008" class="node">
<title>Node8</title>
<g id="a_Node000008"><a xlink:href="class_web_a_p_i_1_1_controllers_1_1_notice_controller.html" target="_top" xlink:title="Controller de Edital.">
<polygon fill="white" stroke="#666666" points="267.5,-545.88 133.75,-545.88 133.75,-515.38 267.5,-515.38 267.5,-545.88"/>
<text text-anchor="start" x="141.75" y="-532.38" font-family="Helvetica,sans-Serif" font-size="10.00">WebAPI.Controllers.Notice</text>
<text text-anchor="middle" x="200.62" y="-521.12" font-family="Helvetica,sans-Serif" font-size="10.00">Controller</text>
</a>
</g>
</g>
<!-- Node0&#45;&gt;Node8 -->
<g id="edge163_Node000000_Node000008" class="edge">
<title>Node0&#45;&gt;Node8</title>
<g id="a_edge163_Node000000_Node000008"><a xlink:title=" ">
<path fill="none" stroke="#63b8ff" d="M56.11,-451.45C70.06,-467.95 92.36,-491.44 116.5,-505.62 122.61,-509.21 129.27,-512.33 136.09,-515.02"/>
<polygon fill="#63b8ff" stroke="#63b8ff" points="58.91,-449.36 49.87,-443.84 53.5,-453.8 58.91,-449.36"/>
</a>
</g>
</g>
<!-- Node9 -->
<g id="Node000009" class="node">
<title>Node9</title>
<g id="a_Node000009"><a xlink:href="class_web_a_p_i_1_1_controllers_1_1_professor_controller.html" target="_top" xlink:title="Controller de Professor.">
<polygon fill="white" stroke="#666666" points="274.25,-496.88 127,-496.88 127,-466.38 274.25,-466.38 274.25,-496.88"/>
<text text-anchor="start" x="135" y="-483.38" font-family="Helvetica,sans-Serif" font-size="10.00">WebAPI.Controllers.Professor</text>
<text text-anchor="middle" x="200.62" y="-472.12" font-family="Helvetica,sans-Serif" font-size="10.00">Controller</text>
</a>
</g>
</g>
<!-- Node0&#45;&gt;Node9 -->
<g id="edge164_Node000000_Node000009" class="edge">
<title>Node0&#45;&gt;Node9</title>
<g id="a_edge164_Node000000_Node000009"><a xlink:title=" ">
<path fill="none" stroke="#63b8ff" d="M83.25,-446.16C94.07,-449.6 105.71,-453.28 116.5,-456.62 126.29,-459.66 136.74,-462.84 146.82,-465.89"/>
<polygon fill="#63b8ff" stroke="#63b8ff" points="84.37,-442.84 73.78,-443.13 82.23,-449.51 84.37,-442.84"/>
</a>
</g>
</g>
<!-- Node10 -->
<g id="Node000010" class="node">
<title>Node10</title>
<g id="a_Node000010"><a xlink:href="class_web_a_p_i_1_1_controllers_1_1_program_type_controller.html" target="_top" xlink:title="Controller de Tipo de Programa.">
<polygon fill="white" stroke="#666666" points="271.62,-447.88 129.62,-447.88 129.62,-417.38 271.62,-417.38 271.62,-447.88"/>
<text text-anchor="start" x="137.62" y="-434.38" font-family="Helvetica,sans-Serif" font-size="10.00">WebAPI.Controllers.Program</text>
<text text-anchor="middle" x="200.62" y="-423.12" font-family="Helvetica,sans-Serif" font-size="10.00">TypeController</text>
</a>
</g>
</g>
<!-- Node0&#45;&gt;Node10 -->
<g id="edge165_Node000000_Node000010" class="edge">
<title>Node0&#45;&gt;Node10</title>
<g id="a_edge165_Node000000_Node000010"><a xlink:title=" ">
<path fill="none" stroke="#63b8ff" d="M92.21,-432.62C103.98,-432.62 116.71,-432.62 129.15,-432.62"/>
<polygon fill="#63b8ff" stroke="#63b8ff" points="92.32,-429.13 82.32,-432.63 92.32,-436.13 92.32,-429.13"/>
</a>
</g>
</g>
<!-- Node11 -->
<g id="Node000011" class="node">
<title>Node11</title>
<g id="a_Node000011"><a xlink:href="class_web_a_p_i_1_1_controllers_1_1_project_controller.html" target="_top" xlink:title="Controller de projetos.">
<polygon fill="white" stroke="#666666" points="268.62,-398.88 132.62,-398.88 132.62,-368.38 268.62,-368.38 268.62,-398.88"/>
<text text-anchor="start" x="140.62" y="-385.38" font-family="Helvetica,sans-Serif" font-size="10.00">WebAPI.Controllers.Project</text>
<text text-anchor="middle" x="200.62" y="-374.12" font-family="Helvetica,sans-Serif" font-size="10.00">Controller</text>
</a>
</g>
</g>
<!-- Node0&#45;&gt;Node11 -->
<g id="edge166_Node000000_Node000011" class="edge">
<title>Node0&#45;&gt;Node11</title>
<g id="a_edge166_Node000000_Node000011"><a xlink:title=" ">
<path fill="none" stroke="#63b8ff" d="M83.25,-419.09C94.07,-415.65 105.71,-411.97 116.5,-408.62 126.29,-405.59 136.74,-402.41 146.82,-399.36"/>
<polygon fill="#63b8ff" stroke="#63b8ff" points="82.23,-415.74 73.78,-422.12 84.37,-422.41 82.23,-415.74"/>
</a>
</g>
</g>
<!-- Node12 -->
<g id="Node000012" class="node">
<title>Node12</title>
<g id="a_Node000012"><a xlink:href="class_web_a_p_i_1_1_controllers_1_1_project_evaluation_controller.html" target="_top" xlink:title="Controller de projetos.">
<polygon fill="white" stroke="#666666" points="268.62,-349.88 132.62,-349.88 132.62,-319.38 268.62,-319.38 268.62,-349.88"/>
<text text-anchor="start" x="140.62" y="-336.38" font-family="Helvetica,sans-Serif" font-size="10.00">WebAPI.Controllers.Project</text>
<text text-anchor="middle" x="200.62" y="-325.12" font-family="Helvetica,sans-Serif" font-size="10.00">EvaluationController</text>
</a>
</g>
</g>
<!-- Node0&#45;&gt;Node12 -->
<g id="edge167_Node000000_Node000012" class="edge">
<title>Node0&#45;&gt;Node12</title>
<g id="a_edge167_Node000000_Node000012"><a xlink:title=" ">
<path fill="none" stroke="#63b8ff" d="M56.11,-413.8C70.06,-397.3 92.36,-373.81 116.5,-359.62 122.61,-356.04 129.27,-352.92 136.09,-350.23"/>
<polygon fill="#63b8ff" stroke="#63b8ff" points="53.5,-411.45 49.87,-421.41 58.91,-415.89 53.5,-411.45"/>
</a>
</g>
</g>
<!-- Node13 -->
<g id="Node000013" class="node">
<title>Node13</title>
<g id="a_Node000013"><a xlink:href="class_web_a_p_i_1_1_controllers_1_1_project_final_report_controller.html" target="_top" xlink:title="Controller de Relatório de Projeto.">
<polygon fill="white" stroke="#666666" points="268.62,-300.88 132.62,-300.88 132.62,-270.38 268.62,-270.38 268.62,-300.88"/>
<text text-anchor="start" x="140.62" y="-287.38" font-family="Helvetica,sans-Serif" font-size="10.00">WebAPI.Controllers.Project</text>
<text text-anchor="middle" x="200.62" y="-276.12" font-family="Helvetica,sans-Serif" font-size="10.00">FinalReportController</text>
</a>
</g>
</g>
<!-- Node0&#45;&gt;Node13 -->
<g id="edge168_Node000000_Node000013" class="edge">
<title>Node0&#45;&gt;Node13</title>
<g id="a_edge168_Node000000_Node000013"><a xlink:title=" ">
<path fill="none" stroke="#63b8ff" d="M48.54,-412.13C59.24,-384.95 81.78,-337.3 116.5,-310.62 121.28,-306.95 126.6,-303.82 132.16,-301.14"/>
<polygon fill="#63b8ff" stroke="#63b8ff" points="45.33,-410.71 45.09,-421.3 51.88,-413.17 45.33,-410.71"/>
</a>
</g>
</g>
<!-- Node14 -->
<g id="Node000014" class="node">
<title>Node14</title>
<g id="a_Node000014"><a xlink:href="class_web_a_p_i_1_1_controllers_1_1_project_partial_report_controller.html" target="_top" xlink:title="Controller de Relatório de Projeto.">
<polygon fill="white" stroke="#666666" points="268.62,-251.88 132.62,-251.88 132.62,-221.38 268.62,-221.38 268.62,-251.88"/>
<text text-anchor="start" x="140.62" y="-238.38" font-family="Helvetica,sans-Serif" font-size="10.00">WebAPI.Controllers.Project</text>
<text text-anchor="middle" x="200.62" y="-227.12" font-family="Helvetica,sans-Serif" font-size="10.00">PartialReportController</text>
</a>
</g>
</g>
<!-- Node0&#45;&gt;Node14 -->
<g id="edge169_Node000000_Node000014" class="edge">
<title>Node0&#45;&gt;Node14</title>
<g id="a_edge169_Node000000_Node000014"><a xlink:title=" ">
<path fill="none" stroke="#63b8ff" d="M44.61,-411.82C51.5,-375.89 70.64,-302.18 116.5,-261.62 121.24,-257.43 126.66,-253.94 132.42,-251.04"/>
<polygon fill="#63b8ff" stroke="#63b8ff" points="41.22,-410.89 42.92,-421.34 48.11,-412.11 41.22,-410.89"/>
</a>
</g>
</g>
<!-- Node15 -->
<g id="Node000015" class="node">
<title>Node15</title>
<g id="a_Node000015"><a xlink:href="class_web_a_p_i_1_1_controllers_1_1_student_controller.html" target="_top" xlink:title="Controller de Estudante.">
<polygon fill="white" stroke="#666666" points="270.12,-202.88 131.12,-202.88 131.12,-172.38 270.12,-172.38 270.12,-202.88"/>
<text text-anchor="start" x="139.12" y="-189.38" font-family="Helvetica,sans-Serif" font-size="10.00">WebAPI.Controllers.Student</text>
<text text-anchor="middle" x="200.62" y="-178.12" font-family="Helvetica,sans-Serif" font-size="10.00">Controller</text>
</a>
</g>
</g>
<!-- Node0&#45;&gt;Node15 -->
<g id="edge170_Node000000_Node000015" class="edge">
<title>Node0&#45;&gt;Node15</title>
<g id="a_edge170_Node000000_Node000015"><a xlink:title=" ">
<path fill="none" stroke="#63b8ff" d="M42.31,-411.2C45.65,-367.49 59.47,-267.56 116.5,-212.62 120.73,-208.55 125.61,-205.13 130.82,-202.27"/>
<polygon fill="#63b8ff" stroke="#63b8ff" points="38.83,-410.91 41.68,-421.11 45.81,-411.35 38.83,-410.91"/>
</a>
</g>
</g>
<!-- Node16 -->
<g id="Node000016" class="node">
<title>Node16</title>
<g id="a_Node000016"><a xlink:href="class_web_a_p_i_1_1_controllers_1_1_student_documents_controller.html" target="_top" xlink:title="Controller de Documentos de Estudante.">
<polygon fill="white" stroke="#666666" points="270.12,-153.88 131.12,-153.88 131.12,-123.38 270.12,-123.38 270.12,-153.88"/>
<text text-anchor="start" x="139.12" y="-140.38" font-family="Helvetica,sans-Serif" font-size="10.00">WebAPI.Controllers.Student</text>
<text text-anchor="middle" x="200.62" y="-129.12" font-family="Helvetica,sans-Serif" font-size="10.00">DocumentsController</text>
</a>
</g>
</g>
<!-- Node0&#45;&gt;Node16 -->
<g id="edge171_Node000000_Node000016" class="edge">
<title>Node0&#45;&gt;Node16</title>
<g id="a_edge171_Node000000_Node000016"><a xlink:title=" ">
<path fill="none" stroke="#63b8ff" d="M40.73,-411.39C40.68,-361.1 47.78,-233.69 116.5,-163.62 120.72,-159.32 125.65,-155.75 130.97,-152.79"/>
<polygon fill="#63b8ff" stroke="#63b8ff" points="37.22,-411.21 40.85,-421.17 44.22,-411.13 37.22,-411.21"/>
</a>
</g>
</g>
<!-- Node17 -->
<g id="Node000017" class="node">
<title>Node17</title>
<g id="a_Node000017"><a xlink:href="class_web_a_p_i_1_1_controllers_1_1_sub_area_controller.html" target="_top" xlink:title="Controller de Sub Área.">
<polygon fill="white" stroke="#666666" points="272,-104.88 129.25,-104.88 129.25,-74.38 272,-74.38 272,-104.88"/>
<text text-anchor="start" x="137.25" y="-91.38" font-family="Helvetica,sans-Serif" font-size="10.00">WebAPI.Controllers.SubArea</text>
<text text-anchor="middle" x="200.62" y="-80.12" font-family="Helvetica,sans-Serif" font-size="10.00">Controller</text>
</a>
</g>
</g>
<!-- Node0&#45;&gt;Node17 -->
<g id="edge172_Node000000_Node000017" class="edge">
<title>Node0&#45;&gt;Node17</title>
<g id="a_edge172_Node000000_Node000017"><a xlink:title=" ">
<path fill="none" stroke="#63b8ff" d="M43.51,-411.46C50.74,-347.58 75.29,-158.38 116.5,-114.62 120.12,-110.79 124.3,-107.53 128.82,-104.77"/>
<polygon fill="#63b8ff" stroke="#63b8ff" points="40.04,-410.97 42.43,-421.29 47,-411.73 40.04,-410.97"/>
</a>
</g>
</g>
<!-- Node18 -->
<g id="Node000018" class="node">
<title>Node18</title>
<g id="a_Node000018"><a xlink:href="class_web_a_p_i_1_1_controllers_1_1_user_controller.html" target="_top" xlink:title="Controller de Usuário.">
<polygon fill="white" stroke="#666666" points="284.75,-56.25 116.5,-56.25 116.5,-37 284.75,-37 284.75,-56.25"/>
<text text-anchor="middle" x="200.62" y="-42.75" font-family="Helvetica,sans-Serif" font-size="10.00">WebAPI.Controllers.UserController</text>
</a>
</g>
</g>
<!-- Node0&#45;&gt;Node18 -->
<g id="edge173_Node000000_Node000018" class="edge">
<title>Node0&#45;&gt;Node18</title>
<g id="a_edge173_Node000000_Node000018"><a xlink:title=" ">
<path fill="none" stroke="#63b8ff" d="M42.65,-411.36C47.75,-340.73 67.59,-115.64 116.5,-65.62 120.02,-62.03 124.07,-59.05 128.45,-56.59"/>
<polygon fill="#63b8ff" stroke="#63b8ff" points="39.17,-410.94 41.97,-421.16 46.16,-411.42 39.17,-410.94"/>
</a>
</g>
</g>
<!-- Node19 -->
<g id="Node000019" class="node">
<title>Node19</title>
<g id="a_Node000019"><a xlink:href="class_web_a_p_i_1_1_controllers_1_1_version.html" target="_top" xlink:title="Controller de validação.">
<polygon fill="white" stroke="#666666" points="269.75,-19.25 131.5,-19.25 131.5,0 269.75,0 269.75,-19.25"/>
<text text-anchor="middle" x="200.62" y="-5.75" font-family="Helvetica,sans-Serif" font-size="10.00">WebAPI.Controllers.Version</text>
</a>
</g>
</g>
<!-- Node0&#45;&gt;Node19 -->
<g id="edge174_Node000000_Node000019" class="edge">
<title>Node0&#45;&gt;Node19</title>
<g id="a_edge174_Node000000_Node000019"><a xlink:title=" ">
<path fill="none" stroke="#63b8ff" d="M42.17,-411.61C45.9,-336.57 62.34,-83.41 116.5,-27.62 120.72,-23.28 125.72,-19.87 131.14,-17.2"/>
<polygon fill="#63b8ff" stroke="#63b8ff" points="38.69,-411.1 41.72,-421.26 45.68,-411.43 38.69,-411.1"/>
</a>
</g>
</g>
</g>
</svg>
