<?xml version="1.0" encoding="UTF-8" standalone="no"?>
<!DOCTYPE svg PUBLIC "-//W3C//DTD SVG 1.1//EN"
 "http://www.w3.org/Graphics/SVG/1.1/DTD/svg11.dtd">
<!-- Generated by graphviz version 9.0.0 (20230911.1827)
 -->
<!-- Title: Representação gráfica da hiearquia da classe Pages: 1 -->
<svg width="270pt" height="629pt"
 viewBox="0.00 0.00 269.50 628.88" xmlns="http://www.w3.org/2000/svg" xmlns:xlink="http://www.w3.org/1999/xlink">
<g id="graph0" class="graph" transform="scale(1 1) rotate(0) translate(4 624.88)">
<title>Representação gráfica da hiearquia da classe</title>
<!-- Node0 -->
<g id="Node000000" class="node">
<title>Node0</title>
<g id="a_Node000000"><a xlink:title=" ">
<polygon fill="#e0e0e0" stroke="#999999" points="43.75,-320.25 0,-320.25 0,-301 43.75,-301 43.75,-320.25"/>
<text text-anchor="middle" x="21.88" y="-306.75" font-family="Helvetica,sans-Serif" font-size="10.00">Profile</text>
</a>
</g>
</g>
<!-- Node1 -->
<g id="Node000001" class="node">
<title>Node1</title>
<g id="a_Node000001"><a xlink:href="class_domain_1_1_mappings_1_1_activity_mappings.html" target="_top" xlink:title=" ">
<polygon fill="white" stroke="#666666" points="236,-620.88 105.25,-620.88 105.25,-590.38 236,-590.38 236,-620.88"/>
<text text-anchor="start" x="113.25" y="-607.38" font-family="Helvetica,sans-Serif" font-size="10.00">Domain.Mappings.Activity</text>
<text text-anchor="middle" x="170.62" y="-596.12" font-family="Helvetica,sans-Serif" font-size="10.00">Mappings</text>
</a>
</g>
</g>
<!-- Node0&#45;&gt;Node1 -->
<g id="edge259_Node000000_Node000001" class="edge">
<title>Node0&#45;&gt;Node1</title>
<g id="a_edge259_Node000000_Node000001"><a xlink:title=" ">
<path fill="none" stroke="#63b8ff" d="M24.51,-331.98C29.34,-389.43 45.4,-545.37 79.75,-581.62 86.64,-588.89 95.46,-594.05 104.88,-597.69"/>
<polygon fill="#63b8ff" stroke="#63b8ff" points="28.02,-331.93 23.73,-322.24 21.04,-332.49 28.02,-331.93"/>
</a>
</g>
</g>
<!-- Node2 -->
<g id="Node000002" class="node">
<title>Node2</title>
<g id="a_Node000002"><a xlink:href="class_domain_1_1_mappings_1_1_area_mappings.html" target="_top" xlink:title=" ">
<polygon fill="white" stroke="#666666" points="250.62,-572.25 90.62,-572.25 90.62,-553 250.62,-553 250.62,-572.25"/>
<text text-anchor="middle" x="170.62" y="-558.75" font-family="Helvetica,sans-Serif" font-size="10.00">Domain.Mappings.AreaMappings</text>
</a>
</g>
</g>
<!-- Node0&#45;&gt;Node2 -->
<g id="edge260_Node000000_Node000002" class="edge">
<title>Node0&#45;&gt;Node2</title>
<g id="a_edge260_Node000000_Node000002"><a xlink:title=" ">
<path fill="none" stroke="#63b8ff" d="M25.21,-332.1C31.29,-384 49.29,-514.1 79.75,-543.62 83.41,-547.18 87.57,-550.14 92.03,-552.6"/>
<polygon fill="#63b8ff" stroke="#63b8ff" points="28.69,-331.75 24.09,-322.21 21.74,-332.54 28.69,-331.75"/>
</a>
</g>
</g>
<!-- Node3 -->
<g id="Node000003" class="node">
<title>Node3</title>
<g id="a_Node000003"><a xlink:href="class_domain_1_1_mappings_1_1_assistance_type_mappings.html" target="_top" xlink:title=" ">
<polygon fill="white" stroke="#666666" points="243.88,-534.88 97.38,-534.88 97.38,-504.38 243.88,-504.38 243.88,-534.88"/>
<text text-anchor="start" x="105.38" y="-521.38" font-family="Helvetica,sans-Serif" font-size="10.00">Domain.Mappings.Assistance</text>
<text text-anchor="middle" x="170.62" y="-510.12" font-family="Helvetica,sans-Serif" font-size="10.00">TypeMappings</text>
</a>
</g>
</g>
<!-- Node0&#45;&gt;Node3 -->
<g id="edge261_Node000000_Node000003" class="edge">
<title>Node0&#45;&gt;Node3</title>
<g id="a_edge261_Node000000_Node000003"><a xlink:title=" ">
<path fill="none" stroke="#63b8ff" d="M23.07,-331.77C24.62,-370.07 33.54,-451.11 79.75,-495.62 84.75,-500.44 90.61,-504.32 96.89,-507.44"/>
<polygon fill="#63b8ff" stroke="#63b8ff" points="26.58,-331.75 22.83,-321.84 19.58,-331.93 26.58,-331.75"/>
</a>
</g>
</g>
<!-- Node4 -->
<g id="Node000004" class="node">
<title>Node4</title>
<g id="a_Node000004"><a xlink:href="class_domain_1_1_mappings_1_1_campus_mappings.html" target="_top" xlink:title=" ">
<polygon fill="white" stroke="#666666" points="258.88,-486.25 82.38,-486.25 82.38,-467 258.88,-467 258.88,-486.25"/>
<text text-anchor="middle" x="170.62" y="-472.75" font-family="Helvetica,sans-Serif" font-size="10.00">Domain.Mappings.CampusMappings</text>
</a>
</g>
</g>
<!-- Node0&#45;&gt;Node4 -->
<g id="edge262_Node000000_Node000004" class="edge">
<title>Node0&#45;&gt;Node4</title>
<g id="a_edge262_Node000000_Node000004"><a xlink:title=" ">
<path fill="none" stroke="#63b8ff" d="M24.68,-331.61C28.64,-364.05 41.12,-426.03 79.75,-458.62 83.4,-461.7 87.43,-464.31 91.69,-466.51"/>
<polygon fill="#63b8ff" stroke="#63b8ff" points="28.18,-331.48 23.67,-321.89 21.22,-332.2 28.18,-331.48"/>
</a>
</g>
</g>
<!-- Node5 -->
<g id="Node000005" class="node">
<title>Node5</title>
<g id="a_Node000005"><a xlink:href="class_domain_1_1_mappings_1_1_course_mappings.html" target="_top" xlink:title=" ">
<polygon fill="white" stroke="#666666" points="256.25,-449.25 85,-449.25 85,-430 256.25,-430 256.25,-449.25"/>
<text text-anchor="middle" x="170.62" y="-435.75" font-family="Helvetica,sans-Serif" font-size="10.00">Domain.Mappings.CourseMappings</text>
</a>
</g>
</g>
<!-- Node0&#45;&gt;Node5 -->
<g id="edge263_Node000000_Node000005" class="edge">
<title>Node0&#45;&gt;Node5</title>
<g id="a_edge263_Node000000_Node000005"><a xlink:title=" ">
<path fill="none" stroke="#63b8ff" d="M27.85,-331.58C34.95,-356.74 50.5,-398.35 79.75,-420.62 84.44,-424.2 89.66,-427.14 95.15,-429.55"/>
<polygon fill="#63b8ff" stroke="#63b8ff" points="31.3,-330.96 25.4,-322.17 24.53,-332.72 31.3,-330.96"/>
</a>
</g>
</g>
<!-- Node6 -->
<g id="Node000006" class="node">
<title>Node6</title>
<g id="a_Node000006"><a xlink:href="class_domain_1_1_mappings_1_1_main_area_mappings.html" target="_top" xlink:title=" ">
<polygon fill="white" stroke="#666666" points="240.12,-411.88 101.12,-411.88 101.12,-381.38 240.12,-381.38 240.12,-411.88"/>
<text text-anchor="start" x="109.12" y="-398.38" font-family="Helvetica,sans-Serif" font-size="10.00">Domain.Mappings.MainArea</text>
<text text-anchor="middle" x="170.62" y="-387.12" font-family="Helvetica,sans-Serif" font-size="10.00">Mappings</text>
</a>
</g>
</g>
<!-- Node0&#45;&gt;Node6 -->
<g id="edge264_Node000000_Node000006" class="edge">
<title>Node0&#45;&gt;Node6</title>
<g id="a_edge264_Node000000_Node000006"><a xlink:title=" ">
<path fill="none" stroke="#63b8ff" d="M35.84,-329.81C46.18,-343.66 61.86,-361.78 79.75,-372.62 86.24,-376.56 93.38,-379.86 100.71,-382.62"/>
<polygon fill="#63b8ff" stroke="#63b8ff" points="38.84,-327.98 30.18,-321.87 33.14,-332.04 38.84,-327.98"/>
</a>
</g>
</g>
<!-- Node7 -->
<g id="Node000007" class="node">
<title>Node7</title>
<g id="a_Node000007"><a xlink:href="class_domain_1_1_mappings_1_1_notice_mappings.html" target="_top" xlink:title=" ">
<polygon fill="white" stroke="#666666" points="254.75,-363.25 86.5,-363.25 86.5,-344 254.75,-344 254.75,-363.25"/>
<text text-anchor="middle" x="170.62" y="-349.75" font-family="Helvetica,sans-Serif" font-size="10.00">Domain.Mappings.NoticeMappings</text>
</a>
</g>
</g>
<!-- Node0&#45;&gt;Node7 -->
<g id="edge265_Node000000_Node000007" class="edge">
<title>Node0&#45;&gt;Node7</title>
<g id="a_edge265_Node000000_Node000007"><a xlink:title=" ">
<path fill="none" stroke="#63b8ff" d="M54.62,-325.28C62.7,-328.66 71.45,-332.02 79.75,-334.62 90.55,-338.01 102.28,-340.98 113.58,-343.51"/>
<polygon fill="#63b8ff" stroke="#63b8ff" points="56.07,-322.1 45.51,-321.33 53.29,-328.52 56.07,-322.1"/>
</a>
</g>
</g>
<!-- Node8 -->
<g id="Node000008" class="node">
<title>Node8</title>
<g id="a_Node000008"><a xlink:href="class_domain_1_1_mappings_1_1_professor_mappings.html" target="_top" xlink:title=" ">
<polygon fill="white" stroke="#666666" points="240.5,-325.88 100.75,-325.88 100.75,-295.38 240.5,-295.38 240.5,-325.88"/>
<text text-anchor="start" x="108.75" y="-312.38" font-family="Helvetica,sans-Serif" font-size="10.00">Domain.Mappings.Professor</text>
<text text-anchor="middle" x="170.62" y="-301.12" font-family="Helvetica,sans-Serif" font-size="10.00">Mappings</text>
</a>
</g>
</g>
<!-- Node0&#45;&gt;Node8 -->
<g id="edge266_Node000000_Node000008" class="edge">
<title>Node0&#45;&gt;Node8</title>
<g id="a_edge266_Node000000_Node000008"><a xlink:title=" ">
<path fill="none" stroke="#63b8ff" d="M55.62,-310.62C68.92,-310.62 84.83,-310.62 100.48,-310.62"/>
<polygon fill="#63b8ff" stroke="#63b8ff" points="55.73,-307.13 45.73,-310.63 55.73,-314.13 55.73,-307.13"/>
</a>
</g>
</g>
<!-- Node9 -->
<g id="Node000009" class="node">
<title>Node9</title>
<g id="a_Node000009"><a xlink:href="class_domain_1_1_mappings_1_1_program_type_mappings.html" target="_top" xlink:title=" ">
<polygon fill="white" stroke="#666666" points="248.38,-276.88 92.88,-276.88 92.88,-246.38 248.38,-246.38 248.38,-276.88"/>
<text text-anchor="start" x="100.88" y="-263.38" font-family="Helvetica,sans-Serif" font-size="10.00">Domain.Mappings.ProgramType</text>
<text text-anchor="middle" x="170.62" y="-252.12" font-family="Helvetica,sans-Serif" font-size="10.00">Mappings</text>
</a>
</g>
</g>
<!-- Node0&#45;&gt;Node9 -->
<g id="edge267_Node000000_Node000009" class="edge">
<title>Node0&#45;&gt;Node9</title>
<g id="a_edge267_Node000000_Node000009"><a xlink:title=" ">
<path fill="none" stroke="#63b8ff" d="M54.74,-296.33C62.82,-292.94 71.54,-289.49 79.75,-286.62 89.23,-283.32 99.39,-280.15 109.35,-277.24"/>
<polygon fill="#63b8ff" stroke="#63b8ff" points="53.43,-293.09 45.62,-300.25 56.19,-299.52 53.43,-293.09"/>
</a>
</g>
</g>
<!-- Node10 -->
<g id="Node000010" class="node">
<title>Node10</title>
<g id="a_Node000010"><a xlink:href="class_domain_1_1_mappings_1_1_project_evaluation_mappings.html" target="_top" xlink:title=" ">
<polygon fill="white" stroke="#666666" points="257.75,-227.88 83.5,-227.88 83.5,-197.38 257.75,-197.38 257.75,-227.88"/>
<text text-anchor="start" x="91.5" y="-214.38" font-family="Helvetica,sans-Serif" font-size="10.00">Domain.Mappings.ProjectEvaluation</text>
<text text-anchor="middle" x="170.62" y="-203.12" font-family="Helvetica,sans-Serif" font-size="10.00">Mappings</text>
</a>
</g>
</g>
<!-- Node0&#45;&gt;Node10 -->
<g id="edge268_Node000000_Node000010" class="edge">
<title>Node0&#45;&gt;Node10</title>
<g id="a_edge268_Node000000_Node000010"><a xlink:title=" ">
<path fill="none" stroke="#63b8ff" d="M33.41,-290.92C43.27,-274.33 59.49,-251.19 79.75,-237.62 85.13,-234.02 91.03,-230.93 97.14,-228.29"/>
<polygon fill="#63b8ff" stroke="#63b8ff" points="30.49,-288.97 28.62,-299.39 36.59,-292.41 30.49,-288.97"/>
</a>
</g>
</g>
<!-- Node11 -->
<g id="Node000011" class="node">
<title>Node11</title>
<g id="a_Node000011"><a xlink:href="class_domain_1_1_mappings_1_1_project_mappings.html" target="_top" xlink:title=" ">
<polygon fill="white" stroke="#666666" points="255.88,-179.25 85.38,-179.25 85.38,-160 255.88,-160 255.88,-179.25"/>
<text text-anchor="middle" x="170.62" y="-165.75" font-family="Helvetica,sans-Serif" font-size="10.00">Domain.Mappings.ProjectMappings</text>
</a>
</g>
</g>
<!-- Node0&#45;&gt;Node11 -->
<g id="edge269_Node000000_Node000011" class="edge">
<title>Node0&#45;&gt;Node11</title>
<g id="a_edge269_Node000000_Node000011"><a xlink:title=" ">
<path fill="none" stroke="#63b8ff" d="M26.72,-289.44C32.88,-261.83 47.7,-214.09 79.75,-188.62 84.25,-185.05 89.25,-182.11 94.54,-179.69"/>
<polygon fill="#63b8ff" stroke="#63b8ff" points="23.32,-288.57 24.77,-299.07 30.18,-289.96 23.32,-288.57"/>
</a>
</g>
</g>
<!-- Node12 -->
<g id="Node000012" class="node">
<title>Node12</title>
<g id="a_Node000012"><a xlink:href="class_domain_1_1_mappings_1_1_student_documents_mappings.html" target="_top" xlink:title=" ">
<polygon fill="white" stroke="#666666" points="261.5,-141.88 79.75,-141.88 79.75,-111.38 261.5,-111.38 261.5,-141.88"/>
<text text-anchor="start" x="87.75" y="-128.38" font-family="Helvetica,sans-Serif" font-size="10.00">Domain.Mappings.StudentDocuments</text>
<text text-anchor="middle" x="170.62" y="-117.12" font-family="Helvetica,sans-Serif" font-size="10.00">Mappings</text>
</a>
</g>
</g>
<!-- Node0&#45;&gt;Node12 -->
<g id="edge270_Node000000_Node000012" class="edge">
<title>Node0&#45;&gt;Node12</title>
<g id="a_edge270_Node000000_Node000012"><a xlink:title=" ">
<path fill="none" stroke="#63b8ff" d="M24.3,-289.24C27.77,-254.93 39.59,-187.67 79.75,-150.62 83.19,-147.45 87.01,-144.69 91.07,-142.28"/>
<polygon fill="#63b8ff" stroke="#63b8ff" points="20.82,-288.88 23.47,-299.14 27.8,-289.47 20.82,-288.88"/>
</a>
</g>
</g>
<!-- Node13 -->
<g id="Node000013" class="node">
<title>Node13</title>
<g id="a_Node000013"><a xlink:href="class_domain_1_1_mappings_1_1_student_mappings.html" target="_top" xlink:title=" ">
<polygon fill="white" stroke="#666666" points="257.38,-93.25 83.88,-93.25 83.88,-74 257.38,-74 257.38,-93.25"/>
<text text-anchor="middle" x="170.62" y="-79.75" font-family="Helvetica,sans-Serif" font-size="10.00">Domain.Mappings.StudentMappings</text>
</a>
</g>
</g>
<!-- Node0&#45;&gt;Node13 -->
<g id="edge271_Node000000_Node000013" class="edge">
<title>Node0&#45;&gt;Node13</title>
<g id="a_edge271_Node000000_Node000013"><a xlink:title=" ">
<path fill="none" stroke="#63b8ff" d="M21.98,-289.25C21.45,-247.03 26.68,-152.67 79.75,-102.62 83.58,-99.01 87.91,-96.02 92.56,-93.54"/>
<polygon fill="#63b8ff" stroke="#63b8ff" points="18.47,-289.16 22.24,-299.06 25.47,-288.97 18.47,-289.16"/>
</a>
</g>
</g>
<!-- Node14 -->
<g id="Node000014" class="node">
<title>Node14</title>
<g id="a_Node000014"><a xlink:href="class_domain_1_1_mappings_1_1_sub_area_mappings.html" target="_top" xlink:title=" ">
<polygon fill="white" stroke="#666666" points="259.25,-56.25 82,-56.25 82,-37 259.25,-37 259.25,-56.25"/>
<text text-anchor="middle" x="170.62" y="-42.75" font-family="Helvetica,sans-Serif" font-size="10.00">Domain.Mappings.SubAreaMappings</text>
</a>
</g>
</g>
<!-- Node0&#45;&gt;Node14 -->
<g id="edge272_Node000000_Node000014" class="edge">
<title>Node0&#45;&gt;Node14</title>
<g id="a_edge272_Node000000_Node000014"><a xlink:title=" ">
<path fill="none" stroke="#63b8ff" d="M24.87,-289.36C30.35,-235.55 47.43,-96 79.75,-64.62 82.95,-61.52 86.52,-58.88 90.35,-56.64"/>
<polygon fill="#63b8ff" stroke="#63b8ff" points="21.41,-288.75 23.92,-299.05 28.38,-289.44 21.41,-288.75"/>
</a>
</g>
</g>
<!-- Node15 -->
<g id="Node000015" class="node">
<title>Node15</title>
<g id="a_Node000015"><a xlink:href="class_domain_1_1_mappings_1_1_user_mappings.html" target="_top" xlink:title=" ">
<polygon fill="white" stroke="#666666" points="251,-19.25 90.25,-19.25 90.25,0 251,0 251,-19.25"/>
<text text-anchor="middle" x="170.62" y="-5.75" font-family="Helvetica,sans-Serif" font-size="10.00">Domain.Mappings.UserMappings</text>
</a>
</g>
</g>
<!-- Node0&#45;&gt;Node15 -->
<g id="edge273_Node000000_Node000015" class="edge">
<title>Node0&#45;&gt;Node15</title>
<g id="a_edge273_Node000000_Node000015"><a xlink:title=" ">
<path fill="none" stroke="#63b8ff" d="M24.17,-289.38C28.22,-230.09 42.68,-64.67 79.75,-27.62 82.9,-24.48 86.44,-21.8 90.24,-19.53"/>
<polygon fill="#63b8ff" stroke="#63b8ff" points="20.69,-288.92 23.54,-299.12 27.68,-289.37 20.69,-288.92"/>
</a>
</g>
</g>
</g>
</svg>
