<?xml version="1.0" encoding="UTF-8" standalone="no"?>
<!DOCTYPE svg PUBLIC "-//W3C//DTD SVG 1.1//EN"
 "http://www.w3.org/Graphics/SVG/1.1/DTD/svg11.dtd">
<!-- Generated by graphviz version 9.0.0 (20230911.1827)
 -->
<!-- Title: Representação gráfica da hiearquia da classe Pages: 1 -->
<svg width="308pt" height="186pt"
 viewBox="0.00 0.00 307.75 185.50" xmlns="http://www.w3.org/2000/svg" xmlns:xlink="http://www.w3.org/1999/xlink">
<g id="graph0" class="graph" transform="scale(1 1) rotate(0) translate(4 181.5)">
<title>Representação gráfica da hiearquia da classe</title>
<!-- Node0 -->
<g id="Node000000" class="node">
<title>Node0</title>
<g id="a_Node000000"><a xlink:href="class_application_1_1_ports_1_1_notice_1_1_base_notice_contract.html" target="_top" xlink:title=" ">
<polygon fill="white" stroke="#666666" points="124.75,-103.5 0,-103.5 0,-73 124.75,-73 124.75,-103.5"/>
<text text-anchor="start" x="8" y="-90" font-family="Helvetica,sans-Serif" font-size="10.00">Application.Ports.Notice.</text>
<text text-anchor="middle" x="62.38" y="-78.75" font-family="Helvetica,sans-Serif" font-size="10.00">BaseNoticeContract</text>
</a>
</g>
</g>
<!-- Node1 -->
<g id="Node000001" class="node">
<title>Node1</title>
<g id="a_Node000001"><a xlink:href="class_application_1_1_ports_1_1_notice_1_1_create_notice_input.html" target="_top" xlink:title=" ">
<polygon fill="white" stroke="#666666" points="292.62,-177.5 167.88,-177.5 167.88,-147 292.62,-147 292.62,-177.5"/>
<text text-anchor="start" x="175.88" y="-164" font-family="Helvetica,sans-Serif" font-size="10.00">Application.Ports.Notice.</text>
<text text-anchor="middle" x="230.25" y="-152.75" font-family="Helvetica,sans-Serif" font-size="10.00">CreateNoticeInput</text>
</a>
</g>
</g>
<!-- Node0&#45;&gt;Node1 -->
<g id="edge123_Node000000_Node000001" class="edge">
<title>Node0&#45;&gt;Node1</title>
<g id="a_edge123_Node000000_Node000001"><a xlink:title=" ">
<path fill="none" stroke="#63b8ff" d="M102.28,-109.13C119.9,-118.25 141.15,-128.77 160.75,-137.25 168.19,-140.47 176.19,-143.64 184,-146.58"/>
<polygon fill="#63b8ff" stroke="#63b8ff" points="104.18,-106.17 93.7,-104.65 100.94,-112.38 104.18,-106.17"/>
</a>
</g>
</g>
<!-- Node2 -->
<g id="Node000002" class="node">
<title>Node2</title>
<g id="a_Node000002"><a xlink:href="class_application_1_1_ports_1_1_notice_1_1_detailed_read_notice_output.html" target="_top" xlink:title=" ">
<polygon fill="white" stroke="#666666" points="296.75,-128.5 163.75,-128.5 163.75,-98 296.75,-98 296.75,-128.5"/>
<text text-anchor="start" x="171.75" y="-115" font-family="Helvetica,sans-Serif" font-size="10.00">Application.Ports.Notice.</text>
<text text-anchor="middle" x="230.25" y="-103.75" font-family="Helvetica,sans-Serif" font-size="10.00">DetailedReadNoticeOutput</text>
</a>
</g>
</g>
<!-- Node0&#45;&gt;Node2 -->
<g id="edge124_Node000000_Node000002" class="edge">
<title>Node0&#45;&gt;Node2</title>
<g id="a_edge124_Node000000_Node000002"><a xlink:title=" ">
<path fill="none" stroke="#63b8ff" d="M136.36,-99.25C145.32,-100.6 154.42,-101.97 163.26,-103.3"/>
<polygon fill="#63b8ff" stroke="#63b8ff" points="137.05,-95.81 126.64,-97.78 136,-102.74 137.05,-95.81"/>
</a>
</g>
</g>
<!-- Node3 -->
<g id="Node000003" class="node">
<title>Node3</title>
<g id="a_Node000003"><a xlink:href="class_application_1_1_ports_1_1_notice_1_1_resumed_read_notice_output.html" target="_top" xlink:title=" ">
<polygon fill="white" stroke="#666666" points="299.75,-79.5 160.75,-79.5 160.75,-49 299.75,-49 299.75,-79.5"/>
<text text-anchor="start" x="168.75" y="-66" font-family="Helvetica,sans-Serif" font-size="10.00">Application.Ports.Notice.</text>
<text text-anchor="middle" x="230.25" y="-54.75" font-family="Helvetica,sans-Serif" font-size="10.00">ResumedReadNoticeOutput</text>
</a>
</g>
</g>
<!-- Node0&#45;&gt;Node3 -->
<g id="edge125_Node000000_Node000003" class="edge">
<title>Node0&#45;&gt;Node3</title>
<g id="a_edge125_Node000000_Node000003"><a xlink:title=" ">
<path fill="none" stroke="#63b8ff" d="M136.35,-77.69C144.36,-76.53 152.5,-75.35 160.46,-74.2"/>
<polygon fill="#63b8ff" stroke="#63b8ff" points="136.03,-74.2 126.64,-79.1 137.04,-81.13 136.03,-74.2"/>
</a>
</g>
</g>
<!-- Node4 -->
<g id="Node000004" class="node">
<title>Node4</title>
<g id="a_Node000004"><a xlink:href="class_application_1_1_ports_1_1_notice_1_1_update_notice_input.html" target="_top" xlink:title=" ">
<polygon fill="white" stroke="#666666" points="292.62,-30.5 167.88,-30.5 167.88,0 292.62,0 292.62,-30.5"/>
<text text-anchor="start" x="175.88" y="-17" font-family="Helvetica,sans-Serif" font-size="10.00">Application.Ports.Notice.</text>
<text text-anchor="middle" x="230.25" y="-5.75" font-family="Helvetica,sans-Serif" font-size="10.00">UpdateNoticeInput</text>
</a>
</g>
</g>
<!-- Node0&#45;&gt;Node4 -->
<g id="edge126_Node000000_Node000004" class="edge">
<title>Node0&#45;&gt;Node4</title>
<g id="a_edge126_Node000000_Node000004"><a xlink:title=" ">
<path fill="none" stroke="#63b8ff" d="M102.71,-67.65C120.27,-58.77 141.34,-48.55 160.75,-40.25 168.2,-37.07 176.21,-33.91 184.03,-30.97"/>
<polygon fill="#63b8ff" stroke="#63b8ff" points="101.48,-64.35 94.17,-72.01 104.67,-70.59 101.48,-64.35"/>
</a>
</g>
</g>
</g>
</svg>
