<?xml version="1.0" encoding="UTF-8" standalone="no"?>
<!DOCTYPE svg PUBLIC "-//W3C//DTD SVG 1.1//EN"
 "http://www.w3.org/Graphics/SVG/1.1/DTD/svg11.dtd">
<!-- Generated by graphviz version 9.0.0 (20230911.1827)
 -->
<!-- Title: Representação gráfica da hiearquia da classe Pages: 1 -->
<svg width="234pt" height="88pt"
 viewBox="0.00 0.00 233.50 87.50" xmlns="http://www.w3.org/2000/svg" xmlns:xlink="http://www.w3.org/1999/xlink">
<g id="graph0" class="graph" transform="scale(1 1) rotate(0) translate(4 83.5)">
<title>Representação gráfica da hiearquia da classe</title>
<!-- Node0 -->
<g id="Node000000" class="node">
<title>Node0</title>
<g id="a_Node000000"><a xlink:title=" ">
<polygon fill="#e0e0e0" stroke="#999999" points="59.5,-48.88 0,-48.88 0,-29.62 59.5,-29.62 59.5,-48.88"/>
<text text-anchor="middle" x="29.75" y="-35.38" font-family="Helvetica,sans-Serif" font-size="10.00">Exception</text>
</a>
</g>
</g>
<!-- Node1 -->
<g id="Node000001" class="node">
<title>Node1</title>
<g id="a_Node000001"><a xlink:href="class_application_1_1_validation_1_1_use_case_exception.html" target="_top" xlink:title=" ">
<polygon fill="white" stroke="#666666" points="225.5,-79.5 95.5,-79.5 95.5,-49 225.5,-49 225.5,-79.5"/>
<text text-anchor="start" x="103.5" y="-66" font-family="Helvetica,sans-Serif" font-size="10.00">Application.Validation.Use</text>
<text text-anchor="middle" x="160.5" y="-54.75" font-family="Helvetica,sans-Serif" font-size="10.00">CaseException</text>
</a>
</g>
</g>
<!-- Node0&#45;&gt;Node1 -->
<g id="edge236_Node000000_Node000001" class="edge">
<title>Node0&#45;&gt;Node1</title>
<g id="a_edge236_Node000000_Node000001"><a xlink:title=" ">
<path fill="none" stroke="#63b8ff" d="M71.13,-47.09C78.8,-48.58 87,-50.17 95.19,-51.76"/>
<polygon fill="#63b8ff" stroke="#63b8ff" points="71.93,-43.68 61.45,-45.21 70.6,-50.55 71.93,-43.68"/>
</a>
</g>
</g>
<!-- Node2 -->
<g id="Node000002" class="node">
<title>Node2</title>
<g id="a_Node000002"><a xlink:href="class_domain_1_1_validation_1_1_entity_exception_validation.html" target="_top" xlink:title=" ">
<polygon fill="white" stroke="#666666" points="222.12,-30.5 98.88,-30.5 98.88,0 222.12,0 222.12,-30.5"/>
<text text-anchor="start" x="106.88" y="-17" font-family="Helvetica,sans-Serif" font-size="10.00">Domain.Validation.Entity</text>
<text text-anchor="middle" x="160.5" y="-5.75" font-family="Helvetica,sans-Serif" font-size="10.00">ExceptionValidation</text>
</a>
</g>
</g>
<!-- Node0&#45;&gt;Node2 -->
<g id="edge237_Node000000_Node000002" class="edge">
<title>Node0&#45;&gt;Node2</title>
<g id="a_edge237_Node000000_Node000002"><a xlink:title=" ">
<path fill="none" stroke="#63b8ff" d="M71.01,-31.74C79.77,-30.11 89.22,-28.35 98.58,-26.61"/>
<polygon fill="#63b8ff" stroke="#63b8ff" points="70.64,-28.25 61.45,-33.53 71.93,-35.13 70.64,-28.25"/>
</a>
</g>
</g>
</g>
</svg>
