<?xml version="1.0" encoding="UTF-8" standalone="no"?>
<!DOCTYPE svg PUBLIC "-//W3C//DTD SVG 1.1//EN"
 "http://www.w3.org/Graphics/SVG/1.1/DTD/svg11.dtd">
<!-- Generated by graphviz version 9.0.0 (20230911.1827)
 -->
<!-- Title: Domain.Interfaces.Repositories.INoticeRepository Pages: 1 -->
<svg width="165pt" height="172pt"
 viewBox="0.00 0.00 165.00 171.50" xmlns="http://www.w3.org/2000/svg" xmlns:xlink="http://www.w3.org/1999/xlink">
<g id="graph0" class="graph" transform="scale(1 1) rotate(0) translate(4 167.5)">
<title>Domain.Interfaces.Repositories.INoticeRepository</title>
<!-- Node1 -->
<g id="Node000001" class="node">
<title>Node1</title>
<g id="a_Node000001"><a xlink:title=" ">
<polygon fill="#999999" stroke="#666666" points="157,-97 0,-97 0,-66.5 157,-66.5 157,-97"/>
<text text-anchor="start" x="8" y="-83.5" font-family="Helvetica,sans-Serif" font-size="10.00">Domain.Interfaces.Repositories.</text>
<text text-anchor="middle" x="78.5" y="-72.25" font-family="Helvetica,sans-Serif" font-size="10.00">INoticeRepository</text>
</a>
</g>
</g>
<!-- Node3 -->
<g id="Node000003" class="node">
<title>Node3</title>
<g id="a_Node000003"><a xlink:href="class_persistence_1_1_repositories_1_1_notice_repository.html" target="_top" xlink:title=" ">
<polygon fill="white" stroke="#666666" points="142.75,-30.5 14.25,-30.5 14.25,0 142.75,0 142.75,-30.5"/>
<text text-anchor="start" x="22.25" y="-17" font-family="Helvetica,sans-Serif" font-size="10.00">Persistence.Repositories.</text>
<text text-anchor="middle" x="78.5" y="-5.75" font-family="Helvetica,sans-Serif" font-size="10.00">NoticeRepository</text>
</a>
</g>
</g>
<!-- Node1&#45;&gt;Node3 -->
<g id="edge2_Node000001_Node000003" class="edge">
<title>Node1&#45;&gt;Node3</title>
<g id="a_edge2_Node000001_Node000003"><a xlink:title=" ">
<path fill="none" stroke="#63b8ff" d="M78.5,-54.81C78.5,-46.64 78.5,-37.91 78.5,-30.83"/>
<polygon fill="#63b8ff" stroke="#63b8ff" points="75,-54.6 78.5,-64.6 82,-54.6 75,-54.6"/>
</a>
</g>
</g>
<!-- Node2 -->
<g id="Node000002" class="node">
<title>Node2</title>
<g id="a_Node000002"><a xlink:href="interface_domain_1_1_interfaces_1_1_repositories_1_1_bases_1_1_i_generic_c_r_u_d_repository.html" target="_top" xlink:title=" ">
<polygon fill="white" stroke="#666666" points="143.5,-163.5 13.5,-163.5 13.5,-133 143.5,-133 143.5,-163.5"/>
<text text-anchor="start" x="21.5" y="-150" font-family="Helvetica,sans-Serif" font-size="10.00">IGenericCRUDRepository</text>
<text text-anchor="middle" x="78.5" y="-138.75" font-family="Helvetica,sans-Serif" font-size="10.00">&lt; Notice &gt;</text>
</a>
</g>
</g>
<!-- Node2&#45;&gt;Node1 -->
<g id="edge1_Node000001_Node000002" class="edge">
<title>Node2&#45;&gt;Node1</title>
<g id="a_edge1_Node000001_Node000002"><a xlink:title=" ">
<path fill="none" stroke="#63b8ff" d="M78.5,-121.31C78.5,-113.14 78.5,-104.41 78.5,-97.33"/>
<polygon fill="#63b8ff" stroke="#63b8ff" points="75,-121.1 78.5,-131.1 82,-121.1 75,-121.1"/>
</a>
</g>
</g>
</g>
</svg>
