<?xml version="1.0" encoding="UTF-8" standalone="no"?>
<!DOCTYPE svg PUBLIC "-//W3C//DTD SVG 1.1//EN"
 "http://www.w3.org/Graphics/SVG/1.1/DTD/svg11.dtd">
<!-- Generated by graphviz version 9.0.0 (20230911.1827)
 -->
<!-- Title: Persistence.Repositories.StudentDocumentsRepository Pages: 1 -->
<svg width="158pt" height="160pt"
 viewBox="0.00 0.00 158.25 160.25" xmlns="http://www.w3.org/2000/svg" xmlns:xlink="http://www.w3.org/1999/xlink">
<g id="graph0" class="graph" transform="scale(1 1) rotate(0) translate(4 156.25)">
<title>Persistence.Repositories.StudentDocumentsRepository</title>
<!-- Node1 -->
<g id="Node000001" class="node">
<title>Node1</title>
<g id="a_Node000001"><a xlink:title=" ">
<polygon fill="#999999" stroke="#666666" points="148.75,-30.5 1.5,-30.5 1.5,0 148.75,0 148.75,-30.5"/>
<text text-anchor="start" x="9.5" y="-17" font-family="Helvetica,sans-Serif" font-size="10.00">Persistence.Repositories.</text>
<text text-anchor="middle" x="75.12" y="-5.75" font-family="Helvetica,sans-Serif" font-size="10.00">StudentDocumentsRepository</text>
</a>
</g>
</g>
<!-- Node2 -->
<g id="Node000002" class="node">
<title>Node2</title>
<g id="a_Node000002"><a xlink:href="interface_domain_1_1_interfaces_1_1_repositories_1_1_i_student_documents_repository.html" target="_top" xlink:title=" ">
<polygon fill="white" stroke="#666666" points="150.25,-85.75 0,-85.75 0,-66.5 150.25,-66.5 150.25,-85.75"/>
<text text-anchor="middle" x="75.12" y="-72.25" font-family="Helvetica,sans-Serif" font-size="10.00">IStudentDocumentsRepository</text>
</a>
</g>
</g>
<!-- Node2&#45;&gt;Node1 -->
<g id="edge1_Node000001_Node000002" class="edge">
<title>Node2&#45;&gt;Node1</title>
<g id="a_edge1_Node000001_Node000002"><a xlink:title=" ">
<path fill="none" stroke="#63b8ff" d="M75.12,-54.92C75.12,-46.99 75.12,-38.06 75.12,-30.78"/>
<polygon fill="#63b8ff" stroke="#63b8ff" points="71.63,-54.67 75.13,-64.67 78.63,-54.67 71.63,-54.67"/>
</a>
</g>
</g>
<!-- Node3 -->
<g id="Node000003" class="node">
<title>Node3</title>
<g id="a_Node000003"><a xlink:href="interface_domain_1_1_interfaces_1_1_repositories_1_1_bases_1_1_i_generic_c_r_u_d_repository.html" target="_top" xlink:title=" ">
<polygon fill="white" stroke="#666666" points="140.12,-152.25 10.12,-152.25 10.12,-121.75 140.12,-121.75 140.12,-152.25"/>
<text text-anchor="start" x="18.12" y="-138.75" font-family="Helvetica,sans-Serif" font-size="10.00">IGenericCRUDRepository</text>
<text text-anchor="middle" x="75.12" y="-127.5" font-family="Helvetica,sans-Serif" font-size="10.00">&lt; StudentDocuments &gt;</text>
</a>
</g>
</g>
<!-- Node3&#45;&gt;Node2 -->
<g id="edge2_Node000002_Node000003" class="edge">
<title>Node3&#45;&gt;Node2</title>
<g id="a_edge2_Node000002_Node000003"><a xlink:title=" ">
<path fill="none" stroke="#63b8ff" d="M75.12,-109.98C75.12,-101.48 75.12,-92.59 75.12,-86.2"/>
<polygon fill="#63b8ff" stroke="#63b8ff" points="71.63,-109.93 75.13,-119.93 78.63,-109.93 71.63,-109.93"/>
</a>
</g>
</g>
</g>
</svg>
