<?xml version="1.0" encoding="UTF-8" standalone="no"?>
<!DOCTYPE svg PUBLIC "-//W3C//DTD SVG 1.1//EN"
 "http://www.w3.org/Graphics/SVG/1.1/DTD/svg11.dtd">
<!-- Generated by graphviz version 9.0.0 (20230911.1827)
 -->
<!-- Title: Application.Ports.Professor.BaseProfessorContract Pages: 1 -->
<svg width="334pt" height="186pt"
 viewBox="0.00 0.00 334.00 185.50" xmlns="http://www.w3.org/2000/svg" xmlns:xlink="http://www.w3.org/1999/xlink">
<g id="graph0" class="graph" transform="scale(1 1) rotate(0) translate(4 181.5)">
<title>Application.Ports.Professor.BaseProfessorContract</title>
<!-- Node1 -->
<g id="Node000001" class="node">
<title>Node1</title>
<g id="a_Node000001"><a xlink:title=" ">
<polygon fill="#999999" stroke="#666666" points="137.5,-103.5 0,-103.5 0,-73 137.5,-73 137.5,-103.5"/>
<text text-anchor="start" x="8" y="-90" font-family="Helvetica,sans-Serif" font-size="10.00">Application.Ports.Professor.</text>
<text text-anchor="middle" x="68.75" y="-78.75" font-family="Helvetica,sans-Serif" font-size="10.00">BaseProfessorContract</text>
</a>
</g>
</g>
<!-- Node2 -->
<g id="Node000002" class="node">
<title>Node2</title>
<g id="a_Node000002"><a xlink:href="class_application_1_1_ports_1_1_professor_1_1_create_professor_input.html" target="_top" xlink:title=" ">
<polygon fill="white" stroke="#666666" points="318.5,-177.5 181,-177.5 181,-147 318.5,-147 318.5,-177.5"/>
<text text-anchor="start" x="189" y="-164" font-family="Helvetica,sans-Serif" font-size="10.00">Application.Ports.Professor.</text>
<text text-anchor="middle" x="249.75" y="-152.75" font-family="Helvetica,sans-Serif" font-size="10.00">CreateProfessorInput</text>
</a>
</g>
</g>
<!-- Node1&#45;&gt;Node2 -->
<g id="edge1_Node000001_Node000002" class="edge">
<title>Node1&#45;&gt;Node2</title>
<g id="a_edge1_Node000001_Node000002"><a xlink:title=" ">
<path fill="none" stroke="#63b8ff" d="M110.27,-108.78C129.24,-118.03 152.28,-128.75 173.5,-137.25 181.55,-140.47 190.2,-143.63 198.66,-146.55"/>
<polygon fill="#63b8ff" stroke="#63b8ff" points="112.07,-105.76 101.55,-104.48 108.97,-112.04 112.07,-105.76"/>
</a>
</g>
</g>
<!-- Node3 -->
<g id="Node000003" class="node">
<title>Node3</title>
<g id="a_Node000003"><a xlink:href="class_application_1_1_ports_1_1_professor_1_1_detailed_read_professor_output.html" target="_top" xlink:title=" ">
<polygon fill="white" stroke="#666666" points="323,-128.5 176.5,-128.5 176.5,-98 323,-98 323,-128.5"/>
<text text-anchor="start" x="184.5" y="-115" font-family="Helvetica,sans-Serif" font-size="10.00">Application.Ports.Professor.</text>
<text text-anchor="middle" x="249.75" y="-103.75" font-family="Helvetica,sans-Serif" font-size="10.00">DetailedReadProfessorOutput</text>
</a>
</g>
</g>
<!-- Node1&#45;&gt;Node3 -->
<g id="edge2_Node000001_Node000003" class="edge">
<title>Node1&#45;&gt;Node3</title>
<g id="a_edge2_Node000001_Node000003"><a xlink:title=" ">
<path fill="none" stroke="#63b8ff" d="M149.24,-99.35C158.24,-100.61 167.38,-101.89 176.29,-103.13"/>
<polygon fill="#63b8ff" stroke="#63b8ff" points="149.82,-95.9 139.43,-97.98 148.85,-102.83 149.82,-95.9"/>
</a>
</g>
</g>
<!-- Node4 -->
<g id="Node000004" class="node">
<title>Node4</title>
<g id="a_Node000004"><a xlink:href="class_application_1_1_ports_1_1_professor_1_1_resumed_read_professor_output.html" target="_top" xlink:title=" ">
<polygon fill="white" stroke="#666666" points="326,-79.5 173.5,-79.5 173.5,-49 326,-49 326,-79.5"/>
<text text-anchor="start" x="181.5" y="-66" font-family="Helvetica,sans-Serif" font-size="10.00">Application.Ports.Professor.</text>
<text text-anchor="middle" x="249.75" y="-54.75" font-family="Helvetica,sans-Serif" font-size="10.00">ResumedReadProfessorOutput</text>
</a>
</g>
</g>
<!-- Node1&#45;&gt;Node4 -->
<g id="edge3_Node000001_Node000004" class="edge">
<title>Node1&#45;&gt;Node4</title>
<g id="a_edge3_Node000001_Node000004"><a xlink:title=" ">
<path fill="none" stroke="#63b8ff" d="M149.17,-77.6C157.19,-76.53 165.31,-75.44 173.29,-74.37"/>
<polygon fill="#63b8ff" stroke="#63b8ff" points="148.88,-74.11 139.43,-78.91 149.81,-81.05 148.88,-74.11"/>
</a>
</g>
</g>
<!-- Node5 -->
<g id="Node000005" class="node">
<title>Node5</title>
<g id="a_Node000005"><a xlink:href="class_application_1_1_ports_1_1_professor_1_1_update_professor_input.html" target="_top" xlink:title=" ">
<polygon fill="white" stroke="#666666" points="318.5,-30.5 181,-30.5 181,0 318.5,0 318.5,-30.5"/>
<text text-anchor="start" x="189" y="-17" font-family="Helvetica,sans-Serif" font-size="10.00">Application.Ports.Professor.</text>
<text text-anchor="middle" x="249.75" y="-5.75" font-family="Helvetica,sans-Serif" font-size="10.00">UpdateProfessorInput</text>
</a>
</g>
</g>
<!-- Node1&#45;&gt;Node5 -->
<g id="edge4_Node000001_Node000005" class="edge">
<title>Node1&#45;&gt;Node5</title>
<g id="a_edge4_Node000001_Node000005"><a xlink:title=" ">
<path fill="none" stroke="#63b8ff" d="M111.41,-67.67C130.18,-58.74 152.73,-48.47 173.5,-40.25 181.69,-37.01 190.49,-33.82 199.08,-30.87"/>
<polygon fill="#63b8ff" stroke="#63b8ff" points="110,-64.47 102.5,-71.95 113.03,-70.78 110,-64.47"/>
</a>
</g>
</g>
</g>
</svg>
