<?xml version="1.0" encoding="UTF-8" standalone="no"?>
<!DOCTYPE svg PUBLIC "-//W3C//DTD SVG 1.1//EN"
 "http://www.w3.org/Graphics/SVG/1.1/DTD/svg11.dtd">
<!-- Generated by graphviz version 2.43.0 (0)
 -->
<!-- Title: Application.UseCases.Student.RequestStudentRegister.ExecuteAsync Pages: 1 -->
<svg width="679pt" height="137pt"
 viewBox="0.00 0.00 679.00 137.00" xmlns="http://www.w3.org/2000/svg" xmlns:xlink="http://www.w3.org/1999/xlink">
<g id="graph0" class="graph" transform="scale(1 1) rotate(0) translate(4 133)">
<title>Application.UseCases.Student.RequestStudentRegister.ExecuteAsync</title>
<!-- Node1 -->
<g id="node1" class="node">
<title>Node1</title>
<g id="a_node1"><a xlink:title=" ">
<polygon fill="#bfbfbf" stroke="black" points="0,-49.5 0,-79.5 204,-79.5 204,-49.5 0,-49.5"/>
<text text-anchor="start" x="8" y="-67.5" font-family="Helvetica,sans-Serif" font-size="10.00">Application.UseCases.Student.</text>
<text text-anchor="middle" x="102" y="-56.5" font-family="Helvetica,sans-Serif" font-size="10.00">RequestStudentRegister.ExecuteAsync</text>
</a>
</g>
</g>
<!-- Node2 -->
<g id="node2" class="node">
<title>Node2</title>
<g id="a_node2"><a xlink:href="classUseCaseException.html#a2837eb30bdfa60f1f1ba2e5981d29fbd" target="_top" xlink:title=" ">
<polygon fill="none" stroke="black" points="284,-98.5 284,-128.5 438,-128.5 438,-98.5 284,-98.5"/>
<text text-anchor="start" x="292" y="-116.5" font-family="Helvetica,sans-Serif" font-size="10.00">UseCaseException.Business</text>
<text text-anchor="middle" x="361" y="-105.5" font-family="Helvetica,sans-Serif" font-size="10.00">RuleViolation</text>
</a>
</g>
</g>
<!-- Node1&#45;&gt;Node2 -->
<g id="edge1" class="edge">
<title>Node1&#45;&gt;Node2</title>
<path fill="none" stroke="midnightblue" d="M181.86,-79.53C211.02,-85.1 244.22,-91.42 273.98,-97.1"/>
<polygon fill="midnightblue" stroke="midnightblue" points="273.46,-100.56 283.94,-99 274.77,-93.69 273.46,-100.56"/>
</g>
<!-- Node3 -->
<g id="node3" class="node">
<title>Node3</title>
<g id="a_node3"><a xlink:href="classUseCaseException.html#ab8fc31932179b877a356417d1dd37b56" target="_top" xlink:title=" ">
<polygon fill="none" stroke="black" points="275,-49.5 275,-79.5 447,-79.5 447,-49.5 275,-49.5"/>
<text text-anchor="start" x="283" y="-67.5" font-family="Helvetica,sans-Serif" font-size="10.00">UseCaseException.NotInformed</text>
<text text-anchor="middle" x="361" y="-56.5" font-family="Helvetica,sans-Serif" font-size="10.00">Param</text>
</a>
</g>
</g>
<!-- Node1&#45;&gt;Node3 -->
<g id="edge2" class="edge">
<title>Node1&#45;&gt;Node3</title>
<path fill="none" stroke="midnightblue" d="M204.2,-64.5C224.06,-64.5 244.83,-64.5 264.49,-64.5"/>
<polygon fill="midnightblue" stroke="midnightblue" points="264.66,-68 274.66,-64.5 264.66,-61 264.66,-68"/>
</g>
<!-- Node5 -->
<g id="node5" class="node">
<title>Node5</title>
<g id="a_node5"><a xlink:href="classApplication_1_1UseCases_1_1Student_1_1RequestStudentRegister.html#ae0a6d0ab5ae0a3b2f346e394ce1aa743" target="_top" xlink:title="Verifica se o e&#45;mail informado é válido para o estudante. Padrões aceitos:">
<polygon fill="none" stroke="black" points="240,-0.5 240,-30.5 482,-30.5 482,-0.5 240,-0.5"/>
<text text-anchor="start" x="248" y="-18.5" font-family="Helvetica,sans-Serif" font-size="10.00">Application.UseCases.Student.</text>
<text text-anchor="middle" x="361" y="-7.5" font-family="Helvetica,sans-Serif" font-size="10.00">RequestStudentRegister.ValidateStudentEmail</text>
</a>
</g>
</g>
<!-- Node1&#45;&gt;Node5 -->
<g id="edge4" class="edge">
<title>Node1&#45;&gt;Node5</title>
<path fill="none" stroke="midnightblue" d="M181.86,-49.47C210.1,-44.08 242.13,-37.97 271.16,-32.44"/>
<polygon fill="midnightblue" stroke="midnightblue" points="272.13,-35.82 281.29,-30.51 270.82,-28.94 272.13,-35.82"/>
</g>
<!-- Node4 -->
<g id="node4" class="node">
<title>Node4</title>
<g id="a_node4"><a xlink:href="classUseCaseException.html#a1368420a98033f26e4493a4bd8de7df9" target="_top" xlink:title=" ">
<polygon fill="none" stroke="black" points="518,-49.5 518,-79.5 671,-79.5 671,-49.5 518,-49.5"/>
<text text-anchor="start" x="526" y="-67.5" font-family="Helvetica,sans-Serif" font-size="10.00">UseCaseException.UseCase</text>
<text text-anchor="middle" x="594.5" y="-56.5" font-family="Helvetica,sans-Serif" font-size="10.00">Exception</text>
</a>
</g>
</g>
<!-- Node3&#45;&gt;Node4 -->
<g id="edge3" class="edge">
<title>Node3&#45;&gt;Node4</title>
<path fill="none" stroke="midnightblue" d="M447.22,-64.5C466.87,-64.5 487.78,-64.5 507.47,-64.5"/>
<polygon fill="midnightblue" stroke="midnightblue" points="507.64,-68 517.64,-64.5 507.64,-61 507.64,-68"/>
</g>
</g>
</svg>
