<?xml version="1.0" encoding="UTF-8" standalone="no"?>
<!DOCTYPE svg PUBLIC "-//W3C//DTD SVG 1.1//EN"
 "http://www.w3.org/Graphics/SVG/1.1/DTD/svg11.dtd">
<!-- Generated by graphviz version 8.1.0 (20230707.0739)
 -->
<!-- Title: src.domain.usecases.audio_analysis_usecase.AudioAnalysisUseCase Pages: 1 -->
<svg width="492pt" height="50pt"
 viewBox="0.00 0.00 491.75 49.75" xmlns="http://www.w3.org/2000/svg" xmlns:xlink="http://www.w3.org/1999/xlink">
<g id="graph0" class="graph" transform="scale(1 1) rotate(0) translate(4 45.75)">
<title>src.domain.usecases.audio_analysis_usecase.AudioAnalysisUseCase</title>
<!-- Node1 -->
<g id="Node000001" class="node">
<title>Node1</title>
<g id="a_Node000001"><a xlink:title=" ">
<polygon fill="#999999" stroke="#666666" points="483.75,-41.75 319.25,-41.75 319.25,0 483.75,0 483.75,-41.75"/>
<text text-anchor="start" x="327.25" y="-28.25" font-family="Helvetica,sans-Serif" font-size="10.00">src.domain.usecases.audio</text>
<text text-anchor="start" x="327.25" y="-17" font-family="Helvetica,sans-Serif" font-size="10.00">_analysis_usecase.AudioAnalysis</text>
<text text-anchor="middle" x="401.5" y="-5.75" font-family="Helvetica,sans-Serif" font-size="10.00">UseCase</text>
</a>
</g>
</g>
<!-- Node2 -->
<g id="Node000002" class="node">
<title>Node2</title>
<g id="a_Node000002"><a xlink:href="classsrc_1_1domain_1_1interfaces_1_1usecases_1_1audio__analysis__usecase__interface_1_1_i_audio_analysis_use_case.html" target="_top" xlink:title=" ">
<polygon fill="white" stroke="#666666" points="283.25,-41.75 73,-41.75 73,0 283.25,0 283.25,-41.75"/>
<text text-anchor="start" x="81" y="-28.25" font-family="Helvetica,sans-Serif" font-size="10.00">src.domain.interfaces.usecases.audio</text>
<text text-anchor="start" x="81" y="-17" font-family="Helvetica,sans-Serif" font-size="10.00">_analysis_usecase_interface.IAudioAnalysis</text>
<text text-anchor="middle" x="178.12" y="-5.75" font-family="Helvetica,sans-Serif" font-size="10.00">UseCase</text>
</a>
</g>
</g>
<!-- Node2&#45;&gt;Node1 -->
<g id="edge1_Node000001_Node000002" class="edge">
<title>Node2&#45;&gt;Node1</title>
<g id="a_edge1_Node000001_Node000002"><a xlink:title=" ">
<path fill="none" stroke="#63b8ff" d="M294.51,-20.88C302.77,-20.88 310.99,-20.88 318.99,-20.88"/>
<polygon fill="#63b8ff" stroke="#63b8ff" points="294.65,-17.38 284.65,-20.88 294.65,-24.38 294.65,-17.38"/>
</a>
</g>
</g>
<!-- Node3 -->
<g id="Node000003" class="node">
<title>Node3</title>
<g id="a_Node000003"><a xlink:title=" ">
<polygon fill="white" stroke="#666666" points="37,-30.5 0,-30.5 0,-11.25 37,-11.25 37,-30.5"/>
<text text-anchor="middle" x="18.5" y="-17" font-family="Helvetica,sans-Serif" font-size="10.00">ABC</text>
</a>
</g>
</g>
<!-- Node3&#45;&gt;Node2 -->
<g id="edge2_Node000002_Node000003" class="edge">
<title>Node3&#45;&gt;Node2</title>
<g id="a_edge2_Node000002_Node000003"><a xlink:title=" ">
<path fill="none" stroke="#63b8ff" d="M48.24,-20.88C55.57,-20.88 63.88,-20.88 72.67,-20.88"/>
<polygon fill="#63b8ff" stroke="#63b8ff" points="48.28,-17.38 38.28,-20.88 48.28,-24.38 48.28,-17.38"/>
</a>
</g>
</g>
</g>
</svg>
