<?xml version="1.0" encoding="UTF-8" standalone="no"?>
<!DOCTYPE svg PUBLIC "-//W3C//DTD SVG 1.1//EN"
 "http://www.w3.org/Graphics/SVG/1.1/DTD/svg11.dtd">
<!-- Generated by graphviz version 2.43.0 (0)
 -->
<!-- Title: Application.UseCases.Project.UpdateProject.ExecuteAsync Pages: 1 -->
<svg width="567pt" height="137pt"
 viewBox="0.00 0.00 567.00 137.00" xmlns="http://www.w3.org/2000/svg" xmlns:xlink="http://www.w3.org/1999/xlink">
<g id="graph0" class="graph" transform="scale(1 1) rotate(0) translate(4 133)">
<title>Application.UseCases.Project.UpdateProject.ExecuteAsync</title>
<!-- Node1 -->
<g id="node1" class="node">
<title>Node1</title>
<g id="a_node1"><a xlink:title=" ">
<polygon fill="#bfbfbf" stroke="black" points="0,-49.5 0,-79.5 162,-79.5 162,-49.5 0,-49.5"/>
<text text-anchor="start" x="8" y="-67.5" font-family="Helvetica,sans-Serif" font-size="10.00">Application.UseCases.Project.</text>
<text text-anchor="middle" x="81" y="-56.5" font-family="Helvetica,sans-Serif" font-size="10.00">UpdateProject.ExecuteAsync</text>
</a>
</g>
</g>
<!-- Node2 -->
<g id="node2" class="node">
<title>Node2</title>
<g id="a_node2"><a xlink:href="classUseCaseException.html#a2837eb30bdfa60f1f1ba2e5981d29fbd" target="_top" xlink:title=" ">
<polygon fill="none" stroke="black" points="207,-98.5 207,-128.5 361,-128.5 361,-98.5 207,-98.5"/>
<text text-anchor="start" x="215" y="-116.5" font-family="Helvetica,sans-Serif" font-size="10.00">UseCaseException.Business</text>
<text text-anchor="middle" x="284" y="-105.5" font-family="Helvetica,sans-Serif" font-size="10.00">RuleViolation</text>
</a>
</g>
</g>
<!-- Node1&#45;&gt;Node2 -->
<g id="edge1" class="edge">
<title>Node1&#45;&gt;Node2</title>
<path fill="none" stroke="midnightblue" d="M143.67,-79.53C165.09,-84.76 189.28,-90.65 211.43,-96.05"/>
<polygon fill="midnightblue" stroke="midnightblue" points="210.9,-99.53 221.44,-98.49 212.56,-92.72 210.9,-99.53"/>
</g>
<!-- Node3 -->
<g id="node3" class="node">
<title>Node3</title>
<g id="a_node3"><a xlink:href="classUseCaseException.html#aa86fbeb3981a2470230c0e0fefbe67fa" target="_top" xlink:title=" ">
<polygon fill="none" stroke="black" points="205.5,-49.5 205.5,-79.5 362.5,-79.5 362.5,-49.5 205.5,-49.5"/>
<text text-anchor="start" x="213.5" y="-67.5" font-family="Helvetica,sans-Serif" font-size="10.00">UseCaseException.NotFound</text>
<text text-anchor="middle" x="284" y="-56.5" font-family="Helvetica,sans-Serif" font-size="10.00">EntityById</text>
</a>
</g>
</g>
<!-- Node1&#45;&gt;Node3 -->
<g id="edge2" class="edge">
<title>Node1&#45;&gt;Node3</title>
<path fill="none" stroke="midnightblue" d="M162.02,-64.5C172.91,-64.5 184.15,-64.5 195.17,-64.5"/>
<polygon fill="midnightblue" stroke="midnightblue" points="195.22,-68 205.22,-64.5 195.22,-61 195.22,-68"/>
</g>
<!-- Node4 -->
<g id="node4" class="node">
<title>Node4</title>
<g id="a_node4"><a xlink:href="classUseCaseException.html#ab8fc31932179b877a356417d1dd37b56" target="_top" xlink:title=" ">
<polygon fill="none" stroke="black" points="198,-0.5 198,-30.5 370,-30.5 370,-0.5 198,-0.5"/>
<text text-anchor="start" x="206" y="-18.5" font-family="Helvetica,sans-Serif" font-size="10.00">UseCaseException.NotInformed</text>
<text text-anchor="middle" x="284" y="-7.5" font-family="Helvetica,sans-Serif" font-size="10.00">Param</text>
</a>
</g>
</g>
<!-- Node1&#45;&gt;Node4 -->
<g id="edge3" class="edge">
<title>Node1&#45;&gt;Node4</title>
<path fill="none" stroke="midnightblue" d="M143.67,-49.47C165.09,-44.24 189.28,-38.35 211.43,-32.95"/>
<polygon fill="midnightblue" stroke="midnightblue" points="212.56,-36.28 221.44,-30.51 210.9,-29.47 212.56,-36.28"/>
</g>
<!-- Node5 -->
<g id="node5" class="node">
<title>Node5</title>
<g id="a_node5"><a xlink:href="classUseCaseException.html#a1368420a98033f26e4493a4bd8de7df9" target="_top" xlink:title=" ">
<polygon fill="none" stroke="black" points="406,-0.5 406,-30.5 559,-30.5 559,-0.5 406,-0.5"/>
<text text-anchor="start" x="414" y="-18.5" font-family="Helvetica,sans-Serif" font-size="10.00">UseCaseException.UseCase</text>
<text text-anchor="middle" x="482.5" y="-7.5" font-family="Helvetica,sans-Serif" font-size="10.00">Exception</text>
</a>
</g>
</g>
<!-- Node4&#45;&gt;Node5 -->
<g id="edge4" class="edge">
<title>Node4&#45;&gt;Node5</title>
<path fill="none" stroke="midnightblue" d="M370.04,-15.5C378.53,-15.5 387.14,-15.5 395.63,-15.5"/>
<polygon fill="midnightblue" stroke="midnightblue" points="395.9,-19 405.9,-15.5 395.9,-12 395.9,-19"/>
</g>
</g>
</svg>
