<?xml version="1.0" encoding="UTF-8" standalone="no"?>
<!DOCTYPE svg PUBLIC "-//W3C//DTD SVG 1.1//EN"
 "http://www.w3.org/Graphics/SVG/1.1/DTD/svg11.dtd">
<!-- Generated by graphviz version 2.43.0 (0)
 -->
<!-- Title: Application.Ports.StudentDocuments.BaseStudentDocumentsOutput Pages: 1 -->
<svg width="475pt" height="110pt"
 viewBox="0.00 0.00 475.00 110.00" xmlns="http://www.w3.org/2000/svg" xmlns:xlink="http://www.w3.org/1999/xlink">
<g id="graph0" class="graph" transform="scale(1 1) rotate(0) translate(4 106)">
<title>Application.Ports.StudentDocuments.BaseStudentDocumentsOutput</title>
<!-- Node1 -->
<g id="node1" class="node">
<title>Node1</title>
<g id="a_node1"><a xlink:title=" ">
<polygon fill="#bfbfbf" stroke="black" points="0,-30.5 0,-71.5 192,-71.5 192,-30.5 0,-30.5"/>
<text text-anchor="start" x="8" y="-59.5" font-family="Helvetica,sans-Serif" font-size="10.00">Application.Ports.Student</text>
<text text-anchor="start" x="8" y="-48.5" font-family="Helvetica,sans-Serif" font-size="10.00">Documents.BaseStudentDocuments</text>
<text text-anchor="middle" x="96" y="-37.5" font-family="Helvetica,sans-Serif" font-size="10.00">Output</text>
</a>
</g>
</g>
<!-- Node2 -->
<g id="node2" class="node">
<title>Node2</title>
<g id="a_node2"><a xlink:href="classApplication_1_1Ports_1_1StudentDocuments_1_1DetailedReadStudentDocumentsOutput.html" target="_top" xlink:title=" ">
<polygon fill="none" stroke="black" points="230.5,-60.5 230.5,-101.5 464.5,-101.5 464.5,-60.5 230.5,-60.5"/>
<text text-anchor="start" x="238.5" y="-89.5" font-family="Helvetica,sans-Serif" font-size="10.00">Application.Ports.Student</text>
<text text-anchor="start" x="238.5" y="-78.5" font-family="Helvetica,sans-Serif" font-size="10.00">Documents.DetailedReadStudentDocuments</text>
<text text-anchor="middle" x="347.5" y="-67.5" font-family="Helvetica,sans-Serif" font-size="10.00">Output</text>
</a>
</g>
</g>
<!-- Node1&#45;&gt;Node2 -->
<g id="edge1" class="edge">
<title>Node1&#45;&gt;Node2</title>
<path fill="none" stroke="midnightblue" d="M202.1,-63.64C211.44,-64.76 220.93,-65.9 230.36,-67.04"/>
<polygon fill="midnightblue" stroke="midnightblue" points="202.38,-60.15 192.04,-62.43 201.55,-67.1 202.38,-60.15"/>
</g>
<!-- Node3 -->
<g id="node3" class="node">
<title>Node3</title>
<g id="a_node3"><a xlink:href="classApplication_1_1Ports_1_1StudentDocuments_1_1ResumedReadStudentDocumentsOutput.html" target="_top" xlink:title=" ">
<polygon fill="none" stroke="black" points="228,-0.5 228,-41.5 467,-41.5 467,-0.5 228,-0.5"/>
<text text-anchor="start" x="236" y="-29.5" font-family="Helvetica,sans-Serif" font-size="10.00">Application.Ports.Student</text>
<text text-anchor="start" x="236" y="-18.5" font-family="Helvetica,sans-Serif" font-size="10.00">Documents.ResumedReadStudentDocuments</text>
<text text-anchor="middle" x="347.5" y="-7.5" font-family="Helvetica,sans-Serif" font-size="10.00">Output</text>
</a>
</g>
</g>
<!-- Node1&#45;&gt;Node3 -->
<g id="edge2" class="edge">
<title>Node1&#45;&gt;Node3</title>
<path fill="none" stroke="midnightblue" d="M201.99,-38.38C210.53,-37.35 219.19,-36.31 227.82,-35.27"/>
<polygon fill="midnightblue" stroke="midnightblue" points="201.55,-34.9 192.04,-39.57 202.38,-41.85 201.55,-34.9"/>
</g>
</g>
</svg>
