<?xml version="1.0" encoding="UTF-8" standalone="no"?>
<!DOCTYPE svg PUBLIC "-//W3C//DTD SVG 1.1//EN"
 "http://www.w3.org/Graphics/SVG/1.1/DTD/svg11.dtd">
<!-- Generated by graphviz version 2.43.0 (0)
 -->
<!-- Title: Application.Ports.ProjectFinalReport.BaseProjectFinalReportContract Pages: 1 -->
<svg width="407pt" height="110pt"
 viewBox="0.00 0.00 407.00 110.00" xmlns="http://www.w3.org/2000/svg" xmlns:xlink="http://www.w3.org/1999/xlink">
<g id="graph0" class="graph" transform="scale(1 1) rotate(0) translate(4 106)">
<title>Application.Ports.ProjectFinalReport.BaseProjectFinalReportContract</title>
<!-- Node1 -->
<g id="node1" class="node">
<title>Node1</title>
<g id="a_node1"><a xlink:title=" ">
<polygon fill="#bfbfbf" stroke="black" points="0,-30.5 0,-71.5 188,-71.5 188,-30.5 0,-30.5"/>
<text text-anchor="start" x="8" y="-59.5" font-family="Helvetica,sans-Serif" font-size="10.00">Application.Ports.Project</text>
<text text-anchor="start" x="8" y="-48.5" font-family="Helvetica,sans-Serif" font-size="10.00">FinalReport.BaseProjectFinalReport</text>
<text text-anchor="middle" x="94" y="-37.5" font-family="Helvetica,sans-Serif" font-size="10.00">Contract</text>
</a>
</g>
</g>
<!-- Node2 -->
<g id="node2" class="node">
<title>Node2</title>
<g id="a_node2"><a xlink:href="classApplication_1_1Ports_1_1ProjectFinalReport_1_1CreateProjectFinalReportInput.html" target="_top" xlink:title=" ">
<polygon fill="none" stroke="black" points="229.5,-60.5 229.5,-101.5 393.5,-101.5 393.5,-60.5 229.5,-60.5"/>
<text text-anchor="start" x="237.5" y="-89.5" font-family="Helvetica,sans-Serif" font-size="10.00">Application.Ports.Project</text>
<text text-anchor="start" x="237.5" y="-78.5" font-family="Helvetica,sans-Serif" font-size="10.00">FinalReport.CreateProjectFinal</text>
<text text-anchor="middle" x="311.5" y="-67.5" font-family="Helvetica,sans-Serif" font-size="10.00">ReportInput</text>
</a>
</g>
</g>
<!-- Node1&#45;&gt;Node2 -->
<g id="edge1" class="edge">
<title>Node1&#45;&gt;Node2</title>
<path fill="none" stroke="midnightblue" d="M198.23,-65.37C208.65,-66.82 219.13,-68.28 229.27,-69.69"/>
<polygon fill="midnightblue" stroke="midnightblue" points="198.66,-61.9 188.27,-63.98 197.69,-68.83 198.66,-61.9"/>
</g>
<!-- Node3 -->
<g id="node3" class="node">
<title>Node3</title>
<g id="a_node3"><a xlink:href="classApplication_1_1Ports_1_1ProjectFinalReport_1_1DetailedReadProjectFinalReportOutput.html" target="_top" xlink:title=" ">
<polygon fill="none" stroke="black" points="224,-0.5 224,-41.5 399,-41.5 399,-0.5 224,-0.5"/>
<text text-anchor="start" x="232" y="-29.5" font-family="Helvetica,sans-Serif" font-size="10.00">Application.Ports.Project</text>
<text text-anchor="start" x="232" y="-18.5" font-family="Helvetica,sans-Serif" font-size="10.00">FinalReport.DetailedReadProject</text>
<text text-anchor="middle" x="311.5" y="-7.5" font-family="Helvetica,sans-Serif" font-size="10.00">FinalReportOutput</text>
</a>
</g>
</g>
<!-- Node1&#45;&gt;Node3 -->
<g id="edge2" class="edge">
<title>Node1&#45;&gt;Node3</title>
<path fill="none" stroke="midnightblue" d="M198.29,-36.62C206.86,-35.43 215.46,-34.23 223.89,-33.06"/>
<polygon fill="midnightblue" stroke="midnightblue" points="197.69,-33.17 188.27,-38.02 198.66,-40.1 197.69,-33.17"/>
</g>
</g>
</svg>
