<?xml version="1.0" encoding="UTF-8" standalone="no"?>
<!DOCTYPE svg PUBLIC "-//W3C//DTD SVG 1.1//EN"
 "http://www.w3.org/Graphics/SVG/1.1/DTD/svg11.dtd">
<!-- Generated by graphviz version 9.0.0 (20230911.1827)
 -->
<!-- Title: Application.Ports.Project.BaseProjectContract Pages: 1 -->
<svg width="312pt" height="88pt"
 viewBox="0.00 0.00 312.25 87.50" xmlns="http://www.w3.org/2000/svg" xmlns:xlink="http://www.w3.org/1999/xlink">
<g id="graph0" class="graph" transform="scale(1 1) rotate(0) translate(4 83.5)">
<title>Application.Ports.Project.BaseProjectContract</title>
<!-- Node1 -->
<g id="Node000001" class="node">
<title>Node1</title>
<g id="a_Node000001"><a xlink:title=" ">
<polygon fill="#999999" stroke="#666666" points="127,-54.5 0,-54.5 0,-24 127,-24 127,-54.5"/>
<text text-anchor="start" x="8" y="-41" font-family="Helvetica,sans-Serif" font-size="10.00">Application.Ports.Project.</text>
<text text-anchor="middle" x="63.5" y="-29.75" font-family="Helvetica,sans-Serif" font-size="10.00">BaseProjectContract</text>
</a>
</g>
</g>
<!-- Node2 -->
<g id="Node000002" class="node">
<title>Node2</title>
<g id="a_Node000002"><a xlink:href="class_application_1_1_ports_1_1_project_1_1_detailed_read_project_output.html" target="_top" xlink:title=" ">
<polygon fill="white" stroke="#666666" points="301.25,-79.5 166,-79.5 166,-49 301.25,-49 301.25,-79.5"/>
<text text-anchor="start" x="174" y="-66" font-family="Helvetica,sans-Serif" font-size="10.00">Application.Ports.Project.</text>
<text text-anchor="middle" x="233.62" y="-54.75" font-family="Helvetica,sans-Serif" font-size="10.00">DetailedReadProjectOutput</text>
</a>
</g>
</g>
<!-- Node1&#45;&gt;Node2 -->
<g id="edge1_Node000001_Node000002" class="edge">
<title>Node1&#45;&gt;Node2</title>
<g id="a_edge1_Node000001_Node000002"><a xlink:title=" ">
<path fill="none" stroke="#63b8ff" d="M138.48,-50.25C147.55,-51.6 156.78,-52.97 165.74,-54.3"/>
<polygon fill="#63b8ff" stroke="#63b8ff" points="139.01,-46.79 128.6,-48.78 137.98,-53.71 139.01,-46.79"/>
</a>
</g>
</g>
<!-- Node3 -->
<g id="Node000003" class="node">
<title>Node3</title>
<g id="a_Node000003"><a xlink:href="class_application_1_1_ports_1_1_project_1_1_resumed_read_project_output.html" target="_top" xlink:title=" ">
<polygon fill="white" stroke="#666666" points="304.25,-30.5 163,-30.5 163,0 304.25,0 304.25,-30.5"/>
<text text-anchor="start" x="171" y="-17" font-family="Helvetica,sans-Serif" font-size="10.00">Application.Ports.Project.</text>
<text text-anchor="middle" x="233.62" y="-5.75" font-family="Helvetica,sans-Serif" font-size="10.00">ResumedReadProjectOutput</text>
</a>
</g>
</g>
<!-- Node1&#45;&gt;Node3 -->
<g id="edge2_Node000001_Node000003" class="edge">
<title>Node1&#45;&gt;Node3</title>
<g id="a_edge2_Node000001_Node000003"><a xlink:title=" ">
<path fill="none" stroke="#63b8ff" d="M138.38,-28.7C146.43,-27.55 154.61,-26.39 162.62,-25.24"/>
<polygon fill="#63b8ff" stroke="#63b8ff" points="138.01,-25.22 128.6,-30.1 139,-32.15 138.01,-25.22"/>
</a>
</g>
</g>
</g>
</svg>
