<?xml version="1.0" encoding="UTF-8" standalone="no"?>
<!DOCTYPE svg PUBLIC "-//W3C//DTD SVG 1.1//EN"
 "http://www.w3.org/Graphics/SVG/1.1/DTD/svg11.dtd">
<!-- Generated by graphviz version 2.43.0 (0)
 -->
<!-- Title: Persistence.Repositories.StudentRepository.DeleteAsync Pages: 1 -->
<svg width="390pt" height="137pt"
 viewBox="0.00 0.00 390.00 137.00" xmlns="http://www.w3.org/2000/svg" xmlns:xlink="http://www.w3.org/1999/xlink">
<g id="graph0" class="graph" transform="scale(1 1) rotate(0) translate(4 133)">
<title>Persistence.Repositories.StudentRepository.DeleteAsync</title>
<!-- Node1 -->
<g id="node1" class="node">
<title>Node1</title>
<g id="a_node1"><a xlink:title=" ">
<polygon fill="#bfbfbf" stroke="black" points="0,-49.5 0,-79.5 170,-79.5 170,-49.5 0,-49.5"/>
<text text-anchor="start" x="8" y="-67.5" font-family="Helvetica,sans-Serif" font-size="10.00">Persistence.Repositories.</text>
<text text-anchor="middle" x="85" y="-56.5" font-family="Helvetica,sans-Serif" font-size="10.00">StudentRepository.DeleteAsync</text>
</a>
</g>
</g>
<!-- Node2 -->
<g id="node2" class="node">
<title>Node2</title>
<g id="a_node2"><a xlink:href="classDomain_1_1Entities_1_1Primitives_1_1Entity.html#a3a368e3c302f8622ea0305003ef2a5eb" target="_top" xlink:title=" ">
<polygon fill="none" stroke="black" points="219,-98.5 219,-128.5 369,-128.5 369,-98.5 219,-98.5"/>
<text text-anchor="start" x="227" y="-116.5" font-family="Helvetica,sans-Serif" font-size="10.00">Domain.Entities.Primitives.</text>
<text text-anchor="middle" x="294" y="-105.5" font-family="Helvetica,sans-Serif" font-size="10.00">Entity.DeactivateEntity</text>
</a>
</g>
</g>
<!-- Node1&#45;&gt;Node2 -->
<g id="edge1" class="edge">
<title>Node1&#45;&gt;Node2</title>
<path fill="none" stroke="midnightblue" d="M149.51,-79.53C171.67,-84.78 196.71,-90.71 219.6,-96.13"/>
<polygon fill="midnightblue" stroke="midnightblue" points="219.07,-99.6 229.61,-98.49 220.68,-92.78 219.07,-99.6"/>
</g>
<!-- Node3 -->
<g id="node3" class="node">
<title>Node3</title>
<g id="a_node3"><a xlink:href="classPersistence_1_1Repositories_1_1StudentRepository.html#a0844df67682f4db5203af1c31473c106" target="_top" xlink:title=" ">
<polygon fill="none" stroke="black" points="206,-49.5 206,-79.5 382,-79.5 382,-49.5 206,-49.5"/>
<text text-anchor="start" x="214" y="-67.5" font-family="Helvetica,sans-Serif" font-size="10.00">Persistence.Repositories.</text>
<text text-anchor="middle" x="294" y="-56.5" font-family="Helvetica,sans-Serif" font-size="10.00">StudentRepository.GetByIdAsync</text>
</a>
</g>
</g>
<!-- Node1&#45;&gt;Node3 -->
<g id="edge2" class="edge">
<title>Node1&#45;&gt;Node3</title>
<path fill="none" stroke="midnightblue" d="M170.19,-64.5C178.64,-64.5 187.27,-64.5 195.83,-64.5"/>
<polygon fill="midnightblue" stroke="midnightblue" points="195.85,-68 205.85,-64.5 195.85,-61 195.85,-68"/>
</g>
<!-- Node4 -->
<g id="node4" class="node">
<title>Node4</title>
<g id="a_node4"><a xlink:href="classPersistence_1_1Repositories_1_1StudentRepository.html#a0ac1e338a12acb6db2dfabd5ff844af5" target="_top" xlink:title=" ">
<polygon fill="none" stroke="black" points="207.5,-0.5 207.5,-30.5 380.5,-30.5 380.5,-0.5 207.5,-0.5"/>
<text text-anchor="start" x="215.5" y="-18.5" font-family="Helvetica,sans-Serif" font-size="10.00">Persistence.Repositories.</text>
<text text-anchor="middle" x="294" y="-7.5" font-family="Helvetica,sans-Serif" font-size="10.00">StudentRepository.UpdateAsync</text>
</a>
</g>
</g>
<!-- Node1&#45;&gt;Node4 -->
<g id="edge3" class="edge">
<title>Node1&#45;&gt;Node4</title>
<path fill="none" stroke="midnightblue" d="M149.51,-49.47C171.67,-44.22 196.71,-38.29 219.6,-32.87"/>
<polygon fill="midnightblue" stroke="midnightblue" points="220.68,-36.22 229.61,-30.51 219.07,-29.4 220.68,-36.22"/>
</g>
</g>
</svg>
