<?xml version="1.0" encoding="UTF-8" standalone="no"?>
<!DOCTYPE svg PUBLIC "-//W3C//DTD SVG 1.1//EN"
 "http://www.w3.org/Graphics/SVG/1.1/DTD/svg11.dtd">
<!-- Generated by graphviz version 9.0.0 (20230911.1827)
 -->
<!-- Title: Application.Ports.ProjectActivity.BaseProjectActivityContract Pages: 1 -->
<svg width="398pt" height="255pt"
 viewBox="0.00 0.00 397.75 254.50" xmlns="http://www.w3.org/2000/svg" xmlns:xlink="http://www.w3.org/1999/xlink">
<g id="graph0" class="graph" transform="scale(1 1) rotate(0) translate(4 250.5)">
<title>Application.Ports.ProjectActivity.BaseProjectActivityContract</title>
<!-- Node1 -->
<g id="Node000001" class="node">
<title>Node1</title>
<g id="a_Node000001"><a xlink:title=" ">
<polygon fill="#999999" stroke="#666666" points="174.25,-138.5 0,-138.5 0,-108 174.25,-108 174.25,-138.5"/>
<text text-anchor="start" x="8" y="-125" font-family="Helvetica,sans-Serif" font-size="10.00">Application.Ports.Project</text>
<text text-anchor="middle" x="87.12" y="-113.75" font-family="Helvetica,sans-Serif" font-size="10.00">Activity.BaseProjectActivityContract</text>
</a>
</g>
</g>
<!-- Node2 -->
<g id="Node000002" class="node">
<title>Node2</title>
<g id="a_Node000002"><a xlink:href="class_application_1_1_ports_1_1_project_activity_1_1_create_project_activity_input.html" target="_top" xlink:title=" ">
<polygon fill="white" stroke="#666666" points="382.62,-246.5 217.38,-246.5 217.38,-216 382.62,-216 382.62,-246.5"/>
<text text-anchor="start" x="225.38" y="-233" font-family="Helvetica,sans-Serif" font-size="10.00">Application.Ports.Project</text>
<text text-anchor="middle" x="300" y="-221.75" font-family="Helvetica,sans-Serif" font-size="10.00">Activity.CreateProjectActivityInput</text>
</a>
</g>
</g>
<!-- Node1&#45;&gt;Node2 -->
<g id="edge1_Node000001_Node000002" class="edge">
<title>Node1&#45;&gt;Node2</title>
<g id="a_edge1_Node000001_Node000002"><a xlink:title=" ">
<path fill="none" stroke="#63b8ff" d="M115.13,-145.83C138.85,-164.66 174.99,-190.94 210.25,-207.25 216.91,-210.33 224.05,-213.08 231.27,-215.52"/>
<polygon fill="#63b8ff" stroke="#63b8ff" points="117.53,-143.27 107.54,-139.72 113.13,-148.72 117.53,-143.27"/>
</a>
</g>
</g>
<!-- Node3 -->
<g id="Node000003" class="node">
<title>Node3</title>
<g id="a_Node000003"><a xlink:href="class_application_1_1_ports_1_1_project_activity_1_1_detailed_read_project_activity_output.html" target="_top" xlink:title=" ">
<polygon fill="white" stroke="#666666" points="386.75,-198.12 213.25,-198.12 213.25,-156.38 386.75,-156.38 386.75,-198.12"/>
<text text-anchor="start" x="221.25" y="-184.62" font-family="Helvetica,sans-Serif" font-size="10.00">Application.Ports.Project</text>
<text text-anchor="start" x="221.25" y="-173.38" font-family="Helvetica,sans-Serif" font-size="10.00">Activity.DetailedReadProjectActivity</text>
<text text-anchor="middle" x="300" y="-162.12" font-family="Helvetica,sans-Serif" font-size="10.00">Output</text>
</a>
</g>
</g>
<!-- Node1&#45;&gt;Node3 -->
<g id="edge2_Node000001_Node000003" class="edge">
<title>Node1&#45;&gt;Node3</title>
<g id="a_edge2_Node000001_Node000003"><a xlink:title=" ">
<path fill="none" stroke="#63b8ff" d="M160.54,-141.79C178.27,-146.33 197.39,-151.23 215.6,-155.89"/>
<polygon fill="#63b8ff" stroke="#63b8ff" points="161.42,-138.41 150.87,-139.32 159.69,-145.19 161.42,-138.41"/>
</a>
</g>
</g>
<!-- Node4 -->
<g id="Node000004" class="node">
<title>Node4</title>
<g id="a_Node000004"><a xlink:href="class_application_1_1_ports_1_1_project_activity_1_1_evaluate_project_activity_input.html" target="_top" xlink:title=" ">
<polygon fill="white" stroke="#666666" points="387.12,-138.5 212.88,-138.5 212.88,-108 387.12,-108 387.12,-138.5"/>
<text text-anchor="start" x="220.88" y="-125" font-family="Helvetica,sans-Serif" font-size="10.00">Application.Ports.Project</text>
<text text-anchor="middle" x="300" y="-113.75" font-family="Helvetica,sans-Serif" font-size="10.00">Activity.EvaluateProjectActivityInput</text>
</a>
</g>
</g>
<!-- Node1&#45;&gt;Node4 -->
<g id="edge3_Node000001_Node000004" class="edge">
<title>Node1&#45;&gt;Node4</title>
<g id="a_edge3_Node000001_Node000004"><a xlink:title=" ">
<path fill="none" stroke="#63b8ff" d="M185.73,-123.25C194.63,-123.25 203.61,-123.25 212.41,-123.25"/>
<polygon fill="#63b8ff" stroke="#63b8ff" points="186.02,-119.75 176.02,-123.25 186.02,-126.75 186.02,-119.75"/>
</a>
</g>
</g>
<!-- Node5 -->
<g id="Node000005" class="node">
<title>Node5</title>
<g id="a_Node000005"><a xlink:href="class_application_1_1_ports_1_1_project_activity_1_1_resumed_read_project_activity_output.html" target="_top" xlink:title=" ">
<polygon fill="white" stroke="#666666" points="389.75,-90.12 210.25,-90.12 210.25,-48.38 389.75,-48.38 389.75,-90.12"/>
<text text-anchor="start" x="218.25" y="-76.62" font-family="Helvetica,sans-Serif" font-size="10.00">Application.Ports.Project</text>
<text text-anchor="start" x="218.25" y="-65.38" font-family="Helvetica,sans-Serif" font-size="10.00">Activity.ResumedReadProjectActivity</text>
<text text-anchor="middle" x="300" y="-54.12" font-family="Helvetica,sans-Serif" font-size="10.00">Output</text>
</a>
</g>
</g>
<!-- Node1&#45;&gt;Node5 -->
<g id="edge4_Node000001_Node000005" class="edge">
<title>Node1&#45;&gt;Node5</title>
<g id="a_edge4_Node000001_Node000005"><a xlink:title=" ">
<path fill="none" stroke="#63b8ff" d="M160.54,-104.71C178.27,-100.17 197.39,-95.27 215.6,-90.61"/>
<polygon fill="#63b8ff" stroke="#63b8ff" points="159.69,-101.31 150.87,-107.18 161.42,-108.09 159.69,-101.31"/>
</a>
</g>
</g>
<!-- Node6 -->
<g id="Node000006" class="node">
<title>Node6</title>
<g id="a_Node000006"><a xlink:href="class_application_1_1_ports_1_1_project_activity_1_1_update_project_activity_input.html" target="_top" xlink:title=" ">
<polygon fill="white" stroke="#666666" points="383.75,-30.5 216.25,-30.5 216.25,0 383.75,0 383.75,-30.5"/>
<text text-anchor="start" x="224.25" y="-17" font-family="Helvetica,sans-Serif" font-size="10.00">Application.Ports.Project</text>
<text text-anchor="middle" x="300" y="-5.75" font-family="Helvetica,sans-Serif" font-size="10.00">Activity.UpdateProjectActivityInput</text>
</a>
</g>
</g>
<!-- Node1&#45;&gt;Node6 -->
<g id="edge5_Node000001_Node000006" class="edge">
<title>Node1&#45;&gt;Node6</title>
<g id="a_edge5_Node000001_Node000006"><a xlink:title=" ">
<path fill="none" stroke="#63b8ff" d="M115.13,-100.67C138.85,-81.84 174.99,-55.56 210.25,-39.25 216.91,-36.17 224.05,-33.42 231.27,-30.98"/>
<polygon fill="#63b8ff" stroke="#63b8ff" points="113.13,-97.78 107.54,-106.78 117.53,-103.23 113.13,-97.78"/>
</a>
</g>
</g>
</g>
</svg>
