<?xml version="1.0" encoding="UTF-8" standalone="no"?>
<!DOCTYPE svg PUBLIC "-//W3C//DTD SVG 1.1//EN"
 "http://www.w3.org/Graphics/SVG/1.1/DTD/svg11.dtd">
<!-- Generated by graphviz version 2.43.0 (0)
 -->
<!-- Title: Persistence.Repositories.ProjectPartialReportRepository Pages: 1 -->
<svg width="177pt" height="162pt"
 viewBox="0.00 0.00 177.00 162.00" xmlns="http://www.w3.org/2000/svg" xmlns:xlink="http://www.w3.org/1999/xlink">
<g id="graph0" class="graph" transform="scale(1 1) rotate(0) translate(4 158)">
<title>Persistence.Repositories.ProjectPartialReportRepository</title>
<!-- Node1 -->
<g id="node1" class="node">
<title>Node1</title>
<g id="a_node1"><a xlink:title=" ">
<polygon fill="#bfbfbf" stroke="black" points="1.5,-0.5 1.5,-30.5 167.5,-30.5 167.5,-0.5 1.5,-0.5"/>
<text text-anchor="start" x="9.5" y="-18.5" font-family="Helvetica,sans-Serif" font-size="10.00">Persistence.Repositories.</text>
<text text-anchor="middle" x="84.5" y="-7.5" font-family="Helvetica,sans-Serif" font-size="10.00">ProjectPartialReportRepository</text>
</a>
</g>
</g>
<!-- Node2 -->
<g id="node2" class="node">
<title>Node2</title>
<g id="a_node2"><a xlink:href="interfaceDomain_1_1Interfaces_1_1Repositories_1_1IProjectPartialReportRepository.html" target="_top" xlink:title=" ">
<polygon fill="none" stroke="black" points="0,-67.5 0,-86.5 169,-86.5 169,-67.5 0,-67.5"/>
<text text-anchor="middle" x="84.5" y="-74.5" font-family="Helvetica,sans-Serif" font-size="10.00">IProjectPartialReportRepository</text>
</a>
</g>
</g>
<!-- Node2&#45;&gt;Node1 -->
<g id="edge1" class="edge">
<title>Node2&#45;&gt;Node1</title>
<path fill="none" stroke="midnightblue" d="M84.5,-57.23C84.5,-48.59 84.5,-38.5 84.5,-30.52"/>
<polygon fill="midnightblue" stroke="midnightblue" points="81,-57.48 84.5,-67.48 88,-57.48 81,-57.48"/>
</g>
<!-- Node3 -->
<g id="node3" class="node">
<title>Node3</title>
<g id="a_node3"><a xlink:href="interfaceDomain_1_1Interfaces_1_1Repositories_1_1Bases_1_1IGenericCRUDRepository.html" target="_top" xlink:title=" ">
<polygon fill="none" stroke="black" points="15.5,-123.5 15.5,-153.5 153.5,-153.5 153.5,-123.5 15.5,-123.5"/>
<text text-anchor="start" x="23.5" y="-141.5" font-family="Helvetica,sans-Serif" font-size="10.00">IGenericCRUDRepository</text>
<text text-anchor="middle" x="84.5" y="-130.5" font-family="Helvetica,sans-Serif" font-size="10.00">&lt; ProjectPartialReport &gt;</text>
</a>
</g>
</g>
<!-- Node3&#45;&gt;Node2 -->
<g id="edge2" class="edge">
<title>Node3&#45;&gt;Node2</title>
<path fill="none" stroke="midnightblue" d="M84.5,-113.29C84.5,-103.86 84.5,-93.65 84.5,-86.66"/>
<polygon fill="midnightblue" stroke="midnightblue" points="81,-113.4 84.5,-123.4 88,-113.4 81,-113.4"/>
</g>
</g>
</svg>
