<?xml version="1.0" encoding="UTF-8" standalone="no"?>
<!DOCTYPE svg PUBLIC "-//W3C//DTD SVG 1.1//EN"
 "http://www.w3.org/Graphics/SVG/1.1/DTD/svg11.dtd">
<!-- Generated by graphviz version 2.43.0 (0)
 -->
<!-- Title: Application.UseCases.ProjectFinalReport.UpdateProjectFinalReport.ExecuteAsync Pages: 1 -->
<svg width="608pt" height="137pt"
 viewBox="0.00 0.00 608.00 137.00" xmlns="http://www.w3.org/2000/svg" xmlns:xlink="http://www.w3.org/1999/xlink">
<g id="graph0" class="graph" transform="scale(1 1) rotate(0) translate(4 133)">
<title>Application.UseCases.ProjectFinalReport.UpdateProjectFinalReport.ExecuteAsync</title>
<!-- Node1 -->
<g id="node1" class="node">
<title>Node1</title>
<g id="a_node1"><a xlink:title=" ">
<polygon fill="#bfbfbf" stroke="black" points="0,-44 0,-85 203,-85 203,-44 0,-44"/>
<text text-anchor="start" x="8" y="-73" font-family="Helvetica,sans-Serif" font-size="10.00">Application.UseCases.Project</text>
<text text-anchor="start" x="8" y="-62" font-family="Helvetica,sans-Serif" font-size="10.00">FinalReport.UpdateProjectFinalReport.</text>
<text text-anchor="middle" x="101.5" y="-51" font-family="Helvetica,sans-Serif" font-size="10.00">ExecuteAsync</text>
</a>
</g>
</g>
<!-- Node2 -->
<g id="node2" class="node">
<title>Node2</title>
<g id="a_node2"><a xlink:href="classUseCaseException.html#a2837eb30bdfa60f1f1ba2e5981d29fbd" target="_top" xlink:title=" ">
<polygon fill="none" stroke="black" points="248,-98.5 248,-128.5 402,-128.5 402,-98.5 248,-98.5"/>
<text text-anchor="start" x="256" y="-116.5" font-family="Helvetica,sans-Serif" font-size="10.00">UseCaseException.Business</text>
<text text-anchor="middle" x="325" y="-105.5" font-family="Helvetica,sans-Serif" font-size="10.00">RuleViolation</text>
</a>
</g>
</g>
<!-- Node1&#45;&gt;Node2 -->
<g id="edge1" class="edge">
<title>Node1&#45;&gt;Node2</title>
<path fill="none" stroke="midnightblue" d="M195.47,-85.07C212.34,-88.8 229.76,-92.65 246.14,-96.28"/>
<polygon fill="midnightblue" stroke="midnightblue" points="245.66,-99.75 256.18,-98.5 247.17,-92.92 245.66,-99.75"/>
</g>
<!-- Node3 -->
<g id="node3" class="node">
<title>Node3</title>
<g id="a_node3"><a xlink:href="classUseCaseException.html#aa86fbeb3981a2470230c0e0fefbe67fa" target="_top" xlink:title=" ">
<polygon fill="none" stroke="black" points="246.5,-49.5 246.5,-79.5 403.5,-79.5 403.5,-49.5 246.5,-49.5"/>
<text text-anchor="start" x="254.5" y="-67.5" font-family="Helvetica,sans-Serif" font-size="10.00">UseCaseException.NotFound</text>
<text text-anchor="middle" x="325" y="-56.5" font-family="Helvetica,sans-Serif" font-size="10.00">EntityById</text>
</a>
</g>
</g>
<!-- Node1&#45;&gt;Node3 -->
<g id="edge2" class="edge">
<title>Node1&#45;&gt;Node3</title>
<path fill="none" stroke="midnightblue" d="M203.2,-64.5C214.2,-64.5 225.33,-64.5 236.16,-64.5"/>
<polygon fill="midnightblue" stroke="midnightblue" points="236.43,-68 246.43,-64.5 236.43,-61 236.43,-68"/>
</g>
<!-- Node4 -->
<g id="node4" class="node">
<title>Node4</title>
<g id="a_node4"><a xlink:href="classUseCaseException.html#ab8fc31932179b877a356417d1dd37b56" target="_top" xlink:title=" ">
<polygon fill="none" stroke="black" points="239,-0.5 239,-30.5 411,-30.5 411,-0.5 239,-0.5"/>
<text text-anchor="start" x="247" y="-18.5" font-family="Helvetica,sans-Serif" font-size="10.00">UseCaseException.NotInformed</text>
<text text-anchor="middle" x="325" y="-7.5" font-family="Helvetica,sans-Serif" font-size="10.00">Param</text>
</a>
</g>
</g>
<!-- Node1&#45;&gt;Node4 -->
<g id="edge3" class="edge">
<title>Node1&#45;&gt;Node4</title>
<path fill="none" stroke="midnightblue" d="M195.47,-43.93C212.34,-40.2 229.76,-36.35 246.14,-32.72"/>
<polygon fill="midnightblue" stroke="midnightblue" points="247.17,-36.08 256.18,-30.5 245.66,-29.25 247.17,-36.08"/>
</g>
<!-- Node5 -->
<g id="node5" class="node">
<title>Node5</title>
<g id="a_node5"><a xlink:href="classUseCaseException.html#a1368420a98033f26e4493a4bd8de7df9" target="_top" xlink:title=" ">
<polygon fill="none" stroke="black" points="447,-0.5 447,-30.5 600,-30.5 600,-0.5 447,-0.5"/>
<text text-anchor="start" x="455" y="-18.5" font-family="Helvetica,sans-Serif" font-size="10.00">UseCaseException.UseCase</text>
<text text-anchor="middle" x="523.5" y="-7.5" font-family="Helvetica,sans-Serif" font-size="10.00">Exception</text>
</a>
</g>
</g>
<!-- Node4&#45;&gt;Node5 -->
<g id="edge4" class="edge">
<title>Node4&#45;&gt;Node5</title>
<path fill="none" stroke="midnightblue" d="M411.04,-15.5C419.53,-15.5 428.14,-15.5 436.63,-15.5"/>
<polygon fill="midnightblue" stroke="midnightblue" points="436.9,-19 446.9,-15.5 436.9,-12 436.9,-19"/>
</g>
</g>
</svg>
