<?xml version="1.0" encoding="UTF-8" standalone="no"?>
<!DOCTYPE svg PUBLIC "-//W3C//DTD SVG 1.1//EN"
 "http://www.w3.org/Graphics/SVG/1.1/DTD/svg11.dtd">
<!-- Generated by graphviz version 8.1.0 (20230707.0739)
 -->
<!-- Title: src.domain.usecases.scan_directory_usecase.ScanDirectoryUseCase.execute Pages: 1 -->
<svg width="386pt" height="230pt"
 viewBox="0.00 0.00 385.75 229.75" xmlns="http://www.w3.org/2000/svg" xmlns:xlink="http://www.w3.org/1999/xlink">
<g id="graph0" class="graph" transform="scale(1 1) rotate(0) translate(4 225.75)">
<title>src.domain.usecases.scan_directory_usecase.ScanDirectoryUseCase.execute</title>
<!-- Node1 -->
<g id="Node000001" class="node">
<title>Node1</title>
<g id="a_Node000001"><a xlink:title=" ">
<polygon fill="#999999" stroke="#666666" points="166,-131.75 0,-131.75 0,-90 166,-90 166,-131.75"/>
<text text-anchor="start" x="8" y="-118.25" font-family="Helvetica,sans-Serif" font-size="10.00">src.domain.usecases.scan</text>
<text text-anchor="start" x="8" y="-107" font-family="Helvetica,sans-Serif" font-size="10.00">_directory_usecase.ScanDirectory</text>
<text text-anchor="middle" x="83" y="-95.75" font-family="Helvetica,sans-Serif" font-size="10.00">UseCase.execute</text>
</a>
</g>
</g>
<!-- Node2 -->
<g id="Node000002" class="node">
<title>Node2</title>
<g id="a_Node000002"><a xlink:href="classsrc_1_1domain_1_1usecases_1_1scan__directory__usecase_1_1_scan_directory_use_case.html#a837d4143c4eee4b358e336ae4ac7fcca" target="_top" xlink:title=" ">
<polygon fill="white" stroke="#666666" points="372.88,-221.75 206.88,-221.75 206.88,-180 372.88,-180 372.88,-221.75"/>
<text text-anchor="start" x="214.88" y="-208.25" font-family="Helvetica,sans-Serif" font-size="10.00">src.domain.usecases.scan</text>
<text text-anchor="start" x="214.88" y="-197" font-family="Helvetica,sans-Serif" font-size="10.00">_directory_usecase.ScanDirectory</text>
<text text-anchor="middle" x="289.88" y="-185.75" font-family="Helvetica,sans-Serif" font-size="10.00">UseCase.__load_remaining_files</text>
</a>
</g>
</g>
<!-- Node1&#45;&gt;Node2 -->
<g id="edge1_Node000001_Node000002" class="edge">
<title>Node1&#45;&gt;Node2</title>
<g id="a_edge1_Node000001_Node000002"><a xlink:title=" ">
<path fill="none" stroke="#63b8ff" d="M122.43,-132.11C145.19,-144.26 174.82,-159.34 202,-170.88 205.86,-172.51 209.83,-174.13 213.87,-175.71"/>
<polygon fill="#63b8ff" stroke="#63b8ff" points="212.39,-179.27 222.98,-179.57 214.89,-172.73 212.39,-179.27"/>
</a>
</g>
</g>
<!-- Node3 -->
<g id="Node000003" class="node">
<title>Node3</title>
<g id="a_Node000003"><a xlink:href="classsrc_1_1domain_1_1usecases_1_1scan__directory__usecase_1_1_scan_directory_use_case.html#a40236a57940555354f6b8fa8f2387422" target="_top" xlink:title=" ">
<polygon fill="white" stroke="#666666" points="377.75,-161.75 202,-161.75 202,-120 377.75,-120 377.75,-161.75"/>
<text text-anchor="start" x="210" y="-148.25" font-family="Helvetica,sans-Serif" font-size="10.00">src.domain.usecases.scan</text>
<text text-anchor="start" x="210" y="-137" font-family="Helvetica,sans-Serif" font-size="10.00">_directory_usecase.ScanDirectory</text>
<text text-anchor="middle" x="289.88" y="-125.75" font-family="Helvetica,sans-Serif" font-size="10.00">UseCase.__process_remaining_files</text>
</a>
</g>
</g>
<!-- Node1&#45;&gt;Node3 -->
<g id="edge2_Node000001_Node000003" class="edge">
<title>Node1&#45;&gt;Node3</title>
<g id="a_edge2_Node000001_Node000003"><a xlink:title=" ">
<path fill="none" stroke="#63b8ff" d="M166.44,-122.95C174.49,-124.12 182.7,-125.33 190.87,-126.52"/>
<polygon fill="#63b8ff" stroke="#63b8ff" points="190.17,-130.11 200.58,-128.09 191.19,-123.18 190.17,-130.11"/>
</a>
</g>
</g>
<!-- Node4 -->
<g id="Node000004" class="node">
<title>Node4</title>
<g id="a_Node000004"><a xlink:href="classsrc_1_1domain_1_1usecases_1_1scan__directory__usecase_1_1_scan_directory_use_case.html#aee17f8f30840ec557d5b2fd2c93a3348" target="_top" xlink:title=" ">
<polygon fill="white" stroke="#666666" points="372.88,-101.75 206.88,-101.75 206.88,-60 372.88,-60 372.88,-101.75"/>
<text text-anchor="start" x="214.88" y="-88.25" font-family="Helvetica,sans-Serif" font-size="10.00">src.domain.usecases.scan</text>
<text text-anchor="start" x="214.88" y="-77" font-family="Helvetica,sans-Serif" font-size="10.00">_directory_usecase.ScanDirectory</text>
<text text-anchor="middle" x="289.88" y="-65.75" font-family="Helvetica,sans-Serif" font-size="10.00">UseCase.__save_remaining_files</text>
</a>
</g>
</g>
<!-- Node1&#45;&gt;Node4 -->
<g id="edge3_Node000001_Node000004" class="edge">
<title>Node1&#45;&gt;Node4</title>
<g id="a_edge3_Node000001_Node000004"><a xlink:title=" ">
<path fill="none" stroke="#63b8ff" d="M166.44,-98.8C176.16,-97.38 186.13,-95.92 195.98,-94.48"/>
<polygon fill="#63b8ff" stroke="#63b8ff" points="196.21,-97.83 205.6,-92.92 195.2,-90.91 196.21,-97.83"/>
</a>
</g>
</g>
<!-- Node5 -->
<g id="Node000005" class="node">
<title>Node5</title>
<g id="a_Node000005"><a xlink:href="classsrc_1_1domain_1_1usecases_1_1scan__directory__usecase_1_1_scan_directory_use_case.html#abebd9c551d6ffd90144e3914b3761f4f" target="_top" xlink:title=" ">
<polygon fill="white" stroke="#666666" points="372.88,-41.75 206.88,-41.75 206.88,0 372.88,0 372.88,-41.75"/>
<text text-anchor="start" x="214.88" y="-28.25" font-family="Helvetica,sans-Serif" font-size="10.00">src.domain.usecases.scan</text>
<text text-anchor="start" x="214.88" y="-17" font-family="Helvetica,sans-Serif" font-size="10.00">_directory_usecase.ScanDirectory</text>
<text text-anchor="middle" x="289.88" y="-5.75" font-family="Helvetica,sans-Serif" font-size="10.00">UseCase.__scan_directory</text>
</a>
</g>
</g>
<!-- Node1&#45;&gt;Node5 -->
<g id="edge4_Node000001_Node000005" class="edge">
<title>Node1&#45;&gt;Node5</title>
<g id="a_edge4_Node000001_Node000005"><a xlink:title=" ">
<path fill="none" stroke="#63b8ff" d="M122.43,-89.64C145.19,-77.49 174.82,-62.41 202,-50.88 205.86,-49.24 209.83,-47.62 213.87,-46.04"/>
<polygon fill="#63b8ff" stroke="#63b8ff" points="214.89,-49.02 222.98,-42.18 212.39,-42.48 214.89,-49.02"/>
</a>
</g>
</g>
</g>
</svg>
