<?xml version="1.0" encoding="UTF-8" standalone="no"?>
<!DOCTYPE svg PUBLIC "-//W3C//DTD SVG 1.1//EN"
 "http://www.w3.org/Graphics/SVG/1.1/DTD/svg11.dtd">
<!-- Generated by graphviz version 2.43.0 (0)
 -->
<!-- Title: Persistence.Repositories.ProjectFinalReportRepository.DeleteAsync Pages: 1 -->
<svg width="489pt" height="100pt"
 viewBox="0.00 0.00 489.00 99.50" xmlns="http://www.w3.org/2000/svg" xmlns:xlink="http://www.w3.org/1999/xlink">
<g id="graph0" class="graph" transform="scale(1 1) rotate(0) translate(4 95.5)">
<title>Persistence.Repositories.ProjectFinalReportRepository.DeleteAsync</title>
<!-- Node1 -->
<g id="node1" class="node">
<title>Node1</title>
<g id="a_node1"><a xlink:title=" ">
<polygon fill="#bfbfbf" stroke="black" points="0,-27.5 0,-57.5 221,-57.5 221,-27.5 0,-27.5"/>
<text text-anchor="start" x="8" y="-45.5" font-family="Helvetica,sans-Serif" font-size="10.00">Persistence.Repositories.</text>
<text text-anchor="middle" x="110.5" y="-34.5" font-family="Helvetica,sans-Serif" font-size="10.00">ProjectFinalReportRepository.DeleteAsync</text>
</a>
</g>
</g>
<!-- Node2 -->
<g id="node2" class="node">
<title>Node2</title>
<g id="a_node2"><a xlink:href="classPersistence_1_1Repositories_1_1ProjectFinalReportRepository.html#afcf2cb304bee2e8e7f0c382dee4c679b" target="_top" xlink:title=" ">
<polygon fill="none" stroke="black" points="280.5,-50 280.5,-91 457.5,-91 457.5,-50 280.5,-50"/>
<text text-anchor="start" x="288.5" y="-79" font-family="Helvetica,sans-Serif" font-size="10.00">Persistence.Repositories.</text>
<text text-anchor="start" x="288.5" y="-68" font-family="Helvetica,sans-Serif" font-size="10.00">ProjectFinalReportRepository.Get</text>
<text text-anchor="middle" x="369" y="-57" font-family="Helvetica,sans-Serif" font-size="10.00">ByIdAsync</text>
</a>
</g>
</g>
<!-- Node1&#45;&gt;Node2 -->
<g id="edge1" class="edge">
<title>Node1&#45;&gt;Node2</title>
<path fill="none" stroke="midnightblue" d="M221.02,-54.46C237.22,-56.22 253.82,-58.04 269.77,-59.78"/>
<polygon fill="midnightblue" stroke="midnightblue" points="269.82,-63.3 280.14,-60.91 270.58,-56.34 269.82,-63.3"/>
</g>
<!-- Node3 -->
<g id="node3" class="node">
<title>Node3</title>
<g id="a_node3"><a xlink:href="classPersistence_1_1Repositories_1_1ProjectFinalReportRepository.html#aecac50a33f2c5ba9aad627b3adffaec7" target="_top" xlink:title=" ">
<polygon fill="none" stroke="black" points="257,-0.5 257,-30.5 481,-30.5 481,-0.5 257,-0.5"/>
<text text-anchor="start" x="265" y="-18.5" font-family="Helvetica,sans-Serif" font-size="10.00">Persistence.Repositories.</text>
<text text-anchor="middle" x="369" y="-7.5" font-family="Helvetica,sans-Serif" font-size="10.00">ProjectFinalReportRepository.UpdateAsync</text>
</a>
</g>
</g>
<!-- Node1&#45;&gt;Node3 -->
<g id="edge2" class="edge">
<title>Node1&#45;&gt;Node3</title>
<path fill="none" stroke="midnightblue" d="M221.02,-30.97C229.54,-30.07 238.16,-29.17 246.75,-28.26"/>
<polygon fill="midnightblue" stroke="midnightblue" points="247.22,-31.73 256.8,-27.21 246.49,-24.77 247.22,-31.73"/>
</g>
</g>
</svg>
