<?xml version="1.0" encoding="UTF-8" standalone="no"?>
<!DOCTYPE svg PUBLIC "-//W3C//DTD SVG 1.1//EN"
 "http://www.w3.org/Graphics/SVG/1.1/DTD/svg11.dtd">
<!-- Generated by graphviz version 9.0.0 (20230911.1827)
 -->
<!-- Title: Persistence.Repositories.ProfessorRepository.DeleteAsync Pages: 1 -->
<svg width="378pt" height="137pt"
 viewBox="0.00 0.00 377.50 136.50" xmlns="http://www.w3.org/2000/svg" xmlns:xlink="http://www.w3.org/1999/xlink">
<g id="graph0" class="graph" transform="scale(1 1) rotate(0) translate(4 132.5)">
<title>Persistence.Repositories.ProfessorRepository.DeleteAsync</title>
<!-- Node1 -->
<g id="Node000001" class="node">
<title>Node1</title>
<g id="a_Node000001"><a xlink:title=" ">
<polygon fill="#999999" stroke="#666666" points="163,-79.5 0,-79.5 0,-49 163,-49 163,-79.5"/>
<text text-anchor="start" x="8" y="-66" font-family="Helvetica,sans-Serif" font-size="10.00">Persistence.Repositories.</text>
<text text-anchor="middle" x="81.5" y="-54.75" font-family="Helvetica,sans-Serif" font-size="10.00">ProfessorRepository.DeleteAsync</text>
</a>
</g>
</g>
<!-- Node2 -->
<g id="Node000002" class="node">
<title>Node2</title>
<g id="a_Node000002"><a xlink:href="class_domain_1_1_entities_1_1_primitives_1_1_entity.html#a3a368e3c302f8622ea0305003ef2a5eb" target="_top" xlink:title=" ">
<polygon fill="white" stroke="#666666" points="351.88,-128.5 216.62,-128.5 216.62,-98 351.88,-98 351.88,-128.5"/>
<text text-anchor="start" x="224.62" y="-115" font-family="Helvetica,sans-Serif" font-size="10.00">Domain.Entities.Primitives.</text>
<text text-anchor="middle" x="284.25" y="-103.75" font-family="Helvetica,sans-Serif" font-size="10.00">Entity.DeactivateEntity</text>
</a>
</g>
</g>
<!-- Node1&#45;&gt;Node2 -->
<g id="edge1_Node000001_Node000002" class="edge">
<title>Node1&#45;&gt;Node2</title>
<g id="a_edge1_Node000001_Node000002"><a xlink:title=" ">
<path fill="none" stroke="#63b8ff" d="M146.85,-79.96C166.3,-84.7 187.83,-89.96 207.93,-94.86"/>
<polygon fill="#63b8ff" stroke="#63b8ff" points="206.91,-98.22 217.45,-97.19 208.57,-91.42 206.91,-98.22"/>
</a>
</g>
</g>
<!-- Node3 -->
<g id="Node000003" class="node">
<title>Node3</title>
<g id="a_Node000003"><a xlink:href="class_persistence_1_1_repositories_1_1_professor_repository.html#addd61a3a90b4b983d8911cf1509cb39a" target="_top" xlink:title=" ">
<polygon fill="white" stroke="#666666" points="369.5,-79.5 199,-79.5 199,-49 369.5,-49 369.5,-79.5"/>
<text text-anchor="start" x="207" y="-66" font-family="Helvetica,sans-Serif" font-size="10.00">Persistence.Repositories.</text>
<text text-anchor="middle" x="284.25" y="-54.75" font-family="Helvetica,sans-Serif" font-size="10.00">ProfessorRepository.GetByIdAsync</text>
</a>
</g>
</g>
<!-- Node1&#45;&gt;Node3 -->
<g id="edge2_Node000001_Node000003" class="edge">
<title>Node1&#45;&gt;Node3</title>
<g id="a_edge2_Node000001_Node000003"><a xlink:title=" ">
<path fill="none" stroke="#63b8ff" d="M163.28,-64.25C171.21,-64.25 179.3,-64.25 187.36,-64.25"/>
<polygon fill="#63b8ff" stroke="#63b8ff" points="187.18,-67.75 197.18,-64.25 187.18,-60.75 187.18,-67.75"/>
</a>
</g>
</g>
<!-- Node4 -->
<g id="Node000004" class="node">
<title>Node4</title>
<g id="a_Node000004"><a xlink:href="class_persistence_1_1_repositories_1_1_professor_repository.html#afb13fa57720e4e6f26deff745041c281" target="_top" xlink:title=" ">
<polygon fill="white" stroke="#666666" points="367.25,-30.5 201.25,-30.5 201.25,0 367.25,0 367.25,-30.5"/>
<text text-anchor="start" x="209.25" y="-17" font-family="Helvetica,sans-Serif" font-size="10.00">Persistence.Repositories.</text>
<text text-anchor="middle" x="284.25" y="-5.75" font-family="Helvetica,sans-Serif" font-size="10.00">ProfessorRepository.UpdateAsync</text>
</a>
</g>
</g>
<!-- Node1&#45;&gt;Node4 -->
<g id="edge3_Node000001_Node000004" class="edge">
<title>Node1&#45;&gt;Node4</title>
<g id="a_edge3_Node000001_Node000004"><a xlink:title=" ">
<path fill="none" stroke="#63b8ff" d="M146.85,-48.54C166.3,-43.8 187.83,-38.54 207.93,-33.64"/>
<polygon fill="#63b8ff" stroke="#63b8ff" points="208.57,-37.08 217.45,-31.31 206.91,-30.28 208.57,-37.08"/>
</a>
</g>
</g>
</g>
</svg>
