<?xml version="1.0" encoding="UTF-8" standalone="no"?>
<!DOCTYPE svg PUBLIC "-//W3C//DTD SVG 1.1//EN"
 "http://www.w3.org/Graphics/SVG/1.1/DTD/svg11.dtd">
<!-- Generated by graphviz version 2.43.0 (0)
 -->
<!-- Title: Application.Ports.SubArea.BaseSubAreaContract Pages: 1 -->
<svg width="351pt" height="186pt"
 viewBox="0.00 0.00 351.00 186.00" xmlns="http://www.w3.org/2000/svg" xmlns:xlink="http://www.w3.org/1999/xlink">
<g id="graph0" class="graph" transform="scale(1 1) rotate(0) translate(4 182)">
<title>Application.Ports.SubArea.BaseSubAreaContract</title>
<!-- Node1 -->
<g id="node1" class="node">
<title>Node1</title>
<g id="a_node1"><a xlink:title=" ">
<polygon fill="#bfbfbf" stroke="black" points="0,-73.5 0,-103.5 146,-103.5 146,-73.5 0,-73.5"/>
<text text-anchor="start" x="8" y="-91.5" font-family="Helvetica,sans-Serif" font-size="10.00">Application.Ports.SubArea.</text>
<text text-anchor="middle" x="73" y="-80.5" font-family="Helvetica,sans-Serif" font-size="10.00">BaseSubAreaContract</text>
</a>
</g>
</g>
<!-- Node2 -->
<g id="node2" class="node">
<title>Node2</title>
<g id="a_node2"><a xlink:href="classApplication_1_1Ports_1_1SubArea_1_1CreateSubAreaInput.html" target="_top" xlink:title=" ">
<polygon fill="none" stroke="black" points="189.5,-147.5 189.5,-177.5 335.5,-177.5 335.5,-147.5 189.5,-147.5"/>
<text text-anchor="start" x="197.5" y="-165.5" font-family="Helvetica,sans-Serif" font-size="10.00">Application.Ports.SubArea.</text>
<text text-anchor="middle" x="262.5" y="-154.5" font-family="Helvetica,sans-Serif" font-size="10.00">CreateSubAreaInput</text>
</a>
</g>
</g>
<!-- Node1&#45;&gt;Node2 -->
<g id="edge1" class="edge">
<title>Node1&#45;&gt;Node2</title>
<path fill="none" stroke="midnightblue" d="M113,-108.17C133.29,-117.98 158.66,-129.62 182,-138.5 190.22,-141.63 199.04,-144.62 207.7,-147.38"/>
<polygon fill="midnightblue" stroke="midnightblue" points="114.3,-104.91 103.77,-103.66 111.22,-111.2 114.3,-104.91"/>
</g>
<!-- Node3 -->
<g id="node3" class="node">
<title>Node3</title>
<g id="a_node3"><a xlink:href="classApplication_1_1Ports_1_1SubArea_1_1DetailedReadSubAreaOutput.html" target="_top" xlink:title=" ">
<polygon fill="none" stroke="black" points="184.5,-98.5 184.5,-128.5 340.5,-128.5 340.5,-98.5 184.5,-98.5"/>
<text text-anchor="start" x="192.5" y="-116.5" font-family="Helvetica,sans-Serif" font-size="10.00">Application.Ports.SubArea.</text>
<text text-anchor="middle" x="262.5" y="-105.5" font-family="Helvetica,sans-Serif" font-size="10.00">DetailedReadSubAreaOutput</text>
</a>
</g>
</g>
<!-- Node1&#45;&gt;Node3 -->
<g id="edge2" class="edge">
<title>Node1&#45;&gt;Node3</title>
<path fill="none" stroke="midnightblue" d="M156.27,-99.47C165.6,-100.71 175.08,-101.98 184.34,-103.21"/>
<polygon fill="midnightblue" stroke="midnightblue" points="156.6,-95.98 146.22,-98.13 155.67,-102.92 156.6,-95.98"/>
</g>
<!-- Node4 -->
<g id="node4" class="node">
<title>Node4</title>
<g id="a_node4"><a xlink:href="classApplication_1_1Ports_1_1SubArea_1_1ResumedReadSubAreaOutput.html" target="_top" xlink:title=" ">
<polygon fill="none" stroke="black" points="182,-49.5 182,-79.5 343,-79.5 343,-49.5 182,-49.5"/>
<text text-anchor="start" x="190" y="-67.5" font-family="Helvetica,sans-Serif" font-size="10.00">Application.Ports.SubArea.</text>
<text text-anchor="middle" x="262.5" y="-56.5" font-family="Helvetica,sans-Serif" font-size="10.00">ResumedReadSubAreaOutput</text>
</a>
</g>
</g>
<!-- Node1&#45;&gt;Node4 -->
<g id="edge3" class="edge">
<title>Node1&#45;&gt;Node4</title>
<path fill="none" stroke="midnightblue" d="M156.15,-77.98C164.68,-76.89 173.33,-75.79 181.83,-74.7"/>
<polygon fill="midnightblue" stroke="midnightblue" points="155.7,-74.51 146.22,-79.26 156.59,-81.46 155.7,-74.51"/>
</g>
<!-- Node5 -->
<g id="node5" class="node">
<title>Node5</title>
<g id="a_node5"><a xlink:href="classApplication_1_1Ports_1_1SubArea_1_1UpdateSubAreaInput.html" target="_top" xlink:title=" ">
<polygon fill="none" stroke="black" points="189.5,-0.5 189.5,-30.5 335.5,-30.5 335.5,-0.5 189.5,-0.5"/>
<text text-anchor="start" x="197.5" y="-18.5" font-family="Helvetica,sans-Serif" font-size="10.00">Application.Ports.SubArea.</text>
<text text-anchor="middle" x="262.5" y="-7.5" font-family="Helvetica,sans-Serif" font-size="10.00">UpdateSubAreaInput</text>
</a>
</g>
</g>
<!-- Node1&#45;&gt;Node5 -->
<g id="edge4" class="edge">
<title>Node1&#45;&gt;Node5</title>
<path fill="none" stroke="midnightblue" d="M114.43,-69.22C134.52,-59.98 159.3,-49.08 182,-40.5 191.2,-37.02 201.13,-33.63 210.74,-30.52"/>
<polygon fill="midnightblue" stroke="midnightblue" points="112.87,-66.09 105.27,-73.47 115.81,-72.44 112.87,-66.09"/>
</g>
</g>
</svg>
