<?xml version="1.0" encoding="UTF-8" standalone="no"?>
<!DOCTYPE svg PUBLIC "-//W3C//DTD SVG 1.1//EN"
 "http://www.w3.org/Graphics/SVG/1.1/DTD/svg11.dtd">
<!-- Generated by graphviz version 8.1.0 (20230707.0739)
 -->
<!-- Title: src.domain.interfaces.services.logger_service_interface.ILoggerService Pages: 1 -->
<svg width="187pt" height="172pt"
 viewBox="0.00 0.00 186.75 171.50" xmlns="http://www.w3.org/2000/svg" xmlns:xlink="http://www.w3.org/1999/xlink">
<g id="graph0" class="graph" transform="scale(1 1) rotate(0) translate(4 167.5)">
<title>src.domain.interfaces.services.logger_service_interface.ILoggerService</title>
<!-- Node1 -->
<g id="Node000001" class="node">
<title>Node1</title>
<g id="a_Node000001"><a xlink:title=" ">
<polygon fill="#999999" stroke="#666666" points="178.75,-108.25 0,-108.25 0,-77.75 178.75,-77.75 178.75,-108.25"/>
<text text-anchor="start" x="8" y="-94.75" font-family="Helvetica,sans-Serif" font-size="10.00">src.domain.interfaces.services.logger</text>
<text text-anchor="middle" x="89.38" y="-83.5" font-family="Helvetica,sans-Serif" font-size="10.00">_service_interface.ILoggerService</text>
</a>
</g>
</g>
<!-- Node3 -->
<g id="Node000003" class="node">
<title>Node3</title>
<g id="a_Node000003"><a xlink:href="classsrc_1_1infra_1_1external__services_1_1logger__service_1_1_logger_service.html" target="_top" xlink:title=" ">
<polygon fill="white" stroke="#666666" points="167.5,-41.75 11.25,-41.75 11.25,0 167.5,0 167.5,-41.75"/>
<text text-anchor="start" x="19.25" y="-28.25" font-family="Helvetica,sans-Serif" font-size="10.00">src.infra.external</text>
<text text-anchor="start" x="19.25" y="-17" font-family="Helvetica,sans-Serif" font-size="10.00">_services.logger_service.Logger</text>
<text text-anchor="middle" x="89.38" y="-5.75" font-family="Helvetica,sans-Serif" font-size="10.00">Service</text>
</a>
</g>
</g>
<!-- Node1&#45;&gt;Node3 -->
<g id="edge2_Node000001_Node000003" class="edge">
<title>Node1&#45;&gt;Node3</title>
<g id="a_edge2_Node000001_Node000003"><a xlink:title=" ">
<path fill="none" stroke="#63b8ff" d="M89.38,-66.5C89.38,-58.52 89.38,-49.82 89.38,-42.24"/>
<polygon fill="#63b8ff" stroke="#63b8ff" points="85.88,-66.47 89.38,-76.47 92.88,-66.47 85.88,-66.47"/>
</a>
</g>
</g>
<!-- Node2 -->
<g id="Node000002" class="node">
<title>Node2</title>
<g id="a_Node000002"><a xlink:title=" ">
<polygon fill="white" stroke="#666666" points="107.88,-163.5 70.88,-163.5 70.88,-144.25 107.88,-144.25 107.88,-163.5"/>
<text text-anchor="middle" x="89.38" y="-150" font-family="Helvetica,sans-Serif" font-size="10.00">ABC</text>
</a>
</g>
</g>
<!-- Node2&#45;&gt;Node1 -->
<g id="edge1_Node000001_Node000002" class="edge">
<title>Node2&#45;&gt;Node1</title>
<g id="a_edge1_Node000001_Node000002"><a xlink:title=" ">
<path fill="none" stroke="#63b8ff" d="M89.38,-132.95C89.38,-124.95 89.38,-115.9 89.38,-108.53"/>
<polygon fill="#63b8ff" stroke="#63b8ff" points="85.88,-132.93 89.38,-142.93 92.88,-132.93 85.88,-132.93"/>
</a>
</g>
</g>
</g>
</svg>
