<?xml version="1.0" encoding="UTF-8" standalone="no"?>
<!DOCTYPE svg PUBLIC "-//W3C//DTD SVG 1.1//EN"
 "http://www.w3.org/Graphics/SVG/1.1/DTD/svg11.dtd">
<!-- Generated by graphviz version 9.0.0 (20230911.1827)
 -->
<!-- Title: Application.Ports.Course.BaseCourseContract Pages: 1 -->
<svg width="314pt" height="186pt"
 viewBox="0.00 0.00 313.75 185.50" xmlns="http://www.w3.org/2000/svg" xmlns:xlink="http://www.w3.org/1999/xlink">
<g id="graph0" class="graph" transform="scale(1 1) rotate(0) translate(4 181.5)">
<title>Application.Ports.Course.BaseCourseContract</title>
<!-- Node1 -->
<g id="Node000001" class="node">
<title>Node1</title>
<g id="a_Node000001"><a xlink:title=" ">
<polygon fill="#999999" stroke="#666666" points="127.75,-103.5 0,-103.5 0,-73 127.75,-73 127.75,-103.5"/>
<text text-anchor="start" x="8" y="-90" font-family="Helvetica,sans-Serif" font-size="10.00">Application.Ports.Course.</text>
<text text-anchor="middle" x="63.88" y="-78.75" font-family="Helvetica,sans-Serif" font-size="10.00">BaseCourseContract</text>
</a>
</g>
</g>
<!-- Node2 -->
<g id="Node000002" class="node">
<title>Node2</title>
<g id="a_Node000002"><a xlink:href="class_application_1_1_ports_1_1_course_1_1_create_course_input.html" target="_top" xlink:title=" ">
<polygon fill="white" stroke="#666666" points="298.62,-177.5 170.88,-177.5 170.88,-147 298.62,-147 298.62,-177.5"/>
<text text-anchor="start" x="178.88" y="-164" font-family="Helvetica,sans-Serif" font-size="10.00">Application.Ports.Course.</text>
<text text-anchor="middle" x="234.75" y="-152.75" font-family="Helvetica,sans-Serif" font-size="10.00">CreateCourseInput</text>
</a>
</g>
</g>
<!-- Node1&#45;&gt;Node2 -->
<g id="edge1_Node000001_Node000002" class="edge">
<title>Node1&#45;&gt;Node2</title>
<g id="a_edge1_Node000001_Node000002"><a xlink:title=" ">
<path fill="none" stroke="#63b8ff" d="M104.38,-109.15C122.28,-118.28 143.85,-128.8 163.75,-137.25 171.35,-140.48 179.53,-143.65 187.52,-146.6"/>
<polygon fill="#63b8ff" stroke="#63b8ff" points="106.14,-106.12 95.65,-104.66 102.94,-112.35 106.14,-106.12"/>
</a>
</g>
</g>
<!-- Node3 -->
<g id="Node000003" class="node">
<title>Node3</title>
<g id="a_Node000003"><a xlink:href="class_application_1_1_ports_1_1_course_1_1_detailed_read_course_output.html" target="_top" xlink:title=" ">
<polygon fill="white" stroke="#666666" points="302.75,-128.5 166.75,-128.5 166.75,-98 302.75,-98 302.75,-128.5"/>
<text text-anchor="start" x="174.75" y="-115" font-family="Helvetica,sans-Serif" font-size="10.00">Application.Ports.Course.</text>
<text text-anchor="middle" x="234.75" y="-103.75" font-family="Helvetica,sans-Serif" font-size="10.00">DetailedReadCourseOutput</text>
</a>
</g>
</g>
<!-- Node1&#45;&gt;Node3 -->
<g id="edge2_Node000001_Node000003" class="edge">
<title>Node1&#45;&gt;Node3</title>
<g id="a_edge2_Node000001_Node000003"><a xlink:title=" ">
<path fill="none" stroke="#63b8ff" d="M139.47,-99.29C148.42,-100.62 157.52,-101.96 166.36,-103.27"/>
<polygon fill="#63b8ff" stroke="#63b8ff" points="140.14,-95.85 129.74,-97.85 139.12,-102.78 140.14,-95.85"/>
</a>
</g>
</g>
<!-- Node4 -->
<g id="Node000004" class="node">
<title>Node4</title>
<g id="a_Node000004"><a xlink:href="class_application_1_1_ports_1_1_course_1_1_resumed_read_course_output.html" target="_top" xlink:title=" ">
<polygon fill="white" stroke="#666666" points="305.75,-79.5 163.75,-79.5 163.75,-49 305.75,-49 305.75,-79.5"/>
<text text-anchor="start" x="171.75" y="-66" font-family="Helvetica,sans-Serif" font-size="10.00">Application.Ports.Course.</text>
<text text-anchor="middle" x="234.75" y="-54.75" font-family="Helvetica,sans-Serif" font-size="10.00">ResumedReadCourseOutput</text>
</a>
</g>
</g>
<!-- Node1&#45;&gt;Node4 -->
<g id="edge3_Node000001_Node000004" class="edge">
<title>Node1&#45;&gt;Node4</title>
<g id="a_edge3_Node000001_Node000004"><a xlink:title=" ">
<path fill="none" stroke="#63b8ff" d="M139.44,-77.65C147.44,-76.52 155.57,-75.36 163.52,-74.23"/>
<polygon fill="#63b8ff" stroke="#63b8ff" points="139.14,-74.16 129.74,-79.03 140.13,-81.09 139.14,-74.16"/>
</a>
</g>
</g>
<!-- Node5 -->
<g id="Node000005" class="node">
<title>Node5</title>
<g id="a_Node000005"><a xlink:href="class_application_1_1_ports_1_1_course_1_1_update_course_input.html" target="_top" xlink:title=" ">
<polygon fill="white" stroke="#666666" points="298.62,-30.5 170.88,-30.5 170.88,0 298.62,0 298.62,-30.5"/>
<text text-anchor="start" x="178.88" y="-17" font-family="Helvetica,sans-Serif" font-size="10.00">Application.Ports.Course.</text>
<text text-anchor="middle" x="234.75" y="-5.75" font-family="Helvetica,sans-Serif" font-size="10.00">UpdateCourseInput</text>
</a>
</g>
</g>
<!-- Node1&#45;&gt;Node5 -->
<g id="edge4_Node000001_Node000005" class="edge">
<title>Node1&#45;&gt;Node5</title>
<g id="a_edge4_Node000001_Node000005"><a xlink:title=" ">
<path fill="none" stroke="#63b8ff" d="M104.82,-67.63C122.65,-58.75 144.04,-48.52 163.75,-40.25 171.37,-37.05 179.55,-33.89 187.54,-30.95"/>
<polygon fill="#63b8ff" stroke="#63b8ff" points="103.49,-64.38 96.13,-72 106.63,-70.64 103.49,-64.38"/>
</a>
</g>
</g>
</g>
</svg>
