<?xml version="1.0" encoding="UTF-8" standalone="no"?>
<!DOCTYPE svg PUBLIC "-//W3C//DTD SVG 1.1//EN"
 "http://www.w3.org/Graphics/SVG/1.1/DTD/svg11.dtd">
<!-- Generated by graphviz version 2.43.0 (0)
 -->
<!-- Title: UseCaseException.NotFoundEntityById Pages: 1 -->
<svg width="424pt" height="1660pt"
 viewBox="0.00 0.00 424.00 1659.50" xmlns="http://www.w3.org/2000/svg" xmlns:xlink="http://www.w3.org/1999/xlink">
<g id="graph0" class="graph" transform="scale(1 1) rotate(0) translate(4 1655.5)">
<title>UseCaseException.NotFoundEntityById</title>
<!-- Node1 -->
<g id="node1" class="node">
<title>Node1</title>
<g id="a_node1"><a xlink:title=" ">
<polygon fill="#bfbfbf" stroke="black" points="259,-794.5 259,-824.5 416,-824.5 416,-794.5 259,-794.5"/>
<text text-anchor="start" x="267" y="-812.5" font-family="Helvetica,sans-Serif" font-size="10.00">UseCaseException.NotFound</text>
<text text-anchor="middle" x="337.5" y="-801.5" font-family="Helvetica,sans-Serif" font-size="10.00">EntityById</text>
</a>
</g>
</g>
<!-- Node2 -->
<g id="node2" class="node">
<title>Node2</title>
<g id="a_node2"><a xlink:href="classApplication_1_1UseCases_1_1ProjectFinalReport_1_1CreateProjectFinalReport.html#a00de73f1fa36d4c3c316dccef715a681" target="_top" xlink:title=" ">
<polygon fill="none" stroke="black" points="11.5,-1610 11.5,-1651 211.5,-1651 211.5,-1610 11.5,-1610"/>
<text text-anchor="start" x="19.5" y="-1639" font-family="Helvetica,sans-Serif" font-size="10.00">Application.UseCases.Project</text>
<text text-anchor="start" x="19.5" y="-1628" font-family="Helvetica,sans-Serif" font-size="10.00">FinalReport.CreateProjectFinalReport.</text>
<text text-anchor="middle" x="111.5" y="-1617" font-family="Helvetica,sans-Serif" font-size="10.00">ExecuteAsync</text>
</a>
</g>
</g>
<!-- Node1&#45;&gt;Node2 -->
<g id="edge1" class="edge">
<title>Node1&#45;&gt;Node2</title>
<path fill="none" stroke="midnightblue" d="M336.47,-834.79C335.79,-956.75 326.83,-1483.09 223,-1600.5 219.58,-1604.37 215.71,-1607.77 211.52,-1610.74"/>
<polygon fill="midnightblue" stroke="midnightblue" points="339.97,-834.59 336.51,-824.58 332.97,-834.56 339.97,-834.59"/>
</g>
<!-- Node3 -->
<g id="node3" class="node">
<title>Node3</title>
<g id="a_node3"><a xlink:href="classApplication_1_1UseCases_1_1ProjectPartialReport_1_1CreateProjectPartialReport.html#a62499f0836706ac149cb5c4441c25c08" target="_top" xlink:title=" ">
<polygon fill="none" stroke="black" points="22,-1550 22,-1591 201,-1591 201,-1550 22,-1550"/>
<text text-anchor="start" x="30" y="-1579" font-family="Helvetica,sans-Serif" font-size="10.00">Application.UseCases.Project</text>
<text text-anchor="start" x="30" y="-1568" font-family="Helvetica,sans-Serif" font-size="10.00">PartialReport.CreateProjectPartial</text>
<text text-anchor="middle" x="111.5" y="-1557" font-family="Helvetica,sans-Serif" font-size="10.00">Report.ExecuteAsync</text>
</a>
</g>
</g>
<!-- Node1&#45;&gt;Node3 -->
<g id="edge2" class="edge">
<title>Node1&#45;&gt;Node3</title>
<path fill="none" stroke="midnightblue" d="M336.14,-834.71C333.98,-950.81 319.23,-1432.94 223,-1540.5 216.84,-1547.39 209.27,-1552.76 201,-1556.95"/>
<polygon fill="midnightblue" stroke="midnightblue" points="339.64,-834.7 336.31,-824.64 332.64,-834.58 339.64,-834.7"/>
</g>
<!-- Node4 -->
<g id="node4" class="node">
<title>Node4</title>
<g id="a_node4"><a xlink:href="classApplication_1_1UseCases_1_1StudentDocuments_1_1CreateStudentDocuments.html#a1d45858f390f2bec3f9d51ed90699b0f" target="_top" xlink:title=" ">
<polygon fill="none" stroke="black" points="10,-1490 10,-1531 213,-1531 213,-1490 10,-1490"/>
<text text-anchor="start" x="18" y="-1519" font-family="Helvetica,sans-Serif" font-size="10.00">Application.UseCases.Student</text>
<text text-anchor="start" x="18" y="-1508" font-family="Helvetica,sans-Serif" font-size="10.00">Documents.CreateStudentDocuments.</text>
<text text-anchor="middle" x="111.5" y="-1497" font-family="Helvetica,sans-Serif" font-size="10.00">ExecuteAsync</text>
</a>
</g>
</g>
<!-- Node1&#45;&gt;Node4 -->
<g id="edge3" class="edge">
<title>Node1&#45;&gt;Node4</title>
<path fill="none" stroke="midnightblue" d="M335.76,-834.72C332,-944.89 311.63,-1382.77 223,-1480.5 219.79,-1484.03 216.22,-1487.17 212.37,-1489.95"/>
<polygon fill="midnightblue" stroke="midnightblue" points="339.26,-834.66 336.09,-824.56 332.26,-834.44 339.26,-834.66"/>
</g>
<!-- Node5 -->
<g id="node5" class="node">
<title>Node5</title>
<g id="a_node5"><a xlink:href="classApplication_1_1UseCases_1_1ProjectEvaluation_1_1EvaluateAppealProject.html#a813d70e38bd8d7eee469aa9457e214d5" target="_top" xlink:title="Avalia o recurso do projeto.">
<polygon fill="none" stroke="black" points="19,-1430 19,-1471 204,-1471 204,-1430 19,-1430"/>
<text text-anchor="start" x="27" y="-1459" font-family="Helvetica,sans-Serif" font-size="10.00">Application.UseCases.Project</text>
<text text-anchor="start" x="27" y="-1448" font-family="Helvetica,sans-Serif" font-size="10.00">Evaluation.EvaluateAppealProject.</text>
<text text-anchor="middle" x="111.5" y="-1437" font-family="Helvetica,sans-Serif" font-size="10.00">ExecuteAsync</text>
</a>
</g>
</g>
<!-- Node1&#45;&gt;Node5 -->
<g id="edge4" class="edge">
<title>Node1&#45;&gt;Node5</title>
<path fill="none" stroke="midnightblue" d="M335.3,-834.77C329.84,-938.79 304.05,-1332.57 223,-1420.5 217.61,-1426.35 211.21,-1431.1 204.24,-1434.96"/>
<polygon fill="midnightblue" stroke="midnightblue" points="338.8,-834.75 335.81,-824.58 331.81,-834.39 338.8,-834.75"/>
</g>
<!-- Node6 -->
<g id="node6" class="node">
<title>Node6</title>
<g id="a_node6"><a xlink:href="classApplication_1_1UseCases_1_1ProjectEvaluation_1_1EvaluateStudentDocuments.html#a8a19f6227f9ff613432ba339efd2ee70" target="_top" xlink:title="Avalia os documentos informados pelo estudante associado ao projeto.">
<polygon fill="none" stroke="black" points="6.5,-1370 6.5,-1411 216.5,-1411 216.5,-1370 6.5,-1370"/>
<text text-anchor="start" x="14.5" y="-1399" font-family="Helvetica,sans-Serif" font-size="10.00">Application.UseCases.Project</text>
<text text-anchor="start" x="14.5" y="-1388" font-family="Helvetica,sans-Serif" font-size="10.00">Evaluation.EvaluateStudentDocuments.</text>
<text text-anchor="middle" x="111.5" y="-1377" font-family="Helvetica,sans-Serif" font-size="10.00">ExecuteAsync</text>
</a>
</g>
</g>
<!-- Node1&#45;&gt;Node6 -->
<g id="edge5" class="edge">
<title>Node1&#45;&gt;Node6</title>
<path fill="none" stroke="midnightblue" d="M334.74,-834.77C327.45,-932.26 296.5,-1282.29 223,-1360.5 219.73,-1363.98 216.11,-1367.06 212.22,-1369.81"/>
<polygon fill="midnightblue" stroke="midnightblue" points="338.24,-834.88 335.48,-824.66 331.26,-834.38 338.24,-834.88"/>
</g>
<!-- Node7 -->
<g id="node7" class="node">
<title>Node7</title>
<g id="a_node7"><a xlink:href="classApplication_1_1UseCases_1_1ProjectEvaluation_1_1EvaluateSubmissionProject.html#acccd1c604a29a4fe38fda87e2ed169a6" target="_top" xlink:title="Avalia o projeto submetido.">
<polygon fill="none" stroke="black" points="8,-1310 8,-1351 215,-1351 215,-1310 8,-1310"/>
<text text-anchor="start" x="16" y="-1339" font-family="Helvetica,sans-Serif" font-size="10.00">Application.UseCases.Project</text>
<text text-anchor="start" x="16" y="-1328" font-family="Helvetica,sans-Serif" font-size="10.00">Evaluation.EvaluateSubmissionProject.</text>
<text text-anchor="middle" x="111.5" y="-1317" font-family="Helvetica,sans-Serif" font-size="10.00">ExecuteAsync</text>
</a>
</g>
</g>
<!-- Node1&#45;&gt;Node7 -->
<g id="edge6" class="edge">
<title>Node1&#45;&gt;Node7</title>
<path fill="none" stroke="midnightblue" d="M334.04,-834.91C324.75,-925.66 288.97,-1231.98 223,-1300.5 219.69,-1303.94 216.03,-1306.99 212.12,-1309.71"/>
<polygon fill="midnightblue" stroke="midnightblue" points="337.55,-835.01 335.06,-824.71 330.58,-834.31 337.55,-835.01"/>
</g>
<!-- Node8 -->
<g id="node8" class="node">
<title>Node8</title>
<g id="a_node8"><a xlink:href="classApplication_1_1UseCases_1_1Professor_1_1DeleteProfessor.html#a1b7f82a98cb7514fc1ed9672afbc36d1" target="_top" xlink:title=" ">
<polygon fill="none" stroke="black" points="25,-1260.5 25,-1290.5 198,-1290.5 198,-1260.5 25,-1260.5"/>
<text text-anchor="start" x="33" y="-1278.5" font-family="Helvetica,sans-Serif" font-size="10.00">Application.UseCases.Professor.</text>
<text text-anchor="middle" x="111.5" y="-1267.5" font-family="Helvetica,sans-Serif" font-size="10.00">DeleteProfessor.ExecuteAsync</text>
</a>
</g>
</g>
<!-- Node1&#45;&gt;Node8 -->
<g id="edge7" class="edge">
<title>Node1&#45;&gt;Node8</title>
<path fill="none" stroke="midnightblue" d="M333.5,-834.68C322.9,-919.42 284.5,-1192.26 223,-1251.5 215.93,-1258.31 207.41,-1263.37 198.27,-1267.12"/>
<polygon fill="midnightblue" stroke="midnightblue" points="336.99,-835.01 334.73,-824.65 330.04,-834.15 336.99,-835.01"/>
</g>
<!-- Node9 -->
<g id="node9" class="node">
<title>Node9</title>
<g id="a_node9"><a xlink:href="classApplication_1_1UseCases_1_1Project_1_1GetProjectById.html#a31dfebb3f5018d8e1b9014f47dacc7b3" target="_top" xlink:title=" ">
<polygon fill="none" stroke="black" points="30.5,-1211.5 30.5,-1241.5 192.5,-1241.5 192.5,-1211.5 30.5,-1211.5"/>
<text text-anchor="start" x="38.5" y="-1229.5" font-family="Helvetica,sans-Serif" font-size="10.00">Application.UseCases.Project.</text>
<text text-anchor="middle" x="111.5" y="-1218.5" font-family="Helvetica,sans-Serif" font-size="10.00">GetProjectById.ExecuteAsync</text>
</a>
</g>
</g>
<!-- Node1&#45;&gt;Node9 -->
<g id="edge8" class="edge">
<title>Node1&#45;&gt;Node9</title>
<path fill="none" stroke="midnightblue" d="M337.4,-834.77C338.42,-904.56 331.09,-1101.45 223,-1202.5 214.4,-1210.54 203.75,-1216.14 192.5,-1219.98"/>
<polygon fill="midnightblue" stroke="midnightblue" points="340.9,-834.62 337.18,-824.7 333.9,-834.77 340.9,-834.62"/>
</g>
<!-- Node10 -->
<g id="node10" class="node">
<title>Node10</title>
<g id="a_node10"><a xlink:href="classApplication_1_1UseCases_1_1Student_1_1DeleteStudent.html#ab525fa45ff5e0714f7c0e6119afaaf79" target="_top" xlink:title=" ">
<polygon fill="none" stroke="black" points="28.5,-1162.5 28.5,-1192.5 194.5,-1192.5 194.5,-1162.5 28.5,-1162.5"/>
<text text-anchor="start" x="36.5" y="-1180.5" font-family="Helvetica,sans-Serif" font-size="10.00">Application.UseCases.Student.</text>
<text text-anchor="middle" x="111.5" y="-1169.5" font-family="Helvetica,sans-Serif" font-size="10.00">DeleteStudent.ExecuteAsync</text>
</a>
</g>
</g>
<!-- Node1&#45;&gt;Node10 -->
<g id="edge9" class="edge">
<title>Node1&#45;&gt;Node10</title>
<path fill="none" stroke="midnightblue" d="M336.18,-835.02C333.91,-899.02 318.68,-1067.36 223,-1153.5 214.9,-1160.79 205.12,-1166.05 194.77,-1169.81"/>
<polygon fill="midnightblue" stroke="midnightblue" points="339.69,-834.75 336.46,-824.66 332.69,-834.56 339.69,-834.75"/>
</g>
<!-- Node11 -->
<g id="node11" class="node">
<title>Node11</title>
<g id="a_node11"><a xlink:href="classApplication_1_1UseCases_1_1User_1_1ActivateUser.html#a2a75943819e96779ecc1f91a927873fe" target="_top" xlink:title=" ">
<polygon fill="none" stroke="black" points="36.5,-1113.5 36.5,-1143.5 186.5,-1143.5 186.5,-1113.5 36.5,-1113.5"/>
<text text-anchor="start" x="44.5" y="-1131.5" font-family="Helvetica,sans-Serif" font-size="10.00">Application.UseCases.User.</text>
<text text-anchor="middle" x="111.5" y="-1120.5" font-family="Helvetica,sans-Serif" font-size="10.00">ActivateUser.ExecuteAsync</text>
</a>
</g>
</g>
<!-- Node1&#45;&gt;Node11 -->
<g id="edge10" class="edge">
<title>Node1&#45;&gt;Node11</title>
<path fill="none" stroke="midnightblue" d="M334.63,-834.52C328.96,-891.73 306.76,-1032.7 223,-1104.5 212.72,-1113.32 199.95,-1119.12 186.78,-1122.9"/>
<polygon fill="midnightblue" stroke="midnightblue" points="338.12,-834.82 335.54,-824.54 331.15,-834.19 338.12,-834.82"/>
</g>
<!-- Node12 -->
<g id="node12" class="node">
<title>Node12</title>
<g id="a_node12"><a xlink:href="classApplication_1_1UseCases_1_1User_1_1DeactivateUser.html#a32b3d8e6f705e62a03f89ca0acb46317" target="_top" xlink:title=" ">
<polygon fill="none" stroke="black" points="30.5,-1064.5 30.5,-1094.5 192.5,-1094.5 192.5,-1064.5 30.5,-1064.5"/>
<text text-anchor="start" x="38.5" y="-1082.5" font-family="Helvetica,sans-Serif" font-size="10.00">Application.UseCases.User.</text>
<text text-anchor="middle" x="111.5" y="-1071.5" font-family="Helvetica,sans-Serif" font-size="10.00">DeactivateUser.ExecuteAsync</text>
</a>
</g>
</g>
<!-- Node1&#45;&gt;Node12 -->
<g id="edge11" class="edge">
<title>Node1&#45;&gt;Node12</title>
<path fill="none" stroke="midnightblue" d="M332.45,-834.83C323,-885.21 294.6,-998.05 223,-1055.5 214.12,-1062.63 203.59,-1067.75 192.62,-1071.43"/>
<polygon fill="midnightblue" stroke="midnightblue" points="335.93,-835.25 334.23,-824.8 329.04,-834.03 335.93,-835.25"/>
</g>
<!-- Node13 -->
<g id="node13" class="node">
<title>Node13</title>
<g id="a_node13"><a xlink:href="classApplication_1_1UseCases_1_1Project_1_1CancelProject.html#aedcb72b321bdee7c20066078abfd3fa8" target="_top" xlink:title=" ">
<polygon fill="none" stroke="black" points="30.5,-1015.5 30.5,-1045.5 192.5,-1045.5 192.5,-1015.5 30.5,-1015.5"/>
<text text-anchor="start" x="38.5" y="-1033.5" font-family="Helvetica,sans-Serif" font-size="10.00">Application.UseCases.Project.</text>
<text text-anchor="middle" x="111.5" y="-1022.5" font-family="Helvetica,sans-Serif" font-size="10.00">CancelProject.ExecuteAsync</text>
</a>
</g>
</g>
<!-- Node1&#45;&gt;Node13 -->
<g id="edge12" class="edge">
<title>Node1&#45;&gt;Node13</title>
<path fill="none" stroke="midnightblue" d="M329.43,-834.51C316.06,-876.94 282.94,-962.71 223,-1006.5 213.96,-1013.1 203.47,-1017.95 192.63,-1021.51"/>
<polygon fill="midnightblue" stroke="midnightblue" points="332.85,-835.29 332.4,-824.7 326.15,-833.26 332.85,-835.29"/>
</g>
<!-- Node14 -->
<g id="node14" class="node">
<title>Node14</title>
<g id="a_node14"><a xlink:href="classApplication_1_1UseCases_1_1Area_1_1UpdateArea.html#a20ac2d3615af84c09df742b9b03d2e98" target="_top" xlink:title=" ">
<polygon fill="none" stroke="black" points="36,-966.5 36,-996.5 187,-996.5 187,-966.5 36,-966.5"/>
<text text-anchor="start" x="44" y="-984.5" font-family="Helvetica,sans-Serif" font-size="10.00">Application.UseCases.Area.</text>
<text text-anchor="middle" x="111.5" y="-973.5" font-family="Helvetica,sans-Serif" font-size="10.00">UpdateArea.ExecuteAsync</text>
</a>
</g>
</g>
<!-- Node1&#45;&gt;Node14 -->
<g id="edge13" class="edge">
<title>Node1&#45;&gt;Node14</title>
<path fill="none" stroke="midnightblue" d="M324.71,-834.04C307.32,-867.48 271.53,-926.72 223,-957.5 212.22,-964.33 199.8,-969.25 187.25,-972.77"/>
<polygon fill="midnightblue" stroke="midnightblue" points="327.93,-835.45 329.32,-824.94 321.68,-832.28 327.93,-835.45"/>
</g>
<!-- Node15 -->
<g id="node15" class="node">
<title>Node15</title>
<g id="a_node15"><a xlink:href="classApplication_1_1UseCases_1_1AssistanceType_1_1UpdateAssistanceType.html#adb29d403b1974b891bdc93fe109228ed" target="_top" xlink:title=" ">
<polygon fill="none" stroke="black" points="0,-917.5 0,-947.5 223,-947.5 223,-917.5 0,-917.5"/>
<text text-anchor="start" x="8" y="-935.5" font-family="Helvetica,sans-Serif" font-size="10.00">Application.UseCases.Assistance</text>
<text text-anchor="middle" x="111.5" y="-924.5" font-family="Helvetica,sans-Serif" font-size="10.00">Type.UpdateAssistanceType.ExecuteAsync</text>
</a>
</g>
</g>
<!-- Node1&#45;&gt;Node15 -->
<g id="edge14" class="edge">
<title>Node1&#45;&gt;Node15</title>
<path fill="none" stroke="midnightblue" d="M317.1,-832.09C296.21,-854.93 260.83,-889.49 223,-908.5 216.16,-911.94 208.84,-914.88 201.34,-917.41"/>
<polygon fill="midnightblue" stroke="midnightblue" points="319.8,-834.32 323.87,-824.54 314.59,-829.65 319.8,-834.32"/>
</g>
<!-- Node16 -->
<g id="node16" class="node">
<title>Node16</title>
<g id="a_node16"><a xlink:href="classApplication_1_1UseCases_1_1Course_1_1UpdateCourse.html#af2ed09e83a0aa0da9d09760718f375f6" target="_top" xlink:title=" ">
<polygon fill="none" stroke="black" points="30.5,-868.5 30.5,-898.5 192.5,-898.5 192.5,-868.5 30.5,-868.5"/>
<text text-anchor="start" x="38.5" y="-886.5" font-family="Helvetica,sans-Serif" font-size="10.00">Application.UseCases.Course.</text>
<text text-anchor="middle" x="111.5" y="-875.5" font-family="Helvetica,sans-Serif" font-size="10.00">UpdateCourse.ExecuteAsync</text>
</a>
</g>
</g>
<!-- Node1&#45;&gt;Node16 -->
<g id="edge15" class="edge">
<title>Node1&#45;&gt;Node16</title>
<path fill="none" stroke="midnightblue" d="M297.64,-828.95C276.06,-839.14 248.51,-851.21 223,-859.5 212.83,-862.81 201.97,-865.8 191.2,-868.45"/>
<polygon fill="midnightblue" stroke="midnightblue" points="299.29,-832.04 306.8,-824.56 296.26,-825.72 299.29,-832.04"/>
</g>
<!-- Node17 -->
<g id="node17" class="node">
<title>Node17</title>
<g id="a_node17"><a xlink:href="classApplication_1_1UseCases_1_1Notice_1_1UpdateNotice.html#a274f4939edb40d2449bdac6809230dec" target="_top" xlink:title=" ">
<polygon fill="none" stroke="black" points="31.5,-819.5 31.5,-849.5 191.5,-849.5 191.5,-819.5 31.5,-819.5"/>
<text text-anchor="start" x="39.5" y="-837.5" font-family="Helvetica,sans-Serif" font-size="10.00">Application.UseCases.Notice.</text>
<text text-anchor="middle" x="111.5" y="-826.5" font-family="Helvetica,sans-Serif" font-size="10.00">UpdateNotice.ExecuteAsync</text>
</a>
</g>
</g>
<!-- Node1&#45;&gt;Node17 -->
<g id="edge16" class="edge">
<title>Node1&#45;&gt;Node17</title>
<path fill="none" stroke="midnightblue" d="M248.73,-819.3C229.89,-821.4 210.09,-823.61 191.6,-825.67"/>
<polygon fill="midnightblue" stroke="midnightblue" points="249.23,-822.76 258.78,-818.17 248.46,-815.8 249.23,-822.76"/>
</g>
<!-- Node18 -->
<g id="node18" class="node">
<title>Node18</title>
<g id="a_node18"><a xlink:href="classApplication_1_1UseCases_1_1Professor_1_1UpdateProfessor.html#a8a14b059785d8547148ca0c1083d0821" target="_top" xlink:title=" ">
<polygon fill="none" stroke="black" points="25,-770.5 25,-800.5 198,-800.5 198,-770.5 25,-770.5"/>
<text text-anchor="start" x="33" y="-788.5" font-family="Helvetica,sans-Serif" font-size="10.00">Application.UseCases.Professor.</text>
<text text-anchor="middle" x="111.5" y="-777.5" font-family="Helvetica,sans-Serif" font-size="10.00">UpdateProfessor.ExecuteAsync</text>
</a>
</g>
</g>
<!-- Node1&#45;&gt;Node18 -->
<g id="edge17" class="edge">
<title>Node1&#45;&gt;Node18</title>
<path fill="none" stroke="midnightblue" d="M248.56,-800.08C231.97,-798.3 214.64,-796.44 198.11,-794.67"/>
<polygon fill="midnightblue" stroke="midnightblue" points="248.47,-803.59 258.78,-801.17 249.21,-796.63 248.47,-803.59"/>
</g>
<!-- Node19 -->
<g id="node19" class="node">
<title>Node19</title>
<g id="a_node19"><a xlink:href="classApplication_1_1UseCases_1_1ProgramType_1_1UpdateProgramType.html#a0f5d6bc44bfa0d1a6c29a957cedfa85e" target="_top" xlink:title=" ">
<polygon fill="none" stroke="black" points="5.5,-721.5 5.5,-751.5 217.5,-751.5 217.5,-721.5 5.5,-721.5"/>
<text text-anchor="start" x="13.5" y="-739.5" font-family="Helvetica,sans-Serif" font-size="10.00">Application.UseCases.Program</text>
<text text-anchor="middle" x="111.5" y="-728.5" font-family="Helvetica,sans-Serif" font-size="10.00">Type.UpdateProgramType.ExecuteAsync</text>
</a>
</g>
</g>
<!-- Node1&#45;&gt;Node19 -->
<g id="edge18" class="edge">
<title>Node1&#45;&gt;Node19</title>
<path fill="none" stroke="midnightblue" d="M295.41,-790.04C274.14,-780.5 247.55,-769.4 223,-761.5 211.58,-757.83 199.33,-754.48 187.29,-751.52"/>
<polygon fill="midnightblue" stroke="midnightblue" points="294.23,-793.35 304.79,-794.29 297.13,-786.97 294.23,-793.35"/>
</g>
<!-- Node20 -->
<g id="node20" class="node">
<title>Node20</title>
<g id="a_node20"><a xlink:href="classApplication_1_1UseCases_1_1ProjectFinalReport_1_1UpdateProjectFinalReport.html#ad52a5224b349314c0fe7dc833b3e579b" target="_top" xlink:title=" ">
<polygon fill="none" stroke="black" points="10,-661 10,-702 213,-702 213,-661 10,-661"/>
<text text-anchor="start" x="18" y="-690" font-family="Helvetica,sans-Serif" font-size="10.00">Application.UseCases.Project</text>
<text text-anchor="start" x="18" y="-679" font-family="Helvetica,sans-Serif" font-size="10.00">FinalReport.UpdateProjectFinalReport.</text>
<text text-anchor="middle" x="111.5" y="-668" font-family="Helvetica,sans-Serif" font-size="10.00">ExecuteAsync</text>
</a>
</g>
</g>
<!-- Node1&#45;&gt;Node20 -->
<g id="edge19" class="edge">
<title>Node1&#45;&gt;Node20</title>
<path fill="none" stroke="midnightblue" d="M316.07,-787.1C294.83,-765.09 259.61,-732.05 223,-712.5 215.62,-708.56 207.68,-705.08 199.58,-702.01"/>
<polygon fill="midnightblue" stroke="midnightblue" points="313.56,-789.54 322.98,-794.38 318.64,-784.72 313.56,-789.54"/>
</g>
<!-- Node21 -->
<g id="node21" class="node">
<title>Node21</title>
<g id="a_node21"><a xlink:href="classApplication_1_1UseCases_1_1Project_1_1UpdateProject.html#a7f7ebd2d14f5afeb6a633b7917c96b04" target="_top" xlink:title=" ">
<polygon fill="none" stroke="black" points="30.5,-611.5 30.5,-641.5 192.5,-641.5 192.5,-611.5 30.5,-611.5"/>
<text text-anchor="start" x="38.5" y="-629.5" font-family="Helvetica,sans-Serif" font-size="10.00">Application.UseCases.Project.</text>
<text text-anchor="middle" x="111.5" y="-618.5" font-family="Helvetica,sans-Serif" font-size="10.00">UpdateProject.ExecuteAsync</text>
</a>
</g>
</g>
<!-- Node1&#45;&gt;Node21 -->
<g id="edge20" class="edge">
<title>Node1&#45;&gt;Node21</title>
<path fill="none" stroke="midnightblue" d="M325.85,-784.91C309.23,-749.6 273.7,-685.09 223,-651.5 213.82,-645.42 203.37,-640.8 192.64,-637.29"/>
<polygon fill="midnightblue" stroke="midnightblue" points="322.69,-786.41 330.03,-794.05 329.05,-783.5 322.69,-786.41"/>
</g>
<!-- Node22 -->
<g id="node22" class="node">
<title>Node22</title>
<g id="a_node22"><a xlink:href="classApplication_1_1UseCases_1_1ProjectPartialReport_1_1UpdateProjectPartialReport.html#aee231ea712a96aa2fbf8fcf3a8b171ef" target="_top" xlink:title=" ">
<polygon fill="none" stroke="black" points="20.5,-551 20.5,-592 202.5,-592 202.5,-551 20.5,-551"/>
<text text-anchor="start" x="28.5" y="-580" font-family="Helvetica,sans-Serif" font-size="10.00">Application.UseCases.Project</text>
<text text-anchor="start" x="28.5" y="-569" font-family="Helvetica,sans-Serif" font-size="10.00">PartialReport.UpdateProjectPartial</text>
<text text-anchor="middle" x="111.5" y="-558" font-family="Helvetica,sans-Serif" font-size="10.00">Report.ExecuteAsync</text>
</a>
</g>
</g>
<!-- Node1&#45;&gt;Node22 -->
<g id="edge21" class="edge">
<title>Node1&#45;&gt;Node22</title>
<path fill="none" stroke="midnightblue" d="M329.79,-784.55C316.74,-740.92 283.77,-650.78 223,-602.5 216.84,-597.6 209.95,-593.48 202.7,-590.01"/>
<polygon fill="midnightblue" stroke="midnightblue" points="326.48,-785.71 332.61,-794.35 333.21,-783.77 326.48,-785.71"/>
</g>
<!-- Node23 -->
<g id="node23" class="node">
<title>Node23</title>
<g id="a_node23"><a xlink:href="classApplication_1_1UseCases_1_1StudentDocuments_1_1UpdateStudentDocuments.html#a0aac0be387a2a1fc200962226a06ce8b" target="_top" xlink:title=" ">
<polygon fill="none" stroke="black" points="8.5,-491 8.5,-532 214.5,-532 214.5,-491 8.5,-491"/>
<text text-anchor="start" x="16.5" y="-520" font-family="Helvetica,sans-Serif" font-size="10.00">Application.UseCases.Student</text>
<text text-anchor="start" x="16.5" y="-509" font-family="Helvetica,sans-Serif" font-size="10.00">Documents.UpdateStudentDocuments.</text>
<text text-anchor="middle" x="111.5" y="-498" font-family="Helvetica,sans-Serif" font-size="10.00">ExecuteAsync</text>
</a>
</g>
</g>
<!-- Node1&#45;&gt;Node23 -->
<g id="edge22" class="edge">
<title>Node1&#45;&gt;Node23</title>
<path fill="none" stroke="midnightblue" d="M333.25,-784.49C325.01,-731.47 298.32,-607.25 223,-541.5 218.96,-537.97 214.54,-534.85 209.87,-532.1"/>
<polygon fill="midnightblue" stroke="midnightblue" points="329.79,-785 334.7,-794.39 336.72,-783.99 329.79,-785"/>
</g>
<!-- Node24 -->
<g id="node24" class="node">
<title>Node24</title>
<g id="a_node24"><a xlink:href="classApplication_1_1UseCases_1_1Student_1_1UpdateStudent.html#a4360f5fa3462329a0e83499fbae31da2" target="_top" xlink:title=" ">
<polygon fill="none" stroke="black" points="28.5,-441.5 28.5,-471.5 194.5,-471.5 194.5,-441.5 28.5,-441.5"/>
<text text-anchor="start" x="36.5" y="-459.5" font-family="Helvetica,sans-Serif" font-size="10.00">Application.UseCases.Student.</text>
<text text-anchor="middle" x="111.5" y="-448.5" font-family="Helvetica,sans-Serif" font-size="10.00">UpdateStudent.ExecuteAsync</text>
</a>
</g>
</g>
<!-- Node1&#45;&gt;Node24 -->
<g id="edge23" class="edge">
<title>Node1&#45;&gt;Node24</title>
<path fill="none" stroke="midnightblue" d="M335.68,-784.33C332.24,-722.72 314.49,-563.39 223,-481.5 214.87,-474.22 205.07,-468.92 194.7,-465.09"/>
<polygon fill="midnightblue" stroke="midnightblue" points="332.18,-784.51 336.16,-794.34 339.18,-784.18 332.18,-784.51"/>
</g>
<!-- Node25 -->
<g id="node25" class="node">
<title>Node25</title>
<g id="a_node25"><a xlink:href="classApplication_1_1UseCases_1_1SubArea_1_1UpdateSubArea.html#a4e6e6297052a98c52167bd63ffa99dbe" target="_top" xlink:title=" ">
<polygon fill="none" stroke="black" points="17.5,-392.5 17.5,-422.5 205.5,-422.5 205.5,-392.5 17.5,-392.5"/>
<text text-anchor="start" x="25.5" y="-410.5" font-family="Helvetica,sans-Serif" font-size="10.00">Application.UseCases.Sub</text>
<text text-anchor="middle" x="111.5" y="-399.5" font-family="Helvetica,sans-Serif" font-size="10.00">Area.UpdateSubArea.ExecuteAsync</text>
</a>
</g>
</g>
<!-- Node1&#45;&gt;Node25 -->
<g id="edge24" class="edge">
<title>Node1&#45;&gt;Node25</title>
<path fill="none" stroke="midnightblue" d="M336.99,-783.93C336.82,-715.89 326.47,-528.98 223,-432.5 217.82,-427.67 211.91,-423.71 205.58,-420.46"/>
<polygon fill="midnightblue" stroke="midnightblue" points="333.49,-784.14 336.94,-794.16 340.49,-784.18 333.49,-784.14"/>
</g>
<!-- Node26 -->
<g id="node26" class="node">
<title>Node26</title>
<g id="a_node26"><a xlink:href="classApplication_1_1UseCases_1_1Project_1_1SubmitProject.html#a862824304d6ea781ee6a3f6aa8908fa1" target="_top" xlink:title=" ">
<polygon fill="none" stroke="black" points="30.5,-343.5 30.5,-373.5 192.5,-373.5 192.5,-343.5 30.5,-343.5"/>
<text text-anchor="start" x="38.5" y="-361.5" font-family="Helvetica,sans-Serif" font-size="10.00">Application.UseCases.Project.</text>
<text text-anchor="middle" x="111.5" y="-350.5" font-family="Helvetica,sans-Serif" font-size="10.00">SubmitProject.ExecuteAsync</text>
</a>
</g>
</g>
<!-- Node1&#45;&gt;Node26 -->
<g id="edge25" class="edge">
<title>Node1&#45;&gt;Node26</title>
<path fill="none" stroke="midnightblue" d="M333.24,-784.44C321.99,-701.9 282.23,-440.53 223,-383.5 214.5,-375.31 203.91,-369.59 192.69,-365.63"/>
<polygon fill="midnightblue" stroke="midnightblue" points="329.78,-785 334.58,-794.44 336.72,-784.07 329.78,-785"/>
</g>
<!-- Node27 -->
<g id="node27" class="node">
<title>Node27</title>
<g id="a_node27"><a xlink:href="classApplication_1_1UseCases_1_1Project_1_1AppealProject.html#a17198169866dee74174cf476362a125e" target="_top" xlink:title=" ">
<polygon fill="none" stroke="black" points="30.5,-294.5 30.5,-324.5 192.5,-324.5 192.5,-294.5 30.5,-294.5"/>
<text text-anchor="start" x="38.5" y="-312.5" font-family="Helvetica,sans-Serif" font-size="10.00">Application.UseCases.Project.</text>
<text text-anchor="middle" x="111.5" y="-301.5" font-family="Helvetica,sans-Serif" font-size="10.00">AppealProject.ExecuteAsync</text>
</a>
</g>
</g>
<!-- Node1&#45;&gt;Node27 -->
<g id="edge26" class="edge">
<title>Node1&#45;&gt;Node27</title>
<path fill="none" stroke="midnightblue" d="M333.95,-784.23C324.47,-695.36 288.43,-399.14 223,-334.5 214.54,-326.14 203.9,-320.33 192.59,-316.34"/>
<polygon fill="midnightblue" stroke="midnightblue" points="330.48,-784.65 335,-794.23 337.44,-783.92 330.48,-784.65"/>
</g>
<!-- Node28 -->
<g id="node28" class="node">
<title>Node28</title>
<g id="a_node28"><a xlink:href="classApplication_1_1UseCases_1_1User_1_1MakeAdmin.html#a8e22ed6162e464ed6f119bd0c5272c01" target="_top" xlink:title=" ">
<polygon fill="none" stroke="black" points="36.5,-245.5 36.5,-275.5 186.5,-275.5 186.5,-245.5 36.5,-245.5"/>
<text text-anchor="start" x="44.5" y="-263.5" font-family="Helvetica,sans-Serif" font-size="10.00">Application.UseCases.User.</text>
<text text-anchor="middle" x="111.5" y="-252.5" font-family="Helvetica,sans-Serif" font-size="10.00">MakeAdmin.ExecuteAsync</text>
</a>
</g>
</g>
<!-- Node1&#45;&gt;Node28 -->
<g id="edge27" class="edge">
<title>Node1&#45;&gt;Node28</title>
<path fill="none" stroke="midnightblue" d="M334.55,-784.15C326.75,-689.41 294.69,-357.85 223,-285.5 213.1,-275.51 200.11,-269.15 186.53,-265.17"/>
<polygon fill="midnightblue" stroke="midnightblue" points="331.07,-784.57 335.36,-794.26 338.05,-784.01 331.07,-784.57"/>
</g>
<!-- Node29 -->
<g id="node29" class="node">
<title>Node29</title>
<g id="a_node29"><a xlink:href="classApplication_1_1UseCases_1_1User_1_1MakeCoordinator.html#a2a87ccc47e461221b01a53607d76ebd2" target="_top" xlink:title="Torna o usuário um coordenador e faz com que o coordenador anterior seja desativado.">
<polygon fill="none" stroke="black" points="26.5,-196.5 26.5,-226.5 196.5,-226.5 196.5,-196.5 26.5,-196.5"/>
<text text-anchor="start" x="34.5" y="-214.5" font-family="Helvetica,sans-Serif" font-size="10.00">Application.UseCases.User.</text>
<text text-anchor="middle" x="111.5" y="-203.5" font-family="Helvetica,sans-Serif" font-size="10.00">MakeCoordinator.ExecuteAsync</text>
</a>
</g>
</g>
<!-- Node1&#45;&gt;Node29 -->
<g id="edge28" class="edge">
<title>Node1&#45;&gt;Node29</title>
<path fill="none" stroke="midnightblue" d="M335.08,-784.43C328.89,-684.57 301.07,-316.7 223,-236.5 215.66,-228.96 206.56,-223.48 196.76,-219.53"/>
<polygon fill="midnightblue" stroke="midnightblue" points="331.59,-784.73 335.68,-794.5 338.57,-784.31 331.59,-784.73"/>
</g>
<!-- Node30 -->
<g id="node30" class="node">
<title>Node30</title>
<g id="a_node30"><a xlink:href="classApplication_1_1UseCases_1_1Project_1_1OpenProject.html#a8b2fe42bad132482a4816eb3a0969750" target="_top" xlink:title=" ">
<polygon fill="none" stroke="black" points="30.5,-147.5 30.5,-177.5 192.5,-177.5 192.5,-147.5 30.5,-147.5"/>
<text text-anchor="start" x="38.5" y="-165.5" font-family="Helvetica,sans-Serif" font-size="10.00">Application.UseCases.Project.</text>
<text text-anchor="middle" x="111.5" y="-154.5" font-family="Helvetica,sans-Serif" font-size="10.00">OpenProject.ExecuteAsync</text>
</a>
</g>
</g>
<!-- Node1&#45;&gt;Node30 -->
<g id="edge29" class="edge">
<title>Node1&#45;&gt;Node30</title>
<path fill="none" stroke="midnightblue" d="M335.5,-784.35C330.78,-679.12 307.38,-275.5 223,-187.5 214.7,-178.84 204.08,-172.89 192.71,-168.84"/>
<polygon fill="midnightblue" stroke="midnightblue" points="332,-784.54 335.93,-794.38 339,-784.23 332,-784.54"/>
</g>
<!-- Node31 -->
<g id="node31" class="node">
<title>Node31</title>
<g id="a_node31"><a xlink:href="classApplication_1_1UseCases_1_1Auth_1_1ResetPassword.html#ac5ae2cc13974ce8187acdd136dab11ba" target="_top" xlink:title=" ">
<polygon fill="none" stroke="black" points="31,-98.5 31,-128.5 192,-128.5 192,-98.5 31,-98.5"/>
<text text-anchor="start" x="39" y="-116.5" font-family="Helvetica,sans-Serif" font-size="10.00">Application.UseCases.Auth.</text>
<text text-anchor="middle" x="111.5" y="-105.5" font-family="Helvetica,sans-Serif" font-size="10.00">ResetPassword.ExecuteAsync</text>
</a>
</g>
</g>
<!-- Node1&#45;&gt;Node31 -->
<g id="edge30" class="edge">
<title>Node1&#45;&gt;Node31</title>
<path fill="none" stroke="midnightblue" d="M335.86,-784.19C332.53,-673.62 313.69,-234.32 223,-138.5 214.62,-129.64 203.81,-123.61 192.25,-119.55"/>
<polygon fill="midnightblue" stroke="midnightblue" points="332.36,-784.49 336.15,-794.39 339.36,-784.29 332.36,-784.49"/>
</g>
<!-- Node32 -->
<g id="node32" class="node">
<title>Node32</title>
<g id="a_node32"><a xlink:href="classApplication_1_1UseCases_1_1User_1_1UpdateUser.html#aea0ae3dc06aca1d7f3ea9d08443284ac" target="_top" xlink:title=" ">
<polygon fill="none" stroke="black" points="36.5,-49.5 36.5,-79.5 186.5,-79.5 186.5,-49.5 36.5,-49.5"/>
<text text-anchor="start" x="44.5" y="-67.5" font-family="Helvetica,sans-Serif" font-size="10.00">Application.UseCases.User.</text>
<text text-anchor="middle" x="111.5" y="-56.5" font-family="Helvetica,sans-Serif" font-size="10.00">UpdateUser.ExecuteAsync</text>
</a>
</g>
</g>
<!-- Node1&#45;&gt;Node32 -->
<g id="edge31" class="edge">
<title>Node1&#45;&gt;Node32</title>
<path fill="none" stroke="midnightblue" d="M336.18,-784.2C334.17,-668.77 320.07,-193.21 223,-89.5 213.32,-79.16 200.35,-72.66 186.7,-68.66"/>
<polygon fill="midnightblue" stroke="midnightblue" points="332.68,-784.28 336.33,-794.22 339.68,-784.17 332.68,-784.28"/>
</g>
<!-- Node33 -->
<g id="node33" class="node">
<title>Node33</title>
<g id="a_node33"><a xlink:href="classUseCaseException.html#a1b9fe11bd42198a32a7c74d338969a50" target="_top" xlink:title=" ">
<polygon fill="none" stroke="black" points="33,-0.5 33,-30.5 190,-30.5 190,-0.5 33,-0.5"/>
<text text-anchor="start" x="41" y="-18.5" font-family="Helvetica,sans-Serif" font-size="10.00">UseCaseException.NotFound</text>
<text text-anchor="middle" x="111.5" y="-7.5" font-family="Helvetica,sans-Serif" font-size="10.00">EntityById</text>
</a>
</g>
</g>
<!-- Node1&#45;&gt;Node33 -->
<g id="edge32" class="edge">
<title>Node1&#45;&gt;Node33</title>
<path fill="none" stroke="midnightblue" d="M336.46,-784.43C335.73,-664.7 326.52,-152.2 223,-40.5 214.18,-30.98 202.56,-24.71 190.17,-20.64"/>
<polygon fill="midnightblue" stroke="midnightblue" points="332.96,-784.49 336.5,-794.47 339.96,-784.46 332.96,-784.49"/>
</g>
</g>
</svg>
