<?xml version="1.0" encoding="UTF-8" standalone="no"?>
<!DOCTYPE svg PUBLIC "-//W3C//DTD SVG 1.1//EN"
 "http://www.w3.org/Graphics/SVG/1.1/DTD/svg11.dtd">
<!-- Generated by graphviz version 2.43.0 (0)
 -->
<!-- Title: Persistence.Repositories.MainAreaRepository.DeleteAsync Pages: 1 -->
<svg width="408pt" height="137pt"
 viewBox="0.00 0.00 408.00 137.00" xmlns="http://www.w3.org/2000/svg" xmlns:xlink="http://www.w3.org/1999/xlink">
<g id="graph0" class="graph" transform="scale(1 1) rotate(0) translate(4 133)">
<title>Persistence.Repositories.MainAreaRepository.DeleteAsync</title>
<!-- Node1 -->
<g id="node1" class="node">
<title>Node1</title>
<g id="a_node1"><a xlink:title=" ">
<polygon fill="#bfbfbf" stroke="black" points="0,-49.5 0,-79.5 179,-79.5 179,-49.5 0,-49.5"/>
<text text-anchor="start" x="8" y="-67.5" font-family="Helvetica,sans-Serif" font-size="10.00">Persistence.Repositories.</text>
<text text-anchor="middle" x="89.5" y="-56.5" font-family="Helvetica,sans-Serif" font-size="10.00">MainAreaRepository.DeleteAsync</text>
</a>
</g>
</g>
<!-- Node2 -->
<g id="node2" class="node">
<title>Node2</title>
<g id="a_node2"><a xlink:href="classDomain_1_1Entities_1_1Primitives_1_1Entity.html#a3a368e3c302f8622ea0305003ef2a5eb" target="_top" xlink:title=" ">
<polygon fill="none" stroke="black" points="232.5,-98.5 232.5,-128.5 382.5,-128.5 382.5,-98.5 232.5,-98.5"/>
<text text-anchor="start" x="240.5" y="-116.5" font-family="Helvetica,sans-Serif" font-size="10.00">Domain.Entities.Primitives.</text>
<text text-anchor="middle" x="307.5" y="-105.5" font-family="Helvetica,sans-Serif" font-size="10.00">Entity.DeactivateEntity</text>
</a>
</g>
</g>
<!-- Node1&#45;&gt;Node2 -->
<g id="edge1" class="edge">
<title>Node1&#45;&gt;Node2</title>
<path fill="none" stroke="midnightblue" d="M156.78,-79.53C180.1,-84.83 206.49,-90.81 230.55,-96.27"/>
<polygon fill="midnightblue" stroke="midnightblue" points="229.82,-99.69 240.35,-98.49 231.37,-92.87 229.82,-99.69"/>
</g>
<!-- Node3 -->
<g id="node3" class="node">
<title>Node3</title>
<g id="a_node3"><a xlink:href="classPersistence_1_1Repositories_1_1MainAreaRepository.html#a671ff92d9e2054e8b03eb4fc3429d95b" target="_top" xlink:title=" ">
<polygon fill="none" stroke="black" points="215,-49.5 215,-79.5 400,-79.5 400,-49.5 215,-49.5"/>
<text text-anchor="start" x="223" y="-67.5" font-family="Helvetica,sans-Serif" font-size="10.00">Persistence.Repositories.</text>
<text text-anchor="middle" x="307.5" y="-56.5" font-family="Helvetica,sans-Serif" font-size="10.00">MainAreaRepository.GetByIdAsync</text>
</a>
</g>
</g>
<!-- Node1&#45;&gt;Node3 -->
<g id="edge2" class="edge">
<title>Node1&#45;&gt;Node3</title>
<path fill="none" stroke="midnightblue" d="M179.29,-64.5C187.74,-64.5 196.35,-64.5 204.9,-64.5"/>
<polygon fill="midnightblue" stroke="midnightblue" points="204.91,-68 214.91,-64.5 204.91,-61 204.91,-68"/>
</g>
<!-- Node4 -->
<g id="node4" class="node">
<title>Node4</title>
<g id="a_node4"><a xlink:href="classPersistence_1_1Repositories_1_1MainAreaRepository.html#a6952915247ccc369f2a80e160150120b" target="_top" xlink:title=" ">
<polygon fill="none" stroke="black" points="216.5,-0.5 216.5,-30.5 398.5,-30.5 398.5,-0.5 216.5,-0.5"/>
<text text-anchor="start" x="224.5" y="-18.5" font-family="Helvetica,sans-Serif" font-size="10.00">Persistence.Repositories.</text>
<text text-anchor="middle" x="307.5" y="-7.5" font-family="Helvetica,sans-Serif" font-size="10.00">MainAreaRepository.UpdateAsync</text>
</a>
</g>
</g>
<!-- Node1&#45;&gt;Node4 -->
<g id="edge3" class="edge">
<title>Node1&#45;&gt;Node4</title>
<path fill="none" stroke="midnightblue" d="M156.78,-49.47C180.1,-44.17 206.49,-38.19 230.55,-32.73"/>
<polygon fill="midnightblue" stroke="midnightblue" points="231.37,-36.13 240.35,-30.51 229.82,-29.31 231.37,-36.13"/>
</g>
</g>
</svg>
