<?xml version="1.0" encoding="UTF-8" standalone="no"?>
<!DOCTYPE svg PUBLIC "-//W3C//DTD SVG 1.1//EN"
 "http://www.w3.org/Graphics/SVG/1.1/DTD/svg11.dtd">
<!-- Generated by graphviz version 2.43.0 (0)
 -->
<!-- Title: Domain.Entities.User.ConfirmUserEmail Pages: 1 -->
<svg width="559pt" height="39pt"
 viewBox="0.00 0.00 559.00 39.00" xmlns="http://www.w3.org/2000/svg" xmlns:xlink="http://www.w3.org/1999/xlink">
<g id="graph0" class="graph" transform="scale(1 1) rotate(0) translate(4 35)">
<title>Domain.Entities.User.ConfirmUserEmail</title>
<!-- Node1 -->
<g id="node1" class="node">
<title>Node1</title>
<g id="a_node1"><a xlink:title=" ">
<polygon fill="#bfbfbf" stroke="black" points="0,-0.5 0,-30.5 161,-30.5 161,-0.5 0,-0.5"/>
<text text-anchor="start" x="8" y="-18.5" font-family="Helvetica,sans-Serif" font-size="10.00">Domain.Entities.User.Confirm</text>
<text text-anchor="middle" x="80.5" y="-7.5" font-family="Helvetica,sans-Serif" font-size="10.00">UserEmail</text>
</a>
</g>
</g>
<!-- Node2 -->
<g id="node2" class="node">
<title>Node2</title>
<g id="a_node2"><a xlink:href="classEntityExceptionValidation.html#a8c2e517876998fa3e3789c61477dc437" target="_top" xlink:title=" ">
<polygon fill="none" stroke="black" points="197,-6 197,-25 370,-25 370,-6 197,-6"/>
<text text-anchor="middle" x="283.5" y="-13" font-family="Helvetica,sans-Serif" font-size="10.00">EntityExceptionValidation.When</text>
</a>
</g>
</g>
<!-- Node1&#45;&gt;Node2 -->
<g id="edge1" class="edge">
<title>Node1&#45;&gt;Node2</title>
<path fill="none" stroke="midnightblue" d="M161.23,-15.5C169.66,-15.5 178.29,-15.5 186.88,-15.5"/>
<polygon fill="midnightblue" stroke="midnightblue" points="186.92,-19 196.92,-15.5 186.92,-12 186.92,-19"/>
</g>
<!-- Node3 -->
<g id="node3" class="node">
<title>Node3</title>
<g id="a_node3"><a xlink:href="classEntityExceptionValidation.html#a41811f98de590f436cdf3d8d1327fd5b" target="_top" xlink:title=" ">
<polygon fill="none" stroke="black" points="406,-0.5 406,-30.5 551,-30.5 551,-0.5 406,-0.5"/>
<text text-anchor="start" x="414" y="-18.5" font-family="Helvetica,sans-Serif" font-size="10.00">EntityExceptionValidation.</text>
<text text-anchor="middle" x="478.5" y="-7.5" font-family="Helvetica,sans-Serif" font-size="10.00">EntityExceptionValidation</text>
</a>
</g>
</g>
<!-- Node2&#45;&gt;Node3 -->
<g id="edge2" class="edge">
<title>Node2&#45;&gt;Node3</title>
<path fill="none" stroke="midnightblue" d="M370.28,-15.5C378.72,-15.5 387.28,-15.5 395.68,-15.5"/>
<polygon fill="midnightblue" stroke="midnightblue" points="395.84,-19 405.84,-15.5 395.84,-12 395.84,-19"/>
</g>
</g>
</svg>
