<?xml version="1.0" encoding="UTF-8" standalone="no"?>
<!DOCTYPE svg PUBLIC "-//W3C//DTD SVG 1.1//EN"
 "http://www.w3.org/Graphics/SVG/1.1/DTD/svg11.dtd">
<!-- Generated by graphviz version 2.43.0 (0)
 -->
<!-- Title: Application.Ports.Professor.BaseProfessorContract Pages: 1 -->
<svg width="360pt" height="186pt"
 viewBox="0.00 0.00 360.00 186.00" xmlns="http://www.w3.org/2000/svg" xmlns:xlink="http://www.w3.org/1999/xlink">
<g id="graph0" class="graph" transform="scale(1 1) rotate(0) translate(4 182)">
<title>Application.Ports.Professor.BaseProfessorContract</title>
<!-- Node1 -->
<g id="node1" class="node">
<title>Node1</title>
<g id="a_node1"><a xlink:title=" ">
<polygon fill="#bfbfbf" stroke="black" points="0,-73.5 0,-103.5 150,-103.5 150,-73.5 0,-73.5"/>
<text text-anchor="start" x="8" y="-91.5" font-family="Helvetica,sans-Serif" font-size="10.00">Application.Ports.Professor.</text>
<text text-anchor="middle" x="75" y="-80.5" font-family="Helvetica,sans-Serif" font-size="10.00">BaseProfessorContract</text>
</a>
</g>
</g>
<!-- Node2 -->
<g id="node2" class="node">
<title>Node2</title>
<g id="a_node2"><a xlink:href="classApplication_1_1Ports_1_1Professor_1_1CreateProfessorInput.html" target="_top" xlink:title=" ">
<polygon fill="none" stroke="black" points="194,-147.5 194,-177.5 344,-177.5 344,-147.5 194,-147.5"/>
<text text-anchor="start" x="202" y="-165.5" font-family="Helvetica,sans-Serif" font-size="10.00">Application.Ports.Professor.</text>
<text text-anchor="middle" x="269" y="-154.5" font-family="Helvetica,sans-Serif" font-size="10.00">CreateProfessorInput</text>
</a>
</g>
</g>
<!-- Node1&#45;&gt;Node2 -->
<g id="edge1" class="edge">
<title>Node1&#45;&gt;Node2</title>
<path fill="none" stroke="midnightblue" d="M115.45,-108.08C136.16,-117.93 162.13,-129.63 186,-138.5 194.48,-141.65 203.58,-144.66 212.51,-147.42"/>
<polygon fill="midnightblue" stroke="midnightblue" points="116.86,-104.87 106.33,-103.7 113.83,-111.18 116.86,-104.87"/>
</g>
<!-- Node3 -->
<g id="node3" class="node">
<title>Node3</title>
<g id="a_node3"><a xlink:href="classApplication_1_1Ports_1_1Professor_1_1DetailedReadProfessorOutput.html" target="_top" xlink:title=" ">
<polygon fill="none" stroke="black" points="188.5,-98.5 188.5,-128.5 349.5,-128.5 349.5,-98.5 188.5,-98.5"/>
<text text-anchor="start" x="196.5" y="-116.5" font-family="Helvetica,sans-Serif" font-size="10.00">Application.Ports.Professor.</text>
<text text-anchor="middle" x="269" y="-105.5" font-family="Helvetica,sans-Serif" font-size="10.00">DetailedReadProfessorOutput</text>
</a>
</g>
</g>
<!-- Node1&#45;&gt;Node3 -->
<g id="edge2" class="edge">
<title>Node1&#45;&gt;Node3</title>
<path fill="none" stroke="midnightblue" d="M160.25,-99.47C169.55,-100.68 178.99,-101.91 188.24,-103.11"/>
<polygon fill="midnightblue" stroke="midnightblue" points="160.6,-95.99 150.23,-98.17 159.7,-102.93 160.6,-95.99"/>
</g>
<!-- Node4 -->
<g id="node4" class="node">
<title>Node4</title>
<g id="a_node4"><a xlink:href="classApplication_1_1Ports_1_1Professor_1_1ResumedReadProfessorOutput.html" target="_top" xlink:title=" ">
<polygon fill="none" stroke="black" points="186,-49.5 186,-79.5 352,-79.5 352,-49.5 186,-49.5"/>
<text text-anchor="start" x="194" y="-67.5" font-family="Helvetica,sans-Serif" font-size="10.00">Application.Ports.Professor.</text>
<text text-anchor="middle" x="269" y="-56.5" font-family="Helvetica,sans-Serif" font-size="10.00">ResumedReadProfessorOutput</text>
</a>
</g>
</g>
<!-- Node1&#45;&gt;Node4 -->
<g id="edge3" class="edge">
<title>Node1&#45;&gt;Node4</title>
<path fill="none" stroke="midnightblue" d="M160.21,-77.97C168.77,-76.9 177.46,-75.82 185.99,-74.75"/>
<polygon fill="midnightblue" stroke="midnightblue" points="159.72,-74.51 150.23,-79.22 160.59,-81.45 159.72,-74.51"/>
</g>
<!-- Node5 -->
<g id="node5" class="node">
<title>Node5</title>
<g id="a_node5"><a xlink:href="classApplication_1_1Ports_1_1Professor_1_1UpdateProfessorInput.html" target="_top" xlink:title=" ">
<polygon fill="none" stroke="black" points="194,-0.5 194,-30.5 344,-30.5 344,-0.5 194,-0.5"/>
<text text-anchor="start" x="202" y="-18.5" font-family="Helvetica,sans-Serif" font-size="10.00">Application.Ports.Professor.</text>
<text text-anchor="middle" x="269" y="-7.5" font-family="Helvetica,sans-Serif" font-size="10.00">UpdateProfessorInput</text>
</a>
</g>
</g>
<!-- Node1&#45;&gt;Node5 -->
<g id="edge4" class="edge">
<title>Node1&#45;&gt;Node5</title>
<path fill="none" stroke="midnightblue" d="M117.19,-69.18C137.65,-59.93 162.88,-49.04 186,-40.5 195.35,-37.05 205.43,-33.69 215.21,-30.61"/>
<polygon fill="midnightblue" stroke="midnightblue" points="115.5,-66.1 107.85,-73.44 118.4,-72.47 115.5,-66.1"/>
</g>
</g>
</svg>
