<?xml version="1.0" encoding="UTF-8" standalone="no"?>
<!DOCTYPE svg PUBLIC "-//W3C//DTD SVG 1.1//EN"
 "http://www.w3.org/Graphics/SVG/1.1/DTD/svg11.dtd">
<!-- Generated by graphviz version 8.1.0 (20230707.0739)
 -->
<!-- Title: src.infra.external_services.text_recognition_service.TextRecognitionService Pages: 1 -->
<svg width="449pt" height="50pt"
 viewBox="0.00 0.00 449.00 49.75" xmlns="http://www.w3.org/2000/svg" xmlns:xlink="http://www.w3.org/1999/xlink">
<g id="graph0" class="graph" transform="scale(1 1) rotate(0) translate(4 45.75)">
<title>src.infra.external_services.text_recognition_service.TextRecognitionService</title>
<!-- Node1 -->
<g id="Node000001" class="node">
<title>Node1</title>
<g id="a_Node000001"><a xlink:title=" ">
<polygon fill="#999999" stroke="#666666" points="441,-41.75 281.75,-41.75 281.75,0 441,0 441,-41.75"/>
<text text-anchor="start" x="289.75" y="-28.25" font-family="Helvetica,sans-Serif" font-size="10.00">src.infra.external</text>
<text text-anchor="start" x="289.75" y="-17" font-family="Helvetica,sans-Serif" font-size="10.00">_services.text_recognition</text>
<text text-anchor="middle" x="361.38" y="-5.75" font-family="Helvetica,sans-Serif" font-size="10.00">_service.TextRecognitionService</text>
</a>
</g>
</g>
<!-- Node2 -->
<g id="Node000002" class="node">
<title>Node2</title>
<g id="a_Node000002"><a xlink:href="classsrc_1_1domain_1_1interfaces_1_1services_1_1text__recognition__service__interface_1_1_i_text_recognition_service.html" target="_top" xlink:title=" ">
<polygon fill="white" stroke="#666666" points="245.75,-41.75 73,-41.75 73,0 245.75,0 245.75,-41.75"/>
<text text-anchor="start" x="81" y="-28.25" font-family="Helvetica,sans-Serif" font-size="10.00">src.domain.interfaces.services.text</text>
<text text-anchor="start" x="81" y="-17" font-family="Helvetica,sans-Serif" font-size="10.00">_recognition_service_interface.IText</text>
<text text-anchor="middle" x="159.38" y="-5.75" font-family="Helvetica,sans-Serif" font-size="10.00">RecognitionService</text>
</a>
</g>
</g>
<!-- Node2&#45;&gt;Node1 -->
<g id="edge1_Node000001_Node000002" class="edge">
<title>Node2&#45;&gt;Node1</title>
<g id="a_edge1_Node000001_Node000002"><a xlink:title=" ">
<path fill="none" stroke="#63b8ff" d="M256.88,-20.88C265.13,-20.88 273.42,-20.88 281.51,-20.88"/>
<polygon fill="#63b8ff" stroke="#63b8ff" points="257.06,-17.38 247.06,-20.88 257.06,-24.38 257.06,-17.38"/>
</a>
</g>
</g>
<!-- Node3 -->
<g id="Node000003" class="node">
<title>Node3</title>
<g id="a_Node000003"><a xlink:title=" ">
<polygon fill="white" stroke="#666666" points="37,-30.5 0,-30.5 0,-11.25 37,-11.25 37,-30.5"/>
<text text-anchor="middle" x="18.5" y="-17" font-family="Helvetica,sans-Serif" font-size="10.00">ABC</text>
</a>
</g>
</g>
<!-- Node3&#45;&gt;Node2 -->
<g id="edge2_Node000002_Node000003" class="edge">
<title>Node3&#45;&gt;Node2</title>
<g id="a_edge2_Node000002_Node000003"><a xlink:title=" ">
<path fill="none" stroke="#63b8ff" d="M48.16,-20.88C55.58,-20.88 63.97,-20.88 72.72,-20.88"/>
<polygon fill="#63b8ff" stroke="#63b8ff" points="48.37,-17.38 38.37,-20.88 48.37,-24.38 48.37,-17.38"/>
</a>
</g>
</g>
</g>
</svg>
