<?xml version="1.0" encoding="UTF-8" standalone="no"?>
<!DOCTYPE svg PUBLIC "-//W3C//DTD SVG 1.1//EN"
 "http://www.w3.org/Graphics/SVG/1.1/DTD/svg11.dtd">
<!-- Generated by graphviz version 9.0.0 (20230911.1827)
 -->
<!-- Title: Persistence.Repositories.ProgramTypeRepository.DeleteAsync Pages: 1 -->
<svg width="409pt" height="137pt"
 viewBox="0.00 0.00 409.00 136.50" xmlns="http://www.w3.org/2000/svg" xmlns:xlink="http://www.w3.org/1999/xlink">
<g id="graph0" class="graph" transform="scale(1 1) rotate(0) translate(4 132.5)">
<title>Persistence.Repositories.ProgramTypeRepository.DeleteAsync</title>
<!-- Node1 -->
<g id="Node000001" class="node">
<title>Node1</title>
<g id="a_Node000001"><a xlink:title=" ">
<polygon fill="#999999" stroke="#666666" points="178.75,-79.5 0,-79.5 0,-49 178.75,-49 178.75,-79.5"/>
<text text-anchor="start" x="8" y="-66" font-family="Helvetica,sans-Serif" font-size="10.00">Persistence.Repositories.</text>
<text text-anchor="middle" x="89.38" y="-54.75" font-family="Helvetica,sans-Serif" font-size="10.00">ProgramTypeRepository.DeleteAsync</text>
</a>
</g>
</g>
<!-- Node2 -->
<g id="Node000002" class="node">
<title>Node2</title>
<g id="a_Node000002"><a xlink:href="class_domain_1_1_entities_1_1_primitives_1_1_entity.html#a3a368e3c302f8622ea0305003ef2a5eb" target="_top" xlink:title=" ">
<polygon fill="white" stroke="#666666" points="375.5,-128.5 240.25,-128.5 240.25,-98 375.5,-98 375.5,-128.5"/>
<text text-anchor="start" x="248.25" y="-115" font-family="Helvetica,sans-Serif" font-size="10.00">Domain.Entities.Primitives.</text>
<text text-anchor="middle" x="307.88" y="-103.75" font-family="Helvetica,sans-Serif" font-size="10.00">Entity.DeactivateEntity</text>
</a>
</g>
</g>
<!-- Node1&#45;&gt;Node2 -->
<g id="edge1_Node000001_Node000002" class="edge">
<title>Node1&#45;&gt;Node2</title>
<g id="a_edge1_Node000001_Node000002"><a xlink:title=" ">
<path fill="none" stroke="#63b8ff" d="M159.77,-79.96C181.88,-84.96 206.48,-90.53 229.14,-95.66"/>
<polygon fill="#63b8ff" stroke="#63b8ff" points="228.08,-99.01 238.61,-97.8 229.63,-92.18 228.08,-99.01"/>
</a>
</g>
</g>
<!-- Node3 -->
<g id="Node000003" class="node">
<title>Node3</title>
<g id="a_Node000003"><a xlink:href="class_persistence_1_1_repositories_1_1_program_type_repository.html#a0c8f1888b1d8e023f06ca6e5f313f79c" target="_top" xlink:title=" ">
<polygon fill="white" stroke="#666666" points="401,-79.5 214.75,-79.5 214.75,-49 401,-49 401,-79.5"/>
<text text-anchor="start" x="222.75" y="-66" font-family="Helvetica,sans-Serif" font-size="10.00">Persistence.Repositories.</text>
<text text-anchor="middle" x="307.88" y="-54.75" font-family="Helvetica,sans-Serif" font-size="10.00">ProgramTypeRepository.GetByIdAsync</text>
</a>
</g>
</g>
<!-- Node1&#45;&gt;Node3 -->
<g id="edge2_Node000001_Node000003" class="edge">
<title>Node1&#45;&gt;Node3</title>
<g id="a_edge2_Node000001_Node000003"><a xlink:title=" ">
<path fill="none" stroke="#63b8ff" d="M179.06,-64.25C187,-64.25 195.08,-64.25 203.13,-64.25"/>
<polygon fill="#63b8ff" stroke="#63b8ff" points="202.95,-67.75 212.95,-64.25 202.95,-60.75 202.95,-67.75"/>
</a>
</g>
</g>
<!-- Node4 -->
<g id="Node000004" class="node">
<title>Node4</title>
<g id="a_Node000004"><a xlink:href="class_persistence_1_1_repositories_1_1_program_type_repository.html#a264f728dca0e4f3dcc0c5bd055fee0be" target="_top" xlink:title=" ">
<polygon fill="white" stroke="#666666" points="398.75,-30.5 217,-30.5 217,0 398.75,0 398.75,-30.5"/>
<text text-anchor="start" x="225" y="-17" font-family="Helvetica,sans-Serif" font-size="10.00">Persistence.Repositories.</text>
<text text-anchor="middle" x="307.88" y="-5.75" font-family="Helvetica,sans-Serif" font-size="10.00">ProgramTypeRepository.UpdateAsync</text>
</a>
</g>
</g>
<!-- Node1&#45;&gt;Node4 -->
<g id="edge3_Node000001_Node000004" class="edge">
<title>Node1&#45;&gt;Node4</title>
<g id="a_edge3_Node000001_Node000004"><a xlink:title=" ">
<path fill="none" stroke="#63b8ff" d="M159.77,-48.54C181.04,-43.73 204.61,-38.4 226.54,-33.43"/>
<polygon fill="#63b8ff" stroke="#63b8ff" points="227.04,-36.91 236.03,-31.29 225.5,-30.08 227.04,-36.91"/>
</a>
</g>
</g>
</g>
</svg>
