<?xml version="1.0" encoding="UTF-8" standalone="no"?>
<!DOCTYPE svg PUBLIC "-//W3C//DTD SVG 1.1//EN"
 "http://www.w3.org/Graphics/SVG/1.1/DTD/svg11.dtd">
<!-- Generated by graphviz version 2.43.0 (0)
 -->
<!-- Title: Application.UseCases.User.UpdateUser.ExecuteAsync Pages: 1 -->
<svg width="555pt" height="88pt"
 viewBox="0.00 0.00 555.00 88.00" xmlns="http://www.w3.org/2000/svg" xmlns:xlink="http://www.w3.org/1999/xlink">
<g id="graph0" class="graph" transform="scale(1 1) rotate(0) translate(4 84)">
<title>Application.UseCases.User.UpdateUser.ExecuteAsync</title>
<!-- Node1 -->
<g id="node1" class="node">
<title>Node1</title>
<g id="a_node1"><a xlink:title=" ">
<polygon fill="#bfbfbf" stroke="black" points="0,-24.5 0,-54.5 150,-54.5 150,-24.5 0,-24.5"/>
<text text-anchor="start" x="8" y="-42.5" font-family="Helvetica,sans-Serif" font-size="10.00">Application.UseCases.User.</text>
<text text-anchor="middle" x="75" y="-31.5" font-family="Helvetica,sans-Serif" font-size="10.00">UpdateUser.ExecuteAsync</text>
</a>
</g>
</g>
<!-- Node2 -->
<g id="node2" class="node">
<title>Node2</title>
<g id="a_node2"><a xlink:href="classUseCaseException.html#aa86fbeb3981a2470230c0e0fefbe67fa" target="_top" xlink:title=" ">
<polygon fill="none" stroke="black" points="193.5,-49.5 193.5,-79.5 350.5,-79.5 350.5,-49.5 193.5,-49.5"/>
<text text-anchor="start" x="201.5" y="-67.5" font-family="Helvetica,sans-Serif" font-size="10.00">UseCaseException.NotFound</text>
<text text-anchor="middle" x="272" y="-56.5" font-family="Helvetica,sans-Serif" font-size="10.00">EntityById</text>
</a>
</g>
</g>
<!-- Node1&#45;&gt;Node2 -->
<g id="edge1" class="edge">
<title>Node1&#45;&gt;Node2</title>
<path fill="none" stroke="midnightblue" d="M150.28,-49.02C161.07,-50.41 172.27,-51.84 183.3,-53.26"/>
<polygon fill="midnightblue" stroke="midnightblue" points="183,-56.75 193.37,-54.55 183.89,-49.8 183,-56.75"/>
</g>
<!-- Node3 -->
<g id="node3" class="node">
<title>Node3</title>
<g id="a_node3"><a xlink:href="classUseCaseException.html#ab8fc31932179b877a356417d1dd37b56" target="_top" xlink:title=" ">
<polygon fill="none" stroke="black" points="186,-0.5 186,-30.5 358,-30.5 358,-0.5 186,-0.5"/>
<text text-anchor="start" x="194" y="-18.5" font-family="Helvetica,sans-Serif" font-size="10.00">UseCaseException.NotInformed</text>
<text text-anchor="middle" x="272" y="-7.5" font-family="Helvetica,sans-Serif" font-size="10.00">Param</text>
</a>
</g>
</g>
<!-- Node1&#45;&gt;Node3 -->
<g id="edge2" class="edge">
<title>Node1&#45;&gt;Node3</title>
<path fill="none" stroke="midnightblue" d="M150.28,-30.36C158.63,-29.33 167.23,-28.27 175.8,-27.22"/>
<polygon fill="midnightblue" stroke="midnightblue" points="176.34,-30.68 185.84,-25.98 175.49,-23.73 176.34,-30.68"/>
</g>
<!-- Node4 -->
<g id="node4" class="node">
<title>Node4</title>
<g id="a_node4"><a xlink:href="classUseCaseException.html#a1368420a98033f26e4493a4bd8de7df9" target="_top" xlink:title=" ">
<polygon fill="none" stroke="black" points="394,-0.5 394,-30.5 547,-30.5 547,-0.5 394,-0.5"/>
<text text-anchor="start" x="402" y="-18.5" font-family="Helvetica,sans-Serif" font-size="10.00">UseCaseException.UseCase</text>
<text text-anchor="middle" x="470.5" y="-7.5" font-family="Helvetica,sans-Serif" font-size="10.00">Exception</text>
</a>
</g>
</g>
<!-- Node3&#45;&gt;Node4 -->
<g id="edge3" class="edge">
<title>Node3&#45;&gt;Node4</title>
<path fill="none" stroke="midnightblue" d="M358.04,-15.5C366.53,-15.5 375.14,-15.5 383.63,-15.5"/>
<polygon fill="midnightblue" stroke="midnightblue" points="383.9,-19 393.9,-15.5 383.9,-12 383.9,-19"/>
</g>
</g>
</svg>
