<?xml version="1.0" encoding="UTF-8" standalone="no"?>
<!DOCTYPE svg PUBLIC "-//W3C//DTD SVG 1.1//EN"
 "http://www.w3.org/Graphics/SVG/1.1/DTD/svg11.dtd">
<!-- Generated by graphviz version 2.43.0 (0)
 -->
<!-- Title: Application.UseCases.ProgramType.DeleteProgramType.ExecuteAsync Pages: 1 -->
<svg width="614pt" height="39pt"
 viewBox="0.00 0.00 614.00 39.00" xmlns="http://www.w3.org/2000/svg" xmlns:xlink="http://www.w3.org/1999/xlink">
<g id="graph0" class="graph" transform="scale(1 1) rotate(0) translate(4 35)">
<title>Application.UseCases.ProgramType.DeleteProgramType.ExecuteAsync</title>
<!-- Node1 -->
<g id="node1" class="node">
<title>Node1</title>
<g id="a_node1"><a xlink:title=" ">
<polygon fill="#bfbfbf" stroke="black" points="0,-0.5 0,-30.5 209,-30.5 209,-0.5 0,-0.5"/>
<text text-anchor="start" x="8" y="-18.5" font-family="Helvetica,sans-Serif" font-size="10.00">Application.UseCases.Program</text>
<text text-anchor="middle" x="104.5" y="-7.5" font-family="Helvetica,sans-Serif" font-size="10.00">Type.DeleteProgramType.ExecuteAsync</text>
</a>
</g>
</g>
<!-- Node2 -->
<g id="node2" class="node">
<title>Node2</title>
<g id="a_node2"><a xlink:href="classUseCaseException.html#ab8fc31932179b877a356417d1dd37b56" target="_top" xlink:title=" ">
<polygon fill="none" stroke="black" points="245,-0.5 245,-30.5 417,-30.5 417,-0.5 245,-0.5"/>
<text text-anchor="start" x="253" y="-18.5" font-family="Helvetica,sans-Serif" font-size="10.00">UseCaseException.NotInformed</text>
<text text-anchor="middle" x="331" y="-7.5" font-family="Helvetica,sans-Serif" font-size="10.00">Param</text>
</a>
</g>
</g>
<!-- Node1&#45;&gt;Node2 -->
<g id="edge1" class="edge">
<title>Node1&#45;&gt;Node2</title>
<path fill="none" stroke="midnightblue" d="M209.21,-15.5C217.7,-15.5 226.26,-15.5 234.69,-15.5"/>
<polygon fill="midnightblue" stroke="midnightblue" points="234.9,-19 244.9,-15.5 234.9,-12 234.9,-19"/>
</g>
<!-- Node3 -->
<g id="node3" class="node">
<title>Node3</title>
<g id="a_node3"><a xlink:href="classUseCaseException.html#a1368420a98033f26e4493a4bd8de7df9" target="_top" xlink:title=" ">
<polygon fill="none" stroke="black" points="453,-0.5 453,-30.5 606,-30.5 606,-0.5 453,-0.5"/>
<text text-anchor="start" x="461" y="-18.5" font-family="Helvetica,sans-Serif" font-size="10.00">UseCaseException.UseCase</text>
<text text-anchor="middle" x="529.5" y="-7.5" font-family="Helvetica,sans-Serif" font-size="10.00">Exception</text>
</a>
</g>
</g>
<!-- Node2&#45;&gt;Node3 -->
<g id="edge2" class="edge">
<title>Node2&#45;&gt;Node3</title>
<path fill="none" stroke="midnightblue" d="M417.04,-15.5C425.53,-15.5 434.14,-15.5 442.63,-15.5"/>
<polygon fill="midnightblue" stroke="midnightblue" points="442.9,-19 452.9,-15.5 442.9,-12 442.9,-19"/>
</g>
</g>
</svg>
