<?xml version="1.0" encoding="UTF-8" standalone="no"?>
<!DOCTYPE svg PUBLIC "-//W3C//DTD SVG 1.1//EN"
 "http://www.w3.org/Graphics/SVG/1.1/DTD/svg11.dtd">
<!-- Generated by graphviz version 9.0.0 (20230911.1827)
 -->
<!-- Title: Application.UseCases.AssistanceType.DeleteAssistanceType.ExecuteAsync Pages: 1 -->
<svg width="624pt" height="39pt"
 viewBox="0.00 0.00 623.75 38.50" xmlns="http://www.w3.org/2000/svg" xmlns:xlink="http://www.w3.org/1999/xlink">
<g id="graph0" class="graph" transform="scale(1 1) rotate(0) translate(4 34.5)">
<title>Application.UseCases.AssistanceType.DeleteAssistanceType.ExecuteAsync</title>
<!-- Node1 -->
<g id="Node000001" class="node">
<title>Node1</title>
<g id="a_Node000001"><a xlink:title=" ">
<polygon fill="#999999" stroke="#666666" points="205,-30.5 0,-30.5 0,0 205,0 205,-30.5"/>
<text text-anchor="start" x="8" y="-17" font-family="Helvetica,sans-Serif" font-size="10.00">Application.UseCases.Assistance</text>
<text text-anchor="middle" x="102.5" y="-5.75" font-family="Helvetica,sans-Serif" font-size="10.00">Type.DeleteAssistanceType.ExecuteAsync</text>
</a>
</g>
</g>
<!-- Node2 -->
<g id="Node000002" class="node">
<title>Node2</title>
<g id="a_Node000002"><a xlink:href="class_application_1_1_validation_1_1_use_case_exception.html#a640987a86719d6afd8278fdbf578ab57" target="_top" xlink:title=" ">
<polygon fill="white" stroke="#666666" points="409.25,-30.5 241,-30.5 241,0 409.25,0 409.25,-30.5"/>
<text text-anchor="start" x="249" y="-17" font-family="Helvetica,sans-Serif" font-size="10.00">Application.Validation.Use</text>
<text text-anchor="middle" x="325.12" y="-5.75" font-family="Helvetica,sans-Serif" font-size="10.00">CaseException.NotInformedParam</text>
</a>
</g>
</g>
<!-- Node1&#45;&gt;Node2 -->
<g id="edge1_Node000001_Node000002" class="edge">
<title>Node1&#45;&gt;Node2</title>
<g id="a_edge1_Node000001_Node000002"><a xlink:title=" ">
<path fill="none" stroke="#63b8ff" d="M205.42,-15.25C213.38,-15.25 221.41,-15.25 229.32,-15.25"/>
<polygon fill="#63b8ff" stroke="#63b8ff" points="229.31,-18.75 239.31,-15.25 229.31,-11.75 229.31,-18.75"/>
</a>
</g>
</g>
<!-- Node3 -->
<g id="Node000003" class="node">
<title>Node3</title>
<g id="a_Node000003"><a xlink:href="class_application_1_1_validation_1_1_use_case_exception.html#ad2defa29da6c9eee2864794300f152ae" target="_top" xlink:title=" ">
<polygon fill="white" stroke="#666666" points="615.75,-30.5 445.25,-30.5 445.25,0 615.75,0 615.75,-30.5"/>
<text text-anchor="start" x="453.25" y="-17" font-family="Helvetica,sans-Serif" font-size="10.00">Application.Validation.Use</text>
<text text-anchor="middle" x="530.5" y="-5.75" font-family="Helvetica,sans-Serif" font-size="10.00">CaseException.UseCaseException</text>
</a>
</g>
</g>
<!-- Node2&#45;&gt;Node3 -->
<g id="edge2_Node000002_Node000003" class="edge">
<title>Node2&#45;&gt;Node3</title>
<g id="a_edge2_Node000002_Node000003"><a xlink:title=" ">
<path fill="none" stroke="#63b8ff" d="M409.73,-15.25C417.62,-15.25 425.66,-15.25 433.66,-15.25"/>
<polygon fill="#63b8ff" stroke="#63b8ff" points="433.39,-18.75 443.39,-15.25 433.39,-11.75 433.39,-18.75"/>
</a>
</g>
</g>
</g>
</svg>
