<?xml version="1.0" encoding="UTF-8" standalone="no"?>
<!DOCTYPE svg PUBLIC "-//W3C//DTD SVG 1.1//EN"
 "http://www.w3.org/Graphics/SVG/1.1/DTD/svg11.dtd">
<!-- Generated by graphviz version 2.43.0 (0)
 -->
<!-- Title: Application.UseCases.SubArea.CreateSubArea.ExecuteAsync Pages: 1 -->
<svg width="590pt" height="137pt"
 viewBox="0.00 0.00 590.00 137.00" xmlns="http://www.w3.org/2000/svg" xmlns:xlink="http://www.w3.org/1999/xlink">
<g id="graph0" class="graph" transform="scale(1 1) rotate(0) translate(4 133)">
<title>Application.UseCases.SubArea.CreateSubArea.ExecuteAsync</title>
<!-- Node1 -->
<g id="node1" class="node">
<title>Node1</title>
<g id="a_node1"><a xlink:title=" ">
<polygon fill="#bfbfbf" stroke="black" points="0,-49.5 0,-79.5 185,-79.5 185,-49.5 0,-49.5"/>
<text text-anchor="start" x="8" y="-67.5" font-family="Helvetica,sans-Serif" font-size="10.00">Application.UseCases.Sub</text>
<text text-anchor="middle" x="92.5" y="-56.5" font-family="Helvetica,sans-Serif" font-size="10.00">Area.CreateSubArea.ExecuteAsync</text>
</a>
</g>
</g>
<!-- Node2 -->
<g id="node2" class="node">
<title>Node2</title>
<g id="a_node2"><a xlink:href="classUseCaseException.html#a2837eb30bdfa60f1f1ba2e5981d29fbd" target="_top" xlink:title=" ">
<polygon fill="none" stroke="black" points="230,-98.5 230,-128.5 384,-128.5 384,-98.5 230,-98.5"/>
<text text-anchor="start" x="238" y="-116.5" font-family="Helvetica,sans-Serif" font-size="10.00">UseCaseException.Business</text>
<text text-anchor="middle" x="307" y="-105.5" font-family="Helvetica,sans-Serif" font-size="10.00">RuleViolation</text>
</a>
</g>
</g>
<!-- Node1&#45;&gt;Node2 -->
<g id="edge1" class="edge">
<title>Node1&#45;&gt;Node2</title>
<path fill="none" stroke="midnightblue" d="M158.7,-79.53C181.55,-84.8 207.38,-90.76 230.97,-96.2"/>
<polygon fill="midnightblue" stroke="midnightblue" points="230.39,-99.66 240.92,-98.49 231.96,-92.84 230.39,-99.66"/>
</g>
<!-- Node3 -->
<g id="node3" class="node">
<title>Node3</title>
<g id="a_node3"><a xlink:href="classUseCaseException.html#a369a1b5bb91db316aa242fa76e845761" target="_top" xlink:title=" ">
<polygon fill="none" stroke="black" points="228.5,-49.5 228.5,-79.5 385.5,-79.5 385.5,-49.5 228.5,-49.5"/>
<text text-anchor="start" x="236.5" y="-67.5" font-family="Helvetica,sans-Serif" font-size="10.00">UseCaseException.NotFound</text>
<text text-anchor="middle" x="307" y="-56.5" font-family="Helvetica,sans-Serif" font-size="10.00">EntityByParams</text>
</a>
</g>
</g>
<!-- Node1&#45;&gt;Node3 -->
<g id="edge2" class="edge">
<title>Node1&#45;&gt;Node3</title>
<path fill="none" stroke="midnightblue" d="M185.16,-64.5C196.06,-64.5 207.16,-64.5 218,-64.5"/>
<polygon fill="midnightblue" stroke="midnightblue" points="218.31,-68 228.31,-64.5 218.31,-61 218.31,-68"/>
</g>
<!-- Node4 -->
<g id="node4" class="node">
<title>Node4</title>
<g id="a_node4"><a xlink:href="classUseCaseException.html#ab8fc31932179b877a356417d1dd37b56" target="_top" xlink:title=" ">
<polygon fill="none" stroke="black" points="221,-0.5 221,-30.5 393,-30.5 393,-0.5 221,-0.5"/>
<text text-anchor="start" x="229" y="-18.5" font-family="Helvetica,sans-Serif" font-size="10.00">UseCaseException.NotInformed</text>
<text text-anchor="middle" x="307" y="-7.5" font-family="Helvetica,sans-Serif" font-size="10.00">Param</text>
</a>
</g>
</g>
<!-- Node1&#45;&gt;Node4 -->
<g id="edge3" class="edge">
<title>Node1&#45;&gt;Node4</title>
<path fill="none" stroke="midnightblue" d="M158.7,-49.47C181.55,-44.2 207.38,-38.24 230.97,-32.8"/>
<polygon fill="midnightblue" stroke="midnightblue" points="231.96,-36.16 240.92,-30.51 230.39,-29.34 231.96,-36.16"/>
</g>
<!-- Node5 -->
<g id="node5" class="node">
<title>Node5</title>
<g id="a_node5"><a xlink:href="classUseCaseException.html#a1368420a98033f26e4493a4bd8de7df9" target="_top" xlink:title=" ">
<polygon fill="none" stroke="black" points="429,-0.5 429,-30.5 582,-30.5 582,-0.5 429,-0.5"/>
<text text-anchor="start" x="437" y="-18.5" font-family="Helvetica,sans-Serif" font-size="10.00">UseCaseException.UseCase</text>
<text text-anchor="middle" x="505.5" y="-7.5" font-family="Helvetica,sans-Serif" font-size="10.00">Exception</text>
</a>
</g>
</g>
<!-- Node4&#45;&gt;Node5 -->
<g id="edge4" class="edge">
<title>Node4&#45;&gt;Node5</title>
<path fill="none" stroke="midnightblue" d="M393.04,-15.5C401.53,-15.5 410.14,-15.5 418.63,-15.5"/>
<polygon fill="midnightblue" stroke="midnightblue" points="418.9,-19 428.9,-15.5 418.9,-12 418.9,-19"/>
</g>
</g>
</svg>
