<?xml version="1.0" encoding="UTF-8" standalone="no"?>
<!DOCTYPE svg PUBLIC "-//W3C//DTD SVG 1.1//EN"
 "http://www.w3.org/Graphics/SVG/1.1/DTD/svg11.dtd">
<!-- Generated by graphviz version 2.43.0 (0)
 -->
<!-- Title: UseCaseException.BusinessRuleViolation Pages: 1 -->
<svg width="421pt" height="2200pt"
 viewBox="0.00 0.00 421.00 2200.00" xmlns="http://www.w3.org/2000/svg" xmlns:xlink="http://www.w3.org/1999/xlink">
<g id="graph0" class="graph" transform="scale(1 1) rotate(0) translate(4 2196)">
<title>UseCaseException.BusinessRuleViolation</title>
<!-- Node1 -->
<g id="node1" class="node">
<title>Node1</title>
<g id="a_node1"><a xlink:title=" ">
<polygon fill="#bfbfbf" stroke="black" points="259,-1064.5 259,-1094.5 413,-1094.5 413,-1064.5 259,-1064.5"/>
<text text-anchor="start" x="267" y="-1082.5" font-family="Helvetica,sans-Serif" font-size="10.00">UseCaseException.Business</text>
<text text-anchor="middle" x="336" y="-1071.5" font-family="Helvetica,sans-Serif" font-size="10.00">RuleViolation</text>
</a>
</g>
</g>
<!-- Node2 -->
<g id="node2" class="node">
<title>Node2</title>
<g id="a_node2"><a xlink:href="classUseCaseException.html#a743150e54356568be42231a53607c866" target="_top" xlink:title=" ">
<polygon fill="none" stroke="black" points="34.5,-2161.5 34.5,-2191.5 188.5,-2191.5 188.5,-2161.5 34.5,-2161.5"/>
<text text-anchor="start" x="42.5" y="-2179.5" font-family="Helvetica,sans-Serif" font-size="10.00">UseCaseException.Business</text>
<text text-anchor="middle" x="111.5" y="-2168.5" font-family="Helvetica,sans-Serif" font-size="10.00">RuleViolation</text>
</a>
</g>
</g>
<!-- Node1&#45;&gt;Node2 -->
<g id="edge1" class="edge">
<title>Node1&#45;&gt;Node2</title>
<path fill="none" stroke="midnightblue" d="M334.1,-1104.97C328.42,-1259.89 295.31,-2071.77 223,-2152.5 213.96,-2162.59 201.77,-2168.98 188.78,-2172.94"/>
<polygon fill="midnightblue" stroke="midnightblue" points="337.61,-1104.71 334.48,-1094.59 330.62,-1104.46 337.61,-1104.71"/>
</g>
<!-- Node3 -->
<g id="node3" class="node">
<title>Node3</title>
<g id="a_node3"><a xlink:href="classApplication_1_1UseCases_1_1Area_1_1CreateArea.html#a061dd871d196e57608c18a4fe6e94642" target="_top" xlink:title=" ">
<polygon fill="none" stroke="black" points="36,-2112.5 36,-2142.5 187,-2142.5 187,-2112.5 36,-2112.5"/>
<text text-anchor="start" x="44" y="-2130.5" font-family="Helvetica,sans-Serif" font-size="10.00">Application.UseCases.Area.</text>
<text text-anchor="middle" x="111.5" y="-2119.5" font-family="Helvetica,sans-Serif" font-size="10.00">CreateArea.ExecuteAsync</text>
</a>
</g>
</g>
<!-- Node1&#45;&gt;Node3 -->
<g id="edge2" class="edge">
<title>Node1&#45;&gt;Node3</title>
<path fill="none" stroke="midnightblue" d="M333.98,-1104.75C327.68,-1254.94 292.09,-2026.75 223,-2103.5 213.54,-2114.01 200.67,-2120.5 187.04,-2124.41"/>
<polygon fill="midnightblue" stroke="midnightblue" points="337.48,-1104.8 334.4,-1094.66 330.49,-1104.51 337.48,-1104.8"/>
</g>
<!-- Node4 -->
<g id="node4" class="node">
<title>Node4</title>
<g id="a_node4"><a xlink:href="classApplication_1_1UseCases_1_1AssistanceType_1_1CreateAssistanceType.html#ac7b4c4e8aa35699fb01c8fdfe627353d" target="_top" xlink:title=" ">
<polygon fill="none" stroke="black" points="1.5,-2063.5 1.5,-2093.5 221.5,-2093.5 221.5,-2063.5 1.5,-2063.5"/>
<text text-anchor="start" x="9.5" y="-2081.5" font-family="Helvetica,sans-Serif" font-size="10.00">Application.UseCases.Assistance</text>
<text text-anchor="middle" x="111.5" y="-2070.5" font-family="Helvetica,sans-Serif" font-size="10.00">Type.CreateAssistanceType.ExecuteAsync</text>
</a>
</g>
</g>
<!-- Node1&#45;&gt;Node4 -->
<g id="edge3" class="edge">
<title>Node1&#45;&gt;Node4</title>
<path fill="none" stroke="midnightblue" d="M333.83,-1104.9C326.84,-1251.14 288.82,-1981.79 223,-2054.5 219.97,-2057.85 216.59,-2060.79 212.95,-2063.37"/>
<polygon fill="midnightblue" stroke="midnightblue" points="337.33,-1104.84 334.31,-1094.68 330.34,-1104.51 337.33,-1104.84"/>
</g>
<!-- Node5 -->
<g id="node5" class="node">
<title>Node5</title>
<g id="a_node5"><a xlink:href="classApplication_1_1UseCases_1_1Campus_1_1CreateCampus.html#ac2d25047801f13ba2c2b185d50596712" target="_top" xlink:title=" ">
<polygon fill="none" stroke="black" points="27.5,-2014.5 27.5,-2044.5 195.5,-2044.5 195.5,-2014.5 27.5,-2014.5"/>
<text text-anchor="start" x="35.5" y="-2032.5" font-family="Helvetica,sans-Serif" font-size="10.00">Application.UseCases.Campus.</text>
<text text-anchor="middle" x="111.5" y="-2021.5" font-family="Helvetica,sans-Serif" font-size="10.00">CreateCampus.ExecuteAsync</text>
</a>
</g>
</g>
<!-- Node1&#45;&gt;Node5 -->
<g id="edge4" class="edge">
<title>Node1&#45;&gt;Node5</title>
<path fill="none" stroke="midnightblue" d="M333.66,-1104.94C325.98,-1246.86 285.56,-1936.79 223,-2005.5 215.53,-2013.7 205.98,-2019.45 195.62,-2023.43"/>
<polygon fill="midnightblue" stroke="midnightblue" points="337.17,-1104.81 334.21,-1094.64 330.18,-1104.44 337.17,-1104.81"/>
</g>
<!-- Node6 -->
<g id="node6" class="node">
<title>Node6</title>
<g id="a_node6"><a xlink:href="classApplication_1_1UseCases_1_1Course_1_1CreateCourse.html#ada8b792515fef0320c648ba553415cfe" target="_top" xlink:title=" ">
<polygon fill="none" stroke="black" points="30.5,-1965.5 30.5,-1995.5 192.5,-1995.5 192.5,-1965.5 30.5,-1965.5"/>
<text text-anchor="start" x="38.5" y="-1983.5" font-family="Helvetica,sans-Serif" font-size="10.00">Application.UseCases.Course.</text>
<text text-anchor="middle" x="111.5" y="-1972.5" font-family="Helvetica,sans-Serif" font-size="10.00">CreateCourse.ExecuteAsync</text>
</a>
</g>
</g>
<!-- Node1&#45;&gt;Node6 -->
<g id="edge5" class="edge">
<title>Node1&#45;&gt;Node6</title>
<path fill="none" stroke="midnightblue" d="M333.49,-1104.87C325.08,-1242.11 282.33,-1891.78 223,-1956.5 214.78,-1965.47 204.05,-1971.51 192.53,-1975.5"/>
<polygon fill="midnightblue" stroke="midnightblue" points="337,-1104.73 334.11,-1094.54 330.01,-1104.31 337,-1104.73"/>
</g>
<!-- Node7 -->
<g id="node7" class="node">
<title>Node7</title>
<g id="a_node7"><a xlink:href="classApplication_1_1UseCases_1_1MainArea_1_1CreateMainArea.html#adf155f02408dba9c90ee5a4a5e385231" target="_top" xlink:title=" ">
<polygon fill="none" stroke="black" points="16,-1916.5 16,-1946.5 207,-1946.5 207,-1916.5 16,-1916.5"/>
<text text-anchor="start" x="24" y="-1934.5" font-family="Helvetica,sans-Serif" font-size="10.00">Application.UseCases.Main</text>
<text text-anchor="middle" x="111.5" y="-1923.5" font-family="Helvetica,sans-Serif" font-size="10.00">Area.CreateMainArea.ExecuteAsync</text>
</a>
</g>
</g>
<!-- Node1&#45;&gt;Node7 -->
<g id="edge6" class="edge">
<title>Node1&#45;&gt;Node7</title>
<path fill="none" stroke="midnightblue" d="M335.32,-1104.88C336.37,-1230.74 334.54,-1786.73 223,-1907.5 218.4,-1912.48 213.04,-1916.55 207.2,-1919.86"/>
<polygon fill="midnightblue" stroke="midnightblue" points="338.82,-1104.65 335.22,-1094.68 331.82,-1104.71 338.82,-1104.65"/>
</g>
<!-- Node8 -->
<g id="node8" class="node">
<title>Node8</title>
<g id="a_node8"><a xlink:href="classApplication_1_1UseCases_1_1Notice_1_1CreateNotice.html#a4e80e06fc4c6a59af4bff79d45758485" target="_top" xlink:title=" ">
<polygon fill="none" stroke="black" points="31.5,-1867.5 31.5,-1897.5 191.5,-1897.5 191.5,-1867.5 31.5,-1867.5"/>
<text text-anchor="start" x="39.5" y="-1885.5" font-family="Helvetica,sans-Serif" font-size="10.00">Application.UseCases.Notice.</text>
<text text-anchor="middle" x="111.5" y="-1874.5" font-family="Helvetica,sans-Serif" font-size="10.00">CreateNotice.ExecuteAsync</text>
</a>
</g>
</g>
<!-- Node1&#45;&gt;Node8 -->
<g id="edge7" class="edge">
<title>Node1&#45;&gt;Node8</title>
<path fill="none" stroke="midnightblue" d="M335.08,-1104.91C334.93,-1226.26 328.09,-1745.66 223,-1858.5 214.5,-1867.62 203.42,-1873.7 191.56,-1877.67"/>
<polygon fill="midnightblue" stroke="midnightblue" points="338.58,-1104.73 335.08,-1094.73 331.58,-1104.73 338.58,-1104.73"/>
</g>
<!-- Node9 -->
<g id="node9" class="node">
<title>Node9</title>
<g id="a_node9"><a xlink:href="classApplication_1_1UseCases_1_1Professor_1_1CreateProfessor.html#a5e882ddd6ef98e38f2c3fb08a2f8cec5" target="_top" xlink:title=" ">
<polygon fill="none" stroke="black" points="25,-1818.5 25,-1848.5 198,-1848.5 198,-1818.5 25,-1818.5"/>
<text text-anchor="start" x="33" y="-1836.5" font-family="Helvetica,sans-Serif" font-size="10.00">Application.UseCases.Professor.</text>
<text text-anchor="middle" x="111.5" y="-1825.5" font-family="Helvetica,sans-Serif" font-size="10.00">CreateProfessor.ExecuteAsync</text>
</a>
</g>
</g>
<!-- Node1&#45;&gt;Node9 -->
<g id="edge8" class="edge">
<title>Node1&#45;&gt;Node9</title>
<path fill="none" stroke="midnightblue" d="M334.81,-1104.79C333.42,-1221.22 321.7,-1704.52 223,-1809.5 216.07,-1816.87 207.46,-1822.24 198.13,-1826.12"/>
<polygon fill="midnightblue" stroke="midnightblue" points="338.31,-1104.72 334.92,-1094.69 331.31,-1104.65 338.31,-1104.72"/>
</g>
<!-- Node10 -->
<g id="node10" class="node">
<title>Node10</title>
<g id="a_node10"><a xlink:href="classApplication_1_1UseCases_1_1ProgramType_1_1CreateProgramType.html#a74cecabe2dba62518e5ff476e1cba48d" target="_top" xlink:title=" ">
<polygon fill="none" stroke="black" points="7,-1769.5 7,-1799.5 216,-1799.5 216,-1769.5 7,-1769.5"/>
<text text-anchor="start" x="15" y="-1787.5" font-family="Helvetica,sans-Serif" font-size="10.00">Application.UseCases.Program</text>
<text text-anchor="middle" x="111.5" y="-1776.5" font-family="Helvetica,sans-Serif" font-size="10.00">Type.CreateProgramType.ExecuteAsync</text>
</a>
</g>
</g>
<!-- Node1&#45;&gt;Node10 -->
<g id="edge9" class="edge">
<title>Node1&#45;&gt;Node10</title>
<path fill="none" stroke="midnightblue" d="M334.48,-1104.78C331.66,-1216.2 314.73,-1662.17 223,-1759.5 219.49,-1763.22 215.56,-1766.45 211.32,-1769.23"/>
<polygon fill="midnightblue" stroke="midnightblue" points="337.98,-1104.6 334.72,-1094.52 330.99,-1104.43 337.98,-1104.6"/>
</g>
<!-- Node11 -->
<g id="node11" class="node">
<title>Node11</title>
<g id="a_node11"><a xlink:href="classApplication_1_1UseCases_1_1ProjectFinalReport_1_1CreateProjectFinalReport.html#a00de73f1fa36d4c3c316dccef715a681" target="_top" xlink:title=" ">
<polygon fill="none" stroke="black" points="11.5,-1709 11.5,-1750 211.5,-1750 211.5,-1709 11.5,-1709"/>
<text text-anchor="start" x="19.5" y="-1738" font-family="Helvetica,sans-Serif" font-size="10.00">Application.UseCases.Project</text>
<text text-anchor="start" x="19.5" y="-1727" font-family="Helvetica,sans-Serif" font-size="10.00">FinalReport.CreateProjectFinalReport.</text>
<text text-anchor="middle" x="111.5" y="-1716" font-family="Helvetica,sans-Serif" font-size="10.00">ExecuteAsync</text>
</a>
</g>
</g>
<!-- Node1&#45;&gt;Node11 -->
<g id="edge10" class="edge">
<title>Node1&#45;&gt;Node11</title>
<path fill="none" stroke="midnightblue" d="M333.93,-1104.79C329.01,-1209.79 305.03,-1610.06 223,-1699.5 219.64,-1703.16 215.88,-1706.4 211.84,-1709.25"/>
<polygon fill="midnightblue" stroke="midnightblue" points="337.44,-1104.67 334.4,-1094.52 330.45,-1104.35 337.44,-1104.67"/>
</g>
<!-- Node12 -->
<g id="node12" class="node">
<title>Node12</title>
<g id="a_node12"><a xlink:href="classApplication_1_1UseCases_1_1ProjectPartialReport_1_1CreateProjectPartialReport.html#a62499f0836706ac149cb5c4441c25c08" target="_top" xlink:title=" ">
<polygon fill="none" stroke="black" points="22,-1649 22,-1690 201,-1690 201,-1649 22,-1649"/>
<text text-anchor="start" x="30" y="-1678" font-family="Helvetica,sans-Serif" font-size="10.00">Application.UseCases.Project</text>
<text text-anchor="start" x="30" y="-1667" font-family="Helvetica,sans-Serif" font-size="10.00">PartialReport.CreateProjectPartial</text>
<text text-anchor="middle" x="111.5" y="-1656" font-family="Helvetica,sans-Serif" font-size="10.00">Report.ExecuteAsync</text>
</a>
</g>
</g>
<!-- Node1&#45;&gt;Node12 -->
<g id="edge11" class="edge">
<title>Node1&#45;&gt;Node12</title>
<path fill="none" stroke="midnightblue" d="M333.4,-1104.85C326.66,-1203.45 297.47,-1559.81 223,-1639.5 216.82,-1646.11 209.35,-1651.32 201.24,-1655.41"/>
<polygon fill="midnightblue" stroke="midnightblue" points="336.91,-1104.84 334.08,-1094.63 329.92,-1104.38 336.91,-1104.84"/>
</g>
<!-- Node13 -->
<g id="node13" class="node">
<title>Node13</title>
<g id="a_node13"><a xlink:href="classApplication_1_1UseCases_1_1StudentDocuments_1_1CreateStudentDocuments.html#a1d45858f390f2bec3f9d51ed90699b0f" target="_top" xlink:title=" ">
<polygon fill="none" stroke="black" points="10,-1589 10,-1630 213,-1630 213,-1589 10,-1589"/>
<text text-anchor="start" x="18" y="-1618" font-family="Helvetica,sans-Serif" font-size="10.00">Application.UseCases.Student</text>
<text text-anchor="start" x="18" y="-1607" font-family="Helvetica,sans-Serif" font-size="10.00">Documents.CreateStudentDocuments.</text>
<text text-anchor="middle" x="111.5" y="-1596" font-family="Helvetica,sans-Serif" font-size="10.00">ExecuteAsync</text>
</a>
</g>
</g>
<!-- Node1&#45;&gt;Node13 -->
<g id="edge12" class="edge">
<title>Node1&#45;&gt;Node13</title>
<path fill="none" stroke="midnightblue" d="M332.75,-1104.78C324.08,-1196.42 289.98,-1509.45 223,-1579.5 219.7,-1582.95 216.05,-1586.01 212.14,-1588.74"/>
<polygon fill="midnightblue" stroke="midnightblue" points="336.24,-1105.02 333.68,-1094.74 329.27,-1104.37 336.24,-1105.02"/>
</g>
<!-- Node14 -->
<g id="node14" class="node">
<title>Node14</title>
<g id="a_node14"><a xlink:href="classApplication_1_1UseCases_1_1Student_1_1CreateStudent.html#acf07f6462fe7e0bc893ed08d37430bbe" target="_top" xlink:title=" ">
<polygon fill="none" stroke="black" points="28.5,-1539.5 28.5,-1569.5 194.5,-1569.5 194.5,-1539.5 28.5,-1539.5"/>
<text text-anchor="start" x="36.5" y="-1557.5" font-family="Helvetica,sans-Serif" font-size="10.00">Application.UseCases.Student.</text>
<text text-anchor="middle" x="111.5" y="-1546.5" font-family="Helvetica,sans-Serif" font-size="10.00">CreateStudent.ExecuteAsync</text>
</a>
</g>
</g>
<!-- Node1&#45;&gt;Node14 -->
<g id="edge13" class="edge">
<title>Node1&#45;&gt;Node14</title>
<path fill="none" stroke="midnightblue" d="M332.2,-1104.92C322.19,-1191.05 285.45,-1469.87 223,-1530.5 215.04,-1538.23 205.21,-1543.71 194.73,-1547.57"/>
<polygon fill="midnightblue" stroke="midnightblue" points="335.68,-1105.29 333.34,-1094.96 328.72,-1104.5 335.68,-1105.29"/>
</g>
<!-- Node15 -->
<g id="node15" class="node">
<title>Node15</title>
<g id="a_node15"><a xlink:href="classApplication_1_1UseCases_1_1SubArea_1_1CreateSubArea.html#ad046dae78a98463de48dd78d6401e05c" target="_top" xlink:title=" ">
<polygon fill="none" stroke="black" points="19,-1490.5 19,-1520.5 204,-1520.5 204,-1490.5 19,-1490.5"/>
<text text-anchor="start" x="27" y="-1508.5" font-family="Helvetica,sans-Serif" font-size="10.00">Application.UseCases.Sub</text>
<text text-anchor="middle" x="111.5" y="-1497.5" font-family="Helvetica,sans-Serif" font-size="10.00">Area.CreateSubArea.ExecuteAsync</text>
</a>
</g>
</g>
<!-- Node1&#45;&gt;Node15 -->
<g id="edge14" class="edge">
<title>Node1&#45;&gt;Node15</title>
<path fill="none" stroke="midnightblue" d="M331.38,-1104.63C319.45,-1184.02 278.89,-1427.33 223,-1480.5 217.44,-1485.79 211.01,-1490.04 204.11,-1493.46"/>
<polygon fill="midnightblue" stroke="midnightblue" points="334.87,-1104.96 332.87,-1094.56 327.95,-1103.94 334.87,-1104.96"/>
</g>
<!-- Node16 -->
<g id="node16" class="node">
<title>Node16</title>
<g id="a_node16"><a xlink:href="classApplication_1_1UseCases_1_1ProjectEvaluation_1_1EvaluateAppealProject.html#a813d70e38bd8d7eee469aa9457e214d5" target="_top" xlink:title="Avalia o recurso do projeto.">
<polygon fill="none" stroke="black" points="19,-1430 19,-1471 204,-1471 204,-1430 19,-1430"/>
<text text-anchor="start" x="27" y="-1459" font-family="Helvetica,sans-Serif" font-size="10.00">Application.UseCases.Project</text>
<text text-anchor="start" x="27" y="-1448" font-family="Helvetica,sans-Serif" font-size="10.00">Evaluation.EvaluateAppealProject.</text>
<text text-anchor="middle" x="111.5" y="-1437" font-family="Helvetica,sans-Serif" font-size="10.00">ExecuteAsync</text>
</a>
</g>
</g>
<!-- Node1&#45;&gt;Node16 -->
<g id="edge15" class="edge">
<title>Node1&#45;&gt;Node16</title>
<path fill="none" stroke="midnightblue" d="M334.44,-1104.94C331.62,-1168.03 315.31,-1332.89 223,-1420.5 217.45,-1425.77 211.07,-1430.13 204.23,-1433.74"/>
<polygon fill="midnightblue" stroke="midnightblue" points="337.94,-1104.84 334.81,-1094.72 330.95,-1104.58 337.94,-1104.84"/>
</g>
<!-- Node17 -->
<g id="node17" class="node">
<title>Node17</title>
<g id="a_node17"><a xlink:href="classApplication_1_1UseCases_1_1ProjectEvaluation_1_1EvaluateStudentDocuments.html#a8a19f6227f9ff613432ba339efd2ee70" target="_top" xlink:title="Avalia os documentos informados pelo estudante associado ao projeto.">
<polygon fill="none" stroke="black" points="6.5,-1370 6.5,-1411 216.5,-1411 216.5,-1370 6.5,-1370"/>
<text text-anchor="start" x="14.5" y="-1399" font-family="Helvetica,sans-Serif" font-size="10.00">Application.UseCases.Project</text>
<text text-anchor="start" x="14.5" y="-1388" font-family="Helvetica,sans-Serif" font-size="10.00">Evaluation.EvaluateStudentDocuments.</text>
<text text-anchor="middle" x="111.5" y="-1377" font-family="Helvetica,sans-Serif" font-size="10.00">ExecuteAsync</text>
</a>
</g>
</g>
<!-- Node1&#45;&gt;Node17 -->
<g id="edge16" class="edge">
<title>Node1&#45;&gt;Node17</title>
<path fill="none" stroke="midnightblue" d="M332.39,-1104.91C325.36,-1159.98 300.92,-1291.01 223,-1360.5 219.07,-1364.01 214.77,-1367.11 210.21,-1369.85"/>
<polygon fill="midnightblue" stroke="midnightblue" points="335.91,-1104.99 333.61,-1094.65 328.96,-1104.17 335.91,-1104.99"/>
</g>
<!-- Node18 -->
<g id="node18" class="node">
<title>Node18</title>
<g id="a_node18"><a xlink:href="classApplication_1_1UseCases_1_1ProjectEvaluation_1_1EvaluateSubmissionProject.html#acccd1c604a29a4fe38fda87e2ed169a6" target="_top" xlink:title="Avalia o projeto submetido.">
<polygon fill="none" stroke="black" points="8,-1310 8,-1351 215,-1351 215,-1310 8,-1310"/>
<text text-anchor="start" x="16" y="-1339" font-family="Helvetica,sans-Serif" font-size="10.00">Application.UseCases.Project</text>
<text text-anchor="start" x="16" y="-1328" font-family="Helvetica,sans-Serif" font-size="10.00">Evaluation.EvaluateSubmissionProject.</text>
<text text-anchor="middle" x="111.5" y="-1317" font-family="Helvetica,sans-Serif" font-size="10.00">ExecuteAsync</text>
</a>
</g>
</g>
<!-- Node1&#45;&gt;Node18 -->
<g id="edge17" class="edge">
<title>Node1&#45;&gt;Node18</title>
<path fill="none" stroke="midnightblue" d="M329.44,-1104.51C317.9,-1150.48 286.92,-1248.45 223,-1300.5 218.68,-1304.01 213.99,-1307.12 209.05,-1309.86"/>
<polygon fill="midnightblue" stroke="midnightblue" points="332.91,-1105.05 331.85,-1094.51 326.11,-1103.41 332.91,-1105.05"/>
</g>
<!-- Node19 -->
<g id="node19" class="node">
<title>Node19</title>
<g id="a_node19"><a xlink:href="classApplication_1_1UseCases_1_1Professor_1_1DeleteProfessor.html#a1b7f82a98cb7514fc1ed9672afbc36d1" target="_top" xlink:title=" ">
<polygon fill="none" stroke="black" points="25,-1260.5 25,-1290.5 198,-1290.5 198,-1260.5 25,-1260.5"/>
<text text-anchor="start" x="33" y="-1278.5" font-family="Helvetica,sans-Serif" font-size="10.00">Application.UseCases.Professor.</text>
<text text-anchor="middle" x="111.5" y="-1267.5" font-family="Helvetica,sans-Serif" font-size="10.00">DeleteProfessor.ExecuteAsync</text>
</a>
</g>
</g>
<!-- Node1&#45;&gt;Node19 -->
<g id="edge18" class="edge">
<title>Node1&#45;&gt;Node19</title>
<path fill="none" stroke="midnightblue" d="M325.92,-1104.57C310.78,-1142.64 276.63,-1214.52 223,-1251.5 215.4,-1256.74 206.87,-1260.86 198.01,-1264.1"/>
<polygon fill="midnightblue" stroke="midnightblue" points="329.36,-1105.37 329.69,-1094.78 322.83,-1102.86 329.36,-1105.37"/>
</g>
<!-- Node20 -->
<g id="node20" class="node">
<title>Node20</title>
<g id="a_node20"><a xlink:href="classApplication_1_1UseCases_1_1Student_1_1DeleteStudent.html#ab525fa45ff5e0714f7c0e6119afaaf79" target="_top" xlink:title=" ">
<polygon fill="none" stroke="black" points="28.5,-1211.5 28.5,-1241.5 194.5,-1241.5 194.5,-1211.5 28.5,-1211.5"/>
<text text-anchor="start" x="36.5" y="-1229.5" font-family="Helvetica,sans-Serif" font-size="10.00">Application.UseCases.Student.</text>
<text text-anchor="middle" x="111.5" y="-1218.5" font-family="Helvetica,sans-Serif" font-size="10.00">DeleteStudent.ExecuteAsync</text>
</a>
</g>
</g>
<!-- Node1&#45;&gt;Node20 -->
<g id="edge19" class="edge">
<title>Node1&#45;&gt;Node20</title>
<path fill="none" stroke="midnightblue" d="M320.16,-1103.24C301.19,-1131.49 265.67,-1177.9 223,-1202.5 214.24,-1207.55 204.53,-1211.54 194.62,-1214.69"/>
<polygon fill="midnightblue" stroke="midnightblue" points="323.16,-1105.04 325.72,-1094.76 317.31,-1101.2 323.16,-1105.04"/>
</g>
<!-- Node21 -->
<g id="node21" class="node">
<title>Node21</title>
<g id="a_node21"><a xlink:href="classApplication_1_1UseCases_1_1Project_1_1CancelProject.html#aedcb72b321bdee7c20066078abfd3fa8" target="_top" xlink:title=" ">
<polygon fill="none" stroke="black" points="30.5,-1162.5 30.5,-1192.5 192.5,-1192.5 192.5,-1162.5 30.5,-1162.5"/>
<text text-anchor="start" x="38.5" y="-1180.5" font-family="Helvetica,sans-Serif" font-size="10.00">Application.UseCases.Project.</text>
<text text-anchor="middle" x="111.5" y="-1169.5" font-family="Helvetica,sans-Serif" font-size="10.00">CancelProject.ExecuteAsync</text>
</a>
</g>
</g>
<!-- Node1&#45;&gt;Node21 -->
<g id="edge20" class="edge">
<title>Node1&#45;&gt;Node21</title>
<path fill="none" stroke="midnightblue" d="M308.74,-1100.94C287,-1117.64 254.66,-1140.16 223,-1153.5 213.41,-1157.54 203.06,-1160.94 192.67,-1163.78"/>
<polygon fill="midnightblue" stroke="midnightblue" points="311.08,-1103.55 316.81,-1094.63 306.77,-1098.03 311.08,-1103.55"/>
</g>
<!-- Node22 -->
<g id="node22" class="node">
<title>Node22</title>
<g id="a_node22"><a xlink:href="classApplication_1_1UseCases_1_1AssistanceType_1_1UpdateAssistanceType.html#adb29d403b1974b891bdc93fe109228ed" target="_top" xlink:title=" ">
<polygon fill="none" stroke="black" points="0,-1113.5 0,-1143.5 223,-1143.5 223,-1113.5 0,-1113.5"/>
<text text-anchor="start" x="8" y="-1131.5" font-family="Helvetica,sans-Serif" font-size="10.00">Application.UseCases.Assistance</text>
<text text-anchor="middle" x="111.5" y="-1120.5" font-family="Helvetica,sans-Serif" font-size="10.00">Type.UpdateAssistanceType.ExecuteAsync</text>
</a>
</g>
</g>
<!-- Node1&#45;&gt;Node22 -->
<g id="edge21" class="edge">
<title>Node1&#45;&gt;Node22</title>
<path fill="none" stroke="midnightblue" d="M258.25,-1096.69C246.45,-1099.32 234.4,-1101.99 223,-1104.5 209.77,-1107.41 195.65,-1110.5 182.07,-1113.45"/>
<polygon fill="midnightblue" stroke="midnightblue" points="259.09,-1100.09 268.09,-1094.5 257.57,-1093.26 259.09,-1100.09"/>
</g>
<!-- Node23 -->
<g id="node23" class="node">
<title>Node23</title>
<g id="a_node23"><a xlink:href="classApplication_1_1UseCases_1_1Campus_1_1UpdateCampus.html#aeb1ed1caac6dcaa9b692368e64b2cc31" target="_top" xlink:title=" ">
<polygon fill="none" stroke="black" points="27.5,-1064.5 27.5,-1094.5 195.5,-1094.5 195.5,-1064.5 27.5,-1064.5"/>
<text text-anchor="start" x="35.5" y="-1082.5" font-family="Helvetica,sans-Serif" font-size="10.00">Application.UseCases.Campus.</text>
<text text-anchor="middle" x="111.5" y="-1071.5" font-family="Helvetica,sans-Serif" font-size="10.00">UpdateCampus.ExecuteAsync</text>
</a>
</g>
</g>
<!-- Node1&#45;&gt;Node23 -->
<g id="edge22" class="edge">
<title>Node1&#45;&gt;Node23</title>
<path fill="none" stroke="midnightblue" d="M248.58,-1079.5C231.14,-1079.5 212.84,-1079.5 195.51,-1079.5"/>
<polygon fill="midnightblue" stroke="midnightblue" points="248.74,-1083 258.74,-1079.5 248.74,-1076 248.74,-1083"/>
</g>
<!-- Node24 -->
<g id="node24" class="node">
<title>Node24</title>
<g id="a_node24"><a xlink:href="classApplication_1_1UseCases_1_1Course_1_1UpdateCourse.html#af2ed09e83a0aa0da9d09760718f375f6" target="_top" xlink:title=" ">
<polygon fill="none" stroke="black" points="30.5,-1015.5 30.5,-1045.5 192.5,-1045.5 192.5,-1015.5 30.5,-1015.5"/>
<text text-anchor="start" x="38.5" y="-1033.5" font-family="Helvetica,sans-Serif" font-size="10.00">Application.UseCases.Course.</text>
<text text-anchor="middle" x="111.5" y="-1022.5" font-family="Helvetica,sans-Serif" font-size="10.00">UpdateCourse.ExecuteAsync</text>
</a>
</g>
</g>
<!-- Node1&#45;&gt;Node24 -->
<g id="edge23" class="edge">
<title>Node1&#45;&gt;Node24</title>
<path fill="none" stroke="midnightblue" d="M256.96,-1062.31C232.08,-1056.84 204.76,-1050.82 180.64,-1045.51"/>
<polygon fill="midnightblue" stroke="midnightblue" points="256.21,-1065.73 266.73,-1064.47 257.72,-1058.9 256.21,-1065.73"/>
</g>
<!-- Node25 -->
<g id="node25" class="node">
<title>Node25</title>
<g id="a_node25"><a xlink:href="classApplication_1_1UseCases_1_1MainArea_1_1UpdateMainArea.html#ad48f24f7400c91e05b6596a1c98dda5a" target="_top" xlink:title=" ">
<polygon fill="none" stroke="black" points="14.5,-966.5 14.5,-996.5 208.5,-996.5 208.5,-966.5 14.5,-966.5"/>
<text text-anchor="start" x="22.5" y="-984.5" font-family="Helvetica,sans-Serif" font-size="10.00">Application.UseCases.Main</text>
<text text-anchor="middle" x="111.5" y="-973.5" font-family="Helvetica,sans-Serif" font-size="10.00">Area.UpdateMainArea.ExecuteAsync</text>
</a>
</g>
</g>
<!-- Node1&#45;&gt;Node25 -->
<g id="edge24" class="edge">
<title>Node1&#45;&gt;Node25</title>
<path fill="none" stroke="midnightblue" d="M308.27,-1058.14C286.49,-1041.75 254.33,-1019.75 223,-1006.5 213.94,-1002.67 204.21,-999.38 194.41,-996.57"/>
<polygon fill="midnightblue" stroke="midnightblue" points="306.29,-1061.04 316.36,-1064.34 310.55,-1055.48 306.29,-1061.04"/>
</g>
<!-- Node26 -->
<g id="node26" class="node">
<title>Node26</title>
<g id="a_node26"><a xlink:href="classApplication_1_1UseCases_1_1Notice_1_1UpdateNotice.html#a274f4939edb40d2449bdac6809230dec" target="_top" xlink:title=" ">
<polygon fill="none" stroke="black" points="31.5,-917.5 31.5,-947.5 191.5,-947.5 191.5,-917.5 31.5,-917.5"/>
<text text-anchor="start" x="39.5" y="-935.5" font-family="Helvetica,sans-Serif" font-size="10.00">Application.UseCases.Notice.</text>
<text text-anchor="middle" x="111.5" y="-924.5" font-family="Helvetica,sans-Serif" font-size="10.00">UpdateNotice.ExecuteAsync</text>
</a>
</g>
</g>
<!-- Node1&#45;&gt;Node26 -->
<g id="edge25" class="edge">
<title>Node1&#45;&gt;Node26</title>
<path fill="none" stroke="midnightblue" d="M320.07,-1056.01C301.03,-1028.06 265.42,-982.09 223,-957.5 213.39,-951.93 202.63,-947.6 191.71,-944.23"/>
<polygon fill="midnightblue" stroke="midnightblue" points="317.21,-1058.02 325.66,-1064.4 323.03,-1054.14 317.21,-1058.02"/>
</g>
<!-- Node27 -->
<g id="node27" class="node">
<title>Node27</title>
<g id="a_node27"><a xlink:href="classApplication_1_1UseCases_1_1Professor_1_1UpdateProfessor.html#a8a14b059785d8547148ca0c1083d0821" target="_top" xlink:title=" ">
<polygon fill="none" stroke="black" points="25,-868.5 25,-898.5 198,-898.5 198,-868.5 25,-868.5"/>
<text text-anchor="start" x="33" y="-886.5" font-family="Helvetica,sans-Serif" font-size="10.00">Application.UseCases.Professor.</text>
<text text-anchor="middle" x="111.5" y="-875.5" font-family="Helvetica,sans-Serif" font-size="10.00">UpdateProfessor.ExecuteAsync</text>
</a>
</g>
</g>
<!-- Node1&#45;&gt;Node27 -->
<g id="edge26" class="edge">
<title>Node1&#45;&gt;Node27</title>
<path fill="none" stroke="midnightblue" d="M325.84,-1054.63C310.59,-1016.85 276.3,-945.49 223,-908.5 215.41,-903.23 206.88,-899.05 198.01,-895.74"/>
<polygon fill="midnightblue" stroke="midnightblue" points="322.74,-1056.3 329.64,-1064.34 329.25,-1053.75 322.74,-1056.3"/>
</g>
<!-- Node28 -->
<g id="node28" class="node">
<title>Node28</title>
<g id="a_node28"><a xlink:href="classApplication_1_1UseCases_1_1ProgramType_1_1UpdateProgramType.html#a0f5d6bc44bfa0d1a6c29a957cedfa85e" target="_top" xlink:title=" ">
<polygon fill="none" stroke="black" points="5.5,-819.5 5.5,-849.5 217.5,-849.5 217.5,-819.5 5.5,-819.5"/>
<text text-anchor="start" x="13.5" y="-837.5" font-family="Helvetica,sans-Serif" font-size="10.00">Application.UseCases.Program</text>
<text text-anchor="middle" x="111.5" y="-826.5" font-family="Helvetica,sans-Serif" font-size="10.00">Type.UpdateProgramType.ExecuteAsync</text>
</a>
</g>
</g>
<!-- Node1&#45;&gt;Node28 -->
<g id="edge27" class="edge">
<title>Node1&#45;&gt;Node28</title>
<path fill="none" stroke="midnightblue" d="M329.68,-1054.63C318.49,-1008.56 287.96,-910.04 223,-859.5 218.03,-855.64 212.58,-852.35 206.84,-849.55"/>
<polygon fill="midnightblue" stroke="midnightblue" points="326.28,-1055.45 331.96,-1064.39 333.1,-1053.86 326.28,-1055.45"/>
</g>
<!-- Node29 -->
<g id="node29" class="node">
<title>Node29</title>
<g id="a_node29"><a xlink:href="classApplication_1_1UseCases_1_1ProjectFinalReport_1_1UpdateProjectFinalReport.html#ad52a5224b349314c0fe7dc833b3e579b" target="_top" xlink:title=" ">
<polygon fill="none" stroke="black" points="10,-759 10,-800 213,-800 213,-759 10,-759"/>
<text text-anchor="start" x="18" y="-788" font-family="Helvetica,sans-Serif" font-size="10.00">Application.UseCases.Project</text>
<text text-anchor="start" x="18" y="-777" font-family="Helvetica,sans-Serif" font-size="10.00">FinalReport.UpdateProjectFinalReport.</text>
<text text-anchor="middle" x="111.5" y="-766" font-family="Helvetica,sans-Serif" font-size="10.00">ExecuteAsync</text>
</a>
</g>
</g>
<!-- Node1&#45;&gt;Node29 -->
<g id="edge28" class="edge">
<title>Node1&#45;&gt;Node29</title>
<path fill="none" stroke="midnightblue" d="M331.89,-1054.45C323.94,-1001.35 297.93,-876.87 223,-810.5 218.53,-806.54 213.58,-803.08 208.34,-800.06"/>
<polygon fill="midnightblue" stroke="midnightblue" points="328.42,-1054.96 333.28,-1064.37 335.36,-1053.98 328.42,-1054.96"/>
</g>
<!-- Node30 -->
<g id="node30" class="node">
<title>Node30</title>
<g id="a_node30"><a xlink:href="classApplication_1_1UseCases_1_1Project_1_1UpdateProject.html#a7f7ebd2d14f5afeb6a633b7917c96b04" target="_top" xlink:title=" ">
<polygon fill="none" stroke="black" points="30.5,-709.5 30.5,-739.5 192.5,-739.5 192.5,-709.5 30.5,-709.5"/>
<text text-anchor="start" x="38.5" y="-727.5" font-family="Helvetica,sans-Serif" font-size="10.00">Application.UseCases.Project.</text>
<text text-anchor="middle" x="111.5" y="-716.5" font-family="Helvetica,sans-Serif" font-size="10.00">UpdateProject.ExecuteAsync</text>
</a>
</g>
</g>
<!-- Node1&#45;&gt;Node30 -->
<g id="edge29" class="edge">
<title>Node1&#45;&gt;Node30</title>
<path fill="none" stroke="midnightblue" d="M334.36,-1054.19C331.34,-992.24 314.61,-831.99 223,-749.5 214.38,-741.73 203.86,-736.22 192.78,-732.33"/>
<polygon fill="midnightblue" stroke="midnightblue" points="330.86,-1054.4 334.76,-1064.25 337.86,-1054.12 330.86,-1054.4"/>
</g>
<!-- Node31 -->
<g id="node31" class="node">
<title>Node31</title>
<g id="a_node31"><a xlink:href="classApplication_1_1UseCases_1_1ProjectPartialReport_1_1UpdateProjectPartialReport.html#aee231ea712a96aa2fbf8fcf3a8b171ef" target="_top" xlink:title=" ">
<polygon fill="none" stroke="black" points="20.5,-649 20.5,-690 202.5,-690 202.5,-649 20.5,-649"/>
<text text-anchor="start" x="28.5" y="-678" font-family="Helvetica,sans-Serif" font-size="10.00">Application.UseCases.Project</text>
<text text-anchor="start" x="28.5" y="-667" font-family="Helvetica,sans-Serif" font-size="10.00">PartialReport.UpdateProjectPartial</text>
<text text-anchor="middle" x="111.5" y="-656" font-family="Helvetica,sans-Serif" font-size="10.00">Report.ExecuteAsync</text>
</a>
</g>
</g>
<!-- Node1&#45;&gt;Node31 -->
<g id="edge30" class="edge">
<title>Node1&#45;&gt;Node31</title>
<path fill="none" stroke="midnightblue" d="M335.37,-1054.1C334.94,-986.44 324.11,-800.22 223,-700.5 217.04,-694.62 210.06,-689.84 202.56,-685.95"/>
<polygon fill="midnightblue" stroke="midnightblue" points="331.87,-1054.26 335.37,-1064.26 338.87,-1054.27 331.87,-1054.26"/>
</g>
<!-- Node32 -->
<g id="node32" class="node">
<title>Node32</title>
<g id="a_node32"><a xlink:href="classApplication_1_1UseCases_1_1StudentDocuments_1_1UpdateStudentDocuments.html#a0aac0be387a2a1fc200962226a06ce8b" target="_top" xlink:title=" ">
<polygon fill="none" stroke="black" points="8.5,-589 8.5,-630 214.5,-630 214.5,-589 8.5,-589"/>
<text text-anchor="start" x="16.5" y="-618" font-family="Helvetica,sans-Serif" font-size="10.00">Application.UseCases.Student</text>
<text text-anchor="start" x="16.5" y="-607" font-family="Helvetica,sans-Serif" font-size="10.00">Documents.UpdateStudentDocuments.</text>
<text text-anchor="middle" x="111.5" y="-596" font-family="Helvetica,sans-Serif" font-size="10.00">ExecuteAsync</text>
</a>
</g>
</g>
<!-- Node1&#45;&gt;Node32 -->
<g id="edge31" class="edge">
<title>Node1&#45;&gt;Node32</title>
<path fill="none" stroke="midnightblue" d="M331.96,-1054.55C321.24,-970.58 282.59,-700.05 223,-639.5 219.51,-635.96 215.65,-632.82 211.53,-630.05"/>
<polygon fill="midnightblue" stroke="midnightblue" points="328.49,-1055 333.21,-1064.49 335.43,-1054.13 328.49,-1055"/>
</g>
<!-- Node33 -->
<g id="node33" class="node">
<title>Node33</title>
<g id="a_node33"><a xlink:href="classApplication_1_1UseCases_1_1Student_1_1UpdateStudent.html#a4360f5fa3462329a0e83499fbae31da2" target="_top" xlink:title=" ">
<polygon fill="none" stroke="black" points="28.5,-539.5 28.5,-569.5 194.5,-569.5 194.5,-539.5 28.5,-539.5"/>
<text text-anchor="start" x="36.5" y="-557.5" font-family="Helvetica,sans-Serif" font-size="10.00">Application.UseCases.Student.</text>
<text text-anchor="middle" x="111.5" y="-546.5" font-family="Helvetica,sans-Serif" font-size="10.00">UpdateStudent.ExecuteAsync</text>
</a>
</g>
</g>
<!-- Node1&#45;&gt;Node33 -->
<g id="edge32" class="edge">
<title>Node1&#45;&gt;Node33</title>
<path fill="none" stroke="midnightblue" d="M332.87,-1054.42C324.59,-962.84 291.53,-648.18 223,-579.5 215.08,-571.56 205.21,-565.92 194.65,-561.95"/>
<polygon fill="midnightblue" stroke="midnightblue" points="329.39,-1054.8 333.76,-1064.46 336.36,-1054.19 329.39,-1054.8"/>
</g>
<!-- Node34 -->
<g id="node34" class="node">
<title>Node34</title>
<g id="a_node34"><a xlink:href="classApplication_1_1UseCases_1_1Project_1_1SubmitProject.html#a862824304d6ea781ee6a3f6aa8908fa1" target="_top" xlink:title=" ">
<polygon fill="none" stroke="black" points="30.5,-490.5 30.5,-520.5 192.5,-520.5 192.5,-490.5 30.5,-490.5"/>
<text text-anchor="start" x="38.5" y="-508.5" font-family="Helvetica,sans-Serif" font-size="10.00">Application.UseCases.Project.</text>
<text text-anchor="middle" x="111.5" y="-497.5" font-family="Helvetica,sans-Serif" font-size="10.00">SubmitProject.ExecuteAsync</text>
</a>
</g>
</g>
<!-- Node1&#45;&gt;Node34 -->
<g id="edge33" class="edge">
<title>Node1&#45;&gt;Node34</title>
<path fill="none" stroke="midnightblue" d="M333.4,-1054.23C326.71,-956.75 297.78,-606.89 223,-530.5 214.61,-521.93 203.94,-516.02 192.56,-511.99"/>
<polygon fill="midnightblue" stroke="midnightblue" points="329.92,-1054.6 334.07,-1064.34 336.9,-1054.13 329.92,-1054.6"/>
</g>
<!-- Node35 -->
<g id="node35" class="node">
<title>Node35</title>
<g id="a_node35"><a xlink:href="classApplication_1_1UseCases_1_1Project_1_1AppealProject.html#a17198169866dee74174cf476362a125e" target="_top" xlink:title=" ">
<polygon fill="none" stroke="black" points="30.5,-441.5 30.5,-471.5 192.5,-471.5 192.5,-441.5 30.5,-441.5"/>
<text text-anchor="start" x="38.5" y="-459.5" font-family="Helvetica,sans-Serif" font-size="10.00">Application.UseCases.Project.</text>
<text text-anchor="middle" x="111.5" y="-448.5" font-family="Helvetica,sans-Serif" font-size="10.00">AppealProject.ExecuteAsync</text>
</a>
</g>
</g>
<!-- Node1&#45;&gt;Node35 -->
<g id="edge34" class="edge">
<title>Node1&#45;&gt;Node35</title>
<path fill="none" stroke="midnightblue" d="M333.86,-1054.34C328.71,-951.65 304.13,-565.72 223,-481.5 214.68,-472.86 204.04,-466.92 192.68,-462.88"/>
<polygon fill="midnightblue" stroke="midnightblue" points="330.37,-1054.59 334.35,-1064.41 337.36,-1054.25 330.37,-1054.59"/>
</g>
<!-- Node36 -->
<g id="node36" class="node">
<title>Node36</title>
<g id="a_node36"><a xlink:href="classApplication_1_1UseCases_1_1User_1_1MakeAdmin.html#a8e22ed6162e464ed6f119bd0c5272c01" target="_top" xlink:title=" ">
<polygon fill="none" stroke="black" points="36.5,-392.5 36.5,-422.5 186.5,-422.5 186.5,-392.5 36.5,-392.5"/>
<text text-anchor="start" x="44.5" y="-410.5" font-family="Helvetica,sans-Serif" font-size="10.00">Application.UseCases.User.</text>
<text text-anchor="middle" x="111.5" y="-399.5" font-family="Helvetica,sans-Serif" font-size="10.00">MakeAdmin.ExecuteAsync</text>
</a>
</g>
</g>
<!-- Node1&#45;&gt;Node36 -->
<g id="edge35" class="edge">
<title>Node1&#45;&gt;Node36</title>
<path fill="none" stroke="midnightblue" d="M334.24,-1054.06C330.49,-945.77 310.4,-524.49 223,-432.5 213.25,-422.23 200.24,-415.76 186.58,-411.77"/>
<polygon fill="midnightblue" stroke="midnightblue" points="330.75,-1054.48 334.58,-1064.36 337.75,-1054.25 330.75,-1054.48"/>
</g>
<!-- Node37 -->
<g id="node37" class="node">
<title>Node37</title>
<g id="a_node37"><a xlink:href="classApplication_1_1UseCases_1_1User_1_1MakeCoordinator.html#a2a87ccc47e461221b01a53607d76ebd2" target="_top" xlink:title="Torna o usuário um coordenador e faz com que o coordenador anterior seja desativado.">
<polygon fill="none" stroke="black" points="26.5,-343.5 26.5,-373.5 196.5,-373.5 196.5,-343.5 26.5,-343.5"/>
<text text-anchor="start" x="34.5" y="-361.5" font-family="Helvetica,sans-Serif" font-size="10.00">Application.UseCases.User.</text>
<text text-anchor="middle" x="111.5" y="-350.5" font-family="Helvetica,sans-Serif" font-size="10.00">MakeCoordinator.ExecuteAsync</text>
</a>
</g>
</g>
<!-- Node1&#45;&gt;Node37 -->
<g id="edge36" class="edge">
<title>Node1&#45;&gt;Node37</title>
<path fill="none" stroke="midnightblue" d="M334.59,-1054.34C332.21,-941.52 316.84,-483.45 223,-383.5 215.73,-375.76 206.61,-370.17 196.74,-366.17"/>
<polygon fill="midnightblue" stroke="midnightblue" points="331.09,-1054.5 334.78,-1064.43 338.09,-1054.37 331.09,-1054.5"/>
</g>
<!-- Node38 -->
<g id="node38" class="node">
<title>Node38</title>
<g id="a_node38"><a xlink:href="classApplication_1_1UseCases_1_1Project_1_1GetProjectsToEvaluate.html#a9cdeb5075e293294bd37fa63a1544473" target="_top" xlink:title="Retorna todos os projetos que foram submetidos ou cuja documentação foi fornecida e estão aguardando ...">
<polygon fill="none" stroke="black" points="13,-294.5 13,-324.5 210,-324.5 210,-294.5 13,-294.5"/>
<text text-anchor="start" x="21" y="-312.5" font-family="Helvetica,sans-Serif" font-size="10.00">Application.UseCases.Project.</text>
<text text-anchor="middle" x="111.5" y="-301.5" font-family="Helvetica,sans-Serif" font-size="10.00">GetProjectsToEvaluate.ExecuteAsync</text>
</a>
</g>
</g>
<!-- Node1&#45;&gt;Node38 -->
<g id="edge37" class="edge">
<title>Node1&#45;&gt;Node38</title>
<path fill="none" stroke="midnightblue" d="M334.88,-1054.1C333.78,-936.07 323.16,-442.28 223,-334.5 219.25,-330.47 215,-327.01 210.4,-324.07"/>
<polygon fill="midnightblue" stroke="midnightblue" points="331.38,-1054.35 334.96,-1064.33 338.38,-1054.3 331.38,-1054.35"/>
</g>
<!-- Node39 -->
<g id="node39" class="node">
<title>Node39</title>
<g id="a_node39"><a xlink:href="classApplication_1_1UseCases_1_1Project_1_1GetClosedProjects.html#a3b375e5677c9e9c360b89d10f96b3280" target="_top" xlink:title=" ">
<polygon fill="none" stroke="black" points="23.5,-245.5 23.5,-275.5 199.5,-275.5 199.5,-245.5 23.5,-245.5"/>
<text text-anchor="start" x="31.5" y="-263.5" font-family="Helvetica,sans-Serif" font-size="10.00">Application.UseCases.Project.</text>
<text text-anchor="middle" x="111.5" y="-252.5" font-family="Helvetica,sans-Serif" font-size="10.00">GetClosedProjects.ExecuteAsync</text>
</a>
</g>
</g>
<!-- Node1&#45;&gt;Node39 -->
<g id="edge38" class="edge">
<title>Node1&#45;&gt;Node39</title>
<path fill="none" stroke="midnightblue" d="M335.14,-1054.02C335.26,-931.18 329.54,-401.19 223,-285.5 216.47,-278.41 208.39,-273.12 199.6,-269.2"/>
<polygon fill="midnightblue" stroke="midnightblue" points="331.64,-1054.3 335.11,-1064.31 338.64,-1054.32 331.64,-1054.3"/>
</g>
<!-- Node40 -->
<g id="node40" class="node">
<title>Node40</title>
<g id="a_node40"><a xlink:href="classApplication_1_1UseCases_1_1Project_1_1GetOpenProjects.html#a78bfa5d1da8ee0281ce67a26284a5306" target="_top" xlink:title=" ">
<polygon fill="none" stroke="black" points="27,-196.5 27,-226.5 196,-226.5 196,-196.5 27,-196.5"/>
<text text-anchor="start" x="35" y="-214.5" font-family="Helvetica,sans-Serif" font-size="10.00">Application.UseCases.Project.</text>
<text text-anchor="middle" x="111.5" y="-203.5" font-family="Helvetica,sans-Serif" font-size="10.00">GetOpenProjects.ExecuteAsync</text>
</a>
</g>
</g>
<!-- Node1&#45;&gt;Node40 -->
<g id="edge39" class="edge">
<title>Node1&#45;&gt;Node40</title>
<path fill="none" stroke="midnightblue" d="M335.37,-1054.1C336.67,-926.87 335.97,-360.17 223,-236.5 215.64,-228.44 206.27,-222.7 196.12,-218.65"/>
<polygon fill="midnightblue" stroke="midnightblue" points="331.86,-1054.35 335.25,-1064.39 338.86,-1054.43 331.86,-1054.35"/>
</g>
<!-- Node41 -->
<g id="node41" class="node">
<title>Node41</title>
<g id="a_node41"><a xlink:href="classApplication_1_1UseCases_1_1Project_1_1OpenProject.html#a8b2fe42bad132482a4816eb3a0969750" target="_top" xlink:title=" ">
<polygon fill="none" stroke="black" points="30.5,-147.5 30.5,-177.5 192.5,-177.5 192.5,-147.5 30.5,-147.5"/>
<text text-anchor="start" x="38.5" y="-165.5" font-family="Helvetica,sans-Serif" font-size="10.00">Application.UseCases.Project.</text>
<text text-anchor="middle" x="111.5" y="-154.5" font-family="Helvetica,sans-Serif" font-size="10.00">OpenProject.ExecuteAsync</text>
</a>
</g>
</g>
<!-- Node1&#45;&gt;Node41 -->
<g id="edge40" class="edge">
<title>Node1&#45;&gt;Node41</title>
<path fill="none" stroke="midnightblue" d="M333.53,-1054.12C325.3,-915.5 283.04,-253.7 223,-187.5 214.81,-178.47 204.1,-172.34 192.58,-168.25"/>
<polygon fill="midnightblue" stroke="midnightblue" points="330.05,-1054.43 334.13,-1064.21 337.03,-1054.02 330.05,-1054.43"/>
</g>
<!-- Node42 -->
<g id="node42" class="node">
<title>Node42</title>
<g id="a_node42"><a xlink:href="classApplication_1_1UseCases_1_1Student_1_1RequestStudentRegister.html#ab5b1955982b361c7018264a8a3aff568" target="_top" xlink:title=" ">
<polygon fill="none" stroke="black" points="9.5,-98.5 9.5,-128.5 213.5,-128.5 213.5,-98.5 9.5,-98.5"/>
<text text-anchor="start" x="17.5" y="-116.5" font-family="Helvetica,sans-Serif" font-size="10.00">Application.UseCases.Student.</text>
<text text-anchor="middle" x="111.5" y="-105.5" font-family="Helvetica,sans-Serif" font-size="10.00">RequestStudentRegister.ExecuteAsync</text>
</a>
</g>
</g>
<!-- Node1&#45;&gt;Node42 -->
<g id="edge41" class="edge">
<title>Node1&#45;&gt;Node42</title>
<path fill="none" stroke="midnightblue" d="M333.71,-1054.11C326.19,-910.98 286.26,-208.71 223,-138.5 219.58,-134.7 215.71,-131.42 211.52,-128.58"/>
<polygon fill="midnightblue" stroke="midnightblue" points="330.23,-1054.68 334.25,-1064.49 337.22,-1054.32 330.23,-1054.68"/>
</g>
<!-- Node43 -->
<g id="node43" class="node">
<title>Node43</title>
<g id="a_node43"><a xlink:href="classApplication_1_1UseCases_1_1Auth_1_1Login.html#a4295a8cc56b59a5c4d75cba4d40d7091" target="_top" xlink:title=" ">
<polygon fill="none" stroke="black" points="36,-49.5 36,-79.5 187,-79.5 187,-49.5 36,-49.5"/>
<text text-anchor="start" x="44" y="-67.5" font-family="Helvetica,sans-Serif" font-size="10.00">Application.UseCases.Auth.</text>
<text text-anchor="middle" x="111.5" y="-56.5" font-family="Helvetica,sans-Serif" font-size="10.00">Login.ExecuteAsync</text>
</a>
</g>
</g>
<!-- Node1&#45;&gt;Node43 -->
<g id="edge42" class="edge">
<title>Node1&#45;&gt;Node43</title>
<path fill="none" stroke="midnightblue" d="M333.87,-1054.19C327.05,-906.86 289.5,-163.74 223,-89.5 213.55,-78.95 200.68,-72.36 187.05,-68.33"/>
<polygon fill="midnightblue" stroke="midnightblue" points="330.38,-1054.64 334.34,-1064.47 337.38,-1054.32 330.38,-1054.64"/>
</g>
<!-- Node44 -->
<g id="node44" class="node">
<title>Node44</title>
<g id="a_node44"><a xlink:href="classApplication_1_1UseCases_1_1Auth_1_1ResetPassword.html#ac5ae2cc13974ce8187acdd136dab11ba" target="_top" xlink:title=" ">
<polygon fill="none" stroke="black" points="31,-0.5 31,-30.5 192,-30.5 192,-0.5 31,-0.5"/>
<text text-anchor="start" x="39" y="-18.5" font-family="Helvetica,sans-Serif" font-size="10.00">Application.UseCases.Auth.</text>
<text text-anchor="middle" x="111.5" y="-7.5" font-family="Helvetica,sans-Serif" font-size="10.00">ResetPassword.ExecuteAsync</text>
</a>
</g>
</g>
<!-- Node1&#45;&gt;Node44 -->
<g id="edge43" class="edge">
<title>Node1&#45;&gt;Node44</title>
<path fill="none" stroke="midnightblue" d="M334,-1053.89C327.8,-901.55 292.69,-118.72 223,-40.5 214.76,-31.25 203.88,-25.04 192.16,-20.93"/>
<polygon fill="midnightblue" stroke="midnightblue" points="330.51,-1054.27 334.41,-1064.12 337.5,-1053.99 330.51,-1054.27"/>
</g>
</g>
</svg>
