<?xml version="1.0" encoding="UTF-8" standalone="no"?>
<!DOCTYPE svg PUBLIC "-//W3C//DTD SVG 1.1//EN"
 "http://www.w3.org/Graphics/SVG/1.1/DTD/svg11.dtd">
<!-- Generated by graphviz version 9.0.0 (20230911.1827)
 -->
<!-- Title: Persistence.Repositories.CampusRepository.DeleteAsync Pages: 1 -->
<svg width="367pt" height="137pt"
 viewBox="0.00 0.00 367.00 136.50" xmlns="http://www.w3.org/2000/svg" xmlns:xlink="http://www.w3.org/1999/xlink">
<g id="graph0" class="graph" transform="scale(1 1) rotate(0) translate(4 132.5)">
<title>Persistence.Repositories.CampusRepository.DeleteAsync</title>
<!-- Node1 -->
<g id="Node000001" class="node">
<title>Node1</title>
<g id="a_Node000001"><a xlink:title=" ">
<polygon fill="#999999" stroke="#666666" points="157.75,-79.5 0,-79.5 0,-49 157.75,-49 157.75,-79.5"/>
<text text-anchor="start" x="8" y="-66" font-family="Helvetica,sans-Serif" font-size="10.00">Persistence.Repositories.</text>
<text text-anchor="middle" x="78.88" y="-54.75" font-family="Helvetica,sans-Serif" font-size="10.00">CampusRepository.DeleteAsync</text>
</a>
</g>
</g>
<!-- Node2 -->
<g id="Node000002" class="node">
<title>Node2</title>
<g id="a_Node000002"><a xlink:href="class_domain_1_1_entities_1_1_primitives_1_1_entity.html#a3a368e3c302f8622ea0305003ef2a5eb" target="_top" xlink:title=" ">
<polygon fill="white" stroke="#666666" points="344,-128.5 208.75,-128.5 208.75,-98 344,-98 344,-128.5"/>
<text text-anchor="start" x="216.75" y="-115" font-family="Helvetica,sans-Serif" font-size="10.00">Domain.Entities.Primitives.</text>
<text text-anchor="middle" x="276.38" y="-103.75" font-family="Helvetica,sans-Serif" font-size="10.00">Entity.DeactivateEntity</text>
</a>
</g>
</g>
<!-- Node1&#45;&gt;Node2 -->
<g id="edge1_Node000001_Node000002" class="edge">
<title>Node1&#45;&gt;Node2</title>
<g id="a_edge1_Node000001_Node000002"><a xlink:title=" ">
<path fill="none" stroke="#63b8ff" d="M142.54,-79.96C161.39,-84.68 182.25,-89.91 201.75,-94.8"/>
<polygon fill="#63b8ff" stroke="#63b8ff" points="200.71,-98.14 211.26,-97.18 202.41,-91.35 200.71,-98.14"/>
</a>
</g>
</g>
<!-- Node3 -->
<g id="Node000003" class="node">
<title>Node3</title>
<g id="a_Node000003"><a xlink:href="class_persistence_1_1_repositories_1_1_campus_repository.html#ae1349938b2a380175d11b3aa1246fe71" target="_top" xlink:title=" ">
<polygon fill="white" stroke="#666666" points="359,-79.5 193.75,-79.5 193.75,-49 359,-49 359,-79.5"/>
<text text-anchor="start" x="201.75" y="-66" font-family="Helvetica,sans-Serif" font-size="10.00">Persistence.Repositories.</text>
<text text-anchor="middle" x="276.38" y="-54.75" font-family="Helvetica,sans-Serif" font-size="10.00">CampusRepository.GetByIdAsync</text>
</a>
</g>
</g>
<!-- Node1&#45;&gt;Node3 -->
<g id="edge2_Node000001_Node000003" class="edge">
<title>Node1&#45;&gt;Node3</title>
<g id="a_edge2_Node000001_Node000003"><a xlink:title=" ">
<path fill="none" stroke="#63b8ff" d="M157.98,-64.25C165.94,-64.25 174.07,-64.25 182.16,-64.25"/>
<polygon fill="#63b8ff" stroke="#63b8ff" points="182.03,-67.75 192.03,-64.25 182.03,-60.75 182.03,-67.75"/>
</a>
</g>
</g>
<!-- Node4 -->
<g id="Node000004" class="node">
<title>Node4</title>
<g id="a_Node000004"><a xlink:href="class_persistence_1_1_repositories_1_1_campus_repository.html#a3f57bc3244c59213970f9fa51a0adb15" target="_top" xlink:title=" ">
<polygon fill="white" stroke="#666666" points="356.75,-30.5 196,-30.5 196,0 356.75,0 356.75,-30.5"/>
<text text-anchor="start" x="204" y="-17" font-family="Helvetica,sans-Serif" font-size="10.00">Persistence.Repositories.</text>
<text text-anchor="middle" x="276.38" y="-5.75" font-family="Helvetica,sans-Serif" font-size="10.00">CampusRepository.UpdateAsync</text>
</a>
</g>
</g>
<!-- Node1&#45;&gt;Node4 -->
<g id="edge3_Node000001_Node000004" class="edge">
<title>Node1&#45;&gt;Node4</title>
<g id="a_edge3_Node000001_Node000004"><a xlink:title=" ">
<path fill="none" stroke="#63b8ff" d="M142.54,-48.54C161.39,-43.82 182.25,-38.59 201.75,-33.7"/>
<polygon fill="#63b8ff" stroke="#63b8ff" points="202.41,-37.15 211.26,-31.32 200.71,-30.36 202.41,-37.15"/>
</a>
</g>
</g>
</g>
</svg>
