<?xml version="1.0" encoding="UTF-8" standalone="no"?>
<!DOCTYPE svg PUBLIC "-//W3C//DTD SVG 1.1//EN"
 "http://www.w3.org/Graphics/SVG/1.1/DTD/svg11.dtd">
<!-- Generated by graphviz version 2.43.0 (0)
 -->
<!-- Title: EntityExceptionValidation.When Pages: 1 -->
<svg width="387pt" height="88pt"
 viewBox="0.00 0.00 387.00 88.00" xmlns="http://www.w3.org/2000/svg" xmlns:xlink="http://www.w3.org/1999/xlink">
<g id="graph0" class="graph" transform="scale(1 1) rotate(0) translate(4 84)">
<title>EntityExceptionValidation.When</title>
<!-- Node1 -->
<g id="node1" class="node">
<title>Node1</title>
<g id="a_node1"><a xlink:title=" ">
<polygon fill="#bfbfbf" stroke="black" points="206,-30 206,-49 379,-49 379,-30 206,-30"/>
<text text-anchor="middle" x="292.5" y="-37" font-family="Helvetica,sans-Serif" font-size="10.00">EntityExceptionValidation.When</text>
</a>
</g>
</g>
<!-- Node2 -->
<g id="node2" class="node">
<title>Node2</title>
<g id="a_node2"><a xlink:href="classDomain_1_1Entities_1_1ProjectActivity.html#a176bf85612a6477de9670920f21dfaa7" target="_top" xlink:title="Calcula a pontuação da Atividade.">
<polygon fill="none" stroke="black" points="0,-49.5 0,-79.5 170,-79.5 170,-49.5 0,-49.5"/>
<text text-anchor="start" x="8" y="-67.5" font-family="Helvetica,sans-Serif" font-size="10.00">Domain.Entities.ProjectActivity.</text>
<text text-anchor="middle" x="85" y="-56.5" font-family="Helvetica,sans-Serif" font-size="10.00">CalculatePoints</text>
</a>
</g>
</g>
<!-- Node1&#45;&gt;Node2 -->
<g id="edge1" class="edge">
<title>Node1&#45;&gt;Node2</title>
<path fill="none" stroke="midnightblue" d="M203.24,-50.24C192.29,-51.57 181.11,-52.93 170.22,-54.25"/>
<polygon fill="midnightblue" stroke="midnightblue" points="203.72,-53.7 213.22,-49.02 202.87,-46.76 203.72,-53.7"/>
</g>
<!-- Node3 -->
<g id="node3" class="node">
<title>Node3</title>
<g id="a_node3"><a xlink:href="classDomain_1_1Entities_1_1User.html#a1255c592fab4db26d28d7d190f96105e" target="_top" xlink:title=" ">
<polygon fill="none" stroke="black" points="4.5,-0.5 4.5,-30.5 165.5,-30.5 165.5,-0.5 4.5,-0.5"/>
<text text-anchor="start" x="12.5" y="-18.5" font-family="Helvetica,sans-Serif" font-size="10.00">Domain.Entities.User.Confirm</text>
<text text-anchor="middle" x="85" y="-7.5" font-family="Helvetica,sans-Serif" font-size="10.00">UserEmail</text>
</a>
</g>
</g>
<!-- Node1&#45;&gt;Node3 -->
<g id="edge2" class="edge">
<title>Node1&#45;&gt;Node3</title>
<path fill="none" stroke="midnightblue" d="M200.01,-28.81C188.58,-27.48 176.97,-26.12 165.74,-24.81"/>
<polygon fill="midnightblue" stroke="midnightblue" points="199.65,-32.3 209.99,-29.98 200.46,-25.34 199.65,-32.3"/>
</g>
</g>
</svg>
