<?xml version="1.0" encoding="UTF-8" standalone="no"?>
<!DOCTYPE svg PUBLIC "-//W3C//DTD SVG 1.1//EN"
 "http://www.w3.org/Graphics/SVG/1.1/DTD/svg11.dtd">
<!-- Generated by graphviz version 9.0.0 (20230911.1827)
 -->
<!-- Title: Application.UseCases.Student.RequestStudentRegister.ExecuteAsync Pages: 1 -->
<svg width="658pt" height="137pt"
 viewBox="0.00 0.00 658.25 136.50" xmlns="http://www.w3.org/2000/svg" xmlns:xlink="http://www.w3.org/1999/xlink">
<g id="graph0" class="graph" transform="scale(1 1) rotate(0) translate(4 132.5)">
<title>Application.UseCases.Student.RequestStudentRegister.ExecuteAsync</title>
<!-- Node1 -->
<g id="Node000001" class="node">
<title>Node1</title>
<g id="a_Node000001"><a xlink:title=" ">
<polygon fill="#999999" stroke="#666666" points="189.25,-79.5 0,-79.5 0,-49 189.25,-49 189.25,-79.5"/>
<text text-anchor="start" x="8" y="-66" font-family="Helvetica,sans-Serif" font-size="10.00">Application.UseCases.Student.</text>
<text text-anchor="middle" x="94.62" y="-54.75" font-family="Helvetica,sans-Serif" font-size="10.00">RequestStudentRegister.ExecuteAsync</text>
</a>
</g>
</g>
<!-- Node2 -->
<g id="Node000002" class="node">
<title>Node2</title>
<g id="a_Node000002"><a xlink:href="class_application_1_1_validation_1_1_use_case_exception.html#abdfb0053369c84d85c471ad55011c4c4" target="_top" xlink:title=" ">
<polygon fill="white" stroke="#666666" points="426.5,-128.5 242.5,-128.5 242.5,-98 426.5,-98 426.5,-128.5"/>
<text text-anchor="start" x="250.5" y="-115" font-family="Helvetica,sans-Serif" font-size="10.00">Application.Validation.Use</text>
<text text-anchor="middle" x="334.5" y="-103.75" font-family="Helvetica,sans-Serif" font-size="10.00">CaseException.BusinessRuleViolation</text>
</a>
</g>
</g>
<!-- Node1&#45;&gt;Node2 -->
<g id="edge1_Node000001_Node000002" class="edge">
<title>Node1&#45;&gt;Node2</title>
<g id="a_edge1_Node000001_Node000002"><a xlink:title=" ">
<path fill="none" stroke="#63b8ff" d="M171.87,-79.96C195.56,-84.84 221.85,-90.25 246.23,-95.27"/>
<polygon fill="#63b8ff" stroke="#63b8ff" points="245.29,-98.65 255.79,-97.24 246.71,-91.8 245.29,-98.65"/>
</a>
</g>
</g>
<!-- Node3 -->
<g id="Node000003" class="node">
<title>Node3</title>
<g id="a_Node000003"><a xlink:href="class_application_1_1_validation_1_1_use_case_exception.html#a640987a86719d6afd8278fdbf578ab57" target="_top" xlink:title=" ">
<polygon fill="white" stroke="#666666" points="418.62,-79.5 250.38,-79.5 250.38,-49 418.62,-49 418.62,-79.5"/>
<text text-anchor="start" x="258.38" y="-66" font-family="Helvetica,sans-Serif" font-size="10.00">Application.Validation.Use</text>
<text text-anchor="middle" x="334.5" y="-54.75" font-family="Helvetica,sans-Serif" font-size="10.00">CaseException.NotInformedParam</text>
</a>
</g>
</g>
<!-- Node1&#45;&gt;Node3 -->
<g id="edge2_Node000001_Node000003" class="edge">
<title>Node1&#45;&gt;Node3</title>
<g id="a_edge2_Node000001_Node000003"><a xlink:title=" ">
<path fill="none" stroke="#63b8ff" d="M189.64,-64.25C205.89,-64.25 222.79,-64.25 239.05,-64.25"/>
<polygon fill="#63b8ff" stroke="#63b8ff" points="238.67,-67.75 248.67,-64.25 238.67,-60.75 238.67,-67.75"/>
</a>
</g>
</g>
<!-- Node5 -->
<g id="Node000005" class="node">
<title>Node5</title>
<g id="a_Node000005"><a xlink:href="class_application_1_1_use_cases_1_1_student_1_1_request_student_register.html#ae0a6d0ab5ae0a3b2f346e394ce1aa743" target="_top" xlink:title="Verifica se o e&#45;mail informado é válido para o estudante. Padrões aceitos:">
<polygon fill="white" stroke="#666666" points="443.75,-30.5 225.25,-30.5 225.25,0 443.75,0 443.75,-30.5"/>
<text text-anchor="start" x="233.25" y="-17" font-family="Helvetica,sans-Serif" font-size="10.00">Application.UseCases.Student.</text>
<text text-anchor="middle" x="334.5" y="-5.75" font-family="Helvetica,sans-Serif" font-size="10.00">RequestStudentRegister.ValidateStudentEmail</text>
</a>
</g>
</g>
<!-- Node1&#45;&gt;Node5 -->
<g id="edge4_Node000001_Node000005" class="edge">
<title>Node1&#45;&gt;Node5</title>
<g id="a_edge4_Node000001_Node000005"><a xlink:title=" ">
<path fill="none" stroke="#63b8ff" d="M171.87,-48.54C195.56,-43.66 221.85,-38.25 246.23,-33.23"/>
<polygon fill="#63b8ff" stroke="#63b8ff" points="246.71,-36.7 255.79,-31.26 245.29,-29.85 246.71,-36.7"/>
</a>
</g>
</g>
<!-- Node4 -->
<g id="Node000004" class="node">
<title>Node4</title>
<g id="a_Node000004"><a xlink:href="class_application_1_1_validation_1_1_use_case_exception.html#ad2defa29da6c9eee2864794300f152ae" target="_top" xlink:title=" ">
<polygon fill="white" stroke="#666666" points="650.25,-79.5 479.75,-79.5 479.75,-49 650.25,-49 650.25,-79.5"/>
<text text-anchor="start" x="487.75" y="-66" font-family="Helvetica,sans-Serif" font-size="10.00">Application.Validation.Use</text>
<text text-anchor="middle" x="565" y="-54.75" font-family="Helvetica,sans-Serif" font-size="10.00">CaseException.UseCaseException</text>
</a>
</g>
</g>
<!-- Node3&#45;&gt;Node4 -->
<g id="edge3_Node000003_Node000004" class="edge">
<title>Node3&#45;&gt;Node4</title>
<g id="a_edge3_Node000003_Node000004"><a xlink:title=" ">
<path fill="none" stroke="#63b8ff" d="M418.96,-64.25C435.02,-64.25 451.95,-64.25 468.36,-64.25"/>
<polygon fill="#63b8ff" stroke="#63b8ff" points="468.1,-67.75 478.1,-64.25 468.1,-60.75 468.1,-67.75"/>
</a>
</g>
</g>
</g>
</svg>
