<?xml version="1.0" encoding="UTF-8" standalone="no"?>
<!DOCTYPE svg PUBLIC "-//W3C//DTD SVG 1.1//EN"
 "http://www.w3.org/Graphics/SVG/1.1/DTD/svg11.dtd">
<!-- Generated by graphviz version 9.0.0 (20230911.1827)
 -->
<!-- Title: Application.UseCases.Auth.ConfirmEmail.ExecuteAsync Pages: 1 -->
<svg width="561pt" height="98pt"
 viewBox="0.00 0.00 560.75 98.12" xmlns="http://www.w3.org/2000/svg" xmlns:xlink="http://www.w3.org/1999/xlink">
<g id="graph0" class="graph" transform="scale(1 1) rotate(0) translate(4 94.12)">
<title>Application.UseCases.Auth.ConfirmEmail.ExecuteAsync</title>
<!-- Node1 -->
<g id="Node000001" class="node">
<title>Node1</title>
<g id="a_Node000001"><a xlink:title=" ">
<polygon fill="#999999" stroke="#666666" points="142,-57.5 0,-57.5 0,-27 142,-27 142,-57.5"/>
<text text-anchor="start" x="8" y="-44" font-family="Helvetica,sans-Serif" font-size="10.00">Application.UseCases.Auth.</text>
<text text-anchor="middle" x="71" y="-32.75" font-family="Helvetica,sans-Serif" font-size="10.00">ConfirmEmail.ExecuteAsync</text>
</a>
</g>
</g>
<!-- Node2 -->
<g id="Node000002" class="node">
<title>Node2</title>
<g id="a_Node000002"><a xlink:href="class_application_1_1_validation_1_1_use_case_exception.html#aa0bb937013c6f2f6786ca9ae0fed6f28" target="_top" xlink:title=" ">
<polygon fill="white" stroke="#666666" points="345.12,-90.12 179.12,-90.12 179.12,-48.38 345.12,-48.38 345.12,-90.12"/>
<text text-anchor="start" x="187.12" y="-76.62" font-family="Helvetica,sans-Serif" font-size="10.00">Application.Validation.Use</text>
<text text-anchor="start" x="187.12" y="-65.38" font-family="Helvetica,sans-Serif" font-size="10.00">CaseException.NotFoundEntityBy</text>
<text text-anchor="middle" x="262.12" y="-54.12" font-family="Helvetica,sans-Serif" font-size="10.00">Params</text>
</a>
</g>
</g>
<!-- Node1&#45;&gt;Node2 -->
<g id="edge1_Node000001_Node000002" class="edge">
<title>Node1&#45;&gt;Node2</title>
<g id="a_edge1_Node000001_Node000002"><a xlink:title=" ">
<path fill="none" stroke="#63b8ff" d="M142.42,-52.3C150.67,-53.48 159.19,-54.7 167.69,-55.91"/>
<polygon fill="#63b8ff" stroke="#63b8ff" points="166.95,-59.34 177.34,-57.29 167.93,-52.41 166.95,-59.34"/>
</a>
</g>
</g>
<!-- Node3 -->
<g id="Node000003" class="node">
<title>Node3</title>
<g id="a_Node000003"><a xlink:href="class_application_1_1_validation_1_1_use_case_exception.html#a640987a86719d6afd8278fdbf578ab57" target="_top" xlink:title=" ">
<polygon fill="white" stroke="#666666" points="346.25,-30.5 178,-30.5 178,0 346.25,0 346.25,-30.5"/>
<text text-anchor="start" x="186" y="-17" font-family="Helvetica,sans-Serif" font-size="10.00">Application.Validation.Use</text>
<text text-anchor="middle" x="262.12" y="-5.75" font-family="Helvetica,sans-Serif" font-size="10.00">CaseException.NotInformedParam</text>
</a>
</g>
</g>
<!-- Node1&#45;&gt;Node3 -->
<g id="edge2_Node000001_Node000003" class="edge">
<title>Node1&#45;&gt;Node3</title>
<g id="a_edge2_Node000001_Node000003"><a xlink:title=" ">
<path fill="none" stroke="#63b8ff" d="M142.42,-32.2C150.2,-31.09 158.22,-29.94 166.24,-28.8"/>
<polygon fill="#63b8ff" stroke="#63b8ff" points="166.65,-32.27 176.05,-27.4 165.66,-25.34 166.65,-32.27"/>
</a>
</g>
</g>
<!-- Node4 -->
<g id="Node000004" class="node">
<title>Node4</title>
<g id="a_Node000004"><a xlink:href="class_application_1_1_validation_1_1_use_case_exception.html#ad2defa29da6c9eee2864794300f152ae" target="_top" xlink:title=" ">
<polygon fill="white" stroke="#666666" points="552.75,-30.5 382.25,-30.5 382.25,0 552.75,0 552.75,-30.5"/>
<text text-anchor="start" x="390.25" y="-17" font-family="Helvetica,sans-Serif" font-size="10.00">Application.Validation.Use</text>
<text text-anchor="middle" x="467.5" y="-5.75" font-family="Helvetica,sans-Serif" font-size="10.00">CaseException.UseCaseException</text>
</a>
</g>
</g>
<!-- Node3&#45;&gt;Node4 -->
<g id="edge3_Node000003_Node000004" class="edge">
<title>Node3&#45;&gt;Node4</title>
<g id="a_edge3_Node000003_Node000004"><a xlink:title=" ">
<path fill="none" stroke="#63b8ff" d="M346.73,-15.25C354.62,-15.25 362.66,-15.25 370.66,-15.25"/>
<polygon fill="#63b8ff" stroke="#63b8ff" points="370.39,-18.75 380.39,-15.25 370.39,-11.75 370.39,-18.75"/>
</a>
</g>
</g>
</g>
</svg>
