<?xml version="1.0" encoding="UTF-8" standalone="no"?>
<!DOCTYPE svg PUBLIC "-//W3C//DTD SVG 1.1//EN"
 "http://www.w3.org/Graphics/SVG/1.1/DTD/svg11.dtd">
<!-- Generated by graphviz version 8.1.0 (20230707.0739)
 -->
<!-- Title: src.domain.interfaces.services.text_recognition_service_interface.ITextRecognitionService Pages: 1 -->
<svg width="181pt" height="183pt"
 viewBox="0.00 0.00 180.75 182.75" xmlns="http://www.w3.org/2000/svg" xmlns:xlink="http://www.w3.org/1999/xlink">
<g id="graph0" class="graph" transform="scale(1 1) rotate(0) translate(4 178.75)">
<title>src.domain.interfaces.services.text_recognition_service_interface.ITextRecognitionService</title>
<!-- Node1 -->
<g id="Node000001" class="node">
<title>Node1</title>
<g id="a_Node000001"><a xlink:title=" ">
<polygon fill="#999999" stroke="#666666" points="172.75,-119.5 0,-119.5 0,-77.75 172.75,-77.75 172.75,-119.5"/>
<text text-anchor="start" x="8" y="-106" font-family="Helvetica,sans-Serif" font-size="10.00">src.domain.interfaces.services.text</text>
<text text-anchor="start" x="8" y="-94.75" font-family="Helvetica,sans-Serif" font-size="10.00">_recognition_service_interface.IText</text>
<text text-anchor="middle" x="86.38" y="-83.5" font-family="Helvetica,sans-Serif" font-size="10.00">RecognitionService</text>
</a>
</g>
</g>
<!-- Node3 -->
<g id="Node000003" class="node">
<title>Node3</title>
<g id="a_Node000003"><a xlink:href="classsrc_1_1infra_1_1external__services_1_1text__recognition__service_1_1_text_recognition_service.html" target="_top" xlink:title=" ">
<polygon fill="white" stroke="#666666" points="166,-41.75 6.75,-41.75 6.75,0 166,0 166,-41.75"/>
<text text-anchor="start" x="14.75" y="-28.25" font-family="Helvetica,sans-Serif" font-size="10.00">src.infra.external</text>
<text text-anchor="start" x="14.75" y="-17" font-family="Helvetica,sans-Serif" font-size="10.00">_services.text_recognition</text>
<text text-anchor="middle" x="86.38" y="-5.75" font-family="Helvetica,sans-Serif" font-size="10.00">_service.TextRecognitionService</text>
</a>
</g>
</g>
<!-- Node1&#45;&gt;Node3 -->
<g id="edge2_Node000001_Node000003" class="edge">
<title>Node1&#45;&gt;Node3</title>
<g id="a_edge2_Node000001_Node000003"><a xlink:title=" ">
<path fill="none" stroke="#63b8ff" d="M86.38,-66.56C86.38,-58.36 86.38,-49.71 86.38,-42.23"/>
<polygon fill="#63b8ff" stroke="#63b8ff" points="82.88,-66.33 86.38,-76.33 89.88,-66.33 82.88,-66.33"/>
</a>
</g>
</g>
<!-- Node2 -->
<g id="Node000002" class="node">
<title>Node2</title>
<g id="a_Node000002"><a xlink:title=" ">
<polygon fill="white" stroke="#666666" points="104.88,-174.75 67.88,-174.75 67.88,-155.5 104.88,-155.5 104.88,-174.75"/>
<text text-anchor="middle" x="86.38" y="-161.25" font-family="Helvetica,sans-Serif" font-size="10.00">ABC</text>
</a>
</g>
</g>
<!-- Node2&#45;&gt;Node1 -->
<g id="edge1_Node000001_Node000002" class="edge">
<title>Node2&#45;&gt;Node1</title>
<g id="a_edge1_Node000001_Node000002"><a xlink:title=" ">
<path fill="none" stroke="#63b8ff" d="M86.38,-144.25C86.38,-136.53 86.38,-127.69 86.38,-119.93"/>
<polygon fill="#63b8ff" stroke="#63b8ff" points="82.88,-144.16 86.38,-154.16 89.88,-144.16 82.88,-144.16"/>
</a>
</g>
</g>
</g>
</svg>
