<?xml version="1.0" encoding="UTF-8" standalone="no"?>
<!DOCTYPE svg PUBLIC "-//W3C//DTD SVG 1.1//EN"
 "http://www.w3.org/Graphics/SVG/1.1/DTD/svg11.dtd">
<!-- Generated by graphviz version 9.0.0 (20230911.1827)
 -->
<!-- Title: Application.UseCases.ProgramType.GetProgramTypeById.ExecuteAsync Pages: 1 -->
<svg width="619pt" height="39pt"
 viewBox="0.00 0.00 619.25 38.50" xmlns="http://www.w3.org/2000/svg" xmlns:xlink="http://www.w3.org/1999/xlink">
<g id="graph0" class="graph" transform="scale(1 1) rotate(0) translate(4 34.5)">
<title>Application.UseCases.ProgramType.GetProgramTypeById.ExecuteAsync</title>
<!-- Node1 -->
<g id="Node000001" class="node">
<title>Node1</title>
<g id="a_Node000001"><a xlink:title=" ">
<polygon fill="#999999" stroke="#666666" points="200.5,-30.5 0,-30.5 0,0 200.5,0 200.5,-30.5"/>
<text text-anchor="start" x="8" y="-17" font-family="Helvetica,sans-Serif" font-size="10.00">Application.UseCases.Program</text>
<text text-anchor="middle" x="100.25" y="-5.75" font-family="Helvetica,sans-Serif" font-size="10.00">Type.GetProgramTypeById.ExecuteAsync</text>
</a>
</g>
</g>
<!-- Node2 -->
<g id="Node000002" class="node">
<title>Node2</title>
<g id="a_Node000002"><a xlink:href="class_application_1_1_validation_1_1_use_case_exception.html#a640987a86719d6afd8278fdbf578ab57" target="_top" xlink:title=" ">
<polygon fill="white" stroke="#666666" points="404.75,-30.5 236.5,-30.5 236.5,0 404.75,0 404.75,-30.5"/>
<text text-anchor="start" x="244.5" y="-17" font-family="Helvetica,sans-Serif" font-size="10.00">Application.Validation.Use</text>
<text text-anchor="middle" x="320.62" y="-5.75" font-family="Helvetica,sans-Serif" font-size="10.00">CaseException.NotInformedParam</text>
</a>
</g>
</g>
<!-- Node1&#45;&gt;Node2 -->
<g id="edge1_Node000001_Node000002" class="edge">
<title>Node1&#45;&gt;Node2</title>
<g id="a_edge1_Node000001_Node000002"><a xlink:title=" ">
<path fill="none" stroke="#63b8ff" d="M200.85,-15.25C208.79,-15.25 216.79,-15.25 224.69,-15.25"/>
<polygon fill="#63b8ff" stroke="#63b8ff" points="224.67,-18.75 234.67,-15.25 224.67,-11.75 224.67,-18.75"/>
</a>
</g>
</g>
<!-- Node3 -->
<g id="Node000003" class="node">
<title>Node3</title>
<g id="a_Node000003"><a xlink:href="class_application_1_1_validation_1_1_use_case_exception.html#ad2defa29da6c9eee2864794300f152ae" target="_top" xlink:title=" ">
<polygon fill="white" stroke="#666666" points="611.25,-30.5 440.75,-30.5 440.75,0 611.25,0 611.25,-30.5"/>
<text text-anchor="start" x="448.75" y="-17" font-family="Helvetica,sans-Serif" font-size="10.00">Application.Validation.Use</text>
<text text-anchor="middle" x="526" y="-5.75" font-family="Helvetica,sans-Serif" font-size="10.00">CaseException.UseCaseException</text>
</a>
</g>
</g>
<!-- Node2&#45;&gt;Node3 -->
<g id="edge2_Node000002_Node000003" class="edge">
<title>Node2&#45;&gt;Node3</title>
<g id="a_edge2_Node000002_Node000003"><a xlink:title=" ">
<path fill="none" stroke="#63b8ff" d="M405.23,-15.25C413.12,-15.25 421.16,-15.25 429.16,-15.25"/>
<polygon fill="#63b8ff" stroke="#63b8ff" points="428.89,-18.75 438.89,-15.25 428.89,-11.75 428.89,-18.75"/>
</a>
</g>
</g>
</g>
</svg>
