<?xml version="1.0" encoding="UTF-8" standalone="no"?>
<!DOCTYPE svg PUBLIC "-//W3C//DTD SVG 1.1//EN"
 "http://www.w3.org/Graphics/SVG/1.1/DTD/svg11.dtd">
<!-- Generated by graphviz version 2.43.0 (0)
 -->
<!-- Title: Application.UseCases.Professor.UpdateProfessor.ExecuteAsync Pages: 1 -->
<svg width="578pt" height="137pt"
 viewBox="0.00 0.00 578.00 137.00" xmlns="http://www.w3.org/2000/svg" xmlns:xlink="http://www.w3.org/1999/xlink">
<g id="graph0" class="graph" transform="scale(1 1) rotate(0) translate(4 133)">
<title>Application.UseCases.Professor.UpdateProfessor.ExecuteAsync</title>
<!-- Node1 -->
<g id="node1" class="node">
<title>Node1</title>
<g id="a_node1"><a xlink:title=" ">
<polygon fill="#bfbfbf" stroke="black" points="0,-49.5 0,-79.5 173,-79.5 173,-49.5 0,-49.5"/>
<text text-anchor="start" x="8" y="-67.5" font-family="Helvetica,sans-Serif" font-size="10.00">Application.UseCases.Professor.</text>
<text text-anchor="middle" x="86.5" y="-56.5" font-family="Helvetica,sans-Serif" font-size="10.00">UpdateProfessor.ExecuteAsync</text>
</a>
</g>
</g>
<!-- Node2 -->
<g id="node2" class="node">
<title>Node2</title>
<g id="a_node2"><a xlink:href="classUseCaseException.html#a2837eb30bdfa60f1f1ba2e5981d29fbd" target="_top" xlink:title=" ">
<polygon fill="none" stroke="black" points="218,-98.5 218,-128.5 372,-128.5 372,-98.5 218,-98.5"/>
<text text-anchor="start" x="226" y="-116.5" font-family="Helvetica,sans-Serif" font-size="10.00">UseCaseException.Business</text>
<text text-anchor="middle" x="295" y="-105.5" font-family="Helvetica,sans-Serif" font-size="10.00">RuleViolation</text>
</a>
</g>
</g>
<!-- Node1&#45;&gt;Node2 -->
<g id="edge1" class="edge">
<title>Node1&#45;&gt;Node2</title>
<path fill="none" stroke="midnightblue" d="M150.86,-79.53C172.96,-84.78 197.94,-90.71 220.78,-96.13"/>
<polygon fill="midnightblue" stroke="midnightblue" points="220.22,-99.59 230.76,-98.49 221.84,-92.78 220.22,-99.59"/>
</g>
<!-- Node3 -->
<g id="node3" class="node">
<title>Node3</title>
<g id="a_node3"><a xlink:href="classUseCaseException.html#aa86fbeb3981a2470230c0e0fefbe67fa" target="_top" xlink:title=" ">
<polygon fill="none" stroke="black" points="216.5,-49.5 216.5,-79.5 373.5,-79.5 373.5,-49.5 216.5,-49.5"/>
<text text-anchor="start" x="224.5" y="-67.5" font-family="Helvetica,sans-Serif" font-size="10.00">UseCaseException.NotFound</text>
<text text-anchor="middle" x="295" y="-56.5" font-family="Helvetica,sans-Serif" font-size="10.00">EntityById</text>
</a>
</g>
</g>
<!-- Node1&#45;&gt;Node3 -->
<g id="edge2" class="edge">
<title>Node1&#45;&gt;Node3</title>
<path fill="none" stroke="midnightblue" d="M173.28,-64.5C184.11,-64.5 195.21,-64.5 206.08,-64.5"/>
<polygon fill="midnightblue" stroke="midnightblue" points="206.41,-68 216.41,-64.5 206.41,-61 206.41,-68"/>
</g>
<!-- Node4 -->
<g id="node4" class="node">
<title>Node4</title>
<g id="a_node4"><a xlink:href="classUseCaseException.html#ab8fc31932179b877a356417d1dd37b56" target="_top" xlink:title=" ">
<polygon fill="none" stroke="black" points="209,-0.5 209,-30.5 381,-30.5 381,-0.5 209,-0.5"/>
<text text-anchor="start" x="217" y="-18.5" font-family="Helvetica,sans-Serif" font-size="10.00">UseCaseException.NotInformed</text>
<text text-anchor="middle" x="295" y="-7.5" font-family="Helvetica,sans-Serif" font-size="10.00">Param</text>
</a>
</g>
</g>
<!-- Node1&#45;&gt;Node4 -->
<g id="edge3" class="edge">
<title>Node1&#45;&gt;Node4</title>
<path fill="none" stroke="midnightblue" d="M150.86,-49.47C172.96,-44.22 197.94,-38.29 220.78,-32.87"/>
<polygon fill="midnightblue" stroke="midnightblue" points="221.84,-36.22 230.76,-30.51 220.22,-29.41 221.84,-36.22"/>
</g>
<!-- Node5 -->
<g id="node5" class="node">
<title>Node5</title>
<g id="a_node5"><a xlink:href="classUseCaseException.html#a1368420a98033f26e4493a4bd8de7df9" target="_top" xlink:title=" ">
<polygon fill="none" stroke="black" points="417,-0.5 417,-30.5 570,-30.5 570,-0.5 417,-0.5"/>
<text text-anchor="start" x="425" y="-18.5" font-family="Helvetica,sans-Serif" font-size="10.00">UseCaseException.UseCase</text>
<text text-anchor="middle" x="493.5" y="-7.5" font-family="Helvetica,sans-Serif" font-size="10.00">Exception</text>
</a>
</g>
</g>
<!-- Node4&#45;&gt;Node5 -->
<g id="edge4" class="edge">
<title>Node4&#45;&gt;Node5</title>
<path fill="none" stroke="midnightblue" d="M381.04,-15.5C389.53,-15.5 398.14,-15.5 406.63,-15.5"/>
<polygon fill="midnightblue" stroke="midnightblue" points="406.9,-19 416.9,-15.5 406.9,-12 406.9,-19"/>
</g>
</g>
</svg>
