<?xml version="1.0" encoding="UTF-8" standalone="no"?>
<!DOCTYPE svg PUBLIC "-//W3C//DTD SVG 1.1//EN"
 "http://www.w3.org/Graphics/SVG/1.1/DTD/svg11.dtd">
<!-- Generated by graphviz version 2.43.0 (0)
 -->
<!-- Title: Application.Ports.AssistanceType.BaseAssistanceTypeContract Pages: 1 -->
<svg width="447pt" height="198pt"
 viewBox="0.00 0.00 447.00 198.00" xmlns="http://www.w3.org/2000/svg" xmlns:xlink="http://www.w3.org/1999/xlink">
<g id="graph0" class="graph" transform="scale(1 1) rotate(0) translate(4 194)">
<title>Application.Ports.AssistanceType.BaseAssistanceTypeContract</title>
<!-- Node1 -->
<g id="node1" class="node">
<title>Node1</title>
<g id="a_node1"><a xlink:title=" ">
<polygon fill="#bfbfbf" stroke="black" points="0,-76.5 0,-106.5 182,-106.5 182,-76.5 0,-76.5"/>
<text text-anchor="start" x="8" y="-94.5" font-family="Helvetica,sans-Serif" font-size="10.00">Application.Ports.Assistance</text>
<text text-anchor="middle" x="91" y="-83.5" font-family="Helvetica,sans-Serif" font-size="10.00">Type.BaseAssistanceTypeContract</text>
</a>
</g>
</g>
<!-- Node2 -->
<g id="node2" class="node">
<title>Node2</title>
<g id="a_node2"><a xlink:href="classApplication_1_1Ports_1_1AssistanceType_1_1CreateAssistanceTypeInput.html" target="_top" xlink:title=" ">
<polygon fill="none" stroke="black" points="241.5,-159.5 241.5,-189.5 415.5,-189.5 415.5,-159.5 241.5,-159.5"/>
<text text-anchor="start" x="249.5" y="-177.5" font-family="Helvetica,sans-Serif" font-size="10.00">Application.Ports.Assistance</text>
<text text-anchor="middle" x="328.5" y="-166.5" font-family="Helvetica,sans-Serif" font-size="10.00">Type.CreateAssistanceTypeInput</text>
</a>
</g>
</g>
<!-- Node1&#45;&gt;Node2 -->
<g id="edge1" class="edge">
<title>Node1&#45;&gt;Node2</title>
<path fill="none" stroke="midnightblue" d="M129.33,-111.17C153.97,-123.52 187.27,-139.05 218,-149.5 228.89,-153.21 240.58,-156.53 252.12,-159.45"/>
<polygon fill="midnightblue" stroke="midnightblue" points="130.83,-108 120.33,-106.6 127.67,-114.25 130.83,-108"/>
</g>
<!-- Node3 -->
<g id="node3" class="node">
<title>Node3</title>
<g id="a_node3"><a xlink:href="classApplication_1_1Ports_1_1AssistanceType_1_1DetailedReadAssistanceTypeOutput.html" target="_top" xlink:title=" ">
<polygon fill="none" stroke="black" points="237,-99 237,-140 420,-140 420,-99 237,-99"/>
<text text-anchor="start" x="245" y="-128" font-family="Helvetica,sans-Serif" font-size="10.00">Application.Ports.Assistance</text>
<text text-anchor="start" x="245" y="-117" font-family="Helvetica,sans-Serif" font-size="10.00">Type.DetailedReadAssistanceType</text>
<text text-anchor="middle" x="328.5" y="-106" font-family="Helvetica,sans-Serif" font-size="10.00">Output</text>
</a>
</g>
</g>
<!-- Node1&#45;&gt;Node3 -->
<g id="edge2" class="edge">
<title>Node1&#45;&gt;Node3</title>
<path fill="none" stroke="midnightblue" d="M192.2,-103.41C206.99,-105.17 222.15,-106.97 236.73,-108.71"/>
<polygon fill="midnightblue" stroke="midnightblue" points="192.38,-99.91 182.04,-102.21 191.56,-106.86 192.38,-99.91"/>
</g>
<!-- Node4 -->
<g id="node4" class="node">
<title>Node4</title>
<g id="a_node4"><a xlink:href="classApplication_1_1Ports_1_1AssistanceType_1_1ResumedReadAssistanceTypeOutput.html" target="_top" xlink:title=" ">
<polygon fill="none" stroke="black" points="218,-49.5 218,-79.5 439,-79.5 439,-49.5 218,-49.5"/>
<text text-anchor="start" x="226" y="-67.5" font-family="Helvetica,sans-Serif" font-size="10.00">Application.Ports.Assistance</text>
<text text-anchor="middle" x="328.5" y="-56.5" font-family="Helvetica,sans-Serif" font-size="10.00">Type.ResumedReadAssistanceTypeOutput</text>
</a>
</g>
</g>
<!-- Node1&#45;&gt;Node4 -->
<g id="edge3" class="edge">
<title>Node1&#45;&gt;Node4</title>
<path fill="none" stroke="midnightblue" d="M191.98,-80.04C200.51,-79.06 209.16,-78.07 217.76,-77.08"/>
<polygon fill="midnightblue" stroke="midnightblue" points="191.58,-76.56 182.04,-81.18 192.37,-83.51 191.58,-76.56"/>
</g>
<!-- Node5 -->
<g id="node5" class="node">
<title>Node5</title>
<g id="a_node5"><a xlink:href="classApplication_1_1Ports_1_1AssistanceType_1_1UpdateAssistanceTypeInput.html" target="_top" xlink:title=" ">
<polygon fill="none" stroke="black" points="240,-0.5 240,-30.5 417,-30.5 417,-0.5 240,-0.5"/>
<text text-anchor="start" x="248" y="-18.5" font-family="Helvetica,sans-Serif" font-size="10.00">Application.Ports.Assistance</text>
<text text-anchor="middle" x="328.5" y="-7.5" font-family="Helvetica,sans-Serif" font-size="10.00">Type.UpdateAssistanceTypeInput</text>
</a>
</g>
</g>
<!-- Node1&#45;&gt;Node5 -->
<g id="edge4" class="edge">
<title>Node1&#45;&gt;Node5</title>
<path fill="none" stroke="midnightblue" d="M134.14,-72.47C158.33,-62.05 189.48,-49.46 218,-40.5 229.53,-36.87 241.9,-33.54 254.03,-30.57"/>
<polygon fill="midnightblue" stroke="midnightblue" points="132.67,-69.29 124.9,-76.49 135.46,-75.71 132.67,-69.29"/>
</g>
</g>
</svg>
