<?xml version="1.0" encoding="UTF-8" standalone="no"?>
<!DOCTYPE svg PUBLIC "-//W3C//DTD SVG 1.1//EN"
 "http://www.w3.org/Graphics/SVG/1.1/DTD/svg11.dtd">
<!-- Generated by graphviz version 8.1.0 (20230707.0739)
 -->
<!-- Title: src.domain.interfaces.usecases.audio_analysis_usecase_interface.IAudioAnalysisUseCase Pages: 1 -->
<svg width="218pt" height="183pt"
 viewBox="0.00 0.00 218.25 182.75" xmlns="http://www.w3.org/2000/svg" xmlns:xlink="http://www.w3.org/1999/xlink">
<g id="graph0" class="graph" transform="scale(1 1) rotate(0) translate(4 178.75)">
<title>src.domain.interfaces.usecases.audio_analysis_usecase_interface.IAudioAnalysisUseCase</title>
<!-- Node1 -->
<g id="Node000001" class="node">
<title>Node1</title>
<g id="a_Node000001"><a xlink:title=" ">
<polygon fill="#999999" stroke="#666666" points="210.25,-119.5 0,-119.5 0,-77.75 210.25,-77.75 210.25,-119.5"/>
<text text-anchor="start" x="8" y="-106" font-family="Helvetica,sans-Serif" font-size="10.00">src.domain.interfaces.usecases.audio</text>
<text text-anchor="start" x="8" y="-94.75" font-family="Helvetica,sans-Serif" font-size="10.00">_analysis_usecase_interface.IAudioAnalysis</text>
<text text-anchor="middle" x="105.12" y="-83.5" font-family="Helvetica,sans-Serif" font-size="10.00">UseCase</text>
</a>
</g>
</g>
<!-- Node3 -->
<g id="Node000003" class="node">
<title>Node3</title>
<g id="a_Node000003"><a xlink:href="classsrc_1_1domain_1_1usecases_1_1audio__analysis__usecase_1_1_audio_analysis_use_case.html" target="_top" xlink:title=" ">
<polygon fill="white" stroke="#666666" points="187.38,-41.75 22.88,-41.75 22.88,0 187.38,0 187.38,-41.75"/>
<text text-anchor="start" x="30.88" y="-28.25" font-family="Helvetica,sans-Serif" font-size="10.00">src.domain.usecases.audio</text>
<text text-anchor="start" x="30.88" y="-17" font-family="Helvetica,sans-Serif" font-size="10.00">_analysis_usecase.AudioAnalysis</text>
<text text-anchor="middle" x="105.12" y="-5.75" font-family="Helvetica,sans-Serif" font-size="10.00">UseCase</text>
</a>
</g>
</g>
<!-- Node1&#45;&gt;Node3 -->
<g id="edge2_Node000001_Node000003" class="edge">
<title>Node1&#45;&gt;Node3</title>
<g id="a_edge2_Node000001_Node000003"><a xlink:title=" ">
<path fill="none" stroke="#63b8ff" d="M105.12,-66.56C105.12,-58.36 105.12,-49.71 105.12,-42.23"/>
<polygon fill="#63b8ff" stroke="#63b8ff" points="101.63,-66.33 105.12,-76.33 108.63,-66.33 101.63,-66.33"/>
</a>
</g>
</g>
<!-- Node2 -->
<g id="Node000002" class="node">
<title>Node2</title>
<g id="a_Node000002"><a xlink:title=" ">
<polygon fill="white" stroke="#666666" points="123.62,-174.75 86.62,-174.75 86.62,-155.5 123.62,-155.5 123.62,-174.75"/>
<text text-anchor="middle" x="105.12" y="-161.25" font-family="Helvetica,sans-Serif" font-size="10.00">ABC</text>
</a>
</g>
</g>
<!-- Node2&#45;&gt;Node1 -->
<g id="edge1_Node000001_Node000002" class="edge">
<title>Node2&#45;&gt;Node1</title>
<g id="a_edge1_Node000001_Node000002"><a xlink:title=" ">
<path fill="none" stroke="#63b8ff" d="M105.12,-144.25C105.12,-136.53 105.12,-127.69 105.12,-119.93"/>
<polygon fill="#63b8ff" stroke="#63b8ff" points="101.63,-144.16 105.12,-154.16 108.63,-144.16 101.63,-144.16"/>
</a>
</g>
</g>
</g>
</svg>
