<?xml version="1.0" encoding="UTF-8" standalone="no"?>
<!DOCTYPE svg PUBLIC "-//W3C//DTD SVG 1.1//EN"
 "http://www.w3.org/Graphics/SVG/1.1/DTD/svg11.dtd">
<!-- Generated by graphviz version 2.43.0 (0)
 -->
<!-- Title: Persistence.Repositories.AssistanceTypeRepository.DeleteAsync Pages: 1 -->
<svg width="461pt" height="149pt"
 viewBox="0.00 0.00 461.00 149.00" xmlns="http://www.w3.org/2000/svg" xmlns:xlink="http://www.w3.org/1999/xlink">
<g id="graph0" class="graph" transform="scale(1 1) rotate(0) translate(4 145)">
<title>Persistence.Repositories.AssistanceTypeRepository.DeleteAsync</title>
<!-- Node1 -->
<g id="node1" class="node">
<title>Node1</title>
<g id="a_node1"><a xlink:title=" ">
<polygon fill="#bfbfbf" stroke="black" points="0,-55.5 0,-85.5 207,-85.5 207,-55.5 0,-55.5"/>
<text text-anchor="start" x="8" y="-73.5" font-family="Helvetica,sans-Serif" font-size="10.00">Persistence.Repositories.</text>
<text text-anchor="middle" x="103.5" y="-62.5" font-family="Helvetica,sans-Serif" font-size="10.00">AssistanceTypeRepository.DeleteAsync</text>
</a>
</g>
</g>
<!-- Node2 -->
<g id="node2" class="node">
<title>Node2</title>
<g id="a_node2"><a xlink:href="classDomain_1_1Entities_1_1Primitives_1_1Entity.html#a3a368e3c302f8622ea0305003ef2a5eb" target="_top" xlink:title=" ">
<polygon fill="none" stroke="black" points="273,-110.5 273,-140.5 423,-140.5 423,-110.5 273,-110.5"/>
<text text-anchor="start" x="281" y="-128.5" font-family="Helvetica,sans-Serif" font-size="10.00">Domain.Entities.Primitives.</text>
<text text-anchor="middle" x="348" y="-117.5" font-family="Helvetica,sans-Serif" font-size="10.00">Entity.DeactivateEntity</text>
</a>
</g>
</g>
<!-- Node1&#45;&gt;Node2 -->
<g id="edge1" class="edge">
<title>Node1&#45;&gt;Node2</title>
<path fill="none" stroke="midnightblue" d="M170.76,-85.53C201.77,-92.56 238.87,-100.98 271.01,-108.27"/>
<polygon fill="midnightblue" stroke="midnightblue" points="270.29,-111.69 280.82,-110.49 271.84,-104.86 270.29,-111.69"/>
</g>
<!-- Node3 -->
<g id="node3" class="node">
<title>Node3</title>
<g id="a_node3"><a xlink:href="classPersistence_1_1Repositories_1_1AssistanceTypeRepository.html#a5c6700f90edc94cde04afb8aefa81520" target="_top" xlink:title=" ">
<polygon fill="none" stroke="black" points="260,-50 260,-91 436,-91 436,-50 260,-50"/>
<text text-anchor="start" x="268" y="-79" font-family="Helvetica,sans-Serif" font-size="10.00">Persistence.Repositories.</text>
<text text-anchor="start" x="268" y="-68" font-family="Helvetica,sans-Serif" font-size="10.00">AssistanceTypeRepository.GetBy</text>
<text text-anchor="middle" x="348" y="-57" font-family="Helvetica,sans-Serif" font-size="10.00">IdAsync</text>
</a>
</g>
</g>
<!-- Node1&#45;&gt;Node3 -->
<g id="edge2" class="edge">
<title>Node1&#45;&gt;Node3</title>
<path fill="none" stroke="midnightblue" d="M207.34,-70.5C221.37,-70.5 235.72,-70.5 249.65,-70.5"/>
<polygon fill="midnightblue" stroke="midnightblue" points="249.7,-74 259.7,-70.5 249.7,-67 249.7,-74"/>
</g>
<!-- Node4 -->
<g id="node4" class="node">
<title>Node4</title>
<g id="a_node4"><a xlink:href="classPersistence_1_1Repositories_1_1AssistanceTypeRepository.html#a7547a28536e5b12a9f26f7ed9aa5bbea" target="_top" xlink:title=" ">
<polygon fill="none" stroke="black" points="243,-0.5 243,-30.5 453,-30.5 453,-0.5 243,-0.5"/>
<text text-anchor="start" x="251" y="-18.5" font-family="Helvetica,sans-Serif" font-size="10.00">Persistence.Repositories.</text>
<text text-anchor="middle" x="348" y="-7.5" font-family="Helvetica,sans-Serif" font-size="10.00">AssistanceTypeRepository.UpdateAsync</text>
</a>
</g>
</g>
<!-- Node1&#45;&gt;Node4 -->
<g id="edge3" class="edge">
<title>Node1&#45;&gt;Node4</title>
<path fill="none" stroke="midnightblue" d="M170.76,-55.47C201.77,-48.44 238.87,-40.02 271.01,-32.73"/>
<polygon fill="midnightblue" stroke="midnightblue" points="271.84,-36.14 280.82,-30.51 270.29,-29.31 271.84,-36.14"/>
</g>
</g>
</svg>
