<?xml version="1.0" encoding="UTF-8" standalone="no"?>
<!DOCTYPE svg PUBLIC "-//W3C//DTD SVG 1.1//EN"
 "http://www.w3.org/Graphics/SVG/1.1/DTD/svg11.dtd">
<!-- Generated by graphviz version 9.0.0 (20230911.1827)
 -->
<!-- Title: Application.Ports.AssistanceType.BaseAssistanceTypeContract Pages: 1 -->
<svg width="418pt" height="196pt"
 viewBox="0.00 0.00 418.00 195.50" xmlns="http://www.w3.org/2000/svg" xmlns:xlink="http://www.w3.org/1999/xlink">
<g id="graph0" class="graph" transform="scale(1 1) rotate(0) translate(4 191.5)">
<title>Application.Ports.AssistanceType.BaseAssistanceTypeContract</title>
<!-- Node1 -->
<g id="Node000001" class="node">
<title>Node1</title>
<g id="a_Node000001"><a xlink:title=" ">
<polygon fill="#999999" stroke="#666666" points="169.75,-106.5 0,-106.5 0,-76 169.75,-76 169.75,-106.5"/>
<text text-anchor="start" x="8" y="-93" font-family="Helvetica,sans-Serif" font-size="10.00">Application.Ports.Assistance</text>
<text text-anchor="middle" x="84.88" y="-81.75" font-family="Helvetica,sans-Serif" font-size="10.00">Type.BaseAssistanceTypeContract</text>
</a>
</g>
</g>
<!-- Node2 -->
<g id="Node000002" class="node">
<title>Node2</title>
<g id="a_Node000002"><a xlink:href="class_application_1_1_ports_1_1_assistance_type_1_1_create_assistance_type_input.html" target="_top" xlink:title=" ">
<polygon fill="white" stroke="#666666" points="388.25,-187.5 227.5,-187.5 227.5,-157 388.25,-157 388.25,-187.5"/>
<text text-anchor="start" x="235.5" y="-174" font-family="Helvetica,sans-Serif" font-size="10.00">Application.Ports.Assistance</text>
<text text-anchor="middle" x="307.88" y="-162.75" font-family="Helvetica,sans-Serif" font-size="10.00">Type.CreateAssistanceTypeInput</text>
</a>
</g>
</g>
<!-- Node1&#45;&gt;Node2 -->
<g id="edge1_Node000001_Node000002" class="edge">
<title>Node1&#45;&gt;Node2</title>
<g id="a_edge1_Node000001_Node000002"><a xlink:title=" ">
<path fill="none" stroke="#63b8ff" d="M124.29,-112.07C147.39,-123.94 177.66,-138.36 205.75,-148.25 214.35,-151.28 223.48,-154.04 232.62,-156.53"/>
<polygon fill="#63b8ff" stroke="#63b8ff" points="126.05,-109.04 115.56,-107.52 122.81,-115.25 126.05,-109.04"/>
</a>
</g>
</g>
<!-- Node3 -->
<g id="Node000003" class="node">
<title>Node3</title>
<g id="a_Node000003"><a xlink:href="class_application_1_1_ports_1_1_assistance_type_1_1_detailed_read_assistance_type_output.html" target="_top" xlink:title=" ">
<polygon fill="white" stroke="#666666" points="392.38,-139.12 223.38,-139.12 223.38,-97.38 392.38,-97.38 392.38,-139.12"/>
<text text-anchor="start" x="231.38" y="-125.62" font-family="Helvetica,sans-Serif" font-size="10.00">Application.Ports.Assistance</text>
<text text-anchor="start" x="231.38" y="-114.38" font-family="Helvetica,sans-Serif" font-size="10.00">Type.DetailedReadAssistanceType</text>
<text text-anchor="middle" x="307.88" y="-103.12" font-family="Helvetica,sans-Serif" font-size="10.00">Output</text>
</a>
</g>
</g>
<!-- Node1&#45;&gt;Node3 -->
<g id="edge2_Node000001_Node000003" class="edge">
<title>Node1&#45;&gt;Node3</title>
<g id="a_edge2_Node000001_Node000003"><a xlink:title=" ">
<path fill="none" stroke="#63b8ff" d="M181.12,-102.89C195.03,-104.59 209.27,-106.33 222.93,-107.99"/>
<polygon fill="#63b8ff" stroke="#63b8ff" points="181.91,-99.46 171.56,-101.72 181.06,-106.41 181.91,-99.46"/>
</a>
</g>
</g>
<!-- Node4 -->
<g id="Node000004" class="node">
<title>Node4</title>
<g id="a_Node000004"><a xlink:href="class_application_1_1_ports_1_1_assistance_type_1_1_resumed_read_assistance_type_output.html" target="_top" xlink:title=" ">
<polygon fill="white" stroke="#666666" points="410,-79.5 205.75,-79.5 205.75,-49 410,-49 410,-79.5"/>
<text text-anchor="start" x="213.75" y="-66" font-family="Helvetica,sans-Serif" font-size="10.00">Application.Ports.Assistance</text>
<text text-anchor="middle" x="307.88" y="-54.75" font-family="Helvetica,sans-Serif" font-size="10.00">Type.ResumedReadAssistanceTypeOutput</text>
</a>
</g>
</g>
<!-- Node1&#45;&gt;Node4 -->
<g id="edge3_Node000001_Node000004" class="edge">
<title>Node1&#45;&gt;Node4</title>
<g id="a_edge3_Node000001_Node000004"><a xlink:title=" ">
<path fill="none" stroke="#63b8ff" d="M181.3,-79.59C189.32,-78.61 197.44,-77.62 205.5,-76.64"/>
<polygon fill="#63b8ff" stroke="#63b8ff" points="181.06,-76.09 171.56,-80.78 181.91,-83.04 181.06,-76.09"/>
</a>
</g>
</g>
<!-- Node5 -->
<g id="Node000005" class="node">
<title>Node5</title>
<g id="a_Node000005"><a xlink:href="class_application_1_1_ports_1_1_assistance_type_1_1_update_assistance_type_input.html" target="_top" xlink:title=" ">
<polygon fill="white" stroke="#666666" points="389.38,-30.5 226.38,-30.5 226.38,0 389.38,0 389.38,-30.5"/>
<text text-anchor="start" x="234.38" y="-17" font-family="Helvetica,sans-Serif" font-size="10.00">Application.Ports.Assistance</text>
<text text-anchor="middle" x="307.88" y="-5.75" font-family="Helvetica,sans-Serif" font-size="10.00">Type.UpdateAssistanceTypeInput</text>
</a>
</g>
</g>
<!-- Node1&#45;&gt;Node5 -->
<g id="edge4_Node000001_Node000005" class="edge">
<title>Node1&#45;&gt;Node5</title>
<g id="a_edge4_Node000001_Node000005"><a xlink:title=" ">
<path fill="none" stroke="#63b8ff" d="M129.15,-70.86C151.66,-60.76 179.82,-48.91 205.75,-40.25 215.78,-36.9 226.51,-33.77 237.1,-30.95"/>
<polygon fill="#63b8ff" stroke="#63b8ff" points="127.95,-67.56 120.29,-74.88 130.84,-73.93 127.95,-67.56"/>
</a>
</g>
</g>
</g>
</svg>
