<?xml version="1.0" encoding="UTF-8" standalone="no"?>
<!DOCTYPE svg PUBLIC "-//W3C//DTD SVG 1.1//EN"
 "http://www.w3.org/Graphics/SVG/1.1/DTD/svg11.dtd">
<!-- Generated by graphviz version 9.0.0 (20230911.1827)
 -->
<!-- Title: Persistence.Repositories.MainAreaRepository.DeleteAsync Pages: 1 -->
<svg width="376pt" height="137pt"
 viewBox="0.00 0.00 376.00 136.50" xmlns="http://www.w3.org/2000/svg" xmlns:xlink="http://www.w3.org/1999/xlink">
<g id="graph0" class="graph" transform="scale(1 1) rotate(0) translate(4 132.5)">
<title>Persistence.Repositories.MainAreaRepository.DeleteAsync</title>
<!-- Node1 -->
<g id="Node000001" class="node">
<title>Node1</title>
<g id="a_Node000001"><a xlink:title=" ">
<polygon fill="#999999" stroke="#666666" points="162.25,-79.5 0,-79.5 0,-49 162.25,-49 162.25,-79.5"/>
<text text-anchor="start" x="8" y="-66" font-family="Helvetica,sans-Serif" font-size="10.00">Persistence.Repositories.</text>
<text text-anchor="middle" x="81.12" y="-54.75" font-family="Helvetica,sans-Serif" font-size="10.00">MainAreaRepository.DeleteAsync</text>
</a>
</g>
</g>
<!-- Node2 -->
<g id="Node000002" class="node">
<title>Node2</title>
<g id="a_Node000002"><a xlink:href="class_domain_1_1_entities_1_1_primitives_1_1_entity.html#a3a368e3c302f8622ea0305003ef2a5eb" target="_top" xlink:title=" ">
<polygon fill="white" stroke="#666666" points="350.75,-128.5 215.5,-128.5 215.5,-98 350.75,-98 350.75,-128.5"/>
<text text-anchor="start" x="223.5" y="-115" font-family="Helvetica,sans-Serif" font-size="10.00">Domain.Entities.Primitives.</text>
<text text-anchor="middle" x="283.12" y="-103.75" font-family="Helvetica,sans-Serif" font-size="10.00">Entity.DeactivateEntity</text>
</a>
</g>
</g>
<!-- Node1&#45;&gt;Node2 -->
<g id="edge1_Node000001_Node000002" class="edge">
<title>Node1&#45;&gt;Node2</title>
<g id="a_edge1_Node000001_Node000002"><a xlink:title=" ">
<path fill="none" stroke="#63b8ff" d="M146.23,-79.96C165.61,-84.7 187.06,-89.96 207.08,-94.86"/>
<polygon fill="#63b8ff" stroke="#63b8ff" points="206.02,-98.21 216.57,-97.19 207.69,-91.41 206.02,-98.21"/>
</a>
</g>
</g>
<!-- Node3 -->
<g id="Node000003" class="node">
<title>Node3</title>
<g id="a_Node000003"><a xlink:href="class_persistence_1_1_repositories_1_1_main_area_repository.html#a5b057139b1582972e0c931dfcc9eddcd" target="_top" xlink:title=" ">
<polygon fill="white" stroke="#666666" points="368,-79.5 198.25,-79.5 198.25,-49 368,-49 368,-79.5"/>
<text text-anchor="start" x="206.25" y="-66" font-family="Helvetica,sans-Serif" font-size="10.00">Persistence.Repositories.</text>
<text text-anchor="middle" x="283.12" y="-54.75" font-family="Helvetica,sans-Serif" font-size="10.00">MainAreaRepository.GetByIdAsync</text>
</a>
</g>
</g>
<!-- Node1&#45;&gt;Node3 -->
<g id="edge2_Node000001_Node000003" class="edge">
<title>Node1&#45;&gt;Node3</title>
<g id="a_edge2_Node000001_Node000003"><a xlink:title=" ">
<path fill="none" stroke="#63b8ff" d="M162.61,-64.25C170.5,-64.25 178.57,-64.25 186.59,-64.25"/>
<polygon fill="#63b8ff" stroke="#63b8ff" points="186.37,-67.75 196.37,-64.25 186.37,-60.75 186.37,-67.75"/>
</a>
</g>
</g>
<!-- Node4 -->
<g id="Node000004" class="node">
<title>Node4</title>
<g id="a_Node000004"><a xlink:href="class_persistence_1_1_repositories_1_1_main_area_repository.html#a34c0b727980d04f233800b00c05d7f4f" target="_top" xlink:title=" ">
<polygon fill="white" stroke="#666666" points="365.75,-30.5 200.5,-30.5 200.5,0 365.75,0 365.75,-30.5"/>
<text text-anchor="start" x="208.5" y="-17" font-family="Helvetica,sans-Serif" font-size="10.00">Persistence.Repositories.</text>
<text text-anchor="middle" x="283.12" y="-5.75" font-family="Helvetica,sans-Serif" font-size="10.00">MainAreaRepository.UpdateAsync</text>
</a>
</g>
</g>
<!-- Node1&#45;&gt;Node4 -->
<g id="edge3_Node000001_Node000004" class="edge">
<title>Node1&#45;&gt;Node4</title>
<g id="a_edge3_Node000001_Node000004"><a xlink:title=" ">
<path fill="none" stroke="#63b8ff" d="M146.23,-48.54C165.61,-43.8 187.06,-38.54 207.08,-33.64"/>
<polygon fill="#63b8ff" stroke="#63b8ff" points="207.69,-37.09 216.57,-31.31 206.02,-30.29 207.69,-37.09"/>
</a>
</g>
</g>
</g>
</svg>
