<?xml version="1.0" encoding="UTF-8" standalone="no"?>
<!DOCTYPE svg PUBLIC "-//W3C//DTD SVG 1.1//EN"
 "http://www.w3.org/Graphics/SVG/1.1/DTD/svg11.dtd">
<!-- Generated by graphviz version 2.43.0 (0)
 -->
<!-- Title: Application.Ports.ProjectActivity.BaseProjectActivityContract Pages: 1 -->
<svg width="433pt" height="259pt"
 viewBox="0.00 0.00 433.00 259.00" xmlns="http://www.w3.org/2000/svg" xmlns:xlink="http://www.w3.org/1999/xlink">
<g id="graph0" class="graph" transform="scale(1 1) rotate(0) translate(4 255)">
<title>Application.Ports.ProjectActivity.BaseProjectActivityContract</title>
<!-- Node1 -->
<g id="node1" class="node">
<title>Node1</title>
<g id="a_node1"><a xlink:title=" ">
<polygon fill="#bfbfbf" stroke="black" points="0,-110.5 0,-140.5 192,-140.5 192,-110.5 0,-110.5"/>
<text text-anchor="start" x="8" y="-128.5" font-family="Helvetica,sans-Serif" font-size="10.00">Application.Ports.Project</text>
<text text-anchor="middle" x="96" y="-117.5" font-family="Helvetica,sans-Serif" font-size="10.00">Activity.BaseProjectActivityContract</text>
</a>
</g>
</g>
<!-- Node2 -->
<g id="node2" class="node">
<title>Node2</title>
<g id="a_node2"><a xlink:href="classApplication_1_1Ports_1_1ProjectActivity_1_1CreateProjectActivityInput.html" target="_top" xlink:title=" ">
<polygon fill="none" stroke="black" points="234.5,-220.5 234.5,-250.5 418.5,-250.5 418.5,-220.5 234.5,-220.5"/>
<text text-anchor="start" x="242.5" y="-238.5" font-family="Helvetica,sans-Serif" font-size="10.00">Application.Ports.Project</text>
<text text-anchor="middle" x="326.5" y="-227.5" font-family="Helvetica,sans-Serif" font-size="10.00">Activity.CreateProjectActivityInput</text>
</a>
</g>
</g>
<!-- Node1&#45;&gt;Node2 -->
<g id="edge1" class="edge">
<title>Node1&#45;&gt;Node2</title>
<path fill="none" stroke="midnightblue" d="M123.9,-146.71C149.39,-165.87 189.41,-193.58 228,-210.5 236.64,-214.29 245.98,-217.59 255.33,-220.45"/>
<polygon fill="midnightblue" stroke="midnightblue" points="125.91,-143.85 115.84,-140.57 121.67,-149.41 125.91,-143.85"/>
</g>
<!-- Node3 -->
<g id="node3" class="node">
<title>Node3</title>
<g id="a_node3"><a xlink:href="classApplication_1_1Ports_1_1ProjectActivity_1_1DetailedReadProjectActivityOutput.html" target="_top" xlink:title=" ">
<polygon fill="none" stroke="black" points="230,-160 230,-201 423,-201 423,-160 230,-160"/>
<text text-anchor="start" x="238" y="-189" font-family="Helvetica,sans-Serif" font-size="10.00">Application.Ports.Project</text>
<text text-anchor="start" x="238" y="-178" font-family="Helvetica,sans-Serif" font-size="10.00">Activity.DetailedReadProjectActivity</text>
<text text-anchor="middle" x="326.5" y="-167" font-family="Helvetica,sans-Serif" font-size="10.00">Output</text>
</a>
</g>
</g>
<!-- Node1&#45;&gt;Node3 -->
<g id="edge2" class="edge">
<title>Node1&#45;&gt;Node3</title>
<path fill="none" stroke="midnightblue" d="M169.24,-142.89C191.72,-148.3 216.72,-154.32 240.01,-159.92"/>
<polygon fill="midnightblue" stroke="midnightblue" points="169.98,-139.47 159.44,-140.53 168.34,-146.27 169.98,-139.47"/>
</g>
<!-- Node4 -->
<g id="node4" class="node">
<title>Node4</title>
<g id="a_node4"><a xlink:href="classApplication_1_1Ports_1_1ProjectActivity_1_1EvaluateProjectActivityInput.html" target="_top" xlink:title=" ">
<polygon fill="none" stroke="black" points="229.5,-110.5 229.5,-140.5 423.5,-140.5 423.5,-110.5 229.5,-110.5"/>
<text text-anchor="start" x="237.5" y="-128.5" font-family="Helvetica,sans-Serif" font-size="10.00">Application.Ports.Project</text>
<text text-anchor="middle" x="326.5" y="-117.5" font-family="Helvetica,sans-Serif" font-size="10.00">Activity.EvaluateProjectActivityInput</text>
</a>
</g>
</g>
<!-- Node1&#45;&gt;Node4 -->
<g id="edge3" class="edge">
<title>Node1&#45;&gt;Node4</title>
<path fill="none" stroke="midnightblue" d="M202.35,-125.5C211.34,-125.5 220.39,-125.5 229.3,-125.5"/>
<polygon fill="midnightblue" stroke="midnightblue" points="202.25,-122 192.25,-125.5 202.25,-129 202.25,-122"/>
</g>
<!-- Node5 -->
<g id="node5" class="node">
<title>Node5</title>
<g id="a_node5"><a xlink:href="classApplication_1_1Ports_1_1ProjectActivity_1_1ResumedReadProjectActivityOutput.html" target="_top" xlink:title=" ">
<polygon fill="none" stroke="black" points="228,-50 228,-91 425,-91 425,-50 228,-50"/>
<text text-anchor="start" x="236" y="-79" font-family="Helvetica,sans-Serif" font-size="10.00">Application.Ports.Project</text>
<text text-anchor="start" x="236" y="-68" font-family="Helvetica,sans-Serif" font-size="10.00">Activity.ResumedReadProjectActivity</text>
<text text-anchor="middle" x="326.5" y="-57" font-family="Helvetica,sans-Serif" font-size="10.00">Output</text>
</a>
</g>
</g>
<!-- Node1&#45;&gt;Node5 -->
<g id="edge4" class="edge">
<title>Node1&#45;&gt;Node5</title>
<path fill="none" stroke="midnightblue" d="M169.24,-108.11C191.72,-102.7 216.72,-96.68 240.01,-91.08"/>
<polygon fill="midnightblue" stroke="midnightblue" points="168.34,-104.73 159.44,-110.47 169.98,-111.53 168.34,-104.73"/>
</g>
<!-- Node6 -->
<g id="node6" class="node">
<title>Node6</title>
<g id="a_node6"><a xlink:href="classApplication_1_1Ports_1_1ProjectActivity_1_1UpdateProjectActivityInput.html" target="_top" xlink:title=" ">
<polygon fill="none" stroke="black" points="233,-0.5 233,-30.5 420,-30.5 420,-0.5 233,-0.5"/>
<text text-anchor="start" x="241" y="-18.5" font-family="Helvetica,sans-Serif" font-size="10.00">Application.Ports.Project</text>
<text text-anchor="middle" x="326.5" y="-7.5" font-family="Helvetica,sans-Serif" font-size="10.00">Activity.UpdateProjectActivityInput</text>
</a>
</g>
</g>
<!-- Node1&#45;&gt;Node6 -->
<g id="edge5" class="edge">
<title>Node1&#45;&gt;Node6</title>
<path fill="none" stroke="midnightblue" d="M123.9,-104.29C149.39,-85.13 189.41,-57.42 228,-40.5 236.64,-36.71 245.98,-33.41 255.33,-30.55"/>
<polygon fill="midnightblue" stroke="midnightblue" points="121.67,-101.59 115.84,-110.43 125.91,-107.15 121.67,-101.59"/>
</g>
</g>
</svg>
