<?xml version="1.0" encoding="UTF-8" standalone="no"?>
<!DOCTYPE svg PUBLIC "-//W3C//DTD SVG 1.1//EN"
 "http://www.w3.org/Graphics/SVG/1.1/DTD/svg11.dtd">
<!-- Generated by graphviz version 9.0.0 (20230911.1827)
 -->
<!-- Title: Application.UseCases.Auth.Login.ExecuteAsync Pages: 1 -->
<svg width="574pt" height="147pt"
 viewBox="0.00 0.00 574.25 146.50" xmlns="http://www.w3.org/2000/svg" xmlns:xlink="http://www.w3.org/1999/xlink">
<g id="graph0" class="graph" transform="scale(1 1) rotate(0) translate(4 142.5)">
<title>Application.UseCases.Auth.Login.ExecuteAsync</title>
<!-- Node1 -->
<g id="Node000001" class="node">
<title>Node1</title>
<g id="a_Node000001"><a xlink:title=" ">
<polygon fill="#999999" stroke="#666666" points="139.75,-84.5 0,-84.5 0,-54 139.75,-54 139.75,-84.5"/>
<text text-anchor="start" x="8" y="-71" font-family="Helvetica,sans-Serif" font-size="10.00">Application.UseCases.Auth.</text>
<text text-anchor="middle" x="69.88" y="-59.75" font-family="Helvetica,sans-Serif" font-size="10.00">Login.ExecuteAsync</text>
</a>
</g>
</g>
<!-- Node2 -->
<g id="Node000002" class="node">
<title>Node2</title>
<g id="a_Node000002"><a xlink:href="class_application_1_1_validation_1_1_use_case_exception.html#abdfb0053369c84d85c471ad55011c4c4" target="_top" xlink:title=" ">
<polygon fill="white" stroke="#666666" points="359.75,-138.5 175.75,-138.5 175.75,-108 359.75,-108 359.75,-138.5"/>
<text text-anchor="start" x="183.75" y="-125" font-family="Helvetica,sans-Serif" font-size="10.00">Application.Validation.Use</text>
<text text-anchor="middle" x="267.75" y="-113.75" font-family="Helvetica,sans-Serif" font-size="10.00">CaseException.BusinessRuleViolation</text>
</a>
</g>
</g>
<!-- Node1&#45;&gt;Node2 -->
<g id="edge1_Node000001_Node000002" class="edge">
<title>Node1&#45;&gt;Node2</title>
<g id="a_edge1_Node000001_Node000002"><a xlink:title=" ">
<path fill="none" stroke="#63b8ff" d="M124.98,-84.96C141.28,-89.63 159.22,-94.71 175.75,-99.25 182.26,-101.04 189.05,-102.88 195.84,-104.7"/>
<polygon fill="#63b8ff" stroke="#63b8ff" points="194.47,-107.96 205.03,-107.16 196.27,-101.19 194.47,-107.96"/>
</a>
</g>
</g>
<!-- Node3 -->
<g id="Node000003" class="node">
<title>Node3</title>
<g id="a_Node000003"><a xlink:href="class_application_1_1_validation_1_1_use_case_exception.html#aa0bb937013c6f2f6786ca9ae0fed6f28" target="_top" xlink:title=" ">
<polygon fill="white" stroke="#666666" points="350.75,-90.12 184.75,-90.12 184.75,-48.38 350.75,-48.38 350.75,-90.12"/>
<text text-anchor="start" x="192.75" y="-76.62" font-family="Helvetica,sans-Serif" font-size="10.00">Application.Validation.Use</text>
<text text-anchor="start" x="192.75" y="-65.38" font-family="Helvetica,sans-Serif" font-size="10.00">CaseException.NotFoundEntityBy</text>
<text text-anchor="middle" x="267.75" y="-54.12" font-family="Helvetica,sans-Serif" font-size="10.00">Params</text>
</a>
</g>
</g>
<!-- Node1&#45;&gt;Node3 -->
<g id="edge2_Node000001_Node000003" class="edge">
<title>Node1&#45;&gt;Node3</title>
<g id="a_edge2_Node000001_Node000003"><a xlink:title=" ">
<path fill="none" stroke="#63b8ff" d="M140.21,-69.25C150.83,-69.25 161.94,-69.25 172.98,-69.25"/>
<polygon fill="#63b8ff" stroke="#63b8ff" points="172.92,-72.75 182.92,-69.25 172.92,-65.75 172.92,-72.75"/>
</a>
</g>
</g>
<!-- Node4 -->
<g id="Node000004" class="node">
<title>Node4</title>
<g id="a_Node000004"><a xlink:href="class_application_1_1_validation_1_1_use_case_exception.html#a640987a86719d6afd8278fdbf578ab57" target="_top" xlink:title=" ">
<polygon fill="white" stroke="#666666" points="351.88,-30.5 183.62,-30.5 183.62,0 351.88,0 351.88,-30.5"/>
<text text-anchor="start" x="191.62" y="-17" font-family="Helvetica,sans-Serif" font-size="10.00">Application.Validation.Use</text>
<text text-anchor="middle" x="267.75" y="-5.75" font-family="Helvetica,sans-Serif" font-size="10.00">CaseException.NotInformedParam</text>
</a>
</g>
</g>
<!-- Node1&#45;&gt;Node4 -->
<g id="edge3_Node000001_Node000004" class="edge">
<title>Node1&#45;&gt;Node4</title>
<g id="a_edge3_Node000001_Node000004"><a xlink:title=" ">
<path fill="none" stroke="#63b8ff" d="M124.98,-53.54C141.28,-48.87 159.22,-43.79 175.75,-39.25 182.26,-37.46 189.05,-35.62 195.84,-33.8"/>
<polygon fill="#63b8ff" stroke="#63b8ff" points="196.27,-37.31 205.03,-31.34 194.47,-30.54 196.27,-37.31"/>
</a>
</g>
</g>
<!-- Node5 -->
<g id="Node000005" class="node">
<title>Node5</title>
<g id="a_Node000005"><a xlink:href="class_application_1_1_validation_1_1_use_case_exception.html#ad2defa29da6c9eee2864794300f152ae" target="_top" xlink:title=" ">
<polygon fill="white" stroke="#666666" points="566.25,-30.5 395.75,-30.5 395.75,0 566.25,0 566.25,-30.5"/>
<text text-anchor="start" x="403.75" y="-17" font-family="Helvetica,sans-Serif" font-size="10.00">Application.Validation.Use</text>
<text text-anchor="middle" x="481" y="-5.75" font-family="Helvetica,sans-Serif" font-size="10.00">CaseException.UseCaseException</text>
</a>
</g>
</g>
<!-- Node4&#45;&gt;Node5 -->
<g id="edge4_Node000004_Node000005" class="edge">
<title>Node4&#45;&gt;Node5</title>
<g id="a_edge4_Node000004_Node000005"><a xlink:title=" ">
<path fill="none" stroke="#63b8ff" d="M352.24,-15.25C362.66,-15.25 373.38,-15.25 383.97,-15.25"/>
<polygon fill="#63b8ff" stroke="#63b8ff" points="383.87,-18.75 393.87,-15.25 383.87,-11.75 383.87,-18.75"/>
</a>
</g>
</g>
</g>
</svg>
