<?xml version="1.0" encoding="UTF-8" standalone="no"?>
<!DOCTYPE svg PUBLIC "-//W3C//DTD SVG 1.1//EN"
 "http://www.w3.org/Graphics/SVG/1.1/DTD/svg11.dtd">
<!-- Generated by graphviz version 2.43.0 (0)
 -->
<!-- Title: Persistence.Repositories.StudentDocumentsRepository.DeleteAsync Pages: 1 -->
<svg width="497pt" height="149pt"
 viewBox="0.00 0.00 497.00 149.00" xmlns="http://www.w3.org/2000/svg" xmlns:xlink="http://www.w3.org/1999/xlink">
<g id="graph0" class="graph" transform="scale(1 1) rotate(0) translate(4 145)">
<title>Persistence.Repositories.StudentDocumentsRepository.DeleteAsync</title>
<!-- Node1 -->
<g id="node1" class="node">
<title>Node1</title>
<g id="a_node1"><a xlink:title=" ">
<polygon fill="#bfbfbf" stroke="black" points="0,-55.5 0,-85.5 225,-85.5 225,-55.5 0,-55.5"/>
<text text-anchor="start" x="8" y="-73.5" font-family="Helvetica,sans-Serif" font-size="10.00">Persistence.Repositories.</text>
<text text-anchor="middle" x="112.5" y="-62.5" font-family="Helvetica,sans-Serif" font-size="10.00">StudentDocumentsRepository.DeleteAsync</text>
</a>
</g>
</g>
<!-- Node2 -->
<g id="node2" class="node">
<title>Node2</title>
<g id="a_node2"><a xlink:href="classDomain_1_1Entities_1_1Primitives_1_1Entity.html#a3a368e3c302f8622ea0305003ef2a5eb" target="_top" xlink:title=" ">
<polygon fill="none" stroke="black" points="300,-110.5 300,-140.5 450,-140.5 450,-110.5 300,-110.5"/>
<text text-anchor="start" x="308" y="-128.5" font-family="Helvetica,sans-Serif" font-size="10.00">Domain.Entities.Primitives.</text>
<text text-anchor="middle" x="375" y="-117.5" font-family="Helvetica,sans-Serif" font-size="10.00">Entity.DeactivateEntity</text>
</a>
</g>
</g>
<!-- Node1&#45;&gt;Node2 -->
<g id="edge1" class="edge">
<title>Node1&#45;&gt;Node2</title>
<path fill="none" stroke="midnightblue" d="M184.68,-85.53C218.14,-92.59 258.19,-101.05 292.82,-108.36"/>
<polygon fill="midnightblue" stroke="midnightblue" points="292.4,-111.85 302.9,-110.49 293.84,-105 292.4,-111.85"/>
</g>
<!-- Node3 -->
<g id="node3" class="node">
<title>Node3</title>
<g id="a_node3"><a xlink:href="classPersistence_1_1Repositories_1_1StudentDocumentsRepository.html#a96145a644acbf6e65a69409a620d30ab" target="_top" xlink:title=" ">
<polygon fill="none" stroke="black" points="284.5,-50 284.5,-91 465.5,-91 465.5,-50 284.5,-50"/>
<text text-anchor="start" x="292.5" y="-79" font-family="Helvetica,sans-Serif" font-size="10.00">Persistence.Repositories.</text>
<text text-anchor="start" x="292.5" y="-68" font-family="Helvetica,sans-Serif" font-size="10.00">StudentDocumentsRepository.Get</text>
<text text-anchor="middle" x="375" y="-57" font-family="Helvetica,sans-Serif" font-size="10.00">ByIdAsync</text>
</a>
</g>
</g>
<!-- Node1&#45;&gt;Node3 -->
<g id="edge2" class="edge">
<title>Node1&#45;&gt;Node3</title>
<path fill="none" stroke="midnightblue" d="M225.11,-70.5C241.31,-70.5 257.9,-70.5 273.85,-70.5"/>
<polygon fill="midnightblue" stroke="midnightblue" points="274.24,-74 284.24,-70.5 274.24,-67 274.24,-74"/>
</g>
<!-- Node4 -->
<g id="node4" class="node">
<title>Node4</title>
<g id="a_node4"><a xlink:href="classPersistence_1_1Repositories_1_1StudentDocumentsRepository.html#ae86c77250c2ae059d546714540f0928c" target="_top" xlink:title=" ">
<polygon fill="none" stroke="black" points="261,-0.5 261,-30.5 489,-30.5 489,-0.5 261,-0.5"/>
<text text-anchor="start" x="269" y="-18.5" font-family="Helvetica,sans-Serif" font-size="10.00">Persistence.Repositories.</text>
<text text-anchor="middle" x="375" y="-7.5" font-family="Helvetica,sans-Serif" font-size="10.00">StudentDocumentsRepository.UpdateAsync</text>
</a>
</g>
</g>
<!-- Node1&#45;&gt;Node4 -->
<g id="edge3" class="edge">
<title>Node1&#45;&gt;Node4</title>
<path fill="none" stroke="midnightblue" d="M184.68,-55.47C218.14,-48.41 258.19,-39.95 292.82,-32.64"/>
<polygon fill="midnightblue" stroke="midnightblue" points="293.84,-36 302.9,-30.51 292.4,-29.15 293.84,-36"/>
</g>
</g>
</svg>
