<?xml version="1.0" encoding="UTF-8" standalone="no"?>
<!DOCTYPE svg PUBLIC "-//W3C//DTD SVG 1.1//EN"
 "http://www.w3.org/Graphics/SVG/1.1/DTD/svg11.dtd">
<!-- Generated by graphviz version 2.43.0 (0)
 -->
<!-- Title: Services.Email.EmailService.SendEmailAsync Pages: 1 -->
<svg width="417pt" height="296pt"
 viewBox="0.00 0.00 417.00 296.00" xmlns="http://www.w3.org/2000/svg" xmlns:xlink="http://www.w3.org/1999/xlink">
<g id="graph0" class="graph" transform="scale(1 1) rotate(0) translate(4 292)">
<title>Services.Email.EmailService.SendEmailAsync</title>
<!-- Node1 -->
<g id="node1" class="node">
<title>Node1</title>
<g id="a_node1"><a xlink:title=" ">
<polygon fill="#bfbfbf" stroke="black" points="251,-125.5 251,-155.5 409,-155.5 409,-125.5 251,-125.5"/>
<text text-anchor="start" x="259" y="-143.5" font-family="Helvetica,sans-Serif" font-size="10.00">Services.Email.EmailService.</text>
<text text-anchor="middle" x="330" y="-132.5" font-family="Helvetica,sans-Serif" font-size="10.00">SendEmailAsync</text>
</a>
</g>
</g>
<!-- Node2 -->
<g id="node2" class="node">
<title>Node2</title>
<g id="a_node2"><a xlink:href="classServices_1_1Email_1_1EmailService.html#a6e847d27ce8279d1287963b092619c0c" target="_top" xlink:title=" ">
<polygon fill="none" stroke="black" points="27,-257.5 27,-287.5 188,-287.5 188,-257.5 27,-257.5"/>
<text text-anchor="start" x="35" y="-275.5" font-family="Helvetica,sans-Serif" font-size="10.00">Services.Email.EmailService.</text>
<text text-anchor="middle" x="107.5" y="-264.5" font-family="Helvetica,sans-Serif" font-size="10.00">SendConfirmationEmailAsync</text>
</a>
</g>
</g>
<!-- Node1&#45;&gt;Node2 -->
<g id="edge1" class="edge">
<title>Node1&#45;&gt;Node2</title>
<path fill="none" stroke="midnightblue" d="M311.19,-163.57C290.71,-188.44 254.77,-227.29 215,-248.5 206.64,-252.96 197.48,-256.59 188.16,-259.55"/>
<polygon fill="midnightblue" stroke="midnightblue" points="313.97,-165.7 317.52,-155.72 308.52,-161.31 313.97,-165.7"/>
</g>
<!-- Node3 -->
<g id="node3" class="node">
<title>Node3</title>
<g id="a_node3"><a xlink:href="classServices_1_1Email_1_1EmailService.html#a1171bee4d40483b4f7dabbab2c32cd90" target="_top" xlink:title=" ">
<polygon fill="none" stroke="black" points="28.5,-208.5 28.5,-238.5 186.5,-238.5 186.5,-208.5 28.5,-208.5"/>
<text text-anchor="start" x="36.5" y="-226.5" font-family="Helvetica,sans-Serif" font-size="10.00">Services.Email.EmailService.</text>
<text text-anchor="middle" x="107.5" y="-215.5" font-family="Helvetica,sans-Serif" font-size="10.00">SendNoticeEmailAsync</text>
</a>
</g>
</g>
<!-- Node1&#45;&gt;Node3 -->
<g id="edge2" class="edge">
<title>Node1&#45;&gt;Node3</title>
<path fill="none" stroke="midnightblue" d="M294.55,-160.78C272.42,-173.1 242.74,-188.36 215,-198.5 204.74,-202.25 193.72,-205.58 182.8,-208.48"/>
<polygon fill="midnightblue" stroke="midnightblue" points="296.55,-163.66 303.54,-155.7 293.11,-157.57 296.55,-163.66"/>
</g>
<!-- Node4 -->
<g id="node4" class="node">
<title>Node4</title>
<g id="a_node4"><a xlink:href="classServices_1_1Email_1_1EmailService.html#a6dc6c315d8ba0e1453dc79435b7e7120" target="_top" xlink:title=" ">
<polygon fill="none" stroke="black" points="15.5,-148 15.5,-189 199.5,-189 199.5,-148 15.5,-148"/>
<text text-anchor="start" x="23.5" y="-177" font-family="Helvetica,sans-Serif" font-size="10.00">Services.Email.EmailService.</text>
<text text-anchor="start" x="23.5" y="-166" font-family="Helvetica,sans-Serif" font-size="10.00">SendNotificationOfReportDeadline</text>
<text text-anchor="middle" x="107.5" y="-155" font-family="Helvetica,sans-Serif" font-size="10.00">EmailAsync</text>
</a>
</g>
</g>
<!-- Node1&#45;&gt;Node4 -->
<g id="edge3" class="edge">
<title>Node1&#45;&gt;Node4</title>
<path fill="none" stroke="midnightblue" d="M240.72,-151.71C227.2,-153.43 213.22,-155.2 199.64,-156.93"/>
<polygon fill="midnightblue" stroke="midnightblue" points="241.47,-155.14 250.95,-150.41 240.59,-148.2 241.47,-155.14"/>
</g>
<!-- Node5 -->
<g id="node5" class="node">
<title>Node5</title>
<g id="a_node5"><a xlink:href="classServices_1_1Email_1_1EmailService.html#acac60e14ea753ab4be216425451553b1" target="_top" xlink:title=" ">
<polygon fill="none" stroke="black" points="13.5,-98.5 13.5,-128.5 201.5,-128.5 201.5,-98.5 13.5,-98.5"/>
<text text-anchor="start" x="21.5" y="-116.5" font-family="Helvetica,sans-Serif" font-size="10.00">Services.Email.EmailService.</text>
<text text-anchor="middle" x="107.5" y="-105.5" font-family="Helvetica,sans-Serif" font-size="10.00">SendProjectNotificationEmailAsync</text>
</a>
</g>
</g>
<!-- Node1&#45;&gt;Node5 -->
<g id="edge4" class="edge">
<title>Node1&#45;&gt;Node5</title>
<path fill="none" stroke="midnightblue" d="M240.72,-129.69C227.83,-128.11 214.53,-126.48 201.55,-124.89"/>
<polygon fill="midnightblue" stroke="midnightblue" points="240.6,-133.2 250.95,-130.94 241.45,-126.25 240.6,-133.2"/>
</g>
<!-- Node6 -->
<g id="node6" class="node">
<title>Node6</title>
<g id="a_node6"><a xlink:href="classServices_1_1Email_1_1EmailService.html#aa7a1ff575189a23a96f806266a63eca4" target="_top" xlink:title=" ">
<polygon fill="none" stroke="black" points="0,-49.5 0,-79.5 215,-79.5 215,-49.5 0,-49.5"/>
<text text-anchor="start" x="8" y="-67.5" font-family="Helvetica,sans-Serif" font-size="10.00">Services.Email.EmailService.</text>
<text text-anchor="middle" x="107.5" y="-56.5" font-family="Helvetica,sans-Serif" font-size="10.00">SendRequestStudentRegisterEmailAsync</text>
</a>
</g>
</g>
<!-- Node1&#45;&gt;Node6 -->
<g id="edge5" class="edge">
<title>Node1&#45;&gt;Node6</title>
<path fill="none" stroke="midnightblue" d="M290.4,-121.02C268.65,-110.62 240.77,-98.2 215,-89.5 204.11,-85.82 192.42,-82.49 180.92,-79.54"/>
<polygon fill="midnightblue" stroke="midnightblue" points="289.09,-124.28 299.62,-125.49 292.14,-117.98 289.09,-124.28"/>
</g>
<!-- Node7 -->
<g id="node7" class="node">
<title>Node7</title>
<g id="a_node7"><a xlink:href="classServices_1_1Email_1_1EmailService.html#ae9e95fa7d7ee982aecbfab334e0952e5" target="_top" xlink:title=" ">
<polygon fill="none" stroke="black" points="22,-0.5 22,-30.5 193,-30.5 193,-0.5 22,-0.5"/>
<text text-anchor="start" x="30" y="-18.5" font-family="Helvetica,sans-Serif" font-size="10.00">Services.Email.EmailService.</text>
<text text-anchor="middle" x="107.5" y="-7.5" font-family="Helvetica,sans-Serif" font-size="10.00">SendResetPasswordEmailAsync</text>
</a>
</g>
</g>
<!-- Node1&#45;&gt;Node7 -->
<g id="edge6" class="edge">
<title>Node1&#45;&gt;Node7</title>
<path fill="none" stroke="midnightblue" d="M309.48,-117.81C288.46,-94.84 252.9,-60.01 215,-40.5 207.49,-36.63 199.37,-33.35 191.08,-30.58"/>
<polygon fill="midnightblue" stroke="midnightblue" points="307,-120.29 316.29,-125.39 312.21,-115.62 307,-120.29"/>
</g>
</g>
</svg>
