<?xml version="1.0" encoding="UTF-8" standalone="no"?>
<!DOCTYPE svg PUBLIC "-//W3C//DTD SVG 1.1//EN"
 "http://www.w3.org/Graphics/SVG/1.1/DTD/svg11.dtd">
<!-- Generated by graphviz version 2.43.0 (0)
 -->
<!-- Title: UseCaseException.NotFoundEntityByParams Pages: 1 -->
<svg width="440pt" height="284pt"
 viewBox="0.00 0.00 440.00 284.00" xmlns="http://www.w3.org/2000/svg" xmlns:xlink="http://www.w3.org/1999/xlink">
<g id="graph0" class="graph" transform="scale(1 1) rotate(0) translate(4 280)">
<title>UseCaseException.NotFoundEntityByParams</title>
<!-- Node1 -->
<g id="node1" class="node">
<title>Node1</title>
<g id="a_node1"><a xlink:title=" ">
<polygon fill="#bfbfbf" stroke="black" points="275,-122.5 275,-152.5 432,-152.5 432,-122.5 275,-122.5"/>
<text text-anchor="start" x="283" y="-140.5" font-family="Helvetica,sans-Serif" font-size="10.00">UseCaseException.NotFound</text>
<text text-anchor="middle" x="353.5" y="-129.5" font-family="Helvetica,sans-Serif" font-size="10.00">EntityByParams</text>
</a>
</g>
</g>
<!-- Node2 -->
<g id="node2" class="node">
<title>Node2</title>
<g id="a_node2"><a xlink:href="classApplication_1_1UseCases_1_1SubArea_1_1CreateSubArea.html#ad046dae78a98463de48dd78d6401e05c" target="_top" xlink:title=" ">
<polygon fill="none" stroke="black" points="27,-245.5 27,-275.5 212,-275.5 212,-245.5 27,-245.5"/>
<text text-anchor="start" x="35" y="-263.5" font-family="Helvetica,sans-Serif" font-size="10.00">Application.UseCases.Sub</text>
<text text-anchor="middle" x="119.5" y="-252.5" font-family="Helvetica,sans-Serif" font-size="10.00">Area.CreateSubArea.ExecuteAsync</text>
</a>
</g>
</g>
<!-- Node1&#45;&gt;Node2 -->
<g id="edge1" class="edge">
<title>Node1&#45;&gt;Node2</title>
<path fill="none" stroke="midnightblue" d="M333.16,-160.2C312.31,-183.12 276.96,-217.76 239,-236.5 230.53,-240.68 221.38,-244.13 212.04,-246.99"/>
<polygon fill="midnightblue" stroke="midnightblue" points="335.87,-162.41 339.91,-152.62 330.64,-157.76 335.87,-162.41"/>
</g>
<!-- Node3 -->
<g id="node3" class="node">
<title>Node3</title>
<g id="a_node3"><a xlink:href="classApplication_1_1UseCases_1_1Auth_1_1ForgotPassword.html#a9f5e6e93fde734561616fe27334e6f5c" target="_top" xlink:title=" ">
<polygon fill="none" stroke="black" points="37.5,-196.5 37.5,-226.5 201.5,-226.5 201.5,-196.5 37.5,-196.5"/>
<text text-anchor="start" x="45.5" y="-214.5" font-family="Helvetica,sans-Serif" font-size="10.00">Application.UseCases.Auth.</text>
<text text-anchor="middle" x="119.5" y="-203.5" font-family="Helvetica,sans-Serif" font-size="10.00">ForgotPassword.ExecuteAsync</text>
</a>
</g>
</g>
<!-- Node1&#45;&gt;Node3 -->
<g id="edge2" class="edge">
<title>Node1&#45;&gt;Node3</title>
<path fill="none" stroke="midnightblue" d="M313.68,-157.09C292.12,-167.33 264.56,-179.38 239,-187.5 227.1,-191.28 214.32,-194.6 201.73,-197.47"/>
<polygon fill="midnightblue" stroke="midnightblue" points="315.34,-160.17 322.83,-152.68 312.31,-153.87 315.34,-160.17"/>
</g>
<!-- Node4 -->
<g id="node4" class="node">
<title>Node4</title>
<g id="a_node4"><a xlink:href="classApplication_1_1UseCases_1_1Auth_1_1ConfirmEmail.html#a477e5b787ef8cebabae73f0c15d16074" target="_top" xlink:title=" ">
<polygon fill="none" stroke="black" points="43,-147.5 43,-177.5 196,-177.5 196,-147.5 43,-147.5"/>
<text text-anchor="start" x="51" y="-165.5" font-family="Helvetica,sans-Serif" font-size="10.00">Application.UseCases.Auth.</text>
<text text-anchor="middle" x="119.5" y="-154.5" font-family="Helvetica,sans-Serif" font-size="10.00">ConfirmEmail.ExecuteAsync</text>
</a>
</g>
</g>
<!-- Node1&#45;&gt;Node4 -->
<g id="edge3" class="edge">
<title>Node1&#45;&gt;Node4</title>
<path fill="none" stroke="midnightblue" d="M264.97,-146.93C242.28,-149.38 218.04,-151.99 196.03,-154.36"/>
<polygon fill="midnightblue" stroke="midnightblue" points="265.36,-150.41 274.92,-145.86 264.61,-143.45 265.36,-150.41"/>
</g>
<!-- Node5 -->
<g id="node5" class="node">
<title>Node5</title>
<g id="a_node5"><a xlink:href="classApplication_1_1UseCases_1_1Student_1_1GetStudentByRegistrationCode.html#af8e8fe93ac6e84cabb46e492d0e652ab" target="_top" xlink:title=" ">
<polygon fill="none" stroke="black" points="0,-98.5 0,-128.5 239,-128.5 239,-98.5 0,-98.5"/>
<text text-anchor="start" x="8" y="-116.5" font-family="Helvetica,sans-Serif" font-size="10.00">Application.UseCases.Student.</text>
<text text-anchor="middle" x="119.5" y="-105.5" font-family="Helvetica,sans-Serif" font-size="10.00">GetStudentByRegistrationCode.ExecuteAsync</text>
</a>
</g>
</g>
<!-- Node1&#45;&gt;Node5 -->
<g id="edge4" class="edge">
<title>Node1&#45;&gt;Node5</title>
<path fill="none" stroke="midnightblue" d="M264.86,-128.43C256.51,-127.57 247.95,-126.68 239.37,-125.8"/>
<polygon fill="midnightblue" stroke="midnightblue" points="264.62,-131.93 274.92,-129.47 265.34,-124.96 264.62,-131.93"/>
</g>
<!-- Node6 -->
<g id="node6" class="node">
<title>Node6</title>
<g id="a_node6"><a xlink:href="classApplication_1_1UseCases_1_1Auth_1_1Login.html#a4295a8cc56b59a5c4d75cba4d40d7091" target="_top" xlink:title=" ">
<polygon fill="none" stroke="black" points="44,-49.5 44,-79.5 195,-79.5 195,-49.5 44,-49.5"/>
<text text-anchor="start" x="52" y="-67.5" font-family="Helvetica,sans-Serif" font-size="10.00">Application.UseCases.Auth.</text>
<text text-anchor="middle" x="119.5" y="-56.5" font-family="Helvetica,sans-Serif" font-size="10.00">Login.ExecuteAsync</text>
</a>
</g>
</g>
<!-- Node1&#45;&gt;Node6 -->
<g id="edge5" class="edge">
<title>Node1&#45;&gt;Node6</title>
<path fill="none" stroke="midnightblue" d="M312.21,-118.22C290.83,-108.57 263.89,-97.31 239,-89.5 224.96,-85.09 209.73,-81.23 195.03,-77.94"/>
<polygon fill="midnightblue" stroke="midnightblue" points="310.76,-121.41 321.31,-122.39 313.67,-115.05 310.76,-121.41"/>
</g>
<!-- Node7 -->
<g id="node7" class="node">
<title>Node7</title>
<g id="a_node7"><a xlink:href="classUseCaseException.html#a64bcc0201fa14fdac5a3e7c1f1168993" target="_top" xlink:title=" ">
<polygon fill="none" stroke="black" points="41,-0.5 41,-30.5 198,-30.5 198,-0.5 41,-0.5"/>
<text text-anchor="start" x="49" y="-18.5" font-family="Helvetica,sans-Serif" font-size="10.00">UseCaseException.NotFound</text>
<text text-anchor="middle" x="119.5" y="-7.5" font-family="Helvetica,sans-Serif" font-size="10.00">EntityByParams</text>
</a>
</g>
</g>
<!-- Node1&#45;&gt;Node7 -->
<g id="edge6" class="edge">
<title>Node1&#45;&gt;Node7</title>
<path fill="none" stroke="midnightblue" d="M332.68,-114.96C311.69,-92.55 276.44,-58.94 239,-40.5 226.36,-34.28 212.22,-29.6 198.23,-26.08"/>
<polygon fill="midnightblue" stroke="midnightblue" points="330.15,-117.38 339.5,-122.38 335.31,-112.65 330.15,-117.38"/>
</g>
</g>
</svg>
