<?xml version="1.0" encoding="UTF-8" standalone="no"?>
<!DOCTYPE svg PUBLIC "-//W3C//DTD SVG 1.1//EN"
 "http://www.w3.org/Graphics/SVG/1.1/DTD/svg11.dtd">
<!-- Generated by graphviz version 8.1.0 (20230707.0739)
 -->
<!-- Title: src.domain.interfaces.services.speech_recognition_service_interface.ISpeechRecognitionService Pages: 1 -->
<svg width="195pt" height="183pt"
 viewBox="0.00 0.00 195.00 182.75" xmlns="http://www.w3.org/2000/svg" xmlns:xlink="http://www.w3.org/1999/xlink">
<g id="graph0" class="graph" transform="scale(1 1) rotate(0) translate(4 178.75)">
<title>src.domain.interfaces.services.speech_recognition_service_interface.ISpeechRecognitionService</title>
<!-- Node1 -->
<g id="Node000001" class="node">
<title>Node1</title>
<g id="a_Node000001"><a xlink:title=" ">
<polygon fill="#999999" stroke="#666666" points="187,-119.5 0,-119.5 0,-77.75 187,-77.75 187,-119.5"/>
<text text-anchor="start" x="8" y="-106" font-family="Helvetica,sans-Serif" font-size="10.00">src.domain.interfaces.services.speech</text>
<text text-anchor="start" x="8" y="-94.75" font-family="Helvetica,sans-Serif" font-size="10.00">_recognition_service_interface.ISpeech</text>
<text text-anchor="middle" x="93.5" y="-83.5" font-family="Helvetica,sans-Serif" font-size="10.00">RecognitionService</text>
</a>
</g>
</g>
<!-- Node3 -->
<g id="Node000003" class="node">
<title>Node3</title>
<g id="a_Node000003"><a xlink:href="classsrc_1_1infra_1_1external__services_1_1speech__recognition__service_1_1_speech_recognition_service.html" target="_top" xlink:title=" ">
<polygon fill="white" stroke="#666666" points="180.25,-41.75 6.75,-41.75 6.75,0 180.25,0 180.25,-41.75"/>
<text text-anchor="start" x="14.75" y="-28.25" font-family="Helvetica,sans-Serif" font-size="10.00">src.infra.external</text>
<text text-anchor="start" x="14.75" y="-17" font-family="Helvetica,sans-Serif" font-size="10.00">_services.speech_recognition</text>
<text text-anchor="middle" x="93.5" y="-5.75" font-family="Helvetica,sans-Serif" font-size="10.00">_service.SpeechRecognitionService</text>
</a>
</g>
</g>
<!-- Node1&#45;&gt;Node3 -->
<g id="edge2_Node000001_Node000003" class="edge">
<title>Node1&#45;&gt;Node3</title>
<g id="a_edge2_Node000001_Node000003"><a xlink:title=" ">
<path fill="none" stroke="#63b8ff" d="M93.5,-66.56C93.5,-58.36 93.5,-49.71 93.5,-42.23"/>
<polygon fill="#63b8ff" stroke="#63b8ff" points="90,-66.33 93.5,-76.33 97,-66.33 90,-66.33"/>
</a>
</g>
</g>
<!-- Node2 -->
<g id="Node000002" class="node">
<title>Node2</title>
<g id="a_Node000002"><a xlink:title=" ">
<polygon fill="white" stroke="#666666" points="112,-174.75 75,-174.75 75,-155.5 112,-155.5 112,-174.75"/>
<text text-anchor="middle" x="93.5" y="-161.25" font-family="Helvetica,sans-Serif" font-size="10.00">ABC</text>
</a>
</g>
</g>
<!-- Node2&#45;&gt;Node1 -->
<g id="edge1_Node000001_Node000002" class="edge">
<title>Node2&#45;&gt;Node1</title>
<g id="a_edge1_Node000001_Node000002"><a xlink:title=" ">
<path fill="none" stroke="#63b8ff" d="M93.5,-144.25C93.5,-136.53 93.5,-127.69 93.5,-119.93"/>
<polygon fill="#63b8ff" stroke="#63b8ff" points="90,-144.16 93.5,-154.16 97,-144.16 90,-144.16"/>
</a>
</g>
</g>
</g>
</svg>
