<?xml version="1.0" encoding="UTF-8" standalone="no"?>
<!DOCTYPE svg PUBLIC "-//W3C//DTD SVG 1.1//EN"
 "http://www.w3.org/Graphics/SVG/1.1/DTD/svg11.dtd">
<!-- Generated by graphviz version 8.1.0 (20230707.0739)
 -->
<!-- Title: src.infra.external_services.speech_recognition_service.SpeechRecognitionService Pages: 1 -->
<svg width="478pt" height="50pt"
 viewBox="0.00 0.00 477.50 49.75" xmlns="http://www.w3.org/2000/svg" xmlns:xlink="http://www.w3.org/1999/xlink">
<g id="graph0" class="graph" transform="scale(1 1) rotate(0) translate(4 45.75)">
<title>src.infra.external_services.speech_recognition_service.SpeechRecognitionService</title>
<!-- Node1 -->
<g id="Node000001" class="node">
<title>Node1</title>
<g id="a_Node000001"><a xlink:title=" ">
<polygon fill="#999999" stroke="#666666" points="469.5,-41.75 296,-41.75 296,0 469.5,0 469.5,-41.75"/>
<text text-anchor="start" x="304" y="-28.25" font-family="Helvetica,sans-Serif" font-size="10.00">src.infra.external</text>
<text text-anchor="start" x="304" y="-17" font-family="Helvetica,sans-Serif" font-size="10.00">_services.speech_recognition</text>
<text text-anchor="middle" x="382.75" y="-5.75" font-family="Helvetica,sans-Serif" font-size="10.00">_service.SpeechRecognitionService</text>
</a>
</g>
</g>
<!-- Node2 -->
<g id="Node000002" class="node">
<title>Node2</title>
<g id="a_Node000002"><a xlink:href="classsrc_1_1domain_1_1interfaces_1_1services_1_1speech__recognition__service__interface_1_1_i_speech_recognition_service.html" target="_top" xlink:title=" ">
<polygon fill="white" stroke="#666666" points="260,-41.75 73,-41.75 73,0 260,0 260,-41.75"/>
<text text-anchor="start" x="81" y="-28.25" font-family="Helvetica,sans-Serif" font-size="10.00">src.domain.interfaces.services.speech</text>
<text text-anchor="start" x="81" y="-17" font-family="Helvetica,sans-Serif" font-size="10.00">_recognition_service_interface.ISpeech</text>
<text text-anchor="middle" x="166.5" y="-5.75" font-family="Helvetica,sans-Serif" font-size="10.00">RecognitionService</text>
</a>
</g>
</g>
<!-- Node2&#45;&gt;Node1 -->
<g id="edge1_Node000001_Node000002" class="edge">
<title>Node2&#45;&gt;Node1</title>
<g id="a_edge1_Node000001_Node000002"><a xlink:title=" ">
<path fill="none" stroke="#63b8ff" d="M271.03,-20.88C279.27,-20.88 287.54,-20.88 295.64,-20.88"/>
<polygon fill="#63b8ff" stroke="#63b8ff" points="271.23,-17.38 261.23,-20.88 271.23,-24.38 271.23,-17.38"/>
</a>
</g>
</g>
<!-- Node3 -->
<g id="Node000003" class="node">
<title>Node3</title>
<g id="a_Node000003"><a xlink:title=" ">
<polygon fill="white" stroke="#666666" points="37,-30.5 0,-30.5 0,-11.25 37,-11.25 37,-30.5"/>
<text text-anchor="middle" x="18.5" y="-17" font-family="Helvetica,sans-Serif" font-size="10.00">ABC</text>
</a>
</g>
</g>
<!-- Node3&#45;&gt;Node2 -->
<g id="edge2_Node000002_Node000003" class="edge">
<title>Node3&#45;&gt;Node2</title>
<g id="a_edge2_Node000002_Node000003"><a xlink:title=" ">
<path fill="none" stroke="#63b8ff" d="M48.36,-20.88C55.67,-20.88 63.92,-20.88 72.57,-20.88"/>
<polygon fill="#63b8ff" stroke="#63b8ff" points="48.4,-17.38 38.4,-20.88 48.4,-24.38 48.4,-17.38"/>
</a>
</g>
</g>
</g>
</svg>
