<?xml version="1.0" encoding="UTF-8" standalone="no"?>
<!DOCTYPE svg PUBLIC "-//W3C//DTD SVG 1.1//EN"
 "http://www.w3.org/Graphics/SVG/1.1/DTD/svg11.dtd">
<!-- Generated by graphviz version 9.0.0 (20230911.1827)
 -->
<!-- Title: Application.UseCases.Student.DeleteStudent.ExecuteAsync Pages: 1 -->
<svg width="588pt" height="137pt"
 viewBox="0.00 0.00 587.75 136.50" xmlns="http://www.w3.org/2000/svg" xmlns:xlink="http://www.w3.org/1999/xlink">
<g id="graph0" class="graph" transform="scale(1 1) rotate(0) translate(4 132.5)">
<title>Application.UseCases.Student.DeleteStudent.ExecuteAsync</title>
<!-- Node1 -->
<g id="Node000001" class="node">
<title>Node1</title>
<g id="a_Node000001"><a xlink:title=" ">
<polygon fill="#999999" stroke="#666666" points="153.25,-79.5 0,-79.5 0,-49 153.25,-49 153.25,-79.5"/>
<text text-anchor="start" x="8" y="-66" font-family="Helvetica,sans-Serif" font-size="10.00">Application.UseCases.Student.</text>
<text text-anchor="middle" x="76.62" y="-54.75" font-family="Helvetica,sans-Serif" font-size="10.00">DeleteStudent.ExecuteAsync</text>
</a>
</g>
</g>
<!-- Node2 -->
<g id="Node000002" class="node">
<title>Node2</title>
<g id="a_Node000002"><a xlink:href="class_application_1_1_validation_1_1_use_case_exception.html#abdfb0053369c84d85c471ad55011c4c4" target="_top" xlink:title=" ">
<polygon fill="white" stroke="#666666" points="373.25,-128.5 189.25,-128.5 189.25,-98 373.25,-98 373.25,-128.5"/>
<text text-anchor="start" x="197.25" y="-115" font-family="Helvetica,sans-Serif" font-size="10.00">Application.Validation.Use</text>
<text text-anchor="middle" x="281.25" y="-103.75" font-family="Helvetica,sans-Serif" font-size="10.00">CaseException.BusinessRuleViolation</text>
</a>
</g>
</g>
<!-- Node1&#45;&gt;Node2 -->
<g id="edge1_Node000001_Node000002" class="edge">
<title>Node1&#45;&gt;Node2</title>
<g id="a_edge1_Node000001_Node000002"><a xlink:title=" ">
<path fill="none" stroke="#63b8ff" d="M142.57,-79.96C162.2,-84.7 183.94,-89.96 204.22,-94.86"/>
<polygon fill="#63b8ff" stroke="#63b8ff" points="203.31,-98.24 213.85,-97.19 204.95,-91.44 203.31,-98.24"/>
</a>
</g>
</g>
<!-- Node3 -->
<g id="Node000003" class="node">
<title>Node3</title>
<g id="a_Node000003"><a xlink:href="class_application_1_1_validation_1_1_use_case_exception.html#a6bfcf35154fd3871957a71216a943cba" target="_top" xlink:title=" ">
<polygon fill="white" stroke="#666666" points="368.38,-79.5 194.12,-79.5 194.12,-49 368.38,-49 368.38,-79.5"/>
<text text-anchor="start" x="202.12" y="-66" font-family="Helvetica,sans-Serif" font-size="10.00">Application.Validation.Use</text>
<text text-anchor="middle" x="281.25" y="-54.75" font-family="Helvetica,sans-Serif" font-size="10.00">CaseException.NotFoundEntityById</text>
</a>
</g>
</g>
<!-- Node1&#45;&gt;Node3 -->
<g id="edge2_Node000001_Node000003" class="edge">
<title>Node1&#45;&gt;Node3</title>
<g id="a_edge2_Node000001_Node000003"><a xlink:title=" ">
<path fill="none" stroke="#63b8ff" d="M153.65,-64.25C163.09,-64.25 172.85,-64.25 182.56,-64.25"/>
<polygon fill="#63b8ff" stroke="#63b8ff" points="182.41,-67.75 192.41,-64.25 182.41,-60.75 182.41,-67.75"/>
</a>
</g>
</g>
<!-- Node4 -->
<g id="Node000004" class="node">
<title>Node4</title>
<g id="a_Node000004"><a xlink:href="class_application_1_1_validation_1_1_use_case_exception.html#a640987a86719d6afd8278fdbf578ab57" target="_top" xlink:title=" ">
<polygon fill="white" stroke="#666666" points="365.38,-30.5 197.12,-30.5 197.12,0 365.38,0 365.38,-30.5"/>
<text text-anchor="start" x="205.12" y="-17" font-family="Helvetica,sans-Serif" font-size="10.00">Application.Validation.Use</text>
<text text-anchor="middle" x="281.25" y="-5.75" font-family="Helvetica,sans-Serif" font-size="10.00">CaseException.NotInformedParam</text>
</a>
</g>
</g>
<!-- Node1&#45;&gt;Node4 -->
<g id="edge3_Node000001_Node000004" class="edge">
<title>Node1&#45;&gt;Node4</title>
<g id="a_edge3_Node000001_Node000004"><a xlink:title=" ">
<path fill="none" stroke="#63b8ff" d="M142.57,-48.54C162.2,-43.8 183.94,-38.54 204.22,-33.64"/>
<polygon fill="#63b8ff" stroke="#63b8ff" points="204.95,-37.06 213.85,-31.31 203.31,-30.26 204.95,-37.06"/>
</a>
</g>
</g>
<!-- Node5 -->
<g id="Node000005" class="node">
<title>Node5</title>
<g id="a_Node000005"><a xlink:href="class_application_1_1_validation_1_1_use_case_exception.html#ad2defa29da6c9eee2864794300f152ae" target="_top" xlink:title=" ">
<polygon fill="white" stroke="#666666" points="579.75,-30.5 409.25,-30.5 409.25,0 579.75,0 579.75,-30.5"/>
<text text-anchor="start" x="417.25" y="-17" font-family="Helvetica,sans-Serif" font-size="10.00">Application.Validation.Use</text>
<text text-anchor="middle" x="494.5" y="-5.75" font-family="Helvetica,sans-Serif" font-size="10.00">CaseException.UseCaseException</text>
</a>
</g>
</g>
<!-- Node4&#45;&gt;Node5 -->
<g id="edge4_Node000004_Node000005" class="edge">
<title>Node4&#45;&gt;Node5</title>
<g id="a_edge4_Node000004_Node000005"><a xlink:title=" ">
<path fill="none" stroke="#63b8ff" d="M365.74,-15.25C376.16,-15.25 386.88,-15.25 397.47,-15.25"/>
<polygon fill="#63b8ff" stroke="#63b8ff" points="397.37,-18.75 407.37,-15.25 397.37,-11.75 397.37,-18.75"/>
</a>
</g>
</g>
</g>
</svg>
