<?xml version="1.0" encoding="UTF-8" standalone="no"?>
<!DOCTYPE svg PUBLIC "-//W3C//DTD SVG 1.1//EN"
 "http://www.w3.org/Graphics/SVG/1.1/DTD/svg11.dtd">
<!-- Generated by graphviz version 2.43.0 (0)
 -->
<!-- Title: Persistence.Repositories.ActivityTypeRepository.DeleteAsync Pages: 1 -->
<svg width="435pt" height="137pt"
 viewBox="0.00 0.00 435.00 137.00" xmlns="http://www.w3.org/2000/svg" xmlns:xlink="http://www.w3.org/1999/xlink">
<g id="graph0" class="graph" transform="scale(1 1) rotate(0) translate(4 133)">
<title>Persistence.Repositories.ActivityTypeRepository.DeleteAsync</title>
<!-- Node1 -->
<g id="node1" class="node">
<title>Node1</title>
<g id="a_node1"><a xlink:title=" ">
<polygon fill="#bfbfbf" stroke="black" points="0,-49.5 0,-79.5 192,-79.5 192,-49.5 0,-49.5"/>
<text text-anchor="start" x="8" y="-67.5" font-family="Helvetica,sans-Serif" font-size="10.00">Persistence.Repositories.</text>
<text text-anchor="middle" x="96" y="-56.5" font-family="Helvetica,sans-Serif" font-size="10.00">ActivityTypeRepository.DeleteAsync</text>
</a>
</g>
</g>
<!-- Node2 -->
<g id="node2" class="node">
<title>Node2</title>
<g id="a_node2"><a xlink:href="classDomain_1_1Entities_1_1Primitives_1_1Entity.html#a3a368e3c302f8622ea0305003ef2a5eb" target="_top" xlink:title=" ">
<polygon fill="none" stroke="black" points="252.5,-98.5 252.5,-128.5 402.5,-128.5 402.5,-98.5 252.5,-98.5"/>
<text text-anchor="start" x="260.5" y="-116.5" font-family="Helvetica,sans-Serif" font-size="10.00">Domain.Entities.Primitives.</text>
<text text-anchor="middle" x="327.5" y="-105.5" font-family="Helvetica,sans-Serif" font-size="10.00">Entity.DeactivateEntity</text>
</a>
</g>
</g>
<!-- Node1&#45;&gt;Node2 -->
<g id="edge1" class="edge">
<title>Node1&#45;&gt;Node2</title>
<path fill="none" stroke="midnightblue" d="M167.42,-79.53C192.31,-84.85 220.49,-90.87 246.15,-96.34"/>
<polygon fill="midnightblue" stroke="midnightblue" points="245.71,-99.83 256.22,-98.49 247.17,-92.98 245.71,-99.83"/>
</g>
<!-- Node3 -->
<g id="node3" class="node">
<title>Node3</title>
<g id="a_node3"><a xlink:href="classPersistence_1_1Repositories_1_1ActivityTypeRepository.html#a1d624deb58f8e58f1f339dd6e0431853" target="_top" xlink:title=" ">
<polygon fill="none" stroke="black" points="228,-49.5 228,-79.5 427,-79.5 427,-49.5 228,-49.5"/>
<text text-anchor="start" x="236" y="-67.5" font-family="Helvetica,sans-Serif" font-size="10.00">Persistence.Repositories.</text>
<text text-anchor="middle" x="327.5" y="-56.5" font-family="Helvetica,sans-Serif" font-size="10.00">ActivityTypeRepository.GetByIdAsync</text>
</a>
</g>
</g>
<!-- Node1&#45;&gt;Node3 -->
<g id="edge2" class="edge">
<title>Node1&#45;&gt;Node3</title>
<path fill="none" stroke="midnightblue" d="M192,-64.5C200.51,-64.5 209.17,-64.5 217.78,-64.5"/>
<polygon fill="midnightblue" stroke="midnightblue" points="217.86,-68 227.86,-64.5 217.86,-61 217.86,-68"/>
</g>
<!-- Node4 -->
<g id="node4" class="node">
<title>Node4</title>
<g id="a_node4"><a xlink:href="classPersistence_1_1Repositories_1_1ActivityTypeRepository.html#aadc9a81069052af6a020986caf1ff859" target="_top" xlink:title=" ">
<polygon fill="none" stroke="black" points="230,-0.5 230,-30.5 425,-30.5 425,-0.5 230,-0.5"/>
<text text-anchor="start" x="238" y="-18.5" font-family="Helvetica,sans-Serif" font-size="10.00">Persistence.Repositories.</text>
<text text-anchor="middle" x="327.5" y="-7.5" font-family="Helvetica,sans-Serif" font-size="10.00">ActivityTypeRepository.UpdateAsync</text>
</a>
</g>
</g>
<!-- Node1&#45;&gt;Node4 -->
<g id="edge3" class="edge">
<title>Node1&#45;&gt;Node4</title>
<path fill="none" stroke="midnightblue" d="M167.42,-49.47C192.31,-44.15 220.49,-38.13 246.15,-32.66"/>
<polygon fill="midnightblue" stroke="midnightblue" points="247.17,-36.02 256.22,-30.51 245.71,-29.17 247.17,-36.02"/>
</g>
</g>
</svg>
