<?xml version="1.0" encoding="UTF-8" standalone="no"?>
<!DOCTYPE svg PUBLIC "-//W3C//DTD SVG 1.1//EN"
 "http://www.w3.org/Graphics/SVG/1.1/DTD/svg11.dtd">
<!-- Generated by graphviz version 2.43.0 (0)
 -->
<!-- Title: Persistence.Repositories.ProjectActivityRepository.DeleteAsync Pages: 1 -->
<svg width="453pt" height="149pt"
 viewBox="0.00 0.00 453.00 149.00" xmlns="http://www.w3.org/2000/svg" xmlns:xlink="http://www.w3.org/1999/xlink">
<g id="graph0" class="graph" transform="scale(1 1) rotate(0) translate(4 145)">
<title>Persistence.Repositories.ProjectActivityRepository.DeleteAsync</title>
<!-- Node1 -->
<g id="node1" class="node">
<title>Node1</title>
<g id="a_node1"><a xlink:title=" ">
<polygon fill="#bfbfbf" stroke="black" points="0,-55.5 0,-85.5 203,-85.5 203,-55.5 0,-55.5"/>
<text text-anchor="start" x="8" y="-73.5" font-family="Helvetica,sans-Serif" font-size="10.00">Persistence.Repositories.</text>
<text text-anchor="middle" x="101.5" y="-62.5" font-family="Helvetica,sans-Serif" font-size="10.00">ProjectActivityRepository.DeleteAsync</text>
</a>
</g>
</g>
<!-- Node2 -->
<g id="node2" class="node">
<title>Node2</title>
<g id="a_node2"><a xlink:href="classDomain_1_1Entities_1_1Primitives_1_1Entity.html#a3a368e3c302f8622ea0305003ef2a5eb" target="_top" xlink:title=" ">
<polygon fill="none" stroke="black" points="267,-110.5 267,-140.5 417,-140.5 417,-110.5 267,-110.5"/>
<text text-anchor="start" x="275" y="-128.5" font-family="Helvetica,sans-Serif" font-size="10.00">Domain.Entities.Primitives.</text>
<text text-anchor="middle" x="342" y="-117.5" font-family="Helvetica,sans-Serif" font-size="10.00">Entity.DeactivateEntity</text>
</a>
</g>
</g>
<!-- Node1&#45;&gt;Node2 -->
<g id="edge1" class="edge">
<title>Node1&#45;&gt;Node2</title>
<path fill="none" stroke="midnightblue" d="M167.67,-85.53C198.04,-92.53 234.34,-100.9 265.86,-108.17"/>
<polygon fill="midnightblue" stroke="midnightblue" points="265.38,-111.65 275.91,-110.49 266.95,-104.83 265.38,-111.65"/>
</g>
<!-- Node3 -->
<g id="node3" class="node">
<title>Node3</title>
<g id="a_node3"><a xlink:href="classPersistence_1_1Repositories_1_1ProjectActivityRepository.html#abf214733ad9f251667def65bd63dd703" target="_top" xlink:title=" ">
<polygon fill="none" stroke="black" points="256,-50 256,-91 428,-91 428,-50 256,-50"/>
<text text-anchor="start" x="264" y="-79" font-family="Helvetica,sans-Serif" font-size="10.00">Persistence.Repositories.</text>
<text text-anchor="start" x="264" y="-68" font-family="Helvetica,sans-Serif" font-size="10.00">ProjectActivityRepository.GetBy</text>
<text text-anchor="middle" x="342" y="-57" font-family="Helvetica,sans-Serif" font-size="10.00">IdAsync</text>
</a>
</g>
</g>
<!-- Node1&#45;&gt;Node3 -->
<g id="edge2" class="edge">
<title>Node1&#45;&gt;Node3</title>
<path fill="none" stroke="midnightblue" d="M203.3,-70.5C217.32,-70.5 231.68,-70.5 245.59,-70.5"/>
<polygon fill="midnightblue" stroke="midnightblue" points="245.63,-74 255.63,-70.5 245.63,-67 245.63,-74"/>
</g>
<!-- Node4 -->
<g id="node4" class="node">
<title>Node4</title>
<g id="a_node4"><a xlink:href="classPersistence_1_1Repositories_1_1ProjectActivityRepository.html#af4a45ba1d30b64809251054f008523d8" target="_top" xlink:title=" ">
<polygon fill="none" stroke="black" points="239,-0.5 239,-30.5 445,-30.5 445,-0.5 239,-0.5"/>
<text text-anchor="start" x="247" y="-18.5" font-family="Helvetica,sans-Serif" font-size="10.00">Persistence.Repositories.</text>
<text text-anchor="middle" x="342" y="-7.5" font-family="Helvetica,sans-Serif" font-size="10.00">ProjectActivityRepository.UpdateAsync</text>
</a>
</g>
</g>
<!-- Node1&#45;&gt;Node4 -->
<g id="edge3" class="edge">
<title>Node1&#45;&gt;Node4</title>
<path fill="none" stroke="midnightblue" d="M167.67,-55.47C198.04,-48.47 234.34,-40.1 265.86,-32.83"/>
<polygon fill="midnightblue" stroke="midnightblue" points="266.95,-36.17 275.91,-30.51 265.38,-29.35 266.95,-36.17"/>
</g>
</g>
</svg>
