<?xml version="1.0" encoding="UTF-8" standalone="no"?>
<!DOCTYPE svg PUBLIC "-//W3C//DTD SVG 1.1//EN"
 "http://www.w3.org/Graphics/SVG/1.1/DTD/svg11.dtd">
<!-- Generated by graphviz version 2.43.0 (0)
 -->
<!-- Title: Domain.Entities.ProjectActivity.CalculatePoints Pages: 1 -->
<svg width="568pt" height="39pt"
 viewBox="0.00 0.00 568.00 39.00" xmlns="http://www.w3.org/2000/svg" xmlns:xlink="http://www.w3.org/1999/xlink">
<g id="graph0" class="graph" transform="scale(1 1) rotate(0) translate(4 35)">
<title>Domain.Entities.ProjectActivity.CalculatePoints</title>
<!-- Node1 -->
<g id="node1" class="node">
<title>Node1</title>
<g id="a_node1"><a xlink:title="Calcula a pontuação da Atividade.">
<polygon fill="#bfbfbf" stroke="black" points="0,-0.5 0,-30.5 170,-30.5 170,-0.5 0,-0.5"/>
<text text-anchor="start" x="8" y="-18.5" font-family="Helvetica,sans-Serif" font-size="10.00">Domain.Entities.ProjectActivity.</text>
<text text-anchor="middle" x="85" y="-7.5" font-family="Helvetica,sans-Serif" font-size="10.00">CalculatePoints</text>
</a>
</g>
</g>
<!-- Node2 -->
<g id="node2" class="node">
<title>Node2</title>
<g id="a_node2"><a xlink:href="classEntityExceptionValidation.html#a8c2e517876998fa3e3789c61477dc437" target="_top" xlink:title=" ">
<polygon fill="none" stroke="black" points="206,-6 206,-25 379,-25 379,-6 206,-6"/>
<text text-anchor="middle" x="292.5" y="-13" font-family="Helvetica,sans-Serif" font-size="10.00">EntityExceptionValidation.When</text>
</a>
</g>
</g>
<!-- Node1&#45;&gt;Node2 -->
<g id="edge1" class="edge">
<title>Node1&#45;&gt;Node2</title>
<path fill="none" stroke="midnightblue" d="M170.18,-15.5C178.53,-15.5 187.05,-15.5 195.51,-15.5"/>
<polygon fill="midnightblue" stroke="midnightblue" points="195.79,-19 205.79,-15.5 195.79,-12 195.79,-19"/>
</g>
<!-- Node3 -->
<g id="node3" class="node">
<title>Node3</title>
<g id="a_node3"><a xlink:href="classEntityExceptionValidation.html#a41811f98de590f436cdf3d8d1327fd5b" target="_top" xlink:title=" ">
<polygon fill="none" stroke="black" points="415,-0.5 415,-30.5 560,-30.5 560,-0.5 415,-0.5"/>
<text text-anchor="start" x="423" y="-18.5" font-family="Helvetica,sans-Serif" font-size="10.00">EntityExceptionValidation.</text>
<text text-anchor="middle" x="487.5" y="-7.5" font-family="Helvetica,sans-Serif" font-size="10.00">EntityExceptionValidation</text>
</a>
</g>
</g>
<!-- Node2&#45;&gt;Node3 -->
<g id="edge2" class="edge">
<title>Node2&#45;&gt;Node3</title>
<path fill="none" stroke="midnightblue" d="M379.28,-15.5C387.72,-15.5 396.28,-15.5 404.68,-15.5"/>
<polygon fill="midnightblue" stroke="midnightblue" points="404.84,-19 414.84,-15.5 404.84,-12 404.84,-19"/>
</g>
</g>
</svg>
