<?xml version="1.0" encoding="UTF-8" standalone="no"?>
<!DOCTYPE svg PUBLIC "-//W3C//DTD SVG 1.1//EN"
 "http://www.w3.org/Graphics/SVG/1.1/DTD/svg11.dtd">
<!-- Generated by graphviz version 9.0.0 (20230911.1827)
 -->
<!-- Title: Application.UseCases.SubArea.CreateSubArea.ExecuteAsync Pages: 1 -->
<svg width="607pt" height="147pt"
 viewBox="0.00 0.00 607.25 146.50" xmlns="http://www.w3.org/2000/svg" xmlns:xlink="http://www.w3.org/1999/xlink">
<g id="graph0" class="graph" transform="scale(1 1) rotate(0) translate(4 142.5)">
<title>Application.UseCases.SubArea.CreateSubArea.ExecuteAsync</title>
<!-- Node1 -->
<g id="Node000001" class="node">
<title>Node1</title>
<g id="a_Node000001"><a xlink:title=" ">
<polygon fill="#999999" stroke="#666666" points="172.75,-84.5 0,-84.5 0,-54 172.75,-54 172.75,-84.5"/>
<text text-anchor="start" x="8" y="-71" font-family="Helvetica,sans-Serif" font-size="10.00">Application.UseCases.Sub</text>
<text text-anchor="middle" x="86.38" y="-59.75" font-family="Helvetica,sans-Serif" font-size="10.00">Area.CreateSubArea.ExecuteAsync</text>
</a>
</g>
</g>
<!-- Node2 -->
<g id="Node000002" class="node">
<title>Node2</title>
<g id="a_Node000002"><a xlink:href="class_application_1_1_validation_1_1_use_case_exception.html#abdfb0053369c84d85c471ad55011c4c4" target="_top" xlink:title=" ">
<polygon fill="white" stroke="#666666" points="392.75,-138.5 208.75,-138.5 208.75,-108 392.75,-108 392.75,-138.5"/>
<text text-anchor="start" x="216.75" y="-125" font-family="Helvetica,sans-Serif" font-size="10.00">Application.Validation.Use</text>
<text text-anchor="middle" x="300.75" y="-113.75" font-family="Helvetica,sans-Serif" font-size="10.00">CaseException.BusinessRuleViolation</text>
</a>
</g>
</g>
<!-- Node1&#45;&gt;Node2 -->
<g id="edge1_Node000001_Node000002" class="edge">
<title>Node1&#45;&gt;Node2</title>
<g id="a_edge1_Node000001_Node000002"><a xlink:title=" ">
<path fill="none" stroke="#63b8ff" d="M149.09,-84.94C173.41,-91.13 201.54,-98.28 226.85,-104.71"/>
<polygon fill="#63b8ff" stroke="#63b8ff" points="225.86,-108.07 236.42,-107.15 227.59,-101.29 225.86,-108.07"/>
</a>
</g>
</g>
<!-- Node3 -->
<g id="Node000003" class="node">
<title>Node3</title>
<g id="a_Node000003"><a xlink:href="class_application_1_1_validation_1_1_use_case_exception.html#aa0bb937013c6f2f6786ca9ae0fed6f28" target="_top" xlink:title=" ">
<polygon fill="white" stroke="#666666" points="383.75,-90.12 217.75,-90.12 217.75,-48.38 383.75,-48.38 383.75,-90.12"/>
<text text-anchor="start" x="225.75" y="-76.62" font-family="Helvetica,sans-Serif" font-size="10.00">Application.Validation.Use</text>
<text text-anchor="start" x="225.75" y="-65.38" font-family="Helvetica,sans-Serif" font-size="10.00">CaseException.NotFoundEntityBy</text>
<text text-anchor="middle" x="300.75" y="-54.12" font-family="Helvetica,sans-Serif" font-size="10.00">Params</text>
</a>
</g>
</g>
<!-- Node1&#45;&gt;Node3 -->
<g id="edge2_Node000001_Node000003" class="edge">
<title>Node1&#45;&gt;Node3</title>
<g id="a_edge2_Node000001_Node000003"><a xlink:title=" ">
<path fill="none" stroke="#63b8ff" d="M173.14,-69.25C183.99,-69.25 195.14,-69.25 206.11,-69.25"/>
<polygon fill="#63b8ff" stroke="#63b8ff" points="205.94,-72.75 215.94,-69.25 205.94,-65.75 205.94,-72.75"/>
</a>
</g>
</g>
<!-- Node4 -->
<g id="Node000004" class="node">
<title>Node4</title>
<g id="a_Node000004"><a xlink:href="class_application_1_1_validation_1_1_use_case_exception.html#a640987a86719d6afd8278fdbf578ab57" target="_top" xlink:title=" ">
<polygon fill="white" stroke="#666666" points="384.88,-30.5 216.62,-30.5 216.62,0 384.88,0 384.88,-30.5"/>
<text text-anchor="start" x="224.62" y="-17" font-family="Helvetica,sans-Serif" font-size="10.00">Application.Validation.Use</text>
<text text-anchor="middle" x="300.75" y="-5.75" font-family="Helvetica,sans-Serif" font-size="10.00">CaseException.NotInformedParam</text>
</a>
</g>
</g>
<!-- Node1&#45;&gt;Node4 -->
<g id="edge3_Node000001_Node000004" class="edge">
<title>Node1&#45;&gt;Node4</title>
<g id="a_edge3_Node000001_Node000004"><a xlink:title=" ">
<path fill="none" stroke="#63b8ff" d="M149.09,-53.56C173.41,-47.37 201.54,-40.22 226.85,-33.79"/>
<polygon fill="#63b8ff" stroke="#63b8ff" points="227.59,-37.21 236.42,-31.35 225.86,-30.43 227.59,-37.21"/>
</a>
</g>
</g>
<!-- Node5 -->
<g id="Node000005" class="node">
<title>Node5</title>
<g id="a_Node000005"><a xlink:href="class_application_1_1_validation_1_1_use_case_exception.html#ad2defa29da6c9eee2864794300f152ae" target="_top" xlink:title=" ">
<polygon fill="white" stroke="#666666" points="599.25,-30.5 428.75,-30.5 428.75,0 599.25,0 599.25,-30.5"/>
<text text-anchor="start" x="436.75" y="-17" font-family="Helvetica,sans-Serif" font-size="10.00">Application.Validation.Use</text>
<text text-anchor="middle" x="514" y="-5.75" font-family="Helvetica,sans-Serif" font-size="10.00">CaseException.UseCaseException</text>
</a>
</g>
</g>
<!-- Node4&#45;&gt;Node5 -->
<g id="edge4_Node000004_Node000005" class="edge">
<title>Node4&#45;&gt;Node5</title>
<g id="a_edge4_Node000004_Node000005"><a xlink:title=" ">
<path fill="none" stroke="#63b8ff" d="M385.24,-15.25C395.66,-15.25 406.38,-15.25 416.97,-15.25"/>
<polygon fill="#63b8ff" stroke="#63b8ff" points="416.87,-18.75 426.87,-15.25 416.87,-11.75 416.87,-18.75"/>
</a>
</g>
</g>
</g>
</svg>
