<?xml version="1.0" encoding="UTF-8" standalone="no"?>
<!DOCTYPE svg PUBLIC "-//W3C//DTD SVG 1.1//EN"
 "http://www.w3.org/Graphics/SVG/1.1/DTD/svg11.dtd">
<!-- Generated by graphviz version 2.43.0 (0)
 -->
<!-- Title: Application.UseCases.ProjectPartialReport.DeleteProjectPartialReport.ExecuteAsync Pages: 1 -->
<svg width="584pt" height="50pt"
 viewBox="0.00 0.00 584.00 50.00" xmlns="http://www.w3.org/2000/svg" xmlns:xlink="http://www.w3.org/1999/xlink">
<g id="graph0" class="graph" transform="scale(1 1) rotate(0) translate(4 46)">
<title>Application.UseCases.ProjectPartialReport.DeleteProjectPartialReport.ExecuteAsync</title>
<!-- Node1 -->
<g id="node1" class="node">
<title>Node1</title>
<g id="a_node1"><a xlink:title=" ">
<polygon fill="#bfbfbf" stroke="black" points="0,-0.5 0,-41.5 179,-41.5 179,-0.5 0,-0.5"/>
<text text-anchor="start" x="8" y="-29.5" font-family="Helvetica,sans-Serif" font-size="10.00">Application.UseCases.Project</text>
<text text-anchor="start" x="8" y="-18.5" font-family="Helvetica,sans-Serif" font-size="10.00">PartialReport.DeleteProjectPartial</text>
<text text-anchor="middle" x="89.5" y="-7.5" font-family="Helvetica,sans-Serif" font-size="10.00">Report.ExecuteAsync</text>
</a>
</g>
</g>
<!-- Node2 -->
<g id="node2" class="node">
<title>Node2</title>
<g id="a_node2"><a xlink:href="classUseCaseException.html#ab8fc31932179b877a356417d1dd37b56" target="_top" xlink:title=" ">
<polygon fill="none" stroke="black" points="215,-6 215,-36 387,-36 387,-6 215,-6"/>
<text text-anchor="start" x="223" y="-24" font-family="Helvetica,sans-Serif" font-size="10.00">UseCaseException.NotInformed</text>
<text text-anchor="middle" x="301" y="-13" font-family="Helvetica,sans-Serif" font-size="10.00">Param</text>
</a>
</g>
</g>
<!-- Node1&#45;&gt;Node2 -->
<g id="edge1" class="edge">
<title>Node1&#45;&gt;Node2</title>
<path fill="none" stroke="midnightblue" d="M179.04,-21C187.55,-21 196.21,-21 204.77,-21"/>
<polygon fill="midnightblue" stroke="midnightblue" points="204.78,-24.5 214.78,-21 204.78,-17.5 204.78,-24.5"/>
</g>
<!-- Node3 -->
<g id="node3" class="node">
<title>Node3</title>
<g id="a_node3"><a xlink:href="classUseCaseException.html#a1368420a98033f26e4493a4bd8de7df9" target="_top" xlink:title=" ">
<polygon fill="none" stroke="black" points="423,-6 423,-36 576,-36 576,-6 423,-6"/>
<text text-anchor="start" x="431" y="-24" font-family="Helvetica,sans-Serif" font-size="10.00">UseCaseException.UseCase</text>
<text text-anchor="middle" x="499.5" y="-13" font-family="Helvetica,sans-Serif" font-size="10.00">Exception</text>
</a>
</g>
</g>
<!-- Node2&#45;&gt;Node3 -->
<g id="edge2" class="edge">
<title>Node2&#45;&gt;Node3</title>
<path fill="none" stroke="midnightblue" d="M387.04,-21C395.53,-21 404.14,-21 412.63,-21"/>
<polygon fill="midnightblue" stroke="midnightblue" points="412.9,-24.5 422.9,-21 412.9,-17.5 412.9,-24.5"/>
</g>
</g>
</svg>
