<?xml version="1.0" encoding="UTF-8" standalone="no"?>
<!DOCTYPE svg PUBLIC "-//W3C//DTD SVG 1.1//EN"
 "http://www.w3.org/Graphics/SVG/1.1/DTD/svg11.dtd">
<!-- Generated by graphviz version 2.43.0 (0)
 -->
<!-- Title: Domain.Entities.Primitives.Entity.DeactivateEntity Pages: 1 -->
<svg width="463pt" height="966pt"
 viewBox="0.00 0.00 463.00 966.00" xmlns="http://www.w3.org/2000/svg" xmlns:xlink="http://www.w3.org/1999/xlink">
<g id="graph0" class="graph" transform="scale(1 1) rotate(0) translate(4 962)">
<title>Domain.Entities.Primitives.Entity.DeactivateEntity</title>
<!-- Node1 -->
<g id="node1" class="node">
<title>Node1</title>
<g id="a_node1"><a xlink:title=" ">
<polygon fill="#bfbfbf" stroke="black" points="305,-486.5 305,-516.5 455,-516.5 455,-486.5 305,-486.5"/>
<text text-anchor="start" x="313" y="-504.5" font-family="Helvetica,sans-Serif" font-size="10.00">Domain.Entities.Primitives.</text>
<text text-anchor="middle" x="380" y="-493.5" font-family="Helvetica,sans-Serif" font-size="10.00">Entity.DeactivateEntity</text>
</a>
</g>
</g>
<!-- Node2 -->
<g id="node2" class="node">
<title>Node2</title>
<g id="a_node2"><a xlink:href="classPersistence_1_1Repositories_1_1ActivityRepository.html#a7c3fb956859d97db11a9e2fe4354f0e5" target="_top" xlink:title=" ">
<polygon fill="none" stroke="black" points="49.5,-927.5 49.5,-957.5 219.5,-957.5 219.5,-927.5 49.5,-927.5"/>
<text text-anchor="start" x="57.5" y="-945.5" font-family="Helvetica,sans-Serif" font-size="10.00">Persistence.Repositories.</text>
<text text-anchor="middle" x="134.5" y="-934.5" font-family="Helvetica,sans-Serif" font-size="10.00">ActivityRepository.DeleteAsync</text>
</a>
</g>
</g>
<!-- Node1&#45;&gt;Node2 -->
<g id="edge1" class="edge">
<title>Node1&#45;&gt;Node2</title>
<path fill="none" stroke="midnightblue" d="M375.87,-526.92C365.24,-608.9 327.91,-864.12 269,-918.5 255.5,-930.96 237.84,-938.05 219.8,-941.9"/>
<polygon fill="midnightblue" stroke="midnightblue" points="379.37,-527.11 377.16,-516.75 372.43,-526.23 379.37,-527.11"/>
</g>
<!-- Node3 -->
<g id="node3" class="node">
<title>Node3</title>
<g id="a_node3"><a xlink:href="classPersistence_1_1Repositories_1_1ActivityTypeRepository.html#a04049c1f14754605e628cc14a22410cd" target="_top" xlink:title=" ">
<polygon fill="none" stroke="black" points="38.5,-878.5 38.5,-908.5 230.5,-908.5 230.5,-878.5 38.5,-878.5"/>
<text text-anchor="start" x="46.5" y="-896.5" font-family="Helvetica,sans-Serif" font-size="10.00">Persistence.Repositories.</text>
<text text-anchor="middle" x="134.5" y="-885.5" font-family="Helvetica,sans-Serif" font-size="10.00">ActivityTypeRepository.DeleteAsync</text>
</a>
</g>
</g>
<!-- Node1&#45;&gt;Node3 -->
<g id="edge2" class="edge">
<title>Node1&#45;&gt;Node3</title>
<path fill="none" stroke="midnightblue" d="M379.77,-526.7C380.33,-593.73 371.93,-777.55 269,-869.5 258.11,-879.23 244.67,-885.65 230.54,-889.8"/>
<polygon fill="midnightblue" stroke="midnightblue" points="383.27,-526.57 379.61,-516.63 376.27,-526.68 383.27,-526.57"/>
</g>
<!-- Node4 -->
<g id="node4" class="node">
<title>Node4</title>
<g id="a_node4"><a xlink:href="classPersistence_1_1Repositories_1_1AreaRepository.html#abfb92b7f327304d54c6c2bd6c238c03b" target="_top" xlink:title=" ">
<polygon fill="none" stroke="black" points="57,-829.5 57,-859.5 212,-859.5 212,-829.5 57,-829.5"/>
<text text-anchor="start" x="65" y="-847.5" font-family="Helvetica,sans-Serif" font-size="10.00">Persistence.Repositories.</text>
<text text-anchor="middle" x="134.5" y="-836.5" font-family="Helvetica,sans-Serif" font-size="10.00">AreaRepository.DeleteAsync</text>
</a>
</g>
</g>
<!-- Node1&#45;&gt;Node4 -->
<g id="edge3" class="edge">
<title>Node1&#45;&gt;Node4</title>
<path fill="none" stroke="midnightblue" d="M378.42,-527.02C375.54,-588.07 359.26,-743.18 269,-820.5 253.26,-833.98 232.57,-841.03 212.19,-844.48"/>
<polygon fill="midnightblue" stroke="midnightblue" points="381.92,-526.89 378.81,-516.76 374.93,-526.62 381.92,-526.89"/>
</g>
<!-- Node5 -->
<g id="node5" class="node">
<title>Node5</title>
<g id="a_node5"><a xlink:href="classPersistence_1_1Repositories_1_1AssistanceTypeRepository.html#ad101dc8dc0d6012afa691025de15153b" target="_top" xlink:title=" ">
<polygon fill="none" stroke="black" points="31,-780.5 31,-810.5 238,-810.5 238,-780.5 31,-780.5"/>
<text text-anchor="start" x="39" y="-798.5" font-family="Helvetica,sans-Serif" font-size="10.00">Persistence.Repositories.</text>
<text text-anchor="middle" x="134.5" y="-787.5" font-family="Helvetica,sans-Serif" font-size="10.00">AssistanceTypeRepository.DeleteAsync</text>
</a>
</g>
</g>
<!-- Node1&#45;&gt;Node5 -->
<g id="edge4" class="edge">
<title>Node1&#45;&gt;Node5</title>
<path fill="none" stroke="midnightblue" d="M376.64,-526.81C370.17,-580.97 347,-708.31 269,-771.5 259.94,-778.84 249.4,-784.24 238.28,-788.17"/>
<polygon fill="midnightblue" stroke="midnightblue" points="380.14,-527.02 377.76,-516.7 373.18,-526.26 380.14,-527.02"/>
</g>
<!-- Node6 -->
<g id="node6" class="node">
<title>Node6</title>
<g id="a_node6"><a xlink:href="classPersistence_1_1Repositories_1_1CampusRepository.html#af321a43bff2663c9cadd30f1778e1a01" target="_top" xlink:title=" ">
<polygon fill="none" stroke="black" points="48.5,-731.5 48.5,-761.5 220.5,-761.5 220.5,-731.5 48.5,-731.5"/>
<text text-anchor="start" x="56.5" y="-749.5" font-family="Helvetica,sans-Serif" font-size="10.00">Persistence.Repositories.</text>
<text text-anchor="middle" x="134.5" y="-738.5" font-family="Helvetica,sans-Serif" font-size="10.00">CampusRepository.DeleteAsync</text>
</a>
</g>
</g>
<!-- Node1&#45;&gt;Node6 -->
<g id="edge5" class="edge">
<title>Node1&#45;&gt;Node6</title>
<path fill="none" stroke="midnightblue" d="M374.24,-526.41C363.94,-572.98 335.01,-673 269,-722.5 255.06,-732.95 238.02,-739.37 220.84,-743.21"/>
<polygon fill="midnightblue" stroke="midnightblue" points="377.68,-527.05 376.31,-516.55 370.83,-525.61 377.68,-527.05"/>
</g>
<!-- Node7 -->
<g id="node7" class="node">
<title>Node7</title>
<g id="a_node7"><a xlink:href="classPersistence_1_1Repositories_1_1CourseRepository.html#a6ff347fab8f57e33d5123841e4bfdc9b" target="_top" xlink:title=" ">
<polygon fill="none" stroke="black" points="51.5,-682.5 51.5,-712.5 217.5,-712.5 217.5,-682.5 51.5,-682.5"/>
<text text-anchor="start" x="59.5" y="-700.5" font-family="Helvetica,sans-Serif" font-size="10.00">Persistence.Repositories.</text>
<text text-anchor="middle" x="134.5" y="-689.5" font-family="Helvetica,sans-Serif" font-size="10.00">CourseRepository.DeleteAsync</text>
</a>
</g>
</g>
<!-- Node1&#45;&gt;Node7 -->
<g id="edge6" class="edge">
<title>Node1&#45;&gt;Node7</title>
<path fill="none" stroke="midnightblue" d="M370.48,-526.51C356.05,-564.82 322.98,-637.37 269,-673.5 253.83,-683.65 235.61,-689.86 217.58,-693.57"/>
<polygon fill="midnightblue" stroke="midnightblue" points="373.93,-527.27 374.06,-516.67 367.35,-524.87 373.93,-527.27"/>
</g>
<!-- Node8 -->
<g id="node8" class="node">
<title>Node8</title>
<g id="a_node8"><a xlink:href="classPersistence_1_1Repositories_1_1MainAreaRepository.html#a62c668507be6c344bed067d120f53668" target="_top" xlink:title=" ">
<polygon fill="none" stroke="black" points="45,-633.5 45,-663.5 224,-663.5 224,-633.5 45,-633.5"/>
<text text-anchor="start" x="53" y="-651.5" font-family="Helvetica,sans-Serif" font-size="10.00">Persistence.Repositories.</text>
<text text-anchor="middle" x="134.5" y="-640.5" font-family="Helvetica,sans-Serif" font-size="10.00">MainAreaRepository.DeleteAsync</text>
</a>
</g>
</g>
<!-- Node1&#45;&gt;Node8 -->
<g id="edge7" class="edge">
<title>Node1&#45;&gt;Node8</title>
<path fill="none" stroke="midnightblue" d="M364.96,-525.05C346.66,-553.51 311.88,-600.54 269,-624.5 255.33,-632.14 239.75,-637.43 224.18,-641.07"/>
<polygon fill="midnightblue" stroke="midnightblue" points="367.96,-526.85 370.31,-516.52 362.03,-523.13 367.96,-526.85"/>
</g>
<!-- Node9 -->
<g id="node9" class="node">
<title>Node9</title>
<g id="a_node9"><a xlink:href="classPersistence_1_1Repositories_1_1NoticeRepository.html#a6fe2699e9635951b8c412a2af6ec1f3f" target="_top" xlink:title=" ">
<polygon fill="none" stroke="black" points="52.5,-584.5 52.5,-614.5 216.5,-614.5 216.5,-584.5 52.5,-584.5"/>
<text text-anchor="start" x="60.5" y="-602.5" font-family="Helvetica,sans-Serif" font-size="10.00">Persistence.Repositories.</text>
<text text-anchor="middle" x="134.5" y="-591.5" font-family="Helvetica,sans-Serif" font-size="10.00">NoticeRepository.DeleteAsync</text>
</a>
</g>
</g>
<!-- Node1&#45;&gt;Node9 -->
<g id="edge8" class="edge">
<title>Node1&#45;&gt;Node9</title>
<path fill="none" stroke="midnightblue" d="M353.78,-522.96C332.54,-539.88 300.64,-562.68 269,-575.5 252.63,-582.13 234.4,-586.94 216.79,-590.42"/>
<polygon fill="midnightblue" stroke="midnightblue" points="356.09,-525.59 361.65,-516.57 351.68,-520.16 356.09,-525.59"/>
</g>
<!-- Node10 -->
<g id="node10" class="node">
<title>Node10</title>
<g id="a_node10"><a xlink:href="classPersistence_1_1Repositories_1_1ProfessorRepository.html#a9bcc81c20144b0e441f9ee6b5a6f2173" target="_top" xlink:title=" ">
<polygon fill="none" stroke="black" points="45.5,-535.5 45.5,-565.5 223.5,-565.5 223.5,-535.5 45.5,-535.5"/>
<text text-anchor="start" x="53.5" y="-553.5" font-family="Helvetica,sans-Serif" font-size="10.00">Persistence.Repositories.</text>
<text text-anchor="middle" x="134.5" y="-542.5" font-family="Helvetica,sans-Serif" font-size="10.00">ProfessorRepository.DeleteAsync</text>
</a>
</g>
</g>
<!-- Node1&#45;&gt;Node10 -->
<g id="edge9" class="edge">
<title>Node1&#45;&gt;Node10</title>
<path fill="none" stroke="midnightblue" d="M305.1,-518.78C293.05,-521.46 280.69,-524.12 269,-526.5 254,-529.55 238.01,-532.6 222.5,-535.45"/>
<polygon fill="midnightblue" stroke="midnightblue" points="306.13,-522.14 315.12,-516.54 304.6,-515.31 306.13,-522.14"/>
</g>
<!-- Node11 -->
<g id="node11" class="node">
<title>Node11</title>
<g id="a_node11"><a xlink:href="classPersistence_1_1Repositories_1_1ProgramTypeRepository.html#a8bc50a4b5560257355930880c7e93f0a" target="_top" xlink:title=" ">
<polygon fill="none" stroke="black" points="36.5,-486.5 36.5,-516.5 232.5,-516.5 232.5,-486.5 36.5,-486.5"/>
<text text-anchor="start" x="44.5" y="-504.5" font-family="Helvetica,sans-Serif" font-size="10.00">Persistence.Repositories.</text>
<text text-anchor="middle" x="134.5" y="-493.5" font-family="Helvetica,sans-Serif" font-size="10.00">ProgramTypeRepository.DeleteAsync</text>
</a>
</g>
</g>
<!-- Node1&#45;&gt;Node11 -->
<g id="edge10" class="edge">
<title>Node1&#45;&gt;Node11</title>
<path fill="none" stroke="midnightblue" d="M294.91,-501.5C274.81,-501.5 253.2,-501.5 232.57,-501.5"/>
<polygon fill="midnightblue" stroke="midnightblue" points="294.95,-505 304.95,-501.5 294.95,-498 294.95,-505"/>
</g>
<!-- Node12 -->
<g id="node12" class="node">
<title>Node12</title>
<g id="a_node12"><a xlink:href="classPersistence_1_1Repositories_1_1ProjectActivityRepository.html#abcd17b10566bb6884950d71352aaf6f9" target="_top" xlink:title=" ">
<polygon fill="none" stroke="black" points="33,-437.5 33,-467.5 236,-467.5 236,-437.5 33,-437.5"/>
<text text-anchor="start" x="41" y="-455.5" font-family="Helvetica,sans-Serif" font-size="10.00">Persistence.Repositories.</text>
<text text-anchor="middle" x="134.5" y="-444.5" font-family="Helvetica,sans-Serif" font-size="10.00">ProjectActivityRepository.DeleteAsync</text>
</a>
</g>
</g>
<!-- Node1&#45;&gt;Node12 -->
<g id="edge11" class="edge">
<title>Node1&#45;&gt;Node12</title>
<path fill="none" stroke="midnightblue" d="M301.61,-484.31C290.67,-481.97 279.56,-479.64 269,-477.5 252.48,-474.15 234.77,-470.72 217.83,-467.52"/>
<polygon fill="midnightblue" stroke="midnightblue" points="301.07,-487.78 311.59,-486.46 302.55,-480.93 301.07,-487.78"/>
</g>
<!-- Node13 -->
<g id="node13" class="node">
<title>Node13</title>
<g id="a_node13"><a xlink:href="classPersistence_1_1Repositories_1_1ProjectRepository.html#aaa92389e10890170a0d07cb6446c1f4b" target="_top" xlink:title="Remove projeto através do Id informado.">
<polygon fill="none" stroke="black" points="51.5,-388.5 51.5,-418.5 217.5,-418.5 217.5,-388.5 51.5,-388.5"/>
<text text-anchor="start" x="59.5" y="-406.5" font-family="Helvetica,sans-Serif" font-size="10.00">Persistence.Repositories.</text>
<text text-anchor="middle" x="134.5" y="-395.5" font-family="Helvetica,sans-Serif" font-size="10.00">ProjectRepository.DeleteAsync</text>
</a>
</g>
</g>
<!-- Node1&#45;&gt;Node13 -->
<g id="edge12" class="edge">
<title>Node1&#45;&gt;Node13</title>
<path fill="none" stroke="midnightblue" d="M353.32,-480.1C332.04,-463.49 300.31,-441.21 269,-428.5 252.94,-421.98 235.1,-417.15 217.82,-413.56"/>
<polygon fill="midnightblue" stroke="midnightblue" points="351.21,-482.9 361.22,-486.38 355.57,-477.42 351.21,-482.9"/>
</g>
<!-- Node14 -->
<g id="node14" class="node">
<title>Node14</title>
<g id="a_node14"><a xlink:href="classPersistence_1_1Repositories_1_1StudentDocumentsRepository.html#ad526a0ed09379f0fab4f8314e863b230" target="_top" xlink:title=" ">
<polygon fill="none" stroke="black" points="22,-339.5 22,-369.5 247,-369.5 247,-339.5 22,-339.5"/>
<text text-anchor="start" x="30" y="-357.5" font-family="Helvetica,sans-Serif" font-size="10.00">Persistence.Repositories.</text>
<text text-anchor="middle" x="134.5" y="-346.5" font-family="Helvetica,sans-Serif" font-size="10.00">StudentDocumentsRepository.DeleteAsync</text>
</a>
</g>
</g>
<!-- Node1&#45;&gt;Node14 -->
<g id="edge13" class="edge">
<title>Node1&#45;&gt;Node14</title>
<path fill="none" stroke="midnightblue" d="M364.59,-477.74C346.14,-449.53 311.42,-403.29 269,-379.5 262.11,-375.64 254.74,-372.36 247.13,-369.57"/>
<polygon fill="midnightblue" stroke="midnightblue" points="361.67,-479.67 370,-486.22 367.57,-475.91 361.67,-479.67"/>
</g>
<!-- Node15 -->
<g id="node15" class="node">
<title>Node15</title>
<g id="a_node15"><a xlink:href="classPersistence_1_1Repositories_1_1StudentRepository.html#a8468befb5435a51f08332800b77337a8" target="_top" xlink:title=" ">
<polygon fill="none" stroke="black" points="49.5,-290.5 49.5,-320.5 219.5,-320.5 219.5,-290.5 49.5,-290.5"/>
<text text-anchor="start" x="57.5" y="-308.5" font-family="Helvetica,sans-Serif" font-size="10.00">Persistence.Repositories.</text>
<text text-anchor="middle" x="134.5" y="-297.5" font-family="Helvetica,sans-Serif" font-size="10.00">StudentRepository.DeleteAsync</text>
</a>
</g>
</g>
<!-- Node1&#45;&gt;Node15 -->
<g id="edge14" class="edge">
<title>Node1&#45;&gt;Node15</title>
<path fill="none" stroke="midnightblue" d="M370.41,-476.68C355.88,-438.66 322.68,-366.61 269,-330.5 254.42,-320.7 237.03,-314.48 219.68,-310.6"/>
<polygon fill="midnightblue" stroke="midnightblue" points="367.27,-478.27 374.01,-486.44 373.83,-475.85 367.27,-478.27"/>
</g>
<!-- Node16 -->
<g id="node16" class="node">
<title>Node16</title>
<g id="a_node16"><a xlink:href="classPersistence_1_1Repositories_1_1SubAreaRepository.html#a0f0f1a2ac0fbfd3d2e97ae09ac57000a" target="_top" xlink:title=" ">
<polygon fill="none" stroke="black" points="48,-241.5 48,-271.5 221,-271.5 221,-241.5 48,-241.5"/>
<text text-anchor="start" x="56" y="-259.5" font-family="Helvetica,sans-Serif" font-size="10.00">Persistence.Repositories.</text>
<text text-anchor="middle" x="134.5" y="-248.5" font-family="Helvetica,sans-Serif" font-size="10.00">SubAreaRepository.DeleteAsync</text>
</a>
</g>
</g>
<!-- Node1&#45;&gt;Node16 -->
<g id="edge15" class="edge">
<title>Node1&#45;&gt;Node16</title>
<path fill="none" stroke="midnightblue" d="M374.09,-476.41C363.62,-429.98 334.48,-330.88 269,-281.5 255.16,-271.06 238.27,-264.56 221.21,-260.59"/>
<polygon fill="midnightblue" stroke="midnightblue" points="370.69,-477.21 376.21,-486.26 377.53,-475.74 370.69,-477.21"/>
</g>
<!-- Node17 -->
<g id="node17" class="node">
<title>Node17</title>
<g id="a_node17"><a xlink:href="classPersistence_1_1Repositories_1_1UserRepository.html#a5d3cf71881fb298b5de1f34c8f1bbc09" target="_top" xlink:title="Realiza a remoção do usuário utilizando o id informado.">
<polygon fill="none" stroke="black" points="57,-192.5 57,-222.5 212,-222.5 212,-192.5 57,-192.5"/>
<text text-anchor="start" x="65" y="-210.5" font-family="Helvetica,sans-Serif" font-size="10.00">Persistence.Repositories.</text>
<text text-anchor="middle" x="134.5" y="-199.5" font-family="Helvetica,sans-Serif" font-size="10.00">UserRepository.DeleteAsync</text>
</a>
</g>
</g>
<!-- Node1&#45;&gt;Node17 -->
<g id="edge16" class="edge">
<title>Node1&#45;&gt;Node17</title>
<path fill="none" stroke="midnightblue" d="M376.58,-476.33C369.97,-422.45 346.57,-295.72 269,-232.5 253.01,-219.46 232.35,-212.42 212.09,-208.79"/>
<polygon fill="midnightblue" stroke="midnightblue" points="373.11,-476.84 377.72,-486.38 380.07,-476.05 373.11,-476.84"/>
</g>
<!-- Node18 -->
<g id="node18" class="node">
<title>Node18</title>
<g id="a_node18"><a xlink:href="classApplication_1_1Tests_1_1UseCases_1_1Campus_1_1UpdateCampusTests.html#a79c8140fd041e6854c964eb511e251db" target="_top" xlink:title=" ">
<polygon fill="none" stroke="black" points="0,-132 0,-173 269,-173 269,-132 0,-132"/>
<text text-anchor="start" x="8" y="-161" font-family="Helvetica,sans-Serif" font-size="10.00">Application.Tests.UseCases.</text>
<text text-anchor="start" x="8" y="-150" font-family="Helvetica,sans-Serif" font-size="10.00">Campus.UpdateCampusTests.Execute</text>
<text text-anchor="middle" x="134.5" y="-139" font-family="Helvetica,sans-Serif" font-size="10.00">Async_CampusIsDeleted_ThrowsUseCaseException</text>
</a>
</g>
</g>
<!-- Node1&#45;&gt;Node18 -->
<g id="edge17" class="edge">
<title>Node1&#45;&gt;Node18</title>
<path fill="none" stroke="midnightblue" d="M378.13,-476.34C374.64,-416.12 357.08,-262.8 269,-183.5 264.67,-179.6 259.94,-176.16 254.94,-173.13"/>
<polygon fill="midnightblue" stroke="midnightblue" points="374.64,-476.65 378.64,-486.47 381.64,-476.3 374.64,-476.65"/>
</g>
<!-- Node19 -->
<g id="node19" class="node">
<title>Node19</title>
<g id="a_node19"><a xlink:href="classApplication_1_1Tests_1_1UseCases_1_1Course_1_1UpdateCourseTests.html#a7e41e8c865d61e72b71637e5eca418ee" target="_top" xlink:title=" ">
<polygon fill="none" stroke="black" points="3,-72 3,-113 266,-113 266,-72 3,-72"/>
<text text-anchor="start" x="11" y="-101" font-family="Helvetica,sans-Serif" font-size="10.00">Application.Tests.UseCases.</text>
<text text-anchor="start" x="11" y="-90" font-family="Helvetica,sans-Serif" font-size="10.00">Course.UpdateCourseTests.Execute</text>
<text text-anchor="middle" x="134.5" y="-79" font-family="Helvetica,sans-Serif" font-size="10.00">Async_CourseIsDeleted_ThrowsUseCaseException</text>
</a>
</g>
</g>
<!-- Node1&#45;&gt;Node19 -->
<g id="edge18" class="edge">
<title>Node1&#45;&gt;Node19</title>
<path fill="none" stroke="midnightblue" d="M379.8,-476.28C380.51,-408.31 372.54,-219.87 269,-122.5 265.28,-119 261.24,-115.88 256.97,-113.09"/>
<polygon fill="midnightblue" stroke="midnightblue" points="376.3,-476.42 379.62,-486.48 383.3,-476.54 376.3,-476.42"/>
</g>
<!-- Node20 -->
<g id="node20" class="node">
<title>Node20</title>
<g id="a_node20"><a xlink:href="classApplication_1_1Tests_1_1UseCases_1_1Professor_1_1UpdateProfessorTests.html#a6a8dd48834a8570b7e7d5d5282b7da7b" target="_top" xlink:title=" ">
<polygon fill="none" stroke="black" points="48,-0.5 48,-52.5 221,-52.5 221,-0.5 48,-0.5"/>
<text text-anchor="start" x="56" y="-40.5" font-family="Helvetica,sans-Serif" font-size="10.00">Application.Tests.UseCases.</text>
<text text-anchor="start" x="56" y="-29.5" font-family="Helvetica,sans-Serif" font-size="10.00">Professor.UpdateProfessorTests.</text>
<text text-anchor="start" x="56" y="-18.5" font-family="Helvetica,sans-Serif" font-size="10.00">ExecuteAsync_DeletedProfessor</text>
<text text-anchor="middle" x="134.5" y="-7.5" font-family="Helvetica,sans-Serif" font-size="10.00">_ThrowsUseCaseException</text>
</a>
</g>
</g>
<!-- Node1&#45;&gt;Node20 -->
<g id="edge19" class="edge">
<title>Node1&#45;&gt;Node20</title>
<path fill="none" stroke="midnightblue" d="M376,-476.05C365.57,-391.63 328.21,-122.78 269,-62.5 256.05,-49.31 238.81,-40.8 221.03,-35.35"/>
<polygon fill="midnightblue" stroke="midnightblue" points="372.54,-476.55 377.22,-486.05 379.49,-475.7 372.54,-476.55"/>
</g>
</g>
</svg>
