<?xml version="1.0" encoding="UTF-8" standalone="no"?>
<!DOCTYPE svg PUBLIC "-//W3C//DTD SVG 1.1//EN"
 "http://www.w3.org/Graphics/SVG/1.1/DTD/svg11.dtd">
<!-- Generated by graphviz version 8.1.0 (20230707.0739)
 -->
<!-- Title: src.adapters.services.scan_directory_service.ScanDirectoryService Pages: 1 -->
<svg width="175pt" height="183pt"
 viewBox="0.00 0.00 174.75 182.75" xmlns="http://www.w3.org/2000/svg" xmlns:xlink="http://www.w3.org/1999/xlink">
<g id="graph0" class="graph" transform="scale(1 1) rotate(0) translate(4 178.75)">
<title>src.adapters.services.scan_directory_service.ScanDirectoryService</title>
<!-- Node1 -->
<g id="Node000001" class="node">
<title>Node1</title>
<g id="a_Node000001"><a xlink:title=" ">
<polygon fill="#999999" stroke="#666666" points="163.75,-41.75 3,-41.75 3,0 163.75,0 163.75,-41.75"/>
<text text-anchor="start" x="11" y="-28.25" font-family="Helvetica,sans-Serif" font-size="10.00">src.adapters.services.scan</text>
<text text-anchor="start" x="11" y="-17" font-family="Helvetica,sans-Serif" font-size="10.00">_directory_service.ScanDirectory</text>
<text text-anchor="middle" x="83.38" y="-5.75" font-family="Helvetica,sans-Serif" font-size="10.00">Service</text>
</a>
</g>
</g>
<!-- Node2 -->
<g id="Node000002" class="node">
<title>Node2</title>
<g id="a_Node000002"><a xlink:href="classsrc_1_1adapters_1_1interfaces_1_1scan__directory__service__interface_1_1_i_scan_directory_service.html" target="_top" xlink:title=" ">
<polygon fill="white" stroke="#666666" points="166.75,-119.5 0,-119.5 0,-77.75 166.75,-77.75 166.75,-119.5"/>
<text text-anchor="start" x="8" y="-106" font-family="Helvetica,sans-Serif" font-size="10.00">src.adapters.interfaces.scan</text>
<text text-anchor="start" x="8" y="-94.75" font-family="Helvetica,sans-Serif" font-size="10.00">_directory_service_interface.IScan</text>
<text text-anchor="middle" x="83.38" y="-83.5" font-family="Helvetica,sans-Serif" font-size="10.00">DirectoryService</text>
</a>
</g>
</g>
<!-- Node2&#45;&gt;Node1 -->
<g id="edge1_Node000001_Node000002" class="edge">
<title>Node2&#45;&gt;Node1</title>
<g id="a_edge1_Node000001_Node000002"><a xlink:title=" ">
<path fill="none" stroke="#63b8ff" d="M83.38,-66.56C83.38,-58.36 83.38,-49.71 83.38,-42.23"/>
<polygon fill="#63b8ff" stroke="#63b8ff" points="79.88,-66.33 83.38,-76.33 86.88,-66.33 79.88,-66.33"/>
</a>
</g>
</g>
<!-- Node3 -->
<g id="Node000003" class="node">
<title>Node3</title>
<g id="a_Node000003"><a xlink:title=" ">
<polygon fill="white" stroke="#666666" points="101.88,-174.75 64.88,-174.75 64.88,-155.5 101.88,-155.5 101.88,-174.75"/>
<text text-anchor="middle" x="83.38" y="-161.25" font-family="Helvetica,sans-Serif" font-size="10.00">ABC</text>
</a>
</g>
</g>
<!-- Node3&#45;&gt;Node2 -->
<g id="edge2_Node000002_Node000003" class="edge">
<title>Node3&#45;&gt;Node2</title>
<g id="a_edge2_Node000002_Node000003"><a xlink:title=" ">
<path fill="none" stroke="#63b8ff" d="M83.38,-144.25C83.38,-136.53 83.38,-127.69 83.38,-119.93"/>
<polygon fill="#63b8ff" stroke="#63b8ff" points="79.88,-144.16 83.38,-154.16 86.88,-144.16 79.88,-144.16"/>
</a>
</g>
</g>
</g>
</svg>
