<?xml version="1.0" encoding="UTF-8" standalone="no"?>
<!DOCTYPE svg PUBLIC "-//W3C//DTD SVG 1.1//EN"
 "http://www.w3.org/Graphics/SVG/1.1/DTD/svg11.dtd">
<!-- Generated by graphviz version 2.43.0 (0)
 -->
<!-- Title: Application.UseCases.Student.GetStudentById.ExecuteAsync Pages: 1 -->
<svg width="571pt" height="39pt"
 viewBox="0.00 0.00 571.00 39.00" xmlns="http://www.w3.org/2000/svg" xmlns:xlink="http://www.w3.org/1999/xlink">
<g id="graph0" class="graph" transform="scale(1 1) rotate(0) translate(4 35)">
<title>Application.UseCases.Student.GetStudentById.ExecuteAsync</title>
<!-- Node1 -->
<g id="node1" class="node">
<title>Node1</title>
<g id="a_node1"><a xlink:title=" ">
<polygon fill="#bfbfbf" stroke="black" points="0,-0.5 0,-30.5 166,-30.5 166,-0.5 0,-0.5"/>
<text text-anchor="start" x="8" y="-18.5" font-family="Helvetica,sans-Serif" font-size="10.00">Application.UseCases.Student.</text>
<text text-anchor="middle" x="83" y="-7.5" font-family="Helvetica,sans-Serif" font-size="10.00">GetStudentById.ExecuteAsync</text>
</a>
</g>
</g>
<!-- Node2 -->
<g id="node2" class="node">
<title>Node2</title>
<g id="a_node2"><a xlink:href="classUseCaseException.html#ab8fc31932179b877a356417d1dd37b56" target="_top" xlink:title=" ">
<polygon fill="none" stroke="black" points="202,-0.5 202,-30.5 374,-30.5 374,-0.5 202,-0.5"/>
<text text-anchor="start" x="210" y="-18.5" font-family="Helvetica,sans-Serif" font-size="10.00">UseCaseException.NotInformed</text>
<text text-anchor="middle" x="288" y="-7.5" font-family="Helvetica,sans-Serif" font-size="10.00">Param</text>
</a>
</g>
</g>
<!-- Node1&#45;&gt;Node2 -->
<g id="edge1" class="edge">
<title>Node1&#45;&gt;Node2</title>
<path fill="none" stroke="midnightblue" d="M166.28,-15.5C174.73,-15.5 183.36,-15.5 191.94,-15.5"/>
<polygon fill="midnightblue" stroke="midnightblue" points="191.96,-19 201.96,-15.5 191.96,-12 191.96,-19"/>
</g>
<!-- Node3 -->
<g id="node3" class="node">
<title>Node3</title>
<g id="a_node3"><a xlink:href="classUseCaseException.html#a1368420a98033f26e4493a4bd8de7df9" target="_top" xlink:title=" ">
<polygon fill="none" stroke="black" points="410,-0.5 410,-30.5 563,-30.5 563,-0.5 410,-0.5"/>
<text text-anchor="start" x="418" y="-18.5" font-family="Helvetica,sans-Serif" font-size="10.00">UseCaseException.UseCase</text>
<text text-anchor="middle" x="486.5" y="-7.5" font-family="Helvetica,sans-Serif" font-size="10.00">Exception</text>
</a>
</g>
</g>
<!-- Node2&#45;&gt;Node3 -->
<g id="edge2" class="edge">
<title>Node2&#45;&gt;Node3</title>
<path fill="none" stroke="midnightblue" d="M374.04,-15.5C382.53,-15.5 391.14,-15.5 399.63,-15.5"/>
<polygon fill="midnightblue" stroke="midnightblue" points="399.9,-19 409.9,-15.5 399.9,-12 399.9,-19"/>
</g>
</g>
</svg>
