<?xml version="1.0" encoding="UTF-8" standalone="no"?>
<!DOCTYPE svg PUBLIC "-//W3C//DTD SVG 1.1//EN"
 "http://www.w3.org/Graphics/SVG/1.1/DTD/svg11.dtd">
<!-- Generated by graphviz version 9.0.0 (20230911.1827)
 -->
<!-- Title: Application.UseCases.AssistanceType.CreateAssistanceType.ExecuteAsync Pages: 1 -->
<svg width="640pt" height="88pt"
 viewBox="0.00 0.00 640.25 87.50" xmlns="http://www.w3.org/2000/svg" xmlns:xlink="http://www.w3.org/1999/xlink">
<g id="graph0" class="graph" transform="scale(1 1) rotate(0) translate(4 83.5)">
<title>Application.UseCases.AssistanceType.CreateAssistanceType.ExecuteAsync</title>
<!-- Node1 -->
<g id="Node000001" class="node">
<title>Node1</title>
<g id="a_Node000001"><a xlink:title=" ">
<polygon fill="#999999" stroke="#666666" points="205.75,-54.5 0,-54.5 0,-24 205.75,-24 205.75,-54.5"/>
<text text-anchor="start" x="8" y="-41" font-family="Helvetica,sans-Serif" font-size="10.00">Application.UseCases.Assistance</text>
<text text-anchor="middle" x="102.88" y="-29.75" font-family="Helvetica,sans-Serif" font-size="10.00">Type.CreateAssistanceType.ExecuteAsync</text>
</a>
</g>
</g>
<!-- Node2 -->
<g id="Node000002" class="node">
<title>Node2</title>
<g id="a_Node000002"><a xlink:href="class_application_1_1_validation_1_1_use_case_exception.html#abdfb0053369c84d85c471ad55011c4c4" target="_top" xlink:title=" ">
<polygon fill="white" stroke="#666666" points="425.75,-79.5 241.75,-79.5 241.75,-49 425.75,-49 425.75,-79.5"/>
<text text-anchor="start" x="249.75" y="-66" font-family="Helvetica,sans-Serif" font-size="10.00">Application.Validation.Use</text>
<text text-anchor="middle" x="333.75" y="-54.75" font-family="Helvetica,sans-Serif" font-size="10.00">CaseException.BusinessRuleViolation</text>
</a>
</g>
</g>
<!-- Node1&#45;&gt;Node2 -->
<g id="edge1_Node000001_Node000002" class="edge">
<title>Node1&#45;&gt;Node2</title>
<g id="a_edge1_Node000001_Node000002"><a xlink:title=" ">
<path fill="none" stroke="#63b8ff" d="M205.93,-50.4C213.95,-51.27 222.05,-52.16 230.08,-53.04"/>
<polygon fill="#63b8ff" stroke="#63b8ff" points="229.53,-56.5 239.85,-54.1 230.29,-49.54 229.53,-56.5"/>
</a>
</g>
</g>
<!-- Node3 -->
<g id="Node000003" class="node">
<title>Node3</title>
<g id="a_Node000003"><a xlink:href="class_application_1_1_validation_1_1_use_case_exception.html#a640987a86719d6afd8278fdbf578ab57" target="_top" xlink:title=" ">
<polygon fill="white" stroke="#666666" points="417.88,-30.5 249.62,-30.5 249.62,0 417.88,0 417.88,-30.5"/>
<text text-anchor="start" x="257.62" y="-17" font-family="Helvetica,sans-Serif" font-size="10.00">Application.Validation.Use</text>
<text text-anchor="middle" x="333.75" y="-5.75" font-family="Helvetica,sans-Serif" font-size="10.00">CaseException.NotInformedParam</text>
</a>
</g>
</g>
<!-- Node1&#45;&gt;Node3 -->
<g id="edge2_Node000001_Node000003" class="edge">
<title>Node1&#45;&gt;Node3</title>
<g id="a_edge2_Node000001_Node000003"><a xlink:title=" ">
<path fill="none" stroke="#63b8ff" d="M205.93,-28.55C216.61,-27.43 227.43,-26.29 238.03,-25.18"/>
<polygon fill="#63b8ff" stroke="#63b8ff" points="238.33,-28.67 247.91,-24.15 237.6,-21.71 238.33,-28.67"/>
</a>
</g>
</g>
<!-- Node4 -->
<g id="Node000004" class="node">
<title>Node4</title>
<g id="a_Node000004"><a xlink:href="class_application_1_1_validation_1_1_use_case_exception.html#ad2defa29da6c9eee2864794300f152ae" target="_top" xlink:title=" ">
<polygon fill="white" stroke="#666666" points="632.25,-30.5 461.75,-30.5 461.75,0 632.25,0 632.25,-30.5"/>
<text text-anchor="start" x="469.75" y="-17" font-family="Helvetica,sans-Serif" font-size="10.00">Application.Validation.Use</text>
<text text-anchor="middle" x="547" y="-5.75" font-family="Helvetica,sans-Serif" font-size="10.00">CaseException.UseCaseException</text>
</a>
</g>
</g>
<!-- Node3&#45;&gt;Node4 -->
<g id="edge3_Node000003_Node000004" class="edge">
<title>Node3&#45;&gt;Node4</title>
<g id="a_edge3_Node000003_Node000004"><a xlink:title=" ">
<path fill="none" stroke="#63b8ff" d="M418.24,-15.25C428.66,-15.25 439.38,-15.25 449.97,-15.25"/>
<polygon fill="#63b8ff" stroke="#63b8ff" points="449.87,-18.75 459.87,-15.25 449.87,-11.75 449.87,-18.75"/>
</a>
</g>
</g>
</g>
</svg>
