<?xml version="1.0" encoding="UTF-8" standalone="no"?>
<!DOCTYPE svg PUBLIC "-//W3C//DTD SVG 1.1//EN"
 "http://www.w3.org/Graphics/SVG/1.1/DTD/svg11.dtd">
<!-- Generated by graphviz version 2.43.0 (0)
 -->
<!-- Title: Representação gráfica da hiearquia da classe Pages: 1 -->
<svg width="337pt" height="186pt"
 viewBox="0.00 0.00 337.00 186.00" xmlns="http://www.w3.org/2000/svg" xmlns:xlink="http://www.w3.org/1999/xlink">
<g id="graph0" class="graph" transform="scale(1 1) rotate(0) translate(4 182)">
<title>Representação gráfica da hiearquia da classe</title>
<!-- Node0 -->
<g id="node1" class="node">
<title>Node0</title>
<g id="a_node1"><a xlink:href="classApplication_1_1Ports_1_1Course_1_1BaseCourseContract.html" target="_top" xlink:title=" ">
<polygon fill="none" stroke="black" points="0,-73.5 0,-103.5 139,-103.5 139,-73.5 0,-73.5"/>
<text text-anchor="start" x="8" y="-91.5" font-family="Helvetica,sans-Serif" font-size="10.00">Application.Ports.Course.</text>
<text text-anchor="middle" x="69.5" y="-80.5" font-family="Helvetica,sans-Serif" font-size="10.00">BaseCourseContract</text>
</a>
</g>
</g>
<!-- Node1 -->
<g id="node2" class="node">
<title>Node1</title>
<g id="a_node2"><a xlink:href="classApplication_1_1Ports_1_1Course_1_1CreateCourseInput.html" target="_top" xlink:title=" ">
<polygon fill="none" stroke="black" points="182.5,-147.5 182.5,-177.5 321.5,-177.5 321.5,-147.5 182.5,-147.5"/>
<text text-anchor="start" x="190.5" y="-165.5" font-family="Helvetica,sans-Serif" font-size="10.00">Application.Ports.Course.</text>
<text text-anchor="middle" x="252" y="-154.5" font-family="Helvetica,sans-Serif" font-size="10.00">CreateCourseInput</text>
</a>
</g>
</g>
<!-- Node0&#45;&gt;Node1 -->
<g id="edge1" class="edge">
<title>Node0&#45;&gt;Node1</title>
<path fill="none" stroke="midnightblue" d="M108.48,-108.26C128.06,-118.04 152.49,-129.61 175,-138.5 182.98,-141.65 191.55,-144.68 199.96,-147.47"/>
<polygon fill="midnightblue" stroke="midnightblue" points="109.8,-105 99.29,-103.62 106.65,-111.25 109.8,-105"/>
</g>
<!-- Node2 -->
<g id="node3" class="node">
<title>Node2</title>
<g id="a_node3"><a xlink:href="classApplication_1_1Ports_1_1Course_1_1DetailedReadCourseOutput.html" target="_top" xlink:title=" ">
<polygon fill="none" stroke="black" points="177.5,-98.5 177.5,-128.5 326.5,-128.5 326.5,-98.5 177.5,-98.5"/>
<text text-anchor="start" x="185.5" y="-116.5" font-family="Helvetica,sans-Serif" font-size="10.00">Application.Ports.Course.</text>
<text text-anchor="middle" x="252" y="-105.5" font-family="Helvetica,sans-Serif" font-size="10.00">DetailedReadCourseOutput</text>
</a>
</g>
</g>
<!-- Node0&#45;&gt;Node2 -->
<g id="edge2" class="edge">
<title>Node0&#45;&gt;Node2</title>
<path fill="none" stroke="midnightblue" d="M149.28,-99.41C158.6,-100.7 168.08,-102.02 177.33,-103.3"/>
<polygon fill="midnightblue" stroke="midnightblue" points="149.64,-95.93 139.25,-98.02 148.68,-102.86 149.64,-95.93"/>
</g>
<!-- Node3 -->
<g id="node4" class="node">
<title>Node3</title>
<g id="a_node4"><a xlink:href="classApplication_1_1Ports_1_1Course_1_1ResumedReadCourseOutput.html" target="_top" xlink:title=" ">
<polygon fill="none" stroke="black" points="175,-49.5 175,-79.5 329,-79.5 329,-49.5 175,-49.5"/>
<text text-anchor="start" x="183" y="-67.5" font-family="Helvetica,sans-Serif" font-size="10.00">Application.Ports.Course.</text>
<text text-anchor="middle" x="252" y="-56.5" font-family="Helvetica,sans-Serif" font-size="10.00">ResumedReadCourseOutput</text>
</a>
</g>
</g>
<!-- Node0&#45;&gt;Node3 -->
<g id="edge3" class="edge">
<title>Node0&#45;&gt;Node3</title>
<path fill="none" stroke="midnightblue" d="M149.19,-78.04C157.73,-76.9 166.4,-75.75 174.91,-74.62"/>
<polygon fill="midnightblue" stroke="midnightblue" points="148.71,-74.57 139.25,-79.36 149.63,-81.51 148.71,-74.57"/>
</g>
<!-- Node4 -->
<g id="node5" class="node">
<title>Node4</title>
<g id="a_node5"><a xlink:href="classApplication_1_1Ports_1_1Course_1_1UpdateCourseInput.html" target="_top" xlink:title=" ">
<polygon fill="none" stroke="black" points="182.5,-0.5 182.5,-30.5 321.5,-30.5 321.5,-0.5 182.5,-0.5"/>
<text text-anchor="start" x="190.5" y="-18.5" font-family="Helvetica,sans-Serif" font-size="10.00">Application.Ports.Course.</text>
<text text-anchor="middle" x="252" y="-7.5" font-family="Helvetica,sans-Serif" font-size="10.00">UpdateCourseInput</text>
</a>
</g>
</g>
<!-- Node0&#45;&gt;Node4 -->
<g id="edge4" class="edge">
<title>Node0&#45;&gt;Node4</title>
<path fill="none" stroke="midnightblue" d="M110.3,-68.94C129.61,-59.77 153.28,-49.03 175,-40.5 183.79,-37.05 193.27,-33.67 202.46,-30.56"/>
<polygon fill="midnightblue" stroke="midnightblue" points="108.71,-65.82 101.2,-73.29 111.73,-72.13 108.71,-65.82"/>
</g>
</g>
</svg>
