<?xml version="1.0" encoding="UTF-8" standalone="no"?>
<!DOCTYPE svg PUBLIC "-//W3C//DTD SVG 1.1//EN"
 "http://www.w3.org/Graphics/SVG/1.1/DTD/svg11.dtd">
<!-- Generated by graphviz version 2.43.0 (0)
 -->
<!-- Title: Representação gráfica da hiearquia da classe Pages: 1 -->
<svg width="251pt" height="66pt"
 viewBox="0.00 0.00 251.00 66.00" xmlns="http://www.w3.org/2000/svg" xmlns:xlink="http://www.w3.org/1999/xlink">
<g id="graph0" class="graph" transform="scale(1 1) rotate(0) translate(4 62)">
<title>Representação gráfica da hiearquia da classe</title>
<!-- Node168 -->
<g id="node1" class="node">
<title>Node168</title>
<g id="a_node1"><a xlink:title=" ">
<polygon fill="none" stroke="#bfbfbf" points="0,-19.5 0,-38.5 65,-38.5 65,-19.5 0,-19.5"/>
<text text-anchor="middle" x="32.5" y="-26.5" font-family="Helvetica,sans-Serif" font-size="10.00">Exception</text>
</a>
</g>
</g>
<!-- Node0 -->
<g id="node2" class="node">
<title>Node0</title>
<g id="a_node2"><a xlink:href="classEntityExceptionValidation.html" target="_top" xlink:title=" ">
<polygon fill="none" stroke="black" points="101,-38.5 101,-57.5 243,-57.5 243,-38.5 101,-38.5"/>
<text text-anchor="middle" x="172" y="-45.5" font-family="Helvetica,sans-Serif" font-size="10.00">EntityExceptionValidation</text>
</a>
</g>
</g>
<!-- Node168&#45;&gt;Node0 -->
<g id="edge1" class="edge">
<title>Node168&#45;&gt;Node0</title>
<path fill="none" stroke="midnightblue" d="M75.09,-34.75C83.63,-35.93 92.84,-37.2 102.06,-38.47"/>
<polygon fill="midnightblue" stroke="midnightblue" points="75.43,-31.26 65.05,-33.36 74.47,-38.19 75.43,-31.26"/>
</g>
<!-- Node170 -->
<g id="node3" class="node">
<title>Node170</title>
<g id="a_node3"><a xlink:href="classUseCaseException.html" target="_top" xlink:title=" ">
<polygon fill="none" stroke="black" points="118.5,-0.5 118.5,-19.5 225.5,-19.5 225.5,-0.5 118.5,-0.5"/>
<text text-anchor="middle" x="172" y="-7.5" font-family="Helvetica,sans-Serif" font-size="10.00">UseCaseException</text>
</a>
</g>
</g>
<!-- Node168&#45;&gt;Node170 -->
<g id="edge2" class="edge">
<title>Node168&#45;&gt;Node170</title>
<path fill="none" stroke="midnightblue" d="M75.08,-23.25C88.69,-21.37 103.99,-19.26 118.31,-17.28"/>
<polygon fill="midnightblue" stroke="midnightblue" points="74.47,-19.81 65.05,-24.64 75.43,-26.74 74.47,-19.81"/>
</g>
</g>
</svg>
