<?xml version="1.0" encoding="UTF-8" standalone="no"?>
<!DOCTYPE svg PUBLIC "-//W3C//DTD SVG 1.1//EN"
 "http://www.w3.org/Graphics/SVG/1.1/DTD/svg11.dtd">
<!-- Generated by graphviz version 2.43.0 (0)
 -->
<!-- Title: Representação gráfica da hiearquia da classe Pages: 1 -->
<svg width="316pt" height="880pt"
 viewBox="0.00 0.00 316.00 879.50" xmlns="http://www.w3.org/2000/svg" xmlns:xlink="http://www.w3.org/1999/xlink">
<g id="graph0" class="graph" transform="scale(1 1) rotate(0) translate(4 875.5)">
<title>Representação gráfica da hiearquia da classe</title>
<!-- Node87 -->
<g id="node1" class="node">
<title>Node87</title>
<g id="a_node1"><a xlink:title=" ">
<polygon fill="none" stroke="#bfbfbf" points="0,-425.5 0,-444.5 89,-444.5 89,-425.5 0,-425.5"/>
<text text-anchor="middle" x="44.5" y="-432.5" font-family="Helvetica,sans-Serif" font-size="10.00">ControllerBase</text>
</a>
</g>
</g>
<!-- Node0 -->
<g id="node2" class="node">
<title>Node0</title>
<g id="a_node2"><a xlink:href="classWebAPI_1_1Controllers_1_1ActivityController.html" target="_top" xlink:title="Controller responsável por gerenciar as atividades.">
<polygon fill="none" stroke="black" points="141.5,-841 141.5,-871 291.5,-871 291.5,-841 141.5,-841"/>
<text text-anchor="start" x="149.5" y="-859" font-family="Helvetica,sans-Serif" font-size="10.00">WebAPI.Controllers.Activity</text>
<text text-anchor="middle" x="216.5" y="-848" font-family="Helvetica,sans-Serif" font-size="10.00">Controller</text>
</a>
</g>
</g>
<!-- Node87&#45;&gt;Node0 -->
<g id="edge1" class="edge">
<title>Node87&#45;&gt;Node0</title>
<path fill="none" stroke="midnightblue" d="M46.8,-455.02C51.91,-527.52 72.95,-775.09 125,-831 129.67,-836.01 135.24,-840.05 141.29,-843.3"/>
<polygon fill="midnightblue" stroke="midnightblue" points="50.26,-454.34 46.09,-444.6 43.28,-454.81 50.26,-454.34"/>
</g>
<!-- Node89 -->
<g id="node3" class="node">
<title>Node89</title>
<g id="a_node3"><a xlink:href="classWebAPI_1_1Controllers_1_1AreaController.html" target="_top" xlink:title="Controller de Área.">
<polygon fill="none" stroke="black" points="125,-802.5 125,-821.5 308,-821.5 308,-802.5 125,-802.5"/>
<text text-anchor="middle" x="216.5" y="-809.5" font-family="Helvetica,sans-Serif" font-size="10.00">WebAPI.Controllers.AreaController</text>
</a>
</g>
</g>
<!-- Node87&#45;&gt;Node89 -->
<g id="edge2" class="edge">
<title>Node87&#45;&gt;Node89</title>
<path fill="none" stroke="midnightblue" d="M47.13,-454.95C53.12,-523.02 76.1,-744.66 125,-793 128.77,-796.72 133.07,-799.8 137.7,-802.34"/>
<polygon fill="midnightblue" stroke="midnightblue" points="50.6,-454.4 46.26,-444.74 43.63,-455 50.6,-454.4"/>
</g>
<!-- Node90 -->
<g id="node4" class="node">
<title>Node90</title>
<g id="a_node4"><a xlink:href="classWebAPI_1_1Controllers_1_1AssistanceTypeController.html" target="_top" xlink:title="Controller de Bolsa de Assistência.">
<polygon fill="none" stroke="black" points="134,-753 134,-783 299,-783 299,-753 134,-753"/>
<text text-anchor="start" x="142" y="-771" font-family="Helvetica,sans-Serif" font-size="10.00">WebAPI.Controllers.Assistance</text>
<text text-anchor="middle" x="216.5" y="-760" font-family="Helvetica,sans-Serif" font-size="10.00">TypeController</text>
</a>
</g>
</g>
<!-- Node87&#45;&gt;Node90 -->
<g id="edge3" class="edge">
<title>Node87&#45;&gt;Node90</title>
<path fill="none" stroke="midnightblue" d="M48.01,-454.78C56.17,-516.06 83.81,-701.1 125,-743 128.77,-746.84 133.07,-750.1 137.71,-752.87"/>
<polygon fill="midnightblue" stroke="midnightblue" points="51.44,-454.01 46.68,-444.55 44.5,-454.92 51.44,-454.01"/>
</g>
<!-- Node91 -->
<g id="node5" class="node">
<title>Node91</title>
<g id="a_node5"><a xlink:href="classWebAPI_1_1Controllers_1_1AuthController.html" target="_top" xlink:title="Controller de Autenticação.">
<polygon fill="none" stroke="black" points="125,-714.5 125,-733.5 308,-733.5 308,-714.5 125,-714.5"/>
<text text-anchor="middle" x="216.5" y="-721.5" font-family="Helvetica,sans-Serif" font-size="10.00">WebAPI.Controllers.AuthController</text>
</a>
</g>
</g>
<!-- Node87&#45;&gt;Node91 -->
<g id="edge4" class="edge">
<title>Node87&#45;&gt;Node91</title>
<path fill="none" stroke="midnightblue" d="M44.95,-454.76C44.7,-504.74 51.4,-637.03 125,-705 129.13,-708.81 133.82,-711.94 138.84,-714.49"/>
<polygon fill="midnightblue" stroke="midnightblue" points="48.45,-454.7 45.1,-444.65 41.45,-454.6 48.45,-454.7"/>
</g>
<!-- Node92 -->
<g id="node6" class="node">
<title>Node92</title>
<g id="a_node6"><a xlink:href="classWebAPI_1_1Controllers_1_1CampusController.html" target="_top" xlink:title="Controller de Campus.">
<polygon fill="none" stroke="black" points="140.5,-665 140.5,-695 292.5,-695 292.5,-665 140.5,-665"/>
<text text-anchor="start" x="148.5" y="-683" font-family="Helvetica,sans-Serif" font-size="10.00">WebAPI.Controllers.Campus</text>
<text text-anchor="middle" x="216.5" y="-672" font-family="Helvetica,sans-Serif" font-size="10.00">Controller</text>
</a>
</g>
</g>
<!-- Node87&#45;&gt;Node92 -->
<g id="edge5" class="edge">
<title>Node87&#45;&gt;Node92</title>
<path fill="none" stroke="midnightblue" d="M46.67,-454.7C50.31,-497.82 65.15,-601.09 125,-656 129.55,-660.18 134.75,-663.64 140.29,-666.51"/>
<polygon fill="midnightblue" stroke="midnightblue" points="50.15,-454.38 45.93,-444.66 43.17,-454.89 50.15,-454.38"/>
</g>
<!-- Node93 -->
<g id="node7" class="node">
<title>Node93</title>
<g id="a_node7"><a xlink:href="classWebAPI_1_1Controllers_1_1CourseController.html" target="_top" xlink:title="Controller de Curso.">
<polygon fill="none" stroke="black" points="143.5,-616 143.5,-646 289.5,-646 289.5,-616 143.5,-616"/>
<text text-anchor="start" x="151.5" y="-634" font-family="Helvetica,sans-Serif" font-size="10.00">WebAPI.Controllers.Course</text>
<text text-anchor="middle" x="216.5" y="-623" font-family="Helvetica,sans-Serif" font-size="10.00">Controller</text>
</a>
</g>
</g>
<!-- Node87&#45;&gt;Node93 -->
<g id="edge6" class="edge">
<title>Node87&#45;&gt;Node93</title>
<path fill="none" stroke="midnightblue" d="M48.93,-454.65C56.25,-490.5 76.81,-566.53 125,-607 130.48,-611.6 136.74,-615.33 143.37,-618.35"/>
<polygon fill="midnightblue" stroke="midnightblue" points="52.31,-453.69 47.01,-444.52 45.44,-455 52.31,-453.69"/>
</g>
<!-- Node94 -->
<g id="node8" class="node">
<title>Node94</title>
<g id="a_node8"><a xlink:href="classWebAPI_1_1Controllers_1_1MainAreaController.html" target="_top" xlink:title="Controller de Área Principal.">
<polygon fill="none" stroke="black" points="137,-567 137,-597 296,-597 296,-567 137,-567"/>
<text text-anchor="start" x="145" y="-585" font-family="Helvetica,sans-Serif" font-size="10.00">WebAPI.Controllers.MainArea</text>
<text text-anchor="middle" x="216.5" y="-574" font-family="Helvetica,sans-Serif" font-size="10.00">Controller</text>
</a>
</g>
</g>
<!-- Node87&#45;&gt;Node94 -->
<g id="edge7" class="edge">
<title>Node87&#45;&gt;Node94</title>
<path fill="none" stroke="midnightblue" d="M52.72,-454.33C63.92,-481.66 88.13,-531.22 125,-558 129.73,-561.44 134.93,-564.38 140.36,-566.91"/>
<polygon fill="midnightblue" stroke="midnightblue" points="55.86,-452.76 48.94,-444.73 49.34,-455.32 55.86,-452.76"/>
</g>
<!-- Node95 -->
<g id="node9" class="node">
<title>Node95</title>
<g id="a_node9"><a xlink:href="classWebAPI_1_1Controllers_1_1NoticeController.html" target="_top" xlink:title="Controller de Edital.">
<polygon fill="none" stroke="black" points="144.5,-518 144.5,-548 288.5,-548 288.5,-518 144.5,-518"/>
<text text-anchor="start" x="152.5" y="-536" font-family="Helvetica,sans-Serif" font-size="10.00">WebAPI.Controllers.Notice</text>
<text text-anchor="middle" x="216.5" y="-525" font-family="Helvetica,sans-Serif" font-size="10.00">Controller</text>
</a>
</g>
</g>
<!-- Node87&#45;&gt;Node95 -->
<g id="edge8" class="edge">
<title>Node87&#45;&gt;Node95</title>
<path fill="none" stroke="midnightblue" d="M59.72,-452.5C74.37,-469.4 98.71,-494.49 125,-509 131.26,-512.46 138.04,-515.43 144.98,-517.99"/>
<polygon fill="midnightblue" stroke="midnightblue" points="62.11,-449.9 52.99,-444.52 56.76,-454.42 62.11,-449.9"/>
</g>
<!-- Node96 -->
<g id="node10" class="node">
<title>Node96</title>
<g id="a_node10"><a xlink:href="classWebAPI_1_1Controllers_1_1ProfessorController.html" target="_top" xlink:title="Controller de Professor.">
<polygon fill="none" stroke="black" points="137.5,-469 137.5,-499 295.5,-499 295.5,-469 137.5,-469"/>
<text text-anchor="start" x="145.5" y="-487" font-family="Helvetica,sans-Serif" font-size="10.00">WebAPI.Controllers.Professor</text>
<text text-anchor="middle" x="216.5" y="-476" font-family="Helvetica,sans-Serif" font-size="10.00">Controller</text>
</a>
</g>
</g>
<!-- Node87&#45;&gt;Node96 -->
<g id="edge9" class="edge">
<title>Node87&#45;&gt;Node96</title>
<path fill="none" stroke="midnightblue" d="M84.74,-447.73C97.54,-451.78 111.84,-456.19 125,-460 135.3,-462.98 146.31,-466.03 156.97,-468.9"/>
<polygon fill="midnightblue" stroke="midnightblue" points="85.44,-444.28 74.85,-444.58 83.32,-450.95 85.44,-444.28"/>
</g>
<!-- Node97 -->
<g id="node11" class="node">
<title>Node97</title>
<g id="a_node11"><a xlink:href="classWebAPI_1_1Controllers_1_1ProgramTypeController.html" target="_top" xlink:title="Controller de Tipo de Programa.">
<polygon fill="none" stroke="black" points="139.5,-420 139.5,-450 293.5,-450 293.5,-420 139.5,-420"/>
<text text-anchor="start" x="147.5" y="-438" font-family="Helvetica,sans-Serif" font-size="10.00">WebAPI.Controllers.Program</text>
<text text-anchor="middle" x="216.5" y="-427" font-family="Helvetica,sans-Serif" font-size="10.00">TypeController</text>
</a>
</g>
</g>
<!-- Node87&#45;&gt;Node97 -->
<g id="edge10" class="edge">
<title>Node87&#45;&gt;Node97</title>
<path fill="none" stroke="midnightblue" d="M99.59,-435C112.2,-435 125.85,-435 139.22,-435"/>
<polygon fill="midnightblue" stroke="midnightblue" points="99.28,-431.5 89.28,-435 99.28,-438.5 99.28,-431.5"/>
</g>
<!-- Node98 -->
<g id="node12" class="node">
<title>Node98</title>
<g id="a_node12"><a xlink:href="classWebAPI_1_1Controllers_1_1ProjectController.html" target="_top" xlink:title="Controller de projetos.">
<polygon fill="none" stroke="black" points="143.5,-371 143.5,-401 289.5,-401 289.5,-371 143.5,-371"/>
<text text-anchor="start" x="151.5" y="-389" font-family="Helvetica,sans-Serif" font-size="10.00">WebAPI.Controllers.Project</text>
<text text-anchor="middle" x="216.5" y="-378" font-family="Helvetica,sans-Serif" font-size="10.00">Controller</text>
</a>
</g>
</g>
<!-- Node87&#45;&gt;Node98 -->
<g id="edge11" class="edge">
<title>Node87&#45;&gt;Node98</title>
<path fill="none" stroke="midnightblue" d="M86.08,-422.55C98.55,-418.78 112.32,-414.66 125,-411 136.27,-407.74 148.37,-404.34 159.92,-401.13"/>
<polygon fill="midnightblue" stroke="midnightblue" points="84.96,-419.23 76.41,-425.48 86.99,-425.93 84.96,-419.23"/>
</g>
<!-- Node99 -->
<g id="node13" class="node">
<title>Node99</title>
<g id="a_node13"><a xlink:href="classWebAPI_1_1Controllers_1_1ProjectEvaluationController.html" target="_top" xlink:title="Controller de projetos.">
<polygon fill="none" stroke="black" points="143.5,-322 143.5,-352 289.5,-352 289.5,-322 143.5,-322"/>
<text text-anchor="start" x="151.5" y="-340" font-family="Helvetica,sans-Serif" font-size="10.00">WebAPI.Controllers.Project</text>
<text text-anchor="middle" x="216.5" y="-329" font-family="Helvetica,sans-Serif" font-size="10.00">EvaluationController</text>
</a>
</g>
</g>
<!-- Node87&#45;&gt;Node99 -->
<g id="edge12" class="edge">
<title>Node87&#45;&gt;Node99</title>
<path fill="none" stroke="midnightblue" d="M60.04,-417.53C74.77,-400.92 99.04,-376.39 125,-362 131.99,-358.13 139.61,-354.82 147.38,-352.01"/>
<polygon fill="midnightblue" stroke="midnightblue" points="57.13,-415.54 53.24,-425.4 62.43,-420.12 57.13,-415.54"/>
</g>
<!-- Node100 -->
<g id="node14" class="node">
<title>Node100</title>
<g id="a_node14"><a xlink:href="classWebAPI_1_1Controllers_1_1ProjectFinalReportController.html" target="_top" xlink:title="Controller de Relatório de Projeto.">
<polygon fill="none" stroke="black" points="143.5,-273 143.5,-303 289.5,-303 289.5,-273 143.5,-273"/>
<text text-anchor="start" x="151.5" y="-291" font-family="Helvetica,sans-Serif" font-size="10.00">WebAPI.Controllers.Project</text>
<text text-anchor="middle" x="216.5" y="-280" font-family="Helvetica,sans-Serif" font-size="10.00">FinalReportController</text>
</a>
</g>
</g>
<!-- Node87&#45;&gt;Node100 -->
<g id="edge13" class="edge">
<title>Node87&#45;&gt;Node100</title>
<path fill="none" stroke="midnightblue" d="M52.8,-415.87C64.1,-388.83 88.43,-339.74 125,-313 130.53,-308.96 136.68,-305.57 143.09,-302.73"/>
<polygon fill="midnightblue" stroke="midnightblue" points="49.46,-414.79 48.98,-425.37 55.96,-417.4 49.46,-414.79"/>
</g>
<!-- Node101 -->
<g id="node15" class="node">
<title>Node101</title>
<g id="a_node15"><a xlink:href="classWebAPI_1_1Controllers_1_1ProjectPartialReportController.html" target="_top" xlink:title="Controller de Relatório de Projeto.">
<polygon fill="none" stroke="black" points="143.5,-224 143.5,-254 289.5,-254 289.5,-224 143.5,-224"/>
<text text-anchor="start" x="151.5" y="-242" font-family="Helvetica,sans-Serif" font-size="10.00">WebAPI.Controllers.Project</text>
<text text-anchor="middle" x="216.5" y="-231" font-family="Helvetica,sans-Serif" font-size="10.00">PartialReportController</text>
</a>
</g>
</g>
<!-- Node87&#45;&gt;Node101 -->
<g id="edge14" class="edge">
<title>Node87&#45;&gt;Node101</title>
<path fill="none" stroke="midnightblue" d="M49.11,-415C56.64,-379.23 77.43,-304.28 125,-264 130.47,-259.37 136.74,-255.59 143.36,-252.5"/>
<polygon fill="midnightblue" stroke="midnightblue" points="45.62,-414.66 47.12,-425.14 52.48,-416.01 45.62,-414.66"/>
</g>
<!-- Node102 -->
<g id="node16" class="node">
<title>Node102</title>
<g id="a_node16"><a xlink:href="classWebAPI_1_1Controllers_1_1StudentController.html" target="_top" xlink:title="Controller de Estudante.">
<polygon fill="none" stroke="black" points="141.5,-175 141.5,-205 291.5,-205 291.5,-175 141.5,-175"/>
<text text-anchor="start" x="149.5" y="-193" font-family="Helvetica,sans-Serif" font-size="10.00">WebAPI.Controllers.Student</text>
<text text-anchor="middle" x="216.5" y="-182" font-family="Helvetica,sans-Serif" font-size="10.00">Controller</text>
</a>
</g>
</g>
<!-- Node87&#45;&gt;Node102 -->
<g id="edge15" class="edge">
<title>Node87&#45;&gt;Node102</title>
<path fill="none" stroke="midnightblue" d="M46.74,-415.43C50.52,-372.59 65.63,-269.95 125,-215 129.78,-210.57 135.28,-206.92 141.16,-203.9"/>
<polygon fill="midnightblue" stroke="midnightblue" points="43.25,-415.17 45.97,-425.41 50.23,-415.7 43.25,-415.17"/>
</g>
<!-- Node103 -->
<g id="node17" class="node">
<title>Node103</title>
<g id="a_node17"><a xlink:href="classWebAPI_1_1Controllers_1_1StudentDocumentsController.html" target="_top" xlink:title="Controller de Documentos de Estudante.">
<polygon fill="none" stroke="black" points="141.5,-126 141.5,-156 291.5,-156 291.5,-126 141.5,-126"/>
<text text-anchor="start" x="149.5" y="-144" font-family="Helvetica,sans-Serif" font-size="10.00">WebAPI.Controllers.Student</text>
<text text-anchor="middle" x="216.5" y="-133" font-family="Helvetica,sans-Serif" font-size="10.00">DocumentsController</text>
</a>
</g>
</g>
<!-- Node87&#45;&gt;Node103 -->
<g id="edge16" class="edge">
<title>Node87&#45;&gt;Node103</title>
<path fill="none" stroke="midnightblue" d="M45.23,-415.24C45.68,-365.82 53.93,-235.81 125,-166 129.77,-161.32 135.33,-157.49 141.31,-154.37"/>
<polygon fill="midnightblue" stroke="midnightblue" points="41.73,-415.26 45.24,-425.26 48.73,-415.25 41.73,-415.26"/>
</g>
<!-- Node104 -->
<g id="node18" class="node">
<title>Node104</title>
<g id="a_node18"><a xlink:href="classWebAPI_1_1Controllers_1_1SubAreaController.html" target="_top" xlink:title="Controller de Sub Área.">
<polygon fill="none" stroke="black" points="140,-77 140,-107 293,-107 293,-77 140,-77"/>
<text text-anchor="start" x="148" y="-95" font-family="Helvetica,sans-Serif" font-size="10.00">WebAPI.Controllers.SubArea</text>
<text text-anchor="middle" x="216.5" y="-84" font-family="Helvetica,sans-Serif" font-size="10.00">Controller</text>
</a>
</g>
</g>
<!-- Node87&#45;&gt;Node104 -->
<g id="edge17" class="edge">
<title>Node87&#45;&gt;Node104</title>
<path fill="none" stroke="midnightblue" d="M47.82,-415.39C55.57,-352.97 82.53,-160.52 125,-117 129.33,-112.57 134.36,-108.9 139.8,-105.87"/>
<polygon fill="midnightblue" stroke="midnightblue" points="44.32,-415.11 46.59,-425.46 51.27,-415.96 44.32,-415.11"/>
</g>
<!-- Node105 -->
<g id="node19" class="node">
<title>Node105</title>
<g id="a_node19"><a xlink:href="classWebAPI_1_1Controllers_1_1UserController.html" target="_top" xlink:title="Controller de Usuário.">
<polygon fill="none" stroke="black" points="125,-38.5 125,-57.5 308,-57.5 308,-38.5 125,-38.5"/>
<text text-anchor="middle" x="216.5" y="-45.5" font-family="Helvetica,sans-Serif" font-size="10.00">WebAPI.Controllers.UserController</text>
</a>
</g>
</g>
<!-- Node87&#45;&gt;Node105 -->
<g id="edge18" class="edge">
<title>Node87&#45;&gt;Node105</title>
<path fill="none" stroke="midnightblue" d="M47.04,-415.03C52.78,-345.87 75.21,-118 125,-68 129.2,-63.78 134.08,-60.36 139.35,-57.61"/>
<polygon fill="midnightblue" stroke="midnightblue" points="43.52,-415.13 46.21,-425.38 50.5,-415.69 43.52,-415.13"/>
</g>
<!-- Node106 -->
<g id="node20" class="node">
<title>Node106</title>
<g id="a_node20"><a xlink:href="classWebAPI_1_1Controllers_1_1Version.html" target="_top" xlink:title="Controller de validação.">
<polygon fill="none" stroke="black" points="142,-0.5 142,-19.5 291,-19.5 291,-0.5 142,-0.5"/>
<text text-anchor="middle" x="216.5" y="-7.5" font-family="Helvetica,sans-Serif" font-size="10.00">WebAPI.Controllers.Version</text>
</a>
</g>
</g>
<!-- Node87&#45;&gt;Node106 -->
<g id="edge19" class="edge">
<title>Node87&#45;&gt;Node106</title>
<path fill="none" stroke="midnightblue" d="M46.55,-415.31C50.89,-341.82 69.82,-84.94 125,-29 129.85,-24.09 135.62,-20.29 141.87,-17.37"/>
<polygon fill="midnightblue" stroke="midnightblue" points="43.05,-415.29 45.98,-425.47 50.04,-415.68 43.05,-415.29"/>
</g>
</g>
</svg>
