<?xml version="1.0" encoding="UTF-8" standalone="no"?>
<!DOCTYPE svg PUBLIC "-//W3C//DTD SVG 1.1//EN"
 "http://www.w3.org/Graphics/SVG/1.1/DTD/svg11.dtd">
<!-- Generated by graphviz version 2.43.0 (0)
 -->
<!-- Title: Representação gráfica da hiearquia da classe Pages: 1 -->
<svg width="349pt" height="186pt"
 viewBox="0.00 0.00 349.00 186.00" xmlns="http://www.w3.org/2000/svg" xmlns:xlink="http://www.w3.org/1999/xlink">
<g id="graph0" class="graph" transform="scale(1 1) rotate(0) translate(4 182)">
<title>Representação gráfica da hiearquia da classe</title>
<!-- Node0 -->
<g id="node1" class="node">
<title>Node0</title>
<g id="a_node1"><a xlink:href="classApplication_1_1Ports_1_1Campus_1_1BaseCampusContract.html" target="_top" xlink:title=" ">
<polygon fill="none" stroke="black" points="0,-73.5 0,-103.5 145,-103.5 145,-73.5 0,-73.5"/>
<text text-anchor="start" x="8" y="-91.5" font-family="Helvetica,sans-Serif" font-size="10.00">Application.Ports.Campus.</text>
<text text-anchor="middle" x="72.5" y="-80.5" font-family="Helvetica,sans-Serif" font-size="10.00">BaseCampusContract</text>
</a>
</g>
</g>
<!-- Node1 -->
<g id="node2" class="node">
<title>Node1</title>
<g id="a_node2"><a xlink:href="classApplication_1_1Ports_1_1Campus_1_1CreateCampusInput.html" target="_top" xlink:title=" ">
<polygon fill="none" stroke="black" points="188.5,-147.5 188.5,-177.5 333.5,-177.5 333.5,-147.5 188.5,-147.5"/>
<text text-anchor="start" x="196.5" y="-165.5" font-family="Helvetica,sans-Serif" font-size="10.00">Application.Ports.Campus.</text>
<text text-anchor="middle" x="261" y="-154.5" font-family="Helvetica,sans-Serif" font-size="10.00">CreateCampusInput</text>
</a>
</g>
</g>
<!-- Node0&#45;&gt;Node1 -->
<g id="edge1" class="edge">
<title>Node0&#45;&gt;Node1</title>
<path fill="none" stroke="midnightblue" d="M112.32,-108.16C132.51,-117.98 157.76,-129.62 181,-138.5 189.17,-141.62 197.93,-144.62 206.54,-147.37"/>
<polygon fill="midnightblue" stroke="midnightblue" points="113.65,-104.92 103.13,-103.66 110.57,-111.2 113.65,-104.92"/>
</g>
<!-- Node2 -->
<g id="node3" class="node">
<title>Node2</title>
<g id="a_node3"><a xlink:href="classApplication_1_1Ports_1_1Campus_1_1DetailedReadCampusOutput.html" target="_top" xlink:title=" ">
<polygon fill="none" stroke="black" points="183.5,-98.5 183.5,-128.5 338.5,-128.5 338.5,-98.5 183.5,-98.5"/>
<text text-anchor="start" x="191.5" y="-116.5" font-family="Helvetica,sans-Serif" font-size="10.00">Application.Ports.Campus.</text>
<text text-anchor="middle" x="261" y="-105.5" font-family="Helvetica,sans-Serif" font-size="10.00">DetailedReadCampusOutput</text>
</a>
</g>
</g>
<!-- Node0&#45;&gt;Node2 -->
<g id="edge2" class="edge">
<title>Node0&#45;&gt;Node2</title>
<path fill="none" stroke="midnightblue" d="M155.16,-99.45C164.53,-100.7 174.05,-101.98 183.35,-103.23"/>
<polygon fill="midnightblue" stroke="midnightblue" points="155.45,-95.95 145.07,-98.09 154.52,-102.89 155.45,-95.95"/>
</g>
<!-- Node3 -->
<g id="node4" class="node">
<title>Node3</title>
<g id="a_node4"><a xlink:href="classApplication_1_1Ports_1_1Campus_1_1ResumedReadCampusOutput.html" target="_top" xlink:title=" ">
<polygon fill="none" stroke="black" points="181,-49.5 181,-79.5 341,-79.5 341,-49.5 181,-49.5"/>
<text text-anchor="start" x="189" y="-67.5" font-family="Helvetica,sans-Serif" font-size="10.00">Application.Ports.Campus.</text>
<text text-anchor="middle" x="261" y="-56.5" font-family="Helvetica,sans-Serif" font-size="10.00">ResumedReadCampusOutput</text>
</a>
</g>
</g>
<!-- Node0&#45;&gt;Node3 -->
<g id="edge3" class="edge">
<title>Node0&#45;&gt;Node3</title>
<path fill="none" stroke="midnightblue" d="M155.05,-78.01C163.62,-76.9 172.32,-75.78 180.86,-74.68"/>
<polygon fill="midnightblue" stroke="midnightblue" points="154.54,-74.54 145.07,-79.29 155.44,-81.48 154.54,-74.54"/>
</g>
<!-- Node4 -->
<g id="node5" class="node">
<title>Node4</title>
<g id="a_node5"><a xlink:href="classApplication_1_1Ports_1_1Campus_1_1UpdateCampusInput.html" target="_top" xlink:title=" ">
<polygon fill="none" stroke="black" points="188.5,-0.5 188.5,-30.5 333.5,-30.5 333.5,-0.5 188.5,-0.5"/>
<text text-anchor="start" x="196.5" y="-18.5" font-family="Helvetica,sans-Serif" font-size="10.00">Application.Ports.Campus.</text>
<text text-anchor="middle" x="261" y="-7.5" font-family="Helvetica,sans-Serif" font-size="10.00">UpdateCampusInput</text>
</a>
</g>
</g>
<!-- Node0&#45;&gt;Node4 -->
<g id="edge4" class="edge">
<title>Node0&#45;&gt;Node4</title>
<path fill="none" stroke="midnightblue" d="M113.75,-69.23C133.74,-59.99 158.4,-49.09 181,-40.5 190.14,-37.02 200,-33.63 209.56,-30.52"/>
<polygon fill="midnightblue" stroke="midnightblue" points="112.21,-66.08 104.62,-73.48 115.17,-72.43 112.21,-66.08"/>
</g>
</g>
</svg>
