<?xml version="1.0" encoding="UTF-8" standalone="no"?>
<!DOCTYPE svg PUBLIC "-//W3C//DTD SVG 1.1//EN"
 "http://www.w3.org/Graphics/SVG/1.1/DTD/svg11.dtd">
<!-- Generated by graphviz version 2.43.0 (0)
 -->
<!-- Title: Representação gráfica da hiearquia da classe Pages: 1 -->
<svg width="369pt" height="186pt"
 viewBox="0.00 0.00 369.00 186.00" xmlns="http://www.w3.org/2000/svg" xmlns:xlink="http://www.w3.org/1999/xlink">
<g id="graph0" class="graph" transform="scale(1 1) rotate(0) translate(4 182)">
<title>Representação gráfica da hiearquia da classe</title>
<!-- Node0 -->
<g id="node1" class="node">
<title>Node0</title>
<g id="a_node1"><a xlink:href="classApplication_1_1Ports_1_1Area_1_1BaseAreaContract.html" target="_top" xlink:title=" ">
<polygon fill="none" stroke="black" points="0,-73.5 0,-103.5 152,-103.5 152,-73.5 0,-73.5"/>
<text text-anchor="start" x="8" y="-91.5" font-family="Helvetica,sans-Serif" font-size="10.00">Application.Ports.Area.Base</text>
<text text-anchor="middle" x="76" y="-80.5" font-family="Helvetica,sans-Serif" font-size="10.00">AreaContract</text>
</a>
</g>
</g>
<!-- Node1 -->
<g id="node2" class="node">
<title>Node1</title>
<g id="a_node2"><a xlink:href="classApplication_1_1Ports_1_1Area_1_1CreateAreaInput.html" target="_top" xlink:title=" ">
<polygon fill="none" stroke="black" points="194.5,-147.5 194.5,-177.5 354.5,-177.5 354.5,-147.5 194.5,-147.5"/>
<text text-anchor="start" x="202.5" y="-165.5" font-family="Helvetica,sans-Serif" font-size="10.00">Application.Ports.Area.Create</text>
<text text-anchor="middle" x="274.5" y="-154.5" font-family="Helvetica,sans-Serif" font-size="10.00">AreaInput</text>
</a>
</g>
</g>
<!-- Node0&#45;&gt;Node1 -->
<g id="edge1" class="edge">
<title>Node0&#45;&gt;Node1</title>
<path fill="none" stroke="midnightblue" d="M116.34,-107.95C137.3,-117.87 163.71,-129.68 188,-138.5 196.69,-141.66 206.01,-144.65 215.18,-147.39"/>
<polygon fill="midnightblue" stroke="midnightblue" points="117.65,-104.7 107.12,-103.54 114.63,-111.02 117.65,-104.7"/>
</g>
<!-- Node2 -->
<g id="node3" class="node">
<title>Node2</title>
<g id="a_node3"><a xlink:href="classApplication_1_1Ports_1_1Area_1_1DetailedReadAreaOutput.html" target="_top" xlink:title=" ">
<polygon fill="none" stroke="black" points="190,-98.5 190,-128.5 359,-128.5 359,-98.5 190,-98.5"/>
<text text-anchor="start" x="198" y="-116.5" font-family="Helvetica,sans-Serif" font-size="10.00">Application.Ports.Area.Detailed</text>
<text text-anchor="middle" x="274.5" y="-105.5" font-family="Helvetica,sans-Serif" font-size="10.00">ReadAreaOutput</text>
</a>
</g>
</g>
<!-- Node0&#45;&gt;Node2 -->
<g id="edge2" class="edge">
<title>Node0&#45;&gt;Node2</title>
<path fill="none" stroke="midnightblue" d="M162.07,-99.32C171.29,-100.5 180.68,-101.69 189.89,-102.86"/>
<polygon fill="midnightblue" stroke="midnightblue" points="162.49,-95.85 152.13,-98.06 161.61,-102.79 162.49,-95.85"/>
</g>
<!-- Node3 -->
<g id="node4" class="node">
<title>Node3</title>
<g id="a_node4"><a xlink:href="classApplication_1_1Ports_1_1Area_1_1ResumedReadAreaOutput.html" target="_top" xlink:title=" ">
<polygon fill="none" stroke="black" points="188,-49.5 188,-79.5 361,-79.5 361,-49.5 188,-49.5"/>
<text text-anchor="start" x="196" y="-67.5" font-family="Helvetica,sans-Serif" font-size="10.00">Application.Ports.Area.Resumed</text>
<text text-anchor="middle" x="274.5" y="-56.5" font-family="Helvetica,sans-Serif" font-size="10.00">ReadAreaOutput</text>
</a>
</g>
</g>
<!-- Node0&#45;&gt;Node3 -->
<g id="edge3" class="edge">
<title>Node0&#45;&gt;Node3</title>
<path fill="none" stroke="midnightblue" d="M162.1,-78.11C170.65,-77.06 179.35,-76 187.91,-74.95"/>
<polygon fill="midnightblue" stroke="midnightblue" points="161.63,-74.64 152.13,-79.32 162.48,-81.59 161.63,-74.64"/>
</g>
<!-- Node4 -->
<g id="node5" class="node">
<title>Node4</title>
<g id="a_node5"><a xlink:href="classApplication_1_1Ports_1_1Area_1_1UpdateAreaInput.html" target="_top" xlink:title=" ">
<polygon fill="none" stroke="black" points="193,-0.5 193,-30.5 356,-30.5 356,-0.5 193,-0.5"/>
<text text-anchor="start" x="201" y="-18.5" font-family="Helvetica,sans-Serif" font-size="10.00">Application.Ports.Area.Update</text>
<text text-anchor="middle" x="274.5" y="-7.5" font-family="Helvetica,sans-Serif" font-size="10.00">AreaInput</text>
</a>
</g>
</g>
<!-- Node0&#45;&gt;Node4 -->
<g id="edge4" class="edge">
<title>Node0&#45;&gt;Node4</title>
<path fill="none" stroke="midnightblue" d="M118.25,-69.21C138.95,-59.91 164.54,-48.97 188,-40.5 197.75,-36.98 208.25,-33.59 218.44,-30.51"/>
<polygon fill="midnightblue" stroke="midnightblue" points="116.78,-66.04 109.12,-73.36 119.67,-72.41 116.78,-66.04"/>
</g>
</g>
</svg>
