<?xml version="1.0" encoding="UTF-8" standalone="no"?>
<!DOCTYPE svg PUBLIC "-//W3C//DTD SVG 1.1//EN"
 "http://www.w3.org/Graphics/SVG/1.1/DTD/svg11.dtd">
<!-- Generated by graphviz version 2.43.0 (0)
 -->
<!-- Title: Representação gráfica da hiearquia da classe Pages: 1 -->
<svg width="385pt" height="735pt"
 viewBox="0.00 0.00 385.00 735.00" xmlns="http://www.w3.org/2000/svg" xmlns:xlink="http://www.w3.org/1999/xlink">
<g id="graph0" class="graph" transform="scale(1 1) rotate(0) translate(4 731)">
<title>Representação gráfica da hiearquia da classe</title>
<!-- Node0 -->
<g id="node1" class="node">
<title>Node0</title>
<g id="a_node1"><a xlink:href="classDomain_1_1Entities_1_1Primitives_1_1Entity.html" target="_top" xlink:title=" ">
<polygon fill="none" stroke="black" points="0,-360 0,-390 150,-390 150,-360 0,-360"/>
<text text-anchor="start" x="8" y="-378" font-family="Helvetica,sans-Serif" font-size="10.00">Domain.Entities.Primitives.</text>
<text text-anchor="middle" x="75" y="-367" font-family="Helvetica,sans-Serif" font-size="10.00">Entity</text>
</a>
</g>
</g>
<!-- Node1 -->
<g id="node2" class="node">
<title>Node1</title>
<g id="a_node2"><a xlink:href="classDomain_1_1Entities_1_1Activity.html" target="_top" xlink:title=" ">
<polygon fill="none" stroke="black" points="214,-707.5 214,-726.5 349,-726.5 349,-707.5 214,-707.5"/>
<text text-anchor="middle" x="281.5" y="-714.5" font-family="Helvetica,sans-Serif" font-size="10.00">Domain.Entities.Activity</text>
</a>
</g>
</g>
<!-- Node0&#45;&gt;Node1 -->
<g id="edge1" class="edge">
<title>Node0&#45;&gt;Node1</title>
<path fill="none" stroke="midnightblue" d="M76.56,-400.29C79.36,-461.52 95.48,-618.53 186,-698 193.92,-704.96 203.67,-709.64 213.86,-712.75"/>
<polygon fill="midnightblue" stroke="midnightblue" points="80.04,-399.87 76.17,-390.01 73.05,-400.13 80.04,-399.87"/>
</g>
<!-- Node2 -->
<g id="node3" class="node">
<title>Node2</title>
<g id="a_node3"><a xlink:href="classDomain_1_1Entities_1_1ActivityType.html" target="_top" xlink:title=" ">
<polygon fill="none" stroke="black" points="202.5,-669.5 202.5,-688.5 360.5,-688.5 360.5,-669.5 202.5,-669.5"/>
<text text-anchor="middle" x="281.5" y="-676.5" font-family="Helvetica,sans-Serif" font-size="10.00">Domain.Entities.ActivityType</text>
</a>
</g>
</g>
<!-- Node0&#45;&gt;Node2 -->
<g id="edge2" class="edge">
<title>Node0&#45;&gt;Node2</title>
<path fill="none" stroke="midnightblue" d="M77.87,-400.39C83.45,-456.56 105.03,-591.74 186,-660 190.86,-664.1 196.36,-667.4 202.21,-670.05"/>
<polygon fill="midnightblue" stroke="midnightblue" points="81.34,-399.9 76.96,-390.26 74.37,-400.53 81.34,-399.9"/>
</g>
<!-- Node3 -->
<g id="node4" class="node">
<title>Node3</title>
<g id="a_node4"><a xlink:href="classDomain_1_1Entities_1_1Area.html" target="_top" xlink:title="Área de conhecimento">
<polygon fill="none" stroke="black" points="221.5,-631.5 221.5,-650.5 341.5,-650.5 341.5,-631.5 221.5,-631.5"/>
<text text-anchor="middle" x="281.5" y="-638.5" font-family="Helvetica,sans-Serif" font-size="10.00">Domain.Entities.Area</text>
</a>
</g>
</g>
<!-- Node0&#45;&gt;Node3 -->
<g id="edge3" class="edge">
<title>Node0&#45;&gt;Node3</title>
<path fill="none" stroke="midnightblue" d="M79.5,-400.14C87.95,-450.67 114.31,-564.6 186,-622 196.06,-630.05 208.62,-634.98 221.26,-637.93"/>
<polygon fill="midnightblue" stroke="midnightblue" points="82.94,-399.43 77.92,-390.09 76.02,-400.51 82.94,-399.43"/>
</g>
<!-- Node4 -->
<g id="node5" class="node">
<title>Node4</title>
<g id="a_node5"><a xlink:href="classDomain_1_1Entities_1_1AssistanceType.html" target="_top" xlink:title="Tipo de Bolsa de Assistência Estudantil">
<polygon fill="none" stroke="black" points="195,-593.5 195,-612.5 368,-612.5 368,-593.5 195,-593.5"/>
<text text-anchor="middle" x="281.5" y="-600.5" font-family="Helvetica,sans-Serif" font-size="10.00">Domain.Entities.AssistanceType</text>
</a>
</g>
</g>
<!-- Node0&#45;&gt;Node4 -->
<g id="edge4" class="edge">
<title>Node0&#45;&gt;Node4</title>
<path fill="none" stroke="midnightblue" d="M81.67,-399.99C93.14,-444.51 123.52,-537.25 186,-584 191.09,-587.81 196.75,-590.91 202.71,-593.42"/>
<polygon fill="midnightblue" stroke="midnightblue" points="85,-398.88 79.21,-390.01 78.21,-400.56 85,-398.88"/>
</g>
<!-- Node5 -->
<g id="node6" class="node">
<title>Node5</title>
<g id="a_node6"><a xlink:href="classDomain_1_1Entities_1_1Campus.html" target="_top" xlink:title="Unidade de ensino">
<polygon fill="none" stroke="black" points="213,-555.5 213,-574.5 350,-574.5 350,-555.5 213,-555.5"/>
<text text-anchor="middle" x="281.5" y="-562.5" font-family="Helvetica,sans-Serif" font-size="10.00">Domain.Entities.Campus</text>
</a>
</g>
</g>
<!-- Node0&#45;&gt;Node5 -->
<g id="edge5" class="edge">
<title>Node0&#45;&gt;Node5</title>
<path fill="none" stroke="midnightblue" d="M84.76,-400.02C99.43,-438 132.7,-509.63 186,-546 194.02,-551.47 203.25,-555.44 212.74,-558.3"/>
<polygon fill="midnightblue" stroke="midnightblue" points="87.89,-398.4 81.12,-390.26 81.33,-400.85 87.89,-398.4"/>
</g>
<!-- Node6 -->
<g id="node7" class="node">
<title>Node6</title>
<g id="a_node7"><a xlink:href="classDomain_1_1Entities_1_1Course.html" target="_top" xlink:title="Curso Acadêmico">
<polygon fill="none" stroke="black" points="216,-517.5 216,-536.5 347,-536.5 347,-517.5 216,-517.5"/>
<text text-anchor="middle" x="281.5" y="-524.5" font-family="Helvetica,sans-Serif" font-size="10.00">Domain.Entities.Course</text>
</a>
</g>
</g>
<!-- Node0&#45;&gt;Node6 -->
<g id="edge6" class="edge">
<title>Node0&#45;&gt;Node6</title>
<path fill="none" stroke="midnightblue" d="M88.86,-398.96C106.52,-429.41 141.26,-481.23 186,-508 195.05,-513.41 205.37,-517.31 215.78,-520.11"/>
<polygon fill="midnightblue" stroke="midnightblue" points="91.9,-397.23 83.93,-390.24 85.8,-400.67 91.9,-397.23"/>
</g>
<!-- Node7 -->
<g id="node8" class="node">
<title>Node7</title>
<g id="a_node8"><a xlink:href="classDomain_1_1Entities_1_1MainArea.html" target="_top" xlink:title="Grande área de conhecimento">
<polygon fill="none" stroke="black" points="209.5,-479.5 209.5,-498.5 353.5,-498.5 353.5,-479.5 209.5,-479.5"/>
<text text-anchor="middle" x="281.5" y="-486.5" font-family="Helvetica,sans-Serif" font-size="10.00">Domain.Entities.MainArea</text>
</a>
</g>
</g>
<!-- Node0&#45;&gt;Node7 -->
<g id="edge7" class="edge">
<title>Node0&#45;&gt;Node7</title>
<path fill="none" stroke="midnightblue" d="M95.73,-397.81C116.08,-419.81 149.87,-452.31 186,-470 193.97,-473.9 202.68,-477 211.5,-479.46"/>
<polygon fill="midnightblue" stroke="midnightblue" points="98.17,-395.28 88.86,-390.22 92.98,-399.98 98.17,-395.28"/>
</g>
<!-- Node8 -->
<g id="node9" class="node">
<title>Node8</title>
<g id="a_node9"><a xlink:href="classDomain_1_1Entities_1_1Notice.html" target="_top" xlink:title="Edital de seleção de bolsistas">
<polygon fill="none" stroke="black" points="217,-441.5 217,-460.5 346,-460.5 346,-441.5 217,-441.5"/>
<text text-anchor="middle" x="281.5" y="-448.5" font-family="Helvetica,sans-Serif" font-size="10.00">Domain.Entities.Notice</text>
</a>
</g>
</g>
<!-- Node0&#45;&gt;Node8 -->
<g id="edge8" class="edge">
<title>Node0&#45;&gt;Node8</title>
<path fill="none" stroke="midnightblue" d="M109.09,-395.26C130.38,-407.49 159.01,-422.51 186,-432 196.81,-435.8 208.61,-438.93 220.08,-441.47"/>
<polygon fill="midnightblue" stroke="midnightblue" points="110.84,-392.23 100.44,-390.21 107.31,-398.27 110.84,-392.23"/>
</g>
<!-- Node9 -->
<g id="node10" class="node">
<title>Node9</title>
<g id="a_node10"><a xlink:href="classDomain_1_1Entities_1_1Professor.html" target="_top" xlink:title="Professor">
<polygon fill="none" stroke="black" points="210,-403.5 210,-422.5 353,-422.5 353,-403.5 210,-403.5"/>
<text text-anchor="middle" x="281.5" y="-410.5" font-family="Helvetica,sans-Serif" font-size="10.00">Domain.Entities.Professor</text>
</a>
</g>
</g>
<!-- Node0&#45;&gt;Node9 -->
<g id="edge9" class="edge">
<title>Node0&#45;&gt;Node9</title>
<path fill="none" stroke="midnightblue" d="M160.09,-390.63C183.58,-394.99 208.38,-399.6 229.34,-403.49"/>
<polygon fill="midnightblue" stroke="midnightblue" points="160.59,-387.16 150.12,-388.77 159.31,-394.04 160.59,-387.16"/>
</g>
<!-- Node10 -->
<g id="node11" class="node">
<title>Node10</title>
<g id="a_node11"><a xlink:href="classDomain_1_1Entities_1_1ProgramType.html" target="_top" xlink:title="Tipo de Programa">
<polygon fill="none" stroke="black" points="201,-365.5 201,-384.5 362,-384.5 362,-365.5 201,-365.5"/>
<text text-anchor="middle" x="281.5" y="-372.5" font-family="Helvetica,sans-Serif" font-size="10.00">Domain.Entities.ProgramType</text>
</a>
</g>
</g>
<!-- Node0&#45;&gt;Node10 -->
<g id="edge10" class="edge">
<title>Node0&#45;&gt;Node10</title>
<path fill="none" stroke="midnightblue" d="M160.26,-375C173.66,-375 187.48,-375 200.77,-375"/>
<polygon fill="midnightblue" stroke="midnightblue" points="160.12,-371.5 150.12,-375 160.12,-378.5 160.12,-371.5"/>
</g>
<!-- Node11 -->
<g id="node12" class="node">
<title>Node11</title>
<g id="a_node12"><a xlink:href="classDomain_1_1Entities_1_1Project.html" target="_top" xlink:title="Projeto de Iniciação Científica">
<polygon fill="none" stroke="black" points="216,-327.5 216,-346.5 347,-346.5 347,-327.5 216,-327.5"/>
<text text-anchor="middle" x="281.5" y="-334.5" font-family="Helvetica,sans-Serif" font-size="10.00">Domain.Entities.Project</text>
</a>
</g>
</g>
<!-- Node0&#45;&gt;Node11 -->
<g id="edge11" class="edge">
<title>Node0&#45;&gt;Node11</title>
<path fill="none" stroke="midnightblue" d="M160.09,-359.37C183.58,-355.01 208.38,-350.4 229.34,-346.51"/>
<polygon fill="midnightblue" stroke="midnightblue" points="159.31,-355.96 150.12,-361.23 160.59,-362.84 159.31,-355.96"/>
</g>
<!-- Node12 -->
<g id="node13" class="node">
<title>Node12</title>
<g id="a_node13"><a xlink:href="classDomain_1_1Entities_1_1ProjectActivity.html" target="_top" xlink:title=" ">
<polygon fill="none" stroke="black" points="197,-289.5 197,-308.5 366,-308.5 366,-289.5 197,-289.5"/>
<text text-anchor="middle" x="281.5" y="-296.5" font-family="Helvetica,sans-Serif" font-size="10.00">Domain.Entities.ProjectActivity</text>
</a>
</g>
</g>
<!-- Node0&#45;&gt;Node12 -->
<g id="edge12" class="edge">
<title>Node0&#45;&gt;Node12</title>
<path fill="none" stroke="midnightblue" d="M109.09,-354.74C130.38,-342.51 159.01,-327.49 186,-318 196.81,-314.2 208.61,-311.07 220.08,-308.53"/>
<polygon fill="midnightblue" stroke="midnightblue" points="107.31,-351.73 100.44,-359.79 110.84,-357.77 107.31,-351.73"/>
</g>
<!-- Node13 -->
<g id="node14" class="node">
<title>Node13</title>
<g id="a_node14"><a xlink:href="classDomain_1_1Entities_1_1ProjectEvaluation.html" target="_top" xlink:title=" ">
<polygon fill="none" stroke="black" points="190,-251.5 190,-270.5 373,-270.5 373,-251.5 190,-251.5"/>
<text text-anchor="middle" x="281.5" y="-258.5" font-family="Helvetica,sans-Serif" font-size="10.00">Domain.Entities.ProjectEvaluation</text>
</a>
</g>
</g>
<!-- Node0&#45;&gt;Node13 -->
<g id="edge13" class="edge">
<title>Node0&#45;&gt;Node13</title>
<path fill="none" stroke="midnightblue" d="M95.73,-352.19C116.08,-330.19 149.87,-297.69 186,-280 193.97,-276.1 202.68,-273 211.5,-270.54"/>
<polygon fill="midnightblue" stroke="midnightblue" points="92.98,-350.02 88.86,-359.78 98.17,-354.72 92.98,-350.02"/>
</g>
<!-- Node14 -->
<g id="node15" class="node">
<title>Node14</title>
<g id="a_node15"><a xlink:href="classDomain_1_1Entities_1_1ProjectFinalReport.html" target="_top" xlink:title=" ">
<polygon fill="none" stroke="black" points="204,-202 204,-232 359,-232 359,-202 204,-202"/>
<text text-anchor="start" x="212" y="-220" font-family="Helvetica,sans-Serif" font-size="10.00">Domain.Entities.ProjectFinal</text>
<text text-anchor="middle" x="281.5" y="-209" font-family="Helvetica,sans-Serif" font-size="10.00">Report</text>
</a>
</g>
</g>
<!-- Node0&#45;&gt;Node14 -->
<g id="edge14" class="edge">
<title>Node0&#45;&gt;Node14</title>
<path fill="none" stroke="midnightblue" d="M89.63,-350.59C107.71,-320.47 142.5,-269.83 186,-242 192,-238.16 198.58,-234.9 205.38,-232.15"/>
<polygon fill="midnightblue" stroke="midnightblue" points="86.39,-349.2 84.35,-359.6 92.43,-352.74 86.39,-349.2"/>
</g>
<!-- Node15 -->
<g id="node16" class="node">
<title>Node15</title>
<g id="a_node16"><a xlink:href="classDomain_1_1Entities_1_1ProjectPartialReport.html" target="_top" xlink:title=" ">
<polygon fill="none" stroke="black" points="200.5,-153 200.5,-183 362.5,-183 362.5,-153 200.5,-153"/>
<text text-anchor="start" x="208.5" y="-171" font-family="Helvetica,sans-Serif" font-size="10.00">Domain.Entities.ProjectPartial</text>
<text text-anchor="middle" x="281.5" y="-160" font-family="Helvetica,sans-Serif" font-size="10.00">Report</text>
</a>
</g>
</g>
<!-- Node0&#45;&gt;Node15 -->
<g id="edge15" class="edge">
<title>Node0&#45;&gt;Node15</title>
<path fill="none" stroke="midnightblue" d="M84.08,-350.2C98.24,-310.74 131.34,-233.94 186,-193 191.16,-189.13 196.87,-185.86 202.86,-183.1"/>
<polygon fill="midnightblue" stroke="midnightblue" points="80.71,-349.24 80.74,-359.83 87.32,-351.53 80.71,-349.24"/>
</g>
<!-- Node16 -->
<g id="node17" class="node">
<title>Node16</title>
<g id="a_node17"><a xlink:href="classDomain_1_1Entities_1_1Student.html" target="_top" xlink:title="Estudante">
<polygon fill="none" stroke="black" points="214,-114.5 214,-133.5 349,-133.5 349,-114.5 214,-114.5"/>
<text text-anchor="middle" x="281.5" y="-121.5" font-family="Helvetica,sans-Serif" font-size="10.00">Domain.Entities.Student</text>
</a>
</g>
</g>
<!-- Node0&#45;&gt;Node16 -->
<g id="edge16" class="edge">
<title>Node0&#45;&gt;Node16</title>
<path fill="none" stroke="midnightblue" d="M80.42,-349.84C90.23,-301.82 118.54,-197.17 186,-144 194.03,-137.67 203.61,-133.22 213.52,-130.11"/>
<polygon fill="midnightblue" stroke="midnightblue" points="76.97,-349.23 78.5,-359.71 83.84,-350.56 76.97,-349.23"/>
</g>
<!-- Node17 -->
<g id="node18" class="node">
<title>Node17</title>
<g id="a_node18"><a xlink:href="classDomain_1_1Entities_1_1StudentDocuments.html" target="_top" xlink:title=" ">
<polygon fill="none" stroke="black" points="186,-76.5 186,-95.5 377,-95.5 377,-76.5 186,-76.5"/>
<text text-anchor="middle" x="281.5" y="-83.5" font-family="Helvetica,sans-Serif" font-size="10.00">Domain.Entities.StudentDocuments</text>
</a>
</g>
</g>
<!-- Node0&#45;&gt;Node17 -->
<g id="edge17" class="edge">
<title>Node0&#45;&gt;Node17</title>
<path fill="none" stroke="midnightblue" d="M78.46,-349.81C85.13,-295.89 108.65,-168.99 186,-105 190.51,-101.27 195.56,-98.2 200.91,-95.68"/>
<polygon fill="midnightblue" stroke="midnightblue" points="74.96,-349.54 77.3,-359.88 81.92,-350.34 74.96,-349.54"/>
</g>
<!-- Node18 -->
<g id="node19" class="node">
<title>Node18</title>
<g id="a_node19"><a xlink:href="classDomain_1_1Entities_1_1SubArea.html" target="_top" xlink:title=" ">
<polygon fill="none" stroke="black" points="212.5,-38.5 212.5,-57.5 350.5,-57.5 350.5,-38.5 212.5,-38.5"/>
<text text-anchor="middle" x="281.5" y="-45.5" font-family="Helvetica,sans-Serif" font-size="10.00">Domain.Entities.SubArea</text>
</a>
</g>
</g>
<!-- Node0&#45;&gt;Node18 -->
<g id="edge18" class="edge">
<title>Node0&#45;&gt;Node18</title>
<path fill="none" stroke="midnightblue" d="M77.04,-349.67C80.92,-290.39 99.26,-142.02 186,-67 193.59,-60.43 202.82,-55.9 212.49,-52.81"/>
<polygon fill="midnightblue" stroke="midnightblue" points="73.53,-349.79 76.46,-359.98 80.52,-350.19 73.53,-349.79"/>
</g>
<!-- Node19 -->
<g id="node20" class="node">
<title>Node19</title>
<g id="a_node20"><a xlink:href="classDomain_1_1Entities_1_1User.html" target="_top" xlink:title=" ">
<polygon fill="none" stroke="black" points="221.5,-0.5 221.5,-19.5 341.5,-19.5 341.5,-0.5 221.5,-0.5"/>
<text text-anchor="middle" x="281.5" y="-7.5" font-family="Helvetica,sans-Serif" font-size="10.00">Domain.Entities.User</text>
</a>
</g>
</g>
<!-- Node0&#45;&gt;Node19 -->
<g id="edge19" class="edge">
<title>Node0&#45;&gt;Node19</title>
<path fill="none" stroke="midnightblue" d="M75.9,-349.67C77.11,-285.45 89.71,-115.29 186,-29 195.72,-20.29 208.29,-15.12 221.07,-12.15"/>
<polygon fill="midnightblue" stroke="midnightblue" points="72.4,-349.67 75.79,-359.71 79.4,-349.75 72.4,-349.67"/>
</g>
</g>
</svg>
