<?xml version="1.0" encoding="UTF-8" standalone="no"?>
<!DOCTYPE svg PUBLIC "-//W3C//DTD SVG 1.1//EN"
 "http://www.w3.org/Graphics/SVG/1.1/DTD/svg11.dtd">
<!-- Generated by graphviz version 2.43.0 (0)
 -->
<!-- Title: Representação gráfica da hiearquia da classe Pages: 1 -->
<svg width="363pt" height="186pt"
 viewBox="0.00 0.00 363.00 186.00" xmlns="http://www.w3.org/2000/svg" xmlns:xlink="http://www.w3.org/1999/xlink">
<g id="graph0" class="graph" transform="scale(1 1) rotate(0) translate(4 182)">
<title>Representação gráfica da hiearquia da classe</title>
<!-- Node0 -->
<g id="node1" class="node">
<title>Node0</title>
<g id="a_node1"><a xlink:href="classApplication_1_1Ports_1_1MainArea_1_1BaseMainAreaContract.html" target="_top" xlink:title=" ">
<polygon fill="none" stroke="black" points="0,-73.5 0,-103.5 152,-103.5 152,-73.5 0,-73.5"/>
<text text-anchor="start" x="8" y="-91.5" font-family="Helvetica,sans-Serif" font-size="10.00">Application.Ports.MainArea.</text>
<text text-anchor="middle" x="76" y="-80.5" font-family="Helvetica,sans-Serif" font-size="10.00">BaseMainAreaContract</text>
</a>
</g>
</g>
<!-- Node1 -->
<g id="node2" class="node">
<title>Node1</title>
<g id="a_node2"><a xlink:href="classApplication_1_1Ports_1_1MainArea_1_1CreateMainAreaInput.html" target="_top" xlink:title=" ">
<polygon fill="none" stroke="black" points="195.5,-147.5 195.5,-177.5 347.5,-177.5 347.5,-147.5 195.5,-147.5"/>
<text text-anchor="start" x="203.5" y="-165.5" font-family="Helvetica,sans-Serif" font-size="10.00">Application.Ports.MainArea.</text>
<text text-anchor="middle" x="271.5" y="-154.5" font-family="Helvetica,sans-Serif" font-size="10.00">CreateMainAreaInput</text>
</a>
</g>
</g>
<!-- Node0&#45;&gt;Node1 -->
<g id="edge1" class="edge">
<title>Node0&#45;&gt;Node1</title>
<path fill="none" stroke="midnightblue" d="M116.82,-108.07C137.72,-117.92 163.92,-129.63 188,-138.5 196.54,-141.65 205.69,-144.66 214.68,-147.42"/>
<polygon fill="midnightblue" stroke="midnightblue" points="118.15,-104.83 107.62,-103.69 115.14,-111.15 118.15,-104.83"/>
</g>
<!-- Node2 -->
<g id="node3" class="node">
<title>Node2</title>
<g id="a_node3"><a xlink:href="classApplication_1_1Ports_1_1MainArea_1_1DetailedMainAreaOutput.html" target="_top" xlink:title=" ">
<polygon fill="none" stroke="black" points="195.5,-98.5 195.5,-128.5 347.5,-128.5 347.5,-98.5 195.5,-98.5"/>
<text text-anchor="start" x="203.5" y="-116.5" font-family="Helvetica,sans-Serif" font-size="10.00">Application.Ports.MainArea.</text>
<text text-anchor="middle" x="271.5" y="-105.5" font-family="Helvetica,sans-Serif" font-size="10.00">DetailedMainAreaOutput</text>
</a>
</g>
</g>
<!-- Node0&#45;&gt;Node2 -->
<g id="edge2" class="edge">
<title>Node0&#45;&gt;Node2</title>
<path fill="none" stroke="midnightblue" d="M162.19,-99.51C173.27,-100.94 184.56,-102.4 195.45,-103.8"/>
<polygon fill="midnightblue" stroke="midnightblue" points="162.46,-96.01 152.09,-98.2 161.56,-102.95 162.46,-96.01"/>
</g>
<!-- Node3 -->
<g id="node4" class="node">
<title>Node3</title>
<g id="a_node4"><a xlink:href="classApplication_1_1Ports_1_1MainArea_1_1ResumedReadMainAreaOutput.html" target="_top" xlink:title=" ">
<polygon fill="none" stroke="black" points="188,-49.5 188,-79.5 355,-79.5 355,-49.5 188,-49.5"/>
<text text-anchor="start" x="196" y="-67.5" font-family="Helvetica,sans-Serif" font-size="10.00">Application.Ports.MainArea.</text>
<text text-anchor="middle" x="271.5" y="-56.5" font-family="Helvetica,sans-Serif" font-size="10.00">ResumedReadMainAreaOutput</text>
</a>
</g>
</g>
<!-- Node0&#45;&gt;Node3 -->
<g id="edge3" class="edge">
<title>Node0&#45;&gt;Node3</title>
<path fill="none" stroke="midnightblue" d="M162.04,-77.95C170.58,-76.89 179.24,-75.82 187.75,-74.76"/>
<polygon fill="midnightblue" stroke="midnightblue" points="161.58,-74.48 152.09,-79.19 162.44,-81.43 161.58,-74.48"/>
</g>
<!-- Node4 -->
<g id="node5" class="node">
<title>Node4</title>
<g id="a_node5"><a xlink:href="classApplication_1_1Ports_1_1MainArea_1_1UpdateMainAreaInput.html" target="_top" xlink:title=" ">
<polygon fill="none" stroke="black" points="195.5,-0.5 195.5,-30.5 347.5,-30.5 347.5,-0.5 195.5,-0.5"/>
<text text-anchor="start" x="203.5" y="-18.5" font-family="Helvetica,sans-Serif" font-size="10.00">Application.Ports.MainArea.</text>
<text text-anchor="middle" x="271.5" y="-7.5" font-family="Helvetica,sans-Serif" font-size="10.00">UpdateMainAreaInput</text>
</a>
</g>
</g>
<!-- Node0&#45;&gt;Node4 -->
<g id="edge4" class="edge">
<title>Node0&#45;&gt;Node4</title>
<path fill="none" stroke="midnightblue" d="M118.29,-69.31C138.99,-60.04 164.58,-49.08 188,-40.5 197.42,-37.05 207.55,-33.69 217.39,-30.62"/>
<polygon fill="midnightblue" stroke="midnightblue" points="116.82,-66.14 109.15,-73.44 119.7,-72.51 116.82,-66.14"/>
</g>
</g>
</svg>
