<?xml version="1.0" encoding="UTF-8" standalone="no"?>
<!DOCTYPE svg PUBLIC "-//W3C//DTD SVG 1.1//EN"
 "http://www.w3.org/Graphics/SVG/1.1/DTD/svg11.dtd">
<!-- Generated by graphviz version 2.43.0 (0)
 -->
<!-- Title: Representação gráfica da hiearquia da classe Pages: 1 -->
<svg width="333pt" height="186pt"
 viewBox="0.00 0.00 333.00 186.00" xmlns="http://www.w3.org/2000/svg" xmlns:xlink="http://www.w3.org/1999/xlink">
<g id="graph0" class="graph" transform="scale(1 1) rotate(0) translate(4 182)">
<title>Representação gráfica da hiearquia da classe</title>
<!-- Node0 -->
<g id="node1" class="node">
<title>Node0</title>
<g id="a_node1"><a xlink:href="classApplication_1_1Ports_1_1Notice_1_1BaseNoticeContract.html" target="_top" xlink:title=" ">
<polygon fill="none" stroke="black" points="0,-73.5 0,-103.5 137,-103.5 137,-73.5 0,-73.5"/>
<text text-anchor="start" x="8" y="-91.5" font-family="Helvetica,sans-Serif" font-size="10.00">Application.Ports.Notice.</text>
<text text-anchor="middle" x="68.5" y="-80.5" font-family="Helvetica,sans-Serif" font-size="10.00">BaseNoticeContract</text>
</a>
</g>
</g>
<!-- Node1 -->
<g id="node2" class="node">
<title>Node1</title>
<g id="a_node2"><a xlink:href="classApplication_1_1Ports_1_1Notice_1_1CreateNoticeInput.html" target="_top" xlink:title=" ">
<polygon fill="none" stroke="black" points="180.5,-147.5 180.5,-177.5 317.5,-177.5 317.5,-147.5 180.5,-147.5"/>
<text text-anchor="start" x="188.5" y="-165.5" font-family="Helvetica,sans-Serif" font-size="10.00">Application.Ports.Notice.</text>
<text text-anchor="middle" x="249" y="-154.5" font-family="Helvetica,sans-Serif" font-size="10.00">CreateNoticeInput</text>
</a>
</g>
</g>
<!-- Node0&#45;&gt;Node1 -->
<g id="edge1" class="edge">
<title>Node0&#45;&gt;Node1</title>
<path fill="none" stroke="midnightblue" d="M107.11,-108.25C126.5,-118.02 150.7,-129.6 173,-138.5 180.87,-141.64 189.33,-144.67 197.63,-147.46"/>
<polygon fill="midnightblue" stroke="midnightblue" points="108.51,-105.03 98.01,-103.61 105.34,-111.27 108.51,-105.03"/>
</g>
<!-- Node2 -->
<g id="node3" class="node">
<title>Node2</title>
<g id="a_node3"><a xlink:href="classApplication_1_1Ports_1_1Notice_1_1DetailedReadNoticeOutput.html" target="_top" xlink:title=" ">
<polygon fill="none" stroke="black" points="175.5,-98.5 175.5,-128.5 322.5,-128.5 322.5,-98.5 175.5,-98.5"/>
<text text-anchor="start" x="183.5" y="-116.5" font-family="Helvetica,sans-Serif" font-size="10.00">Application.Ports.Notice.</text>
<text text-anchor="middle" x="249" y="-105.5" font-family="Helvetica,sans-Serif" font-size="10.00">DetailedReadNoticeOutput</text>
</a>
</g>
</g>
<!-- Node0&#45;&gt;Node2 -->
<g id="edge2" class="edge">
<title>Node0&#45;&gt;Node2</title>
<path fill="none" stroke="midnightblue" d="M147.25,-99.39C156.55,-100.69 166.02,-102.02 175.25,-103.31"/>
<polygon fill="midnightblue" stroke="midnightblue" points="147.63,-95.91 137.24,-97.99 146.66,-102.84 147.63,-95.91"/>
</g>
<!-- Node3 -->
<g id="node4" class="node">
<title>Node3</title>
<g id="a_node4"><a xlink:href="classApplication_1_1Ports_1_1Notice_1_1ResumedReadNoticeOutput.html" target="_top" xlink:title=" ">
<polygon fill="none" stroke="black" points="173,-49.5 173,-79.5 325,-79.5 325,-49.5 173,-49.5"/>
<text text-anchor="start" x="181" y="-67.5" font-family="Helvetica,sans-Serif" font-size="10.00">Application.Ports.Notice.</text>
<text text-anchor="middle" x="249" y="-56.5" font-family="Helvetica,sans-Serif" font-size="10.00">ResumedReadNoticeOutput</text>
</a>
</g>
</g>
<!-- Node0&#45;&gt;Node3 -->
<g id="edge3" class="edge">
<title>Node0&#45;&gt;Node3</title>
<path fill="none" stroke="midnightblue" d="M147.16,-78.06C155.69,-76.91 164.36,-75.75 172.85,-74.6"/>
<polygon fill="midnightblue" stroke="midnightblue" points="146.68,-74.59 137.24,-79.39 147.61,-81.53 146.68,-74.59"/>
</g>
<!-- Node4 -->
<g id="node5" class="node">
<title>Node4</title>
<g id="a_node5"><a xlink:href="classApplication_1_1Ports_1_1Notice_1_1UpdateNoticeInput.html" target="_top" xlink:title=" ">
<polygon fill="none" stroke="black" points="180.5,-0.5 180.5,-30.5 317.5,-30.5 317.5,-0.5 180.5,-0.5"/>
<text text-anchor="start" x="188.5" y="-18.5" font-family="Helvetica,sans-Serif" font-size="10.00">Application.Ports.Notice.</text>
<text text-anchor="middle" x="249" y="-7.5" font-family="Helvetica,sans-Serif" font-size="10.00">UpdateNoticeInput</text>
</a>
</g>
</g>
<!-- Node0&#45;&gt;Node4 -->
<g id="edge4" class="edge">
<title>Node0&#45;&gt;Node4</title>
<path fill="none" stroke="midnightblue" d="M108.92,-68.95C128.04,-59.79 151.48,-49.04 173,-40.5 181.67,-37.06 191.03,-33.68 200.1,-30.57"/>
<polygon fill="midnightblue" stroke="midnightblue" points="107.39,-65.8 99.9,-73.3 110.43,-72.11 107.39,-65.8"/>
</g>
</g>
</svg>
