<?xml version="1.0" encoding="UTF-8" standalone="no"?>
<!DOCTYPE svg PUBLIC "-//W3C//DTD SVG 1.1//EN"
 "http://www.w3.org/Graphics/SVG/1.1/DTD/svg11.dtd">
<!-- Generated by graphviz version 2.43.0 (0)
 -->
<!-- Title: Representação gráfica da hiearquia da classe Pages: 1 -->
<svg width="397pt" height="110pt"
 viewBox="0.00 0.00 397.00 110.00" xmlns="http://www.w3.org/2000/svg" xmlns:xlink="http://www.w3.org/1999/xlink">
<g id="graph0" class="graph" transform="scale(1 1) rotate(0) translate(4 106)">
<title>Representação gráfica da hiearquia da classe</title>
<!-- Node0 -->
<g id="node1" class="node">
<title>Node0</title>
<g id="a_node1"><a xlink:href="classApplication_1_1Ports_1_1ProjectPartialReport_1_1BaseProjectPartialReportContract.html" target="_top" xlink:title=" ">
<polygon fill="none" stroke="black" points="0,-30.5 0,-71.5 171,-71.5 171,-30.5 0,-30.5"/>
<text text-anchor="start" x="8" y="-59.5" font-family="Helvetica,sans-Serif" font-size="10.00">Application.Ports.Project</text>
<text text-anchor="start" x="8" y="-48.5" font-family="Helvetica,sans-Serif" font-size="10.00">PartialReport.BaseProjectPartial</text>
<text text-anchor="middle" x="85.5" y="-37.5" font-family="Helvetica,sans-Serif" font-size="10.00">ReportContract</text>
</a>
</g>
</g>
<!-- Node1 -->
<g id="node2" class="node">
<title>Node1</title>
<g id="a_node2"><a xlink:href="classApplication_1_1Ports_1_1ProjectPartialReport_1_1CreateProjectPartialReportInput.html" target="_top" xlink:title=" ">
<polygon fill="none" stroke="black" points="208.5,-60.5 208.5,-101.5 387.5,-101.5 387.5,-60.5 208.5,-60.5"/>
<text text-anchor="start" x="216.5" y="-89.5" font-family="Helvetica,sans-Serif" font-size="10.00">Application.Ports.Project</text>
<text text-anchor="start" x="216.5" y="-78.5" font-family="Helvetica,sans-Serif" font-size="10.00">PartialReport.CreateProjectPartial</text>
<text text-anchor="middle" x="298" y="-67.5" font-family="Helvetica,sans-Serif" font-size="10.00">ReportInput</text>
</a>
</g>
</g>
<!-- Node0&#45;&gt;Node1 -->
<g id="edge1" class="edge">
<title>Node0&#45;&gt;Node1</title>
<path fill="none" stroke="midnightblue" d="M181.31,-64.51C190.3,-65.79 199.4,-67.09 208.34,-68.36"/>
<polygon fill="midnightblue" stroke="midnightblue" points="181.6,-61.02 171.21,-63.07 180.61,-67.95 181.6,-61.02"/>
</g>
<!-- Node2 -->
<g id="node3" class="node">
<title>Node2</title>
<g id="a_node3"><a xlink:href="classApplication_1_1Ports_1_1ProjectPartialReport_1_1DetailedReadProjectPartialReportOutput.html" target="_top" xlink:title=" ">
<polygon fill="none" stroke="black" points="207,-0.5 207,-41.5 389,-41.5 389,-0.5 207,-0.5"/>
<text text-anchor="start" x="215" y="-29.5" font-family="Helvetica,sans-Serif" font-size="10.00">Application.Ports.Project</text>
<text text-anchor="start" x="215" y="-18.5" font-family="Helvetica,sans-Serif" font-size="10.00">PartialReport.DetailedReadProject</text>
<text text-anchor="middle" x="298" y="-7.5" font-family="Helvetica,sans-Serif" font-size="10.00">PartialReportOutput</text>
</a>
</g>
</g>
<!-- Node0&#45;&gt;Node2 -->
<g id="edge2" class="edge">
<title>Node0&#45;&gt;Node2</title>
<path fill="none" stroke="midnightblue" d="M181.21,-37.5C189.77,-36.28 198.43,-35.05 206.96,-33.83"/>
<polygon fill="midnightblue" stroke="midnightblue" points="180.61,-34.05 171.21,-38.93 181.6,-40.98 180.61,-34.05"/>
</g>
</g>
</svg>
