<?xml version="1.0" encoding="UTF-8" standalone="no"?>
<!DOCTYPE svg PUBLIC "-//W3C//DTD SVG 1.1//EN"
 "http://www.w3.org/Graphics/SVG/1.1/DTD/svg11.dtd">
<!-- Generated by graphviz version 2.43.0 (0)
 -->
<!-- Title: Representação gráfica da hiearquia da classe Pages: 1 -->
<svg width="236pt" height="66pt"
 viewBox="0.00 0.00 236.00 66.00" xmlns="http://www.w3.org/2000/svg" xmlns:xlink="http://www.w3.org/1999/xlink">
<g id="graph0" class="graph" transform="scale(1 1) rotate(0) translate(4 62)">
<title>Representação gráfica da hiearquia da classe</title>
<!-- Node9 -->
<g id="node1" class="node">
<title>Node9</title>
<g id="a_node1"><a xlink:title=" ">
<polygon fill="none" stroke="#bfbfbf" points="0,-19.5 0,-38.5 78,-38.5 78,-19.5 0,-19.5"/>
<text text-anchor="middle" x="39" y="-26.5" font-family="Helvetica,sans-Serif" font-size="10.00">BaseActivity</text>
</a>
</g>
</g>
<!-- Node0 -->
<g id="node2" class="node">
<title>Node0</title>
<g id="a_node2"><a xlink:href="classActivityOutput.html" target="_top" xlink:title=" ">
<polygon fill="none" stroke="black" points="127.5,-38.5 127.5,-57.5 214.5,-57.5 214.5,-38.5 127.5,-38.5"/>
<text text-anchor="middle" x="171" y="-45.5" font-family="Helvetica,sans-Serif" font-size="10.00">ActivityOutput</text>
</a>
</g>
</g>
<!-- Node9&#45;&gt;Node0 -->
<g id="edge1" class="edge">
<title>Node9&#45;&gt;Node0</title>
<path fill="none" stroke="midnightblue" d="M88.35,-36.07C101.17,-37.94 114.93,-39.95 127.42,-41.78"/>
<polygon fill="midnightblue" stroke="midnightblue" points="88.7,-32.58 78.3,-34.6 87.69,-39.51 88.7,-32.58"/>
</g>
<!-- Node11 -->
<g id="node3" class="node">
<title>Node11</title>
<g id="a_node3"><a xlink:href="classUpdateActivityInput.html" target="_top" xlink:title=" ">
<polygon fill="none" stroke="black" points="114,-0.5 114,-19.5 228,-19.5 228,-0.5 114,-0.5"/>
<text text-anchor="middle" x="171" y="-7.5" font-family="Helvetica,sans-Serif" font-size="10.00">UpdateActivityInput</text>
</a>
</g>
</g>
<!-- Node9&#45;&gt;Node11 -->
<g id="edge2" class="edge">
<title>Node9&#45;&gt;Node11</title>
<path fill="none" stroke="midnightblue" d="M88.46,-21.92C96.68,-20.72 105.27,-19.46 113.67,-18.23"/>
<polygon fill="midnightblue" stroke="midnightblue" points="87.69,-18.49 78.3,-23.4 88.7,-25.42 87.69,-18.49"/>
</g>
</g>
</svg>
