<?xml version="1.0" encoding="UTF-8" standalone="no"?>
<!DOCTYPE svg PUBLIC "-//W3C//DTD SVG 1.1//EN"
 "http://www.w3.org/Graphics/SVG/1.1/DTD/svg11.dtd">
<!-- Generated by graphviz version 2.43.0 (0)
 -->
<!-- Title: Representação gráfica da hiearquia da classe Pages: 1 -->
<svg width="413pt" height="978pt"
 viewBox="0.00 0.00 413.00 978.00" xmlns="http://www.w3.org/2000/svg" xmlns:xlink="http://www.w3.org/1999/xlink">
<g id="graph0" class="graph" transform="scale(1 1) rotate(0) translate(4 974)">
<title>Representação gráfica da hiearquia da classe</title>
<!-- Node282 -->
<g id="node1" class="node">
<title>Node282</title>
<g id="a_node1"><a xlink:title=" ">
<polygon fill="none" stroke="#bfbfbf" points="0,-453 0,-472 136,-472 136,-453 0,-453"/>
<text text-anchor="middle" x="68" y="-460" font-family="Helvetica,sans-Serif" font-size="10.00">IEntityTypeConfiguration</text>
</a>
</g>
</g>
<!-- Node0 -->
<g id="node2" class="node">
<title>Node0</title>
<g id="a_node2"><a xlink:href="classInfrastructure_1_1Persistence_1_1EntitiesConfiguration_1_1AreaConfiguration.html" target="_top" xlink:title=" ">
<polygon fill="none" stroke="black" points="184,-939.5 184,-969.5 393,-969.5 393,-939.5 184,-939.5"/>
<text text-anchor="start" x="192" y="-957.5" font-family="Helvetica,sans-Serif" font-size="10.00">Infrastructure.Persistence.</text>
<text text-anchor="middle" x="288.5" y="-946.5" font-family="Helvetica,sans-Serif" font-size="10.00">EntitiesConfiguration.AreaConfiguration</text>
</a>
</g>
</g>
<!-- Node282&#45;&gt;Node0 -->
<g id="edge1" class="edge">
<title>Node282&#45;&gt;Node0</title>
<path fill="none" stroke="midnightblue" d="M70.59,-482.53C77.43,-563.42 106.96,-864.72 172,-929.5 175.85,-933.34 180.14,-936.65 184.74,-939.5"/>
<polygon fill="midnightblue" stroke="midnightblue" points="74.06,-481.93 69.75,-472.25 67.08,-482.51 74.06,-481.93"/>
</g>
<!-- Node284 -->
<g id="node3" class="node">
<title>Node284</title>
<g id="a_node3"><a xlink:href="classInfrastructure_1_1Persistence_1_1EntitiesConfiguration_1_1AssistanceTypeConfiguration.html" target="_top" xlink:title=" ">
<polygon fill="none" stroke="black" points="201.5,-879 201.5,-920 375.5,-920 375.5,-879 201.5,-879"/>
<text text-anchor="start" x="209.5" y="-908" font-family="Helvetica,sans-Serif" font-size="10.00">Infrastructure.Persistence.</text>
<text text-anchor="start" x="209.5" y="-897" font-family="Helvetica,sans-Serif" font-size="10.00">EntitiesConfiguration.Assistance</text>
<text text-anchor="middle" x="288.5" y="-886" font-family="Helvetica,sans-Serif" font-size="10.00">TypeConfiguration</text>
</a>
</g>
</g>
<!-- Node282&#45;&gt;Node284 -->
<g id="edge2" class="edge">
<title>Node282&#45;&gt;Node284</title>
<path fill="none" stroke="midnightblue" d="M71.33,-482.21C80.43,-555.76 115.79,-812.94 172,-869.5 180.25,-877.8 190.49,-883.9 201.43,-888.37"/>
<polygon fill="midnightblue" stroke="midnightblue" points="74.78,-481.54 70.1,-472.04 67.83,-482.39 74.78,-481.54"/>
</g>
<!-- Node285 -->
<g id="node4" class="node">
<title>Node285</title>
<g id="a_node4"><a xlink:href="classInfrastructure_1_1Persistence_1_1EntitiesConfiguration_1_1CampusConfiguration.html" target="_top" xlink:title=" ">
<polygon fill="none" stroke="black" points="175,-829.5 175,-859.5 402,-859.5 402,-829.5 175,-829.5"/>
<text text-anchor="start" x="183" y="-847.5" font-family="Helvetica,sans-Serif" font-size="10.00">Infrastructure.Persistence.</text>
<text text-anchor="middle" x="288.5" y="-836.5" font-family="Helvetica,sans-Serif" font-size="10.00">EntitiesConfiguration.CampusConfiguration</text>
</a>
</g>
</g>
<!-- Node282&#45;&gt;Node285 -->
<g id="edge3" class="edge">
<title>Node282&#45;&gt;Node285</title>
<path fill="none" stroke="midnightblue" d="M68.18,-482.06C66.79,-542.39 71.32,-727.13 172,-820.5 175.68,-823.91 179.71,-826.89 184,-829.49"/>
<polygon fill="midnightblue" stroke="midnightblue" points="71.68,-482.11 68.5,-472 64.68,-481.89 71.68,-482.11"/>
</g>
<!-- Node286 -->
<g id="node5" class="node">
<title>Node286</title>
<g id="a_node5"><a xlink:href="classInfrastructure_1_1Persistence_1_1EntitiesConfiguration_1_1CourseConfiguration.html" target="_top" xlink:title=" ">
<polygon fill="none" stroke="black" points="178,-780.5 178,-810.5 399,-810.5 399,-780.5 178,-780.5"/>
<text text-anchor="start" x="186" y="-798.5" font-family="Helvetica,sans-Serif" font-size="10.00">Infrastructure.Persistence.</text>
<text text-anchor="middle" x="288.5" y="-787.5" font-family="Helvetica,sans-Serif" font-size="10.00">EntitiesConfiguration.CourseConfiguration</text>
</a>
</g>
</g>
<!-- Node282&#45;&gt;Node286 -->
<g id="edge4" class="edge">
<title>Node282&#45;&gt;Node286</title>
<path fill="none" stroke="midnightblue" d="M69.22,-482.25C70.97,-537.22 83.84,-693.08 172,-771.5 175.83,-774.9 180.01,-777.87 184.43,-780.45"/>
<polygon fill="midnightblue" stroke="midnightblue" points="72.72,-482.03 68.99,-472.11 65.72,-482.19 72.72,-482.03"/>
</g>
<!-- Node287 -->
<g id="node6" class="node">
<title>Node287</title>
<g id="a_node6"><a xlink:href="classInfrastructure_1_1Persistence_1_1EntitiesConfiguration_1_1MainAreaConfiguration.html" target="_top" xlink:title=" ">
<polygon fill="none" stroke="black" points="172,-731.5 172,-761.5 405,-761.5 405,-731.5 172,-731.5"/>
<text text-anchor="start" x="180" y="-749.5" font-family="Helvetica,sans-Serif" font-size="10.00">Infrastructure.Persistence.</text>
<text text-anchor="middle" x="288.5" y="-738.5" font-family="Helvetica,sans-Serif" font-size="10.00">EntitiesConfiguration.MainAreaConfiguration</text>
</a>
</g>
</g>
<!-- Node282&#45;&gt;Node287 -->
<g id="edge5" class="edge">
<title>Node282&#45;&gt;Node287</title>
<path fill="none" stroke="midnightblue" d="M70.63,-482.34C75.77,-531.33 96.15,-658.71 172,-722.5 176.08,-725.93 180.51,-728.91 185.2,-731.49"/>
<polygon fill="midnightblue" stroke="midnightblue" points="74.09,-481.76 69.67,-472.14 67.12,-482.42 74.09,-481.76"/>
</g>
<!-- Node288 -->
<g id="node7" class="node">
<title>Node288</title>
<g id="a_node7"><a xlink:href="classInfrastructure_1_1Persistence_1_1EntitiesConfiguration_1_1NoticeConfiguration.html" target="_top" xlink:title=" ">
<polygon fill="none" stroke="black" points="179.5,-682.5 179.5,-712.5 397.5,-712.5 397.5,-682.5 179.5,-682.5"/>
<text text-anchor="start" x="187.5" y="-700.5" font-family="Helvetica,sans-Serif" font-size="10.00">Infrastructure.Persistence.</text>
<text text-anchor="middle" x="288.5" y="-689.5" font-family="Helvetica,sans-Serif" font-size="10.00">EntitiesConfiguration.NoticeConfiguration</text>
</a>
</g>
</g>
<!-- Node282&#45;&gt;Node288 -->
<g id="edge6" class="edge">
<title>Node282&#45;&gt;Node288</title>
<path fill="none" stroke="midnightblue" d="M72.68,-482.14C81.62,-524.15 108.59,-622.88 172,-672.5 176.93,-676.36 182.32,-679.65 188,-682.46"/>
<polygon fill="midnightblue" stroke="midnightblue" points="76.1,-481.43 70.7,-472.32 69.24,-482.81 76.1,-481.43"/>
</g>
<!-- Node289 -->
<g id="node8" class="node">
<title>Node289</title>
<g id="a_node8"><a xlink:href="classInfrastructure_1_1Persistence_1_1EntitiesConfiguration_1_1ProfessorConfiguration.html" target="_top" xlink:title=" ">
<polygon fill="none" stroke="black" points="205,-622 205,-663 372,-663 372,-622 205,-622"/>
<text text-anchor="start" x="213" y="-651" font-family="Helvetica,sans-Serif" font-size="10.00">Infrastructure.Persistence.</text>
<text text-anchor="start" x="213" y="-640" font-family="Helvetica,sans-Serif" font-size="10.00">EntitiesConfiguration.Professor</text>
<text text-anchor="middle" x="288.5" y="-629" font-family="Helvetica,sans-Serif" font-size="10.00">Configuration</text>
</a>
</g>
</g>
<!-- Node282&#45;&gt;Node289 -->
<g id="edge7" class="edge">
<title>Node282&#45;&gt;Node289</title>
<path fill="none" stroke="midnightblue" d="M76.9,-481.99C91.01,-514.26 123.67,-578.6 172,-612.5 181.84,-619.4 193.15,-624.71 204.75,-628.8"/>
<polygon fill="midnightblue" stroke="midnightblue" points="79.95,-480.21 72.83,-472.36 73.5,-482.94 79.95,-480.21"/>
</g>
<!-- Node290 -->
<g id="node9" class="node">
<title>Node290</title>
<g id="a_node9"><a xlink:href="classInfrastructure_1_1Persistence_1_1EntitiesConfiguration_1_1ProgramTypeConfiguration.html" target="_top" xlink:title=" ">
<polygon fill="none" stroke="black" points="196,-562 196,-603 381,-603 381,-562 196,-562"/>
<text text-anchor="start" x="204" y="-591" font-family="Helvetica,sans-Serif" font-size="10.00">Infrastructure.Persistence.</text>
<text text-anchor="start" x="204" y="-580" font-family="Helvetica,sans-Serif" font-size="10.00">EntitiesConfiguration.ProgramType</text>
<text text-anchor="middle" x="288.5" y="-569" font-family="Helvetica,sans-Serif" font-size="10.00">Configuration</text>
</a>
</g>
</g>
<!-- Node282&#45;&gt;Node290 -->
<g id="edge8" class="edge">
<title>Node282&#45;&gt;Node290</title>
<path fill="none" stroke="midnightblue" d="M84.1,-479.89C102.75,-500.29 136.39,-533.68 172,-552.5 179.51,-556.47 187.58,-559.94 195.83,-562.96"/>
<polygon fill="midnightblue" stroke="midnightblue" points="86.56,-477.39 77.28,-472.28 81.34,-482.06 86.56,-477.39"/>
</g>
<!-- Node291 -->
<g id="node10" class="node">
<title>Node291</title>
<g id="a_node10"><a xlink:href="classInfrastructure_1_1Persistence_1_1EntitiesConfiguration_1_1ProjectFinalReportConfiguration.html" target="_top" xlink:title=" ">
<polygon fill="none" stroke="black" points="199,-502 199,-543 378,-543 378,-502 199,-502"/>
<text text-anchor="start" x="207" y="-531" font-family="Helvetica,sans-Serif" font-size="10.00">Infrastructure.Persistence.</text>
<text text-anchor="start" x="207" y="-520" font-family="Helvetica,sans-Serif" font-size="10.00">EntitiesConfiguration.ProjectFinal</text>
<text text-anchor="middle" x="288.5" y="-509" font-family="Helvetica,sans-Serif" font-size="10.00">ReportConfiguration</text>
</a>
</g>
</g>
<!-- Node282&#45;&gt;Node291 -->
<g id="edge9" class="edge">
<title>Node282&#45;&gt;Node291</title>
<path fill="none" stroke="midnightblue" d="M110.65,-474.93C129.37,-480.44 151.76,-486.92 172,-492.5 183.38,-495.64 195.43,-498.86 207.27,-501.98"/>
<polygon fill="midnightblue" stroke="midnightblue" points="111.53,-471.54 100.94,-472.07 109.54,-478.25 111.53,-471.54"/>
</g>
<!-- Node292 -->
<g id="node11" class="node">
<title>Node292</title>
<g id="a_node11"><a xlink:href="classInfrastructure_1_1Persistence_1_1EntitiesConfiguration_1_1ProjectPartialReportConfiguration.html" target="_top" xlink:title=" ">
<polygon fill="none" stroke="black" points="195.5,-442 195.5,-483 381.5,-483 381.5,-442 195.5,-442"/>
<text text-anchor="start" x="203.5" y="-471" font-family="Helvetica,sans-Serif" font-size="10.00">Infrastructure.Persistence.</text>
<text text-anchor="start" x="203.5" y="-460" font-family="Helvetica,sans-Serif" font-size="10.00">EntitiesConfiguration.ProjectPartial</text>
<text text-anchor="middle" x="288.5" y="-449" font-family="Helvetica,sans-Serif" font-size="10.00">ReportConfiguration</text>
</a>
</g>
</g>
<!-- Node282&#45;&gt;Node292 -->
<g id="edge10" class="edge">
<title>Node282&#45;&gt;Node292</title>
<path fill="none" stroke="midnightblue" d="M146.29,-462.5C162.13,-462.5 178.94,-462.5 195.24,-462.5"/>
<polygon fill="midnightblue" stroke="midnightblue" points="146.04,-459 136.04,-462.5 146.04,-466 146.04,-459"/>
</g>
<!-- Node293 -->
<g id="node12" class="node">
<title>Node293</title>
<g id="a_node12"><a xlink:href="classInfrastructure_1_1Persistence_1_1EntitiesConfiguration_1_1StudentConfiguration.html" target="_top" xlink:title=" ">
<polygon fill="none" stroke="black" points="176.5,-392.5 176.5,-422.5 400.5,-422.5 400.5,-392.5 176.5,-392.5"/>
<text text-anchor="start" x="184.5" y="-410.5" font-family="Helvetica,sans-Serif" font-size="10.00">Infrastructure.Persistence.</text>
<text text-anchor="middle" x="288.5" y="-399.5" font-family="Helvetica,sans-Serif" font-size="10.00">EntitiesConfiguration.StudentConfiguration</text>
</a>
</g>
</g>
<!-- Node282&#45;&gt;Node293 -->
<g id="edge11" class="edge">
<title>Node282&#45;&gt;Node293</title>
<path fill="none" stroke="midnightblue" d="M109.7,-449.93C128.57,-444.29 151.34,-437.74 172,-432.5 185.62,-429.05 200.22,-425.65 214.31,-422.53"/>
<polygon fill="midnightblue" stroke="midnightblue" points="108.51,-446.63 99.94,-452.87 110.53,-453.34 108.51,-446.63"/>
</g>
<!-- Node294 -->
<g id="node13" class="node">
<title>Node294</title>
<g id="a_node13"><a xlink:href="classInfrastructure_1_1Persistence_1_1EntitiesConfiguration_1_1SubAreaConfiguration.html" target="_top" xlink:title=" ">
<polygon fill="none" stroke="black" points="175,-343.5 175,-373.5 402,-373.5 402,-343.5 175,-343.5"/>
<text text-anchor="start" x="183" y="-361.5" font-family="Helvetica,sans-Serif" font-size="10.00">Infrastructure.Persistence.</text>
<text text-anchor="middle" x="288.5" y="-350.5" font-family="Helvetica,sans-Serif" font-size="10.00">EntitiesConfiguration.SubAreaConfiguration</text>
</a>
</g>
</g>
<!-- Node282&#45;&gt;Node294 -->
<g id="edge12" class="edge">
<title>Node282&#45;&gt;Node294</title>
<path fill="none" stroke="midnightblue" d="M85.87,-445.7C105.07,-427.56 138.18,-399.16 172,-383.5 180.38,-379.62 189.38,-376.33 198.53,-373.55"/>
<polygon fill="midnightblue" stroke="midnightblue" points="83.3,-443.32 78.53,-452.78 88.16,-448.35 83.3,-443.32"/>
</g>
<!-- Node295 -->
<g id="node14" class="node">
<title>Node295</title>
<g id="a_node14"><a xlink:href="classInfrastructure_1_1Persistence_1_1EntitiesConfiguration_1_1UserConfiguration.html" target="_top" xlink:title=" ">
<polygon fill="none" stroke="black" points="184,-294.5 184,-324.5 393,-324.5 393,-294.5 184,-294.5"/>
<text text-anchor="start" x="192" y="-312.5" font-family="Helvetica,sans-Serif" font-size="10.00">Infrastructure.Persistence.</text>
<text text-anchor="middle" x="288.5" y="-301.5" font-family="Helvetica,sans-Serif" font-size="10.00">EntitiesConfiguration.UserConfiguration</text>
</a>
</g>
</g>
<!-- Node282&#45;&gt;Node295 -->
<g id="edge13" class="edge">
<title>Node282&#45;&gt;Node295</title>
<path fill="none" stroke="midnightblue" d="M78.42,-444.08C93.9,-415.77 127.49,-361.98 172,-334.5 178.28,-330.62 185.09,-327.34 192.13,-324.56"/>
<polygon fill="midnightblue" stroke="midnightblue" points="75.31,-442.47 73.71,-452.94 81.49,-445.75 75.31,-442.47"/>
</g>
<!-- Node296 -->
<g id="node15" class="node">
<title>Node296</title>
<g id="a_node15"><a xlink:href="classPersistence_1_1EntitiesConfiguration_1_1ActivityConfiguration.html" target="_top" xlink:title=" ">
<polygon fill="none" stroke="black" points="198,-245.5 198,-275.5 379,-275.5 379,-245.5 198,-245.5"/>
<text text-anchor="start" x="206" y="-263.5" font-family="Helvetica,sans-Serif" font-size="10.00">Persistence.EntitiesConfiguration.</text>
<text text-anchor="middle" x="288.5" y="-252.5" font-family="Helvetica,sans-Serif" font-size="10.00">ActivityConfiguration</text>
</a>
</g>
</g>
<!-- Node282&#45;&gt;Node296 -->
<g id="edge14" class="edge">
<title>Node282&#45;&gt;Node296</title>
<path fill="none" stroke="midnightblue" d="M74.55,-442.96C86.13,-405.98 116.48,-325.85 172,-285.5 179.8,-279.83 188.63,-275.4 197.85,-271.95"/>
<polygon fill="midnightblue" stroke="midnightblue" points="71.07,-442.38 71.56,-452.96 77.78,-444.39 71.07,-442.38"/>
</g>
<!-- Node297 -->
<g id="node16" class="node">
<title>Node297</title>
<g id="a_node16"><a xlink:href="classPersistence_1_1EntitiesConfiguration_1_1ActivityTypeConfiguration.html" target="_top" xlink:title=" ">
<polygon fill="none" stroke="black" points="198,-196.5 198,-226.5 379,-226.5 379,-196.5 198,-196.5"/>
<text text-anchor="start" x="206" y="-214.5" font-family="Helvetica,sans-Serif" font-size="10.00">Persistence.EntitiesConfiguration.</text>
<text text-anchor="middle" x="288.5" y="-203.5" font-family="Helvetica,sans-Serif" font-size="10.00">ActivityTypeConfiguration</text>
</a>
</g>
</g>
<!-- Node282&#45;&gt;Node297 -->
<g id="edge15" class="edge">
<title>Node282&#45;&gt;Node297</title>
<path fill="none" stroke="midnightblue" d="M71.93,-442.92C79.62,-398.69 104.66,-290.75 172,-236.5 179.67,-230.32 188.52,-225.58 197.85,-221.96"/>
<polygon fill="midnightblue" stroke="midnightblue" points="68.45,-442.51 70.3,-452.94 75.36,-443.63 68.45,-442.51"/>
</g>
<!-- Node298 -->
<g id="node17" class="node">
<title>Node298</title>
<g id="a_node17"><a xlink:href="classPersistence_1_1EntitiesConfiguration_1_1ProjectActivityConfiguration.html" target="_top" xlink:title=" ">
<polygon fill="none" stroke="black" points="198,-147.5 198,-177.5 379,-177.5 379,-147.5 198,-147.5"/>
<text text-anchor="start" x="206" y="-165.5" font-family="Helvetica,sans-Serif" font-size="10.00">Persistence.EntitiesConfiguration.</text>
<text text-anchor="middle" x="288.5" y="-154.5" font-family="Helvetica,sans-Serif" font-size="10.00">ProjectActivityConfiguration</text>
</a>
</g>
</g>
<!-- Node282&#45;&gt;Node298 -->
<g id="edge16" class="edge">
<title>Node282&#45;&gt;Node298</title>
<path fill="none" stroke="midnightblue" d="M70.19,-442.61C74.36,-391.73 92.74,-256.01 172,-187.5 179.61,-180.93 188.53,-175.95 197.99,-172.21"/>
<polygon fill="midnightblue" stroke="midnightblue" points="66.68,-442.66 69.45,-452.89 73.66,-443.16 66.68,-442.66"/>
</g>
<!-- Node299 -->
<g id="node18" class="node">
<title>Node299</title>
<g id="a_node18"><a xlink:href="classPersistence_1_1EntitiesConfiguration_1_1ProjectConfiguration.html" target="_top" xlink:title=" ">
<polygon fill="none" stroke="black" points="198,-98.5 198,-128.5 379,-128.5 379,-98.5 198,-98.5"/>
<text text-anchor="start" x="206" y="-116.5" font-family="Helvetica,sans-Serif" font-size="10.00">Persistence.EntitiesConfiguration.</text>
<text text-anchor="middle" x="288.5" y="-105.5" font-family="Helvetica,sans-Serif" font-size="10.00">ProjectConfiguration</text>
</a>
</g>
</g>
<!-- Node282&#45;&gt;Node299 -->
<g id="edge17" class="edge">
<title>Node282&#45;&gt;Node299</title>
<path fill="none" stroke="midnightblue" d="M68.91,-442.6C69.78,-385.81 80.5,-221.73 172,-138.5 179.51,-131.67 188.44,-126.54 197.95,-122.72"/>
<polygon fill="midnightblue" stroke="midnightblue" points="65.4,-442.73 68.84,-452.75 72.4,-442.77 65.4,-442.73"/>
</g>
<!-- Node300 -->
<g id="node19" class="node">
<title>Node300</title>
<g id="a_node19"><a xlink:href="classPersistence_1_1EntitiesConfiguration_1_1ProjectEvaluationConfiguration.html" target="_top" xlink:title=" ">
<polygon fill="none" stroke="black" points="198,-49.5 198,-79.5 379,-79.5 379,-49.5 198,-49.5"/>
<text text-anchor="start" x="206" y="-67.5" font-family="Helvetica,sans-Serif" font-size="10.00">Persistence.EntitiesConfiguration.</text>
<text text-anchor="middle" x="288.5" y="-56.5" font-family="Helvetica,sans-Serif" font-size="10.00">ProjectEvaluationConfiguration</text>
</a>
</g>
</g>
<!-- Node282&#45;&gt;Node300 -->
<g id="edge18" class="edge">
<title>Node282&#45;&gt;Node300</title>
<path fill="none" stroke="midnightblue" d="M71.77,-442.58C81.88,-372.6 119.05,-139.55 172,-89.5 179.45,-82.45 188.4,-77.21 197.98,-73.32"/>
<polygon fill="midnightblue" stroke="midnightblue" points="68.27,-442.3 70.33,-452.69 75.2,-443.28 68.27,-442.3"/>
</g>
<!-- Node301 -->
<g id="node20" class="node">
<title>Node301</title>
<g id="a_node20"><a xlink:href="classPersistence_1_1EntitiesConfiguration_1_1StudentDocumentsConfiguration.html" target="_top" xlink:title=" ">
<polygon fill="none" stroke="black" points="198,-0.5 198,-30.5 379,-30.5 379,-0.5 198,-0.5"/>
<text text-anchor="start" x="206" y="-18.5" font-family="Helvetica,sans-Serif" font-size="10.00">Persistence.EntitiesConfiguration.</text>
<text text-anchor="middle" x="288.5" y="-7.5" font-family="Helvetica,sans-Serif" font-size="10.00">StudentDocumentsConfiguration</text>
</a>
</g>
</g>
<!-- Node282&#45;&gt;Node301 -->
<g id="edge19" class="edge">
<title>Node282&#45;&gt;Node301</title>
<path fill="none" stroke="midnightblue" d="M71.04,-442.96C79.3,-367.75 112.65,-98.31 172,-40.5 179.35,-33.34 188.23,-28.03 197.77,-24.11"/>
<polygon fill="midnightblue" stroke="midnightblue" points="67.56,-442.63 69.97,-452.95 74.52,-443.38 67.56,-442.63"/>
</g>
</g>
</svg>
