<?xml version="1.0" encoding="UTF-8" standalone="no"?>
<!DOCTYPE svg PUBLIC "-//W3C//DTD SVG 1.1//EN"
 "http://www.w3.org/Graphics/SVG/1.1/DTD/svg11.dtd">
<!-- Generated by graphviz version 2.43.0 (0)
 -->
<!-- Title: Representação gráfica da hiearquia da classe Pages: 1 -->
<svg width="608pt" height="39pt"
 viewBox="0.00 0.00 608.00 39.00" xmlns="http://www.w3.org/2000/svg" xmlns:xlink="http://www.w3.org/1999/xlink">
<g id="graph0" class="graph" transform="scale(1 1) rotate(0) translate(4 35)">
<title>Representação gráfica da hiearquia da classe</title>
<!-- Node0 -->
<g id="node1" class="node">
<title>Node0</title>
<g id="a_node1"><a xlink:href="interfaceDomain_1_1Interfaces_1_1Repositories_1_1Bases_1_1IGenericCRUDRepository.html" target="_top" xlink:title=" ">
<polygon fill="none" stroke="black" points="0,-0.5 0,-30.5 215,-30.5 215,-0.5 0,-0.5"/>
<text text-anchor="start" x="8" y="-18.5" font-family="Helvetica,sans-Serif" font-size="10.00">Domain.Interfaces.Repositories.</text>
<text text-anchor="middle" x="107.5" y="-7.5" font-family="Helvetica,sans-Serif" font-size="10.00">Bases.IGenericCRUDRepository&lt; Area &gt;</text>
</a>
</g>
</g>
<!-- Node1 -->
<g id="node2" class="node">
<title>Node1</title>
<g id="a_node2"><a xlink:href="interfaceDomain_1_1Interfaces_1_1Repositories_1_1IAreaRepository.html" target="_top" xlink:title=" ">
<polygon fill="none" stroke="black" points="251,-0.5 251,-30.5 424,-30.5 424,-0.5 251,-0.5"/>
<text text-anchor="start" x="259" y="-18.5" font-family="Helvetica,sans-Serif" font-size="10.00">Domain.Interfaces.Repositories.</text>
<text text-anchor="middle" x="337.5" y="-7.5" font-family="Helvetica,sans-Serif" font-size="10.00">IAreaRepository</text>
</a>
</g>
</g>
<!-- Node0&#45;&gt;Node1 -->
<g id="edge1" class="edge">
<title>Node0&#45;&gt;Node1</title>
<path fill="none" stroke="midnightblue" d="M225.24,-15.5C233.84,-15.5 242.41,-15.5 250.77,-15.5"/>
<polygon fill="midnightblue" stroke="midnightblue" points="225.16,-12 215.16,-15.5 225.16,-19 225.16,-12"/>
</g>
<!-- Node2 -->
<g id="node3" class="node">
<title>Node2</title>
<g id="a_node3"><a xlink:href="classPersistence_1_1Repositories_1_1AreaRepository.html" target="_top" xlink:title=" ">
<polygon fill="none" stroke="black" points="460,-0.5 460,-30.5 600,-30.5 600,-0.5 460,-0.5"/>
<text text-anchor="start" x="468" y="-18.5" font-family="Helvetica,sans-Serif" font-size="10.00">Persistence.Repositories.</text>
<text text-anchor="middle" x="530" y="-7.5" font-family="Helvetica,sans-Serif" font-size="10.00">AreaRepository</text>
</a>
</g>
</g>
<!-- Node1&#45;&gt;Node2 -->
<g id="edge2" class="edge">
<title>Node1&#45;&gt;Node2</title>
<path fill="none" stroke="midnightblue" d="M434.39,-15.5C443.02,-15.5 451.64,-15.5 459.97,-15.5"/>
<polygon fill="midnightblue" stroke="midnightblue" points="434.28,-12 424.28,-15.5 434.28,-19 434.28,-12"/>
</g>
</g>
</svg>
