<?xml version="1.0" encoding="UTF-8" standalone="no"?>
<!DOCTYPE svg PUBLIC "-//W3C//DTD SVG 1.1//EN"
 "http://www.w3.org/Graphics/SVG/1.1/DTD/svg11.dtd">
<!-- Generated by graphviz version 2.43.0 (0)
 -->
<!-- Title: Representação gráfica da hiearquia da classe Pages: 1 -->
<svg width="292pt" height="642pt"
 viewBox="0.00 0.00 292.00 641.50" xmlns="http://www.w3.org/2000/svg" xmlns:xlink="http://www.w3.org/1999/xlink">
<g id="graph0" class="graph" transform="scale(1 1) rotate(0) translate(4 637.5)">
<title>Representação gráfica da hiearquia da classe</title>
<!-- Node510 -->
<g id="node1" class="node">
<title>Node510</title>
<g id="a_node1"><a xlink:title=" ">
<polygon fill="none" stroke="#bfbfbf" points="0,-306.5 0,-325.5 47,-325.5 47,-306.5 0,-306.5"/>
<text text-anchor="middle" x="23.5" y="-313.5" font-family="Helvetica,sans-Serif" font-size="10.00">Profile</text>
</a>
</g>
</g>
<!-- Node0 -->
<g id="node2" class="node">
<title>Node0</title>
<g id="a_node2"><a xlink:href="classDomain_1_1Mappings_1_1ActivityMappings.html" target="_top" xlink:title=" ">
<polygon fill="none" stroke="black" points="110.5,-603 110.5,-633 256.5,-633 256.5,-603 110.5,-603"/>
<text text-anchor="start" x="118.5" y="-621" font-family="Helvetica,sans-Serif" font-size="10.00">Domain.Mappings.Activity</text>
<text text-anchor="middle" x="183.5" y="-610" font-family="Helvetica,sans-Serif" font-size="10.00">Mappings</text>
</a>
</g>
</g>
<!-- Node510&#45;&gt;Node0 -->
<g id="edge1" class="edge">
<title>Node510&#45;&gt;Node0</title>
<path fill="none" stroke="midnightblue" d="M26.02,-335.99C30.77,-393.19 47.2,-555.81 83,-593 90.54,-600.83 100.13,-606.34 110.37,-610.21"/>
<polygon fill="midnightblue" stroke="midnightblue" points="29.49,-335.43 25.2,-325.74 22.51,-335.99 29.49,-335.43"/>
</g>
<!-- Node512 -->
<g id="node3" class="node">
<title>Node512</title>
<g id="a_node3"><a xlink:href="classDomain_1_1Mappings_1_1AreaMappings.html" target="_top" xlink:title=" ">
<polygon fill="none" stroke="black" points="94.5,-564.5 94.5,-583.5 272.5,-583.5 272.5,-564.5 94.5,-564.5"/>
<text text-anchor="middle" x="183.5" y="-571.5" font-family="Helvetica,sans-Serif" font-size="10.00">Domain.Mappings.AreaMappings</text>
</a>
</g>
</g>
<!-- Node510&#45;&gt;Node512 -->
<g id="edge2" class="edge">
<title>Node510&#45;&gt;Node512</title>
<path fill="none" stroke="midnightblue" d="M26.6,-335.68C32.51,-387.27 50.97,-524.57 83,-555 86.95,-558.75 91.41,-561.88 96.18,-564.47"/>
<polygon fill="midnightblue" stroke="midnightblue" points="30.05,-335.08 25.47,-325.53 23.1,-335.85 30.05,-335.08"/>
</g>
<!-- Node513 -->
<g id="node4" class="node">
<title>Node513</title>
<g id="a_node4"><a xlink:href="classDomain_1_1Mappings_1_1AssistanceTypeMappings.html" target="_top" xlink:title=" ">
<polygon fill="none" stroke="black" points="103,-515 103,-545 264,-545 264,-515 103,-515"/>
<text text-anchor="start" x="111" y="-533" font-family="Helvetica,sans-Serif" font-size="10.00">Domain.Mappings.Assistance</text>
<text text-anchor="middle" x="183.5" y="-522" font-family="Helvetica,sans-Serif" font-size="10.00">TypeMappings</text>
</a>
</g>
</g>
<!-- Node510&#45;&gt;Node513 -->
<g id="edge3" class="edge">
<title>Node510&#45;&gt;Node513</title>
<path fill="none" stroke="midnightblue" d="M24.62,-335.86C25.98,-374.32 34.64,-459.19 83,-505 88.69,-510.39 95.36,-514.67 102.51,-518.05"/>
<polygon fill="midnightblue" stroke="midnightblue" points="28.11,-335.43 24.4,-325.51 21.11,-335.58 28.11,-335.43"/>
</g>
<!-- Node514 -->
<g id="node5" class="node">
<title>Node514</title>
<g id="a_node5"><a xlink:href="classDomain_1_1Mappings_1_1CampusMappings.html" target="_top" xlink:title=" ">
<polygon fill="none" stroke="black" points="86,-476.5 86,-495.5 281,-495.5 281,-476.5 86,-476.5"/>
<text text-anchor="middle" x="183.5" y="-483.5" font-family="Helvetica,sans-Serif" font-size="10.00">Domain.Mappings.CampusMappings</text>
</a>
</g>
</g>
<!-- Node510&#45;&gt;Node514 -->
<g id="edge4" class="edge">
<title>Node510&#45;&gt;Node514</title>
<path fill="none" stroke="midnightblue" d="M26.16,-335.68C30.02,-368.31 42.63,-433.34 83,-467 87.46,-470.72 92.42,-473.79 97.68,-476.33"/>
<polygon fill="midnightblue" stroke="midnightblue" points="29.63,-335.19 25.13,-325.6 22.66,-335.9 29.63,-335.19"/>
</g>
<!-- Node515 -->
<g id="node6" class="node">
<title>Node515</title>
<g id="a_node6"><a xlink:href="classDomain_1_1Mappings_1_1CourseMappings.html" target="_top" xlink:title=" ">
<polygon fill="none" stroke="black" points="89,-438.5 89,-457.5 278,-457.5 278,-438.5 89,-438.5"/>
<text text-anchor="middle" x="183.5" y="-445.5" font-family="Helvetica,sans-Serif" font-size="10.00">Domain.Mappings.CourseMappings</text>
</a>
</g>
</g>
<!-- Node510&#45;&gt;Node515 -->
<g id="edge5" class="edge">
<title>Node510&#45;&gt;Node515</title>
<path fill="none" stroke="midnightblue" d="M28.95,-335.45C35.89,-361.12 51.86,-405.77 83,-429 88.07,-432.79 93.69,-435.88 99.59,-438.41"/>
<polygon fill="midnightblue" stroke="midnightblue" points="32.34,-334.58 26.51,-325.73 25.55,-336.28 32.34,-334.58"/>
</g>
<!-- Node516 -->
<g id="node7" class="node">
<title>Node516</title>
<g id="a_node7"><a xlink:href="classDomain_1_1Mappings_1_1MainAreaMappings.html" target="_top" xlink:title=" ">
<polygon fill="none" stroke="black" points="106,-389 106,-419 261,-419 261,-389 106,-389"/>
<text text-anchor="start" x="114" y="-407" font-family="Helvetica,sans-Serif" font-size="10.00">Domain.Mappings.MainArea</text>
<text text-anchor="middle" x="183.5" y="-396" font-family="Helvetica,sans-Serif" font-size="10.00">Mappings</text>
</a>
</g>
</g>
<!-- Node510&#45;&gt;Node516 -->
<g id="edge6" class="edge">
<title>Node510&#45;&gt;Node516</title>
<path fill="none" stroke="midnightblue" d="M36.87,-334.27C47.48,-348.54 64.03,-367.78 83,-379 90.13,-383.22 97.95,-386.73 105.98,-389.65"/>
<polygon fill="midnightblue" stroke="midnightblue" points="39.45,-331.85 30.79,-325.74 33.75,-335.92 39.45,-331.85"/>
</g>
<!-- Node517 -->
<g id="node8" class="node">
<title>Node517</title>
<g id="a_node8"><a xlink:href="classDomain_1_1Mappings_1_1NoticeMappings.html" target="_top" xlink:title=" ">
<polygon fill="none" stroke="black" points="90,-350.5 90,-369.5 277,-369.5 277,-350.5 90,-350.5"/>
<text text-anchor="middle" x="183.5" y="-357.5" font-family="Helvetica,sans-Serif" font-size="10.00">Domain.Mappings.NoticeMappings</text>
</a>
</g>
</g>
<!-- Node510&#45;&gt;Node517 -->
<g id="edge7" class="edge">
<title>Node510&#45;&gt;Node517</title>
<path fill="none" stroke="midnightblue" d="M53.12,-329.69C62.49,-333.77 73.04,-337.96 83,-341 95.28,-344.75 108.65,-347.9 121.48,-350.5"/>
<polygon fill="midnightblue" stroke="midnightblue" points="54.43,-326.44 43.87,-325.53 51.56,-332.82 54.43,-326.44"/>
</g>
<!-- Node518 -->
<g id="node9" class="node">
<title>Node518</title>
<g id="a_node9"><a xlink:href="classDomain_1_1Mappings_1_1ProfessorMappings.html" target="_top" xlink:title=" ">
<polygon fill="none" stroke="black" points="106.5,-301 106.5,-331 260.5,-331 260.5,-301 106.5,-301"/>
<text text-anchor="start" x="114.5" y="-319" font-family="Helvetica,sans-Serif" font-size="10.00">Domain.Mappings.Professor</text>
<text text-anchor="middle" x="183.5" y="-308" font-family="Helvetica,sans-Serif" font-size="10.00">Mappings</text>
</a>
</g>
</g>
<!-- Node510&#45;&gt;Node518 -->
<g id="edge8" class="edge">
<title>Node510&#45;&gt;Node518</title>
<path fill="none" stroke="midnightblue" d="M57.42,-316C71.72,-316 89.13,-316 106.35,-316"/>
<polygon fill="midnightblue" stroke="midnightblue" points="57.14,-312.5 47.14,-316 57.14,-319.5 57.14,-312.5"/>
</g>
<!-- Node519 -->
<g id="node10" class="node">
<title>Node519</title>
<g id="a_node10"><a xlink:href="classDomain_1_1Mappings_1_1ProgramTypeMappings.html" target="_top" xlink:title=" ">
<polygon fill="none" stroke="black" points="97.5,-252 97.5,-282 269.5,-282 269.5,-252 97.5,-252"/>
<text text-anchor="start" x="105.5" y="-270" font-family="Helvetica,sans-Serif" font-size="10.00">Domain.Mappings.ProgramType</text>
<text text-anchor="middle" x="183.5" y="-259" font-family="Helvetica,sans-Serif" font-size="10.00">Mappings</text>
</a>
</g>
</g>
<!-- Node510&#45;&gt;Node519 -->
<g id="edge9" class="edge">
<title>Node510&#45;&gt;Node519</title>
<path fill="none" stroke="midnightblue" d="M54.9,-302.56C63.85,-298.87 73.73,-295.05 83,-292 93.91,-288.41 105.64,-285.04 117.09,-282.01"/>
<polygon fill="midnightblue" stroke="midnightblue" points="53.47,-299.37 45.62,-306.48 56.19,-305.82 53.47,-299.37"/>
</g>
<!-- Node520 -->
<g id="node11" class="node">
<title>Node520</title>
<g id="a_node11"><a xlink:href="classDomain_1_1Mappings_1_1ProjectEvaluationMappings.html" target="_top" xlink:title=" ">
<polygon fill="none" stroke="black" points="86.5,-203 86.5,-233 280.5,-233 280.5,-203 86.5,-203"/>
<text text-anchor="start" x="94.5" y="-221" font-family="Helvetica,sans-Serif" font-size="10.00">Domain.Mappings.ProjectEvaluation</text>
<text text-anchor="middle" x="183.5" y="-210" font-family="Helvetica,sans-Serif" font-size="10.00">Mappings</text>
</a>
</g>
</g>
<!-- Node510&#45;&gt;Node520 -->
<g id="edge10" class="edge">
<title>Node510&#45;&gt;Node520</title>
<path fill="none" stroke="midnightblue" d="M34.65,-297.38C44.73,-280.64 61.75,-256.64 83,-243 89.07,-239.1 95.71,-235.81 102.59,-233.04"/>
<polygon fill="midnightblue" stroke="midnightblue" points="31.49,-295.86 29.53,-306.27 37.55,-299.35 31.49,-295.86"/>
</g>
<!-- Node521 -->
<g id="node12" class="node">
<title>Node521</title>
<g id="a_node12"><a xlink:href="classDomain_1_1Mappings_1_1ProjectMappings.html" target="_top" xlink:title=" ">
<polygon fill="none" stroke="black" points="89,-164.5 89,-183.5 278,-183.5 278,-164.5 89,-164.5"/>
<text text-anchor="middle" x="183.5" y="-171.5" font-family="Helvetica,sans-Serif" font-size="10.00">Domain.Mappings.ProjectMappings</text>
</a>
</g>
</g>
<!-- Node510&#45;&gt;Node521 -->
<g id="edge11" class="edge">
<title>Node510&#45;&gt;Node521</title>
<path fill="none" stroke="midnightblue" d="M28.25,-296.27C34.53,-268.85 49.92,-219.73 83,-194 88.42,-189.78 94.51,-186.38 100.92,-183.66"/>
<polygon fill="midnightblue" stroke="midnightblue" points="24.78,-295.74 26.14,-306.24 31.63,-297.18 24.78,-295.74"/>
</g>
<!-- Node522 -->
<g id="node13" class="node">
<title>Node522</title>
<g id="a_node13"><a xlink:href="classDomain_1_1Mappings_1_1StudentDocumentsMappings.html" target="_top" xlink:title=" ">
<polygon fill="none" stroke="black" points="83,-115 83,-145 284,-145 284,-115 83,-115"/>
<text text-anchor="start" x="91" y="-133" font-family="Helvetica,sans-Serif" font-size="10.00">Domain.Mappings.StudentDocuments</text>
<text text-anchor="middle" x="183.5" y="-122" font-family="Helvetica,sans-Serif" font-size="10.00">Mappings</text>
</a>
</g>
</g>
<!-- Node510&#45;&gt;Node522 -->
<g id="edge12" class="edge">
<title>Node510&#45;&gt;Node522</title>
<path fill="none" stroke="midnightblue" d="M25.87,-296.25C29.31,-262.22 41.35,-192.59 83,-155 87.23,-151.18 91.96,-147.93 96.99,-145.15"/>
<polygon fill="midnightblue" stroke="midnightblue" points="22.37,-296.06 25,-306.33 29.34,-296.66 22.37,-296.06"/>
</g>
<!-- Node523 -->
<g id="node14" class="node">
<title>Node523</title>
<g id="a_node14"><a xlink:href="classDomain_1_1Mappings_1_1StudentMappings.html" target="_top" xlink:title=" ">
<polygon fill="none" stroke="black" points="87,-76.5 87,-95.5 280,-95.5 280,-76.5 87,-76.5"/>
<text text-anchor="middle" x="183.5" y="-83.5" font-family="Helvetica,sans-Serif" font-size="10.00">Domain.Mappings.StudentMappings</text>
</a>
</g>
</g>
<!-- Node510&#45;&gt;Node523 -->
<g id="edge13" class="edge">
<title>Node510&#45;&gt;Node523</title>
<path fill="none" stroke="midnightblue" d="M23.69,-296.04C23.16,-254.18 28.26,-156.87 83,-106 87.52,-101.8 92.66,-98.38 98.17,-95.6"/>
<polygon fill="midnightblue" stroke="midnightblue" points="20.2,-296.39 23.95,-306.3 27.2,-296.21 20.2,-296.39"/>
</g>
<!-- Node524 -->
<g id="node15" class="node">
<title>Node524</title>
<g id="a_node15"><a xlink:href="classDomain_1_1Mappings_1_1SubAreaMappings.html" target="_top" xlink:title=" ">
<polygon fill="none" stroke="black" points="85.5,-38.5 85.5,-57.5 281.5,-57.5 281.5,-38.5 85.5,-38.5"/>
<text text-anchor="middle" x="183.5" y="-45.5" font-family="Helvetica,sans-Serif" font-size="10.00">Domain.Mappings.SubAreaMappings</text>
</a>
</g>
</g>
<!-- Node510&#45;&gt;Node524 -->
<g id="edge14" class="edge">
<title>Node510&#45;&gt;Node524</title>
<path fill="none" stroke="midnightblue" d="M26.4,-296.2C31.92,-243.03 49.7,-98.92 83,-67 86.81,-63.35 91.09,-60.29 95.68,-57.74"/>
<polygon fill="midnightblue" stroke="midnightblue" points="22.9,-296.06 25.38,-306.36 29.86,-296.76 22.9,-296.06"/>
</g>
<!-- Node525 -->
<g id="node16" class="node">
<title>Node525</title>
<g id="a_node16"><a xlink:href="classDomain_1_1Mappings_1_1UserMappings.html" target="_top" xlink:title=" ">
<polygon fill="none" stroke="black" points="94.5,-0.5 94.5,-19.5 272.5,-19.5 272.5,-0.5 94.5,-0.5"/>
<text text-anchor="middle" x="183.5" y="-7.5" font-family="Helvetica,sans-Serif" font-size="10.00">Domain.Mappings.UserMappings</text>
</a>
</g>
</g>
<!-- Node510&#45;&gt;Node525 -->
<g id="edge15" class="edge">
<title>Node510&#45;&gt;Node525</title>
<path fill="none" stroke="midnightblue" d="M25.73,-296.35C29.78,-237.88 44.76,-66.77 83,-29 86.75,-25.29 90.99,-22.19 95.56,-19.61"/>
<polygon fill="midnightblue" stroke="midnightblue" points="22.22,-296.26 25.06,-306.46 29.21,-296.72 22.22,-296.26"/>
</g>
</g>
</svg>
