<?xml version="1.0" encoding="UTF-8" standalone="no"?>
<!DOCTYPE svg PUBLIC "-//W3C//DTD SVG 1.1//EN"
 "http://www.w3.org/Graphics/SVG/1.1/DTD/svg11.dtd">
<!-- Generated by graphviz version 2.43.0 (0)
 -->
<!-- Title: Representação gráfica da hiearquia da classe Pages: 1 -->
<svg width="566pt" height="50pt"
 viewBox="0.00 0.00 566.00 50.00" xmlns="http://www.w3.org/2000/svg" xmlns:xlink="http://www.w3.org/1999/xlink">
<g id="graph0" class="graph" transform="scale(1 1) rotate(0) translate(4 46)">
<title>Representação gráfica da hiearquia da classe</title>
<!-- Node0 -->
<g id="node1" class="node">
<title>Node0</title>
<g id="a_node1"><a xlink:href="interfaceDomain_1_1Interfaces_1_1Repositories_1_1Bases_1_1IGenericCRUDRepository.html" target="_top" xlink:title=" ">
<polygon fill="none" stroke="black" points="0,-0.5 0,-41.5 173,-41.5 173,-0.5 0,-0.5"/>
<text text-anchor="start" x="8" y="-29.5" font-family="Helvetica,sans-Serif" font-size="10.00">Domain.Interfaces.Repositories.</text>
<text text-anchor="start" x="8" y="-18.5" font-family="Helvetica,sans-Serif" font-size="10.00">Bases.IGenericCRUDRepository</text>
<text text-anchor="middle" x="86.5" y="-7.5" font-family="Helvetica,sans-Serif" font-size="10.00">&lt; MainArea &gt;</text>
</a>
</g>
</g>
<!-- Node1 -->
<g id="node2" class="node">
<title>Node1</title>
<g id="a_node2"><a xlink:href="interfaceDomain_1_1Interfaces_1_1Repositories_1_1IMainAreaRepository.html" target="_top" xlink:title=" ">
<polygon fill="none" stroke="black" points="209,-6 209,-36 382,-36 382,-6 209,-6"/>
<text text-anchor="start" x="217" y="-24" font-family="Helvetica,sans-Serif" font-size="10.00">Domain.Interfaces.Repositories.</text>
<text text-anchor="middle" x="295.5" y="-13" font-family="Helvetica,sans-Serif" font-size="10.00">IMainAreaRepository</text>
</a>
</g>
</g>
<!-- Node0&#45;&gt;Node1 -->
<g id="edge1" class="edge">
<title>Node0&#45;&gt;Node1</title>
<path fill="none" stroke="midnightblue" d="M183.2,-21C191.76,-21 200.4,-21 208.88,-21"/>
<polygon fill="midnightblue" stroke="midnightblue" points="183.19,-17.5 173.19,-21 183.19,-24.5 183.19,-17.5"/>
</g>
<!-- Node2 -->
<g id="node3" class="node">
<title>Node2</title>
<g id="a_node3"><a xlink:href="classPersistence_1_1Repositories_1_1MainAreaRepository.html" target="_top" xlink:title=" ">
<polygon fill="none" stroke="black" points="418,-6 418,-36 558,-36 558,-6 418,-6"/>
<text text-anchor="start" x="426" y="-24" font-family="Helvetica,sans-Serif" font-size="10.00">Persistence.Repositories.</text>
<text text-anchor="middle" x="488" y="-13" font-family="Helvetica,sans-Serif" font-size="10.00">MainAreaRepository</text>
</a>
</g>
</g>
<!-- Node1&#45;&gt;Node2 -->
<g id="edge2" class="edge">
<title>Node1&#45;&gt;Node2</title>
<path fill="none" stroke="midnightblue" d="M392.39,-21C401.02,-21 409.64,-21 417.97,-21"/>
<polygon fill="midnightblue" stroke="midnightblue" points="392.28,-17.5 382.28,-21 392.28,-24.5 392.28,-17.5"/>
</g>
</g>
</svg>
