<?xml version="1.0" encoding="UTF-8" standalone="no"?>
<!DOCTYPE svg PUBLIC "-//W3C//DTD SVG 1.1//EN"
 "http://www.w3.org/Graphics/SVG/1.1/DTD/svg11.dtd">
<!-- Generated by graphviz version 2.43.0 (0)
 -->
<!-- Title: Representação gráfica da hiearquia da classe Pages: 1 -->
<svg width="345pt" height="186pt"
 viewBox="0.00 0.00 345.00 186.00" xmlns="http://www.w3.org/2000/svg" xmlns:xlink="http://www.w3.org/1999/xlink">
<g id="graph0" class="graph" transform="scale(1 1) rotate(0) translate(4 182)">
<title>Representação gráfica da hiearquia da classe</title>
<!-- Node0 -->
<g id="node1" class="node">
<title>Node0</title>
<g id="a_node1"><a xlink:href="classApplication_1_1Ports_1_1Student_1_1BaseStudentContract.html" target="_top" xlink:title=" ">
<polygon fill="none" stroke="black" points="0,-73.5 0,-103.5 143,-103.5 143,-73.5 0,-73.5"/>
<text text-anchor="start" x="8" y="-91.5" font-family="Helvetica,sans-Serif" font-size="10.00">Application.Ports.Student.</text>
<text text-anchor="middle" x="71.5" y="-80.5" font-family="Helvetica,sans-Serif" font-size="10.00">BaseStudentContract</text>
</a>
</g>
</g>
<!-- Node1 -->
<g id="node2" class="node">
<title>Node1</title>
<g id="a_node2"><a xlink:href="classApplication_1_1Ports_1_1Student_1_1CreateStudentInput.html" target="_top" xlink:title=" ">
<polygon fill="none" stroke="black" points="186.5,-147.5 186.5,-177.5 329.5,-177.5 329.5,-147.5 186.5,-147.5"/>
<text text-anchor="start" x="194.5" y="-165.5" font-family="Helvetica,sans-Serif" font-size="10.00">Application.Ports.Student.</text>
<text text-anchor="middle" x="258" y="-154.5" font-family="Helvetica,sans-Serif" font-size="10.00">CreateStudentInput</text>
</a>
</g>
</g>
<!-- Node0&#45;&gt;Node1 -->
<g id="edge1" class="edge">
<title>Node0&#45;&gt;Node1</title>
<path fill="none" stroke="midnightblue" d="M110.95,-108.15C130.95,-117.96 155.97,-129.6 179,-138.5 187.19,-141.67 195.99,-144.71 204.63,-147.5"/>
<polygon fill="midnightblue" stroke="midnightblue" points="112.37,-104.95 101.85,-103.65 109.26,-111.22 112.37,-104.95"/>
</g>
<!-- Node2 -->
<g id="node3" class="node">
<title>Node2</title>
<g id="a_node3"><a xlink:href="classApplication_1_1Ports_1_1Student_1_1DetailedReadStudentOutput.html" target="_top" xlink:title=" ">
<polygon fill="none" stroke="black" points="181.5,-98.5 181.5,-128.5 334.5,-128.5 334.5,-98.5 181.5,-98.5"/>
<text text-anchor="start" x="189.5" y="-116.5" font-family="Helvetica,sans-Serif" font-size="10.00">Application.Ports.Student.</text>
<text text-anchor="middle" x="258" y="-105.5" font-family="Helvetica,sans-Serif" font-size="10.00">DetailedReadStudentOutput</text>
</a>
</g>
</g>
<!-- Node0&#45;&gt;Node2 -->
<g id="edge2" class="edge">
<title>Node0&#45;&gt;Node2</title>
<path fill="none" stroke="midnightblue" d="M153.11,-99.42C162.47,-100.69 171.99,-101.98 181.28,-103.24"/>
<polygon fill="midnightblue" stroke="midnightblue" points="153.42,-95.93 143.04,-98.06 152.48,-102.87 153.42,-95.93"/>
</g>
<!-- Node3 -->
<g id="node4" class="node">
<title>Node3</title>
<g id="a_node4"><a xlink:href="classApplication_1_1Ports_1_1Student_1_1ResumedReadStudentOutput.html" target="_top" xlink:title=" ">
<polygon fill="none" stroke="black" points="179,-49.5 179,-79.5 337,-79.5 337,-49.5 179,-49.5"/>
<text text-anchor="start" x="187" y="-67.5" font-family="Helvetica,sans-Serif" font-size="10.00">Application.Ports.Student.</text>
<text text-anchor="middle" x="258" y="-56.5" font-family="Helvetica,sans-Serif" font-size="10.00">ResumedReadStudentOutput</text>
</a>
</g>
</g>
<!-- Node0&#45;&gt;Node3 -->
<g id="edge3" class="edge">
<title>Node0&#45;&gt;Node3</title>
<path fill="none" stroke="midnightblue" d="M153.01,-78.03C161.57,-76.91 170.27,-75.78 178.81,-74.67"/>
<polygon fill="midnightblue" stroke="midnightblue" points="152.51,-74.56 143.04,-79.32 153.41,-81.5 152.51,-74.56"/>
</g>
<!-- Node4 -->
<g id="node5" class="node">
<title>Node4</title>
<g id="a_node5"><a xlink:href="classApplication_1_1Ports_1_1Student_1_1UpdateStudentInput.html" target="_top" xlink:title=" ">
<polygon fill="none" stroke="black" points="186.5,-0.5 186.5,-30.5 329.5,-30.5 329.5,-0.5 186.5,-0.5"/>
<text text-anchor="start" x="194.5" y="-18.5" font-family="Helvetica,sans-Serif" font-size="10.00">Application.Ports.Student.</text>
<text text-anchor="middle" x="258" y="-7.5" font-family="Helvetica,sans-Serif" font-size="10.00">UpdateStudentInput</text>
</a>
</g>
</g>
<!-- Node0&#45;&gt;Node4 -->
<g id="edge4" class="edge">
<title>Node0&#45;&gt;Node4</title>
<path fill="none" stroke="midnightblue" d="M112.64,-69.11C132.4,-59.9 156.71,-49.06 179,-40.5 188.03,-37.03 197.76,-33.64 207.19,-30.53"/>
<polygon fill="midnightblue" stroke="midnightblue" points="110.89,-66.07 103.33,-73.49 113.87,-72.4 110.89,-66.07"/>
</g>
</g>
</svg>
