<?xml version="1.0" encoding="UTF-8" standalone="no"?>
<!DOCTYPE svg PUBLIC "-//W3C//DTD SVG 1.1//EN"
 "http://www.w3.org/Graphics/SVG/1.1/DTD/svg11.dtd">
<!-- Generated by graphviz version 2.43.0 (0)
 -->
<!-- Title: Representação gráfica da hiearquia da classe Pages: 1 -->
<svg width="424pt" height="186pt"
 viewBox="0.00 0.00 424.00 186.00" xmlns="http://www.w3.org/2000/svg" xmlns:xlink="http://www.w3.org/1999/xlink">
<g id="graph0" class="graph" transform="scale(1 1) rotate(0) translate(4 182)">
<title>Representação gráfica da hiearquia da classe</title>
<!-- Node0 -->
<g id="node1" class="node">
<title>Node0</title>
<g id="a_node1"><a xlink:href="classApplication_1_1Ports_1_1ProgramType_1_1BaseProgramTypeContract.html" target="_top" xlink:title=" ">
<polygon fill="none" stroke="black" points="0,-73.5 0,-103.5 171,-103.5 171,-73.5 0,-73.5"/>
<text text-anchor="start" x="8" y="-91.5" font-family="Helvetica,sans-Serif" font-size="10.00">Application.Ports.Program</text>
<text text-anchor="middle" x="85.5" y="-80.5" font-family="Helvetica,sans-Serif" font-size="10.00">Type.BaseProgramTypeContract</text>
</a>
</g>
</g>
<!-- Node1 -->
<g id="node2" class="node">
<title>Node1</title>
<g id="a_node2"><a xlink:href="classApplication_1_1Ports_1_1ProgramType_1_1CreateProgramTypeInput.html" target="_top" xlink:title=" ">
<polygon fill="none" stroke="black" points="230,-147.5 230,-177.5 393,-177.5 393,-147.5 230,-147.5"/>
<text text-anchor="start" x="238" y="-165.5" font-family="Helvetica,sans-Serif" font-size="10.00">Application.Ports.Program</text>
<text text-anchor="middle" x="311.5" y="-154.5" font-family="Helvetica,sans-Serif" font-size="10.00">Type.CreateProgramTypeInput</text>
</a>
</g>
</g>
<!-- Node0&#45;&gt;Node1 -->
<g id="edge1" class="edge">
<title>Node0&#45;&gt;Node1</title>
<path fill="none" stroke="midnightblue" d="M128.11,-107.76C151.03,-117.87 180.2,-129.9 207,-138.5 217.1,-141.74 227.88,-144.74 238.53,-147.43"/>
<polygon fill="midnightblue" stroke="midnightblue" points="129.25,-104.44 118.69,-103.57 126.4,-110.83 129.25,-104.44"/>
</g>
<!-- Node2 -->
<g id="node3" class="node">
<title>Node2</title>
<g id="a_node3"><a xlink:href="classApplication_1_1Ports_1_1ProgramType_1_1DetailedReadProgramTypeOutput.html" target="_top" xlink:title=" ">
<polygon fill="none" stroke="black" points="209,-98.5 209,-128.5 414,-128.5 414,-98.5 209,-98.5"/>
<text text-anchor="start" x="217" y="-116.5" font-family="Helvetica,sans-Serif" font-size="10.00">Application.Ports.Program</text>
<text text-anchor="middle" x="311.5" y="-105.5" font-family="Helvetica,sans-Serif" font-size="10.00">Type.DetailedReadProgramTypeOutput</text>
</a>
</g>
</g>
<!-- Node0&#45;&gt;Node2 -->
<g id="edge2" class="edge">
<title>Node0&#45;&gt;Node2</title>
<path fill="none" stroke="midnightblue" d="M181.34,-99.08C190.4,-100.1 199.61,-101.12 208.74,-102.14"/>
<polygon fill="midnightblue" stroke="midnightblue" points="181.51,-95.58 171.18,-97.95 180.73,-102.54 181.51,-95.58"/>
</g>
<!-- Node3 -->
<g id="node4" class="node">
<title>Node3</title>
<g id="a_node4"><a xlink:href="classApplication_1_1Ports_1_1ProgramType_1_1ResumedReadProgramTypeOutput.html" target="_top" xlink:title=" ">
<polygon fill="none" stroke="black" points="207,-49.5 207,-79.5 416,-79.5 416,-49.5 207,-49.5"/>
<text text-anchor="start" x="215" y="-67.5" font-family="Helvetica,sans-Serif" font-size="10.00">Application.Ports.Program</text>
<text text-anchor="middle" x="311.5" y="-56.5" font-family="Helvetica,sans-Serif" font-size="10.00">Type.ResumedReadProgramTypeOutput</text>
</a>
</g>
</g>
<!-- Node0&#45;&gt;Node3 -->
<g id="edge3" class="edge">
<title>Node0&#45;&gt;Node3</title>
<path fill="none" stroke="midnightblue" d="M181.38,-78.33C189.8,-77.43 198.35,-76.52 206.83,-75.61"/>
<polygon fill="midnightblue" stroke="midnightblue" points="180.75,-74.88 171.18,-79.43 181.5,-81.84 180.75,-74.88"/>
</g>
<!-- Node4 -->
<g id="node5" class="node">
<title>Node4</title>
<g id="a_node5"><a xlink:href="classApplication_1_1Ports_1_1ProgramType_1_1UpdateProgramTypeInput.html" target="_top" xlink:title=" ">
<polygon fill="none" stroke="black" points="228.5,-0.5 228.5,-30.5 394.5,-30.5 394.5,-0.5 228.5,-0.5"/>
<text text-anchor="start" x="236.5" y="-18.5" font-family="Helvetica,sans-Serif" font-size="10.00">Application.Ports.Program</text>
<text text-anchor="middle" x="311.5" y="-7.5" font-family="Helvetica,sans-Serif" font-size="10.00">Type.UpdateProgramTypeInput</text>
</a>
</g>
</g>
<!-- Node0&#45;&gt;Node4 -->
<g id="edge4" class="edge">
<title>Node0&#45;&gt;Node4</title>
<path fill="none" stroke="midnightblue" d="M129.92,-69.47C152.61,-59.97 180.99,-48.77 207,-40.5 218.27,-36.91 230.38,-33.56 242.2,-30.54"/>
<polygon fill="midnightblue" stroke="midnightblue" points="128.42,-66.3 120.57,-73.42 131.14,-72.75 128.42,-66.3"/>
</g>
</g>
</svg>
