<?xml version="1.0" encoding="UTF-8" standalone="no"?>
<!DOCTYPE svg PUBLIC "-//W3C//DTD SVG 1.1//EN"
 "http://www.w3.org/Graphics/SVG/1.1/DTD/svg11.dtd">
<!-- Generated by graphviz version 2.43.0 (0)
 -->
<!-- Title: Application.Interfaces.UseCases.Area.IDeleteArea.ExecuteAsync Pages: 1 -->
<svg width="501pt" height="122pt"
 viewBox="0.00 0.00 501.00 121.50" xmlns="http://www.w3.org/2000/svg" xmlns:xlink="http://www.w3.org/1999/xlink">
<g id="graph0" class="graph" transform="scale(1 1) rotate(0) translate(4 117.5)">
<title>Application.Interfaces.UseCases.Area.IDeleteArea.ExecuteAsync</title>
<!-- Node1 -->
<g id="node1" class="node">
<title>Node1</title>
<g id="a_node1"><a xlink:title=" ">
<polygon fill="#bfbfbf" stroke="black" points="290,-39 290,-69 493,-69 493,-39 290,-39"/>
<text text-anchor="start" x="298" y="-57" font-family="Helvetica,sans-Serif" font-size="10.00">Application.Interfaces.Use</text>
<text text-anchor="middle" x="391.5" y="-46" font-family="Helvetica,sans-Serif" font-size="10.00">Cases.Area.IDeleteArea.ExecuteAsync</text>
</a>
</g>
</g>
<!-- Node2 -->
<g id="node2" class="node">
<title>Node2</title>
<g id="a_node2"><a xlink:href="classApplication_1_1Tests_1_1UseCases_1_1Area_1_1DeleteAreaTests.html#a805b003013b014acb5387ed37fbc6854" target="_top" xlink:title=" ">
<polygon fill="none" stroke="black" points="22.5,-61 22.5,-113 231.5,-113 231.5,-61 22.5,-61"/>
<text text-anchor="start" x="30.5" y="-101" font-family="Helvetica,sans-Serif" font-size="10.00">Application.Tests.UseCases.</text>
<text text-anchor="start" x="30.5" y="-90" font-family="Helvetica,sans-Serif" font-size="10.00">Area.DeleteAreaTests.Execute</text>
<text text-anchor="start" x="30.5" y="-79" font-family="Helvetica,sans-Serif" font-size="10.00">_WithNullId_ShouldThrowArgumentNull</text>
<text text-anchor="middle" x="127" y="-68" font-family="Helvetica,sans-Serif" font-size="10.00">Exception</text>
</a>
</g>
</g>
<!-- Node1&#45;&gt;Node2 -->
<g id="edge1" class="edge">
<title>Node1&#45;&gt;Node2</title>
<path fill="none" stroke="midnightblue" d="M279.4,-67.97C263.52,-69.96 247.24,-72.01 231.51,-73.99"/>
<polygon fill="midnightblue" stroke="midnightblue" points="280.28,-71.38 289.76,-66.66 279.4,-64.44 280.28,-71.38"/>
</g>
<!-- Node3 -->
<g id="node3" class="node">
<title>Node3</title>
<g id="a_node3"><a xlink:href="classApplication_1_1Tests_1_1UseCases_1_1Area_1_1DeleteAreaTests.html#a22b874bd08829aa849357dda81bf08ba" target="_top" xlink:title=" ">
<polygon fill="none" stroke="black" points="0,-0.5 0,-41.5 254,-41.5 254,-0.5 0,-0.5"/>
<text text-anchor="start" x="8" y="-29.5" font-family="Helvetica,sans-Serif" font-size="10.00">Application.Tests.UseCases.</text>
<text text-anchor="start" x="8" y="-18.5" font-family="Helvetica,sans-Serif" font-size="10.00">Area.DeleteAreaTests.Execute</text>
<text text-anchor="middle" x="127" y="-7.5" font-family="Helvetica,sans-Serif" font-size="10.00">_WithValidId_ShouldDeleteAreaAndReturnOutput</text>
</a>
</g>
</g>
<!-- Node1&#45;&gt;Node3 -->
<g id="edge2" class="edge">
<title>Node1&#45;&gt;Node3</title>
<path fill="none" stroke="midnightblue" d="M279.81,-40.08C271.27,-39.01 262.62,-37.92 254,-36.84"/>
<polygon fill="midnightblue" stroke="midnightblue" points="279.4,-43.56 289.76,-41.34 280.28,-36.62 279.4,-43.56"/>
</g>
</g>
</svg>
