<?xml version="1.0" encoding="UTF-8" standalone="no"?>
<!DOCTYPE svg PUBLIC "-//W3C//DTD SVG 1.1//EN"
 "http://www.w3.org/Graphics/SVG/1.1/DTD/svg11.dtd">
<!-- Generated by graphviz version 2.43.0 (0)
 -->
<!-- Title: Application.Interfaces.UseCases.Area.IUpdateArea.ExecuteAsync Pages: 1 -->
<svg width="483pt" height="182pt"
 viewBox="0.00 0.00 483.00 181.50" xmlns="http://www.w3.org/2000/svg" xmlns:xlink="http://www.w3.org/1999/xlink">
<g id="graph0" class="graph" transform="scale(1 1) rotate(0) translate(4 177.5)">
<title>Application.Interfaces.UseCases.Area.IUpdateArea.ExecuteAsync</title>
<!-- Node1 -->
<g id="node1" class="node">
<title>Node1</title>
<g id="a_node1"><a xlink:title=" ">
<polygon fill="#bfbfbf" stroke="black" points="269,-77.5 269,-107.5 475,-107.5 475,-77.5 269,-77.5"/>
<text text-anchor="start" x="277" y="-95.5" font-family="Helvetica,sans-Serif" font-size="10.00">Application.Interfaces.Use</text>
<text text-anchor="middle" x="372" y="-84.5" font-family="Helvetica,sans-Serif" font-size="10.00">Cases.Area.IUpdateArea.ExecuteAsync</text>
</a>
</g>
</g>
<!-- Node2 -->
<g id="node2" class="node">
<title>Node2</title>
<g id="a_node2"><a xlink:href="classApplication_1_1Tests_1_1UseCases_1_1Area_1_1UpdateAreaTests.html#aab9aa16fe244a5e20640a7fae72ef40d" target="_top" xlink:title=" ">
<polygon fill="none" stroke="black" points="2.5,-132 2.5,-173 230.5,-173 230.5,-132 2.5,-132"/>
<text text-anchor="start" x="10.5" y="-161" font-family="Helvetica,sans-Serif" font-size="10.00">Application.Tests.UseCases.</text>
<text text-anchor="start" x="10.5" y="-150" font-family="Helvetica,sans-Serif" font-size="10.00">Area.UpdateAreaTests.Execute</text>
<text text-anchor="middle" x="116.5" y="-139" font-family="Helvetica,sans-Serif" font-size="10.00">_WithNonExistingId_ShouldThrowException</text>
</a>
</g>
</g>
<!-- Node1&#45;&gt;Node2 -->
<g id="edge1" class="edge">
<title>Node1&#45;&gt;Node2</title>
<path fill="none" stroke="midnightblue" d="M297.26,-109.95C268.13,-116.85 234.44,-124.82 204.16,-131.99"/>
<polygon fill="midnightblue" stroke="midnightblue" points="298.43,-113.27 307.36,-107.56 296.82,-106.46 298.43,-113.27"/>
</g>
<!-- Node3 -->
<g id="node3" class="node">
<title>Node3</title>
<g id="a_node3"><a xlink:href="classApplication_1_1Tests_1_1UseCases_1_1Area_1_1UpdateAreaTests.html#a8df8ff7ca0b732291709fdd859051e5c" target="_top" xlink:title=" ">
<polygon fill="none" stroke="black" points="22,-72 22,-113 211,-113 211,-72 22,-72"/>
<text text-anchor="start" x="30" y="-101" font-family="Helvetica,sans-Serif" font-size="10.00">Application.Tests.UseCases.</text>
<text text-anchor="start" x="30" y="-90" font-family="Helvetica,sans-Serif" font-size="10.00">Area.UpdateAreaTests.Execute</text>
<text text-anchor="middle" x="116.5" y="-79" font-family="Helvetica,sans-Serif" font-size="10.00">_WithNullId_ShouldThrowException</text>
</a>
</g>
</g>
<!-- Node1&#45;&gt;Node3 -->
<g id="edge2" class="edge">
<title>Node1&#45;&gt;Node3</title>
<path fill="none" stroke="midnightblue" d="M258.61,-92.5C242.74,-92.5 226.57,-92.5 211.11,-92.5"/>
<polygon fill="midnightblue" stroke="midnightblue" points="258.99,-96 268.99,-92.5 258.99,-89 258.99,-96"/>
</g>
<!-- Node4 -->
<g id="node4" class="node">
<title>Node4</title>
<g id="a_node4"><a xlink:href="classApplication_1_1Tests_1_1UseCases_1_1Area_1_1UpdateAreaTests.html#a1618bb5f5347e090d0356bbcc0784d9d" target="_top" xlink:title=" ">
<polygon fill="none" stroke="black" points="0,-0.5 0,-52.5 233,-52.5 233,-0.5 0,-0.5"/>
<text text-anchor="start" x="8" y="-40.5" font-family="Helvetica,sans-Serif" font-size="10.00">Application.Tests.UseCases.</text>
<text text-anchor="start" x="8" y="-29.5" font-family="Helvetica,sans-Serif" font-size="10.00">Area.UpdateAreaTests.Execute</text>
<text text-anchor="start" x="8" y="-18.5" font-family="Helvetica,sans-Serif" font-size="10.00">_WithValidIdAndInput_ShouldReturnDetailed</text>
<text text-anchor="middle" x="116.5" y="-7.5" font-family="Helvetica,sans-Serif" font-size="10.00">ReadAreaOutput</text>
</a>
</g>
</g>
<!-- Node1&#45;&gt;Node4 -->
<g id="edge3" class="edge">
<title>Node1&#45;&gt;Node4</title>
<path fill="none" stroke="midnightblue" d="M303.28,-74.87C276.92,-68.01 246.17,-60 217.37,-52.5"/>
<polygon fill="midnightblue" stroke="midnightblue" points="302.6,-78.31 313.16,-77.44 304.36,-71.53 302.6,-78.31"/>
</g>
</g>
</svg>
