<?xml version="1.0" encoding="UTF-8" standalone="no"?>
<!DOCTYPE svg PUBLIC "-//W3C//DTD SVG 1.1//EN"
 "http://www.w3.org/Graphics/SVG/1.1/DTD/svg11.dtd">
<!-- Generated by graphviz version 2.43.0 (0)
 -->
<!-- Title: Domain.Interfaces.Services.IStorageFileService Pages: 1 -->
<svg width="340pt" height="95pt"
 viewBox="0.00 0.00 340.00 95.00" xmlns="http://www.w3.org/2000/svg" xmlns:xlink="http://www.w3.org/1999/xlink">
<g id="graph0" class="graph" transform="scale(1 1) rotate(0) translate(4 91)">
<title>Domain.Interfaces.Services.IStorageFileService</title>
<!-- Node1 -->
<g id="node1" class="node">
<title>Node1</title>
<g id="a_node1"><a xlink:title=" ">
<polygon fill="#bfbfbf" stroke="black" points="91,-56.5 91,-86.5 245,-86.5 245,-56.5 91,-56.5"/>
<text text-anchor="start" x="99" y="-74.5" font-family="Helvetica,sans-Serif" font-size="10.00">Domain.Interfaces.Services.</text>
<text text-anchor="middle" x="168" y="-63.5" font-family="Helvetica,sans-Serif" font-size="10.00">IStorageFileService</text>
</a>
</g>
</g>
<!-- Node2 -->
<g id="node2" class="node">
<title>Node2</title>
<g id="a_node2"><a xlink:href="classServices_1_1AzureStorageService.html" target="_top" xlink:title=" ">
<polygon fill="none" stroke="black" points="0,-0.5 0,-19.5 162,-19.5 162,-0.5 0,-0.5"/>
<text text-anchor="middle" x="81" y="-7.5" font-family="Helvetica,sans-Serif" font-size="10.00">Services.AzureStorageService</text>
</a>
</g>
</g>
<!-- Node1&#45;&gt;Node2 -->
<g id="edge1" class="edge">
<title>Node1&#45;&gt;Node2</title>
<path fill="none" stroke="midnightblue" d="M138.73,-50.48C123.41,-40 105.43,-27.71 93.66,-19.66"/>
<polygon fill="midnightblue" stroke="midnightblue" points="137.15,-53.64 147.38,-56.4 141.1,-47.87 137.15,-53.64"/>
</g>
<!-- Node3 -->
<g id="node3" class="node">
<title>Node3</title>
<g id="a_node3"><a xlink:href="classServices_1_1StorageFileService.html" target="_top" xlink:title=" ">
<polygon fill="none" stroke="black" points="180,-0.5 180,-19.5 332,-19.5 332,-0.5 180,-0.5"/>
<text text-anchor="middle" x="256" y="-7.5" font-family="Helvetica,sans-Serif" font-size="10.00">Services.StorageFileService</text>
</a>
</g>
</g>
<!-- Node1&#45;&gt;Node3 -->
<g id="edge2" class="edge">
<title>Node1&#45;&gt;Node3</title>
<path fill="none" stroke="midnightblue" d="M197.17,-50.78C212.77,-40.23 231.18,-27.78 243.2,-19.66"/>
<polygon fill="midnightblue" stroke="midnightblue" points="195.18,-47.9 188.85,-56.4 199.1,-53.7 195.18,-47.9"/>
</g>
</g>
</svg>
