<?xml version="1.0" encoding="UTF-8" standalone="no"?>
<!DOCTYPE svg PUBLIC "-//W3C//DTD SVG 1.1//EN"
 "http://www.w3.org/Graphics/SVG/1.1/DTD/svg11.dtd">
<!-- Generated by graphviz version 9.0.0 (20230911.1827)
 -->
<!-- Title: Application.Interfaces.UseCases.Area.ICreateArea.ExecuteAsync Pages: 1 -->
<svg width="465pt" height="230pt"
 viewBox="0.00 0.00 464.50 229.75" xmlns="http://www.w3.org/2000/svg" xmlns:xlink="http://www.w3.org/1999/xlink">
<g id="graph0" class="graph" transform="scale(1 1) rotate(0) translate(4 225.75)">
<title>Application.Interfaces.UseCases.Area.ICreateArea.ExecuteAsync</title>
<!-- Node1 -->
<g id="Node000001" class="node">
<title>Node1</title>
<g id="a_Node000001"><a xlink:title=" ">
<polygon fill="#999999" stroke="#666666" points="456.5,-126.12 266.5,-126.12 266.5,-95.62 456.5,-95.62 456.5,-126.12"/>
<text text-anchor="start" x="274.5" y="-112.62" font-family="Helvetica,sans-Serif" font-size="10.00">Application.Interfaces.Use</text>
<text text-anchor="middle" x="361.5" y="-101.38" font-family="Helvetica,sans-Serif" font-size="10.00">Cases.Area.ICreateArea.ExecuteAsync</text>
</a>
</g>
</g>
<!-- Node2 -->
<g id="Node000002" class="node">
<title>Node2</title>
<g id="a_Node000002"><a xlink:href="class_application_1_1_tests_1_1_use_cases_1_1_area_1_1_create_area_tests.html#af78bb435aaadd80ac756b9485fda65d1" target="_top" xlink:title=" ">
<polygon fill="white" stroke="#666666" points="218.12,-221.75 12.38,-221.75 12.38,-180 218.12,-180 218.12,-221.75"/>
<text text-anchor="start" x="20.38" y="-208.25" font-family="Helvetica,sans-Serif" font-size="10.00">Application.Tests.UseCases.</text>
<text text-anchor="start" x="20.38" y="-197" font-family="Helvetica,sans-Serif" font-size="10.00">Area.CreateAreaTests.Execute</text>
<text text-anchor="middle" x="115.25" y="-185.75" font-family="Helvetica,sans-Serif" font-size="10.00">_WithExistingCode_ShouldThrowException</text>
</a>
</g>
</g>
<!-- Node1&#45;&gt;Node2 -->
<g id="edge1_Node000001_Node000002" class="edge">
<title>Node1&#45;&gt;Node2</title>
<g id="a_edge1_Node000001_Node000002"><a xlink:title=" ">
<path fill="none" stroke="#63b8ff" d="M320.44,-131.59C295.12,-144.12 261.45,-159.77 230.5,-170.88 222.01,-173.92 213.06,-176.81 204.06,-179.5"/>
<polygon fill="#63b8ff" stroke="#63b8ff" points="321.67,-134.89 329.05,-127.28 318.54,-128.63 321.67,-134.89"/>
</a>
</g>
</g>
<!-- Node3 -->
<g id="Node000003" class="node">
<title>Node3</title>
<g id="a_Node000003"><a xlink:href="class_application_1_1_tests_1_1_use_cases_1_1_area_1_1_create_area_tests.html#a32e9e5f879b5e63a7fbfa04c0bf354a8" target="_top" xlink:title=" ">
<polygon fill="white" stroke="#666666" points="226.75,-161.75 3.75,-161.75 3.75,-120 226.75,-120 226.75,-161.75"/>
<text text-anchor="start" x="11.75" y="-148.25" font-family="Helvetica,sans-Serif" font-size="10.00">Application.Tests.UseCases.</text>
<text text-anchor="start" x="11.75" y="-137" font-family="Helvetica,sans-Serif" font-size="10.00">Area.CreateAreaTests.Execute</text>
<text text-anchor="middle" x="115.25" y="-125.75" font-family="Helvetica,sans-Serif" font-size="10.00">_WithInactiveMainArea_ShouldThrowException</text>
</a>
</g>
</g>
<!-- Node1&#45;&gt;Node3 -->
<g id="edge2_Node000001_Node000003" class="edge">
<title>Node1&#45;&gt;Node3</title>
<g id="a_edge2_Node000001_Node000003"><a xlink:title=" ">
<path fill="none" stroke="#63b8ff" d="M254.92,-123.84C245.71,-124.97 236.38,-126.12 227.13,-127.26"/>
<polygon fill="#63b8ff" stroke="#63b8ff" points="255.07,-127.35 264.56,-122.66 254.21,-120.4 255.07,-127.35"/>
</a>
</g>
</g>
<!-- Node4 -->
<g id="Node000004" class="node">
<title>Node4</title>
<g id="a_Node000004"><a xlink:href="class_application_1_1_tests_1_1_use_cases_1_1_area_1_1_create_area_tests.html#a4aaff4cb86064e4eacc8c0aa59609b6c" target="_top" xlink:title=" ">
<polygon fill="white" stroke="#666666" points="230.5,-101.75 0,-101.75 0,-60 230.5,-60 230.5,-101.75"/>
<text text-anchor="start" x="8" y="-88.25" font-family="Helvetica,sans-Serif" font-size="10.00">Application.Tests.UseCases.</text>
<text text-anchor="start" x="8" y="-77" font-family="Helvetica,sans-Serif" font-size="10.00">Area.CreateAreaTests.Execute</text>
<text text-anchor="middle" x="115.25" y="-65.75" font-family="Helvetica,sans-Serif" font-size="10.00">_WithMissingMainAreaId_ShouldThrowException</text>
</a>
</g>
</g>
<!-- Node1&#45;&gt;Node4 -->
<g id="edge3_Node000001_Node000004" class="edge">
<title>Node1&#45;&gt;Node4</title>
<g id="a_edge3_Node000001_Node000004"><a xlink:title=" ">
<path fill="none" stroke="#63b8ff" d="M254.88,-97.9C246.91,-96.92 238.85,-95.93 230.83,-94.95"/>
<polygon fill="#63b8ff" stroke="#63b8ff" points="254.21,-101.35 264.56,-99.09 255.07,-94.4 254.21,-101.35"/>
</a>
</g>
</g>
<!-- Node5 -->
<g id="Node000005" class="node">
<title>Node5</title>
<g id="a_Node000005"><a xlink:href="class_application_1_1_tests_1_1_use_cases_1_1_area_1_1_create_area_tests.html#a7b16076b303ab8e53d00630d47c743a6" target="_top" xlink:title=" ">
<polygon fill="white" stroke="#666666" points="199.75,-41.75 30.75,-41.75 30.75,0 199.75,0 199.75,-41.75"/>
<text text-anchor="start" x="38.75" y="-28.25" font-family="Helvetica,sans-Serif" font-size="10.00">Application.Tests.UseCases.</text>
<text text-anchor="start" x="38.75" y="-17" font-family="Helvetica,sans-Serif" font-size="10.00">Area.CreateAreaTests.Execute</text>
<text text-anchor="middle" x="115.25" y="-5.75" font-family="Helvetica,sans-Serif" font-size="10.00">_WithValidInput_ShouldCreateArea</text>
</a>
</g>
</g>
<!-- Node1&#45;&gt;Node5 -->
<g id="edge4_Node000001_Node000005" class="edge">
<title>Node1&#45;&gt;Node5</title>
<g id="a_edge4_Node000001_Node000005"><a xlink:title=" ">
<path fill="none" stroke="#63b8ff" d="M320.44,-90.16C295.12,-77.63 261.45,-61.98 230.5,-50.88 220.75,-47.38 210.4,-44.09 200.07,-41.07"/>
<polygon fill="#63b8ff" stroke="#63b8ff" points="318.54,-93.12 329.05,-94.47 321.67,-86.86 318.54,-93.12"/>
</a>
</g>
</g>
</g>
</svg>
