<?xml version="1.0" encoding="UTF-8" standalone="no"?>
<!DOCTYPE svg PUBLIC "-//W3C//DTD SVG 1.1//EN"
 "http://www.w3.org/Graphics/SVG/1.1/DTD/svg11.dtd">
<!-- Generated by graphviz version 2.43.0 (0)
 -->
<!-- Title: Application.Interfaces.UseCases.Area.ICreateArea.ExecuteAsync Pages: 1 -->
<svg width="501pt" height="230pt"
 viewBox="0.00 0.00 501.00 230.00" xmlns="http://www.w3.org/2000/svg" xmlns:xlink="http://www.w3.org/1999/xlink">
<g id="graph0" class="graph" transform="scale(1 1) rotate(0) translate(4 226)">
<title>Application.Interfaces.UseCases.Area.ICreateArea.ExecuteAsync</title>
<!-- Node1 -->
<g id="node1" class="node">
<title>Node1</title>
<g id="a_node1"><a xlink:title=" ">
<polygon fill="#bfbfbf" stroke="black" points="290,-96 290,-126 493,-126 493,-96 290,-96"/>
<text text-anchor="start" x="298" y="-114" font-family="Helvetica,sans-Serif" font-size="10.00">Application.Interfaces.Use</text>
<text text-anchor="middle" x="391.5" y="-103" font-family="Helvetica,sans-Serif" font-size="10.00">Cases.Area.ICreateArea.ExecuteAsync</text>
</a>
</g>
</g>
<!-- Node2 -->
<g id="node2" class="node">
<title>Node2</title>
<g id="a_node2"><a xlink:href="classApplication_1_1Tests_1_1UseCases_1_1Area_1_1CreateAreaTests.html#af78bb435aaadd80ac756b9485fda65d1" target="_top" xlink:title=" ">
<polygon fill="none" stroke="black" points="15,-180.5 15,-221.5 239,-221.5 239,-180.5 15,-180.5"/>
<text text-anchor="start" x="23" y="-209.5" font-family="Helvetica,sans-Serif" font-size="10.00">Application.Tests.UseCases.</text>
<text text-anchor="start" x="23" y="-198.5" font-family="Helvetica,sans-Serif" font-size="10.00">Area.CreateAreaTests.Execute</text>
<text text-anchor="middle" x="127" y="-187.5" font-family="Helvetica,sans-Serif" font-size="10.00">_WithExistingCode_ShouldThrowException</text>
</a>
</g>
</g>
<!-- Node1&#45;&gt;Node2 -->
<g id="edge1" class="edge">
<title>Node1&#45;&gt;Node2</title>
<path fill="none" stroke="midnightblue" d="M351.41,-130.44C324.51,-143.25 287.7,-159.69 254,-171 243.87,-174.4 233.17,-177.57 222.45,-180.48"/>
<polygon fill="midnightblue" stroke="midnightblue" points="353,-133.56 360.49,-126.07 349.96,-127.25 353,-133.56"/>
</g>
<!-- Node3 -->
<g id="node3" class="node">
<title>Node3</title>
<g id="a_node3"><a xlink:href="classApplication_1_1Tests_1_1UseCases_1_1Area_1_1CreateAreaTests.html#a32e9e5f879b5e63a7fbfa04c0bf354a8" target="_top" xlink:title=" ">
<polygon fill="none" stroke="black" points="4,-120.5 4,-161.5 250,-161.5 250,-120.5 4,-120.5"/>
<text text-anchor="start" x="12" y="-149.5" font-family="Helvetica,sans-Serif" font-size="10.00">Application.Tests.UseCases.</text>
<text text-anchor="start" x="12" y="-138.5" font-family="Helvetica,sans-Serif" font-size="10.00">Area.CreateAreaTests.Execute</text>
<text text-anchor="middle" x="127" y="-127.5" font-family="Helvetica,sans-Serif" font-size="10.00">_WithInactiveMainArea_ShouldThrowException</text>
</a>
</g>
</g>
<!-- Node1&#45;&gt;Node3 -->
<g id="edge2" class="edge">
<title>Node1&#45;&gt;Node3</title>
<path fill="none" stroke="midnightblue" d="M279.62,-123.67C269.83,-124.79 259.88,-125.93 250,-127.06"/>
<polygon fill="midnightblue" stroke="midnightblue" points="280.22,-127.13 289.76,-122.51 279.43,-120.17 280.22,-127.13"/>
</g>
<!-- Node4 -->
<g id="node4" class="node">
<title>Node4</title>
<g id="a_node4"><a xlink:href="classApplication_1_1Tests_1_1UseCases_1_1Area_1_1CreateAreaTests.html#a4aaff4cb86064e4eacc8c0aa59609b6c" target="_top" xlink:title=" ">
<polygon fill="none" stroke="black" points="0,-60.5 0,-101.5 254,-101.5 254,-60.5 0,-60.5"/>
<text text-anchor="start" x="8" y="-89.5" font-family="Helvetica,sans-Serif" font-size="10.00">Application.Tests.UseCases.</text>
<text text-anchor="start" x="8" y="-78.5" font-family="Helvetica,sans-Serif" font-size="10.00">Area.CreateAreaTests.Execute</text>
<text text-anchor="middle" x="127" y="-67.5" font-family="Helvetica,sans-Serif" font-size="10.00">_WithMissingMainAreaId_ShouldThrowException</text>
</a>
</g>
</g>
<!-- Node1&#45;&gt;Node4 -->
<g id="edge3" class="edge">
<title>Node1&#45;&gt;Node4</title>
<path fill="none" stroke="midnightblue" d="M279.81,-98.35C271.27,-97.37 262.62,-96.39 254,-95.4"/>
<polygon fill="midnightblue" stroke="midnightblue" points="279.43,-101.83 289.76,-99.49 280.22,-94.87 279.43,-101.83"/>
</g>
<!-- Node5 -->
<g id="node5" class="node">
<title>Node5</title>
<g id="a_node5"><a xlink:href="classApplication_1_1Tests_1_1UseCases_1_1Area_1_1CreateAreaTests.html#a7b16076b303ab8e53d00630d47c743a6" target="_top" xlink:title=" ">
<polygon fill="none" stroke="black" points="34,-0.5 34,-41.5 220,-41.5 220,-0.5 34,-0.5"/>
<text text-anchor="start" x="42" y="-29.5" font-family="Helvetica,sans-Serif" font-size="10.00">Application.Tests.UseCases.</text>
<text text-anchor="start" x="42" y="-18.5" font-family="Helvetica,sans-Serif" font-size="10.00">Area.CreateAreaTests.Execute</text>
<text text-anchor="middle" x="127" y="-7.5" font-family="Helvetica,sans-Serif" font-size="10.00">_WithValidInput_ShouldCreateArea</text>
</a>
</g>
</g>
<!-- Node1&#45;&gt;Node5 -->
<g id="edge4" class="edge">
<title>Node1&#45;&gt;Node5</title>
<path fill="none" stroke="midnightblue" d="M351.41,-91.56C324.51,-78.75 287.7,-62.31 254,-51 243.13,-47.35 231.59,-43.96 220.08,-40.88"/>
<polygon fill="midnightblue" stroke="midnightblue" points="349.96,-94.75 360.49,-95.93 353,-88.44 349.96,-94.75"/>
</g>
</g>
</svg>
