<?xml version="1.0" encoding="UTF-8" standalone="no"?>
<!DOCTYPE svg PUBLIC "-//W3C//DTD SVG 1.1//EN"
 "http://www.w3.org/Graphics/SVG/1.1/DTD/svg11.dtd">
<!-- Generated by graphviz version 2.43.0 (0)
 -->
<!-- Title: Application.Interfaces.UseCases.Area.IGetAreaById.ExecuteAsync Pages: 1 -->
<svg width="467pt" height="122pt"
 viewBox="0.00 0.00 467.00 121.50" xmlns="http://www.w3.org/2000/svg" xmlns:xlink="http://www.w3.org/1999/xlink">
<g id="graph0" class="graph" transform="scale(1 1) rotate(0) translate(4 117.5)">
<title>Application.Interfaces.UseCases.Area.IGetAreaById.ExecuteAsync</title>
<!-- Node1 -->
<g id="node1" class="node">
<title>Node1</title>
<g id="a_node1"><a xlink:title=" ">
<polygon fill="#bfbfbf" stroke="black" points="250,-44.5 250,-74.5 459,-74.5 459,-44.5 250,-44.5"/>
<text text-anchor="start" x="258" y="-62.5" font-family="Helvetica,sans-Serif" font-size="10.00">Application.Interfaces.Use</text>
<text text-anchor="middle" x="354.5" y="-51.5" font-family="Helvetica,sans-Serif" font-size="10.00">Cases.Area.IGetAreaById.ExecuteAsync</text>
</a>
</g>
</g>
<!-- Node2 -->
<g id="node2" class="node">
<title>Node2</title>
<g id="a_node2"><a xlink:href="classApplication_1_1Tests_1_1UseCases_1_1Area_1_1GetAreaByIdTests.html#a316e2b401372f5a4fc629880fc81de5c" target="_top" xlink:title=" ">
<polygon fill="none" stroke="black" points="12.5,-72 12.5,-113 201.5,-113 201.5,-72 12.5,-72"/>
<text text-anchor="start" x="20.5" y="-101" font-family="Helvetica,sans-Serif" font-size="10.00">Application.Tests.UseCases.</text>
<text text-anchor="start" x="20.5" y="-90" font-family="Helvetica,sans-Serif" font-size="10.00">Area.GetAreaByIdTests.Execute</text>
<text text-anchor="middle" x="107" y="-79" font-family="Helvetica,sans-Serif" font-size="10.00">_WithNullId_ShouldThrowException</text>
</a>
</g>
</g>
<!-- Node1&#45;&gt;Node2 -->
<g id="edge1" class="edge">
<title>Node1&#45;&gt;Node2</title>
<path fill="none" stroke="midnightblue" d="M239.59,-74.81C226.89,-76.52 214.05,-78.24 201.64,-79.91"/>
<polygon fill="midnightblue" stroke="midnightblue" points="240.3,-78.25 249.74,-73.45 239.36,-71.31 240.3,-78.25"/>
</g>
<!-- Node3 -->
<g id="node3" class="node">
<title>Node3</title>
<g id="a_node3"><a xlink:href="classApplication_1_1Tests_1_1UseCases_1_1Area_1_1GetAreaByIdTests.html#a40c400e38a787b09c14e564c03e7e0bc" target="_top" xlink:title=" ">
<polygon fill="none" stroke="black" points="0,-0.5 0,-52.5 214,-52.5 214,-0.5 0,-0.5"/>
<text text-anchor="start" x="8" y="-40.5" font-family="Helvetica,sans-Serif" font-size="10.00">Application.Tests.UseCases.</text>
<text text-anchor="start" x="8" y="-29.5" font-family="Helvetica,sans-Serif" font-size="10.00">Area.GetAreaByIdTests.Execute</text>
<text text-anchor="start" x="8" y="-18.5" font-family="Helvetica,sans-Serif" font-size="10.00">_WithValidId_ShouldReturnDetailedRead</text>
<text text-anchor="middle" x="107" y="-7.5" font-family="Helvetica,sans-Serif" font-size="10.00">AreaOutput</text>
</a>
</g>
</g>
<!-- Node1&#45;&gt;Node3 -->
<g id="edge2" class="edge">
<title>Node1&#45;&gt;Node3</title>
<path fill="none" stroke="midnightblue" d="M239.76,-44.21C231.22,-43.06 222.63,-41.91 214.14,-40.77"/>
<polygon fill="midnightblue" stroke="midnightblue" points="239.36,-47.69 249.74,-45.55 240.3,-40.75 239.36,-47.69"/>
</g>
</g>
</svg>
