<?xml version="1.0" encoding="UTF-8" standalone="no"?>
<!DOCTYPE svg PUBLIC "-//W3C//DTD SVG 1.1//EN"
 "http://www.w3.org/Graphics/SVG/1.1/DTD/svg11.dtd">
<!-- Generated by graphviz version 9.0.0 (20230911.1827)
 -->
<!-- Title: Domain.Interfaces.Services.IStorageFileService Pages: 1 -->
<svg width="316pt" height="94pt"
 viewBox="0.00 0.00 315.62 93.75" xmlns="http://www.w3.org/2000/svg" xmlns:xlink="http://www.w3.org/1999/xlink">
<g id="graph0" class="graph" transform="scale(1 1) rotate(0) translate(4 89.75)">
<title>Domain.Interfaces.Services.IStorageFileService</title>
<!-- Node1 -->
<g id="Node000001" class="node">
<title>Node1</title>
<g id="a_Node000001"><a xlink:title=" ">
<polygon fill="#999999" stroke="#666666" points="226,-85.75 85.5,-85.75 85.5,-55.25 226,-55.25 226,-85.75"/>
<text text-anchor="start" x="93.5" y="-72.25" font-family="Helvetica,sans-Serif" font-size="10.00">Domain.Interfaces.Services.</text>
<text text-anchor="middle" x="155.75" y="-61" font-family="Helvetica,sans-Serif" font-size="10.00">IStorageFileService</text>
</a>
</g>
</g>
<!-- Node2 -->
<g id="Node000002" class="node">
<title>Node2</title>
<g id="a_Node000002"><a xlink:href="class_services_1_1_azure_storage_service.html" target="_top" xlink:title=" ">
<polygon fill="white" stroke="#666666" points="149.5,-19.25 0,-19.25 0,0 149.5,0 149.5,-19.25"/>
<text text-anchor="middle" x="74.75" y="-5.75" font-family="Helvetica,sans-Serif" font-size="10.00">Services.AzureStorageService</text>
</a>
</g>
</g>
<!-- Node1&#45;&gt;Node2 -->
<g id="edge1_Node000001_Node000002" class="edge">
<title>Node1&#45;&gt;Node2</title>
<g id="a_edge1_Node000001_Node000002"><a xlink:title=" ">
<path fill="none" stroke="#63b8ff" d="M126.72,-48.4C113.17,-38.55 97.74,-27.33 87.24,-19.7"/>
<polygon fill="#63b8ff" stroke="#63b8ff" points="124.36,-51.01 134.5,-54.06 128.47,-45.35 124.36,-51.01"/>
</a>
</g>
</g>
<!-- Node3 -->
<g id="Node000003" class="node">
<title>Node3</title>
<g id="a_Node000003"><a xlink:href="class_services_1_1_storage_file_service.html" target="_top" xlink:title=" ">
<polygon fill="white" stroke="#666666" points="307.62,-19.25 167.88,-19.25 167.88,0 307.62,0 307.62,-19.25"/>
<text text-anchor="middle" x="237.75" y="-5.75" font-family="Helvetica,sans-Serif" font-size="10.00">Services.StorageFileService</text>
</a>
</g>
</g>
<!-- Node1&#45;&gt;Node3 -->
<g id="edge2_Node000001_Node000003" class="edge">
<title>Node1&#45;&gt;Node3</title>
<g id="a_edge2_Node000001_Node000003"><a xlink:title=" ">
<path fill="none" stroke="#63b8ff" d="M185.13,-48.4C198.86,-38.55 214.48,-27.33 225.11,-19.7"/>
<polygon fill="#63b8ff" stroke="#63b8ff" points="183.33,-45.39 177.25,-54.06 187.41,-51.07 183.33,-45.39"/>
</a>
</g>
</g>
</g>
</svg>
