<?xml version="1.0" standalone="no"?>
<!DOCTYPE svg PUBLIC "-//W3C//DTD SVG 20010904//EN"
 "http://www.w3.org/TR/2001/REC-SVG-20010904/DTD/svg10.dtd">
<svg version="1.0" xmlns="http://www.w3.org/2000/svg"
 width="1026.000000pt" height="986.000000pt" viewBox="0 0 1026.000000 986.000000"
 preserveAspectRatio="xMidYMid meet">

<g transform="translate(0.000000,986.000000) scale(0.100000,-0.100000)"
fill="#0f4098" stroke="none">
<path d="M4743 9504 c-180 -11 -229 -18 -435 -65 -701 -156 -1143 -342 -1708
-719 -361 -241 -587 -452 -976 -910 -281 -330 -540 -764 -680 -1137 -91 -242
-196 -596 -263 -883 -59 -258 -71 -399 -71 -872 0 -475 12 -628 71 -898 118
-534 267 -947 477 -1320 255 -453 512 -790 823 -1080 394 -368 700 -594 1073
-794 317 -170 759 -323 1286 -444 192 -45 235 -51 405 -61 243 -14 685 -14
930 0 170 9 216 16 435 64 689 152 1153 347 1710 718 356 238 580 448 983 922
165 194 374 505 504 750 162 306 313 745 432 1255 60 262 71 393 71 887 0 484
-10 609 -71 888 -116 527 -267 947 -474 1315 -253 452 -517 799 -823 1082
-436 402 -698 597 -1072 796 -319 169 -731 313 -1255 438 -220 52 -240 55
-465 69 -279 18 -628 17 -907 -1z m902 -149 c239 -16 219 -12 769 -147 287
-70 290 -71 486 -163 624 -292 1103 -609 1441 -952 667 -676 1008 -1307 1245
-2305 52 -217 55 -237 69 -465 19 -303 19 -549 0 -835 -16 -247 -13 -229 -142
-753 -75 -307 -77 -312 -166 -505 -191 -415 -424 -806 -666 -1118 -220 -284
-579 -620 -936 -877 -435 -313 -982 -541 -1685 -703 -190 -45 -236 -51 -400
-61 -238 -14 -694 -14 -914 0 -151 10 -200 18 -426 71 -558 130 -589 139 -798
237 -436 204 -794 416 -1105 655 -286 220 -633 592 -899 966 -303 425 -524
957 -687 1650 -48 204 -51 227 -66 463 -19 314 -19 518 0 814 17 256 24 291
165 853 56 222 64 246 150 428 209 445 405 774 656 1102 230 300 547 595 949
885 430 310 951 528 1660 695 198 47 240 53 415 65 272 17 626 18 885 0z"/>
<path d="M5836 8943 c-13 -42 -126 -548 -126 -562 0 -13 47 -27 213 -64 116
-26 215 -48 219 -48 8 1 22 60 16 67 -3 2 -82 22 -177 43 -95 22 -175 42 -177
44 -6 5 36 180 44 189 4 3 76 -10 160 -29 85 -19 157 -31 162 -27 4 5 10 21
13 35 l6 25 -161 37 c-89 21 -163 38 -164 40 -3 3 35 170 40 174 1 2 79 -15
172 -36 93 -22 172 -36 176 -33 3 4 8 20 10 36 l3 29 -205 48 c-113 26 -208
48 -212 48 -4 1 -9 -7 -12 -16z"/>
<path d="M5086 8828 c-52 -14 -112 -76 -126 -130 -16 -58 -8 -174 14 -221 36
-74 136 -112 241 -93 67 13 161 124 118 140 -34 14 -64 6 -73 -19 -12 -32 -66
-65 -105 -65 -62 0 -125 63 -125 125 l0 25 161 0 162 0 -6 56 c-14 137 -130
218 -261 182z m133 -74 c21 -15 51 -70 51 -94 0 -6 -44 -10 -120 -10 -104 0
-120 2 -120 16 0 22 37 81 58 94 27 15 105 12 131 -6z"/>
<path d="M4301 8731 c-70 -24 -111 -66 -118 -119 l-6 -42 37 0 c25 0 36 4 36
15 0 51 56 95 123 95 50 0 65 -8 83 -42 20 -39 12 -47 -86 -83 -146 -53 -197
-124 -153 -212 22 -47 53 -63 121 -63 58 0 112 22 159 66 l28 25 9 -21 c8 -18
16 -21 44 -16 45 7 45 7 27 44 -9 17 -29 89 -45 160 -16 71 -35 141 -41 156
-26 57 -116 72 -218 37z m187 -260 c3 -49 1 -55 -33 -86 -63 -60 -147 -56
-169 8 -8 23 -6 31 11 49 23 22 161 88 178 84 6 -2 11 -26 13 -55z"/>
<path d="M3463 8613 l-32 -16 20 -38 c18 -36 21 -38 46 -28 43 16 44 18 23 60
-11 21 -21 39 -23 38 -1 0 -16 -7 -34 -16z"/>
<path d="M3895 8621 c-108 -27 -168 -111 -135 -190 23 -56 52 -66 177 -64 90
2 115 0 127 -13 35 -34 7 -89 -57 -113 -46 -18 -74 -13 -109 18 l-33 29 -35
-18 -35 -18 42 -41 c41 -42 58 -47 133 -42 46 4 123 37 148 64 33 35 45 100
28 141 -25 60 -54 71 -181 68 -101 -2 -113 -1 -130 18 -25 27 -7 66 40 86 48
20 85 18 111 -7 21 -19 26 -20 54 -9 36 15 38 29 8 58 -42 38 -88 48 -153 33z"/>
<path d="M6374 8576 c-28 -28 -34 -42 -34 -76 0 -54 23 -85 110 -150 80 -60
92 -81 59 -116 -50 -53 -160 -6 -175 75 -8 40 -18 51 -51 51 -20 0 -23 -5 -23
-44 0 -60 32 -104 99 -138 102 -52 196 -35 236 42 34 65 9 114 -99 195 -86 65
-100 90 -66 117 28 23 44 22 97 -1 43 -20 63 -45 63 -79 0 -18 24 -31 58 -32
18 0 15 71 -5 100 -38 56 -107 89 -181 90 -48 0 -58 -4 -88 -34z"/>
<path d="M6929 8563 c-19 -3 -31 -15 -44 -44 -22 -48 -29 -53 -55 -39 -17 9
-22 7 -32 -16 -11 -24 -10 -29 9 -41 l22 -15 -69 -139 c-71 -141 -81 -179 -56
-215 15 -21 92 -61 101 -52 3 2 7 18 11 34 5 25 2 32 -20 42 -14 6 -26 18 -26
27 0 8 28 71 63 140 50 102 65 125 80 120 9 -3 26 -8 36 -11 14 -4 23 1 31 17
13 24 11 26 -36 55 -17 10 -16 14 14 67 45 80 44 81 -29 70z"/>
<path d="M3534 8462 l-32 -17 91 -195 c50 -107 92 -197 94 -199 2 -3 19 3 37
12 l35 16 -91 193 c-49 106 -93 196 -96 200 -4 3 -21 -1 -38 -10z"/>
<path d="M3326 8365 c-10 -8 -23 -16 -29 -18 -5 -1 22 -59 62 -127 39 -68 73
-138 77 -155 11 -61 -41 -125 -101 -125 -40 0 -65 24 -116 112 -23 40 -57 99
-76 131 l-35 57 -29 -17 c-16 -10 -29 -20 -29 -24 0 -9 134 -243 161 -280 11
-16 34 -36 51 -45 63 -33 166 9 203 82 11 21 21 41 23 43 1 3 8 -4 16 -14 13
-18 17 -18 40 -5 15 7 25 19 24 25 -5 19 -212 375 -218 375 -3 0 -14 -7 -24
-15z"/>
<path d="M6985 8202 c-80 -130 -90 -152 -90 -194 0 -58 25 -95 86 -126 30 -16
57 -22 87 -20 47 3 46 4 32 -22 -8 -16 -6 -22 15 -36 20 -13 29 -14 38 -5 6 6
60 89 119 184 l107 172 -27 22 c-15 13 -29 23 -32 23 -3 0 -39 -55 -80 -121
-88 -142 -106 -159 -167 -159 -36 0 -50 6 -74 29 -16 17 -29 40 -29 54 0 14
36 85 81 158 44 74 81 138 82 143 1 5 -11 17 -28 27 l-30 18 -90 -147z"/>
<path d="M2871 8089 c-23 -19 -23 -20 -6 -39 18 -20 17 -20 -27 -20 -56 0
-104 -30 -135 -85 -43 -76 -23 -170 53 -255 52 -57 100 -80 171 -80 85 0 139
42 165 128 2 8 30 -17 67 -62 34 -42 65 -76 69 -76 4 0 18 9 32 19 18 14 21
23 14 33 -74 94 -368 454 -373 455 -3 1 -17 -7 -30 -18z m23 -119 c37 -14 105
-79 127 -121 38 -76 15 -146 -56 -169 -26 -8 -44 -9 -68 -1 -38 13 -107 80
-131 128 -31 63 -15 131 38 157 36 18 55 20 90 6z"/>
<path d="M4722 7970 c-197 -34 -316 -60 -395 -85 -618 -204 -738 -274 -1234
-717 -274 -244 -335 -319 -553 -683 -142 -236 -163 -277 -213 -416 -30 -85
-89 -278 -130 -429 -86 -315 -97 -400 -97 -735 1 -295 17 -412 105 -754 64
-250 84 -315 137 -430 136 -302 269 -520 489 -801 242 -309 794 -706 1204
-866 221 -86 409 -145 540 -170 495 -94 1140 -64 1545 74 343 117 813 370
1000 539 30 27 134 119 230 203 226 198 305 297 512 645 193 324 220 395 353
910 83 322 102 581 70 952 -16 182 -47 325 -140 652 -95 333 -255 622 -577
1042 -76 99 -126 149 -327 326 -275 244 -398 330 -601 423 -80 37 -201 95
-270 130 -149 75 -326 127 -560 166 -168 27 -648 75 -745 73 -33 -1 -187 -23
-343 -49z m891 -145 c341 -62 524 -109 710 -184 447 -179 785 -422 1131 -811
87 -98 126 -154 258 -375 l156 -260 101 -278 c81 -225 106 -306 126 -415 94
-513 65 -1044 -80 -1442 -168 -462 -275 -669 -498 -960 -154 -202 -440 -472
-642 -606 -121 -81 -388 -244 -399 -244 -3 0 -65 -22 -138 -49 -374 -138 -409
-149 -573 -175 -225 -36 -350 -46 -570 -46 -306 0 -557 33 -842 111 -290 79
-471 166 -788 379 -145 97 -496 405 -618 542 -171 191 -389 539 -458 728 -23
63 -46 126 -52 140 -5 14 -11 30 -13 35 -1 6 -23 69 -50 140 -27 75 -57 183
-71 255 -91 478 -60 1126 67 1435 22 55 68 174 101 265 62 168 114 271 266
523 92 153 203 286 395 473 284 277 430 380 793 561 234 117 273 133 390 162
72 17 204 52 295 76 184 50 354 72 573 74 114 1 159 -5 430 -54z"/>
<path d="M6250 7199 c-179 -65 -330 -121 -337 -124 -9 -3 -8 -15 3 -50 9 -25
20 -47 24 -50 5 -3 69 17 142 44 73 26 136 45 141 42 4 -4 67 -173 141 -375
74 -202 136 -370 140 -373 3 -3 18 -1 33 5 15 6 40 16 54 21 l27 10 -138 378
c-76 208 -135 381 -131 385 3 3 66 27 139 54 79 28 132 52 132 60 0 20 -31 94
-39 93 -3 0 -152 -54 -331 -120z"/>
<path d="M5480 6910 c-162 -60 -299 -111 -303 -112 -7 -3 295 -854 308 -866 3
-4 634 223 642 231 7 8 -30 97 -41 97 -6 0 -123 -41 -260 -90 -137 -50 -253
-89 -258 -88 -9 3 -108 260 -108 279 0 3 102 43 228 89 125 45 231 86 236 90
9 9 -22 100 -33 100 -4 0 -110 -38 -236 -84 -127 -46 -233 -81 -237 -78 -4 4
-27 62 -51 130 l-45 123 27 11 c14 5 125 46 246 90 121 43 223 83 228 87 10
10 -22 101 -36 100 -7 0 -145 -50 -307 -109z"/>
<path d="M4815 6660 c-40 -8 -435 -146 -443 -155 -3 -2 65 -197 151 -432 173
-476 155 -445 238 -409 l37 15 -58 160 c-32 87 -60 167 -62 176 -2 13 25 27
127 64 153 56 202 80 250 123 98 86 109 230 26 360 -52 82 -158 121 -266 98z
m130 -141 c48 -43 65 -78 65 -138 0 -42 -5 -56 -32 -86 -17 -20 -47 -44 -67
-54 -71 -35 -272 -104 -280 -95 -8 9 -97 255 -103 283 -4 20 272 120 334 121
39 0 54 -5 83 -31z"/>
<path d="M3905 6353 c-56 -6 -120 -26 -178 -55 -156 -78 -243 -253 -218 -438
27 -204 143 -368 304 -433 76 -30 219 -29 302 3 79 30 120 57 177 116 72 74
101 148 106 265 3 67 -1 114 -12 159 -47 183 -177 332 -321 368 -51 13 -122
19 -160 15z m99 -118 c125 -33 219 -142 260 -302 46 -176 -9 -315 -151 -385
-125 -61 -238 -47 -336 42 -92 84 -150 222 -151 361 -1 69 2 80 34 133 50 83
112 129 205 152 67 16 72 16 139 -1z"/>
<path d="M2935 5996 c-209 -69 -330 -239 -311 -438 18 -197 140 -400 281 -468
64 -31 138 -41 212 -30 206 33 330 141 362 315 13 70 14 122 3 129 -5 3 -34 2
-65 -1 l-57 -6 0 -56 c0 -82 -16 -127 -63 -178 -58 -63 -107 -85 -199 -91 -69
-4 -84 -2 -133 22 -118 58 -216 246 -217 415 -1 89 14 131 68 191 52 58 124
92 205 98 77 5 112 -9 175 -70 l41 -39 51 32 c29 18 52 35 52 39 0 17 -104
103 -148 123 -58 26 -197 33 -257 13z"/>
<path d="M5210 5616 c-331 -111 -426 -147 -428 -161 -2 -9 3 -124 12 -254 24
-351 56 -926 56 -1007 0 -146 58 -245 188 -322 69 -41 194 -74 212 -56 6 6 -6
292 -29 694 -23 405 -35 687 -29 691 5 3 161 61 347 129 299 109 339 126 349
149 14 32 3 80 -39 164 -31 61 -49 73 -139 96 -25 7 -52 14 -60 16 -8 2 -206
-60 -440 -139z m505 74 c62 -12 69 -17 97 -74 25 -51 46 -126 35 -126 -3 0
-227 -81 -498 -180 -271 -99 -496 -180 -499 -180 -9 0 -28 293 -20 303 13 15
806 276 825 271 11 -3 38 -9 60 -14z m-575 -523 c0 -7 16 -294 35 -637 19
-343 35 -634 35 -647 0 -22 -3 -23 -37 -17 -55 9 -170 73 -208 116 -57 62 -62
100 -91 616 -14 261 -24 475 -22 477 5 5 271 104 281 105 4 0 7 -6 7 -13z"/>
<path d="M4614 5391 c-66 -49 -201 -193 -235 -251 -30 -52 -89 -208 -89 -237
0 -7 8 -13 17 -13 34 0 393 125 393 136 0 7 4 14 9 16 9 3 -1 227 -15 336 -6
52 -24 55 -80 13z m39 -83 c4 -24 9 -90 13 -148 l6 -105 -158 -52 c-87 -29
-159 -51 -161 -49 -7 7 38 116 71 172 35 59 193 224 214 224 5 0 12 -19 15
-42z"/>
<path d="M5615 5064 c-153 -57 -284 -109 -289 -114 -11 -11 12 -401 25 -414 5
-6 21 -5 41 1 18 7 110 38 203 70 94 33 205 69 248 81 l77 23 44 87 c41 82 43
89 30 122 -7 19 -13 69 -13 111 -1 71 -3 77 -34 107 -18 18 -37 32 -42 31 -6
-1 -136 -48 -290 -105z m309 24 c10 -15 16 -45 16 -85 0 -34 4 -73 10 -88 8
-21 4 -38 -25 -95 l-35 -69 -102 -31 c-57 -17 -166 -53 -243 -80 -77 -28 -145
-50 -151 -50 -10 0 -37 319 -28 329 8 9 501 189 521 190 12 1 29 -9 37 -21z"/>
<path d="M5665 4385 c-160 -62 -298 -119 -307 -126 -16 -13 -17 -26 -3 -198 7
-101 19 -189 25 -195 7 -7 16 -7 30 2 11 6 59 34 107 61 142 79 191 113 258
174 73 66 143 178 180 287 28 84 30 96 12 103 -6 2 -143 -46 -302 -108z m235
-11 c-39 -111 -125 -221 -245 -311 -45 -33 -235 -136 -241 -130 -6 6 -27 287
-22 292 5 6 510 204 520 205 4 0 -2 -25 -12 -56z"/>
<path d="M7363 4120 c-13 -5 -23 -13 -23 -17 0 -4 29 -87 64 -183 83 -230 84
-233 52 -265 -35 -34 -87 -34 -115 1 -11 14 -21 30 -23 35 -5 14 -58 -10 -58
-26 0 -21 45 -79 70 -92 37 -19 88 -16 136 7 67 33 90 83 73 160 -17 75 -133
390 -144 389 -5 0 -20 -4 -32 -9z"/>
<path d="M6835 3924 c-71 -25 -138 -48 -148 -51 -10 -3 -17 -9 -15 -13 2 -4
43 -118 92 -253 l89 -245 31 11 c17 5 32 11 34 12 1 1 -15 52 -37 112 l-40
111 56 21 c30 11 61 21 69 21 25 0 86 -36 167 -98 74 -58 80 -60 110 -50 18 6
36 14 40 18 11 10 -125 116 -183 143 -25 12 -47 23 -50 25 -3 2 8 13 23 24 79
58 73 178 -12 235 -48 32 -78 29 -226 -23z m193 -44 c49 -46 38 -106 -27 -140
-62 -31 -175 -70 -182 -62 -17 19 -57 152 -48 157 25 16 177 64 205 64 17 1
39 -7 52 -19z"/>
<path d="M6572 3831 c-11 -6 -9 -57 8 -275 11 -146 20 -275 20 -286 0 -17 3
-18 25 -8 14 6 25 18 25 27 0 9 -9 131 -20 271 -11 140 -20 261 -20 268 0 14
-19 16 -38 3z"/>
<path d="M6190 3684 c-96 -35 -181 -66 -187 -69 -12 -4 -8 -23 12 -62 1 -2 38
11 84 27 l82 30 8 -23 c4 -12 39 -107 76 -212 37 -104 71 -194 75 -198 4 -5
21 -2 38 5 l30 13 -79 215 c-43 118 -79 218 -79 221 0 3 36 18 81 34 72 25 80
30 75 49 -3 12 -6 24 -6 29 0 15 -40 4 -210 -59z"/>
<path d="M5745 3510 c-88 -33 -163 -61 -167 -62 -4 -2 144 -427 174 -500 2 -5
232 75 360 124 15 6 16 12 6 38 -8 23 -15 30 -27 25 -123 -49 -287 -103 -292
-97 -5 6 -59 148 -59 156 0 2 61 25 135 52 137 48 148 57 125 94 -8 13 -27 9
-132 -28 -68 -24 -130 -46 -138 -48 -11 -4 -22 15 -42 70 l-26 74 98 37 c54
20 119 43 144 51 25 9 46 22 46 29 0 26 -12 45 -29 44 -9 0 -88 -27 -176 -59z"/>
<path d="M5345 3374 c-66 -24 -139 -51 -162 -60 -24 -9 -43 -20 -43 -26 0 -6
39 -118 87 -250 l87 -240 30 6 c16 4 32 8 34 11 3 2 -13 54 -36 115 -46 129
-58 108 93 164 85 32 90 35 88 61 -1 15 -4 29 -6 32 -2 2 -55 -14 -117 -37
-62 -22 -116 -37 -120 -35 -12 7 -52 133 -46 143 2 4 61 28 130 52 129 46 141
56 114 92 -12 15 -25 12 -133 -28z"/>
<path d="M4845 3210 c-88 -33 -163 -61 -167 -62 -4 -2 144 -427 174 -500 2 -5
232 75 360 124 15 6 16 12 6 38 -8 23 -15 30 -27 25 -123 -49 -287 -103 -292
-97 -5 6 -59 148 -59 156 0 2 61 25 135 52 137 48 148 57 125 94 -8 13 -27 9
-132 -28 -68 -24 -130 -46 -138 -48 -11 -4 -22 15 -42 70 l-26 74 98 37 c54
20 119 43 144 51 25 9 46 22 46 29 0 26 -12 45 -29 44 -9 0 -88 -27 -176 -59z"/>
<path d="M4399 3063 c-42 -6 -131 -65 -156 -102 -52 -76 -54 -177 -8 -279 28
-62 83 -124 130 -150 52 -27 141 -22 210 13 77 39 114 89 122 168 l6 57 -35 0
c-35 0 -36 -1 -41 -46 -9 -81 -66 -135 -149 -141 -63 -5 -102 15 -147 77 -35
49 -66 156 -57 202 10 51 41 95 85 118 66 33 125 26 178 -23 21 -19 24 -19 48
-3 33 21 32 28 -10 64 -49 44 -101 57 -176 45z"/>
<path d="M7452 7979 c-54 -31 -107 -93 -129 -152 -44 -120 29 -247 143 -247
36 0 36 -1 20 -19 -16 -18 -16 -20 10 -40 15 -12 31 -18 35 -14 4 4 91 109
193 232 195 233 195 235 145 261 -14 8 -28 -4 -79 -65 -34 -41 -66 -75 -71
-75 -5 0 -9 10 -9 23 0 37 -36 83 -82 106 -62 30 -112 27 -176 -10z m170 -59
c62 -49 59 -120 -11 -208 -49 -62 -107 -88 -157 -72 -78 26 -97 110 -44 193
60 94 154 133 212 87z"/>
<path d="M2440 7683 c-67 -25 -130 -113 -130 -181 0 -37 6 -50 35 -79 32 -32
40 -35 79 -31 30 4 72 22 128 57 46 28 91 51 100 51 22 0 48 -38 48 -69 0 -15
-16 -40 -44 -67 -45 -45 -77 -55 -116 -34 -15 8 -23 4 -40 -20 l-22 -30 36
-15 c47 -20 79 -19 124 4 134 69 165 244 54 297 -44 21 -84 10 -172 -47 -86
-55 -103 -61 -129 -43 -33 24 -27 61 19 106 37 37 44 40 80 35 34 -4 41 -2 56
21 16 24 16 26 -2 39 -18 13 -76 16 -104 6z"/>
<path d="M7862 7635 c-81 -35 -151 -116 -167 -194 -15 -73 39 -172 116 -211
45 -24 116 -26 164 -6 46 19 122 92 146 138 63 124 -37 289 -175 288 -28 -1
-66 -7 -84 -15z m173 -85 c14 -13 30 -41 36 -61 10 -32 9 -43 -10 -83 -23 -47
-78 -98 -125 -116 -53 -20 -94 -12 -134 24 -33 31 -37 40 -37 84 0 59 33 108
104 154 39 25 54 29 94 25 32 -3 56 -12 72 -27z"/>
<path d="M2120 7328 c-95 -49 -136 -167 -91 -262 27 -55 77 -101 145 -132 59
-28 102 -30 154 -8 111 46 172 194 116 282 l-20 32 -27 -28 c-27 -28 -27 -29
-12 -66 32 -75 -26 -156 -110 -156 -53 0 -98 18 -91 37 3 7 46 67 97 134 102
135 101 128 14 169 -54 26 -120 25 -175 -2z m125 -60 c14 -6 24 -14 23 -17
-13 -28 -136 -180 -145 -181 -19 0 -43 55 -43 101 0 33 6 47 34 75 37 37 82
45 131 22z"/>
<path d="M8203 7261 c-63 -40 -68 -85 -22 -216 36 -105 31 -135 -21 -135 -42
0 -64 13 -89 54 -25 40 -27 83 -5 114 14 20 13 24 -3 47 -24 33 -40 31 -63 -7
-47 -77 -3 -200 95 -264 13 -9 45 -16 70 -16 56 -1 94 24 114 76 13 33 11 43
-18 135 -34 108 -37 131 -19 149 19 19 44 14 77 -13 42 -36 57 -85 37 -123
-14 -28 -14 -31 9 -52 30 -28 49 -17 64 36 17 62 -24 158 -90 206 -39 29 -98
33 -136 9z"/>
<path d="M1714 6986 c-17 -7 -44 -30 -60 -50 -43 -51 -167 -277 -157 -286 4
-4 121 -69 258 -145 138 -76 253 -140 257 -142 10 -5 49 58 42 68 -2 4 -47 31
-99 59 -52 28 -97 55 -100 59 -2 5 20 57 50 115 63 121 72 183 35 243 -43 71
-156 111 -226 79z m146 -111 c38 -38 32 -85 -25 -191 -27 -49 -49 -91 -51 -92
-5 -7 -184 93 -184 102 0 18 89 172 112 193 42 38 102 34 148 -12z"/>
<path d="M8795 6758 c-11 -6 -21 -12 -23 -13 -1 -1 14 -41 34 -89 22 -52 34
-90 28 -95 -5 -5 -112 -53 -239 -106 -126 -54 -232 -99 -233 -101 -7 -5 19
-74 28 -74 5 0 113 45 241 100 129 55 237 100 242 100 4 0 15 -16 23 -35 8
-20 26 -60 39 -91 l24 -55 31 16 c16 8 30 18 30 21 0 20 -185 434 -194 434 -6
0 -20 -6 -31 -12z"/>
<path d="M8663 6209 c-121 -38 -178 -125 -154 -238 20 -100 71 -153 162 -167
41 -7 42 -6 36 17 -4 13 -7 32 -7 42 0 10 -8 17 -20 17 -86 0 -138 108 -90
187 19 32 75 69 83 55 2 -4 26 -72 52 -152 26 -80 49 -146 50 -148 2 -2 26 6
54 19 120 51 162 170 101 288 -23 46 -59 74 -115 90 -54 15 -79 13 -152 -10z
m192 -89 c36 -34 49 -82 35 -125 -12 -37 -66 -83 -80 -69 -9 11 -70 194 -70
213 0 22 86 8 115 -19z"/>
<path d="M1493 6095 c-64 -39 -88 -86 -88 -171 0 -60 4 -77 27 -111 56 -85
225 -131 314 -85 67 34 100 86 110 175 5 46 3 64 -16 101 -12 25 -35 55 -50
66 l-29 21 -12 -41 c-11 -37 -10 -41 13 -65 74 -74 12 -195 -98 -195 -29 0
-44 4 -44 13 0 7 18 78 39 157 22 80 37 147 34 150 -2 3 -39 6 -81 8 -68 3
-82 0 -119 -23z m117 -62 c0 -40 -54 -213 -66 -213 -8 0 -28 13 -46 29 -29 26
-33 36 -33 79 0 72 47 120 118 121 19 1 27 -4 27 -16z"/>
<path d="M8805 5713 c-136 -30 -200 -118 -176 -242 15 -75 83 -141 147 -141
32 0 34 2 34 34 0 31 -3 34 -34 40 -72 14 -108 95 -73 164 28 57 188 93 255
58 70 -36 80 -128 21 -177 -28 -23 -31 -29 -22 -54 13 -39 25 -41 62 -9 50 42
64 78 59 148 -8 91 -49 148 -127 174 -33 12 -106 14 -146 5z"/>
<path d="M1166 5594 c-3 -9 -6 -24 -6 -34 0 -18 8 -20 143 -36 31 -3 57 -8 57
-11 0 -2 -9 -14 -20 -25 -57 -61 -43 -183 27 -238 102 -80 269 -76 346 9 52
58 63 156 22 201 -16 17 -15 19 7 22 18 2 24 10 26 35 4 39 25 34 -303 68
-284 29 -291 30 -299 9z m416 -95 c102 -22 149 -107 96 -174 -40 -51 -112 -67
-204 -44 -99 25 -136 112 -76 180 40 44 97 56 184 38z"/>
<path d="M8858 5243 l-198 -3 0 -41 0 -42 138 7 c154 6 192 -1 226 -47 28 -38
28 -100 -2 -129 -21 -22 -33 -23 -185 -28 l-162 -5 -3 -39 -3 -39 168 5 c196
6 230 15 257 73 27 55 18 142 -18 189 l-27 36 26 0 c24 0 26 3 23 33 -2 24 -8
32 -23 32 -11 1 -109 -1 -217 -2z"/>
<path d="M1682 4860 c-12 -5 -86 -16 -165 -24 -78 -8 -154 -20 -169 -26 -43
-20 -61 -71 -56 -155 7 -109 48 -173 121 -191 26 -6 27 -5 27 35 0 30 -4 41
-15 41 -29 0 -63 46 -70 92 -11 70 20 118 76 118 22 0 33 -24 55 -119 22 -92
47 -135 89 -156 50 -23 99 -13 143 31 34 34 34 35 30 109 -3 64 -8 80 -36 120
l-32 46 26 9 c21 8 25 15 20 33 -3 12 -6 28 -6 35 0 14 -6 14 -38 2z m-48
-121 c59 -47 75 -131 31 -174 -49 -50 -85 -23 -119 89 -15 46 -26 89 -26 95 0
20 85 13 114 -10z"/>
<path d="M8815 4756 c-5 -2 -22 -7 -37 -10 -101 -22 -158 -173 -108 -284 37
-82 109 -118 230 -116 76 1 114 18 158 68 91 104 55 271 -70 320 -39 16 -152
30 -173 22z m159 -101 c75 -36 92 -138 34 -192 -72 -65 -231 -48 -278 29 -77
127 89 238 244 163z"/>
<path d="M1518 4332 l-197 -35 6 -31 c3 -17 8 -34 12 -37 6 -7 417 63 425 72
2 2 1 19 -1 37 -6 39 7 40 -245 -6z"/>
<path d="M8616 4275 c-3 -9 -6 -27 -6 -39 0 -21 14 -25 293 -78 212 -41 294
-53 299 -45 11 17 10 67 -1 67 -9 0 -485 91 -552 105 -19 4 -28 1 -33 -10z"/>
<path d="M1182 4273 c-22 -4 -23 -8 -17 -41 4 -20 8 -38 8 -39 1 -1 18 2 37 6
32 6 35 10 35 41 0 37 -12 43 -63 33z"/>
<path d="M1347 4133 c-11 -10 -8 -72 3 -94 6 -10 25 -26 43 -36 l32 -17 -25
-6 c-20 -5 -24 -11 -22 -31 2 -13 7 -28 11 -32 4 -4 101 13 214 39 203 47 207
48 207 73 0 51 -7 52 -143 21 -152 -36 -186 -37 -221 -9 -20 16 -26 29 -26 60
0 38 -1 39 -33 39 -19 0 -37 -3 -40 -7z"/>
<path d="M8615 4072 c-49 -24 -79 -55 -100 -104 -17 -43 -20 -124 -4 -165 41
-111 236 -172 345 -108 102 60 130 206 58 302 -56 73 -217 114 -299 75z m192
-91 c64 -32 86 -66 80 -125 -8 -92 -86 -132 -192 -101 -79 22 -125 67 -132
126 -4 39 -1 50 23 78 15 18 37 37 48 42 33 14 128 3 173 -20z"/>
<path d="M1661 3875 c-125 -35 -184 -102 -182 -207 1 -85 50 -165 118 -194
101 -43 282 28 323 126 20 49 8 141 -26 196 -49 80 -131 107 -233 79z m134
-79 c40 -17 75 -68 75 -111 0 -54 -47 -104 -119 -130 -124 -43 -222 13 -208
118 7 50 46 91 111 116 62 24 96 26 141 7z"/>
<path d="M8996 3824 c-3 -9 -6 -23 -6 -32 0 -18 68 -122 79 -122 4 0 12 19 18
42 13 48 11 52 -47 98 -32 25 -39 27 -44 14z"/>
<path d="M8270 3668 c-52 -35 -85 -109 -85 -188 1 -112 17 -125 297 -243 220
-94 214 -92 221 -70 2 10 8 25 11 34 5 12 1 18 -16 22 -21 6 -21 7 12 29 76
51 102 144 64 224 -37 78 -139 134 -242 134 -109 0 -176 -65 -176 -172 -1 -33
-5 -58 -11 -58 -24 0 -77 43 -92 74 -15 33 -15 38 1 80 19 50 57 86 90 86 13
0 28 11 39 29 15 26 15 30 1 35 -32 12 -82 5 -114 -16z m335 -149 c100 -37
145 -110 111 -178 -33 -63 -114 -78 -201 -37 -65 30 -95 65 -102 114 -4 32 -1
47 17 69 45 57 87 65 175 32z"/>
<path d="M1760 3307 c-135 -73 -251 -136 -258 -140 -9 -6 -9 -15 3 -38 9 -16
19 -29 24 -29 5 0 47 20 93 45 l84 44 0 -53 c0 -65 29 -114 87 -147 71 -39
191 -15 276 57 108 91 95 258 -24 304 -29 12 -30 12 -8 22 21 10 21 12 7 39
-8 16 -20 29 -27 28 -6 0 -122 -60 -257 -132z m286 -31 c68 -68 29 -152 -96
-210 -68 -32 -97 -32 -141 -3 -36 24 -55 70 -45 111 16 65 122 135 205 136 36
0 49 -6 77 -34z"/>
<path d="M8196 3188 c-9 -12 -16 -27 -16 -33 0 -11 360 -215 378 -215 11 0 37
58 30 65 -7 7 -366 205 -372 205 -3 0 -12 -10 -20 -22z"/>
<path d="M2212 3039 c-13 -16 -75 -67 -137 -113 -94 -71 -115 -91 -124 -121
-19 -69 31 -166 116 -223 34 -23 90 -31 131 -18 20 7 21 8 5 40 -15 32 -18 33
-59 28 -41 -4 -46 -2 -79 34 -54 59 -57 126 -5 154 16 8 29 0 82 -51 112 -107
115 -109 170 -109 43 0 54 4 83 33 44 44 52 77 31 131 -21 54 -69 104 -124
128 -40 18 -42 20 -28 40 14 19 13 24 -5 50 -11 15 -23 28 -27 27 -4 0 -17
-13 -30 -30z m61 -133 c76 -31 114 -126 65 -160 -12 -9 -30 -16 -40 -16 -21 0
-169 130 -162 142 7 11 76 47 92 48 7 0 27 -6 45 -14z"/>
<path d="M8095 2981 c-100 -61 -130 -182 -69 -276 20 -31 34 -31 57 0 17 23
16 25 -3 57 -31 51 -26 94 14 134 26 26 42 34 70 34 49 0 124 -40 169 -89 31
-35 37 -48 37 -87 0 -37 -5 -51 -29 -75 -24 -24 -38 -29 -75 -29 -40 0 -47 -3
-61 -30 -15 -30 -15 -30 12 -41 69 -26 167 24 204 105 23 51 24 117 3 162 -21
43 -94 110 -147 135 -55 25 -142 25 -182 0z"/>
<path d="M8648 2926 l-16 -33 36 -17 c35 -17 36 -17 54 6 25 33 23 42 -17 61
-20 9 -37 17 -38 17 -2 0 -10 -15 -19 -34z"/>
<path d="M2434 2537 c-61 -61 -119 -123 -128 -137 -55 -84 34 -220 145 -220
32 0 32 0 14 -20 -18 -20 -18 -21 3 -43 l22 -22 152 152 152 152 -24 26 -24
25 -106 -104 c-58 -58 -119 -110 -134 -116 -60 -22 -146 37 -146 102 0 25 20
50 117 149 l117 120 -25 24 -24 25 -111 -113z"/>
<path d="M7832 2603 c-46 -22 -97 -86 -112 -138 -26 -93 41 -214 146 -265 66
-32 149 -25 201 17 81 64 110 147 79 226 -20 54 -89 130 -141 157 -48 24 -127
26 -173 3z m133 -66 c30 -14 95 -78 111 -109 20 -38 17 -87 -6 -125 -58 -96
-193 -65 -271 62 -69 111 47 231 166 172z"/>
<path d="M7484 2306 c-41 -18 -102 -72 -120 -107 -29 -57 -10 -154 35 -179 36
-19 96 -10 184 25 48 19 93 35 102 35 8 0 22 -11 30 -24 18 -28 12 -47 -27
-83 -38 -36 -75 -45 -107 -28 -26 13 -30 13 -51 -10 -26 -28 -20 -42 27 -61
85 -36 233 68 233 164 0 49 -26 91 -67 108 -41 18 -68 13 -166 -27 -86 -36
-112 -36 -133 -4 -20 31 -12 56 32 94 45 40 78 48 120 27 34 -16 35 -16 59 11
l24 28 -37 22 c-42 26 -92 29 -138 9z"/>
<path d="M2813 2243 c-18 -9 -33 -20 -33 -23 0 -4 11 -17 25 -30 21 -20 28
-22 50 -12 112 51 224 -93 147 -188 l-18 -22 -124 100 c-91 74 -128 98 -137
91 -25 -22 -63 -114 -63 -155 0 -56 14 -92 53 -132 45 -47 81 -64 141 -64 108
-1 219 98 241 215 28 146 -152 285 -282 220z m35 -245 c48 -39 87 -76 87 -82
0 -21 -73 -49 -110 -42 -52 10 -95 59 -95 106 0 34 17 90 27 90 2 0 42 -32 91
-72z"/>
<path d="M3098 1771 l-155 -258 28 -17 c16 -10 33 -15 38 -12 5 3 30 42 56 86
26 45 50 79 52 76 3 -2 12 -19 21 -38 37 -72 136 -105 213 -71 111 49 188 215
148 320 -26 69 -113 122 -175 107 -24 -6 -26 -5 -19 15 7 22 -15 50 -41 51 -6
0 -81 -116 -166 -259z m308 108 c48 -45 41 -128 -16 -208 -63 -87 -130 -103
-187 -46 -34 34 -35 38 -31 90 6 66 59 153 109 178 42 22 94 16 125 -14z"/>
<path d="M3695 1614 c-59 -147 -87 -187 -133 -187 -17 0 -41 8 -52 18 -20 18
-21 18 -48 -9 l-27 -27 33 -30 c36 -32 77 -38 108 -14 28 21 35 18 24 -10 -9
-22 -7 -27 16 -35 14 -6 29 -10 33 -10 4 0 44 91 88 202 l81 203 -30 12 c-17
7 -33 13 -37 13 -3 0 -28 -57 -56 -126z"/>
<path d="M3975 1621 c-101 -25 -165 -126 -165 -258 0 -118 80 -193 207 -193
98 0 161 54 199 169 35 109 -2 219 -90 260 -49 23 -110 32 -151 22z m114 -75
c42 -22 63 -61 63 -117 -1 -91 -60 -182 -127 -195 -70 -13 -145 51 -145 123 0
72 59 177 110 196 28 10 71 7 99 -7z"/>
<path d="M4468 1506 c-63 -23 -89 -46 -113 -99 -82 -182 -1 -346 171 -347 124
0 193 74 209 224 7 59 5 72 -20 121 -19 40 -38 62 -68 79 -53 31 -130 41 -179
22z m130 -70 c78 -43 84 -188 11 -271 -79 -89 -209 -29 -209 96 0 108 58 189
135 189 22 -1 50 -6 63 -14z"/>
<path d="M5000 1441 c-75 -23 -120 -64 -154 -139 -21 -47 -17 -57 29 -66 28
-6 32 -4 43 28 16 44 66 92 109 107 72 24 182 -19 216 -85 59 -111 39 -281
-42 -348 -33 -28 -87 -48 -131 -48 -47 0 -113 42 -138 88 -24 43 -30 45 -90
26 -17 -5 10 -70 46 -107 93 -98 274 -101 377 -6 122 112 127 367 10 484 -63
64 -186 93 -275 66z"/>
</g>
</svg>
