<?xml version="1.0" standalone="no"?>
<!DOCTYPE svg PUBLIC "-//W3C//DTD SVG 20010904//EN"
 "http://www.w3.org/TR/2001/REC-SVG-20010904/DTD/svg10.dtd">
<svg version="1.0" xmlns="http://www.w3.org/2000/svg"
 width="538.000000pt" height="608.000000pt" viewBox="0 0 538.000000 608.000000"
 preserveAspectRatio="xMidYMid meet">

<g transform="translate(0.000000,608.000000) scale(0.100000,-0.100000)"
fill="#000000" stroke="none">
<path d="M2226 5843 c-3 -10 -97 -329 -210 -708 -112 -380 -410 -1340 -662
-2135 l-459 -1445 -3 -141 c-13 -542 277 -962 812 -1180 33 -13 60 -23 62 -21
1 1 86 274 188 607 103 333 403 1290 668 2128 l481 1522 1053 0 1053 0 5 33
c30 188 32 280 11 455 -57 464 -263 780 -574 881 -64 21 -74 21 -1242 21
-1113 0 -1178 -1 -1183 -17z"/>
<path d="M1885 5820 c-111 -32 -276 -95 -369 -142 -404 -202 -795 -587 -1122
-1106 l-62 -97 636 -3 c350 -1 639 1 643 5 4 5 96 310 204 678 109 369 200
676 203 683 6 18 -21 14 -133 -18z"/>
<path d="M2826 3043 c-126 -389 -231 -714 -233 -720 -4 -10 141 -13 704 -13
672 0 713 1 765 19 131 45 270 146 322 235 66 113 256 714 301 949 14 75 13
81 -5 117 -11 22 -34 50 -52 63 -72 52 -60 51 -844 55 l-730 3 -228 -708z"/>
<path d="M2153 878 l-229 -663 60 -3 c74 -4 234 21 382 58 571 146 1226 609
1627 1152 42 58 77 108 77 112 0 3 -380 6 -843 6 l-844 0 -230 -662z"/>
</g>
</svg>
