<svg version="1.1" id="Layer_1" xmlns="http://www.w3.org/2000/svg" xmlns:xlink="http://www.w3.org/1999/xlink" x="0px" y="0px"
	 width="100%" viewBox="0 0 178 260" enable-background="new 0 0 178 260" xml:space="preserve">
<path fill="#FFFFFF" opacity="0" stroke="none" 
	d="
M110.000000,261.000000 
	C73.333336,261.000000 37.166672,261.000000 1.000005,261.000000 
	C1.000003,174.333344 1.000003,87.666679 1.000002,1.000016 
	C60.333324,1.000011 119.666649,1.000011 178.999969,1.000005 
	C178.999985,87.666649 178.999985,174.333298 179.000000,260.999969 
	C156.166672,261.000000 133.333328,261.000000 110.000000,261.000000 
M119.957474,27.473745 
	C118.525101,31.445374 115.791435,31.934505 112.443398,29.926632 
	C112.098312,30.780260 111.968201,31.246685 111.736160,31.655218 
	C103.349411,46.421112 94.990021,61.202744 86.546890,75.936371 
	C79.408836,88.392601 72.213646,100.816582 64.965736,113.209213 
	C59.459045,122.624672 53.799419,131.950882 48.335045,141.390427 
	C48.026173,141.923981 48.633858,143.366592 49.234344,143.965866 
	C50.336254,145.065521 51.751091,145.851593 53.237965,146.912964 
	C51.125603,150.273148 48.764748,153.395874 47.171391,156.870560 
	C46.522213,158.286224 46.881294,161.410919 47.914322,162.129349 
	C51.796436,164.829147 56.145439,166.857574 60.571865,169.275375 
	C62.606247,166.082260 64.694824,163.207382 66.338593,160.097412 
	C67.671272,157.576019 68.942802,156.379395 72.081123,157.328613 
	C73.364594,157.716812 75.949829,156.627701 76.710808,155.428696 
	C80.047623,150.171143 82.913780,144.616211 85.987183,139.189819 
	C91.171486,130.036407 96.383469,120.898651 101.646271,111.644493 
	C110.271774,118.092537 116.761856,125.260345 121.598900,134.583344 
	C126.145645,143.346817 127.666145,152.573059 127.591347,161.647293 
	C127.513710,171.066177 125.531303,180.582733 120.215515,189.287735 
	C114.475960,198.686661 107.173752,206.266449 97.844810,211.405945 
	C86.893608,217.439163 74.632256,219.202850 62.097485,219.040054 
	C48.497158,218.863434 34.892769,219.000000 21.249847,219.000000 
	C21.249847,227.236633 21.249847,234.973267 21.249847,242.764389 
	C66.559494,242.764389 111.618904,242.764389 156.763214,242.764389 
	C156.763214,234.790344 156.763214,227.053848 156.763214,218.917770 
	C146.846298,218.917770 137.157394,218.917770 127.453743,218.917770 
	C146.060181,199.804718 153.504318,177.232635 151.015823,151.136200 
	C148.499557,124.748665 134.674423,105.240685 113.885139,90.589600 
	C122.810677,75.054878 131.358673,60.177277 139.878372,45.348915 
	C138.282104,44.145210 137.042236,43.210251 135.923386,42.366550 
	C138.192551,38.610126 140.251129,35.202324 142.505707,31.470058 
	C135.907776,27.773809 129.731216,24.313614 123.802361,20.992193 
	C122.331688,23.218063 121.179863,24.961363 119.957474,27.473745 
M47.009659,189.513519 
	C53.391418,193.217087 59.822773,196.838684 66.134315,200.658264 
	C69.358795,202.609650 71.640381,202.307846 72.794266,198.538391 
	C73.742188,195.441757 77.740288,192.522430 71.990501,189.337936 
	C54.788097,179.810455 37.877388,169.756317 20.560547,159.738754 
	C18.289049,163.342834 16.091280,166.829941 13.815597,170.440674 
	C24.797682,176.704498 35.607964,182.870331 47.009659,189.513519 
z"/>
<path fill="#FFFFFF" opacity="1.000000" stroke="none" 
	d="
M119.992752,27.089203 
	C121.179863,24.961363 122.331688,23.218063 123.802361,20.992193 
	C129.731216,24.313614 135.907776,27.773809 142.505707,31.470058 
	C140.251129,35.202324 138.192551,38.610126 135.923386,42.366550 
	C137.042236,43.210251 138.282104,44.145210 139.878372,45.348915 
	C131.358673,60.177277 122.810677,75.054878 113.885139,90.589600 
	C134.674423,105.240685 148.499557,124.748665 151.015823,151.136200 
	C153.504318,177.232635 146.060181,199.804718 127.453743,218.917770 
	C137.157394,218.917770 146.846298,218.917770 156.763214,218.917770 
	C156.763214,227.053848 156.763214,234.790344 156.763214,242.764389 
	C111.618904,242.764389 66.559494,242.764389 21.249847,242.764389 
	C21.249847,234.973267 21.249847,227.236633 21.249847,219.000000 
	C34.892769,219.000000 48.497158,218.863434 62.097485,219.040054 
	C74.632256,219.202850 86.893608,217.439163 97.844810,211.405945 
	C107.173752,206.266449 114.475960,198.686661 120.215515,189.287735 
	C125.531303,180.582733 127.513710,171.066177 127.591347,161.647293 
	C127.666145,152.573059 126.145645,143.346817 121.598900,134.583344 
	C116.761856,125.260345 110.271774,118.092537 101.646271,111.644493 
	C96.383469,120.898651 91.171486,130.036407 85.987183,139.189819 
	C82.913780,144.616211 80.047623,150.171143 76.710808,155.428696 
	C75.949829,156.627701 73.364594,157.716812 72.081123,157.328613 
	C68.942802,156.379395 67.671272,157.576019 66.338593,160.097412 
	C64.694824,163.207382 62.606247,166.082260 60.571865,169.275375 
	C56.145439,166.857574 51.796436,164.829147 47.914322,162.129349 
	C46.881294,161.410919 46.522213,158.286224 47.171391,156.870560 
	C48.764748,153.395874 51.125603,150.273148 53.237965,146.912964 
	C51.751091,145.851593 50.336254,145.065521 49.234344,143.965866 
	C48.633858,143.366592 48.026173,141.923981 48.335045,141.390427 
	C53.799419,131.950882 59.459045,122.624672 64.965736,113.209213 
	C72.213646,100.816582 79.408836,88.392601 86.546890,75.936371 
	C94.990021,61.202744 103.349411,46.421112 111.736160,31.655218 
	C111.968201,31.246685 112.098312,30.780260 112.443398,29.926632 
	C115.791435,31.934505 118.525101,31.445374 119.992752,27.089203 
z"/>
<path fill="#FFFFFF" opacity="1.000000" stroke="none" 
	d="
M46.713951,189.274841 
	C35.607964,182.870331 24.797682,176.704498 13.815597,170.440674 
	C16.091280,166.829941 18.289049,163.342834 20.560547,159.738754 
	C37.877388,169.756317 54.788097,179.810455 71.990501,189.337936 
	C77.740288,192.522430 73.742188,195.441757 72.794266,198.538391 
	C71.640381,202.307846 69.358795,202.609650 66.134315,200.658264 
	C59.822773,196.838684 53.391418,193.217087 46.713951,189.274841 
z"/>
</svg>