<svg version="1.1" id="Layer_1" xmlns="http://www.w3.org/2000/svg" xmlns:xlink="http://www.w3.org/1999/xlink" x="0px" y="0px"
	 width="100%" viewBox="0 0 172 253" enable-background="new 0 0 172 253" xml:space="preserve">
<path fill="#FFFFFF" opacity="0" stroke="none" 
	d="
M77.000000,254.000000 
	C51.348145,254.000000 26.196289,254.000000 1.022217,254.000000 
	C1.022217,169.731110 1.022217,85.462227 1.022217,1.096667 
	C58.235004,1.096667 115.470222,1.096667 172.852722,1.096667 
	C172.852722,85.333130 172.852722,169.666534 172.852722,254.000000 
	C141.129166,254.000000 109.314583,254.000000 77.000000,254.000000 
M123.750069,210.770676 
	C142.307663,192.562439 149.710510,170.493561 147.045761,144.726349 
	C144.353134,118.689529 130.081940,99.874702 109.969124,84.395714 
	C117.980698,70.398132 125.937050,56.540745 133.815765,42.639351 
	C134.378708,41.646107 134.785538,39.396637 134.571243,39.301994 
	C129.645416,37.126450 133.128036,34.633217 134.289536,32.381016 
	C135.463287,30.105066 136.902008,27.965769 138.107574,25.961262 
	C133.187088,22.990294 128.530731,20.224241 123.922050,17.380909 
	C120.585701,15.322537 118.148361,15.429453 116.900101,19.730305 
	C116.505211,21.090878 115.477119,22.254169 114.900429,23.578142 
	C113.475792,26.848848 111.798401,26.644417 109.441696,23.243565 
	C108.361816,25.379530 107.613625,27.074720 106.684669,28.664274 
	C94.418953,49.652496 82.058601,70.585747 69.868675,91.617805 
	C62.426300,104.458611 55.407879,117.547470 47.837975,130.310760 
	C45.256115,134.663910 43.158455,138.040726 49.882999,139.539413 
	C47.185497,144.153946 44.694324,148.415527 41.823868,153.325943 
	C45.932674,155.746918 50.000046,157.989761 53.900791,160.492340 
	C56.822033,162.366486 58.417595,161.491089 59.854717,158.629776 
	C61.556656,155.241211 63.588947,152.018570 65.477242,148.725433 
	C67.622047,150.045990 69.173637,151.001312 70.849075,152.032883 
	C79.966629,136.211990 88.843224,120.809219 98.506340,104.041672 
	C103.623589,109.513153 108.899078,114.218170 113.046333,119.766525 
	C124.712669,135.374161 126.513397,153.246384 121.520798,171.337402 
	C118.578835,181.997787 111.881454,191.297134 102.969139,198.429443 
	C99.639511,201.094086 96.258018,203.980865 92.415398,205.651031 
	C86.485008,208.228622 80.137596,209.846725 73.040237,211.991318 
	C56.182835,211.994141 39.325325,211.972092 22.468220,212.044388 
	C21.030867,212.050552 19.596209,212.685287 18.015779,213.764969 
	C18.065935,214.510803 18.116091,215.256653 18.023041,216.929504 
	C18.023041,222.863602 18.023041,228.797714 18.023041,234.995865 
	C22.221264,234.995865 25.861683,235.000031 29.502092,234.995209 
	C69.657120,234.941956 109.812149,234.887314 150.469284,234.964142 
	C150.637436,234.923569 150.805588,234.882980 151.850021,234.962860 
	C152.196121,234.694748 152.840637,234.430923 152.844559,234.157898 
	C152.937347,227.711090 153.119370,221.256195 152.831284,214.823105 
	C152.786774,213.829025 150.545685,212.148727 149.290100,212.120209 
	C140.861740,211.928741 132.425186,212.098175 123.577049,211.997482 
	C123.577049,211.997482 123.140366,211.931549 123.062523,211.481644 
	C123.062523,211.481644 123.143486,211.032288 123.750069,210.770676 
M34.400017,177.088623 
	C44.996944,183.176010 55.593872,189.263412 66.108498,195.303528 
	C67.833725,193.248718 69.814209,191.815567 70.371811,189.955795 
	C70.891014,188.224136 73.825745,186.001190 69.943932,183.930359 
	C61.624657,179.492264 53.556480,174.583191 45.389324,169.860321 
	C36.784248,164.884216 28.230553,159.814972 19.520245,155.030640 
	C18.460781,154.448700 15.863260,154.845657 15.201029,155.717514 
	C13.498435,157.959045 12.482812,160.722382 11.106849,163.447037 
	C18.520233,167.898575 26.085810,172.441483 34.400017,177.088623 
z"/>
<path fill="#F3D041" opacity="1.000000" stroke="none" 
	d="
M18.166245,216.002487 
	C18.116091,215.256653 18.065935,214.510803 18.546474,213.391815 
	C35.480923,213.010391 51.884884,213.038345 68.288147,212.944534 
	C70.183105,212.933716 72.074188,212.245804 73.967072,211.871811 
	C80.137596,209.846725 86.485008,208.228622 92.415398,205.651031 
	C96.258018,203.980865 99.639511,201.094086 102.969139,198.429443 
	C111.881454,191.297134 118.578835,181.997787 121.520798,171.337402 
	C126.513397,153.246384 124.712669,135.374161 113.046333,119.766525 
	C108.899078,114.218170 103.623589,109.513153 98.506340,104.041672 
	C88.843224,120.809219 79.966629,136.211990 70.849075,152.032883 
	C69.173637,151.001312 67.622047,150.045990 65.477242,148.725433 
	C63.588947,152.018570 61.556656,155.241211 59.854717,158.629776 
	C58.417595,161.491089 56.822033,162.366486 53.900791,160.492340 
	C50.000046,157.989761 45.932674,155.746918 41.823868,153.325943 
	C44.694324,148.415527 47.185497,144.153946 49.882999,139.539413 
	C43.158455,138.040726 45.256115,134.663910 47.837975,130.310760 
	C55.407879,117.547470 62.426300,104.458611 69.868675,91.617805 
	C82.058601,70.585747 94.418953,49.652496 106.684669,28.664274 
	C107.613625,27.074720 108.361816,25.379530 109.441696,23.243565 
	C111.798401,26.644417 113.475792,26.848848 114.900429,23.578142 
	C115.477119,22.254169 116.505211,21.090878 116.900101,19.730305 
	C118.148361,15.429453 120.585701,15.322537 123.922050,17.380909 
	C128.530731,20.224241 133.187088,22.990294 138.107574,25.961262 
	C136.902008,27.965769 135.463287,30.105066 134.289536,32.381016 
	C133.128036,34.633217 129.645416,37.126450 134.571243,39.301994 
	C134.785538,39.396637 134.378708,41.646107 133.815765,42.639351 
	C125.937050,56.540745 117.980698,70.398132 109.969124,84.395714 
	C130.081940,99.874702 144.353134,118.689529 147.045761,144.726349 
	C149.710510,170.493561 142.307663,192.562439 123.322327,210.995026 
	C122.711014,211.522263 122.792938,211.759659 123.140366,211.931549 
	C123.140366,211.931549 123.577049,211.997482 124.140137,212.284790 
	C132.009079,212.719162 139.315170,212.976746 146.620712,212.962418 
	C149.829346,212.956131 151.113342,214.134613 151.030228,217.365112 
	C150.880371,223.187500 150.978943,229.016281 150.973755,234.842392 
	C150.805588,234.882980 150.637436,234.923569 149.863861,234.694626 
	C147.277740,234.285645 145.297134,234.025787 143.316345,234.024521 
	C105.186111,234.000259 67.055847,234.015717 28.925602,233.999588 
	C19.192862,233.995468 20.168354,234.902161 19.909842,225.202927 
	C19.827747,222.122803 18.774879,219.068573 18.166245,216.002487 
z"/>
<path fill="#F4D147" opacity="1.000000" stroke="none" 
	d="
M34.025700,177.036514 
	C26.085810,172.441483 18.520233,167.898575 11.106849,163.447037 
	C12.482812,160.722382 13.498435,157.959045 15.201029,155.717514 
	C15.863260,154.845657 18.460781,154.448700 19.520245,155.030640 
	C28.230553,159.814972 36.784248,164.884216 45.389324,169.860321 
	C53.556480,174.583191 61.624657,179.492264 69.943932,183.930359 
	C73.825745,186.001190 70.891014,188.224136 70.371811,189.955795 
	C69.814209,191.815567 67.833725,193.248718 66.108498,195.303528 
	C55.593872,189.263412 44.996944,183.176010 34.025700,177.036514 
z"/>
<path fill="#F5D351" opacity="1.000000" stroke="none" 
	d="
M18.094643,216.466003 
	C18.774879,219.068573 19.827747,222.122803 19.909842,225.202927 
	C20.168354,234.902161 19.192862,233.995468 28.925602,233.999588 
	C67.055847,234.015717 105.186111,234.000259 143.316345,234.024521 
	C145.297134,234.025787 147.277740,234.285645 149.612808,234.629059 
	C109.812149,234.887314 69.657120,234.941956 29.502092,234.995209 
	C25.861683,235.000031 22.221264,234.995865 18.023041,234.995865 
	C18.023041,228.797714 18.023041,222.863602 18.094643,216.466003 
z"/>
<path fill="#F5D351" opacity="1.000000" stroke="none" 
	d="
M151.411896,234.902618 
	C150.978943,229.016281 150.880371,223.187500 151.030228,217.365112 
	C151.113342,214.134613 149.829346,212.956131 146.620712,212.962418 
	C139.315170,212.976746 132.009079,212.719162 124.347260,212.361343 
	C132.425186,212.098175 140.861740,211.928741 149.290100,212.120209 
	C150.545685,212.148727 152.786774,213.829025 152.831284,214.823105 
	C153.119370,221.256195 152.937347,227.711090 152.844559,234.157898 
	C152.840637,234.430923 152.196121,234.694748 151.411896,234.902618 
z"/>
<path fill="#F5D55E" opacity="1.000000" stroke="none" 
	d="
M73.503654,211.931564 
	C72.074188,212.245804 70.183105,212.933716 68.288147,212.944534 
	C51.884884,213.038345 35.480923,213.010391 18.618734,213.023346 
	C19.596209,212.685287 21.030867,212.050552 22.468220,212.044388 
	C39.325325,211.972092 56.182835,211.994141 73.503654,211.931564 
z"/>
<path fill="#F5D351" opacity="1.000000" stroke="none" 
	d="
M123.101440,211.706604 
	C122.792938,211.759659 122.711014,211.522263 123.019043,211.125839 
	C123.143486,211.032288 123.062523,211.481644 123.101440,211.706604 
z"/>
</svg>