<svg version="1.1" id="Layer_1" xmlns="http://www.w3.org/2000/svg" xmlns:xlink="http://www.w3.org/1999/xlink" x="0px" y="0px"
	 width="100%" viewBox="0 0 730 342" enable-background="new 0 0 730 342" xml:space="preserve">
<path fill="#FFFFFF" opacity="0" stroke="none" 
	d="
M438.000000,343.000000 
	C292.033905,343.000000 146.567825,343.000000 1.050864,343.000000 
	C1.050864,229.060501 1.050864,115.120964 1.050864,1.090716 
	C244.216110,1.090716 487.432281,1.090716 730.824219,1.090716 
	C730.824219,114.999786 730.824219,228.999863 730.824219,343.000000 
	C633.454285,343.000000 535.977112,343.000000 438.000000,343.000000 
M199.962357,152.408493 
	C199.651550,152.241623 199.340759,152.074753 199.023972,151.977432 
	C199.023972,151.977432 199.093628,151.972885 198.926407,151.426636 
	C198.594513,151.337509 198.262604,151.248383 197.326660,150.796478 
	C191.240601,140.878616 183.391144,132.566757 173.588196,126.373711 
	C169.922150,124.057671 169.211227,121.912575 171.225266,118.459320 
	C175.538528,111.063766 179.934540,103.716133 184.209122,96.298431 
	C189.553604,87.024117 194.810120,77.699112 200.221542,68.190536 
	C196.470093,66.478691 194.573410,65.033340 197.752243,61.420105 
	C199.989090,58.877594 201.111420,55.354565 202.807175,52.125015 
	C198.144958,49.388371 193.567215,46.663494 188.953079,44.001713 
	C181.918503,39.943638 181.911850,39.964737 177.564590,46.834850 
	C176.784134,48.068233 176.075653,49.380486 175.105225,50.448513 
	C174.467621,51.150265 173.075272,52.123695 172.608414,51.874561 
	C168.100952,49.469193 167.109863,52.660164 165.547562,55.743832 
	C163.648026,59.493137 161.159775,62.939003 159.058029,66.591988 
	C152.444778,78.086304 145.930527,89.637611 139.308517,101.126846 
	C130.907074,115.703423 122.408401,130.223969 114.006180,144.800110 
	C106.661087,157.542328 99.391479,170.328079 91.872231,183.472702 
	C93.744553,185.071411 95.702110,186.742889 97.754578,188.495407 
	C94.835922,193.766876 91.893257,199.081711 88.771294,204.720383 
	C94.698753,208.226288 100.503082,211.659378 106.583847,215.255966 
	C109.901077,209.654846 113.141411,204.183594 116.459648,198.580780 
	C119.827377,200.805786 122.236900,204.153305 125.254929,198.552719 
	C133.226929,183.758987 141.725281,169.247391 150.114868,154.681519 
	C151.745193,151.850937 153.831390,149.282959 156.088150,146.047943 
	C157.493576,147.728149 158.153397,148.722824 159.015976,149.489349 
	C159.850983,150.231384 161.011063,150.612473 161.829514,151.367615 
	C180.269608,168.381149 189.519821,188.928024 186.002472,214.380127 
	C183.987488,228.960648 177.854553,241.639618 167.973053,252.415787 
	C161.559769,259.409729 154.487595,265.677521 145.031006,268.452148 
	C137.996735,270.516022 130.992538,272.682404 123.500420,274.095062 
	C103.628578,274.062988 83.756721,274.016754 63.884937,274.040955 
	C62.893162,274.042175 61.902126,274.655212 60.978790,274.985474 
	C60.978790,274.985474 60.964821,274.918854 60.186211,275.337036 
	C60.124283,281.769928 59.967968,288.204010 60.048042,294.635132 
	C60.078987,297.120514 60.646015,299.599182 60.973534,302.011536 
	C60.973534,302.011536 60.904125,302.015991 61.311481,302.805328 
	C61.804623,302.868530 62.297752,302.987030 62.790905,302.987152 
	C114.060463,302.997192 165.330017,303.004791 216.599548,302.958740 
	C217.763489,302.957703 218.926880,302.342560 220.019730,302.019043 
	C220.019730,302.019043 220.028961,302.089447 220.809357,301.671783 
	C220.872864,295.233734 221.030853,288.794525 220.952179,282.358215 
	C220.921768,279.872284 220.354370,277.392914 220.021347,274.979828 
	C220.021347,274.979828 220.091354,274.982178 219.687057,274.191833 
	C217.530899,274.127289 215.375107,274.045013 213.218521,274.001312 
	C204.115189,273.816986 195.011597,273.644196 186.409134,273.087311 
	C189.016586,270.157074 191.843704,267.391693 194.189926,264.265411 
	C200.982132,255.214951 206.775482,245.602249 210.019989,234.625931 
	C213.788162,221.878006 215.788696,208.895065 213.885269,195.676376 
	C212.816849,188.256485 210.594070,181.002823 208.938522,172.933167 
	C208.310715,170.928009 207.682892,168.922852 207.033997,166.983536 
	C207.033997,166.983536 207.103104,166.981659 207.033966,166.332077 
	C206.707626,165.860428 206.381271,165.388794 206.033905,164.983047 
	C206.033905,164.983047 206.103073,164.982941 206.030960,164.333420 
	C205.705780,163.861618 205.380615,163.389801 205.033752,162.983612 
	C205.033752,162.983612 205.102859,162.983978 205.027451,162.334488 
	C204.703232,161.862366 204.378998,161.390228 204.033752,160.983978 
	C204.033752,160.983978 204.102875,160.985748 204.023956,160.336121 
	C203.700592,159.863464 203.377228,159.390793 203.035004,158.986649 
	C203.035004,158.986649 203.104889,158.999527 203.021118,158.268738 
	C202.655426,157.686172 202.289749,157.103592 201.979385,156.513840 
	C201.979385,156.513840 201.933563,156.545944 201.985458,155.731140 
	C201.633667,155.328568 201.281876,154.925995 200.978745,154.522247 
	C200.978745,154.522247 200.939133,154.550995 200.997559,153.836395 
	C200.686295,153.529526 200.375031,153.222656 200.017120,152.989227 
	C200.017120,152.989227 200.091248,152.943649 199.962357,152.408493 
M398.992493,141.950760 
	C398.970673,145.956039 398.948853,149.961334 398.149078,154.373245 
	C398.100189,175.923553 398.042969,197.473846 398.041229,219.024170 
	C398.041168,219.693375 398.615936,220.362625 398.992035,221.941208 
	C398.662201,227.007858 398.122223,232.075714 398.151489,237.140305 
	C398.158691,238.394043 400.012665,239.637146 401.784180,240.984436 
	C410.281555,240.926666 418.778961,240.868881 428.148468,240.848495 
	C429.386383,240.848495 430.624298,240.848495 431.989960,240.848495 
	C431.989960,226.345123 431.989960,212.210403 432.923370,198.026123 
	C445.133667,197.730560 457.465088,198.986481 469.242462,194.134521 
	C479.574371,189.878052 487.103668,183.142548 491.886536,172.818451 
	C496.089447,163.746277 496.784027,154.317749 495.733521,144.881561 
	C494.971100,138.033005 493.315613,130.763901 490.011627,124.820007 
	C481.563507,109.621880 467.217529,103.423431 450.430786,103.016411 
	C437.893036,102.712402 425.327393,103.322868 412.781036,103.734840 
	C408.446564,103.877167 404.132721,104.648636 398.962952,105.101685 
	C398.642120,105.891418 398.046753,106.679497 398.041992,107.471138 
	C397.979492,117.831604 397.979370,128.192703 398.040436,138.553192 
	C398.045288,139.381485 398.616852,140.206421 398.992493,141.950760 
M548.118530,103.872955 
	C537.769226,103.948006 527.419922,104.023056 516.212646,104.337364 
	C516.141846,132.765244 516.057556,161.193100 516.005432,189.621017 
	C515.976135,205.584518 516.010010,221.548141 515.987183,237.511673 
	C515.984314,239.524811 515.540405,241.768631 519.648315,240.960098 
	C529.486633,242.331635 539.305115,243.015915 549.801880,239.692993 
	C549.866211,239.200134 549.986755,238.707275 549.986877,238.214401 
	C549.997192,194.608231 550.006165,151.002029 549.954956,107.395927 
	C549.953674,106.296928 549.282288,105.198723 548.118530,103.872955 
M321.184662,163.791016 
	C320.370728,169.751862 318.447052,175.525360 320.406860,181.780457 
	C321.935577,186.659729 326.825073,190.308075 332.387390,189.858597 
	C336.146210,189.858597 339.905029,189.858597 343.940521,189.858597 
	C343.940521,199.043503 343.940521,207.505051 343.109161,216.019913 
	C335.765045,216.306656 328.383362,217.196381 321.085510,216.741180 
	C309.669067,216.029053 302.774200,209.211609 298.837036,198.648010 
	C293.674500,184.796783 293.858032,170.601440 296.308533,156.512863 
	C297.934723,147.163666 301.067993,138.128342 310.183533,132.488251 
	C318.521179,127.329460 327.539032,128.022629 336.134369,129.396820 
	C343.042938,130.501312 349.458923,134.558319 356.173431,137.093475 
	C357.906799,137.747955 360.754089,138.524170 361.705688,137.681534 
	C368.171936,131.955368 373.211884,125.178352 374.941498,116.130745 
	C360.582489,107.280243 345.256500,101.506592 328.402924,101.145485 
	C317.735992,100.916939 307.223724,102.884026 297.213074,106.932671 
	C288.569061,110.428581 281.623230,116.728302 276.362274,123.704170 
	C267.419800,135.561569 262.624847,149.858261 261.639069,164.649902 
	C260.873047,176.143494 262.030731,187.861206 264.483551,199.257904 
	C267.687927,214.146713 274.676880,226.381699 288.058685,234.832077 
	C299.737030,242.206772 312.291840,244.672653 325.675598,243.931778 
	C331.668640,243.600021 337.657074,242.574341 343.563965,241.431381 
	C353.685669,239.472916 363.741638,237.174866 374.264954,235.675323 
	C374.512421,235.138992 374.976288,234.602585 374.976105,234.066360 
	C374.970276,216.386658 374.919952,198.706970 374.935303,180.224594 
	C374.191467,170.401169 368.535675,165.059433 358.787140,162.250259 
	C346.782257,162.161667 334.777374,162.056671 322.772369,162.035645 
	C322.206757,162.034653 321.639862,162.780334 321.184662,163.791016 
M649.247192,157.797363 
	C654.941467,160.709213 660.771912,161.109283 667.116760,159.955719 
	C676.598328,158.231857 680.839050,153.424362 681.040222,143.629852 
	C681.417236,125.273300 671.196411,113.654320 655.954285,106.570877 
	C639.864624,99.093597 622.669373,98.255692 606.031311,105.257790 
	C599.786804,107.885796 593.505920,111.839615 588.995422,116.787697 
	C584.268066,121.973701 581.215393,128.881927 578.234619,135.404755 
	C575.695496,140.961227 573.618347,146.922134 572.583984,152.919235 
	C571.523010,159.070267 571.990601,165.482895 571.760986,171.780014 
	C571.582153,176.685226 570.658020,181.687210 571.327820,186.469345 
	C572.251526,193.064209 574.254944,199.521820 575.988708,205.986511 
	C580.131897,221.434464 588.961304,233.282623 603.980774,239.352600 
	C613.603210,243.241409 623.576599,244.830688 634.385437,243.101059 
	C649.577820,240.669937 663.558044,236.203033 675.806763,226.736908 
	C680.838562,222.848175 681.508301,220.811417 678.161194,215.225891 
	C676.138367,211.850403 673.996582,208.279282 671.056274,205.810989 
	C668.967773,204.057739 666.882202,200.083939 662.693481,202.748764 
	C658.794556,205.229218 654.767944,207.523575 650.702454,209.724258 
	C642.969299,213.910294 634.726562,216.087357 625.979248,214.212036 
	C613.434998,211.522690 609.098877,201.385544 607.264221,190.603195 
	C605.692200,181.364517 605.671936,171.712860 606.197998,162.312820 
	C606.625366,154.675125 607.955505,146.805908 610.542542,139.637466 
	C614.382141,128.998734 623.729370,125.880363 632.317810,127.354347 
	C646.761414,129.833176 651.602905,146.617599 649.247192,157.797363 
M113.605453,236.938263 
	C106.091263,232.480865 98.606247,227.973343 91.055527,223.578705 
	C81.541672,218.041519 72.027374,212.499207 62.370728,207.219849 
	C60.971138,206.454697 57.867165,206.391663 57.124111,207.295807 
	C54.931118,209.964233 53.527134,213.281067 51.623440,216.685745 
	C71.653328,228.259186 91.287659,239.742310 111.072487,250.959991 
	C117.880066,254.819794 117.720955,254.307220 122.013222,247.548965 
	C124.538368,243.573059 123.744255,241.834396 119.806046,240.238434 
	C117.875587,239.456116 116.164078,238.133545 113.605453,236.938263 
z"/>
<path fill="#F1C938" opacity="1.000000" stroke="none" 
	d="
M208.891388,173.674271 
	C210.594070,181.002823 212.816849,188.256485 213.885269,195.676376 
	C215.788696,208.895065 213.788162,221.878006 210.019989,234.625931 
	C206.775482,245.602249 200.982132,255.214951 194.189926,264.265411 
	C191.843704,267.391693 189.016586,270.157074 185.824646,273.360321 
	C185.143433,273.915405 184.901550,274.391937 184.974670,274.446533 
	C185.327850,274.710205 185.765656,275.026367 186.173660,275.026642 
	C197.479553,275.033966 208.785446,275.005035 220.091354,274.982178 
	C220.091354,274.982178 220.021347,274.979828 219.950684,275.414307 
	C219.929672,284.595703 219.979309,293.342560 220.028961,302.089447 
	C220.028961,302.089447 220.019730,302.019043 219.581757,301.983276 
	C166.397232,301.970306 113.650681,301.993164 60.904125,302.015991 
	C60.904125,302.015991 60.973534,302.011536 60.989525,301.572815 
	C60.991951,292.395691 60.978386,283.657257 60.964821,274.918854 
	C60.964821,274.918854 60.978790,274.985474 61.417892,275.020508 
	C82.562973,274.971436 103.268959,274.887268 123.974937,274.803131 
	C130.992538,272.682404 137.996735,270.516022 145.031006,268.452148 
	C154.487595,265.677521 161.559769,259.409729 167.973053,252.415787 
	C177.854553,241.639618 183.987488,228.960648 186.002472,214.380127 
	C189.519821,188.928024 180.269608,168.381149 161.829514,151.367615 
	C161.011063,150.612473 159.850983,150.231384 159.015976,149.489349 
	C158.153397,148.722824 157.493576,147.728149 156.088150,146.047943 
	C153.831390,149.282959 151.745193,151.850937 150.114868,154.681519 
	C141.725281,169.247391 133.226929,183.758987 125.254929,198.552719 
	C122.236900,204.153305 119.827377,200.805786 116.459648,198.580780 
	C113.141411,204.183594 109.901077,209.654846 106.583847,215.255966 
	C100.503082,211.659378 94.698753,208.226288 88.771294,204.720383 
	C91.893257,199.081711 94.835922,193.766876 97.754578,188.495407 
	C95.702110,186.742889 93.744553,185.071411 91.872231,183.472702 
	C99.391479,170.328079 106.661087,157.542328 114.006180,144.800110 
	C122.408401,130.223969 130.907074,115.703423 139.308517,101.126846 
	C145.930527,89.637611 152.444778,78.086304 159.058029,66.591988 
	C161.159775,62.939003 163.648026,59.493137 165.547562,55.743832 
	C167.109863,52.660164 168.100952,49.469193 172.608414,51.874561 
	C173.075272,52.123695 174.467621,51.150265 175.105225,50.448513 
	C176.075653,49.380486 176.784134,48.068233 177.564590,46.834850 
	C181.911850,39.964737 181.918503,39.943638 188.953079,44.001713 
	C193.567215,46.663494 198.144958,49.388371 202.807175,52.125015 
	C201.111420,55.354565 199.989090,58.877594 197.752243,61.420105 
	C194.573410,65.033340 196.470093,66.478691 200.221542,68.190536 
	C194.810120,77.699112 189.553604,87.024117 184.209122,96.298431 
	C179.934540,103.716133 175.538528,111.063766 171.225266,118.459320 
	C169.211227,121.912575 169.922150,124.057671 173.588196,126.373711 
	C183.391144,132.566757 191.240601,140.878616 197.739655,151.221771 
	C198.466324,151.755661 198.779968,151.864273 199.093628,151.972885 
	C199.093628,151.972885 199.023972,151.977432 198.994934,152.288574 
	C199.341003,152.714371 199.716125,152.829010 200.091248,152.943649 
	C200.091248,152.943649 200.017120,152.989227 199.905869,153.314636 
	C200.176132,153.943695 200.557632,154.247345 200.939133,154.550995 
	C200.939133,154.550995 200.978745,154.522247 200.914642,154.942413 
	C201.211563,155.757050 201.572556,156.151489 201.933563,156.545944 
	C201.933563,156.545944 201.979385,156.513840 201.894653,156.910583 
	C202.241577,157.871384 202.673233,158.435455 203.104889,158.999527 
	C203.104889,158.999527 203.035004,158.986649 202.913895,159.289581 
	C203.229477,160.056915 203.666183,160.521332 204.102875,160.985748 
	C204.102875,160.985748 204.033752,160.983978 203.912170,161.288956 
	C204.227997,162.057281 204.665421,162.520630 205.102859,162.983978 
	C205.102859,162.983978 205.033752,162.983612 204.912506,163.289307 
	C205.228531,164.057648 205.665802,164.520294 206.103073,164.982941 
	C206.103073,164.982941 206.033905,164.983047 205.917374,165.290253 
	C206.234924,166.058853 206.669022,166.520248 207.103104,166.981659 
	C207.103104,166.981659 207.033997,166.983536 206.911560,167.314392 
	C207.489883,169.654922 208.190628,171.664597 208.891388,173.674271 
z"/>
<path fill="#0F4274" opacity="1.000000" stroke="none" 
	d="
M332.010284,189.081863 
	C326.825073,190.308075 321.935577,186.659729 320.406860,181.780457 
	C318.447052,175.525360 320.370728,169.751862 321.585205,163.559845 
	C334.406494,163.229584 346.827301,163.130493 359.248077,163.031387 
	C368.535675,165.059433 374.191467,170.401169 374.547272,180.860291 
	C374.047882,199.337128 373.936554,217.178268 373.825226,235.019394 
	C363.741638,237.174866 353.685669,239.472916 343.563965,241.431381 
	C337.657074,242.574341 331.668640,243.600021 325.675598,243.931778 
	C312.291840,244.672653 299.737030,242.206772 288.058685,234.832077 
	C274.676880,226.381699 267.687927,214.146713 264.483551,199.257904 
	C262.030731,187.861206 260.873047,176.143494 261.639069,164.649902 
	C262.624847,149.858261 267.419800,135.561569 276.362274,123.704170 
	C281.623230,116.728302 288.569061,110.428581 297.213074,106.932671 
	C307.223724,102.884026 317.735992,100.916939 328.402924,101.145485 
	C345.256500,101.506592 360.582489,107.280243 374.941498,116.130745 
	C373.211884,125.178352 368.171936,131.955368 361.705688,137.681534 
	C360.754089,138.524170 357.906799,137.747955 356.173431,137.093475 
	C349.458923,134.558319 343.042938,130.501312 336.134369,129.396820 
	C327.539032,128.022629 318.521179,127.329460 310.183533,132.488251 
	C301.067993,138.128342 297.934723,147.163666 296.308533,156.512863 
	C293.858032,170.601440 293.674500,184.796783 298.837036,198.648010 
	C302.774200,209.211609 309.669067,216.029053 321.085510,216.741180 
	C328.383362,217.196381 335.765045,216.306656 343.895508,215.780014 
	C344.681824,206.845810 344.681824,198.151505 344.681824,189.081863 
	C340.244568,189.081863 336.127441,189.081863 332.010284,189.081863 
z"/>
<path fill="#104275" opacity="1.000000" stroke="none" 
	d="
M649.134399,157.424820 
	C651.602905,146.617599 646.761414,129.833176 632.317810,127.354347 
	C623.729370,125.880363 614.382141,128.998734 610.542542,139.637466 
	C607.955505,146.805908 606.625366,154.675125 606.197998,162.312820 
	C605.671936,171.712860 605.692200,181.364517 607.264221,190.603195 
	C609.098877,201.385544 613.434998,211.522690 625.979248,214.212036 
	C634.726562,216.087357 642.969299,213.910294 650.702454,209.724258 
	C654.767944,207.523575 658.794556,205.229218 662.693481,202.748764 
	C666.882202,200.083939 668.967773,204.057739 671.056274,205.810989 
	C673.996582,208.279282 676.138367,211.850403 678.161194,215.225891 
	C681.508301,220.811417 680.838562,222.848175 675.806763,226.736908 
	C663.558044,236.203033 649.577820,240.669937 634.385437,243.101059 
	C623.576599,244.830688 613.603210,243.241409 603.980774,239.352600 
	C588.961304,233.282623 580.131897,221.434464 575.988708,205.986511 
	C574.254944,199.521820 572.251526,193.064209 571.327820,186.469345 
	C570.658020,181.687210 571.582153,176.685226 571.760986,171.780014 
	C571.990601,165.482895 571.523010,159.070267 572.583984,152.919235 
	C573.618347,146.922134 575.695496,140.961227 578.234619,135.404755 
	C581.215393,128.881927 584.268066,121.973701 588.995422,116.787697 
	C593.505920,111.839615 599.786804,107.885796 606.031311,105.257790 
	C622.669373,98.255692 639.864624,99.093597 655.954285,106.570877 
	C671.196411,113.654320 681.417236,125.273300 681.040222,143.629852 
	C680.839050,153.424362 676.598328,158.231857 667.116760,159.955719 
	C660.771912,161.109283 654.941467,160.709213 649.134399,157.424820 
z"/>
<path fill="#0E4173" opacity="1.000000" stroke="none" 
	d="
M427.276337,240.811111 
	C418.778961,240.868881 410.281555,240.926666 401.248596,240.548187 
	C400.348358,233.680878 399.983765,227.249832 399.645691,220.362427 
	C399.654266,197.995789 399.636353,176.085480 399.758545,153.717010 
	C399.805603,149.112274 399.712494,144.965683 399.645935,140.362732 
	C399.718109,128.315140 399.763794,116.723930 399.809448,105.132713 
	C404.132721,104.648636 408.446564,103.877167 412.781036,103.734840 
	C425.327393,103.322868 437.893036,102.712402 450.430786,103.016411 
	C467.217529,103.423431 481.563507,109.621880 490.011627,124.820007 
	C493.315613,130.763901 494.971100,138.033005 495.733521,144.881561 
	C496.784027,154.317749 496.089447,163.746277 491.886536,172.818451 
	C487.103668,183.142548 479.574371,189.878052 469.242462,194.134521 
	C457.465088,198.986481 445.133667,197.730560 432.077881,198.251862 
	C431.165375,210.754318 430.961395,223.032852 431.125488,235.306473 
	C431.167633,238.459976 430.442627,240.283020 427.276337,240.811111 
M444.427216,172.986588 
	C452.785767,171.279526 461.102356,169.576324 461.364166,158.398865 
	C461.434662,155.387726 461.788910,152.374039 462.166504,149.380890 
	C463.825714,136.229462 454.609528,127.709724 443.408173,127.984573 
	C439.599091,128.078033 435.787170,128.053284 431.233307,128.503281 
	C431.233307,143.544464 431.233307,158.585648 431.233307,174.261490 
	C435.759155,173.886917 439.684631,173.562042 444.427216,172.986588 
z"/>
<path fill="#104274" opacity="1.000000" stroke="none" 
	d="
M549.019775,240.110657 
	C539.305115,243.015915 529.486633,242.331635 519.050781,240.581360 
	C517.995117,238.410263 517.140076,236.618622 517.136902,234.825485 
	C517.059753,191.249802 517.073364,147.673935 517.070618,104.098106 
	C527.419922,104.023056 537.769226,103.948006 548.489380,104.445076 
	C548.867188,110.002541 548.875427,114.987877 548.881165,119.973221 
	C548.927612,160.019028 548.973633,200.064850 549.019775,240.110657 
z"/>
<path fill="#F1C93B" opacity="1.000000" stroke="none" 
	d="
M113.979462,236.996887 
	C116.164078,238.133545 117.875587,239.456116 119.806046,240.238434 
	C123.744255,241.834396 124.538368,243.573059 122.013222,247.548965 
	C117.720955,254.307220 117.880066,254.819794 111.072487,250.959991 
	C91.287659,239.742310 71.653328,228.259186 51.623440,216.685745 
	C53.527134,213.281067 54.931118,209.964233 57.124111,207.295807 
	C57.867165,206.391663 60.971138,206.454697 62.370728,207.219849 
	C72.027374,212.499207 81.541672,218.041519 91.055527,223.578705 
	C98.606247,227.973343 106.091263,232.480865 113.979462,236.996887 
z"/>
<path fill="#FFFFFF" opacity="0" stroke="none" 
	d="
M61.107803,302.410645 
	C113.650681,301.993164 166.397232,301.970306 219.617157,301.980652 
	C218.926880,302.342560 217.763489,302.957703 216.599548,302.958740 
	C165.330017,303.004791 114.060463,302.997192 62.790905,302.987152 
	C62.297752,302.987030 61.804623,302.868530 61.107803,302.410645 
z"/>
<path fill="#C2CFDC" opacity="0" stroke="none" 
	d="
M516.641602,104.217735 
	C517.073364,147.673935 517.059753,191.249802 517.136902,234.825485 
	C517.140076,236.618622 517.995117,238.410263 518.658081,240.527802 
	C515.540405,241.768631 515.984314,239.524811 515.987183,237.511673 
	C516.010010,221.548141 515.976135,205.584518 516.005432,189.621017 
	C516.057556,161.193100 516.141846,132.765244 516.641602,104.217735 
z"/>
<path fill="#FDFDFE" opacity="0" stroke="none" 
	d="
M549.410828,239.901825 
	C548.973633,200.064850 548.927612,160.019028 548.881165,119.973221 
	C548.875427,114.987877 548.867188,110.002541 548.891846,104.558670 
	C549.282288,105.198723 549.953674,106.296928 549.954956,107.395927 
	C550.006165,151.002029 549.997192,194.608231 549.986877,238.214401 
	C549.986755,238.707275 549.866211,239.200134 549.410828,239.901825 
z"/>
<path fill="#FCFDFD" opacity="0" stroke="none" 
	d="
M399.618439,154.175171 
	C399.636353,176.085480 399.654266,197.995789 399.441071,220.315979 
	C399.209930,220.725876 398.922729,221.031845 398.922729,221.031860 
	C398.615936,220.362625 398.041168,219.693375 398.041229,219.024170 
	C398.042969,197.473846 398.100189,175.923553 398.681152,154.320847 
	C399.213257,154.268448 399.618439,154.175171 399.618439,154.175171 
z"/>
<path fill="#FCFDFD" opacity="0" stroke="none" 
	d="
M399.386230,105.117203 
	C399.763794,116.723930 399.718109,128.315140 399.442230,140.318466 
	C399.212036,140.730576 398.925049,141.032913 398.925049,141.032913 
	C398.616852,140.206421 398.045288,139.381485 398.040436,138.553192 
	C397.979370,128.192703 397.979492,117.831604 398.041992,107.471138 
	C398.046753,106.679497 398.642120,105.891418 399.386230,105.117203 
z"/>
<path fill="#FFFFFE" opacity="0" stroke="none" 
	d="
M123.737679,274.449097 
	C103.268959,274.887268 82.562973,274.971436 61.383873,275.019470 
	C61.902126,274.655212 62.893162,274.042175 63.884937,274.040955 
	C83.756721,274.016754 103.628578,274.062988 123.737679,274.449097 
z"/>
<path fill="#AFC1D2" opacity="0" stroke="none" 
	d="
M374.045105,235.347351 
	C373.936554,217.178268 374.047882,199.337128 374.517700,181.261642 
	C374.919952,198.706970 374.970276,216.386658 374.976105,234.066360 
	C374.976288,234.602585 374.512421,235.138992 374.045105,235.347351 
z"/>
<path fill="#AFC0D0" opacity="0" stroke="none" 
	d="
M427.712402,240.829803 
	C430.442627,240.283020 431.167633,238.459976 431.125488,235.306473 
	C430.961395,223.032852 431.165375,210.754318 431.611206,198.276642 
	C431.989960,212.210403 431.989960,226.345123 431.989960,240.848495 
	C430.624298,240.848495 429.386383,240.848495 427.712402,240.829803 
z"/>
<path fill="#A0B4C8" opacity="0" stroke="none" 
	d="
M332.198853,189.470230 
	C336.127441,189.081863 340.244568,189.081863 344.681824,189.081863 
	C344.681824,198.151505 344.681824,206.845810 344.311157,215.753357 
	C343.940521,207.505051 343.940521,199.043503 343.940521,189.858597 
	C339.905029,189.858597 336.146210,189.858597 332.198853,189.470230 
z"/>
<path fill="#B0C1D1" opacity="0" stroke="none" 
	d="
M359.017609,162.640823 
	C346.827301,163.130493 334.406494,163.229584 321.529633,163.253479 
	C321.639862,162.780334 322.206757,162.034653 322.772369,162.035645 
	C334.777374,162.056671 346.782257,162.161667 359.017609,162.640823 
z"/>
<path fill="#FFFEFD" opacity="0" stroke="none" 
	d="
M219.889206,274.587006 
	C208.785446,275.005035 197.479553,275.033966 186.173660,275.026642 
	C185.765656,275.026367 185.327850,274.710205 184.974670,274.446533 
	C184.901550,274.391937 185.143433,273.915405 185.574127,273.550262 
	C195.011597,273.644196 204.115189,273.816986 213.218521,274.001312 
	C215.375107,274.045013 217.530899,274.127289 219.889206,274.587006 
z"/>
<path fill="#A1B6C9" opacity="0" stroke="none" 
	d="
M398.957397,221.486526 
	C398.922729,221.031845 399.209930,220.725876 399.414551,220.772324 
	C399.983765,227.249832 400.348358,233.680878 400.865356,240.498535 
	C400.012665,239.637146 398.158691,238.394043 398.151489,237.140305 
	C398.122223,232.075714 398.662201,227.007858 398.957397,221.486526 
z"/>
<path fill="#FCF4D6" opacity="0" stroke="none" 
	d="
M220.419159,301.880615 
	C219.979309,293.342560 219.929672,284.595703 219.955826,275.379700 
	C220.354370,277.392914 220.921768,279.872284 220.952179,282.358215 
	C221.030853,288.794525 220.872864,295.233734 220.419159,301.880615 
z"/>
<path fill="#F9E8AB" opacity="0" stroke="none" 
	d="
M60.575516,275.127930 
	C60.978386,283.657257 60.991951,292.395691 60.987160,301.607513 
	C60.646015,299.599182 60.078987,297.120514 60.048042,294.635132 
	C59.967968,288.204010 60.124283,281.769928 60.575516,275.127930 
z"/>
<path fill="#A1B6C9" opacity="0" stroke="none" 
	d="
M398.958771,141.491837 
	C398.925049,141.032913 399.212036,140.730576 399.415710,140.774841 
	C399.712494,144.965683 399.805603,149.112274 399.758545,153.717010 
	C399.618439,154.175171 399.213257,154.268448 399.070129,154.117523 
	C398.948853,149.961334 398.970673,145.956039 398.958771,141.491837 
z"/>
<path fill="#FBF1CC" opacity="0" stroke="none" 
	d="
M208.914948,173.303711 
	C208.190628,171.664597 207.489883,169.654922 206.922104,167.281464 
	C207.682892,168.922852 208.310715,170.928009 208.914948,173.303711 
z"/>
<path fill="#FBF1CC" opacity="0" stroke="none" 
	d="
M207.068542,166.656860 
	C206.669022,166.520248 206.234924,166.058853 205.927887,165.257294 
	C206.381271,165.388794 206.707626,165.860428 207.068542,166.656860 
z"/>
<path fill="#FBF1CC" opacity="0" stroke="none" 
	d="
M206.067017,164.658173 
	C205.665802,164.520294 205.228531,164.057648 204.923340,163.256500 
	C205.380615,163.389801 205.705780,163.861618 206.067017,164.658173 
z"/>
<path fill="#FBF1CC" opacity="0" stroke="none" 
	d="
M205.065155,162.659241 
	C204.665421,162.520630 204.227997,162.057281 203.922668,161.256012 
	C204.378998,161.390228 204.703232,161.862366 205.065155,162.659241 
z"/>
<path fill="#FBF1CC" opacity="0" stroke="none" 
	d="
M204.063416,160.660934 
	C203.666183,160.521332 203.229477,160.056915 202.923325,159.255310 
	C203.377228,159.390793 203.700592,159.863464 204.063416,160.660934 
z"/>
<path fill="#FBF1CC" opacity="0" stroke="none" 
	d="
M203.063004,158.634125 
	C202.673233,158.435455 202.241577,157.871384 201.866974,156.914169 
	C202.289749,157.103592 202.655426,157.686172 203.063004,158.634125 
z"/>
<path fill="#FBF1CC" opacity="0" stroke="none" 
	d="
M199.010010,151.699768 
	C198.779968,151.864273 198.466324,151.755661 198.041687,151.403137 
	C198.262604,151.248383 198.594513,151.337509 199.010010,151.699768 
z"/>
<path fill="#FBF1CC" opacity="0" stroke="none" 
	d="
M201.959503,156.138550 
	C201.572556,156.151489 201.211563,155.757050 200.890320,154.943008 
	C201.281876,154.925995 201.633667,155.328568 201.959503,156.138550 
z"/>
<path fill="#FBF1CC" opacity="0" stroke="none" 
	d="
M200.968353,154.193695 
	C200.557632,154.247345 200.176132,153.943695 199.929199,153.277908 
	C200.375031,153.222656 200.686295,153.529526 200.968353,154.193695 
z"/>
<path fill="#FBF1CC" opacity="0" stroke="none" 
	d="
M200.026794,152.676071 
	C199.716125,152.829010 199.341003,152.714371 198.997925,152.253815 
	C199.340759,152.074753 199.651550,152.241623 200.026794,152.676071 
z"/>
<path fill="#FFFFFF" opacity="0" stroke="none" 
	d="
M431.976532,128.082535 
	C435.787170,128.053284 439.599091,128.078033 443.408173,127.984573 
	C454.609528,127.709724 463.825714,136.229462 462.166504,149.380890 
	C461.788910,152.374039 461.434662,155.387726 461.364166,158.398865 
	C461.102356,169.576324 452.785767,171.279526 443.584351,173.115021 
	C439.307739,173.243439 435.873932,173.243439 431.976532,173.243439 
	C431.976532,157.749237 431.976532,142.915894 431.976532,128.082535 
z"/>
<path fill="#ACBECF" opacity="0" stroke="none" 
	d="
M431.604919,128.292908 
	C431.976532,142.915894 431.976532,157.749237 431.976532,173.243439 
	C435.873932,173.243439 439.307739,173.243439 443.175812,173.240295 
	C439.684631,173.562042 435.759155,173.886917 431.233307,174.261490 
	C431.233307,158.585648 431.233307,143.544464 431.604919,128.292908 
z"/>
</svg>